<?xml version="1.0" encoding="UTF-8" standalone="no"?><svg xmlns="http://www.w3.org/2000/svg" xmlns:xlink="http://www.w3.org/1999/xlink" clip-rule="evenodd" stroke-miterlimit="10" viewBox="0 0 402 458"><desc>SVG generated by Keynote</desc><defs><pattern id="patternP1" patternUnits="userSpaceOnUse" width="512" height="512" viewBox="0 0 512 512"><image xlink:href="../../ED0ABAD0-9221-4D59-891E-443D39B5FD4E/assets/71D9304BD44382C20CC202032C6D6058.png" width="512.00" height="512.00"></image></pattern></defs><g transform="matrix(1.00, 0.00, -0.00, -1.00, 0.0, 458.0)"><image xlink:href="C1F9EDB1C5E62BFF27FA2B703E226B6B.png" width="399.00" height="451.00" transform="matrix(1.00, 0.00, -0.00, -1.00, 2.0, 452.3)" opacity="0.50"></image><g><clipPath id="clip0x608003aad8c0"><path d="M 6.0 24.5 L 6.0 433.5 C 6.0 442.8 13.5 450.0 22.8 450.0 L 379.9 450.0 C 389.2 450.0 397.0 442.8 397.0 433.5 L 397.0 24.5 C 397.0 15.2 389.2 8.0 379.9 8.0 L 22.8 8.0 C 13.5 8.0 6.0 15.2 6.0 24.5 Z M 6.0 24.5 "></path></clipPath><g clip-path="url(#clip0x608003aad8c0)"><path d="M 6.0 8.0 L 397.0 8.0 L 397.0 450.0 L 6.0 450.0 Z M 6.0 8.0 " fill="url(#patternP1)"></path></g></g><image xlink:href="../../A7E49E2A-ECFB-494E-A3C9-9194F53AFB51/assets/385C0EC0AB7FEBD133357EB2B5B48598.png" width="271.00" height="35.00" transform="matrix(1.00, 0.00, -0.00, -1.00, 22.0, 441.0)"></image><g><clipPath id="clip0x6000058bf140"><path d="M 6.0 7.7 L 396.7 7.7 L 396.7 457.3 L 6.0 457.3 Z M 6.0 7.7 "></path></clipPath><g clip-path="url(#clip0x6000058bf140)"><text xml:space="preserve" font-family="HelveticaNeue-Medium,Helvetica Neue" font-size="30.0" fill="#FEFFFE" transform="matrix(1.00, 0.00, -0.00, -1.00, 22.8, 416.7)">D</text><text xml:space="preserve" font-family="HelveticaNeue-Medium,Helvetica Neue" font-size="30.0" fill="#FEFFFE" transform="matrix(1.00, 0.00, -0.00, -1.00, 44.4, 416.7)">e</text><text xml:space="preserve" font-family="HelveticaNeue-Medium,Helvetica Neue" font-size="30.0" fill="#FEFFFE" transform="matrix(1.00, 0.00, -0.00, -1.00, 61.1, 416.7)">v</text><text xml:space="preserve" font-family="HelveticaNeue-Medium,Helvetica Neue" font-size="30.0" fill="#FEFFFE" transform="matrix(1.00, 0.00, -0.00, -1.00, 76.7, 416.7)">e</text><text xml:space="preserve" font-family="HelveticaNeue-Medium,Helvetica Neue" font-size="30.0" fill="#FEFFFE" transform="matrix(1.00, 0.00, -0.00, -1.00, 93.4, 416.7)">l</text><text xml:space="preserve" font-family="HelveticaNeue-Medium,Helvetica Neue" font-size="30.0" fill="#FEFFFE" transform="matrix(1.00, 0.00, -0.00, -1.00, 100.6, 416.7)">o</text><text xml:space="preserve" font-family="HelveticaNeue-Medium,Helvetica Neue" font-size="30.0" fill="#FEFFFE" transform="matrix(1.00, 0.00, -0.00, -1.00, 118.4, 416.7)">p</text><text xml:space="preserve" font-family="HelveticaNeue-Medium,Helvetica Neue" font-size="30.0" fill="#FEFFFE" transform="matrix(1.00, 0.00, -0.00, -1.00, 136.7, 416.7)">e</text><text xml:space="preserve" font-family="HelveticaNeue-Medium,Helvetica Neue" font-size="30.0" fill="#FEFFFE" transform="matrix(1.00, 0.00, -0.00, -1.00, 153.4, 416.7)">r</text><text xml:space="preserve" font-family="HelveticaNeue-Medium,Helvetica Neue" font-size="30.0" fill="#FEFFFE" transform="matrix(1.00, 0.00, -0.00, -1.00, 164.0, 416.7)"> </text><text xml:space="preserve" font-family="HelveticaNeue-Medium,Helvetica Neue" font-size="30.0" fill="#FEFFFE" transform="matrix(1.00, 0.00, -0.00, -1.00, 172.3, 416.7)">m</text><text xml:space="preserve" font-family="HelveticaNeue-Medium,Helvetica Neue" font-size="30.0" fill="#FEFFFE" transform="matrix(1.00, 0.00, -0.00, -1.00, 198.4, 416.7)">a</text><text xml:space="preserve" font-family="HelveticaNeue-Medium,Helvetica Neue" font-size="30.0" fill="#FEFFFE" transform="matrix(1.00, 0.00, -0.00, -1.00, 215.1, 416.7)">c</text><text xml:space="preserve" font-family="HelveticaNeue-Medium,Helvetica Neue" font-size="30.0" fill="#FEFFFE" transform="matrix(1.00, 0.00, -0.00, -1.00, 231.8, 416.7)">h</text><text xml:space="preserve" font-family="HelveticaNeue-Medium,Helvetica Neue" font-size="30.0" fill="#FEFFFE" transform="matrix(1.00, 0.00, -0.00, -1.00, 249.0, 416.7)">i</text><text xml:space="preserve" font-family="HelveticaNeue-Medium,Helvetica Neue" font-size="30.0" fill="#FEFFFE" transform="matrix(1.00, 0.00, -0.00, -1.00, 256.2, 416.7)">n</text><text xml:space="preserve" font-family="HelveticaNeue-Medium,Helvetica Neue" font-size="30.0" fill="#FEFFFE" transform="matrix(1.00, 0.00, -0.00, -1.00, 273.4, 416.7)">e</text></g></g></g></svg>