<?xml version="1.0" encoding="UTF-8" standalone="no"?><svg xmlns="http://www.w3.org/2000/svg" xmlns:xlink="http://www.w3.org/1999/xlink" clip-rule="evenodd" stroke-miterlimit="10" viewBox="0 0 1024 768"><desc>SVG generated by Keynote</desc><defs><pattern id="patternP1" patternUnits="userSpaceOnUse" width="512" height="512" viewBox="0 0 512 512"><image xlink:href="../../ED0ABAD0-9221-4D59-891E-443D39B5FD4E/assets/71D9304BD44382C20CC202032C6D6058.png" width="512.00" height="512.00"></image></pattern><linearGradient id="gradSh1.23" x1="0.0" y1="0.0" x2="100.0" y2="0.0" gradientUnits="userSpaceOnUse" gradientTransform="matrix(0.00, -1.02, -2.82, 0.00, 241.3, 522.3)"><stop offset="0.00000" stop-color="#EDAC0F"></stop><stop offset="0.01026" stop-color="#EDAC10"></stop><stop offset="0.01173" stop-color="#ECAB10"></stop><stop offset="0.81085" stop-color="#D47D20"></stop><stop offset="0.81158" stop-color="#D47C20"></stop><stop offset="1.00000" stop-color="#CE7123"></stop></linearGradient><linearGradient id="gradSh1.24" x1="0.0" y1="0.0" x2="100.0" y2="0.0" gradientUnits="userSpaceOnUse" gradientTransform="matrix(0.00, -1.02, -2.82, 0.00, 241.3, 378.0)"><stop offset="0.00000" stop-color="#EDAC0F"></stop><stop offset="0.01026" stop-color="#EDAC10"></stop><stop offset="0.01173" stop-color="#ECAB10"></stop><stop offset="0.81085" stop-color="#D47D20"></stop><stop offset="0.81158" stop-color="#D47C20"></stop><stop offset="1.00000" stop-color="#CE7123"></stop></linearGradient><linearGradient id="gradSh1.25" x1="0.0" y1="0.0" x2="100.0" y2="0.0" gradientUnits="userSpaceOnUse" gradientTransform="matrix(0.00, -1.02, -1.66, 0.00, 780.7, 518.4)"><stop offset="0.00000" stop-color="#EDAC0F"></stop><stop offset="0.01026" stop-color="#EDAC10"></stop><stop offset="0.01173" stop-color="#ECAB10"></stop><stop offset="0.81085" stop-color="#D47D20"></stop><stop offset="0.81158" stop-color="#D47C20"></stop><stop offset="1.00000" stop-color="#CE7123"></stop></linearGradient><linearGradient id="gradSh1.26" x1="0.0" y1="0.0" x2="100.0" y2="0.0" gradientUnits="userSpaceOnUse" gradientTransform="matrix(0.00, -1.02, -1.93, 0.00, 780.7, 291.3)"><stop offset="0.00000" stop-color="#EDAC0F"></stop><stop offset="0.01026" stop-color="#EDAC10"></stop><stop offset="0.01173" stop-color="#ECAB10"></stop><stop offset="0.81085" stop-color="#D47D20"></stop><stop offset="0.81158" stop-color="#D47C20"></stop><stop offset="1.00000" stop-color="#CE7123"></stop></linearGradient></defs><g transform="matrix(1.00, 0.00, -0.00, -1.00, 0.0, 768.0)"><g><clipPath id="clip0x6000068a2700"><path d="M 0.0 768.0 L 1024.0 768.0 L 1024.0 0.0 L 0.0 0.0 Z M 0.0 768.0 "></path></clipPath><g clip-path="url(#clip0x6000068a2700)"><image xlink:href="../../073872A3-6B4A-4DBD-B237-E9D6C1798DA3/assets/9397CAD6F20342ACC2646ABBCA758461.jpeg" width="2048.00" height="1536.00" transform="matrix(0.50, 0.00, -0.00, -0.50, 0.0, 768.0)"></image></g></g><image xlink:href="../../9727412E-2B64-4CE1-91B9-98F74A0BF344/assets/C1F9EDB1C5E62BFF27FA2B703E226B6B.png" width="399.00" height="451.00" transform="matrix(1.00, 0.00, -0.00, -1.00, 42.0, 607.3)" opacity="0.50"></image><g><clipPath id="clip0x6080044bfe00"><path d="M 46.0 179.5 L 46.0 588.5 C 46.0 597.8 53.5 605.0 62.8 605.0 L 419.9 605.0 C 429.2 605.0 437.0 597.8 437.0 588.5 L 437.0 179.5 C 437.0 170.2 429.2 163.0 419.9 163.0 L 62.8 163.0 C 53.5 163.0 46.0 170.2 46.0 179.5 Z M 46.0 179.5 "></path></clipPath><g clip-path="url(#clip0x6080044bfe00)"><path d="M 46.0 163.0 L 437.0 163.0 L 437.0 605.0 L 46.0 605.0 Z M 46.0 163.0 " fill="url(#patternP1)"></path></g></g><image xlink:href="../../A7E49E2A-ECFB-494E-A3C9-9194F53AFB51/assets/385C0EC0AB7FEBD133357EB2B5B48598.png" width="271.00" height="35.00" transform="matrix(1.00, 0.00, -0.00, -1.00, 62.0, 596.0)"></image><g><clipPath id="clip0x6000068a2b80"><path d="M 46.0 162.7 L 436.7 162.7 L 436.7 612.3 L 46.0 612.3 Z M 46.0 162.7 "></path></clipPath><g clip-path="url(#clip0x6000068a2b80)"><text xml:space="preserve" font-family="HelveticaNeue-Medium,Helvetica Neue" font-size="30.0" fill="#FEFFFE" transform="matrix(1.00, 0.00, -0.00, -1.00, 62.8, 571.7)">D</text><text xml:space="preserve" font-family="HelveticaNeue-Medium,Helvetica Neue" font-size="30.0" fill="#FEFFFE" transform="matrix(1.00, 0.00, -0.00, -1.00, 84.4, 571.7)">e</text><text xml:space="preserve" font-family="HelveticaNeue-Medium,Helvetica Neue" font-size="30.0" fill="#FEFFFE" transform="matrix(1.00, 0.00, -0.00, -1.00, 101.1, 571.7)">v</text><text xml:space="preserve" font-family="HelveticaNeue-Medium,Helvetica Neue" font-size="30.0" fill="#FEFFFE" transform="matrix(1.00, 0.00, -0.00, -1.00, 116.7, 571.7)">e</text><text xml:space="preserve" font-family="HelveticaNeue-Medium,Helvetica Neue" font-size="30.0" fill="#FEFFFE" transform="matrix(1.00, 0.00, -0.00, -1.00, 133.4, 571.7)">l</text><text xml:space="preserve" font-family="HelveticaNeue-Medium,Helvetica Neue" font-size="30.0" fill="#FEFFFE" transform="matrix(1.00, 0.00, -0.00, -1.00, 140.6, 571.7)">o</text><text xml:space="preserve" font-family="HelveticaNeue-Medium,Helvetica Neue" font-size="30.0" fill="#FEFFFE" transform="matrix(1.00, 0.00, -0.00, -1.00, 158.4, 571.7)">p</text><text xml:space="preserve" font-family="HelveticaNeue-Medium,Helvetica Neue" font-size="30.0" fill="#FEFFFE" transform="matrix(1.00, 0.00, -0.00, -1.00, 176.7, 571.7)">e</text><text xml:space="preserve" font-family="HelveticaNeue-Medium,Helvetica Neue" font-size="30.0" fill="#FEFFFE" transform="matrix(1.00, 0.00, -0.00, -1.00, 193.4, 571.7)">r</text><text xml:space="preserve" font-family="HelveticaNeue-Medium,Helvetica Neue" font-size="30.0" fill="#FEFFFE" transform="matrix(1.00, 0.00, -0.00, -1.00, 204.0, 571.7)"> </text><text xml:space="preserve" font-family="HelveticaNeue-Medium,Helvetica Neue" font-size="30.0" fill="#FEFFFE" transform="matrix(1.00, 0.00, -0.00, -1.00, 212.3, 571.7)">m</text><text xml:space="preserve" font-family="HelveticaNeue-Medium,Helvetica Neue" font-size="30.0" fill="#FEFFFE" transform="matrix(1.00, 0.00, -0.00, -1.00, 238.4, 571.7)">a</text><text xml:space="preserve" font-family="HelveticaNeue-Medium,Helvetica Neue" font-size="30.0" fill="#FEFFFE" transform="matrix(1.00, 0.00, -0.00, -1.00, 255.1, 571.7)">c</text><text xml:space="preserve" font-family="HelveticaNeue-Medium,Helvetica Neue" font-size="30.0" fill="#FEFFFE" transform="matrix(1.00, 0.00, -0.00, -1.00, 271.8, 571.7)">h</text><text xml:space="preserve" font-family="HelveticaNeue-Medium,Helvetica Neue" font-size="30.0" fill="#FEFFFE" transform="matrix(1.00, 0.00, -0.00, -1.00, 289.0, 571.7)">i</text><text xml:space="preserve" font-family="HelveticaNeue-Medium,Helvetica Neue" font-size="30.0" fill="#FEFFFE" transform="matrix(1.00, 0.00, -0.00, -1.00, 296.2, 571.7)">n</text><text xml:space="preserve" font-family="HelveticaNeue-Medium,Helvetica Neue" font-size="30.0" fill="#FEFFFE" transform="matrix(1.00, 0.00, -0.00, -1.00, 313.4, 571.7)">e</text></g></g><image xlink:href="../../A7E49E2A-ECFB-494E-A3C9-9194F53AFB51/assets/0B6E322E9B29DE41ED92F7B40F48A2D3.png" width="288.00" height="108.00" transform="matrix(1.00, 0.00, -0.00, -1.00, 97.3, 523.3)" opacity="0.50"></image><g><clipPath id="clip0x6000068a23a0"><path d="M 340.3 506.7 C 395.0 487.2 395.0 455.5 340.3 436.0 C 285.7 416.5 197.0 416.5 142.3 436.0 C 87.7 455.5 87.7 487.2 142.3 506.7 C 197.0 526.2 285.7 526.2 340.3 506.7 Z M 340.3 506.7 "></path></clipPath><g clip-path="url(#clip0x6000068a23a0)"><path d="M 340.3 506.7 C 395.0 487.2 395.0 455.5 340.3 436.0 C 285.7 416.5 197.0 416.5 142.3 436.0 C 87.7 455.5 87.7 487.2 142.3 506.7 C 197.0 526.2 285.7 526.2 340.3 506.7 Z M 340.3 506.7 " fill="url(#gradSh1.23)"></path></g></g><image xlink:href="../../A7E49E2A-ECFB-494E-A3C9-9194F53AFB51/assets/A0D6FD2DA033B8A7DEE55374BB31D84A.png" width="187.00" height="27.00" transform="matrix(1.00, 0.00, -0.00, -1.00, 148.0, 481.0)"></image><g><clipPath id="clip0x600006ea2880"><path d="M 101.3 421.3 L 381.3 421.3 L 381.3 521.3 L 101.3 521.3 Z M 101.3 421.3 "></path></clipPath><g clip-path="url(#clip0x600006ea2880)"><text xml:space="preserve" font-family="HelveticaNeue-Medium,Helvetica Neue" font-size="26.0" fill="#3B3B3B" transform="matrix(1.00, 0.00, -0.00, -1.00, 149.1, 461.4)">a</text><text xml:space="preserve" font-family="HelveticaNeue-Medium,Helvetica Neue" font-size="26.0" fill="#3B3B3B" transform="matrix(1.00, 0.00, -0.00, -1.00, 163.6, 461.4)">p</text><text xml:space="preserve" font-family="HelveticaNeue-Medium,Helvetica Neue" font-size="26.0" fill="#3B3B3B" transform="matrix(1.00, 0.00, -0.00, -1.00, 179.4, 461.4)">p</text><text xml:space="preserve" font-family="HelveticaNeue-Medium,Helvetica Neue" font-size="26.0" fill="#3B3B3B" transform="matrix(1.00, 0.00, -0.00, -1.00, 195.3, 461.4)">l</text><text xml:space="preserve" font-family="HelveticaNeue-Medium,Helvetica Neue" font-size="26.0" fill="#3B3B3B" transform="matrix(1.00, 0.00, -0.00, -1.00, 201.6, 461.4)">i</text><text xml:space="preserve" font-family="HelveticaNeue-Medium,Helvetica Neue" font-size="26.0" fill="#3B3B3B" transform="matrix(1.00, 0.00, -0.00, -1.00, 207.9, 461.4)">c</text><text xml:space="preserve" font-family="HelveticaNeue-Medium,Helvetica Neue" font-size="26.0" fill="#3B3B3B" transform="matrix(1.00, 0.00, -0.00, -1.00, 222.3, 461.4)">a</text><text xml:space="preserve" font-family="HelveticaNeue-Medium,Helvetica Neue" font-size="26.0" fill="#3B3B3B" transform="matrix(1.00, 0.00, -0.00, -1.00, 236.8, 461.4)">t</text><text xml:space="preserve" font-family="HelveticaNeue-Medium,Helvetica Neue" font-size="26.0" fill="#3B3B3B" transform="matrix(1.00, 0.00, -0.00, -1.00, 245.4, 461.4)">i</text><text xml:space="preserve" font-family="HelveticaNeue-Medium,Helvetica Neue" font-size="26.0" fill="#3B3B3B" transform="matrix(1.00, 0.00, -0.00, -1.00, 251.7, 461.4)">o</text><text xml:space="preserve" font-family="HelveticaNeue-Medium,Helvetica Neue" font-size="26.0" fill="#3B3B3B" transform="matrix(1.00, 0.00, -0.00, -1.00, 267.1, 461.4)">n</text><text xml:space="preserve" font-family="HelveticaNeue-Medium,Helvetica Neue" font-size="26.0" fill="#3B3B3B" transform="matrix(1.00, 0.00, -0.00, -1.00, 282.0, 461.4)">.</text><text xml:space="preserve" font-family="HelveticaNeue-Medium,Helvetica Neue" font-size="26.0" fill="#3B3B3B" transform="matrix(1.00, 0.00, -0.00, -1.00, 289.3, 461.4)">a</text><text xml:space="preserve" font-family="HelveticaNeue-Medium,Helvetica Neue" font-size="26.0" fill="#3B3B3B" transform="matrix(1.00, 0.00, -0.00, -1.00, 303.7, 461.4)">p</text><text xml:space="preserve" font-family="HelveticaNeue-Medium,Helvetica Neue" font-size="26.0" fill="#3B3B3B" transform="matrix(1.00, 0.00, -0.00, -1.00, 319.6, 461.4)">k</text></g></g><image xlink:href="../../A7E49E2A-ECFB-494E-A3C9-9194F53AFB51/assets/0B6E322E9B29DE41ED92F7B40F48A2D3.png" width="288.00" height="108.00" transform="matrix(1.00, 0.00, -0.00, -1.00, 97.3, 379.0)" opacity="0.50"></image><g><clipPath id="clip0x600006ea30c0"><path d="M 340.3 362.4 C 395.0 342.8 395.0 311.2 340.3 291.6 C 285.7 272.1 197.0 272.1 142.3 291.6 C 87.7 311.2 87.7 342.8 142.3 362.4 C 197.0 381.9 285.7 381.9 340.3 362.4 Z M 340.3 362.4 "></path></clipPath><g clip-path="url(#clip0x600006ea30c0)"><path d="M 340.3 362.4 C 395.0 342.8 395.0 311.2 340.3 291.6 C 285.7 272.1 197.0 272.1 142.3 291.6 C 87.7 311.2 87.7 342.8 142.3 362.4 C 197.0 381.9 285.7 381.9 340.3 362.4 Z M 340.3 362.4 " fill="url(#gradSh1.24)"></path></g></g><image xlink:href="../../A7E49E2A-ECFB-494E-A3C9-9194F53AFB51/assets/5213038C481B57C2C2222C89C2570D57.png" width="242.00" height="26.00" transform="matrix(1.00, 0.00, -0.00, -1.00, 121.0, 336.0)"></image><g><clipPath id="clip0x6000070a33c0"><path d="M 101.3 277.0 L 381.3 277.0 L 381.3 377.0 L 101.3 377.0 Z M 101.3 277.0 "></path></clipPath><g clip-path="url(#clip0x6000070a33c0)"><text xml:space="preserve" font-family="HelveticaNeue-Medium,Helvetica Neue" font-size="26.0" fill="#3B3B3B" transform="matrix(1.00, 0.00, -0.00, -1.00, 121.4, 317.1)">a</text><text xml:space="preserve" font-family="HelveticaNeue-Medium,Helvetica Neue" font-size="26.0" fill="#3B3B3B" transform="matrix(1.00, 0.00, -0.00, -1.00, 135.9, 317.1)">p</text><text xml:space="preserve" font-family="HelveticaNeue-Medium,Helvetica Neue" font-size="26.0" fill="#3B3B3B" transform="matrix(1.00, 0.00, -0.00, -1.00, 151.8, 317.1)">p</text><text xml:space="preserve" font-family="HelveticaNeue-Medium,Helvetica Neue" font-size="26.0" fill="#3B3B3B" transform="matrix(1.00, 0.00, -0.00, -1.00, 167.6, 317.1)">l</text><text xml:space="preserve" font-family="HelveticaNeue-Medium,Helvetica Neue" font-size="26.0" fill="#3B3B3B" transform="matrix(1.00, 0.00, -0.00, -1.00, 173.9, 317.1)">i</text><text xml:space="preserve" font-family="HelveticaNeue-Medium,Helvetica Neue" font-size="26.0" fill="#3B3B3B" transform="matrix(1.00, 0.00, -0.00, -1.00, 180.2, 317.1)">c</text><text xml:space="preserve" font-family="HelveticaNeue-Medium,Helvetica Neue" font-size="26.0" fill="#3B3B3B" transform="matrix(1.00, 0.00, -0.00, -1.00, 194.6, 317.1)">a</text><text xml:space="preserve" font-family="HelveticaNeue-Medium,Helvetica Neue" font-size="26.0" fill="#3B3B3B" transform="matrix(1.00, 0.00, -0.00, -1.00, 209.1, 317.1)">t</text><text xml:space="preserve" font-family="HelveticaNeue-Medium,Helvetica Neue" font-size="26.0" fill="#3B3B3B" transform="matrix(1.00, 0.00, -0.00, -1.00, 217.7, 317.1)">i</text><text xml:space="preserve" font-family="HelveticaNeue-Medium,Helvetica Neue" font-size="26.0" fill="#3B3B3B" transform="matrix(1.00, 0.00, -0.00, -1.00, 224.0, 317.1)">o</text><text xml:space="preserve" font-family="HelveticaNeue-Medium,Helvetica Neue" font-size="26.0" fill="#3B3B3B" transform="matrix(1.00, 0.00, -0.00, -1.00, 239.4, 317.1)">n</text><text xml:space="preserve" font-family="HelveticaNeue-Medium,Helvetica Neue" font-size="26.0" fill="#3B3B3B" transform="matrix(1.00, 0.00, -0.00, -1.00, 254.3, 317.1)">-</text><text xml:space="preserve" font-family="HelveticaNeue-Medium,Helvetica Neue" font-size="26.0" fill="#3B3B3B" transform="matrix(1.00, 0.00, -0.00, -1.00, 264.5, 317.1)">t</text><text xml:space="preserve" font-family="HelveticaNeue-Medium,Helvetica Neue" font-size="26.0" fill="#3B3B3B" transform="matrix(1.00, 0.00, -0.00, -1.00, 273.1, 317.1)">e</text><text xml:space="preserve" font-family="HelveticaNeue-Medium,Helvetica Neue" font-size="26.0" fill="#3B3B3B" transform="matrix(1.00, 0.00, -0.00, -1.00, 287.6, 317.1)">s</text><text xml:space="preserve" font-family="HelveticaNeue-Medium,Helvetica Neue" font-size="26.0" fill="#3B3B3B" transform="matrix(1.00, 0.00, -0.00, -1.00, 301.1, 317.1)">t</text><text xml:space="preserve" font-family="HelveticaNeue-Medium,Helvetica Neue" font-size="26.0" fill="#3B3B3B" transform="matrix(1.00, 0.00, -0.00, -1.00, 309.7, 317.1)">.</text><text xml:space="preserve" font-family="HelveticaNeue-Medium,Helvetica Neue" font-size="26.0" fill="#3B3B3B" transform="matrix(1.00, 0.00, -0.00, -1.00, 317.0, 317.1)">a</text><text xml:space="preserve" font-family="HelveticaNeue-Medium,Helvetica Neue" font-size="26.0" fill="#3B3B3B" transform="matrix(1.00, 0.00, -0.00, -1.00, 331.4, 317.1)">p</text><text xml:space="preserve" font-family="HelveticaNeue-Medium,Helvetica Neue" font-size="26.0" fill="#3B3B3B" transform="matrix(1.00, 0.00, -0.00, -1.00, 347.3, 317.1)">k</text></g></g><image xlink:href="../../A7E49E2A-ECFB-494E-A3C9-9194F53AFB51/assets/642304579D6D77E2E40C2DF24DF0669C.png" width="399.00" height="640.00" transform="matrix(1.00, 0.00, -0.00, -1.00, 581.3, 679.3)" opacity="0.50"></image><path d="M 585.3 62.1 L 585.0 660.5 C 585.0 669.8 592.8 677.0 602.1 677.0 L 959.2 677.0 C 968.5 677.0 976.0 669.8 976.0 660.5 L 976.0 62.1 C 976.0 52.8 968.5 45.0 959.2 45.0 L 602.1 45.0 C 592.8 45.0 585.3 52.8 585.3 62.1 Z M 585.3 62.1 " fill="#006366"></path><image xlink:href="../../A7E49E2A-ECFB-494E-A3C9-9194F53AFB51/assets/F2EC7EC4530E47F2E6493A16717A4426.png" width="349.00" height="29.00" transform="matrix(1.00, 0.00, -0.00, -1.00, 598.0, 668.0)"></image><g><clipPath id="clip0x6080046a2640"><path d="M 585.3 45.3 L 976.0 45.3 L 976.0 684.3 L 585.3 684.3 Z M 585.3 45.3 "></path></clipPath><g clip-path="url(#clip0x6080046a2640)"><text xml:space="preserve" font-family="HelveticaNeue-Medium,Helvetica Neue" font-size="30.0" fill="#FEFFFE" transform="matrix(1.00, 0.00, -0.00, -1.00, 602.1, 643.7)">A</text><text xml:space="preserve" font-family="HelveticaNeue-Medium,Helvetica Neue" font-size="30.0" fill="#FEFFFE" transform="matrix(1.00, 0.00, -0.00, -1.00, 622.1, 643.7)">n</text><text xml:space="preserve" font-family="HelveticaNeue-Medium,Helvetica Neue" font-size="30.0" fill="#FEFFFE" transform="matrix(1.00, 0.00, -0.00, -1.00, 639.3, 643.7)">d</text><text xml:space="preserve" font-family="HelveticaNeue-Medium,Helvetica Neue" font-size="30.0" fill="#FEFFFE" transform="matrix(1.00, 0.00, -0.00, -1.00, 657.7, 643.7)">r</text><text xml:space="preserve" font-family="HelveticaNeue-Medium,Helvetica Neue" font-size="30.0" fill="#FEFFFE" transform="matrix(1.00, 0.00, -0.00, -1.00, 667.7, 643.7)">o</text><text xml:space="preserve" font-family="HelveticaNeue-Medium,Helvetica Neue" font-size="30.0" fill="#FEFFFE" transform="matrix(1.00, 0.00, -0.00, -1.00, 685.5, 643.7)">i</text><text xml:space="preserve" font-family="HelveticaNeue-Medium,Helvetica Neue" font-size="30.0" fill="#FEFFFE" transform="matrix(1.00, 0.00, -0.00, -1.00, 692.7, 643.7)">d</text><text xml:space="preserve" font-family="HelveticaNeue-Medium,Helvetica Neue" font-size="30.0" fill="#FEFFFE" transform="matrix(1.00, 0.00, -0.00, -1.00, 711.0, 643.7)"> </text><text xml:space="preserve" font-family="HelveticaNeue-Medium,Helvetica Neue" font-size="30.0" fill="#FEFFFE" transform="matrix(1.00, 0.00, -0.00, -1.00, 719.4, 643.7)">d</text><text xml:space="preserve" font-family="HelveticaNeue-Medium,Helvetica Neue" font-size="30.0" fill="#FEFFFE" transform="matrix(1.00, 0.00, -0.00, -1.00, 737.7, 643.7)">e</text><text xml:space="preserve" font-family="HelveticaNeue-Medium,Helvetica Neue" font-size="30.0" fill="#FEFFFE" transform="matrix(1.00, 0.00, -0.00, -1.00, 754.4, 643.7)">v</text><text xml:space="preserve" font-family="HelveticaNeue-Medium,Helvetica Neue" font-size="30.0" fill="#FEFFFE" transform="matrix(1.00, 0.00, -0.00, -1.00, 770.0, 643.7)">i</text><text xml:space="preserve" font-family="HelveticaNeue-Medium,Helvetica Neue" font-size="30.0" fill="#FEFFFE" transform="matrix(1.00, 0.00, -0.00, -1.00, 777.2, 643.7)">c</text><text xml:space="preserve" font-family="HelveticaNeue-Medium,Helvetica Neue" font-size="30.0" fill="#FEFFFE" transform="matrix(1.00, 0.00, -0.00, -1.00, 793.9, 643.7)">e</text><text xml:space="preserve" font-family="HelveticaNeue-Medium,Helvetica Neue" font-size="30.0" fill="#FEFFFE" transform="matrix(1.00, 0.00, -0.00, -1.00, 810.6, 643.7)">/</text><text xml:space="preserve" font-family="HelveticaNeue-Medium,Helvetica Neue" font-size="30.0" fill="#FEFFFE" transform="matrix(1.00, 0.00, -0.00, -1.00, 821.1, 643.7)">e</text><text xml:space="preserve" font-family="HelveticaNeue-Medium,Helvetica Neue" font-size="30.0" fill="#FEFFFE" transform="matrix(1.00, 0.00, -0.00, -1.00, 837.8, 643.7)">m</text><text xml:space="preserve" font-family="HelveticaNeue-Medium,Helvetica Neue" font-size="30.0" fill="#FEFFFE" transform="matrix(1.00, 0.00, -0.00, -1.00, 863.9, 643.7)">u</text><text xml:space="preserve" font-family="HelveticaNeue-Medium,Helvetica Neue" font-size="30.0" fill="#FEFFFE" transform="matrix(1.00, 0.00, -0.00, -1.00, 881.1, 643.7)">l</text><text xml:space="preserve" font-family="HelveticaNeue-Medium,Helvetica Neue" font-size="30.0" fill="#FEFFFE" transform="matrix(1.00, 0.00, -0.00, -1.00, 888.3, 643.7)">a</text><text xml:space="preserve" font-family="HelveticaNeue-Medium,Helvetica Neue" font-size="30.0" fill="#FEFFFE" transform="matrix(1.00, 0.00, -0.00, -1.00, 905.0, 643.7)">t</text><text xml:space="preserve" font-family="HelveticaNeue-Medium,Helvetica Neue" font-size="30.0" fill="#FEFFFE" transform="matrix(1.00, 0.00, -0.00, -1.00, 915.0, 643.7)">o</text><text xml:space="preserve" font-family="HelveticaNeue-Medium,Helvetica Neue" font-size="30.0" fill="#FEFFFE" transform="matrix(1.00, 0.00, -0.00, -1.00, 932.8, 643.7)">r</text></g></g><path d="M 0.0 0.3 L 237.0 0.3 L 237.0 422.3 L 0.0 422.3 Z M 0.0 0.0 " fill="none" stroke="#EEEEEE" stroke-width="6.00" transform="matrix(1.00, 0.00, 0.00, -1.00, 662.0, 595.3)"></path><image xlink:href="../../A7E49E2A-ECFB-494E-A3C9-9194F53AFB51/assets/162037666E1F210B7E77C6AD0C6D5A29.png" width="172.00" height="108.00" transform="matrix(1.00, 0.00, -0.00, -1.00, 694.7, 519.4)" opacity="0.50"></image><g><clipPath id="clip0x6080046a3360"><path d="M 838.6 502.7 C 870.7 483.2 870.7 451.5 838.6 432.0 C 806.6 412.5 754.7 412.5 722.7 432.0 C 690.7 451.5 690.7 483.2 722.7 502.7 C 754.7 522.2 806.6 522.2 838.6 502.7 Z M 838.6 502.7 "></path></clipPath><g clip-path="url(#clip0x6080046a3360)"><path d="M 838.6 502.7 C 870.7 483.2 870.7 451.5 838.6 432.0 C 806.6 412.5 754.7 412.5 722.7 432.0 C 690.7 451.5 690.7 483.2 722.7 502.7 C 754.7 522.2 806.6 522.2 838.6 502.7 Z M 838.6 502.7 " fill="url(#gradSh1.25)"></path></g></g><image xlink:href="../../A7E49E2A-ECFB-494E-A3C9-9194F53AFB51/assets/F749792271CB97339E0738ABF6A3B711.png" width="100.00" height="27.00" transform="matrix(1.00, 0.00, -0.00, -1.00, 731.0, 477.0)"></image><g><clipPath id="clip0x6080048a3660"><path d="M 698.7 417.4 L 862.7 417.4 L 862.7 517.4 L 698.7 517.4 Z M 698.7 417.4 "></path></clipPath><g clip-path="url(#clip0x6080048a3660)"><text xml:space="preserve" font-family="HelveticaNeue-Medium,Helvetica Neue" font-size="26.0" fill="#3B3B3B" transform="matrix(1.00, 0.00, -0.00, -1.00, 731.8, 457.8)">a</text><text xml:space="preserve" font-family="HelveticaNeue-Medium,Helvetica Neue" font-size="26.0" fill="#3B3B3B" transform="matrix(1.00, 0.00, -0.00, -1.00, 746.2, 457.8)">p</text><text xml:space="preserve" font-family="HelveticaNeue-Medium,Helvetica Neue" font-size="26.0" fill="#3B3B3B" transform="matrix(1.00, 0.00, -0.00, -1.00, 762.1, 457.8)">p</text><text xml:space="preserve" font-family="HelveticaNeue-Medium,Helvetica Neue" font-size="26.0" fill="#3B3B3B" transform="matrix(1.00, 0.00, -0.00, -1.00, 778.0, 457.8)">.</text><text xml:space="preserve" font-family="HelveticaNeue-Medium,Helvetica Neue" font-size="26.0" fill="#3B3B3B" transform="matrix(1.00, 0.00, -0.00, -1.00, 785.2, 457.8)">a</text><text xml:space="preserve" font-family="HelveticaNeue-Medium,Helvetica Neue" font-size="26.0" fill="#3B3B3B" transform="matrix(1.00, 0.00, -0.00, -1.00, 799.7, 457.8)">p</text><text xml:space="preserve" font-family="HelveticaNeue-Medium,Helvetica Neue" font-size="26.0" fill="#3B3B3B" transform="matrix(1.00, 0.00, -0.00, -1.00, 815.6, 457.8)">k</text></g></g><image xlink:href="../../A7E49E2A-ECFB-494E-A3C9-9194F53AFB51/assets/E81C39A45B5F1315F53F326CE3CB29CA.png" width="199.00" height="108.00" transform="matrix(1.00, 0.00, -0.00, -1.00, 681.3, 292.3)" opacity="0.50"></image><g><clipPath id="clip0x6080048a3ba0"><path d="M 848.1 275.7 C 885.3 256.2 885.3 224.5 848.1 205.0 C 810.8 185.5 750.5 185.5 713.3 205.0 C 676.0 224.5 676.0 256.2 713.3 275.7 C 750.5 295.2 810.8 295.2 848.1 275.7 Z M 848.1 275.7 "></path></clipPath><g clip-path="url(#clip0x6080048a3ba0)"><path d="M 848.1 275.7 C 885.3 256.2 885.3 224.5 848.1 205.0 C 810.8 185.5 750.5 185.5 713.3 205.0 C 676.0 224.5 676.0 256.2 713.3 275.7 C 750.5 295.2 810.8 295.2 848.1 275.7 Z M 848.1 275.7 " fill="url(#gradSh1.26)"></path></g></g><image xlink:href="../../A7E49E2A-ECFB-494E-A3C9-9194F53AFB51/assets/161D9722EEEA25F3799DADD390028843.png" width="156.00" height="27.00" transform="matrix(1.00, 0.00, -0.00, -1.00, 703.0, 250.0)"></image><g><clipPath id="clip0x608004aa3ea0"><path d="M 685.3 190.3 L 876.0 190.3 L 876.0 290.3 L 685.3 290.3 Z M 685.3 190.3 "></path></clipPath><g clip-path="url(#clip0x608004aa3ea0)"><text xml:space="preserve" font-family="HelveticaNeue-Medium,Helvetica Neue" font-size="26.0" fill="#3B3B3B" transform="matrix(1.00, 0.00, -0.00, -1.00, 704.1, 230.6)">a</text><text xml:space="preserve" font-family="HelveticaNeue-Medium,Helvetica Neue" font-size="26.0" fill="#3B3B3B" transform="matrix(1.00, 0.00, -0.00, -1.00, 718.6, 230.6)">p</text><text xml:space="preserve" font-family="HelveticaNeue-Medium,Helvetica Neue" font-size="26.0" fill="#3B3B3B" transform="matrix(1.00, 0.00, -0.00, -1.00, 734.4, 230.6)">p</text><text xml:space="preserve" font-family="HelveticaNeue-Medium,Helvetica Neue" font-size="26.0" fill="#3B3B3B" transform="matrix(1.00, 0.00, -0.00, -1.00, 750.3, 230.6)">-</text><text xml:space="preserve" font-family="HelveticaNeue-Medium,Helvetica Neue" font-size="26.0" fill="#3B3B3B" transform="matrix(1.00, 0.00, -0.00, -1.00, 760.4, 230.6)">t</text><text xml:space="preserve" font-family="HelveticaNeue-Medium,Helvetica Neue" font-size="26.0" fill="#3B3B3B" transform="matrix(1.00, 0.00, -0.00, -1.00, 769.1, 230.6)">e</text><text xml:space="preserve" font-family="HelveticaNeue-Medium,Helvetica Neue" font-size="26.0" fill="#3B3B3B" transform="matrix(1.00, 0.00, -0.00, -1.00, 783.6, 230.6)">s</text><text xml:space="preserve" font-family="HelveticaNeue-Medium,Helvetica Neue" font-size="26.0" fill="#3B3B3B" transform="matrix(1.00, 0.00, -0.00, -1.00, 797.1, 230.6)">t</text><text xml:space="preserve" font-family="HelveticaNeue-Medium,Helvetica Neue" font-size="26.0" fill="#3B3B3B" transform="matrix(1.00, 0.00, -0.00, -1.00, 805.7, 230.6)">.</text><text xml:space="preserve" font-family="HelveticaNeue-Medium,Helvetica Neue" font-size="26.0" fill="#3B3B3B" transform="matrix(1.00, 0.00, -0.00, -1.00, 812.9, 230.6)">a</text><text xml:space="preserve" font-family="HelveticaNeue-Medium,Helvetica Neue" font-size="26.0" fill="#3B3B3B" transform="matrix(1.00, 0.00, -0.00, -1.00, 827.4, 230.6)">p</text><text xml:space="preserve" font-family="HelveticaNeue-Medium,Helvetica Neue" font-size="26.0" fill="#3B3B3B" transform="matrix(1.00, 0.00, -0.00, -1.00, 843.3, 230.6)">k</text></g></g><image xlink:href="../../9727412E-2B64-4CE1-91B9-98F74A0BF344/assets/1E64F75AF3E5932A6A7843C1A79696DA.png" width="106.00" height="29.00" transform="matrix(1.00, 0.00, -0.00, -1.00, 681.0, 568.0)"></image><text xml:space="preserve" font-family="HelveticaNeue-Medium,Helvetica Neue" font-size="27.0" fill="#EAEAEA" transform="matrix(1.00, 0.00, -0.00, -1.00, 683.5, 551.1)">p</text><text xml:space="preserve" font-family="HelveticaNeue-Medium,Helvetica Neue" font-size="27.0" fill="#EAEAEA" transform="matrix(1.00, 0.00, -0.00, -1.00, 700.0, 551.1)">r</text><text xml:space="preserve" font-family="HelveticaNeue-Medium,Helvetica Neue" font-size="27.0" fill="#EAEAEA" transform="matrix(1.00, 0.00, -0.00, -1.00, 709.1, 551.1)">o</text><text xml:space="preserve" font-family="HelveticaNeue-Medium,Helvetica Neue" font-size="27.0" fill="#EAEAEA" transform="matrix(1.00, 0.00, -0.00, -1.00, 725.1, 551.1)">c</text><text xml:space="preserve" font-family="HelveticaNeue-Medium,Helvetica Neue" font-size="27.0" fill="#EAEAEA" transform="matrix(1.00, 0.00, -0.00, -1.00, 740.1, 551.1)">e</text><text xml:space="preserve" font-family="HelveticaNeue-Medium,Helvetica Neue" font-size="27.0" fill="#EAEAEA" transform="matrix(1.00, 0.00, -0.00, -1.00, 755.1, 551.1)">s</text><text xml:space="preserve" font-family="HelveticaNeue-Medium,Helvetica Neue" font-size="27.0" fill="#EAEAEA" transform="matrix(1.00, 0.00, -0.00, -1.00, 769.1, 551.1)">s</text><image xlink:href="../../9727412E-2B64-4CE1-91B9-98F74A0BF344/assets/F0AD6DD1374F0052680CDFDD763DB220.png" width="277.00" height="33.00" transform="matrix(1.00, 0.00, -0.00, -1.00, 642.0, 132.0)"></image><text xml:space="preserve" font-family="CourierNewPSMT,Courier New" font-size="38.0" fill="#EAEAEA" transform="matrix(1.00, 0.00, -0.00, -1.00, 643.8, 105.9)">a</text><text xml:space="preserve" font-family="CourierNewPSMT,Courier New" font-size="38.0" fill="#EAEAEA" transform="matrix(1.00, 0.00, -0.00, -1.00, 666.7, 105.9)">m</text><text xml:space="preserve" font-family="CourierNewPSMT,Courier New" font-size="38.0" fill="#EAEAEA" transform="matrix(1.00, 0.00, -0.00, -1.00, 689.5, 105.9)"> </text><text xml:space="preserve" font-family="CourierNewPSMT,Courier New" font-size="38.0" fill="#EAEAEA" transform="matrix(1.00, 0.00, -0.00, -1.00, 712.3, 105.9)">i</text><text xml:space="preserve" font-family="CourierNewPSMT,Courier New" font-size="38.0" fill="#EAEAEA" transform="matrix(1.00, 0.00, -0.00, -1.00, 735.1, 105.9)">s</text><text xml:space="preserve" font-family="CourierNewPSMT,Courier New" font-size="38.0" fill="#EAEAEA" transform="matrix(1.00, 0.00, -0.00, -1.00, 757.9, 105.9)">t</text><text xml:space="preserve" font-family="CourierNewPSMT,Courier New" font-size="38.0" fill="#EAEAEA" transform="matrix(1.00, 0.00, -0.00, -1.00, 780.7, 105.9)">r</text><text xml:space="preserve" font-family="CourierNewPSMT,Courier New" font-size="38.0" fill="#EAEAEA" transform="matrix(1.00, 0.00, -0.00, -1.00, 803.5, 105.9)">u</text><text xml:space="preserve" font-family="CourierNewPSMT,Courier New" font-size="38.0" fill="#EAEAEA" transform="matrix(1.00, 0.00, -0.00, -1.00, 826.3, 105.9)">m</text><text xml:space="preserve" font-family="CourierNewPSMT,Courier New" font-size="38.0" fill="#EAEAEA" transform="matrix(1.00, 0.00, -0.00, -1.00, 849.1, 105.9)">e</text><text xml:space="preserve" font-family="CourierNewPSMT,Courier New" font-size="38.0" fill="#EAEAEA" transform="matrix(1.00, 0.00, -0.00, -1.00, 871.9, 105.9)">n</text><text xml:space="preserve" font-family="CourierNewPSMT,Courier New" font-size="38.0" fill="#EAEAEA" transform="matrix(1.00, 0.00, -0.00, -1.00, 894.7, 105.9)">t</text><image xlink:href="../../9727412E-2B64-4CE1-91B9-98F74A0BF344/assets/5B96414F358D8171B0BD720E37A4F9A2.png" width="135.00" height="220.00" transform="matrix(-0.00, 1.00, 1.00, 0.00, 670.6, 286.8)" opacity="0.50"></image><g><clipPath id="clip0x608004aa4f20"><path d="M 848.0 353.5 L 886.8 353.5 L 780.6 420.3 L 674.6 353.5 L 713.3 353.5 L 713.4 292.9 L 848.0 292.9 Z M 848.0 353.5 "></path></clipPath><g clip-path="url(#clip0x608004aa4f20)"><image xlink:href="../../A7E49E2A-ECFB-494E-A3C9-9194F53AFB51/assets/BF7F347A5AA08698479112B0B19D9FB4.png" width="512.00" height="512.00" transform="matrix(-0.00, 0.50, 0.50, 0.00, 674.6, 292.8)"></image></g></g><image xlink:href="../../9727412E-2B64-4CE1-91B9-98F74A0BF344/assets/E62DC7199988EA69B175F7CDFFA23C31.png" width="128.00" height="36.00" transform="matrix(1.00, 0.00, -0.00, -1.00, 717.0, 354.0)"></image><text xml:space="preserve" font-family="HelveticaNeue-Medium,Helvetica Neue" font-size="29.0" fill="#EAEAEA" transform="matrix(1.00, 0.00, -0.00, -1.00, 720.8, 330.6)">z</text><text xml:space="preserve" font-family="HelveticaNeue-Medium,Helvetica Neue" font-size="29.0" fill="#EAEAEA" transform="matrix(1.00, 0.00, -0.00, -1.00, 735.3, 330.6)">a</text><text xml:space="preserve" font-family="HelveticaNeue-Medium,Helvetica Neue" font-size="29.0" fill="#EAEAEA" transform="matrix(1.00, 0.00, -0.00, -1.00, 751.4, 330.6)">r</text><text xml:space="preserve" font-family="HelveticaNeue-Medium,Helvetica Neue" font-size="29.0" fill="#EAEAEA" transform="matrix(1.00, 0.00, -0.00, -1.00, 761.6, 330.6)">z</text><text xml:space="preserve" font-family="HelveticaNeue-Medium,Helvetica Neue" font-size="29.0" fill="#EAEAEA" transform="matrix(1.00, 0.00, -0.00, -1.00, 776.1, 330.6)">ą</text><text xml:space="preserve" font-family="HelveticaNeue-Medium,Helvetica Neue" font-size="29.0" fill="#EAEAEA" transform="matrix(1.00, 0.00, -0.00, -1.00, 792.2, 330.6)">d</text><text xml:space="preserve" font-family="HelveticaNeue-Medium,Helvetica Neue" font-size="29.0" fill="#EAEAEA" transform="matrix(1.00, 0.00, -0.00, -1.00, 809.9, 330.6)">z</text><text xml:space="preserve" font-family="HelveticaNeue-Medium,Helvetica Neue" font-size="29.0" fill="#EAEAEA" transform="matrix(1.00, 0.00, -0.00, -1.00, 824.4, 330.6)">a</text><image xlink:href="../../9727412E-2B64-4CE1-91B9-98F74A0BF344/assets/1581147CA51AC8696ABB2494942292A0.png" width="237.00" height="135.00" transform="matrix(1.00, 0.00, -0.00, -1.00, 430.1, 403.4)" opacity="0.50"></image><path d="M 548.8 401.4 L 569.5 383.7 L 602.5 394.0 L 606.1 373.0 L 643.9 374.0 L 629.6 353.9 L 663.5 344.6 L 634.6 331.0 L 656.9 313.9 L 619.9 309.3 L 625.4 288.4 L 589.0 294.0 L 576.5 274.0 L 548.8 288.5 L 521.1 274.0 L 508.6 294.0 L 472.2 288.4 L 477.7 309.3 L 440.7 313.9 L 463.0 331.0 L 434.1 344.6 L 468.0 353.9 L 453.7 374.0 L 491.5 373.0 L 495.1 394.0 L 528.1 383.7 Z M 548.8 401.4 " fill="#FEE55E"></path><image xlink:href="../../9727412E-2B64-4CE1-91B9-98F74A0BF344/assets/2B23CC03605982F3D3DE2D661DC5A3B6.png" width="134.00" height="35.00" transform="matrix(1.00, 0.00, -0.00, -1.00, 482.0, 350.0)"></image><g><clipPath id="clip0x6000070a3ea0"><path d="M 433.2 272.2 L 664.4 272.2 L 664.4 401.4 L 433.2 401.4 Z M 433.2 272.2 "></path></clipPath><g clip-path="url(#clip0x6000070a3ea0)"><text xml:space="preserve" font-family="HelveticaNeue-Medium,Helvetica Neue" font-size="30.0" fill="#FEFFFE" transform="matrix(1.00, 0.00, -0.00, -1.00, 484.3, 325.9)">c</text><text xml:space="preserve" font-family="HelveticaNeue-Medium,Helvetica Neue" font-size="30.0" fill="#FEFFFE" transform="matrix(1.00, 0.00, -0.00, -1.00, 501.0, 325.9)">e</text><text xml:space="preserve" font-family="HelveticaNeue-Medium,Helvetica Neue" font-size="30.0" fill="#FEFFFE" transform="matrix(1.00, 0.00, -0.00, -1.00, 517.7, 325.9)">r</text><text xml:space="preserve" font-family="HelveticaNeue-Medium,Helvetica Neue" font-size="30.0" fill="#FEFFFE" transform="matrix(1.00, 0.00, -0.00, -1.00, 528.2, 325.9)">t</text><text xml:space="preserve" font-family="HelveticaNeue-Medium,Helvetica Neue" font-size="30.0" fill="#FEFFFE" transform="matrix(1.00, 0.00, -0.00, -1.00, 538.2, 325.9)">y</text><text xml:space="preserve" font-family="HelveticaNeue-Medium,Helvetica Neue" font-size="30.0" fill="#FEFFFE" transform="matrix(1.00, 0.00, -0.00, -1.00, 553.8, 325.9)">ﬁ</text><text xml:space="preserve" font-family="HelveticaNeue-Medium,Helvetica Neue" font-size="30.0" fill="#FEFFFE" transform="matrix(1.00, 0.00, -0.00, -1.00, 570.5, 325.9)">k</text><text xml:space="preserve" font-family="HelveticaNeue-Medium,Helvetica Neue" font-size="30.0" fill="#FEFFFE" transform="matrix(1.00, 0.00, -0.00, -1.00, 586.6, 325.9)">a</text><text xml:space="preserve" font-family="HelveticaNeue-Medium,Helvetica Neue" font-size="30.0" fill="#FEFFFE" transform="matrix(1.00, 0.00, -0.00, -1.00, 603.3, 325.9)">t</text></g></g><path d="M 0.0 0.0 L 128.7 0.0 " fill="none" stroke="#FEE55E" stroke-width="8.00" transform="matrix(0.80, 0.59, 0.59, -0.80, 604.9, 367.0)"></path><path d="M 0.0 0.0 L 99.8 0.0 " fill="none" stroke="#FEE55E" stroke-width="8.00" transform="matrix(0.84, -0.55, -0.55, -0.84, 614.9, 311.0)"></path></g></svg>