<?xml version="1.0" encoding="UTF-8" standalone="no"?><svg xmlns="http://www.w3.org/2000/svg" xmlns:xlink="http://www.w3.org/1999/xlink" clip-rule="evenodd" stroke-miterlimit="10" viewBox="0 0 280 37"><desc>SVG generated by Keynote</desc><defs></defs><g transform="matrix(1.00, 0.00, -0.00, -1.00, 0.0, 37.0)"><image xlink:href="F0AD6DD1374F0052680CDFDD763DB220.png" width="277.00" height="33.00" transform="matrix(1.00, 0.00, -0.00, -1.00, 1.0, 35.0)"></image><text xml:space="preserve" font-family="CourierNewPSMT,Courier New" font-size="38.0" fill="#EAEAEA" transform="matrix(1.00, 0.00, -0.00, -1.00, 2.8, 8.9)">a</text><text xml:space="preserve" font-family="CourierNewPSMT,Courier New" font-size="38.0" fill="#EAEAEA" transform="matrix(1.00, 0.00, -0.00, -1.00, 25.7, 8.9)">m</text><text xml:space="preserve" font-family="CourierNewPSMT,Courier New" font-size="38.0" fill="#EAEAEA" transform="matrix(1.00, 0.00, -0.00, -1.00, 48.5, 8.9)"> </text><text xml:space="preserve" font-family="CourierNewPSMT,Courier New" font-size="38.0" fill="#EAEAEA" transform="matrix(1.00, 0.00, -0.00, -1.00, 71.3, 8.9)">i</text><text xml:space="preserve" font-family="CourierNewPSMT,Courier New" font-size="38.0" fill="#EAEAEA" transform="matrix(1.00, 0.00, -0.00, -1.00, 94.1, 8.9)">s</text><text xml:space="preserve" font-family="CourierNewPSMT,Courier New" font-size="38.0" fill="#EAEAEA" transform="matrix(1.00, 0.00, -0.00, -1.00, 116.9, 8.9)">t</text><text xml:space="preserve" font-family="CourierNewPSMT,Courier New" font-size="38.0" fill="#EAEAEA" transform="matrix(1.00, 0.00, -0.00, -1.00, 139.7, 8.9)">r</text><text xml:space="preserve" font-family="CourierNewPSMT,Courier New" font-size="38.0" fill="#EAEAEA" transform="matrix(1.00, 0.00, -0.00, -1.00, 162.5, 8.9)">u</text><text xml:space="preserve" font-family="CourierNewPSMT,Courier New" font-size="38.0" fill="#EAEAEA" transform="matrix(1.00, 0.00, -0.00, -1.00, 185.3, 8.9)">m</text><text xml:space="preserve" font-family="CourierNewPSMT,Courier New" font-size="38.0" fill="#EAEAEA" transform="matrix(1.00, 0.00, -0.00, -1.00, 208.1, 8.9)">e</text><text xml:space="preserve" font-family="CourierNewPSMT,Courier New" font-size="38.0" fill="#EAEAEA" transform="matrix(1.00, 0.00, -0.00, -1.00, 230.9, 8.9)">n</text><text xml:space="preserve" font-family="CourierNewPSMT,Courier New" font-size="38.0" fill="#EAEAEA" transform="matrix(1.00, 0.00, -0.00, -1.00, 253.7, 8.9)">t</text></g></svg>