<?xml version="1.0" encoding="UTF-8" standalone="no"?><svg xmlns="http://www.w3.org/2000/svg" xmlns:xlink="http://www.w3.org/1999/xlink" clip-rule="evenodd" stroke-miterlimit="10" viewBox="0 0 240 142"><desc>SVG generated by Keynote</desc><defs></defs><g transform="matrix(1.00, 0.00, -0.00, -1.00, 0.0, 142.0)"><image xlink:href="1581147CA51AC8696ABB2494942292A0.png" width="237.00" height="135.00" transform="matrix(1.00, 0.00, -0.00, -1.00, 1.1, 136.4)" opacity="0.50"></image><path d="M 119.8 134.4 L 140.5 116.7 L 173.5 127.0 L 177.1 106.0 L 214.9 107.0 L 200.6 86.9 L 234.5 77.6 L 205.6 64.0 L 227.9 46.9 L 190.9 42.3 L 196.4 21.4 L 160.0 27.0 L 147.5 7.0 L 119.8 21.5 L 92.1 7.0 L 79.6 27.0 L 43.2 21.4 L 48.7 42.3 L 11.7 46.9 L 34.0 64.0 L 5.1 77.6 L 39.0 86.9 L 24.7 107.0 L 62.5 106.0 L 66.1 127.0 L 99.1 116.7 Z M 119.8 134.4 " fill="#FEE55E"></path><image xlink:href="2B23CC03605982F3D3DE2D661DC5A3B6.png" width="134.00" height="35.00" transform="matrix(1.00, 0.00, -0.00, -1.00, 53.0, 83.0)"></image><g><clipPath id="clip0x6000066bcbc0"><path d="M 4.2 5.2 L 235.4 5.2 L 235.4 134.4 L 4.2 134.4 Z M 4.2 5.2 "></path></clipPath><g clip-path="url(#clip0x6000066bcbc0)"><text xml:space="preserve" font-family="HelveticaNeue-Medium,Helvetica Neue" font-size="30.0" fill="#FEFFFE" transform="matrix(1.00, 0.00, -0.00, -1.00, 55.3, 58.9)">c</text><text xml:space="preserve" font-family="HelveticaNeue-Medium,Helvetica Neue" font-size="30.0" fill="#FEFFFE" transform="matrix(1.00, 0.00, -0.00, -1.00, 72.0, 58.9)">e</text><text xml:space="preserve" font-family="HelveticaNeue-Medium,Helvetica Neue" font-size="30.0" fill="#FEFFFE" transform="matrix(1.00, 0.00, -0.00, -1.00, 88.7, 58.9)">r</text><text xml:space="preserve" font-family="HelveticaNeue-Medium,Helvetica Neue" font-size="30.0" fill="#FEFFFE" transform="matrix(1.00, 0.00, -0.00, -1.00, 99.2, 58.9)">t</text><text xml:space="preserve" font-family="HelveticaNeue-Medium,Helvetica Neue" font-size="30.0" fill="#FEFFFE" transform="matrix(1.00, 0.00, -0.00, -1.00, 109.2, 58.9)">y</text><text xml:space="preserve" font-family="HelveticaNeue-Medium,Helvetica Neue" font-size="30.0" fill="#FEFFFE" transform="matrix(1.00, 0.00, -0.00, -1.00, 124.8, 58.9)">ï¬</text><text xml:space="preserve" font-family="HelveticaNeue-Medium,Helvetica Neue" font-size="30.0" fill="#FEFFFE" transform="matrix(1.00, 0.00, -0.00, -1.00, 141.5, 58.9)">k</text><text xml:space="preserve" font-family="HelveticaNeue-Medium,Helvetica Neue" font-size="30.0" fill="#FEFFFE" transform="matrix(1.00, 0.00, -0.00, -1.00, 157.6, 58.9)">a</text><text xml:space="preserve" font-family="HelveticaNeue-Medium,Helvetica Neue" font-size="30.0" fill="#FEFFFE" transform="matrix(1.00, 0.00, -0.00, -1.00, 174.3, 58.9)">t</text></g></g></g></svg>