<?xml version="1.0" encoding="UTF-8" standalone="no"?><svg xmlns="http://www.w3.org/2000/svg" xmlns:xlink="http://www.w3.org/1999/xlink" clip-rule="evenodd" stroke-miterlimit="10" viewBox="0 0 201 115"><desc>SVG generated by Keynote</desc><defs><linearGradient id="gradSh1.22" x1="0.0" y1="0.0" x2="100.0" y2="0.0" gradientUnits="userSpaceOnUse" gradientTransform="matrix(0.00, -1.02, -1.93, 0.00, 100.7, 108.3)"><stop offset="0.00000" stop-color="#EDAC0F"></stop><stop offset="0.01026" stop-color="#EDAC10"></stop><stop offset="0.01173" stop-color="#ECAB10"></stop><stop offset="0.81085" stop-color="#D47D20"></stop><stop offset="0.81158" stop-color="#D47C20"></stop><stop offset="1.00000" stop-color="#CE7123"></stop></linearGradient></defs><g transform="matrix(1.00, 0.00, -0.00, -1.00, 0.0, 115.0)"><image xlink:href="../../A7E49E2A-ECFB-494E-A3C9-9194F53AFB51/assets/E81C39A45B5F1315F53F326CE3CB29CA.png" width="199.00" height="108.00" transform="matrix(1.00, 0.00, -0.00, -1.00, 1.3, 109.3)" opacity="0.50"></image><g><clipPath id="clip0x608003eb5720"><path d="M 168.1 92.7 C 205.3 73.2 205.3 41.5 168.1 22.0 C 130.8 2.5 70.5 2.5 33.3 22.0 C -4.0 41.5 -4.0 73.2 33.3 92.7 C 70.5 112.2 130.8 112.2 168.1 92.7 Z M 168.1 92.7 "></path></clipPath><g clip-path="url(#clip0x608003eb5720)"><path d="M 168.1 92.7 C 205.3 73.2 205.3 41.5 168.1 22.0 C 130.8 2.5 70.5 2.5 33.3 22.0 C -4.0 41.5 -4.0 73.2 33.3 92.7 C 70.5 112.2 130.8 112.2 168.1 92.7 Z M 168.1 92.7 " fill="url(#gradSh1.22)"></path></g></g><image xlink:href="../../A7E49E2A-ECFB-494E-A3C9-9194F53AFB51/assets/161D9722EEEA25F3799DADD390028843.png" width="156.00" height="27.00" transform="matrix(1.00, 0.00, -0.00, -1.00, 23.0, 67.0)"></image><g><clipPath id="clip0x6080044b5e40"><path d="M 5.3 7.3 L 196.0 7.3 L 196.0 107.3 L 5.3 107.3 Z M 5.3 7.3 "></path></clipPath><g clip-path="url(#clip0x6080044b5e40)"><text xml:space="preserve" font-family="HelveticaNeue-Medium,Helvetica Neue" font-size="26.0" fill="#3B3B3B" transform="matrix(1.00, 0.00, -0.00, -1.00, 24.1, 47.6)">a</text><text xml:space="preserve" font-family="HelveticaNeue-Medium,Helvetica Neue" font-size="26.0" fill="#3B3B3B" transform="matrix(1.00, 0.00, -0.00, -1.00, 38.6, 47.6)">p</text><text xml:space="preserve" font-family="HelveticaNeue-Medium,Helvetica Neue" font-size="26.0" fill="#3B3B3B" transform="matrix(1.00, 0.00, -0.00, -1.00, 54.4, 47.6)">p</text><text xml:space="preserve" font-family="HelveticaNeue-Medium,Helvetica Neue" font-size="26.0" fill="#3B3B3B" transform="matrix(1.00, 0.00, -0.00, -1.00, 70.3, 47.6)">-</text><text xml:space="preserve" font-family="HelveticaNeue-Medium,Helvetica Neue" font-size="26.0" fill="#3B3B3B" transform="matrix(1.00, 0.00, -0.00, -1.00, 80.4, 47.6)">t</text><text xml:space="preserve" font-family="HelveticaNeue-Medium,Helvetica Neue" font-size="26.0" fill="#3B3B3B" transform="matrix(1.00, 0.00, -0.00, -1.00, 89.1, 47.6)">e</text><text xml:space="preserve" font-family="HelveticaNeue-Medium,Helvetica Neue" font-size="26.0" fill="#3B3B3B" transform="matrix(1.00, 0.00, -0.00, -1.00, 103.6, 47.6)">s</text><text xml:space="preserve" font-family="HelveticaNeue-Medium,Helvetica Neue" font-size="26.0" fill="#3B3B3B" transform="matrix(1.00, 0.00, -0.00, -1.00, 117.1, 47.6)">t</text><text xml:space="preserve" font-family="HelveticaNeue-Medium,Helvetica Neue" font-size="26.0" fill="#3B3B3B" transform="matrix(1.00, 0.00, -0.00, -1.00, 125.7, 47.6)">.</text><text xml:space="preserve" font-family="HelveticaNeue-Medium,Helvetica Neue" font-size="26.0" fill="#3B3B3B" transform="matrix(1.00, 0.00, -0.00, -1.00, 132.9, 47.6)">a</text><text xml:space="preserve" font-family="HelveticaNeue-Medium,Helvetica Neue" font-size="26.0" fill="#3B3B3B" transform="matrix(1.00, 0.00, -0.00, -1.00, 147.4, 47.6)">p</text><text xml:space="preserve" font-family="HelveticaNeue-Medium,Helvetica Neue" font-size="26.0" fill="#3B3B3B" transform="matrix(1.00, 0.00, -0.00, -1.00, 163.3, 47.6)">k</text></g></g></g></svg>