<?xml version="1.0" encoding="UTF-8" standalone="no"?><svg xmlns="http://www.w3.org/2000/svg" xmlns:xlink="http://www.w3.org/1999/xlink" clip-rule="evenodd" stroke-miterlimit="10" viewBox="0 0 175 115"><desc>SVG generated by Keynote</desc><defs><linearGradient id="gradSh1.15" x1="0.0" y1="0.0" x2="100.0" y2="0.0" gradientUnits="userSpaceOnUse" gradientTransform="matrix(0.00, -1.02, -1.66, 0.00, 87.7, 108.4)"><stop offset="0.00000" stop-color="#EDAC0F"></stop><stop offset="0.01026" stop-color="#EDAC10"></stop><stop offset="0.01173" stop-color="#ECAB10"></stop><stop offset="0.81085" stop-color="#D47D20"></stop><stop offset="0.81158" stop-color="#D47C20"></stop><stop offset="1.00000" stop-color="#CE7123"></stop></linearGradient></defs><g transform="matrix(1.00, 0.00, -0.00, -1.00, 0.0, 115.0)"><image xlink:href="162037666E1F210B7E77C6AD0C6D5A29.png" width="172.00" height="108.00" transform="matrix(1.00, 0.00, -0.00, -1.00, 1.7, 109.4)" opacity="0.50"></image><g><clipPath id="clip0x600004eaaaa0"><path d="M 145.6 92.7 C 177.7 73.2 177.7 41.5 145.6 22.0 C 113.6 2.5 61.7 2.5 29.7 22.0 C -2.3 41.5 -2.3 73.2 29.7 92.7 C 61.7 112.2 113.6 112.2 145.6 92.7 Z M 145.6 92.7 "></path></clipPath><g clip-path="url(#clip0x600004eaaaa0)"><path d="M 145.6 92.7 C 177.7 73.2 177.7 41.5 145.6 22.0 C 113.6 2.5 61.7 2.5 29.7 22.0 C -2.3 41.5 -2.3 73.2 29.7 92.7 C 61.7 112.2 113.6 112.2 145.6 92.7 Z M 145.6 92.7 " fill="url(#gradSh1.15)"></path></g></g></g></svg>