<?xml version="1.0" encoding="UTF-8" standalone="no"?><svg xmlns="http://www.w3.org/2000/svg" xmlns:xlink="http://www.w3.org/1999/xlink" clip-rule="evenodd" stroke-miterlimit="10" viewBox="0 0 158 32"><desc>SVG generated by Keynote</desc><defs></defs><g transform="matrix(1.00, 0.00, -0.00, -1.00, 0.0, 32.0)"><image xlink:href="../../4C72CB73-715A-4FF2-9972-073C19457D74/assets/FB8FF10E66329EF58B71DE3A1ACF0518.png" width="154.00" height="28.00" transform="matrix(1.00, 0.00, -0.00, -1.00, 2.0, 30.0)"></image><text xml:space="preserve" font-family="LucidaGrande,Lucida Grande" font-size="30.0" fill="#FEFFFF" transform="matrix(1.00, 0.00, -0.00, -1.00, 2.7, 6.8)">S</text><text xml:space="preserve" font-family="LucidaGrande,Lucida Grande" font-size="30.0" fill="#FEFFFF" transform="matrix(1.00, 0.00, -0.00, -1.00, 18.8, 6.8)">e</text><text xml:space="preserve" font-family="LucidaGrande,Lucida Grande" font-size="30.0" fill="#FEFFFF" transform="matrix(1.00, 0.00, -0.00, -1.00, 35.6, 6.8)">l</text><text xml:space="preserve" font-family="LucidaGrande,Lucida Grande" font-size="30.0" fill="#FEFFFF" transform="matrix(1.00, 0.00, -0.00, -1.00, 44.3, 6.8)">e</text><text xml:space="preserve" font-family="LucidaGrande,Lucida Grande" font-size="30.0" fill="#FEFFFF" transform="matrix(1.00, 0.00, -0.00, -1.00, 61.0, 6.8)">n</text><text xml:space="preserve" font-family="LucidaGrande,Lucida Grande" font-size="30.0" fill="#FEFFFF" transform="matrix(1.00, 0.00, -0.00, -1.00, 79.6, 6.8)">d</text><text xml:space="preserve" font-family="LucidaGrande,Lucida Grande" font-size="30.0" fill="#FEFFFF" transform="matrix(1.00, 0.00, -0.00, -1.00, 98.5, 6.8)">r</text><text xml:space="preserve" font-family="LucidaGrande,Lucida Grande" font-size="30.0" fill="#FEFFFF" transform="matrix(1.00, 0.00, -0.00, -1.00, 110.8, 6.8)">o</text><text xml:space="preserve" font-family="LucidaGrande,Lucida Grande" font-size="30.0" fill="#FEFFFF" transform="matrix(1.00, 0.00, -0.00, -1.00, 129.2, 6.8)">i</text><text xml:space="preserve" font-family="LucidaGrande,Lucida Grande" font-size="30.0" fill="#FEFFFF" transform="matrix(1.00, 0.00, -0.00, -1.00, 137.9, 6.8)">d</text></g></svg>