<?xml version="1.0" encoding="UTF-8" standalone="no"?><svg xmlns="http://www.w3.org/2000/svg" xmlns:xlink="http://www.w3.org/1999/xlink" clip-rule="evenodd" stroke-miterlimit="10" viewBox="0 0 93 22"><desc>SVG generated by Keynote</desc><defs></defs><g transform="matrix(1.00, 0.00, -0.00, -1.00, 0.0, 22.0)"><image xlink:href="440B76641D4DD4FE6E4CDC55F8EE5BA7.png" width="90.00" height="19.00" transform="matrix(1.00, 0.00, -0.00, -1.00, 2.0, 20.0)"></image><text xml:space="preserve" font-family="LucidaGrande,Lucida Grande" font-size="15.0" fill="#C8C8C8" transform="matrix(1.00, 0.00, -0.00, -1.00, 2.7, 8.4)">M</text><text xml:space="preserve" font-family="LucidaGrande,Lucida Grande" font-size="15.0" fill="#C8C8C8" transform="matrix(1.00, 0.00, -0.00, -1.00, 15.6, 8.4)">o</text><text xml:space="preserve" font-family="LucidaGrande,Lucida Grande" font-size="15.0" fill="#C8C8C8" transform="matrix(1.00, 0.00, -0.00, -1.00, 24.8, 8.4)">n</text><text xml:space="preserve" font-family="LucidaGrande,Lucida Grande" font-size="15.0" fill="#C8C8C8" transform="matrix(1.00, 0.00, -0.00, -1.00, 34.1, 8.4)">k</text><text xml:space="preserve" font-family="LucidaGrande,Lucida Grande" font-size="15.0" fill="#C8C8C8" transform="matrix(1.00, 0.00, -0.00, -1.00, 42.9, 8.4)">e</text><text xml:space="preserve" font-family="LucidaGrande,Lucida Grande" font-size="15.0" fill="#C8C8C8" transform="matrix(1.00, 0.00, -0.00, -1.00, 51.3, 8.4)">y</text><text xml:space="preserve" font-family="LucidaGrande,Lucida Grande" font-size="15.0" fill="#C8C8C8" transform="matrix(1.00, 0.00, -0.00, -1.00, 59.1, 8.4)">T</text><text xml:space="preserve" font-family="LucidaGrande,Lucida Grande" font-size="15.0" fill="#C8C8C8" transform="matrix(1.00, 0.00, -0.00, -1.00, 68.6, 8.4)">a</text><text xml:space="preserve" font-family="LucidaGrande,Lucida Grande" font-size="15.0" fill="#C8C8C8" transform="matrix(1.00, 0.00, -0.00, -1.00, 76.9, 8.4)">l</text><text xml:space="preserve" font-family="LucidaGrande,Lucida Grande" font-size="15.0" fill="#C8C8C8" transform="matrix(1.00, 0.00, -0.00, -1.00, 81.2, 8.4)">k</text></g></svg>