<?xml version="1.0" encoding="UTF-8" standalone="no"?><svg xmlns="http://www.w3.org/2000/svg" xmlns:xlink="http://www.w3.org/1999/xlink" clip-rule="evenodd" stroke-miterlimit="10" viewBox="0 0 67 20"><desc>SVG generated by Keynote</desc><defs></defs><g transform="matrix(1.00, 0.00, -0.00, -1.00, 0.0, 20.0)"><image xlink:href="4F0BA87068D25A7BB225698D0AAF9C53.png" width="63.00" height="17.00" transform="matrix(1.00, 0.00, -0.00, -1.00, 2.0, 18.0)"></image><text xml:space="preserve" font-family="LucidaGrande,Lucida Grande" font-size="15.0" fill="#C8C8C8" transform="matrix(1.00, 0.00, -0.00, -1.00, 3.7, 6.2)">S</text><text xml:space="preserve" font-family="LucidaGrande,Lucida Grande" font-size="15.0" fill="#C8C8C8" transform="matrix(1.00, 0.00, -0.00, -1.00, 11.8, 6.2)">c</text><text xml:space="preserve" font-family="LucidaGrande,Lucida Grande" font-size="15.0" fill="#C8C8C8" transform="matrix(1.00, 0.00, -0.00, -1.00, 19.5, 6.2)">i</text><text xml:space="preserve" font-family="LucidaGrande,Lucida Grande" font-size="15.0" fill="#C8C8C8" transform="matrix(1.00, 0.00, -0.00, -1.00, 23.8, 6.2)">r</text><text xml:space="preserve" font-family="LucidaGrande,Lucida Grande" font-size="15.0" fill="#C8C8C8" transform="matrix(1.00, 0.00, -0.00, -1.00, 29.9, 6.2)">o</text><text xml:space="preserve" font-family="LucidaGrande,Lucida Grande" font-size="15.0" fill="#C8C8C8" transform="matrix(1.00, 0.00, -0.00, -1.00, 39.2, 6.2)">c</text><text xml:space="preserve" font-family="LucidaGrande,Lucida Grande" font-size="15.0" fill="#C8C8C8" transform="matrix(1.00, 0.00, -0.00, -1.00, 46.9, 6.2)">c</text><text xml:space="preserve" font-family="LucidaGrande,Lucida Grande" font-size="15.0" fill="#C8C8C8" transform="matrix(1.00, 0.00, -0.00, -1.00, 54.6, 6.2)">o</text></g></svg>