<?xml version="1.0" encoding="UTF-8" standalone="no"?><svg xmlns="http://www.w3.org/2000/svg" xmlns:xlink="http://www.w3.org/1999/xlink" clip-rule="evenodd" stroke-miterlimit="10" viewBox="0 0 1024 768"><desc>SVG generated by Keynote</desc><defs></defs><g transform="matrix(1.00, 0.00, -0.00, -1.00, 0.0, 768.0)"><g><clipPath id="clip0x6000010bb360"><path d="M 0.0 768.0 L 1024.0 768.0 L 1024.0 0.0 L 0.0 0.0 Z M 0.0 768.0 "></path></clipPath><g clip-path="url(#clip0x6000010bb360)"><image xlink:href="../../073872A3-6B4A-4DBD-B237-E9D6C1798DA3/assets/9397CAD6F20342ACC2646ABBCA758461.jpeg" width="2048.00" height="1536.00" transform="matrix(0.50, 0.00, -0.00, -0.50, 0.0, 768.0)"></image></g></g><image xlink:href="0D038C73E11F20760620EE0E3BB8E944.png" width="383.00" height="58.00" transform="matrix(1.00, 0.00, -0.00, -1.00, 319.0, 690.0)"></image><text xml:space="preserve" font-family="LucidaGrande-Bold,Lucida Grande" font-weight="bold" font-size="64.0" fill="#FEFFFE" transform="matrix(1.00, 0.00, -0.00, -1.00, 323.1, 639.5)">T</text><text xml:space="preserve" font-family="LucidaGrande-Bold,Lucida Grande" font-weight="bold" font-size="64.0" fill="#FEFFFE" transform="matrix(1.00, 0.00, -0.00, -1.00, 367.2, 639.5)">e</text><text xml:space="preserve" font-family="LucidaGrande-Bold,Lucida Grande" font-weight="bold" font-size="64.0" fill="#FEFFFE" transform="matrix(1.00, 0.00, -0.00, -1.00, 404.7, 639.5)">s</text><text xml:space="preserve" font-family="LucidaGrande-Bold,Lucida Grande" font-weight="bold" font-size="64.0" fill="#FEFFFE" transform="matrix(1.00, 0.00, -0.00, -1.00, 441.0, 639.5)">t</text><text xml:space="preserve" font-family="LucidaGrande-Bold,Lucida Grande" font-weight="bold" font-size="64.0" fill="#FEFFFE" transform="matrix(1.00, 0.00, -0.00, -1.00, 466.9, 639.5)">o</text><text xml:space="preserve" font-family="LucidaGrande-Bold,Lucida Grande" font-weight="bold" font-size="64.0" fill="#FEFFFE" transform="matrix(1.00, 0.00, -0.00, -1.00, 507.8, 639.5)">w</text><text xml:space="preserve" font-family="LucidaGrande-Bold,Lucida Grande" font-weight="bold" font-size="64.0" fill="#FEFFFE" transform="matrix(1.00, 0.00, -0.00, -1.00, 563.0, 639.5)">a</text><text xml:space="preserve" font-family="LucidaGrande-Bold,Lucida Grande" font-weight="bold" font-size="64.0" fill="#FEFFFE" transform="matrix(1.00, 0.00, -0.00, -1.00, 600.6, 639.5)">n</text><text xml:space="preserve" font-family="LucidaGrande-Bold,Lucida Grande" font-weight="bold" font-size="64.0" fill="#FEFFFE" transform="matrix(1.00, 0.00, -0.00, -1.00, 642.6, 639.5)">i</text><text xml:space="preserve" font-family="LucidaGrande-Bold,Lucida Grande" font-weight="bold" font-size="64.0" fill="#FEFFFE" transform="matrix(1.00, 0.00, -0.00, -1.00, 663.4, 639.5)">e</text><image xlink:href="../../2D197280-1DD4-47A5-8EC1-CB39EA06D99E/assets/A3851508236642E838C14D6587855293.png" width="22.00" height="21.00" transform="matrix(1.00, 0.00, -0.00, -1.00, 61.0, 504.0)"></image><text xml:space="preserve" font-family="LucidaGrande-Bold,Lucida Grande" font-weight="bold" font-size="25.5" fill="#EAEAEA" transform="matrix(1.00, 0.00, -0.00, -1.00, 64.0, 487.4)">•</text><image xlink:href="6F5C47A182551AB69B389C55FC7E7D8F.png" width="500.00" height="42.00" transform="matrix(1.00, 0.00, -0.00, -1.00, 95.0, 513.0)"></image><text xml:space="preserve" font-family="LucidaGrande-Bold,Lucida Grande" font-weight="bold" font-size="34.0" fill="#EAEAEA" transform="matrix(1.00, 0.00, -0.00, -1.00, 96.0, 484.2)">m</text><text xml:space="preserve" font-family="LucidaGrande-Bold,Lucida Grande" font-weight="bold" font-size="34.0" fill="#EAEAEA" transform="matrix(1.00, 0.00, -0.00, -1.00, 129.0, 484.2)">a</text><text xml:space="preserve" font-family="LucidaGrande-Bold,Lucida Grande" font-weight="bold" font-size="34.0" fill="#EAEAEA" transform="matrix(1.00, 0.00, -0.00, -1.00, 148.9, 484.2)">n</text><text xml:space="preserve" font-family="LucidaGrande-Bold,Lucida Grande" font-weight="bold" font-size="34.0" fill="#EAEAEA" transform="matrix(1.00, 0.00, -0.00, -1.00, 171.3, 484.2)">u</text><text xml:space="preserve" font-family="LucidaGrande-Bold,Lucida Grande" font-weight="bold" font-size="34.0" fill="#EAEAEA" transform="matrix(1.00, 0.00, -0.00, -1.00, 193.6, 484.2)">a</text><text xml:space="preserve" font-family="LucidaGrande-Bold,Lucida Grande" font-weight="bold" font-size="34.0" fill="#EAEAEA" transform="matrix(1.00, 0.00, -0.00, -1.00, 213.6, 484.2)">l</text><text xml:space="preserve" font-family="LucidaGrande-Bold,Lucida Grande" font-weight="bold" font-size="34.0" fill="#EAEAEA" transform="matrix(1.00, 0.00, -0.00, -1.00, 224.6, 484.2)">n</text><text xml:space="preserve" font-family="LucidaGrande-Bold,Lucida Grande" font-weight="bold" font-size="34.0" fill="#EAEAEA" transform="matrix(1.00, 0.00, -0.00, -1.00, 247.0, 484.2)">e</text><text xml:space="preserve" font-family="LucidaGrande-Bold,Lucida Grande" font-weight="bold" font-size="34.0" fill="#EAEAEA" transform="matrix(1.00, 0.00, -0.00, -1.00, 266.9, 484.2)"> </text><text xml:space="preserve" font-family="LucidaGrande-Bold,Lucida Grande" font-weight="bold" font-size="34.0" fill="#EAEAEA" transform="matrix(1.00, 0.00, -0.00, -1.00, 278.1, 484.2)">c</text><text xml:space="preserve" font-family="LucidaGrande-Bold,Lucida Grande" font-weight="bold" font-size="34.0" fill="#EAEAEA" transform="matrix(1.00, 0.00, -0.00, -1.00, 296.2, 484.2)">z</text><text xml:space="preserve" font-family="LucidaGrande-Bold,Lucida Grande" font-weight="bold" font-size="34.0" fill="#EAEAEA" transform="matrix(1.00, 0.00, -0.00, -1.00, 316.2, 484.2)">y</text><text xml:space="preserve" font-family="LucidaGrande-Bold,Lucida Grande" font-weight="bold" font-size="34.0" fill="#EAEAEA" transform="matrix(1.00, 0.00, -0.00, -1.00, 336.1, 484.2)"> </text><text xml:space="preserve" font-family="LucidaGrande-Bold,Lucida Grande" font-weight="bold" font-size="34.0" fill="#EAEAEA" transform="matrix(1.00, 0.00, -0.00, -1.00, 347.3, 484.2)">a</text><text xml:space="preserve" font-family="LucidaGrande-Bold,Lucida Grande" font-weight="bold" font-size="34.0" fill="#EAEAEA" transform="matrix(1.00, 0.00, -0.00, -1.00, 367.2, 484.2)">u</text><text xml:space="preserve" font-family="LucidaGrande-Bold,Lucida Grande" font-weight="bold" font-size="34.0" fill="#EAEAEA" transform="matrix(1.00, 0.00, -0.00, -1.00, 389.6, 484.2)">t</text><text xml:space="preserve" font-family="LucidaGrande-Bold,Lucida Grande" font-weight="bold" font-size="34.0" fill="#EAEAEA" transform="matrix(1.00, 0.00, -0.00, -1.00, 403.4, 484.2)">o</text><text xml:space="preserve" font-family="LucidaGrande-Bold,Lucida Grande" font-weight="bold" font-size="34.0" fill="#EAEAEA" transform="matrix(1.00, 0.00, -0.00, -1.00, 425.1, 484.2)">m</text><text xml:space="preserve" font-family="LucidaGrande-Bold,Lucida Grande" font-weight="bold" font-size="34.0" fill="#EAEAEA" transform="matrix(1.00, 0.00, -0.00, -1.00, 458.0, 484.2)">a</text><text xml:space="preserve" font-family="LucidaGrande-Bold,Lucida Grande" font-weight="bold" font-size="34.0" fill="#EAEAEA" transform="matrix(1.00, 0.00, -0.00, -1.00, 478.0, 484.2)">t</text><text xml:space="preserve" font-family="LucidaGrande-Bold,Lucida Grande" font-weight="bold" font-size="34.0" fill="#EAEAEA" transform="matrix(1.00, 0.00, -0.00, -1.00, 491.8, 484.2)">y</text><text xml:space="preserve" font-family="LucidaGrande-Bold,Lucida Grande" font-weight="bold" font-size="34.0" fill="#EAEAEA" transform="matrix(1.00, 0.00, -0.00, -1.00, 511.6, 484.2)">c</text><text xml:space="preserve" font-family="LucidaGrande-Bold,Lucida Grande" font-weight="bold" font-size="34.0" fill="#EAEAEA" transform="matrix(1.00, 0.00, -0.00, -1.00, 529.7, 484.2)">z</text><text xml:space="preserve" font-family="LucidaGrande-Bold,Lucida Grande" font-weight="bold" font-size="34.0" fill="#EAEAEA" transform="matrix(1.00, 0.00, -0.00, -1.00, 549.8, 484.2)">n</text><text xml:space="preserve" font-family="LucidaGrande-Bold,Lucida Grande" font-weight="bold" font-size="34.0" fill="#EAEAEA" transform="matrix(1.00, 0.00, -0.00, -1.00, 572.1, 484.2)">e</text><text xml:space="preserve" font-family="LucidaGrande-Bold,Lucida Grande" font-weight="bold" font-size="34.0" fill="#EAEAEA" transform="matrix(1.00, 0.00, -0.00, -1.00, 592.0, 484.2)"></text><image xlink:href="../../2D197280-1DD4-47A5-8EC1-CB39EA06D99E/assets/A3851508236642E838C14D6587855293.png" width="22.00" height="21.00" transform="matrix(1.00, 0.00, -0.00, -1.00, 61.0, 442.0)"></image><text xml:space="preserve" font-family="LucidaGrande-Bold,Lucida Grande" font-weight="bold" font-size="25.5" fill="#EAEAEA" transform="matrix(1.00, 0.00, -0.00, -1.00, 64.0, 425.4)">•</text><image xlink:href="1A2CBE07FE67CBF5B62D0D5D580BF96A.png" width="685.00" height="42.00" transform="matrix(1.00, 0.00, -0.00, -1.00, 95.0, 451.0)"></image><text xml:space="preserve" font-family="LucidaGrande-Bold,Lucida Grande" font-weight="bold" font-size="34.0" fill="#EAEAEA" transform="matrix(1.00, 0.00, -0.00, -1.00, 96.0, 422.2)">k</text><text xml:space="preserve" font-family="LucidaGrande-Bold,Lucida Grande" font-weight="bold" font-size="34.0" fill="#EAEAEA" transform="matrix(1.00, 0.00, -0.00, -1.00, 117.5, 422.2)">i</text><text xml:space="preserve" font-family="LucidaGrande-Bold,Lucida Grande" font-weight="bold" font-size="34.0" fill="#EAEAEA" transform="matrix(1.00, 0.00, -0.00, -1.00, 128.6, 422.2)">e</text><text xml:space="preserve" font-family="LucidaGrande-Bold,Lucida Grande" font-weight="bold" font-size="34.0" fill="#EAEAEA" transform="matrix(1.00, 0.00, -0.00, -1.00, 148.5, 422.2)">d</text><text xml:space="preserve" font-family="LucidaGrande-Bold,Lucida Grande" font-weight="bold" font-size="34.0" fill="#EAEAEA" transform="matrix(1.00, 0.00, -0.00, -1.00, 171.0, 422.2)">y</text><text xml:space="preserve" font-family="LucidaGrande-Bold,Lucida Grande" font-weight="bold" font-size="34.0" fill="#EAEAEA" transform="matrix(1.00, 0.00, -0.00, -1.00, 190.8, 422.2)"> </text><text xml:space="preserve" font-family="LucidaGrande-Bold,Lucida Grande" font-weight="bold" font-size="34.0" fill="#EAEAEA" transform="matrix(1.00, 0.00, -0.00, -1.00, 202.0, 422.2)">w</text><text xml:space="preserve" font-family="LucidaGrande-Bold,Lucida Grande" font-weight="bold" font-size="34.0" fill="#EAEAEA" transform="matrix(1.00, 0.00, -0.00, -1.00, 231.3, 422.2)">d</text><text xml:space="preserve" font-family="LucidaGrande-Bold,Lucida Grande" font-weight="bold" font-size="34.0" fill="#EAEAEA" transform="matrix(1.00, 0.00, -0.00, -1.00, 253.9, 422.2)">r</text><text xml:space="preserve" font-family="LucidaGrande-Bold,Lucida Grande" font-weight="bold" font-size="34.0" fill="#EAEAEA" transform="matrix(1.00, 0.00, -0.00, -1.00, 269.3, 422.2)">o</text><text xml:space="preserve" font-family="LucidaGrande-Bold,Lucida Grande" font-weight="bold" font-size="34.0" fill="#EAEAEA" transform="matrix(1.00, 0.00, -0.00, -1.00, 291.0, 422.2)">ż</text><text xml:space="preserve" font-family="LucidaGrande-Bold,Lucida Grande" font-weight="bold" font-size="34.0" fill="#EAEAEA" transform="matrix(1.00, 0.00, -0.00, -1.00, 311.1, 422.2)">y</text><text xml:space="preserve" font-family="LucidaGrande-Bold,Lucida Grande" font-weight="bold" font-size="34.0" fill="#EAEAEA" transform="matrix(1.00, 0.00, -0.00, -1.00, 330.9, 422.2)">ć</text><text xml:space="preserve" font-family="LucidaGrande-Bold,Lucida Grande" font-weight="bold" font-size="34.0" fill="#EAEAEA" transform="matrix(1.00, 0.00, -0.00, -1.00, 349.0, 422.2)">?</text><text xml:space="preserve" font-family="LucidaGrande-Bold,Lucida Grande" font-weight="bold" font-size="34.0" fill="#EAEAEA" transform="matrix(1.00, 0.00, -0.00, -1.00, 365.9, 422.2)"> </text><text xml:space="preserve" font-family="LucidaGrande-Bold,Lucida Grande" font-weight="bold" font-size="34.0" fill="#EAEAEA" transform="matrix(1.00, 0.00, -0.00, -1.00, 377.1, 422.2)">p</text><text xml:space="preserve" font-family="LucidaGrande-Bold,Lucida Grande" font-weight="bold" font-size="34.0" fill="#EAEAEA" transform="matrix(1.00, 0.00, -0.00, -1.00, 399.6, 422.2)">r</text><text xml:space="preserve" font-family="LucidaGrande-Bold,Lucida Grande" font-weight="bold" font-size="34.0" fill="#EAEAEA" transform="matrix(1.00, 0.00, -0.00, -1.00, 415.1, 422.2)">o</text><text xml:space="preserve" font-family="LucidaGrande-Bold,Lucida Grande" font-weight="bold" font-size="34.0" fill="#EAEAEA" transform="matrix(1.00, 0.00, -0.00, -1.00, 436.8, 422.2)">t</text><text xml:space="preserve" font-family="LucidaGrande-Bold,Lucida Grande" font-weight="bold" font-size="34.0" fill="#EAEAEA" transform="matrix(1.00, 0.00, -0.00, -1.00, 450.6, 422.2)">o</text><text xml:space="preserve" font-family="LucidaGrande-Bold,Lucida Grande" font-weight="bold" font-size="34.0" fill="#EAEAEA" transform="matrix(1.00, 0.00, -0.00, -1.00, 472.3, 422.2)">t</text><text xml:space="preserve" font-family="LucidaGrande-Bold,Lucida Grande" font-weight="bold" font-size="34.0" fill="#EAEAEA" transform="matrix(1.00, 0.00, -0.00, -1.00, 486.1, 422.2)">y</text><text xml:space="preserve" font-family="LucidaGrande-Bold,Lucida Grande" font-weight="bold" font-size="34.0" fill="#EAEAEA" transform="matrix(1.00, 0.00, -0.00, -1.00, 505.9, 422.2)">p</text><text xml:space="preserve" font-family="LucidaGrande-Bold,Lucida Grande" font-weight="bold" font-size="34.0" fill="#EAEAEA" transform="matrix(1.00, 0.00, -0.00, -1.00, 528.4, 422.2)">?</text><text xml:space="preserve" font-family="LucidaGrande-Bold,Lucida Grande" font-weight="bold" font-size="34.0" fill="#EAEAEA" transform="matrix(1.00, 0.00, -0.00, -1.00, 545.3, 422.2)"> </text><text xml:space="preserve" font-family="LucidaGrande-Bold,Lucida Grande" font-weight="bold" font-size="34.0" fill="#EAEAEA" transform="matrix(1.00, 0.00, -0.00, -1.00, 556.5, 422.2)">w</text><text xml:space="preserve" font-family="LucidaGrande-Bold,Lucida Grande" font-weight="bold" font-size="34.0" fill="#EAEAEA" transform="matrix(1.00, 0.00, -0.00, -1.00, 585.8, 422.2)">e</text><text xml:space="preserve" font-family="LucidaGrande-Bold,Lucida Grande" font-weight="bold" font-size="34.0" fill="#EAEAEA" transform="matrix(1.00, 0.00, -0.00, -1.00, 605.7, 422.2)">r</text><text xml:space="preserve" font-family="LucidaGrande-Bold,Lucida Grande" font-weight="bold" font-size="34.0" fill="#EAEAEA" transform="matrix(1.00, 0.00, -0.00, -1.00, 621.2, 422.2)">s</text><text xml:space="preserve" font-family="LucidaGrande-Bold,Lucida Grande" font-weight="bold" font-size="34.0" fill="#EAEAEA" transform="matrix(1.00, 0.00, -0.00, -1.00, 640.4, 422.2)">j</text><text xml:space="preserve" font-family="LucidaGrande-Bold,Lucida Grande" font-weight="bold" font-size="34.0" fill="#EAEAEA" transform="matrix(1.00, 0.00, -0.00, -1.00, 651.7, 422.2)">a</text><text xml:space="preserve" font-family="LucidaGrande-Bold,Lucida Grande" font-weight="bold" font-size="34.0" fill="#EAEAEA" transform="matrix(1.00, 0.00, -0.00, -1.00, 671.7, 422.2)"> </text><text xml:space="preserve" font-family="LucidaGrande-Bold,Lucida Grande" font-weight="bold" font-size="34.0" fill="#EAEAEA" transform="matrix(1.00, 0.00, -0.00, -1.00, 682.9, 422.2)">b</text><text xml:space="preserve" font-family="LucidaGrande-Bold,Lucida Grande" font-weight="bold" font-size="34.0" fill="#EAEAEA" transform="matrix(1.00, 0.00, -0.00, -1.00, 705.4, 422.2)">e</text><text xml:space="preserve" font-family="LucidaGrande-Bold,Lucida Grande" font-weight="bold" font-size="34.0" fill="#EAEAEA" transform="matrix(1.00, 0.00, -0.00, -1.00, 725.4, 422.2)">t</text><text xml:space="preserve" font-family="LucidaGrande-Bold,Lucida Grande" font-weight="bold" font-size="34.0" fill="#EAEAEA" transform="matrix(1.00, 0.00, -0.00, -1.00, 739.1, 422.2)">a</text><text xml:space="preserve" font-family="LucidaGrande-Bold,Lucida Grande" font-weight="bold" font-size="34.0" fill="#EAEAEA" transform="matrix(1.00, 0.00, -0.00, -1.00, 759.1, 422.2)">?</text><text xml:space="preserve" font-family="LucidaGrande-Bold,Lucida Grande" font-weight="bold" font-size="34.0" fill="#EAEAEA" transform="matrix(1.00, 0.00, -0.00, -1.00, 776.2, 422.2)"></text><image xlink:href="../../2D197280-1DD4-47A5-8EC1-CB39EA06D99E/assets/A3851508236642E838C14D6587855293.png" width="22.00" height="21.00" transform="matrix(1.00, 0.00, -0.00, -1.00, 61.0, 380.0)"></image><text xml:space="preserve" font-family="LucidaGrande-Bold,Lucida Grande" font-weight="bold" font-size="25.5" fill="#EAEAEA" transform="matrix(1.00, 0.00, -0.00, -1.00, 64.0, 363.4)">•</text><image xlink:href="EB1D292B7A3B02C2876BA1F561B1731E.png" width="104.00" height="40.00" transform="matrix(1.00, 0.00, -0.00, -1.00, 92.0, 387.0)"></image><text xml:space="preserve" font-family="LucidaGrande-Bold,Lucida Grande" font-weight="bold" font-size="34.0" fill="#EAEAEA" transform="matrix(1.00, 0.00, -0.00, -1.00, 96.0, 360.2)">T</text><text xml:space="preserve" font-family="LucidaGrande-Bold,Lucida Grande" font-weight="bold" font-size="34.0" fill="#EAEAEA" transform="matrix(1.00, 0.00, -0.00, -1.00, 119.5, 360.2)">e</text><text xml:space="preserve" font-family="LucidaGrande-Bold,Lucida Grande" font-weight="bold" font-size="34.0" fill="#EAEAEA" transform="matrix(1.00, 0.00, -0.00, -1.00, 139.4, 360.2)">s</text><text xml:space="preserve" font-family="LucidaGrande-Bold,Lucida Grande" font-weight="bold" font-size="34.0" fill="#EAEAEA" transform="matrix(1.00, 0.00, -0.00, -1.00, 158.6, 360.2)">t</text><text xml:space="preserve" font-family="LucidaGrande-Bold,Lucida Grande" font-weight="bold" font-size="34.0" fill="#EAEAEA" transform="matrix(1.00, 0.00, -0.00, -1.00, 172.4, 360.2)">y</text><text xml:space="preserve" font-family="LucidaGrande-Bold,Lucida Grande" font-weight="bold" font-size="34.0" fill="#EAEAEA" transform="matrix(1.00, 0.00, -0.00, -1.00, 192.2, 360.2)"></text><image xlink:href="../../2D197280-1DD4-47A5-8EC1-CB39EA06D99E/assets/C25F7C0C760FC422C6FD5D90B7D2228F.png" width="18.00" height="18.00" transform="matrix(1.00, 0.00, -0.00, -1.00, 94.0, 320.0)"></image><text xml:space="preserve" font-family="LucidaGrande,Lucida Grande" font-size="25.5" fill="#EAEAEA" transform="matrix(1.00, 0.00, -0.00, -1.00, 96.0, 305.4)">•</text><image xlink:href="41CE673A970770357009F4E58745FA52.png" width="314.00" height="40.00" transform="matrix(1.00, 0.00, -0.00, -1.00, 127.0, 329.0)"></image><text xml:space="preserve" font-family="LucidaGrande,Lucida Grande" font-size="34.0" fill="#EAEAEA" transform="matrix(1.00, 0.00, -0.00, -1.00, 128.0, 302.2)">p</text><text xml:space="preserve" font-family="LucidaGrande,Lucida Grande" font-size="34.0" fill="#EAEAEA" transform="matrix(1.00, 0.00, -0.00, -1.00, 149.4, 302.2)">r</text><text xml:space="preserve" font-family="LucidaGrande,Lucida Grande" font-size="34.0" fill="#EAEAEA" transform="matrix(1.00, 0.00, -0.00, -1.00, 163.3, 302.2)">o</text><text xml:space="preserve" font-family="LucidaGrande,Lucida Grande" font-size="34.0" fill="#EAEAEA" transform="matrix(1.00, 0.00, -0.00, -1.00, 184.2, 302.2)">s</text><text xml:space="preserve" font-family="LucidaGrande,Lucida Grande" font-size="34.0" fill="#EAEAEA" transform="matrix(1.00, 0.00, -0.00, -1.00, 201.6, 302.2)">t</text><text xml:space="preserve" font-family="LucidaGrande,Lucida Grande" font-size="34.0" fill="#EAEAEA" transform="matrix(1.00, 0.00, -0.00, -1.00, 214.3, 302.2)">e</text><text xml:space="preserve" font-family="LucidaGrande,Lucida Grande" font-size="34.0" fill="#EAEAEA" transform="matrix(1.00, 0.00, -0.00, -1.00, 233.2, 302.2)">,</text><text xml:space="preserve" font-family="LucidaGrande,Lucida Grande" font-size="34.0" fill="#EAEAEA" transform="matrix(1.00, 0.00, -0.00, -1.00, 244.0, 302.2)"> </text><text xml:space="preserve" font-family="LucidaGrande,Lucida Grande" font-size="34.0" fill="#EAEAEA" transform="matrix(1.00, 0.00, -0.00, -1.00, 254.8, 302.2)">p</text><text xml:space="preserve" font-family="LucidaGrande,Lucida Grande" font-size="34.0" fill="#EAEAEA" transform="matrix(1.00, 0.00, -0.00, -1.00, 276.2, 302.2)">r</text><text xml:space="preserve" font-family="LucidaGrande,Lucida Grande" font-size="34.0" fill="#EAEAEA" transform="matrix(1.00, 0.00, -0.00, -1.00, 290.1, 302.2)">z</text><text xml:space="preserve" font-family="LucidaGrande,Lucida Grande" font-size="34.0" fill="#EAEAEA" transform="matrix(1.00, 0.00, -0.00, -1.00, 309.6, 302.2)">e</text><text xml:space="preserve" font-family="LucidaGrande,Lucida Grande" font-size="34.0" fill="#EAEAEA" transform="matrix(1.00, 0.00, -0.00, -1.00, 328.5, 302.2)">j</text><text xml:space="preserve" font-family="LucidaGrande,Lucida Grande" font-size="34.0" fill="#EAEAEA" transform="matrix(1.00, 0.00, -0.00, -1.00, 338.9, 302.2)">r</text><text xml:space="preserve" font-family="LucidaGrande,Lucida Grande" font-size="34.0" fill="#EAEAEA" transform="matrix(1.00, 0.00, -0.00, -1.00, 352.8, 302.2)">z</text><text xml:space="preserve" font-family="LucidaGrande,Lucida Grande" font-size="34.0" fill="#EAEAEA" transform="matrix(1.00, 0.00, -0.00, -1.00, 372.3, 302.2)">y</text><text xml:space="preserve" font-family="LucidaGrande,Lucida Grande" font-size="34.0" fill="#EAEAEA" transform="matrix(1.00, 0.00, -0.00, -1.00, 390.1, 302.2)">s</text><text xml:space="preserve" font-family="LucidaGrande,Lucida Grande" font-size="34.0" fill="#EAEAEA" transform="matrix(1.00, 0.00, -0.00, -1.00, 407.4, 302.2)">t</text><text xml:space="preserve" font-family="LucidaGrande,Lucida Grande" font-size="34.0" fill="#EAEAEA" transform="matrix(1.00, 0.00, -0.00, -1.00, 420.1, 302.2)">e</text><text xml:space="preserve" font-family="LucidaGrande,Lucida Grande" font-size="34.0" fill="#EAEAEA" transform="matrix(1.00, 0.00, -0.00, -1.00, 438.9, 302.2)"></text><image xlink:href="../../2D197280-1DD4-47A5-8EC1-CB39EA06D99E/assets/C25F7C0C760FC422C6FD5D90B7D2228F.png" width="18.00" height="18.00" transform="matrix(1.00, 0.00, -0.00, -1.00, 94.0, 262.0)"></image><text xml:space="preserve" font-family="LucidaGrande,Lucida Grande" font-size="25.5" fill="#EAEAEA" transform="matrix(1.00, 0.00, -0.00, -1.00, 96.0, 247.4)">•</text><image xlink:href="9C4CE989D5D8241FB146D94C49584910.png" width="504.00" height="42.00" transform="matrix(1.00, 0.00, -0.00, -1.00, 127.0, 273.0)"></image><text xml:space="preserve" font-family="LucidaGrande,Lucida Grande" font-size="34.0" fill="#EAEAEA" transform="matrix(1.00, 0.00, -0.00, -1.00, 128.0, 244.2)">n</text><text xml:space="preserve" font-family="LucidaGrande,Lucida Grande" font-size="34.0" fill="#EAEAEA" transform="matrix(1.00, 0.00, -0.00, -1.00, 149.1, 244.2)">i</text><text xml:space="preserve" font-family="LucidaGrande,Lucida Grande" font-size="34.0" fill="#EAEAEA" transform="matrix(1.00, 0.00, -0.00, -1.00, 158.9, 244.2)">e</text><text xml:space="preserve" font-family="LucidaGrande,Lucida Grande" font-size="34.0" fill="#EAEAEA" transform="matrix(1.00, 0.00, -0.00, -1.00, 177.9, 244.2)">z</text><text xml:space="preserve" font-family="LucidaGrande,Lucida Grande" font-size="34.0" fill="#EAEAEA" transform="matrix(1.00, 0.00, -0.00, -1.00, 197.4, 244.2)">a</text><text xml:space="preserve" font-family="LucidaGrande,Lucida Grande" font-size="34.0" fill="#EAEAEA" transform="matrix(1.00, 0.00, -0.00, -1.00, 216.1, 244.2)">w</text><text xml:space="preserve" font-family="LucidaGrande,Lucida Grande" font-size="34.0" fill="#EAEAEA" transform="matrix(1.00, 0.00, -0.00, -1.00, 242.3, 244.2)">o</text><text xml:space="preserve" font-family="LucidaGrande,Lucida Grande" font-size="34.0" fill="#EAEAEA" transform="matrix(1.00, 0.00, -0.00, -1.00, 263.2, 244.2)">d</text><text xml:space="preserve" font-family="LucidaGrande,Lucida Grande" font-size="34.0" fill="#EAEAEA" transform="matrix(1.00, 0.00, -0.00, -1.00, 284.6, 244.2)">n</text><text xml:space="preserve" font-family="LucidaGrande,Lucida Grande" font-size="34.0" fill="#EAEAEA" transform="matrix(1.00, 0.00, -0.00, -1.00, 305.7, 244.2)">e</text><text xml:space="preserve" font-family="LucidaGrande,Lucida Grande" font-size="34.0" fill="#EAEAEA" transform="matrix(1.00, 0.00, -0.00, -1.00, 324.7, 244.2)">,</text><text xml:space="preserve" font-family="LucidaGrande,Lucida Grande" font-size="34.0" fill="#EAEAEA" transform="matrix(1.00, 0.00, -0.00, -1.00, 335.4, 244.2)"> </text><text xml:space="preserve" font-family="LucidaGrande,Lucida Grande" font-size="34.0" fill="#EAEAEA" transform="matrix(1.00, 0.00, -0.00, -1.00, 346.2, 244.2)">d</text><text xml:space="preserve" font-family="LucidaGrande,Lucida Grande" font-size="34.0" fill="#EAEAEA" transform="matrix(1.00, 0.00, -0.00, -1.00, 367.6, 244.2)">e</text><text xml:space="preserve" font-family="LucidaGrande,Lucida Grande" font-size="34.0" fill="#EAEAEA" transform="matrix(1.00, 0.00, -0.00, -1.00, 386.6, 244.2)">t</text><text xml:space="preserve" font-family="LucidaGrande,Lucida Grande" font-size="34.0" fill="#EAEAEA" transform="matrix(1.00, 0.00, -0.00, -1.00, 399.3, 244.2)">e</text><text xml:space="preserve" font-family="LucidaGrande,Lucida Grande" font-size="34.0" fill="#EAEAEA" transform="matrix(1.00, 0.00, -0.00, -1.00, 418.2, 244.2)">r</text><text xml:space="preserve" font-family="LucidaGrande,Lucida Grande" font-size="34.0" fill="#EAEAEA" transform="matrix(1.00, 0.00, -0.00, -1.00, 432.1, 244.2)">m</text><text xml:space="preserve" font-family="LucidaGrande,Lucida Grande" font-size="34.0" fill="#EAEAEA" transform="matrix(1.00, 0.00, -0.00, -1.00, 463.9, 244.2)">i</text><text xml:space="preserve" font-family="LucidaGrande,Lucida Grande" font-size="34.0" fill="#EAEAEA" transform="matrix(1.00, 0.00, -0.00, -1.00, 473.7, 244.2)">n</text><text xml:space="preserve" font-family="LucidaGrande,Lucida Grande" font-size="34.0" fill="#EAEAEA" transform="matrix(1.00, 0.00, -0.00, -1.00, 494.8, 244.2)">i</text><text xml:space="preserve" font-family="LucidaGrande,Lucida Grande" font-size="34.0" fill="#EAEAEA" transform="matrix(1.00, 0.00, -0.00, -1.00, 504.6, 244.2)">s</text><text xml:space="preserve" font-family="LucidaGrande,Lucida Grande" font-size="34.0" fill="#EAEAEA" transform="matrix(1.00, 0.00, -0.00, -1.00, 522.0, 244.2)">t</text><text xml:space="preserve" font-family="LucidaGrande,Lucida Grande" font-size="34.0" fill="#EAEAEA" transform="matrix(1.00, 0.00, -0.00, -1.00, 534.7, 244.2)">y</text><text xml:space="preserve" font-family="LucidaGrande,Lucida Grande" font-size="34.0" fill="#EAEAEA" transform="matrix(1.00, 0.00, -0.00, -1.00, 552.4, 244.2)">c</text><text xml:space="preserve" font-family="LucidaGrande,Lucida Grande" font-size="34.0" fill="#EAEAEA" transform="matrix(1.00, 0.00, -0.00, -1.00, 569.9, 244.2)">z</text><text xml:space="preserve" font-family="LucidaGrande,Lucida Grande" font-size="34.0" fill="#EAEAEA" transform="matrix(1.00, 0.00, -0.00, -1.00, 589.4, 244.2)">n</text><text xml:space="preserve" font-family="LucidaGrande,Lucida Grande" font-size="34.0" fill="#EAEAEA" transform="matrix(1.00, 0.00, -0.00, -1.00, 610.5, 244.2)">e</text><text xml:space="preserve" font-family="LucidaGrande,Lucida Grande" font-size="34.0" fill="#EAEAEA" transform="matrix(1.00, 0.00, -0.00, -1.00, 629.4, 244.2)"> </text><image xlink:href="DE86C55A3A9AB85ADBE2639D702A8159.png" width="468.00" height="39.00" transform="matrix(1.00, 0.00, -0.00, -1.00, 129.0, 230.0)"></image><text xml:space="preserve" font-family="Courier-Oblique,Courier" font-style="italic" font-size="34.0" fill="#EAEAEA" transform="matrix(1.00, 0.00, -0.00, -1.00, 128.0, 204.4)">@</text><text xml:space="preserve" font-family="Courier-Oblique,Courier" font-style="italic" font-size="34.0" fill="#EAEAEA" transform="matrix(1.00, 0.00, -0.00, -1.00, 148.4, 204.4)">F</text><text xml:space="preserve" font-family="Courier-Oblique,Courier" font-style="italic" font-size="34.0" fill="#EAEAEA" transform="matrix(1.00, 0.00, -0.00, -1.00, 168.8, 204.4)">l</text><text xml:space="preserve" font-family="Courier-Oblique,Courier" font-style="italic" font-size="34.0" fill="#EAEAEA" transform="matrix(1.00, 0.00, -0.00, -1.00, 189.2, 204.4)">a</text><text xml:space="preserve" font-family="Courier-Oblique,Courier" font-style="italic" font-size="34.0" fill="#EAEAEA" transform="matrix(1.00, 0.00, -0.00, -1.00, 209.6, 204.4)">k</text><text xml:space="preserve" font-family="Courier-Oblique,Courier" font-style="italic" font-size="34.0" fill="#EAEAEA" transform="matrix(1.00, 0.00, -0.00, -1.00, 230.0, 204.4)">y</text><text xml:space="preserve" font-family="Courier-Oblique,Courier" font-style="italic" font-size="34.0" fill="#EAEAEA" transform="matrix(1.00, 0.00, -0.00, -1.00, 250.4, 204.4)">T</text><text xml:space="preserve" font-family="Courier-Oblique,Courier" font-style="italic" font-size="34.0" fill="#EAEAEA" transform="matrix(1.00, 0.00, -0.00, -1.00, 270.8, 204.4)">e</text><text xml:space="preserve" font-family="Courier-Oblique,Courier" font-style="italic" font-size="34.0" fill="#EAEAEA" transform="matrix(1.00, 0.00, -0.00, -1.00, 291.2, 204.4)">s</text><text xml:space="preserve" font-family="Courier-Oblique,Courier" font-style="italic" font-size="34.0" fill="#EAEAEA" transform="matrix(1.00, 0.00, -0.00, -1.00, 311.6, 204.4)">t</text><text xml:space="preserve" font-family="Courier-Oblique,Courier" font-style="italic" font-size="34.0" fill="#EAEAEA" transform="matrix(1.00, 0.00, -0.00, -1.00, 332.0, 204.4)">(</text><text xml:space="preserve" font-family="Courier-Oblique,Courier" font-style="italic" font-size="34.0" fill="#EAEAEA" transform="matrix(1.00, 0.00, -0.00, -1.00, 352.4, 204.4)">t</text><text xml:space="preserve" font-family="Courier-Oblique,Courier" font-style="italic" font-size="34.0" fill="#EAEAEA" transform="matrix(1.00, 0.00, -0.00, -1.00, 372.8, 204.4)">o</text><text xml:space="preserve" font-family="Courier-Oblique,Courier" font-style="italic" font-size="34.0" fill="#EAEAEA" transform="matrix(1.00, 0.00, -0.00, -1.00, 393.2, 204.4)">l</text><text xml:space="preserve" font-family="Courier-Oblique,Courier" font-style="italic" font-size="34.0" fill="#EAEAEA" transform="matrix(1.00, 0.00, -0.00, -1.00, 413.6, 204.4)">e</text><text xml:space="preserve" font-family="Courier-Oblique,Courier" font-style="italic" font-size="34.0" fill="#EAEAEA" transform="matrix(1.00, 0.00, -0.00, -1.00, 434.0, 204.4)">r</text><text xml:space="preserve" font-family="Courier-Oblique,Courier" font-style="italic" font-size="34.0" fill="#EAEAEA" transform="matrix(1.00, 0.00, -0.00, -1.00, 454.5, 204.4)">a</text><text xml:space="preserve" font-family="Courier-Oblique,Courier" font-style="italic" font-size="34.0" fill="#EAEAEA" transform="matrix(1.00, 0.00, -0.00, -1.00, 474.9, 204.4)">n</text><text xml:space="preserve" font-family="Courier-Oblique,Courier" font-style="italic" font-size="34.0" fill="#EAEAEA" transform="matrix(1.00, 0.00, -0.00, -1.00, 495.3, 204.4)">c</text><text xml:space="preserve" font-family="Courier-Oblique,Courier" font-style="italic" font-size="34.0" fill="#EAEAEA" transform="matrix(1.00, 0.00, -0.00, -1.00, 515.7, 204.4)">e</text><text xml:space="preserve" font-family="Courier-Oblique,Courier" font-style="italic" font-size="34.0" fill="#EAEAEA" transform="matrix(1.00, 0.00, -0.00, -1.00, 536.1, 204.4)">=</text><text xml:space="preserve" font-family="Courier-Oblique,Courier" font-style="italic" font-size="34.0" fill="#EAEAEA" transform="matrix(1.00, 0.00, -0.00, -1.00, 556.5, 204.4)">3</text><text xml:space="preserve" font-family="Courier-Oblique,Courier" font-style="italic" font-size="34.0" fill="#EAEAEA" transform="matrix(1.00, 0.00, -0.00, -1.00, 576.9, 204.4)">)</text><image xlink:href="../../2D197280-1DD4-47A5-8EC1-CB39EA06D99E/assets/C25F7C0C760FC422C6FD5D90B7D2228F.png" width="18.00" height="18.00" transform="matrix(1.00, 0.00, -0.00, -1.00, 94.0, 163.0)"></image><text xml:space="preserve" font-family="LucidaGrande,Lucida Grande" font-size="25.5" fill="#EAEAEA" transform="matrix(1.00, 0.00, -0.00, -1.00, 96.0, 148.4)">•</text><image xlink:href="A8D2E750B59C90008A9E5F897A5FF574.png" width="711.00" height="42.00" transform="matrix(1.00, 0.00, -0.00, -1.00, 125.0, 174.0)"></image><text xml:space="preserve" font-family="LucidaGrande,Lucida Grande" font-size="34.0" fill="#EAEAEA" transform="matrix(1.00, 0.00, -0.00, -1.00, 128.0, 145.2)">t</text><text xml:space="preserve" font-family="LucidaGrande,Lucida Grande" font-size="34.0" fill="#EAEAEA" transform="matrix(1.00, 0.00, -0.00, -1.00, 140.7, 145.2)">r</text><text xml:space="preserve" font-family="LucidaGrande,Lucida Grande" font-size="34.0" fill="#EAEAEA" transform="matrix(1.00, 0.00, -0.00, -1.00, 154.6, 145.2)">w</text><text xml:space="preserve" font-family="LucidaGrande,Lucida Grande" font-size="34.0" fill="#EAEAEA" transform="matrix(1.00, 0.00, -0.00, -1.00, 180.8, 145.2)">a</text><text xml:space="preserve" font-family="LucidaGrande,Lucida Grande" font-size="34.0" fill="#EAEAEA" transform="matrix(1.00, 0.00, -0.00, -1.00, 199.6, 145.2)">ł</text><text xml:space="preserve" font-family="LucidaGrande,Lucida Grande" font-size="34.0" fill="#EAEAEA" transform="matrix(1.00, 0.00, -0.00, -1.00, 210.8, 145.2)">e</text><text xml:space="preserve" font-family="LucidaGrande,Lucida Grande" font-size="34.0" fill="#EAEAEA" transform="matrix(1.00, 0.00, -0.00, -1.00, 229.7, 145.2)"> </text><text xml:space="preserve" font-family="LucidaGrande,Lucida Grande" font-size="34.0" fill="#EAEAEA" transform="matrix(1.00, 0.00, -0.00, -1.00, 240.5, 145.2)">-</text><text xml:space="preserve" font-family="LucidaGrande,Lucida Grande" font-size="34.0" fill="#EAEAEA" transform="matrix(1.00, 0.00, -0.00, -1.00, 260.1, 145.2)"> </text><text xml:space="preserve" font-family="LucidaGrande,Lucida Grande" font-size="34.0" fill="#EAEAEA" transform="matrix(1.00, 0.00, -0.00, -1.00, 270.9, 145.2)">o</text><text xml:space="preserve" font-family="LucidaGrande,Lucida Grande" font-size="34.0" fill="#EAEAEA" transform="matrix(1.00, 0.00, -0.00, -1.00, 291.8, 145.2)">d</text><text xml:space="preserve" font-family="LucidaGrande,Lucida Grande" font-size="34.0" fill="#EAEAEA" transform="matrix(1.00, 0.00, -0.00, -1.00, 313.2, 145.2)">p</text><text xml:space="preserve" font-family="LucidaGrande,Lucida Grande" font-size="34.0" fill="#EAEAEA" transform="matrix(1.00, 0.00, -0.00, -1.00, 334.6, 145.2)">o</text><text xml:space="preserve" font-family="LucidaGrande,Lucida Grande" font-size="34.0" fill="#EAEAEA" transform="matrix(1.00, 0.00, -0.00, -1.00, 355.5, 145.2)">r</text><text xml:space="preserve" font-family="LucidaGrande,Lucida Grande" font-size="34.0" fill="#EAEAEA" transform="matrix(1.00, 0.00, -0.00, -1.00, 369.4, 145.2)">n</text><text xml:space="preserve" font-family="LucidaGrande,Lucida Grande" font-size="34.0" fill="#EAEAEA" transform="matrix(1.00, 0.00, -0.00, -1.00, 390.5, 145.2)">e</text><text xml:space="preserve" font-family="LucidaGrande,Lucida Grande" font-size="34.0" fill="#EAEAEA" transform="matrix(1.00, 0.00, -0.00, -1.00, 409.5, 145.2)"> </text><text xml:space="preserve" font-family="LucidaGrande,Lucida Grande" font-size="34.0" fill="#EAEAEA" transform="matrix(1.00, 0.00, -0.00, -1.00, 420.2, 145.2)">n</text><text xml:space="preserve" font-family="LucidaGrande,Lucida Grande" font-size="34.0" fill="#EAEAEA" transform="matrix(1.00, 0.00, -0.00, -1.00, 441.3, 145.2)">a</text><text xml:space="preserve" font-family="LucidaGrande,Lucida Grande" font-size="34.0" fill="#EAEAEA" transform="matrix(1.00, 0.00, -0.00, -1.00, 460.1, 145.2)"> </text><text xml:space="preserve" font-family="LucidaGrande,Lucida Grande" font-size="34.0" fill="#EAEAEA" transform="matrix(1.00, 0.00, -0.00, -1.00, 470.9, 145.2)">d</text><text xml:space="preserve" font-family="LucidaGrande,Lucida Grande" font-size="34.0" fill="#EAEAEA" transform="matrix(1.00, 0.00, -0.00, -1.00, 492.3, 145.2)">r</text><text xml:space="preserve" font-family="LucidaGrande,Lucida Grande" font-size="34.0" fill="#EAEAEA" transform="matrix(1.00, 0.00, -0.00, -1.00, 506.2, 145.2)">o</text><text xml:space="preserve" font-family="LucidaGrande,Lucida Grande" font-size="34.0" fill="#EAEAEA" transform="matrix(1.00, 0.00, -0.00, -1.00, 527.1, 145.2)">b</text><text xml:space="preserve" font-family="LucidaGrande,Lucida Grande" font-size="34.0" fill="#EAEAEA" transform="matrix(1.00, 0.00, -0.00, -1.00, 548.5, 145.2)">n</text><text xml:space="preserve" font-family="LucidaGrande,Lucida Grande" font-size="34.0" fill="#EAEAEA" transform="matrix(1.00, 0.00, -0.00, -1.00, 569.6, 145.2)">e</text><text xml:space="preserve" font-family="LucidaGrande,Lucida Grande" font-size="34.0" fill="#EAEAEA" transform="matrix(1.00, 0.00, -0.00, -1.00, 588.6, 145.2)"> </text><text xml:space="preserve" font-family="LucidaGrande,Lucida Grande" font-size="34.0" fill="#EAEAEA" transform="matrix(1.00, 0.00, -0.00, -1.00, 599.3, 145.2)">r</text><text xml:space="preserve" font-family="LucidaGrande,Lucida Grande" font-size="34.0" fill="#EAEAEA" transform="matrix(1.00, 0.00, -0.00, -1.00, 613.3, 145.2)">e</text><text xml:space="preserve" font-family="LucidaGrande,Lucida Grande" font-size="34.0" fill="#EAEAEA" transform="matrix(1.00, 0.00, -0.00, -1.00, 632.2, 145.2)">f</text><text xml:space="preserve" font-family="LucidaGrande,Lucida Grande" font-size="34.0" fill="#EAEAEA" transform="matrix(1.00, 0.00, -0.00, -1.00, 644.7, 145.2)">a</text><text xml:space="preserve" font-family="LucidaGrande,Lucida Grande" font-size="34.0" fill="#EAEAEA" transform="matrix(1.00, 0.00, -0.00, -1.00, 663.5, 145.2)">k</text><text xml:space="preserve" font-family="LucidaGrande,Lucida Grande" font-size="34.0" fill="#EAEAEA" transform="matrix(1.00, 0.00, -0.00, -1.00, 683.4, 145.2)">t</text><text xml:space="preserve" font-family="LucidaGrande,Lucida Grande" font-size="34.0" fill="#EAEAEA" transform="matrix(1.00, 0.00, -0.00, -1.00, 696.1, 145.2)">o</text><text xml:space="preserve" font-family="LucidaGrande,Lucida Grande" font-size="34.0" fill="#EAEAEA" transform="matrix(1.00, 0.00, -0.00, -1.00, 717.0, 145.2)">r</text><text xml:space="preserve" font-family="LucidaGrande,Lucida Grande" font-size="34.0" fill="#EAEAEA" transform="matrix(1.00, 0.00, -0.00, -1.00, 730.9, 145.2)">y</text><text xml:space="preserve" font-family="LucidaGrande,Lucida Grande" font-size="34.0" fill="#EAEAEA" transform="matrix(1.00, 0.00, -0.00, -1.00, 748.7, 145.2)">z</text><text xml:space="preserve" font-family="LucidaGrande,Lucida Grande" font-size="34.0" fill="#EAEAEA" transform="matrix(1.00, 0.00, -0.00, -1.00, 768.2, 145.2)">a</text><text xml:space="preserve" font-family="LucidaGrande,Lucida Grande" font-size="34.0" fill="#EAEAEA" transform="matrix(1.00, 0.00, -0.00, -1.00, 787.0, 145.2)">c</text><text xml:space="preserve" font-family="LucidaGrande,Lucida Grande" font-size="34.0" fill="#EAEAEA" transform="matrix(1.00, 0.00, -0.00, -1.00, 804.4, 145.2)">j</text><text xml:space="preserve" font-family="LucidaGrande,Lucida Grande" font-size="34.0" fill="#EAEAEA" transform="matrix(1.00, 0.00, -0.00, -1.00, 814.7, 145.2)">e</text></g></svg>