<?xml version="1.0" encoding="UTF-8" standalone="no"?><svg xmlns="http://www.w3.org/2000/svg" xmlns:xlink="http://www.w3.org/1999/xlink" clip-rule="evenodd" stroke-miterlimit="10" viewBox="0 0 1024 768"><desc>SVG generated by Keynote</desc><defs></defs><g transform="matrix(1.00, 0.00, -0.00, -1.00, 0.0, 768.0)"><g><clipPath id="clip0x6080062a9000"><path d="M 0.0 768.0 L 1024.0 768.0 L 1024.0 0.0 L 0.0 0.0 Z M 0.0 768.0 "></path></clipPath><g clip-path="url(#clip0x6080062a9000)"><image xlink:href="../../073872A3-6B4A-4DBD-B237-E9D6C1798DA3/assets/9397CAD6F20342ACC2646ABBCA758461.jpeg" width="2048.00" height="1536.00" transform="matrix(0.50, 0.00, -0.00, -0.50, 0.0, 768.0)"></image></g></g><image xlink:href="58389E93090C85EF900D65A98B3FD89F.png" width="812.00" height="71.00" transform="matrix(1.00, 0.00, -0.00, -1.00, 108.0, 692.0)"></image><text xml:space="preserve" font-family="LucidaGrande-Bold,Lucida Grande" font-weight="bold" font-size="64.0" fill="#FEFFFE" transform="matrix(1.00, 0.00, -0.00, -1.00, 106.4, 639.5)">K</text><text xml:space="preserve" font-family="LucidaGrande-Bold,Lucida Grande" font-weight="bold" font-size="64.0" fill="#FEFFFE" transform="matrix(1.00, 0.00, -0.00, -1.00, 151.9, 639.5)">t</text><text xml:space="preserve" font-family="LucidaGrande-Bold,Lucida Grande" font-weight="bold" font-size="64.0" fill="#FEFFFE" transform="matrix(1.00, 0.00, -0.00, -1.00, 177.8, 639.5)">ó</text><text xml:space="preserve" font-family="LucidaGrande-Bold,Lucida Grande" font-weight="bold" font-size="64.0" fill="#FEFFFE" transform="matrix(1.00, 0.00, -0.00, -1.00, 218.7, 639.5)">r</text><text xml:space="preserve" font-family="LucidaGrande-Bold,Lucida Grande" font-weight="bold" font-size="64.0" fill="#FEFFFE" transform="matrix(1.00, 0.00, -0.00, -1.00, 247.7, 639.5)">e</text><text xml:space="preserve" font-family="LucidaGrande-Bold,Lucida Grande" font-weight="bold" font-size="64.0" fill="#FEFFFE" transform="matrix(1.00, 0.00, -0.00, -1.00, 285.2, 639.5)"> </text><text xml:space="preserve" font-family="LucidaGrande-Bold,Lucida Grande" font-weight="bold" font-size="64.0" fill="#FEFFFE" transform="matrix(1.00, 0.00, -0.00, -1.00, 306.3, 639.5)">n</text><text xml:space="preserve" font-family="LucidaGrande-Bold,Lucida Grande" font-weight="bold" font-size="64.0" fill="#FEFFFE" transform="matrix(1.00, 0.00, -0.00, -1.00, 348.3, 639.5)">a</text><text xml:space="preserve" font-family="LucidaGrande-Bold,Lucida Grande" font-weight="bold" font-size="64.0" fill="#FEFFFE" transform="matrix(1.00, 0.00, -0.00, -1.00, 385.9, 639.5)">r</text><text xml:space="preserve" font-family="LucidaGrande-Bold,Lucida Grande" font-weight="bold" font-size="64.0" fill="#FEFFFE" transform="matrix(1.00, 0.00, -0.00, -1.00, 415.0, 639.5)">z</text><text xml:space="preserve" font-family="LucidaGrande-Bold,Lucida Grande" font-weight="bold" font-size="64.0" fill="#FEFFFE" transform="matrix(1.00, 0.00, -0.00, -1.00, 452.8, 639.5)">ę</text><text xml:space="preserve" font-family="LucidaGrande-Bold,Lucida Grande" font-weight="bold" font-size="64.0" fill="#FEFFFE" transform="matrix(1.00, 0.00, -0.00, -1.00, 490.3, 639.5)">d</text><text xml:space="preserve" font-family="LucidaGrande-Bold,Lucida Grande" font-weight="bold" font-size="64.0" fill="#FEFFFE" transform="matrix(1.00, 0.00, -0.00, -1.00, 532.7, 639.5)">z</text><text xml:space="preserve" font-family="LucidaGrande-Bold,Lucida Grande" font-weight="bold" font-size="64.0" fill="#FEFFFE" transform="matrix(1.00, 0.00, -0.00, -1.00, 570.5, 639.5)">i</text><text xml:space="preserve" font-family="LucidaGrande-Bold,Lucida Grande" font-weight="bold" font-size="64.0" fill="#FEFFFE" transform="matrix(1.00, 0.00, -0.00, -1.00, 591.3, 639.5)">e</text><text xml:space="preserve" font-family="LucidaGrande-Bold,Lucida Grande" font-weight="bold" font-size="64.0" fill="#FEFFFE" transform="matrix(1.00, 0.00, -0.00, -1.00, 628.8, 639.5)"> </text><text xml:space="preserve" font-family="LucidaGrande-Bold,Lucida Grande" font-weight="bold" font-size="64.0" fill="#FEFFFE" transform="matrix(1.00, 0.00, -0.00, -1.00, 649.9, 639.5)">w</text><text xml:space="preserve" font-family="LucidaGrande-Bold,Lucida Grande" font-weight="bold" font-size="64.0" fill="#FEFFFE" transform="matrix(1.00, 0.00, -0.00, -1.00, 705.1, 639.5)">y</text><text xml:space="preserve" font-family="LucidaGrande-Bold,Lucida Grande" font-weight="bold" font-size="64.0" fill="#FEFFFE" transform="matrix(1.00, 0.00, -0.00, -1.00, 742.4, 639.5)">b</text><text xml:space="preserve" font-family="LucidaGrande-Bold,Lucida Grande" font-weight="bold" font-size="64.0" fill="#FEFFFE" transform="matrix(1.00, 0.00, -0.00, -1.00, 784.8, 639.5)">r</text><text xml:space="preserve" font-family="LucidaGrande-Bold,Lucida Grande" font-weight="bold" font-size="64.0" fill="#FEFFFE" transform="matrix(1.00, 0.00, -0.00, -1.00, 813.8, 639.5)">a</text><text xml:space="preserve" font-family="LucidaGrande-Bold,Lucida Grande" font-weight="bold" font-size="64.0" fill="#FEFFFE" transform="matrix(1.00, 0.00, -0.00, -1.00, 851.4, 639.5)">ć</text><text xml:space="preserve" font-family="LucidaGrande-Bold,Lucida Grande" font-weight="bold" font-size="64.0" fill="#FEFFFE" transform="matrix(1.00, 0.00, -0.00, -1.00, 885.5, 639.5)">?</text><image xlink:href="../../2D197280-1DD4-47A5-8EC1-CB39EA06D99E/assets/C25F7C0C760FC422C6FD5D90B7D2228F.png" width="18.00" height="18.00" transform="matrix(1.00, 0.00, -0.00, -1.00, 62.0, 487.0)"></image><text xml:space="preserve" font-family="LucidaGrande,Lucida Grande" font-size="25.5" fill="#EAEAEA" transform="matrix(1.00, 0.00, -0.00, -1.00, 64.0, 472.4)">•</text><image xlink:href="679D69A5930B46A26E26008B4E5A39EC.png" width="295.00" height="42.00" transform="matrix(1.00, 0.00, -0.00, -1.00, 88.0, 498.0)"></image><text xml:space="preserve" font-family="LucidaGrande,Lucida Grande" font-size="34.0" fill="#EAEAEA" transform="matrix(1.00, 0.00, -0.00, -1.00, 96.0, 469.2)">J</text><text xml:space="preserve" font-family="LucidaGrande,Lucida Grande" font-size="34.0" fill="#EAEAEA" transform="matrix(1.00, 0.00, -0.00, -1.00, 106.6, 469.2)">a</text><text xml:space="preserve" font-family="LucidaGrande,Lucida Grande" font-size="34.0" fill="#EAEAEA" transform="matrix(1.00, 0.00, -0.00, -1.00, 125.4, 469.2)">k</text><text xml:space="preserve" font-family="LucidaGrande,Lucida Grande" font-size="34.0" fill="#EAEAEA" transform="matrix(1.00, 0.00, -0.00, -1.00, 145.2, 469.2)"> </text><text xml:space="preserve" font-family="LucidaGrande,Lucida Grande" font-size="34.0" fill="#EAEAEA" transform="matrix(1.00, 0.00, -0.00, -1.00, 156.0, 469.2)">d</text><text xml:space="preserve" font-family="LucidaGrande,Lucida Grande" font-size="34.0" fill="#EAEAEA" transform="matrix(1.00, 0.00, -0.00, -1.00, 177.4, 469.2)">u</text><text xml:space="preserve" font-family="LucidaGrande,Lucida Grande" font-size="34.0" fill="#EAEAEA" transform="matrix(1.00, 0.00, -0.00, -1.00, 198.5, 469.2)">ż</text><text xml:space="preserve" font-family="LucidaGrande,Lucida Grande" font-size="34.0" fill="#EAEAEA" transform="matrix(1.00, 0.00, -0.00, -1.00, 218.0, 469.2)">y</text><text xml:space="preserve" font-family="LucidaGrande,Lucida Grande" font-size="34.0" fill="#EAEAEA" transform="matrix(1.00, 0.00, -0.00, -1.00, 235.8, 469.2)"> </text><text xml:space="preserve" font-family="LucidaGrande,Lucida Grande" font-size="34.0" fill="#EAEAEA" transform="matrix(1.00, 0.00, -0.00, -1.00, 246.6, 469.2)">p</text><text xml:space="preserve" font-family="LucidaGrande,Lucida Grande" font-size="34.0" fill="#EAEAEA" transform="matrix(1.00, 0.00, -0.00, -1.00, 268.0, 469.2)">r</text><text xml:space="preserve" font-family="LucidaGrande,Lucida Grande" font-size="34.0" fill="#EAEAEA" transform="matrix(1.00, 0.00, -0.00, -1.00, 281.9, 469.2)">o</text><text xml:space="preserve" font-family="LucidaGrande,Lucida Grande" font-size="34.0" fill="#EAEAEA" transform="matrix(1.00, 0.00, -0.00, -1.00, 302.8, 469.2)">j</text><text xml:space="preserve" font-family="LucidaGrande,Lucida Grande" font-size="34.0" fill="#EAEAEA" transform="matrix(1.00, 0.00, -0.00, -1.00, 313.1, 469.2)">e</text><text xml:space="preserve" font-family="LucidaGrande,Lucida Grande" font-size="34.0" fill="#EAEAEA" transform="matrix(1.00, 0.00, -0.00, -1.00, 332.1, 469.2)">k</text><text xml:space="preserve" font-family="LucidaGrande,Lucida Grande" font-size="34.0" fill="#EAEAEA" transform="matrix(1.00, 0.00, -0.00, -1.00, 352.0, 469.2)">t</text><text xml:space="preserve" font-family="LucidaGrande,Lucida Grande" font-size="34.0" fill="#EAEAEA" transform="matrix(1.00, 0.00, -0.00, -1.00, 364.7, 469.2)">?</text><text xml:space="preserve" font-family="LucidaGrande,Lucida Grande" font-size="34.0" fill="#EAEAEA" transform="matrix(1.00, 0.00, -0.00, -1.00, 379.0, 469.2)"></text><image xlink:href="../../2D197280-1DD4-47A5-8EC1-CB39EA06D99E/assets/C25F7C0C760FC422C6FD5D90B7D2228F.png" width="18.00" height="18.00" transform="matrix(1.00, 0.00, -0.00, -1.00, 62.0, 425.0)"></image><text xml:space="preserve" font-family="LucidaGrande,Lucida Grande" font-size="25.5" fill="#EAEAEA" transform="matrix(1.00, 0.00, -0.00, -1.00, 64.0, 410.4)">•</text><image xlink:href="4D4F26CA369975B1D993E54CE1D382EC.png" width="223.00" height="42.00" transform="matrix(1.00, 0.00, -0.00, -1.00, 95.0, 436.0)"></image><text xml:space="preserve" font-family="LucidaGrande,Lucida Grande" font-size="34.0" fill="#EAEAEA" transform="matrix(1.00, 0.00, -0.00, -1.00, 96.0, 407.2)">E</text><text xml:space="preserve" font-family="LucidaGrande,Lucida Grande" font-size="34.0" fill="#EAEAEA" transform="matrix(1.00, 0.00, -0.00, -1.00, 114.4, 407.2)">t</text><text xml:space="preserve" font-family="LucidaGrande,Lucida Grande" font-size="34.0" fill="#EAEAEA" transform="matrix(1.00, 0.00, -0.00, -1.00, 127.1, 407.2)">a</text><text xml:space="preserve" font-family="LucidaGrande,Lucida Grande" font-size="34.0" fill="#EAEAEA" transform="matrix(1.00, 0.00, -0.00, -1.00, 145.9, 407.2)">p</text><text xml:space="preserve" font-family="LucidaGrande,Lucida Grande" font-size="34.0" fill="#EAEAEA" transform="matrix(1.00, 0.00, -0.00, -1.00, 167.3, 407.2)"> </text><text xml:space="preserve" font-family="LucidaGrande,Lucida Grande" font-size="34.0" fill="#EAEAEA" transform="matrix(1.00, 0.00, -0.00, -1.00, 178.1, 407.2)">p</text><text xml:space="preserve" font-family="LucidaGrande,Lucida Grande" font-size="34.0" fill="#EAEAEA" transform="matrix(1.00, 0.00, -0.00, -1.00, 199.5, 407.2)">r</text><text xml:space="preserve" font-family="LucidaGrande,Lucida Grande" font-size="34.0" fill="#EAEAEA" transform="matrix(1.00, 0.00, -0.00, -1.00, 213.4, 407.2)">o</text><text xml:space="preserve" font-family="LucidaGrande,Lucida Grande" font-size="34.0" fill="#EAEAEA" transform="matrix(1.00, 0.00, -0.00, -1.00, 234.3, 407.2)">j</text><text xml:space="preserve" font-family="LucidaGrande,Lucida Grande" font-size="34.0" fill="#EAEAEA" transform="matrix(1.00, 0.00, -0.00, -1.00, 244.7, 407.2)">e</text><text xml:space="preserve" font-family="LucidaGrande,Lucida Grande" font-size="34.0" fill="#EAEAEA" transform="matrix(1.00, 0.00, -0.00, -1.00, 263.6, 407.2)">k</text><text xml:space="preserve" font-family="LucidaGrande,Lucida Grande" font-size="34.0" fill="#EAEAEA" transform="matrix(1.00, 0.00, -0.00, -1.00, 283.5, 407.2)">t</text><text xml:space="preserve" font-family="LucidaGrande,Lucida Grande" font-size="34.0" fill="#EAEAEA" transform="matrix(1.00, 0.00, -0.00, -1.00, 296.2, 407.2)">u</text><text xml:space="preserve" font-family="LucidaGrande,Lucida Grande" font-size="34.0" fill="#EAEAEA" transform="matrix(1.00, 0.00, -0.00, -1.00, 317.3, 407.2)"></text><image xlink:href="../../2D197280-1DD4-47A5-8EC1-CB39EA06D99E/assets/C25F7C0C760FC422C6FD5D90B7D2228F.png" width="18.00" height="18.00" transform="matrix(1.00, 0.00, -0.00, -1.00, 62.0, 363.0)"></image><text xml:space="preserve" font-family="LucidaGrande,Lucida Grande" font-size="25.5" fill="#EAEAEA" transform="matrix(1.00, 0.00, -0.00, -1.00, 64.0, 348.4)">•</text><image xlink:href="CD9ED2517EE7161695BE8503AC3A3716.png" width="695.00" height="42.00" transform="matrix(1.00, 0.00, -0.00, -1.00, 95.0, 374.0)"></image><text xml:space="preserve" font-family="LucidaGrande,Lucida Grande" font-size="34.0" fill="#EAEAEA" transform="matrix(1.00, 0.00, -0.00, -1.00, 96.0, 345.2)">I</text><text xml:space="preserve" font-family="LucidaGrande,Lucida Grande" font-size="34.0" fill="#EAEAEA" transform="matrix(1.00, 0.00, -0.00, -1.00, 105.8, 345.2)">l</text><text xml:space="preserve" font-family="LucidaGrande,Lucida Grande" font-size="34.0" fill="#EAEAEA" transform="matrix(1.00, 0.00, -0.00, -1.00, 115.6, 345.2)">o</text><text xml:space="preserve" font-family="LucidaGrande,Lucida Grande" font-size="34.0" fill="#EAEAEA" transform="matrix(1.00, 0.00, -0.00, -1.00, 136.5, 345.2)">ś</text><text xml:space="preserve" font-family="LucidaGrande,Lucida Grande" font-size="34.0" fill="#EAEAEA" transform="matrix(1.00, 0.00, -0.00, -1.00, 153.9, 345.2)">ć</text><text xml:space="preserve" font-family="LucidaGrande,Lucida Grande" font-size="34.0" fill="#EAEAEA" transform="matrix(1.00, 0.00, -0.00, -1.00, 171.3, 345.2)"> </text><text xml:space="preserve" font-family="LucidaGrande,Lucida Grande" font-size="34.0" fill="#EAEAEA" transform="matrix(1.00, 0.00, -0.00, -1.00, 182.0, 345.2)">l</text><text xml:space="preserve" font-family="LucidaGrande,Lucida Grande" font-size="34.0" fill="#EAEAEA" transform="matrix(1.00, 0.00, -0.00, -1.00, 191.9, 345.2)">o</text><text xml:space="preserve" font-family="LucidaGrande,Lucida Grande" font-size="34.0" fill="#EAEAEA" transform="matrix(1.00, 0.00, -0.00, -1.00, 212.8, 345.2)">g</text><text xml:space="preserve" font-family="LucidaGrande,Lucida Grande" font-size="34.0" fill="#EAEAEA" transform="matrix(1.00, 0.00, -0.00, -1.00, 233.9, 345.2)">i</text><text xml:space="preserve" font-family="LucidaGrande,Lucida Grande" font-size="34.0" fill="#EAEAEA" transform="matrix(1.00, 0.00, -0.00, -1.00, 243.8, 345.2)">k</text><text xml:space="preserve" font-family="LucidaGrande,Lucida Grande" font-size="34.0" fill="#EAEAEA" transform="matrix(1.00, 0.00, -0.00, -1.00, 263.6, 345.2)">i</text><text xml:space="preserve" font-family="LucidaGrande,Lucida Grande" font-size="34.0" fill="#EAEAEA" transform="matrix(1.00, 0.00, -0.00, -1.00, 273.5, 345.2)"> </text><text xml:space="preserve" font-family="LucidaGrande,Lucida Grande" font-size="34.0" fill="#EAEAEA" transform="matrix(1.00, 0.00, -0.00, -1.00, 284.2, 345.2)">b</text><text xml:space="preserve" font-family="LucidaGrande,Lucida Grande" font-size="34.0" fill="#EAEAEA" transform="matrix(1.00, 0.00, -0.00, -1.00, 305.6, 345.2)">i</text><text xml:space="preserve" font-family="LucidaGrande,Lucida Grande" font-size="34.0" fill="#EAEAEA" transform="matrix(1.00, 0.00, -0.00, -1.00, 315.5, 345.2)">z</text><text xml:space="preserve" font-family="LucidaGrande,Lucida Grande" font-size="34.0" fill="#EAEAEA" transform="matrix(1.00, 0.00, -0.00, -1.00, 335.0, 345.2)">n</text><text xml:space="preserve" font-family="LucidaGrande,Lucida Grande" font-size="34.0" fill="#EAEAEA" transform="matrix(1.00, 0.00, -0.00, -1.00, 356.0, 345.2)">e</text><text xml:space="preserve" font-family="LucidaGrande,Lucida Grande" font-size="34.0" fill="#EAEAEA" transform="matrix(1.00, 0.00, -0.00, -1.00, 375.0, 345.2)">s</text><text xml:space="preserve" font-family="LucidaGrande,Lucida Grande" font-size="34.0" fill="#EAEAEA" transform="matrix(1.00, 0.00, -0.00, -1.00, 392.3, 345.2)">o</text><text xml:space="preserve" font-family="LucidaGrande,Lucida Grande" font-size="34.0" fill="#EAEAEA" transform="matrix(1.00, 0.00, -0.00, -1.00, 413.2, 345.2)">w</text><text xml:space="preserve" font-family="LucidaGrande,Lucida Grande" font-size="34.0" fill="#EAEAEA" transform="matrix(1.00, 0.00, -0.00, -1.00, 439.4, 345.2)">e</text><text xml:space="preserve" font-family="LucidaGrande,Lucida Grande" font-size="34.0" fill="#EAEAEA" transform="matrix(1.00, 0.00, -0.00, -1.00, 458.3, 345.2)">j</text><text xml:space="preserve" font-family="LucidaGrande,Lucida Grande" font-size="34.0" fill="#EAEAEA" transform="matrix(1.00, 0.00, -0.00, -1.00, 468.6, 345.2)">,</text><text xml:space="preserve" font-family="LucidaGrande,Lucida Grande" font-size="34.0" fill="#EAEAEA" transform="matrix(1.00, 0.00, -0.00, -1.00, 479.4, 345.2)"> </text><text xml:space="preserve" font-family="LucidaGrande,Lucida Grande" font-size="34.0" fill="#EAEAEA" transform="matrix(1.00, 0.00, -0.00, -1.00, 490.2, 345.2)">z</text><text xml:space="preserve" font-family="LucidaGrande,Lucida Grande" font-size="34.0" fill="#EAEAEA" transform="matrix(1.00, 0.00, -0.00, -1.00, 509.7, 345.2)">ł</text><text xml:space="preserve" font-family="LucidaGrande,Lucida Grande" font-size="34.0" fill="#EAEAEA" transform="matrix(1.00, 0.00, -0.00, -1.00, 520.8, 345.2)">o</text><text xml:space="preserve" font-family="LucidaGrande,Lucida Grande" font-size="34.0" fill="#EAEAEA" transform="matrix(1.00, 0.00, -0.00, -1.00, 541.7, 345.2)">ż</text><text xml:space="preserve" font-family="LucidaGrande,Lucida Grande" font-size="34.0" fill="#EAEAEA" transform="matrix(1.00, 0.00, -0.00, -1.00, 561.2, 345.2)">o</text><text xml:space="preserve" font-family="LucidaGrande,Lucida Grande" font-size="34.0" fill="#EAEAEA" transform="matrix(1.00, 0.00, -0.00, -1.00, 582.1, 345.2)">n</text><text xml:space="preserve" font-family="LucidaGrande,Lucida Grande" font-size="34.0" fill="#EAEAEA" transform="matrix(1.00, 0.00, -0.00, -1.00, 603.2, 345.2)">o</text><text xml:space="preserve" font-family="LucidaGrande,Lucida Grande" font-size="34.0" fill="#EAEAEA" transform="matrix(1.00, 0.00, -0.00, -1.00, 624.1, 345.2)">ś</text><text xml:space="preserve" font-family="LucidaGrande,Lucida Grande" font-size="34.0" fill="#EAEAEA" transform="matrix(1.00, 0.00, -0.00, -1.00, 641.4, 345.2)">ć</text><text xml:space="preserve" font-family="LucidaGrande,Lucida Grande" font-size="34.0" fill="#EAEAEA" transform="matrix(1.00, 0.00, -0.00, -1.00, 658.8, 345.2)"> </text><text xml:space="preserve" font-family="LucidaGrande,Lucida Grande" font-size="34.0" fill="#EAEAEA" transform="matrix(1.00, 0.00, -0.00, -1.00, 669.6, 345.2)">w</text><text xml:space="preserve" font-family="LucidaGrande,Lucida Grande" font-size="34.0" fill="#EAEAEA" transform="matrix(1.00, 0.00, -0.00, -1.00, 695.7, 345.2)">i</text><text xml:space="preserve" font-family="LucidaGrande,Lucida Grande" font-size="34.0" fill="#EAEAEA" transform="matrix(1.00, 0.00, -0.00, -1.00, 705.6, 345.2)">d</text><text xml:space="preserve" font-family="LucidaGrande,Lucida Grande" font-size="34.0" fill="#EAEAEA" transform="matrix(1.00, 0.00, -0.00, -1.00, 727.0, 345.2)">o</text><text xml:space="preserve" font-family="LucidaGrande,Lucida Grande" font-size="34.0" fill="#EAEAEA" transform="matrix(1.00, 0.00, -0.00, -1.00, 747.9, 345.2)">k</text><text xml:space="preserve" font-family="LucidaGrande,Lucida Grande" font-size="34.0" fill="#EAEAEA" transform="matrix(1.00, 0.00, -0.00, -1.00, 767.7, 345.2)">u</text><text xml:space="preserve" font-family="LucidaGrande,Lucida Grande" font-size="34.0" fill="#EAEAEA" transform="matrix(1.00, 0.00, -0.00, -1.00, 788.8, 345.2)"></text><image xlink:href="../../2D197280-1DD4-47A5-8EC1-CB39EA06D99E/assets/C25F7C0C760FC422C6FD5D90B7D2228F.png" width="18.00" height="18.00" transform="matrix(1.00, 0.00, -0.00, -1.00, 62.0, 301.0)"></image><text xml:space="preserve" font-family="LucidaGrande,Lucida Grande" font-size="25.5" fill="#EAEAEA" transform="matrix(1.00, 0.00, -0.00, -1.00, 64.0, 286.4)">•</text><image xlink:href="F2B61809A838E210225E14C83D70C00E.png" width="334.00" height="42.00" transform="matrix(1.00, 0.00, -0.00, -1.00, 95.0, 312.0)"></image><text xml:space="preserve" font-family="LucidaGrande,Lucida Grande" font-size="34.0" fill="#EAEAEA" transform="matrix(1.00, 0.00, -0.00, -1.00, 96.0, 283.2)">K</text><text xml:space="preserve" font-family="LucidaGrande,Lucida Grande" font-size="34.0" fill="#EAEAEA" transform="matrix(1.00, 0.00, -0.00, -1.00, 118.2, 283.2)">r</text><text xml:space="preserve" font-family="LucidaGrande,Lucida Grande" font-size="34.0" fill="#EAEAEA" transform="matrix(1.00, 0.00, -0.00, -1.00, 132.1, 283.2)">y</text><text xml:space="preserve" font-family="LucidaGrande,Lucida Grande" font-size="34.0" fill="#EAEAEA" transform="matrix(1.00, 0.00, -0.00, -1.00, 149.9, 283.2)">t</text><text xml:space="preserve" font-family="LucidaGrande,Lucida Grande" font-size="34.0" fill="#EAEAEA" transform="matrix(1.00, 0.00, -0.00, -1.00, 162.6, 283.2)">y</text><text xml:space="preserve" font-family="LucidaGrande,Lucida Grande" font-size="34.0" fill="#EAEAEA" transform="matrix(1.00, 0.00, -0.00, -1.00, 180.4, 283.2)">c</text><text xml:space="preserve" font-family="LucidaGrande,Lucida Grande" font-size="34.0" fill="#EAEAEA" transform="matrix(1.00, 0.00, -0.00, -1.00, 197.8, 283.2)">z</text><text xml:space="preserve" font-family="LucidaGrande,Lucida Grande" font-size="34.0" fill="#EAEAEA" transform="matrix(1.00, 0.00, -0.00, -1.00, 217.3, 283.2)">n</text><text xml:space="preserve" font-family="LucidaGrande,Lucida Grande" font-size="34.0" fill="#EAEAEA" transform="matrix(1.00, 0.00, -0.00, -1.00, 238.4, 283.2)">o</text><text xml:space="preserve" font-family="LucidaGrande,Lucida Grande" font-size="34.0" fill="#EAEAEA" transform="matrix(1.00, 0.00, -0.00, -1.00, 259.3, 283.2)">ś</text><text xml:space="preserve" font-family="LucidaGrande,Lucida Grande" font-size="34.0" fill="#EAEAEA" transform="matrix(1.00, 0.00, -0.00, -1.00, 276.6, 283.2)">ć</text><text xml:space="preserve" font-family="LucidaGrande,Lucida Grande" font-size="34.0" fill="#EAEAEA" transform="matrix(1.00, 0.00, -0.00, -1.00, 294.0, 283.2)"> </text><text xml:space="preserve" font-family="LucidaGrande,Lucida Grande" font-size="34.0" fill="#EAEAEA" transform="matrix(1.00, 0.00, -0.00, -1.00, 304.8, 283.2)">b</text><text xml:space="preserve" font-family="LucidaGrande,Lucida Grande" font-size="34.0" fill="#EAEAEA" transform="matrix(1.00, 0.00, -0.00, -1.00, 326.2, 283.2)">ł</text><text xml:space="preserve" font-family="LucidaGrande,Lucida Grande" font-size="34.0" fill="#EAEAEA" transform="matrix(1.00, 0.00, -0.00, -1.00, 337.4, 283.2)">ę</text><text xml:space="preserve" font-family="LucidaGrande,Lucida Grande" font-size="34.0" fill="#EAEAEA" transform="matrix(1.00, 0.00, -0.00, -1.00, 356.3, 283.2)">d</text><text xml:space="preserve" font-family="LucidaGrande,Lucida Grande" font-size="34.0" fill="#EAEAEA" transform="matrix(1.00, 0.00, -0.00, -1.00, 377.7, 283.2)">ó</text><text xml:space="preserve" font-family="LucidaGrande,Lucida Grande" font-size="34.0" fill="#EAEAEA" transform="matrix(1.00, 0.00, -0.00, -1.00, 398.6, 283.2)">w</text><text xml:space="preserve" font-family="LucidaGrande,Lucida Grande" font-size="34.0" fill="#EAEAEA" transform="matrix(1.00, 0.00, -0.00, -1.00, 424.8, 283.2)"></text><image xlink:href="../../2D197280-1DD4-47A5-8EC1-CB39EA06D99E/assets/C25F7C0C760FC422C6FD5D90B7D2228F.png" width="18.00" height="18.00" transform="matrix(1.00, 0.00, -0.00, -1.00, 62.0, 239.0)"></image><text xml:space="preserve" font-family="LucidaGrande,Lucida Grande" font-size="25.5" fill="#EAEAEA" transform="matrix(1.00, 0.00, -0.00, -1.00, 64.0, 224.4)">•</text><image xlink:href="1BF442AE0D0278E54680CB1D4E500A5B.png" width="484.00" height="42.00" transform="matrix(1.00, 0.00, -0.00, -1.00, 94.0, 250.0)"></image><text xml:space="preserve" font-family="LucidaGrande,Lucida Grande" font-size="34.0" fill="#EAEAEA" transform="matrix(1.00, 0.00, -0.00, -1.00, 96.0, 221.2)">U</text><text xml:space="preserve" font-family="LucidaGrande,Lucida Grande" font-size="34.0" fill="#EAEAEA" transform="matrix(1.00, 0.00, -0.00, -1.00, 119.6, 221.2)">r</text><text xml:space="preserve" font-family="LucidaGrande,Lucida Grande" font-size="34.0" fill="#EAEAEA" transform="matrix(1.00, 0.00, -0.00, -1.00, 133.5, 221.2)">u</text><text xml:space="preserve" font-family="LucidaGrande,Lucida Grande" font-size="34.0" fill="#EAEAEA" transform="matrix(1.00, 0.00, -0.00, -1.00, 154.6, 221.2)">c</text><text xml:space="preserve" font-family="LucidaGrande,Lucida Grande" font-size="34.0" fill="#EAEAEA" transform="matrix(1.00, 0.00, -0.00, -1.00, 172.0, 221.2)">h</text><text xml:space="preserve" font-family="LucidaGrande,Lucida Grande" font-size="34.0" fill="#EAEAEA" transform="matrix(1.00, 0.00, -0.00, -1.00, 193.1, 221.2)">a</text><text xml:space="preserve" font-family="LucidaGrande,Lucida Grande" font-size="34.0" fill="#EAEAEA" transform="matrix(1.00, 0.00, -0.00, -1.00, 211.9, 221.2)">m</text><text xml:space="preserve" font-family="LucidaGrande,Lucida Grande" font-size="34.0" fill="#EAEAEA" transform="matrix(1.00, 0.00, -0.00, -1.00, 243.6, 221.2)">i</text><text xml:space="preserve" font-family="LucidaGrande,Lucida Grande" font-size="34.0" fill="#EAEAEA" transform="matrix(1.00, 0.00, -0.00, -1.00, 253.4, 221.2)">a</text><text xml:space="preserve" font-family="LucidaGrande,Lucida Grande" font-size="34.0" fill="#EAEAEA" transform="matrix(1.00, 0.00, -0.00, -1.00, 272.2, 221.2)">n</text><text xml:space="preserve" font-family="LucidaGrande,Lucida Grande" font-size="34.0" fill="#EAEAEA" transform="matrix(1.00, 0.00, -0.00, -1.00, 293.3, 221.2)">e</text><text xml:space="preserve" font-family="LucidaGrande,Lucida Grande" font-size="34.0" fill="#EAEAEA" transform="matrix(1.00, 0.00, -0.00, -1.00, 312.2, 221.2)"> </text><text xml:space="preserve" font-family="LucidaGrande,Lucida Grande" font-size="34.0" fill="#EAEAEA" transform="matrix(1.00, 0.00, -0.00, -1.00, 323.0, 221.2)">w</text><text xml:space="preserve" font-family="LucidaGrande,Lucida Grande" font-size="34.0" fill="#EAEAEA" transform="matrix(1.00, 0.00, -0.00, -1.00, 349.2, 221.2)"> </text><text xml:space="preserve" font-family="LucidaGrande,Lucida Grande" font-size="34.0" fill="#EAEAEA" transform="matrix(1.00, 0.00, -0.00, -1.00, 360.0, 221.2)">I</text><text xml:space="preserve" font-family="LucidaGrande,Lucida Grande" font-size="34.0" fill="#EAEAEA" transform="matrix(1.00, 0.00, -0.00, -1.00, 369.7, 221.2)">D</text><text xml:space="preserve" font-family="LucidaGrande,Lucida Grande" font-size="34.0" fill="#EAEAEA" transform="matrix(1.00, 0.00, -0.00, -1.00, 395.2, 221.2)">E</text><text xml:space="preserve" font-family="LucidaGrande,Lucida Grande" font-size="34.0" fill="#EAEAEA" transform="matrix(1.00, 0.00, -0.00, -1.00, 413.6, 221.2)"> </text><text xml:space="preserve" font-family="LucidaGrande,Lucida Grande" font-size="34.0" fill="#EAEAEA" transform="matrix(1.00, 0.00, -0.00, -1.00, 424.4, 221.2)">c</text><text xml:space="preserve" font-family="LucidaGrande,Lucida Grande" font-size="34.0" fill="#EAEAEA" transform="matrix(1.00, 0.00, -0.00, -1.00, 441.8, 221.2)">z</text><text xml:space="preserve" font-family="LucidaGrande,Lucida Grande" font-size="34.0" fill="#EAEAEA" transform="matrix(1.00, 0.00, -0.00, -1.00, 461.3, 221.2)">y</text><text xml:space="preserve" font-family="LucidaGrande,Lucida Grande" font-size="34.0" fill="#EAEAEA" transform="matrix(1.00, 0.00, -0.00, -1.00, 479.1, 221.2)"> </text><text xml:space="preserve" font-family="LucidaGrande,Lucida Grande" font-size="34.0" fill="#EAEAEA" transform="matrix(1.00, 0.00, -0.00, -1.00, 489.9, 221.2)">w</text><text xml:space="preserve" font-family="LucidaGrande,Lucida Grande" font-size="34.0" fill="#EAEAEA" transform="matrix(1.00, 0.00, -0.00, -1.00, 516.1, 221.2)"> </text><text xml:space="preserve" font-family="LucidaGrande,Lucida Grande" font-size="34.0" fill="#EAEAEA" transform="matrix(1.00, 0.00, -0.00, -1.00, 526.8, 221.2)">C</text><text xml:space="preserve" font-family="LucidaGrande,Lucida Grande" font-size="34.0" fill="#EAEAEA" transform="matrix(1.00, 0.00, -0.00, -1.00, 550.4, 221.2)">I</text><text xml:space="preserve" font-family="LucidaGrande,Lucida Grande" font-size="34.0" fill="#EAEAEA" transform="matrix(1.00, 0.00, -0.00, -1.00, 560.2, 221.2)">?</text><text xml:space="preserve" font-family="LucidaGrande,Lucida Grande" font-size="34.0" fill="#EAEAEA" transform="matrix(1.00, 0.00, -0.00, -1.00, 574.5, 221.2)"></text><image xlink:href="../../2D197280-1DD4-47A5-8EC1-CB39EA06D99E/assets/C25F7C0C760FC422C6FD5D90B7D2228F.png" width="18.00" height="18.00" transform="matrix(1.00, 0.00, -0.00, -1.00, 62.0, 177.0)"></image><text xml:space="preserve" font-family="LucidaGrande,Lucida Grande" font-size="25.5" fill="#EAEAEA" transform="matrix(1.00, 0.00, -0.00, -1.00, 64.0, 162.4)">•</text><image xlink:href="A5313F249FEA2039CA794D798A667C00.png" width="827.00" height="42.00" transform="matrix(1.00, 0.00, -0.00, -1.00, 92.0, 188.0)"></image><text xml:space="preserve" font-family="LucidaGrande,Lucida Grande" font-size="34.0" fill="#EAEAEA" transform="matrix(1.00, 0.00, -0.00, -1.00, 96.0, 159.2)">W</text><text xml:space="preserve" font-family="LucidaGrande,Lucida Grande" font-size="34.0" fill="#EAEAEA" transform="matrix(1.00, 0.00, -0.00, -1.00, 125.1, 159.2)">s</text><text xml:space="preserve" font-family="LucidaGrande,Lucida Grande" font-size="34.0" fill="#EAEAEA" transform="matrix(1.00, 0.00, -0.00, -1.00, 142.4, 159.2)">p</text><text xml:space="preserve" font-family="LucidaGrande,Lucida Grande" font-size="34.0" fill="#EAEAEA" transform="matrix(1.00, 0.00, -0.00, -1.00, 163.8, 159.2)">o</text><text xml:space="preserve" font-family="LucidaGrande,Lucida Grande" font-size="34.0" fill="#EAEAEA" transform="matrix(1.00, 0.00, -0.00, -1.00, 184.7, 159.2)">m</text><text xml:space="preserve" font-family="LucidaGrande,Lucida Grande" font-size="34.0" fill="#EAEAEA" transform="matrix(1.00, 0.00, -0.00, -1.00, 216.5, 159.2)">a</text><text xml:space="preserve" font-family="LucidaGrande,Lucida Grande" font-size="34.0" fill="#EAEAEA" transform="matrix(1.00, 0.00, -0.00, -1.00, 235.3, 159.2)">g</text><text xml:space="preserve" font-family="LucidaGrande,Lucida Grande" font-size="34.0" fill="#EAEAEA" transform="matrix(1.00, 0.00, -0.00, -1.00, 256.4, 159.2)">a</text><text xml:space="preserve" font-family="LucidaGrande,Lucida Grande" font-size="34.0" fill="#EAEAEA" transform="matrix(1.00, 0.00, -0.00, -1.00, 275.2, 159.2)">n</text><text xml:space="preserve" font-family="LucidaGrande,Lucida Grande" font-size="34.0" fill="#EAEAEA" transform="matrix(1.00, 0.00, -0.00, -1.00, 296.3, 159.2)">i</text><text xml:space="preserve" font-family="LucidaGrande,Lucida Grande" font-size="34.0" fill="#EAEAEA" transform="matrix(1.00, 0.00, -0.00, -1.00, 306.2, 159.2)">e</text><text xml:space="preserve" font-family="LucidaGrande,Lucida Grande" font-size="34.0" fill="#EAEAEA" transform="matrix(1.00, 0.00, -0.00, -1.00, 325.1, 159.2)"> </text><text xml:space="preserve" font-family="LucidaGrande,Lucida Grande" font-size="34.0" fill="#EAEAEA" transform="matrix(1.00, 0.00, -0.00, -1.00, 335.9, 159.2)">r</text><text xml:space="preserve" font-family="LucidaGrande,Lucida Grande" font-size="34.0" fill="#EAEAEA" transform="matrix(1.00, 0.00, -0.00, -1.00, 349.8, 159.2)">o</text><text xml:space="preserve" font-family="LucidaGrande,Lucida Grande" font-size="34.0" fill="#EAEAEA" transform="matrix(1.00, 0.00, -0.00, -1.00, 370.7, 159.2)">z</text><text xml:space="preserve" font-family="LucidaGrande,Lucida Grande" font-size="34.0" fill="#EAEAEA" transform="matrix(1.00, 0.00, -0.00, -1.00, 390.2, 159.2)">w</text><text xml:space="preserve" font-family="LucidaGrande,Lucida Grande" font-size="34.0" fill="#EAEAEA" transform="matrix(1.00, 0.00, -0.00, -1.00, 416.4, 159.2)">o</text><text xml:space="preserve" font-family="LucidaGrande,Lucida Grande" font-size="34.0" fill="#EAEAEA" transform="matrix(1.00, 0.00, -0.00, -1.00, 437.3, 159.2)">j</text><text xml:space="preserve" font-family="LucidaGrande,Lucida Grande" font-size="34.0" fill="#EAEAEA" transform="matrix(1.00, 0.00, -0.00, -1.00, 447.7, 159.2)">u</text><text xml:space="preserve" font-family="LucidaGrande,Lucida Grande" font-size="34.0" fill="#EAEAEA" transform="matrix(1.00, 0.00, -0.00, -1.00, 468.8, 159.2)"> </text><text xml:space="preserve" font-family="LucidaGrande,Lucida Grande" font-size="34.0" fill="#EAEAEA" transform="matrix(1.00, 0.00, -0.00, -1.00, 479.5, 159.2)">c</text><text xml:space="preserve" font-family="LucidaGrande,Lucida Grande" font-size="34.0" fill="#EAEAEA" transform="matrix(1.00, 0.00, -0.00, -1.00, 497.0, 159.2)">z</text><text xml:space="preserve" font-family="LucidaGrande,Lucida Grande" font-size="34.0" fill="#EAEAEA" transform="matrix(1.00, 0.00, -0.00, -1.00, 516.5, 159.2)">y</text><text xml:space="preserve" font-family="LucidaGrande,Lucida Grande" font-size="34.0" fill="#EAEAEA" transform="matrix(1.00, 0.00, -0.00, -1.00, 534.3, 159.2)"> </text><text xml:space="preserve" font-family="LucidaGrande,Lucida Grande" font-size="34.0" fill="#EAEAEA" transform="matrix(1.00, 0.00, -0.00, -1.00, 545.0, 159.2)">z</text><text xml:space="preserve" font-family="LucidaGrande,Lucida Grande" font-size="34.0" fill="#EAEAEA" transform="matrix(1.00, 0.00, -0.00, -1.00, 564.5, 159.2)">a</text><text xml:space="preserve" font-family="LucidaGrande,Lucida Grande" font-size="34.0" fill="#EAEAEA" transform="matrix(1.00, 0.00, -0.00, -1.00, 583.3, 159.2)">p</text><text xml:space="preserve" font-family="LucidaGrande,Lucida Grande" font-size="34.0" fill="#EAEAEA" transform="matrix(1.00, 0.00, -0.00, -1.00, 604.7, 159.2)">o</text><text xml:space="preserve" font-family="LucidaGrande,Lucida Grande" font-size="34.0" fill="#EAEAEA" transform="matrix(1.00, 0.00, -0.00, -1.00, 625.6, 159.2)">b</text><text xml:space="preserve" font-family="LucidaGrande,Lucida Grande" font-size="34.0" fill="#EAEAEA" transform="matrix(1.00, 0.00, -0.00, -1.00, 647.1, 159.2)">i</text><text xml:space="preserve" font-family="LucidaGrande,Lucida Grande" font-size="34.0" fill="#EAEAEA" transform="matrix(1.00, 0.00, -0.00, -1.00, 656.9, 159.2)">e</text><text xml:space="preserve" font-family="LucidaGrande,Lucida Grande" font-size="34.0" fill="#EAEAEA" transform="matrix(1.00, 0.00, -0.00, -1.00, 675.9, 159.2)">g</text><text xml:space="preserve" font-family="LucidaGrande,Lucida Grande" font-size="34.0" fill="#EAEAEA" transform="matrix(1.00, 0.00, -0.00, -1.00, 697.1, 159.2)">a</text><text xml:space="preserve" font-family="LucidaGrande,Lucida Grande" font-size="34.0" fill="#EAEAEA" transform="matrix(1.00, 0.00, -0.00, -1.00, 715.8, 159.2)">n</text><text xml:space="preserve" font-family="LucidaGrande,Lucida Grande" font-size="34.0" fill="#EAEAEA" transform="matrix(1.00, 0.00, -0.00, -1.00, 736.9, 159.2)">i</text><text xml:space="preserve" font-family="LucidaGrande,Lucida Grande" font-size="34.0" fill="#EAEAEA" transform="matrix(1.00, 0.00, -0.00, -1.00, 746.8, 159.2)">e</text><text xml:space="preserve" font-family="LucidaGrande,Lucida Grande" font-size="34.0" fill="#EAEAEA" transform="matrix(1.00, 0.00, -0.00, -1.00, 765.7, 159.2)"> </text><text xml:space="preserve" font-family="LucidaGrande,Lucida Grande" font-size="34.0" fill="#EAEAEA" transform="matrix(1.00, 0.00, -0.00, -1.00, 776.5, 159.2)">r</text><text xml:space="preserve" font-family="LucidaGrande,Lucida Grande" font-size="34.0" fill="#EAEAEA" transform="matrix(1.00, 0.00, -0.00, -1.00, 790.4, 159.2)">e</text><text xml:space="preserve" font-family="LucidaGrande,Lucida Grande" font-size="34.0" fill="#EAEAEA" transform="matrix(1.00, 0.00, -0.00, -1.00, 809.4, 159.2)">g</text><text xml:space="preserve" font-family="LucidaGrande,Lucida Grande" font-size="34.0" fill="#EAEAEA" transform="matrix(1.00, 0.00, -0.00, -1.00, 830.6, 159.2)">r</text><text xml:space="preserve" font-family="LucidaGrande,Lucida Grande" font-size="34.0" fill="#EAEAEA" transform="matrix(1.00, 0.00, -0.00, -1.00, 844.5, 159.2)">e</text><text xml:space="preserve" font-family="LucidaGrande,Lucida Grande" font-size="34.0" fill="#EAEAEA" transform="matrix(1.00, 0.00, -0.00, -1.00, 863.5, 159.2)">s</text><text xml:space="preserve" font-family="LucidaGrande,Lucida Grande" font-size="34.0" fill="#EAEAEA" transform="matrix(1.00, 0.00, -0.00, -1.00, 880.8, 159.2)">j</text><text xml:space="preserve" font-family="LucidaGrande,Lucida Grande" font-size="34.0" fill="#EAEAEA" transform="matrix(1.00, 0.00, -0.00, -1.00, 891.1, 159.2)">i</text><text xml:space="preserve" font-family="LucidaGrande,Lucida Grande" font-size="34.0" fill="#EAEAEA" transform="matrix(1.00, 0.00, -0.00, -1.00, 901.0, 159.2)">?</text></g></svg>