<?xml version="1.0" encoding="UTF-8" standalone="no"?><svg xmlns="http://www.w3.org/2000/svg" xmlns:xlink="http://www.w3.org/1999/xlink" clip-rule="evenodd" stroke-miterlimit="10" viewBox="0 0 1024 768"><desc>SVG generated by Keynote</desc><defs></defs><g transform="matrix(1.00, 0.00, -0.00, -1.00, 0.0, 768.0)"><g><clipPath id="clip0x608000ebf560"><path d="M 0.0 768.0 L 1024.0 768.0 L 1024.0 0.0 L 0.0 0.0 Z M 0.0 768.0 "></path></clipPath><g clip-path="url(#clip0x608000ebf560)"><image xlink:href="../../073872A3-6B4A-4DBD-B237-E9D6C1798DA3/assets/9397CAD6F20342ACC2646ABBCA758461.jpeg" width="2048.00" height="1536.00" transform="matrix(0.50, 0.00, -0.00, -0.50, 0.0, 768.0)"></image></g></g><image xlink:href="7B77C73585B85E862315EC87E0101241.png" width="639.00" height="48.00" transform="matrix(1.00, 0.00, -0.00, -1.00, 213.0, 586.0)"></image><text xml:space="preserve" font-family="LucidaGrande-Bold,Lucida Grande" font-weight="bold" font-size="44.0" fill="#FEFFFF" transform="matrix(1.00, 0.00, -0.00, -1.00, 214.9, 551.5)">A</text><text xml:space="preserve" font-family="LucidaGrande-Bold,Lucida Grande" font-weight="bold" font-size="44.0" fill="#FEFFFF" transform="matrix(1.00, 0.00, -0.00, -1.00, 247.3, 551.5)">n</text><text xml:space="preserve" font-family="LucidaGrande-Bold,Lucida Grande" font-weight="bold" font-size="44.0" fill="#FEFFFF" transform="matrix(1.00, 0.00, -0.00, -1.00, 276.2, 551.5)">d</text><text xml:space="preserve" font-family="LucidaGrande-Bold,Lucida Grande" font-weight="bold" font-size="44.0" fill="#FEFFFF" transform="matrix(1.00, 0.00, -0.00, -1.00, 305.3, 551.5)">r</text><text xml:space="preserve" font-family="LucidaGrande-Bold,Lucida Grande" font-weight="bold" font-size="44.0" fill="#FEFFFF" transform="matrix(1.00, 0.00, -0.00, -1.00, 325.2, 551.5)">o</text><text xml:space="preserve" font-family="LucidaGrande-Bold,Lucida Grande" font-weight="bold" font-size="44.0" fill="#FEFFFF" transform="matrix(1.00, 0.00, -0.00, -1.00, 353.3, 551.5)">i</text><text xml:space="preserve" font-family="LucidaGrande-Bold,Lucida Grande" font-weight="bold" font-size="44.0" fill="#FEFFFF" transform="matrix(1.00, 0.00, -0.00, -1.00, 367.6, 551.5)">d</text><text xml:space="preserve" font-family="LucidaGrande-Bold,Lucida Grande" font-weight="bold" font-size="44.0" fill="#FEFFFF" transform="matrix(1.00, 0.00, -0.00, -1.00, 396.8, 551.5)"> </text><text xml:space="preserve" font-family="LucidaGrande-Bold,Lucida Grande" font-weight="bold" font-size="44.0" fill="#FEFFFF" transform="matrix(1.00, 0.00, -0.00, -1.00, 411.2, 551.5)">T</text><text xml:space="preserve" font-family="LucidaGrande-Bold,Lucida Grande" font-weight="bold" font-size="44.0" fill="#FEFFFF" transform="matrix(1.00, 0.00, -0.00, -1.00, 441.6, 551.5)">e</text><text xml:space="preserve" font-family="LucidaGrande-Bold,Lucida Grande" font-weight="bold" font-size="44.0" fill="#FEFFFF" transform="matrix(1.00, 0.00, -0.00, -1.00, 467.4, 551.5)">s</text><text xml:space="preserve" font-family="LucidaGrande-Bold,Lucida Grande" font-weight="bold" font-size="44.0" fill="#FEFFFF" transform="matrix(1.00, 0.00, -0.00, -1.00, 492.3, 551.5)">t</text><text xml:space="preserve" font-family="LucidaGrande-Bold,Lucida Grande" font-weight="bold" font-size="44.0" fill="#FEFFFF" transform="matrix(1.00, 0.00, -0.00, -1.00, 510.1, 551.5)">i</text><text xml:space="preserve" font-family="LucidaGrande-Bold,Lucida Grande" font-weight="bold" font-size="44.0" fill="#FEFFFF" transform="matrix(1.00, 0.00, -0.00, -1.00, 524.5, 551.5)">n</text><text xml:space="preserve" font-family="LucidaGrande-Bold,Lucida Grande" font-weight="bold" font-size="44.0" fill="#FEFFFF" transform="matrix(1.00, 0.00, -0.00, -1.00, 553.3, 551.5)">g</text><text xml:space="preserve" font-family="LucidaGrande-Bold,Lucida Grande" font-weight="bold" font-size="44.0" fill="#FEFFFF" transform="matrix(1.00, 0.00, -0.00, -1.00, 582.3, 551.5)"> </text><text xml:space="preserve" font-family="LucidaGrande-Bold,Lucida Grande" font-weight="bold" font-size="44.0" fill="#FEFFFF" transform="matrix(1.00, 0.00, -0.00, -1.00, 596.8, 551.5)">F</text><text xml:space="preserve" font-family="LucidaGrande-Bold,Lucida Grande" font-weight="bold" font-size="44.0" fill="#FEFFFF" transform="matrix(1.00, 0.00, -0.00, -1.00, 622.1, 551.5)">r</text><text xml:space="preserve" font-family="LucidaGrande-Bold,Lucida Grande" font-weight="bold" font-size="44.0" fill="#FEFFFF" transform="matrix(1.00, 0.00, -0.00, -1.00, 642.0, 551.5)">a</text><text xml:space="preserve" font-family="LucidaGrande-Bold,Lucida Grande" font-weight="bold" font-size="44.0" fill="#FEFFFF" transform="matrix(1.00, 0.00, -0.00, -1.00, 667.9, 551.5)">m</text><text xml:space="preserve" font-family="LucidaGrande-Bold,Lucida Grande" font-weight="bold" font-size="44.0" fill="#FEFFFF" transform="matrix(1.00, 0.00, -0.00, -1.00, 710.6, 551.5)">e</text><text xml:space="preserve" font-family="LucidaGrande-Bold,Lucida Grande" font-weight="bold" font-size="44.0" fill="#FEFFFF" transform="matrix(1.00, 0.00, -0.00, -1.00, 736.4, 551.5)">w</text><text xml:space="preserve" font-family="LucidaGrande-Bold,Lucida Grande" font-weight="bold" font-size="44.0" fill="#FEFFFF" transform="matrix(1.00, 0.00, -0.00, -1.00, 774.3, 551.5)">o</text><text xml:space="preserve" font-family="LucidaGrande-Bold,Lucida Grande" font-weight="bold" font-size="44.0" fill="#FEFFFF" transform="matrix(1.00, 0.00, -0.00, -1.00, 802.4, 551.5)">r</text><text xml:space="preserve" font-family="LucidaGrande-Bold,Lucida Grande" font-weight="bold" font-size="44.0" fill="#FEFFFF" transform="matrix(1.00, 0.00, -0.00, -1.00, 822.3, 551.5)">k</text><text xml:space="preserve" font-family="LucidaGrande-Bold,Lucida Grande" font-weight="bold" font-size="44.0" fill="#FEFFFF" transform="matrix(1.00, 0.00, -0.00, -1.00, 850.1, 551.5)"></text><image xlink:href="0196C84A9A7014BBEEB59F02DCF95F27.png" width="332.00" height="48.00" transform="matrix(1.00, 0.00, -0.00, -1.00, 216.0, 534.0)"></image><text xml:space="preserve" font-family="LucidaGrande-Bold,Lucida Grande" font-weight="bold" font-size="44.0" fill="#FEFFFF" transform="matrix(1.00, 0.00, -0.00, -1.00, 214.9, 499.5)">m</text><text xml:space="preserve" font-family="LucidaGrande-Bold,Lucida Grande" font-weight="bold" font-size="44.0" fill="#FEFFFF" transform="matrix(1.00, 0.00, -0.00, -1.00, 257.5, 499.5)">o</text><text xml:space="preserve" font-family="LucidaGrande-Bold,Lucida Grande" font-weight="bold" font-size="44.0" fill="#FEFFFF" transform="matrix(1.00, 0.00, -0.00, -1.00, 285.6, 499.5)">n</text><text xml:space="preserve" font-family="LucidaGrande-Bold,Lucida Grande" font-weight="bold" font-size="44.0" fill="#FEFFFF" transform="matrix(1.00, 0.00, -0.00, -1.00, 314.5, 499.5)">k</text><text xml:space="preserve" font-family="LucidaGrande-Bold,Lucida Grande" font-weight="bold" font-size="44.0" fill="#FEFFFF" transform="matrix(1.00, 0.00, -0.00, -1.00, 342.3, 499.5)">e</text><text xml:space="preserve" font-family="LucidaGrande-Bold,Lucida Grande" font-weight="bold" font-size="44.0" fill="#FEFFFF" transform="matrix(1.00, 0.00, -0.00, -1.00, 368.1, 499.5)">y</text><text xml:space="preserve" font-family="LucidaGrande-Bold,Lucida Grande" font-weight="bold" font-size="44.0" fill="#FEFFFF" transform="matrix(1.00, 0.00, -0.00, -1.00, 393.8, 499.5)">r</text><text xml:space="preserve" font-family="LucidaGrande-Bold,Lucida Grande" font-weight="bold" font-size="44.0" fill="#FEFFFF" transform="matrix(1.00, 0.00, -0.00, -1.00, 413.8, 499.5)">u</text><text xml:space="preserve" font-family="LucidaGrande-Bold,Lucida Grande" font-weight="bold" font-size="44.0" fill="#FEFFFF" transform="matrix(1.00, 0.00, -0.00, -1.00, 442.6, 499.5)">n</text><text xml:space="preserve" font-family="LucidaGrande-Bold,Lucida Grande" font-weight="bold" font-size="44.0" fill="#FEFFFF" transform="matrix(1.00, 0.00, -0.00, -1.00, 471.5, 499.5)">n</text><text xml:space="preserve" font-family="LucidaGrande-Bold,Lucida Grande" font-weight="bold" font-size="44.0" fill="#FEFFFF" transform="matrix(1.00, 0.00, -0.00, -1.00, 500.4, 499.5)">e</text><text xml:space="preserve" font-family="LucidaGrande-Bold,Lucida Grande" font-weight="bold" font-size="44.0" fill="#FEFFFF" transform="matrix(1.00, 0.00, -0.00, -1.00, 526.2, 499.5)">r</text><text xml:space="preserve" font-family="LucidaGrande-Bold,Lucida Grande" font-weight="bold" font-size="44.0" fill="#FEFFFF" transform="matrix(1.00, 0.00, -0.00, -1.00, 546.3, 499.5)"></text><image xlink:href="B8484E358FE2BCE596352B2BBC7434C8.png" width="180.00" height="48.00" transform="matrix(1.00, 0.00, -0.00, -1.00, 216.0, 482.0)"></image><text xml:space="preserve" font-family="LucidaGrande-Bold,Lucida Grande" font-weight="bold" font-size="44.0" fill="#FEFFFF" transform="matrix(1.00, 0.00, -0.00, -1.00, 214.9, 447.5)">m</text><text xml:space="preserve" font-family="LucidaGrande-Bold,Lucida Grande" font-weight="bold" font-size="44.0" fill="#FEFFFF" transform="matrix(1.00, 0.00, -0.00, -1.00, 257.5, 447.5)">o</text><text xml:space="preserve" font-family="LucidaGrande-Bold,Lucida Grande" font-weight="bold" font-size="44.0" fill="#FEFFFF" transform="matrix(1.00, 0.00, -0.00, -1.00, 285.6, 447.5)">n</text><text xml:space="preserve" font-family="LucidaGrande-Bold,Lucida Grande" font-weight="bold" font-size="44.0" fill="#FEFFFF" transform="matrix(1.00, 0.00, -0.00, -1.00, 314.5, 447.5)">k</text><text xml:space="preserve" font-family="LucidaGrande-Bold,Lucida Grande" font-weight="bold" font-size="44.0" fill="#FEFFFF" transform="matrix(1.00, 0.00, -0.00, -1.00, 342.3, 447.5)">e</text><text xml:space="preserve" font-family="LucidaGrande-Bold,Lucida Grande" font-weight="bold" font-size="44.0" fill="#FEFFFF" transform="matrix(1.00, 0.00, -0.00, -1.00, 368.1, 447.5)">y</text><text xml:space="preserve" font-family="LucidaGrande-Bold,Lucida Grande" font-weight="bold" font-size="44.0" fill="#FEFFFF" transform="matrix(1.00, 0.00, -0.00, -1.00, 393.8, 447.5)"></text><image xlink:href="E8C57315D71093DC2DA5D0FB4A8D6BAF.png" width="279.00" height="39.00" transform="matrix(1.00, 0.00, -0.00, -1.00, 216.0, 429.0)"></image><text xml:space="preserve" font-family="LucidaGrande-Bold,Lucida Grande" font-weight="bold" font-size="44.0" fill="#FEFFFF" transform="matrix(1.00, 0.00, -0.00, -1.00, 214.9, 395.5)">u</text><text xml:space="preserve" font-family="LucidaGrande-Bold,Lucida Grande" font-weight="bold" font-size="44.0" fill="#FEFFFF" transform="matrix(1.00, 0.00, -0.00, -1.00, 243.8, 395.5)">i</text><text xml:space="preserve" font-family="LucidaGrande-Bold,Lucida Grande" font-weight="bold" font-size="44.0" fill="#FEFFFF" transform="matrix(1.00, 0.00, -0.00, -1.00, 258.1, 395.5)">a</text><text xml:space="preserve" font-family="LucidaGrande-Bold,Lucida Grande" font-weight="bold" font-size="44.0" fill="#FEFFFF" transform="matrix(1.00, 0.00, -0.00, -1.00, 284.0, 395.5)">u</text><text xml:space="preserve" font-family="LucidaGrande-Bold,Lucida Grande" font-weight="bold" font-size="44.0" fill="#FEFFFF" transform="matrix(1.00, 0.00, -0.00, -1.00, 312.8, 395.5)">t</text><text xml:space="preserve" font-family="LucidaGrande-Bold,Lucida Grande" font-weight="bold" font-size="44.0" fill="#FEFFFF" transform="matrix(1.00, 0.00, -0.00, -1.00, 330.7, 395.5)">o</text><text xml:space="preserve" font-family="LucidaGrande-Bold,Lucida Grande" font-weight="bold" font-size="44.0" fill="#FEFFFF" transform="matrix(1.00, 0.00, -0.00, -1.00, 358.8, 395.5)">m</text><text xml:space="preserve" font-family="LucidaGrande-Bold,Lucida Grande" font-weight="bold" font-size="44.0" fill="#FEFFFF" transform="matrix(1.00, 0.00, -0.00, -1.00, 401.4, 395.5)">a</text><text xml:space="preserve" font-family="LucidaGrande-Bold,Lucida Grande" font-weight="bold" font-size="44.0" fill="#FEFFFF" transform="matrix(1.00, 0.00, -0.00, -1.00, 427.3, 395.5)">t</text><text xml:space="preserve" font-family="LucidaGrande-Bold,Lucida Grande" font-weight="bold" font-size="44.0" fill="#FEFFFF" transform="matrix(1.00, 0.00, -0.00, -1.00, 445.2, 395.5)">o</text><text xml:space="preserve" font-family="LucidaGrande-Bold,Lucida Grande" font-weight="bold" font-size="44.0" fill="#FEFFFF" transform="matrix(1.00, 0.00, -0.00, -1.00, 473.2, 395.5)">r</text><text xml:space="preserve" font-family="LucidaGrande-Bold,Lucida Grande" font-weight="bold" font-size="44.0" fill="#FEFFFF" transform="matrix(1.00, 0.00, -0.00, -1.00, 493.2, 395.5)"></text><image xlink:href="1E5DE4DD88A13875F7B28F374B29BDD4.png" width="204.00" height="46.00" transform="matrix(1.00, 0.00, -0.00, -1.00, 216.0, 376.0)"></image><text xml:space="preserve" font-family="LucidaGrande-Bold,Lucida Grande" font-weight="bold" font-size="44.0" fill="#FEFFFF" transform="matrix(1.00, 0.00, -0.00, -1.00, 214.9, 343.5)">E</text><text xml:space="preserve" font-family="LucidaGrande-Bold,Lucida Grande" font-weight="bold" font-size="44.0" fill="#FEFFFF" transform="matrix(1.00, 0.00, -0.00, -1.00, 241.3, 343.5)">s</text><text xml:space="preserve" font-family="LucidaGrande-Bold,Lucida Grande" font-weight="bold" font-size="44.0" fill="#FEFFFF" transform="matrix(1.00, 0.00, -0.00, -1.00, 266.2, 343.5)">p</text><text xml:space="preserve" font-family="LucidaGrande-Bold,Lucida Grande" font-weight="bold" font-size="44.0" fill="#FEFFFF" transform="matrix(1.00, 0.00, -0.00, -1.00, 295.3, 343.5)">r</text><text xml:space="preserve" font-family="LucidaGrande-Bold,Lucida Grande" font-weight="bold" font-size="44.0" fill="#FEFFFF" transform="matrix(1.00, 0.00, -0.00, -1.00, 315.3, 343.5)">e</text><text xml:space="preserve" font-family="LucidaGrande-Bold,Lucida Grande" font-weight="bold" font-size="44.0" fill="#FEFFFF" transform="matrix(1.00, 0.00, -0.00, -1.00, 341.1, 343.5)">s</text><text xml:space="preserve" font-family="LucidaGrande-Bold,Lucida Grande" font-weight="bold" font-size="44.0" fill="#FEFFFF" transform="matrix(1.00, 0.00, -0.00, -1.00, 366.0, 343.5)">s</text><text xml:space="preserve" font-family="LucidaGrande-Bold,Lucida Grande" font-weight="bold" font-size="44.0" fill="#FEFFFF" transform="matrix(1.00, 0.00, -0.00, -1.00, 390.9, 343.5)">o</text><text xml:space="preserve" font-family="LucidaGrande-Bold,Lucida Grande" font-weight="bold" font-size="44.0" fill="#FEFFFF" transform="matrix(1.00, 0.00, -0.00, -1.00, 419.0, 343.5)"></text><image xlink:href="../../06F45CE2-E81F-46A3-B704-3A41C3631EF3/assets/AD95605BB06A0E0816EDE018DF35A681.png" width="31.00" height="37.00" transform="matrix(1.00, 0.00, -0.00, -1.00, 216.0, 324.0)"></image><text xml:space="preserve" font-family="LucidaGrande-Bold,Lucida Grande" font-weight="bold" font-size="44.0" fill="#FEFFFF" transform="matrix(1.00, 0.00, -0.00, -1.00, 214.9, 291.5)">R</text><image xlink:href="7BA491432ADA89B3DFC22C7E32AB2140.png" width="188.00" height="40.00" transform="matrix(1.00, 0.00, -0.00, -1.00, 245.0, 326.0)"></image><text xml:space="preserve" font-family="LucidaGrande-Bold,Lucida Grande" font-weight="bold" font-size="44.0" fill="#FEFFFF" transform="matrix(1.00, 0.00, -0.00, -1.00, 245.2, 291.5)">o</text><text xml:space="preserve" font-family="LucidaGrande-Bold,Lucida Grande" font-weight="bold" font-size="44.0" fill="#FEFFFF" transform="matrix(1.00, 0.00, -0.00, -1.00, 273.3, 291.5)">b</text><text xml:space="preserve" font-family="LucidaGrande-Bold,Lucida Grande" font-weight="bold" font-size="44.0" fill="#FEFFFF" transform="matrix(1.00, 0.00, -0.00, -1.00, 302.5, 291.5)">o</text><text xml:space="preserve" font-family="LucidaGrande-Bold,Lucida Grande" font-weight="bold" font-size="44.0" fill="#FEFFFF" transform="matrix(1.00, 0.00, -0.00, -1.00, 330.6, 291.5)">t</text><text xml:space="preserve" font-family="LucidaGrande-Bold,Lucida Grande" font-weight="bold" font-size="44.0" fill="#FEFFFF" transform="matrix(1.00, 0.00, -0.00, -1.00, 348.4, 291.5)">i</text><text xml:space="preserve" font-family="LucidaGrande-Bold,Lucida Grande" font-weight="bold" font-size="44.0" fill="#FEFFFF" transform="matrix(1.00, 0.00, -0.00, -1.00, 362.8, 291.5)">u</text><text xml:space="preserve" font-family="LucidaGrande-Bold,Lucida Grande" font-weight="bold" font-size="44.0" fill="#FEFFFF" transform="matrix(1.00, 0.00, -0.00, -1.00, 391.6, 291.5)">m</text><text xml:space="preserve" font-family="LucidaGrande-Bold,Lucida Grande" font-weight="bold" font-size="44.0" fill="#FEFFFF" transform="matrix(1.00, 0.00, -0.00, -1.00, 434.3, 291.5)"></text><image xlink:href="87F086D9053335BF074BC088EAA99C86.png" width="254.00" height="40.00" transform="matrix(1.00, 0.00, -0.00, -1.00, 216.0, 274.0)"></image><text xml:space="preserve" font-family="LucidaGrande-Bold,Lucida Grande" font-weight="bold" font-size="44.0" fill="#FEFFFF" transform="matrix(1.00, 0.00, -0.00, -1.00, 214.9, 239.5)">R</text><text xml:space="preserve" font-family="LucidaGrande-Bold,Lucida Grande" font-weight="bold" font-size="44.0" fill="#FEFFFF" transform="matrix(1.00, 0.00, -0.00, -1.00, 245.2, 239.5)">o</text><text xml:space="preserve" font-family="LucidaGrande-Bold,Lucida Grande" font-weight="bold" font-size="44.0" fill="#FEFFFF" transform="matrix(1.00, 0.00, -0.00, -1.00, 273.3, 239.5)">b</text><text xml:space="preserve" font-family="LucidaGrande-Bold,Lucida Grande" font-weight="bold" font-size="44.0" fill="#FEFFFF" transform="matrix(1.00, 0.00, -0.00, -1.00, 302.5, 239.5)">o</text><text xml:space="preserve" font-family="LucidaGrande-Bold,Lucida Grande" font-weight="bold" font-size="44.0" fill="#FEFFFF" transform="matrix(1.00, 0.00, -0.00, -1.00, 330.6, 239.5)">l</text><text xml:space="preserve" font-family="LucidaGrande-Bold,Lucida Grande" font-weight="bold" font-size="44.0" fill="#FEFFFF" transform="matrix(1.00, 0.00, -0.00, -1.00, 344.9, 239.5)">e</text><text xml:space="preserve" font-family="LucidaGrande-Bold,Lucida Grande" font-weight="bold" font-size="44.0" fill="#FEFFFF" transform="matrix(1.00, 0.00, -0.00, -1.00, 370.7, 239.5)">c</text><text xml:space="preserve" font-family="LucidaGrande-Bold,Lucida Grande" font-weight="bold" font-size="44.0" fill="#FEFFFF" transform="matrix(1.00, 0.00, -0.00, -1.00, 394.1, 239.5)">t</text><text xml:space="preserve" font-family="LucidaGrande-Bold,Lucida Grande" font-weight="bold" font-size="44.0" fill="#FEFFFF" transform="matrix(1.00, 0.00, -0.00, -1.00, 411.9, 239.5)">r</text><text xml:space="preserve" font-family="LucidaGrande-Bold,Lucida Grande" font-weight="bold" font-size="44.0" fill="#FEFFFF" transform="matrix(1.00, 0.00, -0.00, -1.00, 431.9, 239.5)">i</text><text xml:space="preserve" font-family="LucidaGrande-Bold,Lucida Grande" font-weight="bold" font-size="44.0" fill="#FEFFFF" transform="matrix(1.00, 0.00, -0.00, -1.00, 446.2, 239.5)">c</text><image xlink:href="../../06F45CE2-E81F-46A3-B704-3A41C3631EF3/assets/0517D8C07E28F7F947C59C0D97B41FA6.png" width="48.00" height="19.00" transform="matrix(1.00, 0.00, -0.00, -1.00, 582.0, 291.0)"></image><text xml:space="preserve" font-family="LucidaGrande,Lucida Grande" font-size="15.0" fill="#C8C8C8" transform="matrix(1.00, 0.00, -0.00, -1.00, 583.8, 279.3)">S</text><text xml:space="preserve" font-family="LucidaGrande,Lucida Grande" font-size="15.0" fill="#C8C8C8" transform="matrix(1.00, 0.00, -0.00, -1.00, 591.9, 279.3)">p</text><text xml:space="preserve" font-family="LucidaGrande,Lucida Grande" font-size="15.0" fill="#C8C8C8" transform="matrix(1.00, 0.00, -0.00, -1.00, 601.3, 279.3)">o</text><text xml:space="preserve" font-family="LucidaGrande,Lucida Grande" font-size="15.0" fill="#C8C8C8" transform="matrix(1.00, 0.00, -0.00, -1.00, 610.6, 279.3)">o</text><text xml:space="preserve" font-family="LucidaGrande,Lucida Grande" font-size="15.0" fill="#C8C8C8" transform="matrix(1.00, 0.00, -0.00, -1.00, 619.8, 279.3)">n</text><text xml:space="preserve" font-family="LucidaGrande,Lucida Grande" font-size="15.0" fill="#C8C8C8" transform="matrix(1.00, 0.00, -0.00, -1.00, 629.1, 279.3)"></text><image xlink:href="../../06F45CE2-E81F-46A3-B704-3A41C3631EF3/assets/81EE7C234A87019F2250643EB6212AB9.png" width="60.00" height="16.00" transform="matrix(1.00, 0.00, -0.00, -1.00, 583.0, 273.0)"></image><text xml:space="preserve" font-family="LucidaGrande,Lucida Grande" font-size="15.0" fill="#C8C8C8" transform="matrix(1.00, 0.00, -0.00, -1.00, 583.8, 261.3)">M</text><text xml:space="preserve" font-family="LucidaGrande,Lucida Grande" font-size="15.0" fill="#C8C8C8" transform="matrix(1.00, 0.00, -0.00, -1.00, 596.8, 261.3)">o</text><text xml:space="preserve" font-family="LucidaGrande,Lucida Grande" font-size="15.0" fill="#C8C8C8" transform="matrix(1.00, 0.00, -0.00, -1.00, 606.0, 261.3)">c</text><text xml:space="preserve" font-family="LucidaGrande,Lucida Grande" font-size="15.0" fill="#C8C8C8" transform="matrix(1.00, 0.00, -0.00, -1.00, 613.7, 261.3)">k</text><text xml:space="preserve" font-family="LucidaGrande,Lucida Grande" font-size="15.0" fill="#C8C8C8" transform="matrix(1.00, 0.00, -0.00, -1.00, 622.4, 261.3)">i</text><text xml:space="preserve" font-family="LucidaGrande,Lucida Grande" font-size="15.0" fill="#C8C8C8" transform="matrix(1.00, 0.00, -0.00, -1.00, 626.8, 261.3)">t</text><text xml:space="preserve" font-family="LucidaGrande,Lucida Grande" font-size="15.0" fill="#C8C8C8" transform="matrix(1.00, 0.00, -0.00, -1.00, 632.4, 261.3)">o</text><text xml:space="preserve" font-family="LucidaGrande,Lucida Grande" font-size="15.0" fill="#C8C8C8" transform="matrix(1.00, 0.00, -0.00, -1.00, 641.6, 261.3)"></text><image xlink:href="A3618F7463C69A7F7D5864D9F68D1C8F.png" width="99.00" height="16.00" transform="matrix(1.00, 0.00, -0.00, -1.00, 583.0, 255.0)"></image><text xml:space="preserve" font-family="LucidaGrande,Lucida Grande" font-size="15.0" fill="#C8C8C8" transform="matrix(1.00, 0.00, -0.00, -1.00, 583.8, 243.3)">F</text><text xml:space="preserve" font-family="LucidaGrande,Lucida Grande" font-size="15.0" fill="#C8C8C8" transform="matrix(1.00, 0.00, -0.00, -1.00, 591.9, 243.3)">E</text><text xml:space="preserve" font-family="LucidaGrande,Lucida Grande" font-size="15.0" fill="#C8C8C8" transform="matrix(1.00, 0.00, -0.00, -1.00, 600.0, 243.3)">S</text><text xml:space="preserve" font-family="LucidaGrande,Lucida Grande" font-size="15.0" fill="#C8C8C8" transform="matrix(1.00, 0.00, -0.00, -1.00, 608.1, 243.3)">T</text><text xml:space="preserve" font-family="LucidaGrande,Lucida Grande" font-size="15.0" fill="#C8C8C8" transform="matrix(1.00, 0.00, -0.00, -1.00, 617.6, 243.3)"> </text><text xml:space="preserve" font-family="LucidaGrande,Lucida Grande" font-size="15.0" fill="#C8C8C8" transform="matrix(1.00, 0.00, -0.00, -1.00, 622.3, 243.3)">A</text><text xml:space="preserve" font-family="LucidaGrande,Lucida Grande" font-size="15.0" fill="#C8C8C8" transform="matrix(1.00, 0.00, -0.00, -1.00, 632.7, 243.3)">n</text><text xml:space="preserve" font-family="LucidaGrande,Lucida Grande" font-size="15.0" fill="#C8C8C8" transform="matrix(1.00, 0.00, -0.00, -1.00, 642.0, 243.3)">d</text><text xml:space="preserve" font-family="LucidaGrande,Lucida Grande" font-size="15.0" fill="#C8C8C8" transform="matrix(1.00, 0.00, -0.00, -1.00, 651.4, 243.3)">r</text><text xml:space="preserve" font-family="LucidaGrande,Lucida Grande" font-size="15.0" fill="#C8C8C8" transform="matrix(1.00, 0.00, -0.00, -1.00, 657.6, 243.3)">o</text><text xml:space="preserve" font-family="LucidaGrande,Lucida Grande" font-size="15.0" fill="#C8C8C8" transform="matrix(1.00, 0.00, -0.00, -1.00, 666.8, 243.3)">i</text><text xml:space="preserve" font-family="LucidaGrande,Lucida Grande" font-size="15.0" fill="#C8C8C8" transform="matrix(1.00, 0.00, -0.00, -1.00, 671.1, 243.3)">d</text><text xml:space="preserve" font-family="LucidaGrande,Lucida Grande" font-size="15.0" fill="#C8C8C8" transform="matrix(1.00, 0.00, -0.00, -1.00, 680.6, 243.3)"></text><image xlink:href="14592DC67FA3A0FC4FE9DE6CA5FCD16A.png" width="109.00" height="16.00" transform="matrix(1.00, 0.00, -0.00, -1.00, 582.0, 237.0)"></image><text xml:space="preserve" font-family="LucidaGrande,Lucida Grande" font-size="15.0" fill="#C8C8C8" transform="matrix(1.00, 0.00, -0.00, -1.00, 583.8, 225.3)">a</text><text xml:space="preserve" font-family="LucidaGrande,Lucida Grande" font-size="15.0" fill="#C8C8C8" transform="matrix(1.00, 0.00, -0.00, -1.00, 592.1, 225.3)">n</text><text xml:space="preserve" font-family="LucidaGrande,Lucida Grande" font-size="15.0" fill="#C8C8C8" transform="matrix(1.00, 0.00, -0.00, -1.00, 601.4, 225.3)">d</text><text xml:space="preserve" font-family="LucidaGrande,Lucida Grande" font-size="15.0" fill="#C8C8C8" transform="matrix(1.00, 0.00, -0.00, -1.00, 610.9, 225.3)">r</text><text xml:space="preserve" font-family="LucidaGrande,Lucida Grande" font-size="15.0" fill="#C8C8C8" transform="matrix(1.00, 0.00, -0.00, -1.00, 617.0, 225.3)">o</text><text xml:space="preserve" font-family="LucidaGrande,Lucida Grande" font-size="15.0" fill="#C8C8C8" transform="matrix(1.00, 0.00, -0.00, -1.00, 626.2, 225.3)">i</text><text xml:space="preserve" font-family="LucidaGrande,Lucida Grande" font-size="15.0" fill="#C8C8C8" transform="matrix(1.00, 0.00, -0.00, -1.00, 630.5, 225.3)">d</text><text xml:space="preserve" font-family="LucidaGrande,Lucida Grande" font-size="15.0" fill="#C8C8C8" transform="matrix(1.00, 0.00, -0.00, -1.00, 640.0, 225.3)">-</text><text xml:space="preserve" font-family="LucidaGrande,Lucida Grande" font-size="15.0" fill="#C8C8C8" transform="matrix(1.00, 0.00, -0.00, -1.00, 648.7, 225.3)">m</text><text xml:space="preserve" font-family="LucidaGrande,Lucida Grande" font-size="15.0" fill="#C8C8C8" transform="matrix(1.00, 0.00, -0.00, -1.00, 662.7, 225.3)">o</text><text xml:space="preserve" font-family="LucidaGrande,Lucida Grande" font-size="15.0" fill="#C8C8C8" transform="matrix(1.00, 0.00, -0.00, -1.00, 671.9, 225.3)">c</text><text xml:space="preserve" font-family="LucidaGrande,Lucida Grande" font-size="15.0" fill="#C8C8C8" transform="matrix(1.00, 0.00, -0.00, -1.00, 679.6, 225.3)">k</text><image xlink:href="../../06F45CE2-E81F-46A3-B704-3A41C3631EF3/assets/77677029ED72A0CF891AEE0A83BB5305.png" width="69.00" height="17.00" transform="matrix(1.00, 0.00, -0.00, -1.00, 695.0, 444.0)"></image><text xml:space="preserve" font-family="LucidaGrande,Lucida Grande" font-size="15.0" fill="#C8C8C8" transform="matrix(1.00, 0.00, -0.00, -1.00, 696.7, 432.2)">S</text><text xml:space="preserve" font-family="LucidaGrande,Lucida Grande" font-size="15.0" fill="#C8C8C8" transform="matrix(1.00, 0.00, -0.00, -1.00, 704.8, 432.2)">e</text><text xml:space="preserve" font-family="LucidaGrande,Lucida Grande" font-size="15.0" fill="#C8C8C8" transform="matrix(1.00, 0.00, -0.00, -1.00, 713.1, 432.2)">l</text><text xml:space="preserve" font-family="LucidaGrande,Lucida Grande" font-size="15.0" fill="#C8C8C8" transform="matrix(1.00, 0.00, -0.00, -1.00, 717.5, 432.2)">e</text><text xml:space="preserve" font-family="LucidaGrande,Lucida Grande" font-size="15.0" fill="#C8C8C8" transform="matrix(1.00, 0.00, -0.00, -1.00, 725.8, 432.2)">n</text><text xml:space="preserve" font-family="LucidaGrande,Lucida Grande" font-size="15.0" fill="#C8C8C8" transform="matrix(1.00, 0.00, -0.00, -1.00, 735.1, 432.2)">i</text><text xml:space="preserve" font-family="LucidaGrande,Lucida Grande" font-size="15.0" fill="#C8C8C8" transform="matrix(1.00, 0.00, -0.00, -1.00, 739.5, 432.2)">u</text><text xml:space="preserve" font-family="LucidaGrande,Lucida Grande" font-size="15.0" fill="#C8C8C8" transform="matrix(1.00, 0.00, -0.00, -1.00, 748.8, 432.2)">m</text><text xml:space="preserve" font-family="LucidaGrande,Lucida Grande" font-size="15.0" fill="#C8C8C8" transform="matrix(1.00, 0.00, -0.00, -1.00, 762.8, 432.2)"></text><image xlink:href="../../06F45CE2-E81F-46A3-B704-3A41C3631EF3/assets/908F6085324CCF894857E4C28C6D126D.png" width="92.00" height="16.00" transform="matrix(1.00, 0.00, -0.00, -1.00, 696.0, 422.0)"></image><text xml:space="preserve" font-family="LucidaGrande,Lucida Grande" font-size="15.0" fill="#C8C8C8" transform="matrix(1.00, 0.00, -0.00, -1.00, 696.7, 410.6)">N</text><text xml:space="preserve" font-family="LucidaGrande,Lucida Grande" font-size="15.0" fill="#C8C8C8" transform="matrix(1.00, 0.00, -0.00, -1.00, 707.8, 410.6)">a</text><text xml:space="preserve" font-family="LucidaGrande,Lucida Grande" font-size="15.0" fill="#C8C8C8" transform="matrix(1.00, 0.00, -0.00, -1.00, 716.1, 410.6)">t</text><text xml:space="preserve" font-family="LucidaGrande,Lucida Grande" font-size="15.0" fill="#C8C8C8" transform="matrix(1.00, 0.00, -0.00, -1.00, 721.7, 410.6)">i</text><text xml:space="preserve" font-family="LucidaGrande,Lucida Grande" font-size="15.0" fill="#C8C8C8" transform="matrix(1.00, 0.00, -0.00, -1.00, 726.0, 410.6)">v</text><text xml:space="preserve" font-family="LucidaGrande,Lucida Grande" font-size="15.0" fill="#C8C8C8" transform="matrix(1.00, 0.00, -0.00, -1.00, 733.8, 410.6)">e</text><text xml:space="preserve" font-family="LucidaGrande,Lucida Grande" font-size="15.0" fill="#C8C8C8" transform="matrix(1.00, 0.00, -0.00, -1.00, 742.1, 410.6)">D</text><text xml:space="preserve" font-family="LucidaGrande,Lucida Grande" font-size="15.0" fill="#C8C8C8" transform="matrix(1.00, 0.00, -0.00, -1.00, 753.4, 410.6)">r</text><text xml:space="preserve" font-family="LucidaGrande,Lucida Grande" font-size="15.0" fill="#C8C8C8" transform="matrix(1.00, 0.00, -0.00, -1.00, 759.5, 410.6)">i</text><text xml:space="preserve" font-family="LucidaGrande,Lucida Grande" font-size="15.0" fill="#C8C8C8" transform="matrix(1.00, 0.00, -0.00, -1.00, 763.8, 410.6)">v</text><text xml:space="preserve" font-family="LucidaGrande,Lucida Grande" font-size="15.0" fill="#C8C8C8" transform="matrix(1.00, 0.00, -0.00, -1.00, 771.6, 410.6)">e</text><text xml:space="preserve" font-family="LucidaGrande,Lucida Grande" font-size="15.0" fill="#C8C8C8" transform="matrix(1.00, 0.00, -0.00, -1.00, 779.9, 410.6)">r</text><text xml:space="preserve" font-family="LucidaGrande,Lucida Grande" font-size="15.0" fill="#C8C8C8" transform="matrix(1.00, 0.00, -0.00, -1.00, 786.1, 410.6)"></text><image xlink:href="../../06F45CE2-E81F-46A3-B704-3A41C3631EF3/assets/82597C7C310B115ABF48F4802C0DA737.png" width="61.00" height="18.00" transform="matrix(1.00, 0.00, -0.00, -1.00, 694.0, 400.0)"></image><text xml:space="preserve" font-family="LucidaGrande,Lucida Grande" font-size="15.0" fill="#C8C8C8" transform="matrix(1.00, 0.00, -0.00, -1.00, 696.7, 389.0)">A</text><text xml:space="preserve" font-family="LucidaGrande,Lucida Grande" font-size="15.0" fill="#C8C8C8" transform="matrix(1.00, 0.00, -0.00, -1.00, 707.0, 389.0)">p</text><text xml:space="preserve" font-family="LucidaGrande,Lucida Grande" font-size="15.0" fill="#C8C8C8" transform="matrix(1.00, 0.00, -0.00, -1.00, 716.5, 389.0)">p</text><text xml:space="preserve" font-family="LucidaGrande,Lucida Grande" font-size="15.0" fill="#C8C8C8" transform="matrix(1.00, 0.00, -0.00, -1.00, 725.9, 389.0)">i</text><text xml:space="preserve" font-family="LucidaGrande,Lucida Grande" font-size="15.0" fill="#C8C8C8" transform="matrix(1.00, 0.00, -0.00, -1.00, 730.3, 389.0)">u</text><text xml:space="preserve" font-family="LucidaGrande,Lucida Grande" font-size="15.0" fill="#C8C8C8" transform="matrix(1.00, 0.00, -0.00, -1.00, 739.6, 389.0)">m</text><text xml:space="preserve" font-family="LucidaGrande,Lucida Grande" font-size="15.0" fill="#C8C8C8" transform="matrix(1.00, 0.00, -0.00, -1.00, 753.6, 389.0)"></text><image xlink:href="../../06F45CE2-E81F-46A3-B704-3A41C3631EF3/assets/440B76641D4DD4FE6E4CDC55F8EE5BA7.png" width="90.00" height="19.00" transform="matrix(1.00, 0.00, -0.00, -1.00, 696.0, 379.0)"></image><text xml:space="preserve" font-family="LucidaGrande,Lucida Grande" font-size="15.0" fill="#C8C8C8" transform="matrix(1.00, 0.00, -0.00, -1.00, 696.7, 367.4)">M</text><text xml:space="preserve" font-family="LucidaGrande,Lucida Grande" font-size="15.0" fill="#C8C8C8" transform="matrix(1.00, 0.00, -0.00, -1.00, 709.6, 367.4)">o</text><text xml:space="preserve" font-family="LucidaGrande,Lucida Grande" font-size="15.0" fill="#C8C8C8" transform="matrix(1.00, 0.00, -0.00, -1.00, 718.8, 367.4)">n</text><text xml:space="preserve" font-family="LucidaGrande,Lucida Grande" font-size="15.0" fill="#C8C8C8" transform="matrix(1.00, 0.00, -0.00, -1.00, 728.1, 367.4)">k</text><text xml:space="preserve" font-family="LucidaGrande,Lucida Grande" font-size="15.0" fill="#C8C8C8" transform="matrix(1.00, 0.00, -0.00, -1.00, 736.9, 367.4)">e</text><text xml:space="preserve" font-family="LucidaGrande,Lucida Grande" font-size="15.0" fill="#C8C8C8" transform="matrix(1.00, 0.00, -0.00, -1.00, 745.3, 367.4)">y</text><text xml:space="preserve" font-family="LucidaGrande,Lucida Grande" font-size="15.0" fill="#C8C8C8" transform="matrix(1.00, 0.00, -0.00, -1.00, 753.1, 367.4)">T</text><text xml:space="preserve" font-family="LucidaGrande,Lucida Grande" font-size="15.0" fill="#C8C8C8" transform="matrix(1.00, 0.00, -0.00, -1.00, 762.6, 367.4)">a</text><text xml:space="preserve" font-family="LucidaGrande,Lucida Grande" font-size="15.0" fill="#C8C8C8" transform="matrix(1.00, 0.00, -0.00, -1.00, 770.9, 367.4)">l</text><text xml:space="preserve" font-family="LucidaGrande,Lucida Grande" font-size="15.0" fill="#C8C8C8" transform="matrix(1.00, 0.00, -0.00, -1.00, 775.2, 367.4)">k</text><text xml:space="preserve" font-family="LucidaGrande,Lucida Grande" font-size="15.0" fill="#C8C8C8" transform="matrix(1.00, 0.00, -0.00, -1.00, 784.0, 367.4)"></text><image xlink:href="../../06F45CE2-E81F-46A3-B704-3A41C3631EF3/assets/FBC0D255B201BDF91EF1A1DF7432F98A.png" width="80.00" height="17.00" transform="matrix(1.00, 0.00, -0.00, -1.00, 695.0, 358.0)"></image><text xml:space="preserve" font-family="LucidaGrande,Lucida Grande" font-size="15.0" fill="#C8C8C8" transform="matrix(1.00, 0.00, -0.00, -1.00, 696.7, 345.8)">S</text><text xml:space="preserve" font-family="LucidaGrande,Lucida Grande" font-size="15.0" fill="#C8C8C8" transform="matrix(1.00, 0.00, -0.00, -1.00, 704.8, 345.8)">e</text><text xml:space="preserve" font-family="LucidaGrande,Lucida Grande" font-size="15.0" fill="#C8C8C8" transform="matrix(1.00, 0.00, -0.00, -1.00, 713.1, 345.8)">l</text><text xml:space="preserve" font-family="LucidaGrande,Lucida Grande" font-size="15.0" fill="#C8C8C8" transform="matrix(1.00, 0.00, -0.00, -1.00, 717.5, 345.8)">e</text><text xml:space="preserve" font-family="LucidaGrande,Lucida Grande" font-size="15.0" fill="#C8C8C8" transform="matrix(1.00, 0.00, -0.00, -1.00, 725.8, 345.8)">n</text><text xml:space="preserve" font-family="LucidaGrande,Lucida Grande" font-size="15.0" fill="#C8C8C8" transform="matrix(1.00, 0.00, -0.00, -1.00, 735.1, 345.8)">d</text><text xml:space="preserve" font-family="LucidaGrande,Lucida Grande" font-size="15.0" fill="#C8C8C8" transform="matrix(1.00, 0.00, -0.00, -1.00, 744.6, 345.8)">r</text><text xml:space="preserve" font-family="LucidaGrande,Lucida Grande" font-size="15.0" fill="#C8C8C8" transform="matrix(1.00, 0.00, -0.00, -1.00, 750.7, 345.8)">o</text><text xml:space="preserve" font-family="LucidaGrande,Lucida Grande" font-size="15.0" fill="#C8C8C8" transform="matrix(1.00, 0.00, -0.00, -1.00, 760.0, 345.8)">i</text><text xml:space="preserve" font-family="LucidaGrande,Lucida Grande" font-size="15.0" fill="#C8C8C8" transform="matrix(1.00, 0.00, -0.00, -1.00, 764.3, 345.8)">d</text><text xml:space="preserve" font-family="LucidaGrande,Lucida Grande" font-size="15.0" fill="#C8C8C8" transform="matrix(1.00, 0.00, -0.00, -1.00, 773.8, 345.8)"></text><image xlink:href="../../06F45CE2-E81F-46A3-B704-3A41C3631EF3/assets/4F0BA87068D25A7BB225698D0AAF9C53.png" width="63.00" height="17.00" transform="matrix(1.00, 0.00, -0.00, -1.00, 695.0, 336.0)"></image><text xml:space="preserve" font-family="LucidaGrande,Lucida Grande" font-size="15.0" fill="#C8C8C8" transform="matrix(1.00, 0.00, -0.00, -1.00, 696.7, 324.2)">S</text><text xml:space="preserve" font-family="LucidaGrande,Lucida Grande" font-size="15.0" fill="#C8C8C8" transform="matrix(1.00, 0.00, -0.00, -1.00, 704.8, 324.2)">c</text><text xml:space="preserve" font-family="LucidaGrande,Lucida Grande" font-size="15.0" fill="#C8C8C8" transform="matrix(1.00, 0.00, -0.00, -1.00, 712.5, 324.2)">i</text><text xml:space="preserve" font-family="LucidaGrande,Lucida Grande" font-size="15.0" fill="#C8C8C8" transform="matrix(1.00, 0.00, -0.00, -1.00, 716.8, 324.2)">r</text><text xml:space="preserve" font-family="LucidaGrande,Lucida Grande" font-size="15.0" fill="#C8C8C8" transform="matrix(1.00, 0.00, -0.00, -1.00, 722.9, 324.2)">o</text><text xml:space="preserve" font-family="LucidaGrande,Lucida Grande" font-size="15.0" fill="#C8C8C8" transform="matrix(1.00, 0.00, -0.00, -1.00, 732.2, 324.2)">c</text><text xml:space="preserve" font-family="LucidaGrande,Lucida Grande" font-size="15.0" fill="#C8C8C8" transform="matrix(1.00, 0.00, -0.00, -1.00, 739.9, 324.2)">c</text><text xml:space="preserve" font-family="LucidaGrande,Lucida Grande" font-size="15.0" fill="#C8C8C8" transform="matrix(1.00, 0.00, -0.00, -1.00, 747.6, 324.2)">o</text><text xml:space="preserve" font-family="LucidaGrande,Lucida Grande" font-size="15.0" fill="#C8C8C8" transform="matrix(1.00, 0.00, -0.00, -1.00, 756.7, 324.2)"></text><image xlink:href="1CEC0D1C2B503E8CF179EEEE1232B5DE.png" width="58.00" height="16.00" transform="matrix(1.00, 0.00, -0.00, -1.00, 696.0, 314.0)"></image><text xml:space="preserve" font-family="LucidaGrande,Lucida Grande" font-size="15.0" fill="#C8C8C8" transform="matrix(1.00, 0.00, -0.00, -1.00, 696.7, 302.6)">B</text><text xml:space="preserve" font-family="LucidaGrande,Lucida Grande" font-size="15.0" fill="#C8C8C8" transform="matrix(1.00, 0.00, -0.00, -1.00, 705.3, 302.6)">o</text><text xml:space="preserve" font-family="LucidaGrande,Lucida Grande" font-size="15.0" fill="#C8C8C8" transform="matrix(1.00, 0.00, -0.00, -1.00, 714.5, 302.6)">t</text><text xml:space="preserve" font-family="LucidaGrande,Lucida Grande" font-size="15.0" fill="#C8C8C8" transform="matrix(1.00, 0.00, -0.00, -1.00, 720.1, 302.6)">-</text><text xml:space="preserve" font-family="LucidaGrande,Lucida Grande" font-size="15.0" fill="#C8C8C8" transform="matrix(1.00, 0.00, -0.00, -1.00, 728.8, 302.6)">B</text><text xml:space="preserve" font-family="LucidaGrande,Lucida Grande" font-size="15.0" fill="#C8C8C8" transform="matrix(1.00, 0.00, -0.00, -1.00, 737.5, 302.6)">o</text><text xml:space="preserve" font-family="LucidaGrande,Lucida Grande" font-size="15.0" fill="#C8C8C8" transform="matrix(1.00, 0.00, -0.00, -1.00, 746.7, 302.6)">t</text><text xml:space="preserve" font-family="LucidaGrande,Lucida Grande" font-size="15.0" fill="#C8C8C8" transform="matrix(1.00, 0.00, -0.00, -1.00, 752.3, 302.6)"></text><image xlink:href="../../06F45CE2-E81F-46A3-B704-3A41C3631EF3/assets/2E90052BCB71CBCEADFF7DE25A71C228.png" width="92.00" height="17.00" transform="matrix(1.00, 0.00, -0.00, -1.00, 695.0, 293.0)"></image><text xml:space="preserve" font-family="LucidaGrande,Lucida Grande" font-size="15.0" fill="#C8C8C8" transform="matrix(1.00, 0.00, -0.00, -1.00, 696.7, 281.0)">S</text><text xml:space="preserve" font-family="LucidaGrande,Lucida Grande" font-size="15.0" fill="#C8C8C8" transform="matrix(1.00, 0.00, -0.00, -1.00, 704.8, 281.0)">w</text><text xml:space="preserve" font-family="LucidaGrande,Lucida Grande" font-size="15.0" fill="#C8C8C8" transform="matrix(1.00, 0.00, -0.00, -1.00, 716.3, 281.0)">i</text><text xml:space="preserve" font-family="LucidaGrande,Lucida Grande" font-size="15.0" fill="#C8C8C8" transform="matrix(1.00, 0.00, -0.00, -1.00, 720.6, 281.0)">t</text><text xml:space="preserve" font-family="LucidaGrande,Lucida Grande" font-size="15.0" fill="#C8C8C8" transform="matrix(1.00, 0.00, -0.00, -1.00, 726.3, 281.0)">c</text><text xml:space="preserve" font-family="LucidaGrande,Lucida Grande" font-size="15.0" fill="#C8C8C8" transform="matrix(1.00, 0.00, -0.00, -1.00, 733.9, 281.0)">h</text><text xml:space="preserve" font-family="LucidaGrande,Lucida Grande" font-size="15.0" fill="#C8C8C8" transform="matrix(1.00, 0.00, -0.00, -1.00, 743.2, 281.0)">b</text><text xml:space="preserve" font-family="LucidaGrande,Lucida Grande" font-size="15.0" fill="#C8C8C8" transform="matrix(1.00, 0.00, -0.00, -1.00, 752.7, 281.0)">o</text><text xml:space="preserve" font-family="LucidaGrande,Lucida Grande" font-size="15.0" fill="#C8C8C8" transform="matrix(1.00, 0.00, -0.00, -1.00, 761.9, 281.0)">a</text><text xml:space="preserve" font-family="LucidaGrande,Lucida Grande" font-size="15.0" fill="#C8C8C8" transform="matrix(1.00, 0.00, -0.00, -1.00, 770.2, 281.0)">r</text><text xml:space="preserve" font-family="LucidaGrande,Lucida Grande" font-size="15.0" fill="#C8C8C8" transform="matrix(1.00, 0.00, -0.00, -1.00, 776.3, 281.0)">d</text><text xml:space="preserve" font-family="LucidaGrande,Lucida Grande" font-size="15.0" fill="#C8C8C8" transform="matrix(1.00, 0.00, -0.00, -1.00, 785.8, 281.0)"></text><image xlink:href="../../06F45CE2-E81F-46A3-B704-3A41C3631EF3/assets/6DEF739A5C82DDF1DD64F0A14BE5FA80.png" width="69.00" height="16.00" transform="matrix(1.00, 0.00, -0.00, -1.00, 695.0, 271.0)"></image><text xml:space="preserve" font-family="LucidaGrande,Lucida Grande" font-size="15.0" fill="#C8C8C8" transform="matrix(1.00, 0.00, -0.00, -1.00, 696.7, 259.4)">C</text><text xml:space="preserve" font-family="LucidaGrande,Lucida Grande" font-size="15.0" fill="#C8C8C8" transform="matrix(1.00, 0.00, -0.00, -1.00, 707.1, 259.4)">a</text><text xml:space="preserve" font-family="LucidaGrande,Lucida Grande" font-size="15.0" fill="#C8C8C8" transform="matrix(1.00, 0.00, -0.00, -1.00, 715.3, 259.4)">l</text><text xml:space="preserve" font-family="LucidaGrande,Lucida Grande" font-size="15.0" fill="#C8C8C8" transform="matrix(1.00, 0.00, -0.00, -1.00, 719.7, 259.4)">a</text><text xml:space="preserve" font-family="LucidaGrande,Lucida Grande" font-size="15.0" fill="#C8C8C8" transform="matrix(1.00, 0.00, -0.00, -1.00, 728.0, 259.4)">b</text><text xml:space="preserve" font-family="LucidaGrande,Lucida Grande" font-size="15.0" fill="#C8C8C8" transform="matrix(1.00, 0.00, -0.00, -1.00, 737.4, 259.4)">a</text><text xml:space="preserve" font-family="LucidaGrande,Lucida Grande" font-size="15.0" fill="#C8C8C8" transform="matrix(1.00, 0.00, -0.00, -1.00, 745.7, 259.4)">s</text><text xml:space="preserve" font-family="LucidaGrande,Lucida Grande" font-size="15.0" fill="#C8C8C8" transform="matrix(1.00, 0.00, -0.00, -1.00, 753.3, 259.4)">h</text><text xml:space="preserve" font-family="LucidaGrande,Lucida Grande" font-size="15.0" fill="#C8C8C8" transform="matrix(1.00, 0.00, -0.00, -1.00, 762.7, 259.4)"></text><image xlink:href="../../06F45CE2-E81F-46A3-B704-3A41C3631EF3/assets/7EA533D771B1D812771219D7FDACB5DD.png" width="75.00" height="17.00" transform="matrix(1.00, 0.00, -0.00, -1.00, 696.0, 250.0)"></image><text xml:space="preserve" font-family="LucidaGrande,Lucida Grande" font-size="15.0" fill="#C8C8C8" transform="matrix(1.00, 0.00, -0.00, -1.00, 696.7, 237.8)">B</text><text xml:space="preserve" font-family="LucidaGrande,Lucida Grande" font-size="15.0" fill="#C8C8C8" transform="matrix(1.00, 0.00, -0.00, -1.00, 705.3, 237.8)">o</text><text xml:space="preserve" font-family="LucidaGrande,Lucida Grande" font-size="15.0" fill="#C8C8C8" transform="matrix(1.00, 0.00, -0.00, -1.00, 714.5, 237.8)">u</text><text xml:space="preserve" font-family="LucidaGrande,Lucida Grande" font-size="15.0" fill="#C8C8C8" transform="matrix(1.00, 0.00, -0.00, -1.00, 723.8, 237.8)">n</text><text xml:space="preserve" font-family="LucidaGrande,Lucida Grande" font-size="15.0" fill="#C8C8C8" transform="matrix(1.00, 0.00, -0.00, -1.00, 733.1, 237.8)">d</text><text xml:space="preserve" font-family="LucidaGrande,Lucida Grande" font-size="15.0" fill="#C8C8C8" transform="matrix(1.00, 0.00, -0.00, -1.00, 742.6, 237.8)">B</text><text xml:space="preserve" font-family="LucidaGrande,Lucida Grande" font-size="15.0" fill="#C8C8C8" transform="matrix(1.00, 0.00, -0.00, -1.00, 751.2, 237.8)">o</text><text xml:space="preserve" font-family="LucidaGrande,Lucida Grande" font-size="15.0" fill="#C8C8C8" transform="matrix(1.00, 0.00, -0.00, -1.00, 760.4, 237.8)">x</text><text xml:space="preserve" font-family="LucidaGrande,Lucida Grande" font-size="15.0" fill="#C8C8C8" transform="matrix(1.00, 0.00, -0.00, -1.00, 769.6, 237.8)"></text><image xlink:href="../../06F45CE2-E81F-46A3-B704-3A41C3631EF3/assets/44B02CDD65B1A2B59748284B986643D7.png" width="83.00" height="19.00" transform="matrix(1.00, 0.00, -0.00, -1.00, 696.0, 228.0)"></image><text xml:space="preserve" font-family="LucidaGrande,Lucida Grande" font-size="15.0" fill="#C8C8C8" transform="matrix(1.00, 0.00, -0.00, -1.00, 696.7, 216.2)">R</text><text xml:space="preserve" font-family="LucidaGrande,Lucida Grande" font-size="15.0" fill="#C8C8C8" transform="matrix(1.00, 0.00, -0.00, -1.00, 706.2, 216.2)">o</text><text xml:space="preserve" font-family="LucidaGrande,Lucida Grande" font-size="15.0" fill="#C8C8C8" transform="matrix(1.00, 0.00, -0.00, -1.00, 715.4, 216.2)">b</text><text xml:space="preserve" font-family="LucidaGrande,Lucida Grande" font-size="15.0" fill="#C8C8C8" transform="matrix(1.00, 0.00, -0.00, -1.00, 724.8, 216.2)">o</text><text xml:space="preserve" font-family="LucidaGrande,Lucida Grande" font-size="15.0" fill="#C8C8C8" transform="matrix(1.00, 0.00, -0.00, -1.00, 734.1, 216.2)">S</text><text xml:space="preserve" font-family="LucidaGrande,Lucida Grande" font-size="15.0" fill="#C8C8C8" transform="matrix(1.00, 0.00, -0.00, -1.00, 742.1, 216.2)">p</text><text xml:space="preserve" font-family="LucidaGrande,Lucida Grande" font-size="15.0" fill="#C8C8C8" transform="matrix(1.00, 0.00, -0.00, -1.00, 751.6, 216.2)">o</text><text xml:space="preserve" font-family="LucidaGrande,Lucida Grande" font-size="15.0" fill="#C8C8C8" transform="matrix(1.00, 0.00, -0.00, -1.00, 760.8, 216.2)">c</text><text xml:space="preserve" font-family="LucidaGrande,Lucida Grande" font-size="15.0" fill="#C8C8C8" transform="matrix(1.00, 0.00, -0.00, -1.00, 768.5, 216.2)">k</text></g></svg>