<?xml version="1.0" encoding="UTF-8" standalone="no"?><svg xmlns="http://www.w3.org/2000/svg" xmlns:xlink="http://www.w3.org/1999/xlink" clip-rule="evenodd" stroke-miterlimit="10" viewBox="0 0 159 29"><desc>SVG generated by Keynote</desc><defs></defs><g transform="matrix(1.00, 0.00, -0.00, -1.00, 0.0, 29.0)"><image xlink:href="161D9722EEEA25F3799DADD390028843.png" width="156.00" height="27.00" transform="matrix(1.00, 0.00, -0.00, -1.00, 1.0, 28.0)"></image><text xml:space="preserve" font-family="HelveticaNeue-Medium,Helvetica Neue" font-size="26.0" fill="#3B3B3B" transform="matrix(1.00, 0.00, -0.00, -1.00, 2.1, 8.6)">a</text><text xml:space="preserve" font-family="HelveticaNeue-Medium,Helvetica Neue" font-size="26.0" fill="#3B3B3B" transform="matrix(1.00, 0.00, -0.00, -1.00, 16.6, 8.6)">p</text><text xml:space="preserve" font-family="HelveticaNeue-Medium,Helvetica Neue" font-size="26.0" fill="#3B3B3B" transform="matrix(1.00, 0.00, -0.00, -1.00, 32.4, 8.6)">p</text><text xml:space="preserve" font-family="HelveticaNeue-Medium,Helvetica Neue" font-size="26.0" fill="#3B3B3B" transform="matrix(1.00, 0.00, -0.00, -1.00, 48.3, 8.6)">-</text><text xml:space="preserve" font-family="HelveticaNeue-Medium,Helvetica Neue" font-size="26.0" fill="#3B3B3B" transform="matrix(1.00, 0.00, -0.00, -1.00, 58.4, 8.6)">t</text><text xml:space="preserve" font-family="HelveticaNeue-Medium,Helvetica Neue" font-size="26.0" fill="#3B3B3B" transform="matrix(1.00, 0.00, -0.00, -1.00, 67.1, 8.6)">e</text><text xml:space="preserve" font-family="HelveticaNeue-Medium,Helvetica Neue" font-size="26.0" fill="#3B3B3B" transform="matrix(1.00, 0.00, -0.00, -1.00, 81.6, 8.6)">s</text><text xml:space="preserve" font-family="HelveticaNeue-Medium,Helvetica Neue" font-size="26.0" fill="#3B3B3B" transform="matrix(1.00, 0.00, -0.00, -1.00, 95.1, 8.6)">t</text><text xml:space="preserve" font-family="HelveticaNeue-Medium,Helvetica Neue" font-size="26.0" fill="#3B3B3B" transform="matrix(1.00, 0.00, -0.00, -1.00, 103.7, 8.6)">.</text><text xml:space="preserve" font-family="HelveticaNeue-Medium,Helvetica Neue" font-size="26.0" fill="#3B3B3B" transform="matrix(1.00, 0.00, -0.00, -1.00, 110.9, 8.6)">a</text><text xml:space="preserve" font-family="HelveticaNeue-Medium,Helvetica Neue" font-size="26.0" fill="#3B3B3B" transform="matrix(1.00, 0.00, -0.00, -1.00, 125.4, 8.6)">p</text><text xml:space="preserve" font-family="HelveticaNeue-Medium,Helvetica Neue" font-size="26.0" fill="#3B3B3B" transform="matrix(1.00, 0.00, -0.00, -1.00, 141.3, 8.6)">k</text></g></svg>