<?xml version="1.0" encoding="UTF-8" standalone="no"?><svg xmlns="http://www.w3.org/2000/svg" xmlns:xlink="http://www.w3.org/1999/xlink" clip-rule="evenodd" stroke-miterlimit="10" viewBox="0 0 1024 768"><desc>SVG generated by Keynote</desc><defs></defs><g transform="matrix(1.00, 0.00, -0.00, -1.00, 0.0, 768.0)"><g><clipPath id="clip0x600000cb2ae0"><path d="M 0.0 768.0 L 1024.0 768.0 L 1024.0 0.0 L 0.0 0.0 Z M 0.0 768.0 "></path></clipPath><g clip-path="url(#clip0x600000cb2ae0)"><image xlink:href="9397CAD6F20342ACC2646ABBCA758461.jpeg" width="2048.00" height="1536.00" transform="matrix(0.50, 0.00, -0.00, -0.50, 0.0, 768.0)"></image></g></g><image xlink:href="5F00D9F659A3D424397BB25765F1932A.png" width="855.00" height="69.00" transform="matrix(1.00, 0.00, -0.00, -1.00, 83.0, 518.0)"></image><text xml:space="preserve" font-family="LucidaGrande-Bold,Lucida Grande" font-weight="bold" font-size="64.0" fill="#FEFFFE" transform="matrix(1.00, 0.00, -0.00, -1.00, 86.5, 467.5)">A</text><text xml:space="preserve" font-family="LucidaGrande-Bold,Lucida Grande" font-weight="bold" font-size="64.0" fill="#FEFFFE" transform="matrix(1.00, 0.00, -0.00, -1.00, 133.6, 467.5)">u</text><text xml:space="preserve" font-family="LucidaGrande-Bold,Lucida Grande" font-weight="bold" font-size="64.0" fill="#FEFFFE" transform="matrix(1.00, 0.00, -0.00, -1.00, 175.6, 467.5)">t</text><text xml:space="preserve" font-family="LucidaGrande-Bold,Lucida Grande" font-weight="bold" font-size="64.0" fill="#FEFFFE" transform="matrix(1.00, 0.00, -0.00, -1.00, 201.6, 467.5)">o</text><text xml:space="preserve" font-family="LucidaGrande-Bold,Lucida Grande" font-weight="bold" font-size="64.0" fill="#FEFFFE" transform="matrix(1.00, 0.00, -0.00, -1.00, 242.5, 467.5)">m</text><text xml:space="preserve" font-family="LucidaGrande-Bold,Lucida Grande" font-weight="bold" font-size="64.0" fill="#FEFFFE" transform="matrix(1.00, 0.00, -0.00, -1.00, 304.5, 467.5)">a</text><text xml:space="preserve" font-family="LucidaGrande-Bold,Lucida Grande" font-weight="bold" font-size="64.0" fill="#FEFFFE" transform="matrix(1.00, 0.00, -0.00, -1.00, 342.1, 467.5)">t</text><text xml:space="preserve" font-family="LucidaGrande-Bold,Lucida Grande" font-weight="bold" font-size="64.0" fill="#FEFFFE" transform="matrix(1.00, 0.00, -0.00, -1.00, 368.1, 467.5)">y</text><text xml:space="preserve" font-family="LucidaGrande-Bold,Lucida Grande" font-weight="bold" font-size="64.0" fill="#FEFFFE" transform="matrix(1.00, 0.00, -0.00, -1.00, 405.4, 467.5)">c</text><text xml:space="preserve" font-family="LucidaGrande-Bold,Lucida Grande" font-weight="bold" font-size="64.0" fill="#FEFFFE" transform="matrix(1.00, 0.00, -0.00, -1.00, 439.5, 467.5)">z</text><text xml:space="preserve" font-family="LucidaGrande-Bold,Lucida Grande" font-weight="bold" font-size="64.0" fill="#FEFFFE" transform="matrix(1.00, 0.00, -0.00, -1.00, 477.3, 467.5)">n</text><text xml:space="preserve" font-family="LucidaGrande-Bold,Lucida Grande" font-weight="bold" font-size="64.0" fill="#FEFFFE" transform="matrix(1.00, 0.00, -0.00, -1.00, 519.3, 467.5)">e</text><text xml:space="preserve" font-family="LucidaGrande-Bold,Lucida Grande" font-weight="bold" font-size="64.0" fill="#FEFFFE" transform="matrix(1.00, 0.00, -0.00, -1.00, 556.8, 467.5)"> </text><text xml:space="preserve" font-family="LucidaGrande-Bold,Lucida Grande" font-weight="bold" font-size="64.0" fill="#FEFFFE" transform="matrix(1.00, 0.00, -0.00, -1.00, 577.8, 467.5)">t</text><text xml:space="preserve" font-family="LucidaGrande-Bold,Lucida Grande" font-weight="bold" font-size="64.0" fill="#FEFFFE" transform="matrix(1.00, 0.00, -0.00, -1.00, 603.8, 467.5)">e</text><text xml:space="preserve" font-family="LucidaGrande-Bold,Lucida Grande" font-weight="bold" font-size="64.0" fill="#FEFFFE" transform="matrix(1.00, 0.00, -0.00, -1.00, 641.3, 467.5)">s</text><text xml:space="preserve" font-family="LucidaGrande-Bold,Lucida Grande" font-weight="bold" font-size="64.0" fill="#FEFFFE" transform="matrix(1.00, 0.00, -0.00, -1.00, 677.5, 467.5)">t</text><text xml:space="preserve" font-family="LucidaGrande-Bold,Lucida Grande" font-weight="bold" font-size="64.0" fill="#FEFFFE" transform="matrix(1.00, 0.00, -0.00, -1.00, 703.5, 467.5)">o</text><text xml:space="preserve" font-family="LucidaGrande-Bold,Lucida Grande" font-weight="bold" font-size="64.0" fill="#FEFFFE" transform="matrix(1.00, 0.00, -0.00, -1.00, 744.3, 467.5)">w</text><text xml:space="preserve" font-family="LucidaGrande-Bold,Lucida Grande" font-weight="bold" font-size="64.0" fill="#FEFFFE" transform="matrix(1.00, 0.00, -0.00, -1.00, 799.5, 467.5)">a</text><text xml:space="preserve" font-family="LucidaGrande-Bold,Lucida Grande" font-weight="bold" font-size="64.0" fill="#FEFFFE" transform="matrix(1.00, 0.00, -0.00, -1.00, 837.1, 467.5)">n</text><text xml:space="preserve" font-family="LucidaGrande-Bold,Lucida Grande" font-weight="bold" font-size="64.0" fill="#FEFFFE" transform="matrix(1.00, 0.00, -0.00, -1.00, 879.1, 467.5)">i</text><text xml:space="preserve" font-family="LucidaGrande-Bold,Lucida Grande" font-weight="bold" font-size="64.0" fill="#FEFFFE" transform="matrix(1.00, 0.00, -0.00, -1.00, 900.0, 467.5)">e</text><text xml:space="preserve" font-family="LucidaGrande-Bold,Lucida Grande" font-weight="bold" font-size="64.0" fill="#FEFFFE" transform="matrix(1.00, 0.00, -0.00, -1.00, 937.5, 467.5)"> </text><image xlink:href="BCF390E28DC77DD7BBD9AA96325F2080.png" width="563.00" height="71.00" transform="matrix(1.00, 0.00, -0.00, -1.00, 229.0, 443.0)"></image><text xml:space="preserve" font-family="LucidaGrande-Bold,Lucida Grande" font-weight="bold" font-size="64.0" fill="#FEFFFE" transform="matrix(1.00, 0.00, -0.00, -1.00, 231.1, 391.5)">a</text><text xml:space="preserve" font-family="LucidaGrande-Bold,Lucida Grande" font-weight="bold" font-size="64.0" fill="#FEFFFE" transform="matrix(1.00, 0.00, -0.00, -1.00, 268.7, 391.5)">p</text><text xml:space="preserve" font-family="LucidaGrande-Bold,Lucida Grande" font-weight="bold" font-size="64.0" fill="#FEFFFE" transform="matrix(1.00, 0.00, -0.00, -1.00, 311.1, 391.5)">l</text><text xml:space="preserve" font-family="LucidaGrande-Bold,Lucida Grande" font-weight="bold" font-size="64.0" fill="#FEFFFE" transform="matrix(1.00, 0.00, -0.00, -1.00, 331.9, 391.5)">i</text><text xml:space="preserve" font-family="LucidaGrande-Bold,Lucida Grande" font-weight="bold" font-size="64.0" fill="#FEFFFE" transform="matrix(1.00, 0.00, -0.00, -1.00, 352.7, 391.5)">k</text><text xml:space="preserve" font-family="LucidaGrande-Bold,Lucida Grande" font-weight="bold" font-size="64.0" fill="#FEFFFE" transform="matrix(1.00, 0.00, -0.00, -1.00, 393.2, 391.5)">a</text><text xml:space="preserve" font-family="LucidaGrande-Bold,Lucida Grande" font-weight="bold" font-size="64.0" fill="#FEFFFE" transform="matrix(1.00, 0.00, -0.00, -1.00, 430.8, 391.5)">c</text><text xml:space="preserve" font-family="LucidaGrande-Bold,Lucida Grande" font-weight="bold" font-size="64.0" fill="#FEFFFE" transform="matrix(1.00, 0.00, -0.00, -1.00, 464.9, 391.5)">j</text><text xml:space="preserve" font-family="LucidaGrande-Bold,Lucida Grande" font-weight="bold" font-size="64.0" fill="#FEFFFE" transform="matrix(1.00, 0.00, -0.00, -1.00, 486.2, 391.5)">i</text><text xml:space="preserve" font-family="LucidaGrande-Bold,Lucida Grande" font-weight="bold" font-size="64.0" fill="#FEFFFE" transform="matrix(1.00, 0.00, -0.00, -1.00, 507.1, 391.5)"> </text><text xml:space="preserve" font-family="LucidaGrande-Bold,Lucida Grande" font-weight="bold" font-size="64.0" fill="#FEFFFE" transform="matrix(1.00, 0.00, -0.00, -1.00, 528.1, 391.5)">A</text><text xml:space="preserve" font-family="LucidaGrande-Bold,Lucida Grande" font-weight="bold" font-size="64.0" fill="#FEFFFE" transform="matrix(1.00, 0.00, -0.00, -1.00, 575.3, 391.5)">n</text><text xml:space="preserve" font-family="LucidaGrande-Bold,Lucida Grande" font-weight="bold" font-size="64.0" fill="#FEFFFE" transform="matrix(1.00, 0.00, -0.00, -1.00, 617.3, 391.5)">d</text><text xml:space="preserve" font-family="LucidaGrande-Bold,Lucida Grande" font-weight="bold" font-size="64.0" fill="#FEFFFE" transform="matrix(1.00, 0.00, -0.00, -1.00, 659.7, 391.5)">r</text><text xml:space="preserve" font-family="LucidaGrande-Bold,Lucida Grande" font-weight="bold" font-size="64.0" fill="#FEFFFE" transform="matrix(1.00, 0.00, -0.00, -1.00, 688.7, 391.5)">o</text><text xml:space="preserve" font-family="LucidaGrande-Bold,Lucida Grande" font-weight="bold" font-size="64.0" fill="#FEFFFE" transform="matrix(1.00, 0.00, -0.00, -1.00, 729.6, 391.5)">i</text><text xml:space="preserve" font-family="LucidaGrande-Bold,Lucida Grande" font-weight="bold" font-size="64.0" fill="#FEFFFE" transform="matrix(1.00, 0.00, -0.00, -1.00, 750.4, 391.5)">d</text><image xlink:href="696C8CBE1B1E3AEC56EDF7CFAD4E0C87.png" width="265.00" height="33.00" transform="matrix(1.00, 0.00, -0.00, -1.00, 379.0, 355.0)"></image><text xml:space="preserve" font-family="LucidaGrande,Lucida Grande" font-size="30.7" fill="#FEFFFE" transform="matrix(1.00, 0.00, -0.00, -1.00, 383.5, 328.5)">A</text><text xml:space="preserve" font-family="LucidaGrande,Lucida Grande" font-size="30.7" fill="#FEFFFE" transform="matrix(1.00, 0.00, -0.00, -1.00, 404.7, 328.5)">r</text><text xml:space="preserve" font-family="LucidaGrande,Lucida Grande" font-size="30.7" fill="#FEFFFE" transform="matrix(1.00, 0.00, -0.00, -1.00, 417.2, 328.5)">k</text><text xml:space="preserve" font-family="LucidaGrande,Lucida Grande" font-size="30.7" fill="#FEFFFE" transform="matrix(1.00, 0.00, -0.00, -1.00, 435.2, 328.5)">a</text><text xml:space="preserve" font-family="LucidaGrande,Lucida Grande" font-size="30.7" fill="#FEFFFE" transform="matrix(1.00, 0.00, -0.00, -1.00, 452.1, 328.5)">d</text><text xml:space="preserve" font-family="LucidaGrande,Lucida Grande" font-size="30.7" fill="#FEFFFE" transform="matrix(1.00, 0.00, -0.00, -1.00, 471.5, 328.5)">i</text><text xml:space="preserve" font-family="LucidaGrande,Lucida Grande" font-size="30.7" fill="#FEFFFE" transform="matrix(1.00, 0.00, -0.00, -1.00, 480.3, 328.5)">u</text><text xml:space="preserve" font-family="LucidaGrande,Lucida Grande" font-size="30.7" fill="#FEFFFE" transform="matrix(1.00, 0.00, -0.00, -1.00, 499.4, 328.5)">s</text><text xml:space="preserve" font-family="LucidaGrande,Lucida Grande" font-size="30.7" fill="#FEFFFE" transform="matrix(1.00, 0.00, -0.00, -1.00, 515.0, 328.5)">z</text><text xml:space="preserve" font-family="LucidaGrande,Lucida Grande" font-size="30.7" fill="#FEFFFE" transform="matrix(1.00, 0.00, -0.00, -1.00, 532.6, 328.5)"> </text><text xml:space="preserve" font-family="LucidaGrande,Lucida Grande" font-size="30.7" fill="#FEFFFE" transform="matrix(1.00, 0.00, -0.00, -1.00, 542.4, 328.5)">K</text><text xml:space="preserve" font-family="LucidaGrande,Lucida Grande" font-size="30.7" fill="#FEFFFE" transform="matrix(1.00, 0.00, -0.00, -1.00, 562.4, 328.5)">o</text><text xml:space="preserve" font-family="LucidaGrande,Lucida Grande" font-size="30.7" fill="#FEFFFE" transform="matrix(1.00, 0.00, -0.00, -1.00, 581.2, 328.5)">n</text><text xml:space="preserve" font-family="LucidaGrande,Lucida Grande" font-size="30.7" fill="#FEFFFE" transform="matrix(1.00, 0.00, -0.00, -1.00, 600.3, 328.5)">i</text><text xml:space="preserve" font-family="LucidaGrande,Lucida Grande" font-size="30.7" fill="#FEFFFE" transform="matrix(1.00, 0.00, -0.00, -1.00, 609.1, 328.5)">o</text><text xml:space="preserve" font-family="LucidaGrande,Lucida Grande" font-size="30.7" fill="#FEFFFE" transform="matrix(1.00, 0.00, -0.00, -1.00, 628.0, 328.5)">r</text><text xml:space="preserve" font-family="LucidaGrande,Lucida Grande" font-size="30.7" fill="#FEFFFE" transform="matrix(1.00, 0.00, -0.00, -1.00, 640.5, 328.5)"></text><image xlink:href="D8336DB2B79A0BC13384744E545C91F2.png" width="199.00" height="39.00" transform="matrix(1.00, 0.00, -0.00, -1.00, 412.0, 283.0)"></image><text xml:space="preserve" font-family="LucidaGrande-Bold,Lucida Grande" font-weight="bold" font-size="30.7" fill="#FEFFFE" transform="matrix(1.00, 0.00, -0.00, -1.00, 415.0, 256.5)">4</text><text xml:space="preserve" font-family="LucidaGrande-Bold,Lucida Grande" font-weight="bold" font-size="30.7" fill="#FEFFFE" transform="matrix(1.00, 0.00, -0.00, -1.00, 435.3, 256.5)">d</text><text xml:space="preserve" font-family="LucidaGrande-Bold,Lucida Grande" font-weight="bold" font-size="30.7" fill="#FEFFFE" transform="matrix(1.00, 0.00, -0.00, -1.00, 455.6, 256.5)">e</text><text xml:space="preserve" font-family="LucidaGrande-Bold,Lucida Grande" font-weight="bold" font-size="30.7" fill="#FEFFFE" transform="matrix(1.00, 0.00, -0.00, -1.00, 473.6, 256.5)">v</text><text xml:space="preserve" font-family="LucidaGrande-Bold,Lucida Grande" font-weight="bold" font-size="30.7" fill="#FEFFFE" transform="matrix(1.00, 0.00, -0.00, -1.00, 491.8, 256.5)">e</text><text xml:space="preserve" font-family="LucidaGrande-Bold,Lucida Grande" font-weight="bold" font-size="30.7" fill="#FEFFFE" transform="matrix(1.00, 0.00, -0.00, -1.00, 509.8, 256.5)">l</text><text xml:space="preserve" font-family="LucidaGrande-Bold,Lucida Grande" font-weight="bold" font-size="30.7" fill="#FEFFFE" transform="matrix(1.00, 0.00, -0.00, -1.00, 519.8, 256.5)">o</text><text xml:space="preserve" font-family="LucidaGrande-Bold,Lucida Grande" font-weight="bold" font-size="30.7" fill="#FEFFFE" transform="matrix(1.00, 0.00, -0.00, -1.00, 539.4, 256.5)">p</text><text xml:space="preserve" font-family="LucidaGrande-Bold,Lucida Grande" font-weight="bold" font-size="30.7" fill="#FEFFFE" transform="matrix(1.00, 0.00, -0.00, -1.00, 559.7, 256.5)">e</text><text xml:space="preserve" font-family="LucidaGrande-Bold,Lucida Grande" font-weight="bold" font-size="30.7" fill="#FEFFFE" transform="matrix(1.00, 0.00, -0.00, -1.00, 577.7, 256.5)">r</text><text xml:space="preserve" font-family="LucidaGrande-Bold,Lucida Grande" font-weight="bold" font-size="30.7" fill="#FEFFFE" transform="matrix(1.00, 0.00, -0.00, -1.00, 591.6, 256.5)">s</text><text xml:space="preserve" font-family="LucidaGrande,Lucida Grande" font-size="30.7" fill="#FEFFFE" transform="matrix(1.00, 0.00, -0.00, -1.00, 609.0, 256.5)"> </text><text xml:space="preserve" font-family="LucidaGrande,Lucida Grande" font-size="30.7" fill="#FEFFFE" transform="matrix(1.00, 0.00, -0.00, -1.00, 618.7, 256.5)"></text><image xlink:href="BBF35CF0486E66B6CF4DFA894E64876D.png" width="225.00" height="22.00" transform="matrix(1.00, 0.00, -0.00, -1.00, 399.0, 186.0)"></image><text xml:space="preserve" font-family="LucidaGrande,Lucida Grande" font-size="16.7" fill="#FEFFFE" transform="matrix(1.00, 0.00, -0.00, -1.00, 403.8, 170.5)">W</text><text xml:space="preserve" font-family="LucidaGrande,Lucida Grande" font-size="16.7" fill="#FEFFFE" transform="matrix(1.00, 0.00, -0.00, -1.00, 418.2, 170.5)">a</text><text xml:space="preserve" font-family="LucidaGrande,Lucida Grande" font-size="16.7" fill="#FEFFFE" transform="matrix(1.00, 0.00, -0.00, -1.00, 427.4, 170.5)">r</text><text xml:space="preserve" font-family="LucidaGrande,Lucida Grande" font-size="16.7" fill="#FEFFFE" transform="matrix(1.00, 0.00, -0.00, -1.00, 434.3, 170.5)">s</text><text xml:space="preserve" font-family="LucidaGrande,Lucida Grande" font-size="16.7" fill="#FEFFFE" transform="matrix(1.00, 0.00, -0.00, -1.00, 442.8, 170.5)">z</text><text xml:space="preserve" font-family="LucidaGrande,Lucida Grande" font-size="16.7" fill="#FEFFFE" transform="matrix(1.00, 0.00, -0.00, -1.00, 452.4, 170.5)">a</text><text xml:space="preserve" font-family="LucidaGrande,Lucida Grande" font-size="16.7" fill="#FEFFFE" transform="matrix(1.00, 0.00, -0.00, -1.00, 461.6, 170.5)">w</text><text xml:space="preserve" font-family="LucidaGrande,Lucida Grande" font-size="16.7" fill="#FEFFFE" transform="matrix(1.00, 0.00, -0.00, -1.00, 474.5, 170.5)">a</text><text xml:space="preserve" font-family="LucidaGrande,Lucida Grande" font-size="16.7" fill="#FEFFFE" transform="matrix(1.00, 0.00, -0.00, -1.00, 483.8, 170.5)"> </text><text xml:space="preserve" font-family="LucidaGrande,Lucida Grande" font-size="16.7" fill="#FEFFFE" transform="matrix(1.00, 0.00, -0.00, -1.00, 489.1, 170.5)">7</text><text xml:space="preserve" font-family="LucidaGrande,Lucida Grande" font-size="16.7" fill="#FEFFFE" transform="matrix(1.00, 0.00, -0.00, -1.00, 499.7, 170.5)"> </text><text xml:space="preserve" font-family="LucidaGrande,Lucida Grande" font-size="16.7" fill="#FEFFFE" transform="matrix(1.00, 0.00, -0.00, -1.00, 505.0, 170.5)">k</text><text xml:space="preserve" font-family="LucidaGrande,Lucida Grande" font-size="16.7" fill="#FEFFFE" transform="matrix(1.00, 0.00, -0.00, -1.00, 514.8, 170.5)">w</text><text xml:space="preserve" font-family="LucidaGrande,Lucida Grande" font-size="16.7" fill="#FEFFFE" transform="matrix(1.00, 0.00, -0.00, -1.00, 527.7, 170.5)">i</text><text xml:space="preserve" font-family="LucidaGrande,Lucida Grande" font-size="16.7" fill="#FEFFFE" transform="matrix(1.00, 0.00, -0.00, -1.00, 532.5, 170.5)">e</text><text xml:space="preserve" font-family="LucidaGrande,Lucida Grande" font-size="16.7" fill="#FEFFFE" transform="matrix(1.00, 0.00, -0.00, -1.00, 541.8, 170.5)">t</text><text xml:space="preserve" font-family="LucidaGrande,Lucida Grande" font-size="16.7" fill="#FEFFFE" transform="matrix(1.00, 0.00, -0.00, -1.00, 548.1, 170.5)">n</text><text xml:space="preserve" font-family="LucidaGrande,Lucida Grande" font-size="16.7" fill="#FEFFFE" transform="matrix(1.00, 0.00, -0.00, -1.00, 558.5, 170.5)">i</text><text xml:space="preserve" font-family="LucidaGrande,Lucida Grande" font-size="16.7" fill="#FEFFFE" transform="matrix(1.00, 0.00, -0.00, -1.00, 563.3, 170.5)">a</text><text xml:space="preserve" font-family="LucidaGrande,Lucida Grande" font-size="16.7" fill="#FEFFFE" transform="matrix(1.00, 0.00, -0.00, -1.00, 572.6, 170.5)"> </text><text xml:space="preserve" font-family="LucidaGrande,Lucida Grande" font-size="16.7" fill="#FEFFFE" transform="matrix(1.00, 0.00, -0.00, -1.00, 577.9, 170.5)">2</text><text xml:space="preserve" font-family="LucidaGrande,Lucida Grande" font-size="16.7" fill="#FEFFFE" transform="matrix(1.00, 0.00, -0.00, -1.00, 588.5, 170.5)">0</text><text xml:space="preserve" font-family="LucidaGrande,Lucida Grande" font-size="16.7" fill="#FEFFFE" transform="matrix(1.00, 0.00, -0.00, -1.00, 599.0, 170.5)">1</text><text xml:space="preserve" font-family="LucidaGrande,Lucida Grande" font-size="16.7" fill="#FEFFFE" transform="matrix(1.00, 0.00, -0.00, -1.00, 609.6, 170.5)">4</text></g></svg>