<?xml version="1.0" encoding="UTF-8" standalone="no"?><svg xmlns="http://www.w3.org/2000/svg" xmlns:xlink="http://www.w3.org/1999/xlink" clip-rule="evenodd" stroke-miterlimit="10" viewBox="0 0 1024 768"><desc>SVG generated by Keynote</desc><defs></defs><g transform="matrix(1.00, 0.00, -0.00, -1.00, 0.0, 768.0)"><g><clipPath id="clip0x608004cb7fa0"><path d="M 0.0 768.0 L 1024.0 768.0 L 1024.0 0.0 L 0.0 0.0 Z M 0.0 768.0 "></path></clipPath><g clip-path="url(#clip0x608004cb7fa0)"><image xlink:href="../../073872A3-6B4A-4DBD-B237-E9D6C1798DA3/assets/9397CAD6F20342ACC2646ABBCA758461.jpeg" width="2048.00" height="1536.00" transform="matrix(0.50, 0.00, -0.00, -0.50, 0.0, 768.0)"></image></g></g><image xlink:href="../../2890D0BC-F554-48FA-9D1D-2AD752C01773/assets/050E71975406BA8F92B7389CEE624EED.png" width="240.00" height="63.00" transform="matrix(1.00, 0.00, -0.00, -1.00, 391.0, 690.0)"></image><text xml:space="preserve" font-family="CourierNewPS-BoldMT,Courier New" font-weight="bold" font-size="64.0" fill="#FEFFFE" transform="matrix(1.00, 0.00, -0.00, -1.00, 396.8, 647.2)">m</text><text xml:space="preserve" font-family="CourierNewPS-BoldMT,Courier New" font-weight="bold" font-size="64.0" fill="#FEFFFE" transform="matrix(1.00, 0.00, -0.00, -1.00, 435.2, 647.2)">o</text><text xml:space="preserve" font-family="CourierNewPS-BoldMT,Courier New" font-weight="bold" font-size="64.0" fill="#FEFFFE" transform="matrix(1.00, 0.00, -0.00, -1.00, 473.6, 647.2)">n</text><text xml:space="preserve" font-family="CourierNewPS-BoldMT,Courier New" font-weight="bold" font-size="64.0" fill="#FEFFFE" transform="matrix(1.00, 0.00, -0.00, -1.00, 512.0, 647.2)">k</text><text xml:space="preserve" font-family="CourierNewPS-BoldMT,Courier New" font-weight="bold" font-size="64.0" fill="#FEFFFE" transform="matrix(1.00, 0.00, -0.00, -1.00, 550.4, 647.2)">e</text><text xml:space="preserve" font-family="CourierNewPS-BoldMT,Courier New" font-weight="bold" font-size="64.0" fill="#FEFFFE" transform="matrix(1.00, 0.00, -0.00, -1.00, 588.8, 647.2)">y</text><image xlink:href="../../2D197280-1DD4-47A5-8EC1-CB39EA06D99E/assets/C25F7C0C760FC422C6FD5D90B7D2228F.png" width="18.00" height="18.00" transform="matrix(1.00, 0.00, -0.00, -1.00, 62.0, 393.0)"></image><text xml:space="preserve" font-family="LucidaGrande,Lucida Grande" font-size="25.5" fill="#EAEAEA" transform="matrix(1.00, 0.00, -0.00, -1.00, 64.0, 378.4)">•</text><image xlink:href="../../2890D0BC-F554-48FA-9D1D-2AD752C01773/assets/7AD762249D0C281CA9C9F23FB7F74E20.png" width="322.00" height="36.00" transform="matrix(1.00, 0.00, -0.00, -1.00, 93.0, 404.0)"></image><text xml:space="preserve" font-family="LucidaGrande,Lucida Grande" font-size="34.0" fill="#EAEAEA" transform="matrix(1.00, 0.00, -0.00, -1.00, 96.0, 375.2)">c</text><text xml:space="preserve" font-family="LucidaGrande,Lucida Grande" font-size="34.0" fill="#EAEAEA" transform="matrix(1.00, 0.00, -0.00, -1.00, 113.4, 375.2)">o</text><text xml:space="preserve" font-family="LucidaGrande,Lucida Grande" font-size="34.0" fill="#EAEAEA" transform="matrix(1.00, 0.00, -0.00, -1.00, 134.3, 375.2)">m</text><text xml:space="preserve" font-family="LucidaGrande,Lucida Grande" font-size="34.0" fill="#EAEAEA" transform="matrix(1.00, 0.00, -0.00, -1.00, 166.0, 375.2)">m</text><text xml:space="preserve" font-family="LucidaGrande,Lucida Grande" font-size="34.0" fill="#EAEAEA" transform="matrix(1.00, 0.00, -0.00, -1.00, 197.8, 375.2)">a</text><text xml:space="preserve" font-family="LucidaGrande,Lucida Grande" font-size="34.0" fill="#EAEAEA" transform="matrix(1.00, 0.00, -0.00, -1.00, 216.6, 375.2)">n</text><text xml:space="preserve" font-family="LucidaGrande,Lucida Grande" font-size="34.0" fill="#EAEAEA" transform="matrix(1.00, 0.00, -0.00, -1.00, 237.6, 375.2)">d</text><text xml:space="preserve" font-family="LucidaGrande,Lucida Grande" font-size="34.0" fill="#EAEAEA" transform="matrix(1.00, 0.00, -0.00, -1.00, 259.1, 375.2)">-</text><text xml:space="preserve" font-family="LucidaGrande,Lucida Grande" font-size="34.0" fill="#EAEAEA" transform="matrix(1.00, 0.00, -0.00, -1.00, 278.7, 375.2)">l</text><text xml:space="preserve" font-family="LucidaGrande,Lucida Grande" font-size="34.0" fill="#EAEAEA" transform="matrix(1.00, 0.00, -0.00, -1.00, 288.5, 375.2)">i</text><text xml:space="preserve" font-family="LucidaGrande,Lucida Grande" font-size="34.0" fill="#EAEAEA" transform="matrix(1.00, 0.00, -0.00, -1.00, 298.4, 375.2)">n</text><text xml:space="preserve" font-family="LucidaGrande,Lucida Grande" font-size="34.0" fill="#EAEAEA" transform="matrix(1.00, 0.00, -0.00, -1.00, 319.5, 375.2)">e</text><text xml:space="preserve" font-family="LucidaGrande,Lucida Grande" font-size="34.0" fill="#EAEAEA" transform="matrix(1.00, 0.00, -0.00, -1.00, 338.4, 375.2)"> </text><text xml:space="preserve" font-family="LucidaGrande,Lucida Grande" font-size="34.0" fill="#EAEAEA" transform="matrix(1.00, 0.00, -0.00, -1.00, 349.2, 375.2)">t</text><text xml:space="preserve" font-family="LucidaGrande,Lucida Grande" font-size="34.0" fill="#EAEAEA" transform="matrix(1.00, 0.00, -0.00, -1.00, 361.9, 375.2)">o</text><text xml:space="preserve" font-family="LucidaGrande,Lucida Grande" font-size="34.0" fill="#EAEAEA" transform="matrix(1.00, 0.00, -0.00, -1.00, 382.8, 375.2)">o</text><text xml:space="preserve" font-family="LucidaGrande,Lucida Grande" font-size="34.0" fill="#EAEAEA" transform="matrix(1.00, 0.00, -0.00, -1.00, 403.7, 375.2)">l</text><text xml:space="preserve" font-family="LucidaGrande,Lucida Grande" font-size="34.0" fill="#EAEAEA" transform="matrix(1.00, 0.00, -0.00, -1.00, 413.5, 375.2)"> </text><text xml:space="preserve" font-family="LucidaGrande,Lucida Grande" font-size="34.0" fill="#EAEAEA" transform="matrix(1.00, 0.00, -0.00, -1.00, 424.3, 375.2)"></text><image xlink:href="../../2D197280-1DD4-47A5-8EC1-CB39EA06D99E/assets/C25F7C0C760FC422C6FD5D90B7D2228F.png" width="18.00" height="18.00" transform="matrix(1.00, 0.00, -0.00, -1.00, 62.0, 331.0)"></image><text xml:space="preserve" font-family="LucidaGrande,Lucida Grande" font-size="25.5" fill="#EAEAEA" transform="matrix(1.00, 0.00, -0.00, -1.00, 64.0, 316.4)">•</text><image xlink:href="../../2890D0BC-F554-48FA-9D1D-2AD752C01773/assets/A34FF1E46C69260FD086C48FD83D603D.png" width="423.00" height="42.00" transform="matrix(1.00, 0.00, -0.00, -1.00, 95.0, 342.0)"></image><text xml:space="preserve" font-family="LucidaGrande,Lucida Grande" font-size="34.0" fill="#EAEAEA" transform="matrix(1.00, 0.00, -0.00, -1.00, 96.0, 313.2)">l</text><text xml:space="preserve" font-family="LucidaGrande,Lucida Grande" font-size="34.0" fill="#EAEAEA" transform="matrix(1.00, 0.00, -0.00, -1.00, 105.8, 313.2)">o</text><text xml:space="preserve" font-family="LucidaGrande,Lucida Grande" font-size="34.0" fill="#EAEAEA" transform="matrix(1.00, 0.00, -0.00, -1.00, 126.7, 313.2)">s</text><text xml:space="preserve" font-family="LucidaGrande,Lucida Grande" font-size="34.0" fill="#EAEAEA" transform="matrix(1.00, 0.00, -0.00, -1.00, 144.1, 313.2)">o</text><text xml:space="preserve" font-family="LucidaGrande,Lucida Grande" font-size="34.0" fill="#EAEAEA" transform="matrix(1.00, 0.00, -0.00, -1.00, 164.9, 313.2)">w</text><text xml:space="preserve" font-family="LucidaGrande,Lucida Grande" font-size="34.0" fill="#EAEAEA" transform="matrix(1.00, 0.00, -0.00, -1.00, 191.1, 313.2)">y</text><text xml:space="preserve" font-family="LucidaGrande,Lucida Grande" font-size="34.0" fill="#EAEAEA" transform="matrix(1.00, 0.00, -0.00, -1.00, 208.9, 313.2)"> </text><text xml:space="preserve" font-family="LucidaGrande,Lucida Grande" font-size="34.0" fill="#EAEAEA" transform="matrix(1.00, 0.00, -0.00, -1.00, 219.7, 313.2)">s</text><text xml:space="preserve" font-family="LucidaGrande,Lucida Grande" font-size="34.0" fill="#EAEAEA" transform="matrix(1.00, 0.00, -0.00, -1.00, 237.0, 313.2)">t</text><text xml:space="preserve" font-family="LucidaGrande,Lucida Grande" font-size="34.0" fill="#EAEAEA" transform="matrix(1.00, 0.00, -0.00, -1.00, 249.7, 313.2)">r</text><text xml:space="preserve" font-family="LucidaGrande,Lucida Grande" font-size="34.0" fill="#EAEAEA" transform="matrix(1.00, 0.00, -0.00, -1.00, 263.6, 313.2)">u</text><text xml:space="preserve" font-family="LucidaGrande,Lucida Grande" font-size="34.0" fill="#EAEAEA" transform="matrix(1.00, 0.00, -0.00, -1.00, 284.7, 313.2)">m</text><text xml:space="preserve" font-family="LucidaGrande,Lucida Grande" font-size="34.0" fill="#EAEAEA" transform="matrix(1.00, 0.00, -0.00, -1.00, 316.5, 313.2)">i</text><text xml:space="preserve" font-family="LucidaGrande,Lucida Grande" font-size="34.0" fill="#EAEAEA" transform="matrix(1.00, 0.00, -0.00, -1.00, 326.3, 313.2)">e</text><text xml:space="preserve" font-family="LucidaGrande,Lucida Grande" font-size="34.0" fill="#EAEAEA" transform="matrix(1.00, 0.00, -0.00, -1.00, 345.2, 313.2)">ń</text><text xml:space="preserve" font-family="LucidaGrande,Lucida Grande" font-size="34.0" fill="#EAEAEA" transform="matrix(1.00, 0.00, -0.00, -1.00, 366.3, 313.2)"> </text><text xml:space="preserve" font-family="LucidaGrande,Lucida Grande" font-size="34.0" fill="#EAEAEA" transform="matrix(1.00, 0.00, -0.00, -1.00, 377.1, 313.2)">e</text><text xml:space="preserve" font-family="LucidaGrande,Lucida Grande" font-size="34.0" fill="#EAEAEA" transform="matrix(1.00, 0.00, -0.00, -1.00, 396.0, 313.2)">v</text><text xml:space="preserve" font-family="LucidaGrande,Lucida Grande" font-size="34.0" fill="#EAEAEA" transform="matrix(1.00, 0.00, -0.00, -1.00, 413.6, 313.2)">e</text><text xml:space="preserve" font-family="LucidaGrande,Lucida Grande" font-size="34.0" fill="#EAEAEA" transform="matrix(1.00, 0.00, -0.00, -1.00, 432.6, 313.2)">n</text><text xml:space="preserve" font-family="LucidaGrande,Lucida Grande" font-size="34.0" fill="#EAEAEA" transform="matrix(1.00, 0.00, -0.00, -1.00, 453.7, 313.2)">t</text><text xml:space="preserve" font-family="LucidaGrande,Lucida Grande" font-size="34.0" fill="#EAEAEA" transform="matrix(1.00, 0.00, -0.00, -1.00, 466.4, 313.2)">ó</text><text xml:space="preserve" font-family="LucidaGrande,Lucida Grande" font-size="34.0" fill="#EAEAEA" transform="matrix(1.00, 0.00, -0.00, -1.00, 487.3, 313.2)">w</text><text xml:space="preserve" font-family="LucidaGrande,Lucida Grande" font-size="34.0" fill="#EAEAEA" transform="matrix(1.00, 0.00, -0.00, -1.00, 513.4, 313.2)"></text><image xlink:href="../../2890D0BC-F554-48FA-9D1D-2AD752C01773/assets/AABDAD7031751752F89D46773B18EE0F.png" width="15.00" height="16.00" transform="matrix(1.00, 0.00, -0.00, -1.00, 64.0, 272.0)"></image><text xml:space="preserve" font-family="CourierNewPSMT,Courier New" font-size="25.5" fill="#EAEAEA" transform="matrix(1.00, 0.00, -0.00, -1.00, 64.0, 258.2)">•</text><image xlink:href="../../2890D0BC-F554-48FA-9D1D-2AD752C01773/assets/522F5E4D40B942A17671B3314165C29D.png" width="798.00" height="37.00" transform="matrix(1.00, 0.00, -0.00, -1.00, 94.0, 280.0)"></image><text xml:space="preserve" font-family="CourierNewPSMT,Courier New" font-size="34.0" fill="#EAEAEA" transform="matrix(1.00, 0.00, -0.00, -1.00, 96.0, 256.2)">a</text><text xml:space="preserve" font-family="CourierNewPSMT,Courier New" font-size="34.0" fill="#EAEAEA" transform="matrix(1.00, 0.00, -0.00, -1.00, 116.4, 256.2)">d</text><text xml:space="preserve" font-family="CourierNewPSMT,Courier New" font-size="34.0" fill="#EAEAEA" transform="matrix(1.00, 0.00, -0.00, -1.00, 136.8, 256.2)">b</text><text xml:space="preserve" font-family="CourierNewPSMT,Courier New" font-size="34.0" fill="#EAEAEA" transform="matrix(1.00, 0.00, -0.00, -1.00, 157.2, 256.2)"> </text><text xml:space="preserve" font-family="CourierNewPSMT,Courier New" font-size="34.0" fill="#EAEAEA" transform="matrix(1.00, 0.00, -0.00, -1.00, 177.6, 256.2)">s</text><text xml:space="preserve" font-family="CourierNewPSMT,Courier New" font-size="34.0" fill="#EAEAEA" transform="matrix(1.00, 0.00, -0.00, -1.00, 198.0, 256.2)">h</text><text xml:space="preserve" font-family="CourierNewPSMT,Courier New" font-size="34.0" fill="#EAEAEA" transform="matrix(1.00, 0.00, -0.00, -1.00, 218.4, 256.2)">e</text><text xml:space="preserve" font-family="CourierNewPSMT,Courier New" font-size="34.0" fill="#EAEAEA" transform="matrix(1.00, 0.00, -0.00, -1.00, 238.8, 256.2)">l</text><text xml:space="preserve" font-family="CourierNewPSMT,Courier New" font-size="34.0" fill="#EAEAEA" transform="matrix(1.00, 0.00, -0.00, -1.00, 259.3, 256.2)">l</text><text xml:space="preserve" font-family="CourierNewPSMT,Courier New" font-size="34.0" fill="#EAEAEA" transform="matrix(1.00, 0.00, -0.00, -1.00, 279.7, 256.2)"> </text><text xml:space="preserve" font-family="CourierNewPSMT,Courier New" font-size="34.0" fill="#EAEAEA" transform="matrix(1.00, 0.00, -0.00, -1.00, 300.1, 256.2)">m</text><text xml:space="preserve" font-family="CourierNewPSMT,Courier New" font-size="34.0" fill="#EAEAEA" transform="matrix(1.00, 0.00, -0.00, -1.00, 320.5, 256.2)">o</text><text xml:space="preserve" font-family="CourierNewPSMT,Courier New" font-size="34.0" fill="#EAEAEA" transform="matrix(1.00, 0.00, -0.00, -1.00, 340.9, 256.2)">n</text><text xml:space="preserve" font-family="CourierNewPSMT,Courier New" font-size="34.0" fill="#EAEAEA" transform="matrix(1.00, 0.00, -0.00, -1.00, 361.3, 256.2)">k</text><text xml:space="preserve" font-family="CourierNewPSMT,Courier New" font-size="34.0" fill="#EAEAEA" transform="matrix(1.00, 0.00, -0.00, -1.00, 381.7, 256.2)">e</text><text xml:space="preserve" font-family="CourierNewPSMT,Courier New" font-size="34.0" fill="#EAEAEA" transform="matrix(1.00, 0.00, -0.00, -1.00, 402.1, 256.2)">y</text><text xml:space="preserve" font-family="CourierNewPSMT,Courier New" font-size="34.0" fill="#EAEAEA" transform="matrix(1.00, 0.00, -0.00, -1.00, 422.5, 256.2)"> </text><text xml:space="preserve" font-family="CourierNewPSMT,Courier New" font-size="34.0" fill="#EAEAEA" transform="matrix(1.00, 0.00, -0.00, -1.00, 442.9, 256.2)">-</text><text xml:space="preserve" font-family="CourierNewPSMT,Courier New" font-size="34.0" fill="#EAEAEA" transform="matrix(1.00, 0.00, -0.00, -1.00, 463.3, 256.2)">p</text><text xml:space="preserve" font-family="CourierNewPSMT,Courier New" font-size="34.0" fill="#EAEAEA" transform="matrix(1.00, 0.00, -0.00, -1.00, 483.7, 256.2)"> </text><text xml:space="preserve" font-family="CourierNewPSMT,Courier New" font-size="34.0" fill="#EAEAEA" transform="matrix(1.00, 0.00, -0.00, -1.00, 504.1, 256.2)">c</text><text xml:space="preserve" font-family="CourierNewPSMT,Courier New" font-size="34.0" fill="#EAEAEA" transform="matrix(1.00, 0.00, -0.00, -1.00, 524.5, 256.2)">o</text><text xml:space="preserve" font-family="CourierNewPSMT,Courier New" font-size="34.0" fill="#EAEAEA" transform="matrix(1.00, 0.00, -0.00, -1.00, 544.9, 256.2)">m</text><text xml:space="preserve" font-family="CourierNewPSMT,Courier New" font-size="34.0" fill="#EAEAEA" transform="matrix(1.00, 0.00, -0.00, -1.00, 565.4, 256.2)">.</text><text xml:space="preserve" font-family="CourierNewPSMT,Courier New" font-size="34.0" fill="#EAEAEA" transform="matrix(1.00, 0.00, -0.00, -1.00, 585.8, 256.2)">p</text><text xml:space="preserve" font-family="CourierNewPSMT,Courier New" font-size="34.0" fill="#EAEAEA" transform="matrix(1.00, 0.00, -0.00, -1.00, 606.2, 256.2)">a</text><text xml:space="preserve" font-family="CourierNewPSMT,Courier New" font-size="34.0" fill="#EAEAEA" transform="matrix(1.00, 0.00, -0.00, -1.00, 626.6, 256.2)">c</text><text xml:space="preserve" font-family="CourierNewPSMT,Courier New" font-size="34.0" fill="#EAEAEA" transform="matrix(1.00, 0.00, -0.00, -1.00, 647.0, 256.2)">k</text><text xml:space="preserve" font-family="CourierNewPSMT,Courier New" font-size="34.0" fill="#EAEAEA" transform="matrix(1.00, 0.00, -0.00, -1.00, 667.4, 256.2)">a</text><text xml:space="preserve" font-family="CourierNewPSMT,Courier New" font-size="34.0" fill="#EAEAEA" transform="matrix(1.00, 0.00, -0.00, -1.00, 687.8, 256.2)">g</text><text xml:space="preserve" font-family="CourierNewPSMT,Courier New" font-size="34.0" fill="#EAEAEA" transform="matrix(1.00, 0.00, -0.00, -1.00, 708.2, 256.2)">e</text><text xml:space="preserve" font-family="CourierNewPSMT,Courier New" font-size="34.0" fill="#EAEAEA" transform="matrix(1.00, 0.00, -0.00, -1.00, 728.6, 256.2)"> </text><text xml:space="preserve" font-family="CourierNewPSMT,Courier New" font-size="34.0" fill="#EAEAEA" transform="matrix(1.00, 0.00, -0.00, -1.00, 749.0, 256.2)">-</text><text xml:space="preserve" font-family="CourierNewPSMT,Courier New" font-size="34.0" fill="#EAEAEA" transform="matrix(1.00, 0.00, -0.00, -1.00, 769.4, 256.2)">v</text><text xml:space="preserve" font-family="CourierNewPSMT,Courier New" font-size="34.0" fill="#EAEAEA" transform="matrix(1.00, 0.00, -0.00, -1.00, 789.8, 256.2)"> </text><text xml:space="preserve" font-family="CourierNewPSMT,Courier New" font-size="34.0" fill="#EAEAEA" transform="matrix(1.00, 0.00, -0.00, -1.00, 810.2, 256.2)">2</text><text xml:space="preserve" font-family="CourierNewPSMT,Courier New" font-size="34.0" fill="#EAEAEA" transform="matrix(1.00, 0.00, -0.00, -1.00, 830.6, 256.2)">0</text><text xml:space="preserve" font-family="CourierNewPSMT,Courier New" font-size="34.0" fill="#EAEAEA" transform="matrix(1.00, 0.00, -0.00, -1.00, 851.0, 256.2)">0</text><text xml:space="preserve" font-family="CourierNewPSMT,Courier New" font-size="34.0" fill="#EAEAEA" transform="matrix(1.00, 0.00, -0.00, -1.00, 871.5, 256.2)">0</text></g></svg>