<?xml version="1.0" encoding="UTF-8" standalone="no"?><svg xmlns="http://www.w3.org/2000/svg" xmlns:xlink="http://www.w3.org/1999/xlink" clip-rule="evenodd" stroke-miterlimit="10" viewBox="0 0 197 25"><desc>SVG generated by Keynote</desc><defs></defs><g transform="matrix(1.00, 0.00, -0.00, -1.00, 0.0, 25.0)"><image xlink:href="50F5DBBF50668DC20868951AACD9FF87.png" width="195.00" height="23.00" transform="matrix(1.00, 0.00, -0.00, -1.00, 1.0, 24.0)"></image><text xml:space="preserve" font-family="HelveticaNeue-Medium,Helvetica Neue" font-size="21.0" fill="#FEFFFE" transform="matrix(1.00, 0.00, -0.00, -1.00, 2.9, 6.2)">I</text><text xml:space="preserve" font-family="HelveticaNeue-Medium,Helvetica Neue" font-size="21.0" fill="#FEFFFE" transform="matrix(1.00, 0.00, -0.00, -1.00, 8.7, 6.2)">N</text><text xml:space="preserve" font-family="HelveticaNeue-Medium,Helvetica Neue" font-size="21.0" fill="#FEFFFE" transform="matrix(1.00, 0.00, -0.00, -1.00, 23.9, 6.2)">S</text><text xml:space="preserve" font-family="HelveticaNeue-Medium,Helvetica Neue" font-size="21.0" fill="#FEFFFE" transform="matrix(1.00, 0.00, -0.00, -1.00, 37.5, 6.2)">T</text><text xml:space="preserve" font-family="HelveticaNeue-Medium,Helvetica Neue" font-size="21.0" fill="#FEFFFE" transform="matrix(1.00, 0.00, -0.00, -1.00, 50.0, 6.2)">R</text><text xml:space="preserve" font-family="HelveticaNeue-Medium,Helvetica Neue" font-size="21.0" fill="#FEFFFE" transform="matrix(1.00, 0.00, -0.00, -1.00, 64.8, 6.2)">U</text><text xml:space="preserve" font-family="HelveticaNeue-Medium,Helvetica Neue" font-size="21.0" fill="#FEFFFE" transform="matrix(1.00, 0.00, -0.00, -1.00, 79.9, 6.2)">M</text><text xml:space="preserve" font-family="HelveticaNeue-Medium,Helvetica Neue" font-size="21.0" fill="#FEFFFE" transform="matrix(1.00, 0.00, -0.00, -1.00, 98.6, 6.2)">E</text><text xml:space="preserve" font-family="HelveticaNeue-Medium,Helvetica Neue" font-size="21.0" fill="#FEFFFE" transform="matrix(1.00, 0.00, -0.00, -1.00, 111.8, 6.2)">N</text><text xml:space="preserve" font-family="HelveticaNeue-Medium,Helvetica Neue" font-size="21.0" fill="#FEFFFE" transform="matrix(1.00, 0.00, -0.00, -1.00, 127.0, 6.2)">T</text><text xml:space="preserve" font-family="HelveticaNeue-Medium,Helvetica Neue" font-size="21.0" fill="#FEFFFE" transform="matrix(1.00, 0.00, -0.00, -1.00, 137.5, 6.2)">A</text><text xml:space="preserve" font-family="HelveticaNeue-Medium,Helvetica Neue" font-size="21.0" fill="#FEFFFE" transform="matrix(1.00, 0.00, -0.00, -1.00, 151.5, 6.2)">C</text><text xml:space="preserve" font-family="HelveticaNeue-Medium,Helvetica Neue" font-size="21.0" fill="#FEFFFE" transform="matrix(1.00, 0.00, -0.00, -1.00, 166.7, 6.2)">J</text><text xml:space="preserve" font-family="HelveticaNeue-Medium,Helvetica Neue" font-size="21.0" fill="#FEFFFE" transform="matrix(1.00, 0.00, -0.00, -1.00, 177.9, 6.2)">A</text></g></svg>