<?xml version="1.0" encoding="UTF-8" standalone="no"?><svg xmlns="http://www.w3.org/2000/svg" xmlns:xlink="http://www.w3.org/1999/xlink" clip-rule="evenodd" stroke-miterlimit="10" viewBox="0 0 194 29"><desc>SVG generated by Keynote</desc><defs></defs><g transform="matrix(1.00, 0.00, -0.00, -1.00, 0.0, 29.0)"><image xlink:href="ACC6A83CE098DFCDB739629E248F53D4.png" width="192.00" height="27.00" transform="matrix(1.00, 0.00, -0.00, -1.00, 1.0, 28.0)"></image><text xml:space="preserve" font-family="HelveticaNeue-Medium,Helvetica Neue" font-size="27.0" fill="#3B3B3B" transform="matrix(1.00, 0.00, -0.00, -1.00, 2.2, 8.6)">A</text><text xml:space="preserve" font-family="HelveticaNeue-Medium,Helvetica Neue" font-size="27.0" fill="#3B3B3B" transform="matrix(1.00, 0.00, -0.00, -1.00, 20.2, 8.6)">n</text><text xml:space="preserve" font-family="HelveticaNeue-Medium,Helvetica Neue" font-size="27.0" fill="#3B3B3B" transform="matrix(1.00, 0.00, -0.00, -1.00, 35.7, 8.6)">d</text><text xml:space="preserve" font-family="HelveticaNeue-Medium,Helvetica Neue" font-size="27.0" fill="#3B3B3B" transform="matrix(1.00, 0.00, -0.00, -1.00, 52.2, 8.6)">r</text><text xml:space="preserve" font-family="HelveticaNeue-Medium,Helvetica Neue" font-size="27.0" fill="#3B3B3B" transform="matrix(1.00, 0.00, -0.00, -1.00, 61.2, 8.6)">o</text><text xml:space="preserve" font-family="HelveticaNeue-Medium,Helvetica Neue" font-size="27.0" fill="#3B3B3B" transform="matrix(1.00, 0.00, -0.00, -1.00, 77.2, 8.6)">i</text><text xml:space="preserve" font-family="HelveticaNeue-Medium,Helvetica Neue" font-size="27.0" fill="#3B3B3B" transform="matrix(1.00, 0.00, -0.00, -1.00, 83.8, 8.6)">d</text><text xml:space="preserve" font-family="HelveticaNeue-Medium,Helvetica Neue" font-size="27.0" fill="#3B3B3B" transform="matrix(1.00, 0.00, -0.00, -1.00, 100.3, 8.6)"> </text><text xml:space="preserve" font-family="HelveticaNeue-Medium,Helvetica Neue" font-size="27.0" fill="#3B3B3B" transform="matrix(1.00, 0.00, -0.00, -1.00, 107.8, 8.6)">t</text><text xml:space="preserve" font-family="HelveticaNeue-Medium,Helvetica Neue" font-size="27.0" fill="#3B3B3B" transform="matrix(1.00, 0.00, -0.00, -1.00, 116.8, 8.6)">e</text><text xml:space="preserve" font-family="HelveticaNeue-Medium,Helvetica Neue" font-size="27.0" fill="#3B3B3B" transform="matrix(1.00, 0.00, -0.00, -1.00, 131.8, 8.6)">s</text><text xml:space="preserve" font-family="HelveticaNeue-Medium,Helvetica Neue" font-size="27.0" fill="#3B3B3B" transform="matrix(1.00, 0.00, -0.00, -1.00, 145.8, 8.6)">t</text><text xml:space="preserve" font-family="HelveticaNeue-Medium,Helvetica Neue" font-size="27.0" fill="#3B3B3B" transform="matrix(1.00, 0.00, -0.00, -1.00, 154.8, 8.6)">i</text><text xml:space="preserve" font-family="HelveticaNeue-Medium,Helvetica Neue" font-size="27.0" fill="#3B3B3B" transform="matrix(1.00, 0.00, -0.00, -1.00, 161.3, 8.6)">n</text><text xml:space="preserve" font-family="HelveticaNeue-Medium,Helvetica Neue" font-size="27.0" fill="#3B3B3B" transform="matrix(1.00, 0.00, -0.00, -1.00, 176.8, 8.6)">g</text></g></svg>