<?xml version="1.0" encoding="UTF-8" standalone="no"?><svg xmlns="http://www.w3.org/2000/svg" xmlns:xlink="http://www.w3.org/1999/xlink" clip-rule="evenodd" stroke-miterlimit="10" viewBox="0 0 610 529"><desc>SVG generated by Keynote</desc><defs><linearGradient id="gradSh1.6" x1="0.0" y1="0.0" x2="100.0" y2="0.0" gradientUnits="userSpaceOnUse" gradientTransform="matrix(0.00, -5.28, -6.09, 0.00, 304.5, 529.0)"><stop offset="0.00000" stop-color="#FFFFFF"></stop><stop offset="0.00440" stop-color="#FEFFFF"></stop><stop offset="1.00000" stop-color="#8DF4EF"></stop></linearGradient></defs><g transform="matrix(1.00, 0.00, -0.00, -1.00, 0.0, 529.0)"><g><clipPath id="clip0x608001eaf420"><path d="M 1.3 41.9 L 1.0 488.1 C 1.0 510.1 19.2 528.0 41.2 528.0 L 568.4 528.0 C 590.5 528.0 608.0 510.1 608.0 488.1 L 608.0 41.9 C 608.0 19.9 590.5 2.0 568.4 2.0 L 41.2 2.0 C 19.2 2.0 1.3 19.9 1.3 41.9 Z M 1.3 41.9 "></path></clipPath><g clip-path="url(#clip0x608001eaf420)"><path d="M 1.3 41.9 L 1.0 488.1 C 1.0 510.1 19.2 528.0 41.2 528.0 L 568.4 528.0 C 590.5 528.0 608.0 510.1 608.0 488.1 L 608.0 41.9 C 608.0 19.9 590.5 2.0 568.4 2.0 L 41.2 2.0 C 19.2 2.0 1.3 19.9 1.3 41.9 Z M 1.3 41.9 " fill="url(#gradSh1.6)"></path></g></g></g></svg>