<?xml version="1.0" encoding="UTF-8" standalone="no"?><svg xmlns="http://www.w3.org/2000/svg" xmlns:xlink="http://www.w3.org/1999/xlink" clip-rule="evenodd" stroke-miterlimit="10" viewBox="0 0 199 119"><desc>SVG generated by Keynote</desc><defs><linearGradient id="gradSh1.5" x1="0.0" y1="0.0" x2="100.0" y2="0.0" gradientUnits="userSpaceOnUse" gradientTransform="matrix(0.00, -1.18, -1.98, 0.00, 99.8, 119.0)"><stop offset="0.00000" stop-color="#FFFFFF"></stop><stop offset="0.00440" stop-color="#FEFFFF"></stop><stop offset="1.00000" stop-color="#8DF4EF"></stop></linearGradient></defs><g transform="matrix(1.00, 0.00, -0.00, -1.00, 0.0, 119.0)"><g><clipPath id="clip0x608001caa9e0"><path d="M 1.7 17.0 L 2.0 103.0 C 2.0 111.3 8.4 118.0 16.7 118.0 L 182.7 118.0 C 191.0 118.0 198.0 111.3 198.0 103.0 L 198.0 17.0 C 198.0 8.7 191.0 2.0 182.7 2.0 L 16.7 2.0 C 8.4 2.0 1.7 8.7 1.7 17.0 Z M 1.7 17.0 "></path></clipPath><g clip-path="url(#clip0x608001caa9e0)"><path d="M 1.7 17.0 L 2.0 103.0 C 2.0 111.3 8.4 118.0 16.7 118.0 L 182.7 118.0 C 191.0 118.0 198.0 111.3 198.0 103.0 L 198.0 17.0 C 198.0 8.7 191.0 2.0 182.7 2.0 L 16.7 2.0 C 8.4 2.0 1.7 8.7 1.7 17.0 Z M 1.7 17.0 " fill="url(#gradSh1.5)"></path></g></g></g></svg>