<?xml version="1.0" encoding="UTF-8" standalone="no"?><svg xmlns="http://www.w3.org/2000/svg" xmlns:xlink="http://www.w3.org/1999/xlink" clip-rule="evenodd" stroke-miterlimit="10" viewBox="0 0 279 261"><desc>SVG generated by Keynote</desc><defs><linearGradient id="gradSh1.7" x1="0.0" y1="0.0" x2="100.0" y2="0.0" gradientUnits="userSpaceOnUse" gradientTransform="matrix(0.00, -2.60, -2.78, 0.00, 139.8, 261.0)"><stop offset="0.00000" stop-color="#FFFFFF"></stop><stop offset="0.00440" stop-color="#FEFFFF"></stop><stop offset="1.00000" stop-color="#8DF4EF"></stop></linearGradient></defs><g transform="matrix(1.00, 0.00, -0.00, -1.00, 0.0, 261.0)"><g><clipPath id="clip0x6000028b8ae0"><path d="M 1.7 38.9 L 2.0 223.0 C 2.0 243.4 18.2 260.0 38.6 260.0 L 240.7 260.0 C 261.1 260.0 278.0 243.4 278.0 223.0 L 278.0 38.9 C 278.0 18.5 261.1 2.0 240.7 2.0 L 38.6 2.0 C 18.2 2.0 1.7 18.5 1.7 38.9 Z M 1.7 38.9 "></path></clipPath><g clip-path="url(#clip0x6000028b8ae0)"><path d="M 1.7 38.9 L 2.0 223.0 C 2.0 243.4 18.2 260.0 38.6 260.0 L 240.7 260.0 C 261.1 260.0 278.0 243.4 278.0 223.0 L 278.0 38.9 C 278.0 18.5 261.1 2.0 240.7 2.0 L 38.6 2.0 C 18.2 2.0 1.7 18.5 1.7 38.9 Z M 1.7 38.9 " fill="url(#gradSh1.7)"></path></g></g></g></svg>