<?xml version="1.0" encoding="UTF-8" standalone="no"?><svg xmlns="http://www.w3.org/2000/svg" xmlns:xlink="http://www.w3.org/1999/xlink" clip-rule="evenodd" stroke-miterlimit="10" viewBox="0 0 1024 768"><desc>SVG generated by Keynote</desc><defs><linearGradient id="gradSh1.8" x1="0.0" y1="0.0" x2="100.0" y2="0.0" gradientUnits="userSpaceOnUse" gradientTransform="matrix(0.00, -1.02, -1.14, 0.00, 512.0, 715.0)"><stop offset="0.00000" stop-color="#54BFB9"></stop><stop offset="0.00073" stop-color="#53BFB9"></stop><stop offset="1.00000" stop-color="#008384"></stop></linearGradient><linearGradient id="gradSh2.9" x1="0.0" y1="0.0" x2="100.0" y2="0.0" gradientUnits="userSpaceOnUse" gradientTransform="matrix(0.00, -5.28, -6.09, 0.00, 342.5, 554.0)"><stop offset="0.00000" stop-color="#FFFFFF"></stop><stop offset="0.00440" stop-color="#FEFFFF"></stop><stop offset="1.00000" stop-color="#8DF4EF"></stop></linearGradient><linearGradient id="gradSh2.10" x1="0.0" y1="0.0" x2="100.0" y2="0.0" gradientUnits="userSpaceOnUse" gradientTransform="matrix(0.00, -2.60, -2.78, 0.00, 841.8, 545.0)"><stop offset="0.00000" stop-color="#FFFFFF"></stop><stop offset="0.00440" stop-color="#FEFFFF"></stop><stop offset="1.00000" stop-color="#8DF4EF"></stop></linearGradient><pattern id="patternP1" patternUnits="userSpaceOnUse" width="512" height="512" viewBox="0 0 512 512"><image xlink:href="../../ED0ABAD0-9221-4D59-891E-443D39B5FD4E/assets/71D9304BD44382C20CC202032C6D6058.png" width="512.00" height="512.00"></image></pattern><pattern id="patternP2" patternUnits="userSpaceOnUse" width="512" height="512" viewBox="0 0 512 512"><image xlink:href="../../ED0ABAD0-9221-4D59-891E-443D39B5FD4E/assets/3F6D74C910E7B503E47B3D5208BAB35F.png" width="512.00" height="512.00"></image></pattern></defs><g transform="matrix(1.00, 0.00, -0.00, -1.00, 0.0, 768.0)"><g><clipPath id="clip0x6080020b2b40"><path d="M 0.0 768.0 L 1024.0 768.0 L 1024.0 0.0 L 0.0 0.0 Z M 0.0 768.0 "></path></clipPath><g clip-path="url(#clip0x6080020b2b40)"><image xlink:href="../../073872A3-6B4A-4DBD-B237-E9D6C1798DA3/assets/9397CAD6F20342ACC2646ABBCA758461.jpeg" width="2048.00" height="1536.00" transform="matrix(0.50, 0.00, -0.00, -0.50, 0.0, 768.0)"></image></g></g><image xlink:href="../../B113375E-C86F-40B3-97BE-BF77DF95A2F0/assets/5DBD5904E3A18E0CB68000161AAC9B34.png" width="120.00" height="108.00" transform="matrix(1.00, 0.00, -0.00, -1.00, 452.0, 716.0)" opacity="0.50"></image><g><clipPath id="clip0x600002ebdc40"><path d="M 456.0 629.0 L 456.0 699.0 C 456.0 707.3 462.7 714.0 471.0 714.0 L 553.0 714.0 C 561.3 714.0 568.0 707.3 568.0 699.0 L 568.0 629.0 C 568.0 620.7 561.3 614.0 553.0 614.0 L 471.0 614.0 C 462.7 614.0 456.0 620.7 456.0 629.0 Z M 456.0 629.0 "></path></clipPath><g clip-path="url(#clip0x600002ebdc40)"><path d="M 456.0 629.0 L 456.0 699.0 C 456.0 707.3 462.7 714.0 471.0 714.0 L 553.0 714.0 C 561.3 714.0 568.0 707.3 568.0 699.0 L 568.0 629.0 C 568.0 620.7 561.3 614.0 553.0 614.0 L 471.0 614.0 C 462.7 614.0 456.0 620.7 456.0 629.0 Z M 456.0 629.0 " fill="url(#gradSh1.8)"></path></g></g><image xlink:href="../../B113375E-C86F-40B3-97BE-BF77DF95A2F0/assets/3EF75894D94C02FEE42BCFFF6C4FB732.png" width="96.00" height="26.00" transform="matrix(1.00, 0.00, -0.00, -1.00, 464.0, 676.0)"></image><g><clipPath id="clip0x6000030bf4a0"><path d="M 450.1 614.0 L 573.9 614.0 L 573.9 714.0 L 450.1 714.0 Z M 450.1 614.0 "></path></clipPath><g clip-path="url(#clip0x6000030bf4a0)"><text xml:space="preserve" font-family="HelveticaNeue-Medium,Helvetica Neue" font-size="30.0" fill="#3B3B3B" transform="matrix(1.00, 0.00, -0.00, -1.00, 465.3, 653.1)">T</text><text xml:space="preserve" font-family="HelveticaNeue-Medium,Helvetica Neue" font-size="30.0" fill="#3B3B3B" transform="matrix(1.00, 0.00, -0.00, -1.00, 483.1, 653.1)">E</text><text xml:space="preserve" font-family="HelveticaNeue-Medium,Helvetica Neue" font-size="30.0" fill="#3B3B3B" transform="matrix(1.00, 0.00, -0.00, -1.00, 502.0, 653.1)">S</text><text xml:space="preserve" font-family="HelveticaNeue-Medium,Helvetica Neue" font-size="30.0" fill="#3B3B3B" transform="matrix(1.00, 0.00, -0.00, -1.00, 521.5, 653.1)">T</text><text xml:space="preserve" font-family="HelveticaNeue-Medium,Helvetica Neue" font-size="30.0" fill="#3B3B3B" transform="matrix(1.00, 0.00, -0.00, -1.00, 539.2, 653.1)">Y</text></g></g><image xlink:href="1EBDDE5BAC9EA83E8194E5241475FA99.png" width="615.00" height="534.00" transform="matrix(1.00, 0.00, -0.00, -1.00, 35.3, 555.0)" opacity="0.50"></image><g><clipPath id="clip0x6000030bf920"><path d="M 39.3 66.9 L 39.0 513.1 C 39.0 535.1 57.2 553.0 79.2 553.0 L 606.4 553.0 C 628.5 553.0 646.0 535.1 646.0 513.1 L 646.0 66.9 C 646.0 44.9 628.5 27.0 606.4 27.0 L 79.2 27.0 C 57.2 27.0 39.3 44.9 39.3 66.9 Z M 39.3 66.9 "></path></clipPath><g clip-path="url(#clip0x6000030bf920)"><path d="M 39.3 66.9 L 39.0 513.1 C 39.0 535.1 57.2 553.0 79.2 553.0 L 606.4 553.0 C 628.5 553.0 646.0 535.1 646.0 513.1 L 646.0 66.9 C 646.0 44.9 628.5 27.0 606.4 27.0 L 79.2 27.0 C 57.2 27.0 39.3 44.9 39.3 66.9 Z M 39.3 66.9 " fill="url(#gradSh2.9)"></path></g></g><image xlink:href="../../ED0ABAD0-9221-4D59-891E-443D39B5FD4E/assets/2E46D03A315971B7FAF439FE296B979F.png" width="147.00" height="25.00" transform="matrix(1.00, 0.00, -0.00, -1.00, 79.0, 544.0)"></image><g><clipPath id="clip0x6000032bfce0"><path d="M 39.3 27.0 L 646.3 27.0 L 646.3 555.8 L 39.3 555.8 Z M 39.3 27.0 "></path></clipPath><g clip-path="url(#clip0x6000032bfce0)"><text xml:space="preserve" font-family="HelveticaNeue-Medium,Helvetica Neue" font-size="23.0" fill="#3B3B3B" transform="matrix(1.00, 0.00, -0.00, -1.00, 79.2, 526.6)">U</text><text xml:space="preserve" font-family="HelveticaNeue-Medium,Helvetica Neue" font-size="23.0" fill="#3B3B3B" transform="matrix(1.00, 0.00, -0.00, -1.00, 95.8, 526.6)">R</text><text xml:space="preserve" font-family="HelveticaNeue-Medium,Helvetica Neue" font-size="23.0" fill="#3B3B3B" transform="matrix(1.00, 0.00, -0.00, -1.00, 112.0, 526.6)">Z</text><text xml:space="preserve" font-family="HelveticaNeue-Medium,Helvetica Neue" font-size="23.0" fill="#3B3B3B" transform="matrix(1.00, 0.00, -0.00, -1.00, 126.5, 526.6)">Ą</text><text xml:space="preserve" font-family="HelveticaNeue-Medium,Helvetica Neue" font-size="23.0" fill="#3B3B3B" transform="matrix(1.00, 0.00, -0.00, -1.00, 141.9, 526.6)">D</text><text xml:space="preserve" font-family="HelveticaNeue-Medium,Helvetica Neue" font-size="23.0" fill="#3B3B3B" transform="matrix(1.00, 0.00, -0.00, -1.00, 158.5, 526.6)">Z</text><text xml:space="preserve" font-family="HelveticaNeue-Medium,Helvetica Neue" font-size="23.0" fill="#3B3B3B" transform="matrix(1.00, 0.00, -0.00, -1.00, 173.0, 526.6)">E</text><text xml:space="preserve" font-family="HelveticaNeue-Medium,Helvetica Neue" font-size="23.0" fill="#3B3B3B" transform="matrix(1.00, 0.00, -0.00, -1.00, 187.4, 526.6)">N</text><text xml:space="preserve" font-family="HelveticaNeue-Medium,Helvetica Neue" font-size="23.0" fill="#3B3B3B" transform="matrix(1.00, 0.00, -0.00, -1.00, 204.0, 526.6)">I</text><text xml:space="preserve" font-family="HelveticaNeue-Medium,Helvetica Neue" font-size="23.0" fill="#3B3B3B" transform="matrix(1.00, 0.00, -0.00, -1.00, 210.4, 526.6)">E</text></g></g><image xlink:href="95887020E3EF867F442341A5E2D2BA31.png" width="284.00" height="266.00" transform="matrix(1.00, 0.00, -0.00, -1.00, 699.7, 546.0)" opacity="0.50"></image><g><clipPath id="clip0x6000034a0360"><path d="M 703.7 322.9 L 704.0 507.0 C 704.0 527.4 720.2 544.0 740.6 544.0 L 942.7 544.0 C 963.1 544.0 980.0 527.4 980.0 507.0 L 980.0 322.9 C 980.0 302.5 963.1 286.0 942.7 286.0 L 740.6 286.0 C 720.2 286.0 703.7 302.5 703.7 322.9 Z M 703.7 322.9 "></path></clipPath><g clip-path="url(#clip0x6000034a0360)"><path d="M 703.7 322.9 L 704.0 507.0 C 704.0 527.4 720.2 544.0 740.6 544.0 L 942.7 544.0 C 963.1 544.0 980.0 527.4 980.0 507.0 L 980.0 322.9 C 980.0 302.5 963.1 286.0 942.7 286.0 L 740.6 286.0 C 720.2 286.0 703.7 302.5 703.7 322.9 Z M 703.7 322.9 " fill="url(#gradSh2.10)"></path></g></g><image xlink:href="../../ED0ABAD0-9221-4D59-891E-443D39B5FD4E/assets/04D663EB0E0EB98699FC11AF1BF8397F.png" width="48.00" height="20.00" transform="matrix(1.00, 0.00, -0.00, -1.00, 739.0, 535.0)"></image><g><clipPath id="clip0x6000036a0660"><path d="M 703.7 286.0 L 979.7 286.0 L 979.7 546.8 L 703.7 546.8 Z M 703.7 286.0 "></path></clipPath><g clip-path="url(#clip0x6000036a0660)"><text xml:space="preserve" font-family="HelveticaNeue-Medium,Helvetica Neue" font-size="23.0" fill="#3B3B3B" transform="matrix(1.00, 0.00, -0.00, -1.00, 740.6, 517.6)">J</text><text xml:space="preserve" font-family="HelveticaNeue-Medium,Helvetica Neue" font-size="23.0" fill="#3B3B3B" transform="matrix(1.00, 0.00, -0.00, -1.00, 753.0, 517.6)">V</text><text xml:space="preserve" font-family="HelveticaNeue-Medium,Helvetica Neue" font-size="23.0" fill="#3B3B3B" transform="matrix(1.00, 0.00, -0.00, -1.00, 767.1, 517.6)">M</text></g></g><path d="M 0.0 0.0 L 180.5 0.0 L 182.0 0.0 " fill="none" stroke="#878787" stroke-width="3.00" transform="matrix(-0.95, -0.31, -0.31, 0.95, 513.0, 613.3)"></path><path d="M 339.2 564.0 L 328.7 553.7 L 343.3 551.5 Z M 339.2 564.0 " fill="#878787"></path><path d="M 0.0 0.0 L 327.9 0.0 L 329.4 0.0 " fill="none" stroke="#878787" stroke-width="3.00" transform="matrix(0.98, -0.21, -0.21, -0.98, 515.0, 615.5)"></path><path d="M 834.3 541.1 L 848.6 544.8 L 837.1 554.0 Z M 834.3 541.1 " fill="#878787"></path><image xlink:href="../../ED0ABAD0-9221-4D59-891E-443D39B5FD4E/assets/11838AD6E7F4A970061CFB6550FD4213.png" width="540.00" height="294.00" transform="matrix(1.00, 0.00, -0.00, -1.00, 73.0, 499.0)" opacity="0.50"></image><g><clipPath id="clip0x6000036a0c60"><path d="M 77.0 253.9 L 77.0 454.1 C 77.0 477.8 96.2 497.0 119.9 497.0 L 565.8 497.0 C 589.4 497.0 609.0 477.8 609.0 454.1 L 609.0 253.9 C 609.0 230.2 589.4 211.0 565.8 211.0 L 119.9 211.0 C 96.2 211.0 77.0 230.2 77.0 253.9 Z M 77.0 253.9 "></path></clipPath><g clip-path="url(#clip0x6000036a0c60)"><path d="M 77.0 211.0 L 609.0 211.0 L 609.0 497.0 L 77.0 497.0 Z M 77.0 211.0 " fill="url(#patternP1)"></path></g></g><image xlink:href="../../ED0ABAD0-9221-4D59-891E-443D39B5FD4E/assets/50F5DBBF50668DC20868951AACD9FF87.png" width="195.00" height="23.00" transform="matrix(1.00, 0.00, -0.00, -1.00, 118.0, 490.0)"></image><g><clipPath id="clip0x6080020b3e60"><path d="M 77.0 211.0 L 608.7 211.0 L 608.7 501.3 L 77.0 501.3 Z M 77.0 211.0 "></path></clipPath><g clip-path="url(#clip0x6080020b3e60)"><text xml:space="preserve" font-family="HelveticaNeue-Medium,Helvetica Neue" font-size="21.0" fill="#FEFFFE" transform="matrix(1.00, 0.00, -0.00, -1.00, 119.9, 472.2)">I</text><text xml:space="preserve" font-family="HelveticaNeue-Medium,Helvetica Neue" font-size="21.0" fill="#FEFFFE" transform="matrix(1.00, 0.00, -0.00, -1.00, 125.7, 472.2)">N</text><text xml:space="preserve" font-family="HelveticaNeue-Medium,Helvetica Neue" font-size="21.0" fill="#FEFFFE" transform="matrix(1.00, 0.00, -0.00, -1.00, 140.9, 472.2)">S</text><text xml:space="preserve" font-family="HelveticaNeue-Medium,Helvetica Neue" font-size="21.0" fill="#FEFFFE" transform="matrix(1.00, 0.00, -0.00, -1.00, 154.5, 472.2)">T</text><text xml:space="preserve" font-family="HelveticaNeue-Medium,Helvetica Neue" font-size="21.0" fill="#FEFFFE" transform="matrix(1.00, 0.00, -0.00, -1.00, 167.0, 472.2)">R</text><text xml:space="preserve" font-family="HelveticaNeue-Medium,Helvetica Neue" font-size="21.0" fill="#FEFFFE" transform="matrix(1.00, 0.00, -0.00, -1.00, 181.8, 472.2)">U</text><text xml:space="preserve" font-family="HelveticaNeue-Medium,Helvetica Neue" font-size="21.0" fill="#FEFFFE" transform="matrix(1.00, 0.00, -0.00, -1.00, 196.9, 472.2)">M</text><text xml:space="preserve" font-family="HelveticaNeue-Medium,Helvetica Neue" font-size="21.0" fill="#FEFFFE" transform="matrix(1.00, 0.00, -0.00, -1.00, 215.6, 472.2)">E</text><text xml:space="preserve" font-family="HelveticaNeue-Medium,Helvetica Neue" font-size="21.0" fill="#FEFFFE" transform="matrix(1.00, 0.00, -0.00, -1.00, 228.8, 472.2)">N</text><text xml:space="preserve" font-family="HelveticaNeue-Medium,Helvetica Neue" font-size="21.0" fill="#FEFFFE" transform="matrix(1.00, 0.00, -0.00, -1.00, 244.0, 472.2)">T</text><text xml:space="preserve" font-family="HelveticaNeue-Medium,Helvetica Neue" font-size="21.0" fill="#FEFFFE" transform="matrix(1.00, 0.00, -0.00, -1.00, 254.5, 472.2)">A</text><text xml:space="preserve" font-family="HelveticaNeue-Medium,Helvetica Neue" font-size="21.0" fill="#FEFFFE" transform="matrix(1.00, 0.00, -0.00, -1.00, 268.5, 472.2)">C</text><text xml:space="preserve" font-family="HelveticaNeue-Medium,Helvetica Neue" font-size="21.0" fill="#FEFFFE" transform="matrix(1.00, 0.00, -0.00, -1.00, 283.7, 472.2)">J</text><text xml:space="preserve" font-family="HelveticaNeue-Medium,Helvetica Neue" font-size="21.0" fill="#FEFFFE" transform="matrix(1.00, 0.00, -0.00, -1.00, 294.9, 472.2)">A</text></g></g><image xlink:href="../../ED0ABAD0-9221-4D59-891E-443D39B5FD4E/assets/93782E89956EE674CDECF30CB7C5FEEB.png" width="267.00" height="108.00" transform="matrix(1.00, 0.00, -0.00, -1.00, 109.0, 458.0)" opacity="0.50"></image><g><clipPath id="clip0x6000036a0f00"><path d="M 113.0 456.0 L 372.0 456.0 L 372.0 356.0 L 113.0 356.0 Z M 113.0 456.0 "></path></clipPath><g clip-path="url(#clip0x6000036a0f00)"><path d="M 113.0 356.0 L 372.0 356.0 L 372.0 456.0 L 113.0 456.0 Z M 113.0 356.0 " fill="url(#patternP2)"></path></g></g><image xlink:href="../../ED0ABAD0-9221-4D59-891E-443D39B5FD4E/assets/ACC6A83CE098DFCDB739629E248F53D4.png" width="192.00" height="27.00" transform="matrix(1.00, 0.00, -0.00, -1.00, 146.0, 432.0)"></image><g><clipPath id="clip0x6080020b29c0"><path d="M 108.0 356.0 L 377.0 356.0 L 377.0 456.0 L 108.0 456.0 Z M 108.0 356.0 "></path></clipPath><g clip-path="url(#clip0x6080020b29c0)"><text xml:space="preserve" font-family="HelveticaNeue-Medium,Helvetica Neue" font-size="27.0" fill="#3B3B3B" transform="matrix(1.00, 0.00, -0.00, -1.00, 147.2, 412.6)">A</text><text xml:space="preserve" font-family="HelveticaNeue-Medium,Helvetica Neue" font-size="27.0" fill="#3B3B3B" transform="matrix(1.00, 0.00, -0.00, -1.00, 165.2, 412.6)">n</text><text xml:space="preserve" font-family="HelveticaNeue-Medium,Helvetica Neue" font-size="27.0" fill="#3B3B3B" transform="matrix(1.00, 0.00, -0.00, -1.00, 180.7, 412.6)">d</text><text xml:space="preserve" font-family="HelveticaNeue-Medium,Helvetica Neue" font-size="27.0" fill="#3B3B3B" transform="matrix(1.00, 0.00, -0.00, -1.00, 197.2, 412.6)">r</text><text xml:space="preserve" font-family="HelveticaNeue-Medium,Helvetica Neue" font-size="27.0" fill="#3B3B3B" transform="matrix(1.00, 0.00, -0.00, -1.00, 206.2, 412.6)">o</text><text xml:space="preserve" font-family="HelveticaNeue-Medium,Helvetica Neue" font-size="27.0" fill="#3B3B3B" transform="matrix(1.00, 0.00, -0.00, -1.00, 222.2, 412.6)">i</text><text xml:space="preserve" font-family="HelveticaNeue-Medium,Helvetica Neue" font-size="27.0" fill="#3B3B3B" transform="matrix(1.00, 0.00, -0.00, -1.00, 228.8, 412.6)">d</text><text xml:space="preserve" font-family="HelveticaNeue-Medium,Helvetica Neue" font-size="27.0" fill="#3B3B3B" transform="matrix(1.00, 0.00, -0.00, -1.00, 245.3, 412.6)"> </text><text xml:space="preserve" font-family="HelveticaNeue-Medium,Helvetica Neue" font-size="27.0" fill="#3B3B3B" transform="matrix(1.00, 0.00, -0.00, -1.00, 252.8, 412.6)">t</text><text xml:space="preserve" font-family="HelveticaNeue-Medium,Helvetica Neue" font-size="27.0" fill="#3B3B3B" transform="matrix(1.00, 0.00, -0.00, -1.00, 261.8, 412.6)">e</text><text xml:space="preserve" font-family="HelveticaNeue-Medium,Helvetica Neue" font-size="27.0" fill="#3B3B3B" transform="matrix(1.00, 0.00, -0.00, -1.00, 276.8, 412.6)">s</text><text xml:space="preserve" font-family="HelveticaNeue-Medium,Helvetica Neue" font-size="27.0" fill="#3B3B3B" transform="matrix(1.00, 0.00, -0.00, -1.00, 290.8, 412.6)">t</text><text xml:space="preserve" font-family="HelveticaNeue-Medium,Helvetica Neue" font-size="27.0" fill="#3B3B3B" transform="matrix(1.00, 0.00, -0.00, -1.00, 299.8, 412.6)">i</text><text xml:space="preserve" font-family="HelveticaNeue-Medium,Helvetica Neue" font-size="27.0" fill="#3B3B3B" transform="matrix(1.00, 0.00, -0.00, -1.00, 306.3, 412.6)">n</text><text xml:space="preserve" font-family="HelveticaNeue-Medium,Helvetica Neue" font-size="27.0" fill="#3B3B3B" transform="matrix(1.00, 0.00, -0.00, -1.00, 321.8, 412.6)">g</text><text xml:space="preserve" font-family="HelveticaNeue-Medium,Helvetica Neue" font-size="27.0" fill="#3B3B3B" transform="matrix(1.00, 0.00, -0.00, -1.00, 337.8, 412.6)"> </text></g></g><image xlink:href="../../ED0ABAD0-9221-4D59-891E-443D39B5FD4E/assets/7842DDE73107AE44C6CD53E8A8952523.png" width="135.00" height="22.00" transform="matrix(1.00, 0.00, -0.00, -1.00, 175.0, 399.0)"></image><g><clipPath id="clip0x6080020b3320"><path d="M 108.0 356.0 L 377.0 356.0 L 377.0 456.0 L 108.0 456.0 Z M 108.0 356.0 "></path></clipPath><g clip-path="url(#clip0x6080020b3320)"><text xml:space="preserve" font-family="HelveticaNeue-Medium,Helvetica Neue" font-size="27.0" fill="#3B3B3B" transform="matrix(1.00, 0.00, -0.00, -1.00, 176.2, 379.6)">f</text><text xml:space="preserve" font-family="HelveticaNeue-Medium,Helvetica Neue" font-size="27.0" fill="#3B3B3B" transform="matrix(1.00, 0.00, -0.00, -1.00, 184.7, 379.6)">r</text><text xml:space="preserve" font-family="HelveticaNeue-Medium,Helvetica Neue" font-size="27.0" fill="#3B3B3B" transform="matrix(1.00, 0.00, -0.00, -1.00, 194.2, 379.6)">a</text><text xml:space="preserve" font-family="HelveticaNeue-Medium,Helvetica Neue" font-size="27.0" fill="#3B3B3B" transform="matrix(1.00, 0.00, -0.00, -1.00, 209.2, 379.6)">m</text><text xml:space="preserve" font-family="HelveticaNeue-Medium,Helvetica Neue" font-size="27.0" fill="#3B3B3B" transform="matrix(1.00, 0.00, -0.00, -1.00, 232.7, 379.6)">e</text><text xml:space="preserve" font-family="HelveticaNeue-Medium,Helvetica Neue" font-size="27.0" fill="#3B3B3B" transform="matrix(1.00, 0.00, -0.00, -1.00, 247.8, 379.6)">w</text><text xml:space="preserve" font-family="HelveticaNeue-Medium,Helvetica Neue" font-size="27.0" fill="#3B3B3B" transform="matrix(1.00, 0.00, -0.00, -1.00, 268.8, 379.6)">o</text><text xml:space="preserve" font-family="HelveticaNeue-Medium,Helvetica Neue" font-size="27.0" fill="#3B3B3B" transform="matrix(1.00, 0.00, -0.00, -1.00, 284.8, 379.6)">r</text><text xml:space="preserve" font-family="HelveticaNeue-Medium,Helvetica Neue" font-size="27.0" fill="#3B3B3B" transform="matrix(1.00, 0.00, -0.00, -1.00, 294.3, 379.6)">k</text><text xml:space="preserve" font-family="HelveticaNeue-Medium,Helvetica Neue" font-size="27.0" fill="#3B3B3B" transform="matrix(1.00, 0.00, -0.00, -1.00, 308.8, 379.6)"> </text></g></g><image xlink:href="../../ED0ABAD0-9221-4D59-891E-443D39B5FD4E/assets/FFBCBC62F3F7DDFDD1FE1A6C49CF93A6.png" width="168.00" height="108.00" transform="matrix(1.00, 0.00, -0.00, -1.00, 390.0, 458.0)" opacity="0.50"></image><g><clipPath id="clip0x6080028b4280"><path d="M 394.0 456.0 L 554.0 456.0 L 554.0 356.0 L 394.0 356.0 Z M 394.0 456.0 "></path></clipPath><g clip-path="url(#clip0x6080028b4280)"><image xlink:href="../../ED0ABAD0-9221-4D59-891E-443D39B5FD4E/assets/3F6D74C910E7B503E47B3D5208BAB35F.png" width="512.00" height="512.00" transform="matrix(0.50, 0.00, -0.00, -0.50, 394.0, 456.0)"></image></g></g><image xlink:href="../../ED0ABAD0-9221-4D59-891E-443D39B5FD4E/assets/25E9832AF6574BED1E488C49CCC521B6.png" width="115.00" height="27.00" transform="matrix(1.00, 0.00, -0.00, -1.00, 417.0, 415.0)"></image><g><clipPath id="clip0x6000036a12c0"><path d="M 389.0 356.0 L 559.0 356.0 L 559.0 456.0 L 389.0 456.0 Z M 389.0 356.0 "></path></clipPath><g clip-path="url(#clip0x6000036a12c0)"><text xml:space="preserve" font-family="HelveticaNeue-Medium,Helvetica Neue" font-size="27.0" fill="#3B3B3B" transform="matrix(1.00, 0.00, -0.00, -1.00, 416.2, 395.6)">E</text><text xml:space="preserve" font-family="HelveticaNeue-Medium,Helvetica Neue" font-size="27.0" fill="#3B3B3B" transform="matrix(1.00, 0.00, -0.00, -1.00, 433.2, 395.6)">s</text><text xml:space="preserve" font-family="HelveticaNeue-Medium,Helvetica Neue" font-size="27.0" fill="#3B3B3B" transform="matrix(1.00, 0.00, -0.00, -1.00, 447.2, 395.6)">p</text><text xml:space="preserve" font-family="HelveticaNeue-Medium,Helvetica Neue" font-size="27.0" fill="#3B3B3B" transform="matrix(1.00, 0.00, -0.00, -1.00, 463.7, 395.6)">r</text><text xml:space="preserve" font-family="HelveticaNeue-Medium,Helvetica Neue" font-size="27.0" fill="#3B3B3B" transform="matrix(1.00, 0.00, -0.00, -1.00, 472.7, 395.6)">e</text><text xml:space="preserve" font-family="HelveticaNeue-Medium,Helvetica Neue" font-size="27.0" fill="#3B3B3B" transform="matrix(1.00, 0.00, -0.00, -1.00, 487.8, 395.6)">s</text><text xml:space="preserve" font-family="HelveticaNeue-Medium,Helvetica Neue" font-size="27.0" fill="#3B3B3B" transform="matrix(1.00, 0.00, -0.00, -1.00, 501.8, 395.6)">s</text><text xml:space="preserve" font-family="HelveticaNeue-Medium,Helvetica Neue" font-size="27.0" fill="#3B3B3B" transform="matrix(1.00, 0.00, -0.00, -1.00, 515.8, 395.6)">o</text></g></g><image xlink:href="../../ED0ABAD0-9221-4D59-891E-443D39B5FD4E/assets/1F3B6271A9659D3D327F1E42212AB953.png" width="219.00" height="108.00" transform="matrix(1.00, 0.00, -0.00, -1.00, 108.0, 341.0)" opacity="0.50"></image><g><clipPath id="clip0x6080028b44c0"><path d="M 112.0 339.0 L 323.0 339.0 L 323.0 239.0 L 112.0 239.0 Z M 112.0 339.0 "></path></clipPath><g clip-path="url(#clip0x6080028b44c0)"><image xlink:href="../../ED0ABAD0-9221-4D59-891E-443D39B5FD4E/assets/3F6D74C910E7B503E47B3D5208BAB35F.png" width="512.00" height="512.00" transform="matrix(0.50, 0.00, -0.00, -0.50, 112.0, 339.0)"></image></g></g><image xlink:href="../../ED0ABAD0-9221-4D59-891E-443D39B5FD4E/assets/0ADFB12EF092D6457EAAE0EE1F7E8DA5.png" width="121.00" height="22.00" transform="matrix(1.00, 0.00, -0.00, -1.00, 157.0, 298.0)"></image><g><clipPath id="clip0x6080028b4820"><path d="M 107.0 239.0 L 328.0 239.0 L 328.0 339.0 L 107.0 339.0 Z M 107.0 239.0 "></path></clipPath><g clip-path="url(#clip0x6080028b4820)"><text xml:space="preserve" font-family="HelveticaNeue-Medium,Helvetica Neue" font-size="27.0" fill="#3B3B3B" transform="matrix(1.00, 0.00, -0.00, -1.00, 156.5, 278.6)">R</text><text xml:space="preserve" font-family="HelveticaNeue-Medium,Helvetica Neue" font-size="27.0" fill="#3B3B3B" transform="matrix(1.00, 0.00, -0.00, -1.00, 175.5, 278.6)">o</text><text xml:space="preserve" font-family="HelveticaNeue-Medium,Helvetica Neue" font-size="27.0" fill="#3B3B3B" transform="matrix(1.00, 0.00, -0.00, -1.00, 191.5, 278.6)">b</text><text xml:space="preserve" font-family="HelveticaNeue-Medium,Helvetica Neue" font-size="27.0" fill="#3B3B3B" transform="matrix(1.00, 0.00, -0.00, -1.00, 208.0, 278.6)">o</text><text xml:space="preserve" font-family="HelveticaNeue-Medium,Helvetica Neue" font-size="27.0" fill="#3B3B3B" transform="matrix(1.00, 0.00, -0.00, -1.00, 224.0, 278.6)">t</text><text xml:space="preserve" font-family="HelveticaNeue-Medium,Helvetica Neue" font-size="27.0" fill="#3B3B3B" transform="matrix(1.00, 0.00, -0.00, -1.00, 233.0, 278.6)">i</text><text xml:space="preserve" font-family="HelveticaNeue-Medium,Helvetica Neue" font-size="27.0" fill="#3B3B3B" transform="matrix(1.00, 0.00, -0.00, -1.00, 239.5, 278.6)">u</text><text xml:space="preserve" font-family="HelveticaNeue-Medium,Helvetica Neue" font-size="27.0" fill="#3B3B3B" transform="matrix(1.00, 0.00, -0.00, -1.00, 255.0, 278.6)">m</text></g></g><image xlink:href="../../ED0ABAD0-9221-4D59-891E-443D39B5FD4E/assets/8F915869FBF94D6954BD53BCD5028125.png" width="203.00" height="108.00" transform="matrix(1.00, 0.00, -0.00, -1.00, 214.3, 168.9)" opacity="0.50"></image><g><clipPath id="clip0x6080028b4d60"><path d="M 218.0 167.0 L 413.0 167.0 L 413.0 67.0 L 218.0 67.0 Z M 218.3 166.9 "></path></clipPath><g clip-path="url(#clip0x6080028b4d60)"><image xlink:href="../../ED0ABAD0-9221-4D59-891E-443D39B5FD4E/assets/3F6D74C910E7B503E47B3D5208BAB35F.png" width="512.00" height="512.00" transform="matrix(0.50, 0.00, -0.00, -0.50, 218.0, 167.0)"></image></g></g><image xlink:href="../../ED0ABAD0-9221-4D59-891E-443D39B5FD4E/assets/7E599B33581A052C0941D5D4164AAD6D.png" width="181.00" height="28.00" transform="matrix(1.00, 0.00, -0.00, -1.00, 226.0, 126.0)"></image><g><clipPath id="clip0x6000036a1920"><path d="M 213.3 66.9 L 418.4 66.9 L 418.4 166.9 L 213.3 166.9 Z M 213.3 66.9 "></path></clipPath><g clip-path="url(#clip0x6000036a1920)"><text xml:space="preserve" font-family="HelveticaNeue-Medium,Helvetica Neue" font-size="27.0" fill="#3B3B3B" transform="matrix(1.00, 0.00, -0.00, -1.00, 226.3, 106.5)">m</text><text xml:space="preserve" font-family="HelveticaNeue-Medium,Helvetica Neue" font-size="27.0" fill="#3B3B3B" transform="matrix(1.00, 0.00, -0.00, -1.00, 249.8, 106.5)">o</text><text xml:space="preserve" font-family="HelveticaNeue-Medium,Helvetica Neue" font-size="27.0" fill="#3B3B3B" transform="matrix(1.00, 0.00, -0.00, -1.00, 265.8, 106.5)">n</text><text xml:space="preserve" font-family="HelveticaNeue-Medium,Helvetica Neue" font-size="27.0" fill="#3B3B3B" transform="matrix(1.00, 0.00, -0.00, -1.00, 281.3, 106.5)">k</text><text xml:space="preserve" font-family="HelveticaNeue-Medium,Helvetica Neue" font-size="27.0" fill="#3B3B3B" transform="matrix(1.00, 0.00, -0.00, -1.00, 295.8, 106.5)">e</text><text xml:space="preserve" font-family="HelveticaNeue-Medium,Helvetica Neue" font-size="27.0" fill="#3B3B3B" transform="matrix(1.00, 0.00, -0.00, -1.00, 310.8, 106.5)">y</text><text xml:space="preserve" font-family="HelveticaNeue-Medium,Helvetica Neue" font-size="27.0" fill="#3B3B3B" transform="matrix(1.00, 0.00, -0.00, -1.00, 324.8, 106.5)">r</text><text xml:space="preserve" font-family="HelveticaNeue-Medium,Helvetica Neue" font-size="27.0" fill="#3B3B3B" transform="matrix(1.00, 0.00, -0.00, -1.00, 334.3, 106.5)">u</text><text xml:space="preserve" font-family="HelveticaNeue-Medium,Helvetica Neue" font-size="27.0" fill="#3B3B3B" transform="matrix(1.00, 0.00, -0.00, -1.00, 349.8, 106.5)">n</text><text xml:space="preserve" font-family="HelveticaNeue-Medium,Helvetica Neue" font-size="27.0" fill="#3B3B3B" transform="matrix(1.00, 0.00, -0.00, -1.00, 365.3, 106.5)">n</text><text xml:space="preserve" font-family="HelveticaNeue-Medium,Helvetica Neue" font-size="27.0" fill="#3B3B3B" transform="matrix(1.00, 0.00, -0.00, -1.00, 380.8, 106.5)">e</text><text xml:space="preserve" font-family="HelveticaNeue-Medium,Helvetica Neue" font-size="27.0" fill="#3B3B3B" transform="matrix(1.00, 0.00, -0.00, -1.00, 395.8, 106.5)">r</text></g></g><image xlink:href="../../ED0ABAD0-9221-4D59-891E-443D39B5FD4E/assets/16001851AEB459B7E3D6EF202D403B1C.png" width="187.00" height="108.00" transform="matrix(1.00, 0.00, -0.00, -1.00, 434.5, 168.9)" opacity="0.50"></image><g><clipPath id="clip0x6080028b4fa0"><path d="M 439.0 167.0 L 618.0 167.0 L 618.0 67.0 L 439.0 67.0 Z M 438.5 166.9 "></path></clipPath><g clip-path="url(#clip0x6080028b4fa0)"><image xlink:href="../../ED0ABAD0-9221-4D59-891E-443D39B5FD4E/assets/3F6D74C910E7B503E47B3D5208BAB35F.png" width="512.00" height="512.00" transform="matrix(0.50, 0.00, -0.00, -0.50, 439.0, 167.0)"></image></g></g><image xlink:href="../../ED0ABAD0-9221-4D59-891E-443D39B5FD4E/assets/00B997B1D5339E9F596196ECD11714C7.png" width="160.00" height="22.00" transform="matrix(1.00, 0.00, -0.00, -1.00, 449.0, 126.0)"></image><g><clipPath id="clip0x6000036a2100"><path d="M 433.5 66.9 L 622.5 66.9 L 622.5 166.9 L 433.5 166.9 Z M 433.5 66.9 "></path></clipPath><g clip-path="url(#clip0x6000036a2100)"><text xml:space="preserve" font-family="HelveticaNeue-Medium,Helvetica Neue" font-size="27.0" fill="#3B3B3B" transform="matrix(1.00, 0.00, -0.00, -1.00, 448.7, 106.5)">U</text><text xml:space="preserve" font-family="HelveticaNeue-Medium,Helvetica Neue" font-size="27.0" fill="#3B3B3B" transform="matrix(1.00, 0.00, -0.00, -1.00, 468.2, 106.5)">I</text><text xml:space="preserve" font-family="HelveticaNeue-Medium,Helvetica Neue" font-size="27.0" fill="#3B3B3B" transform="matrix(1.00, 0.00, -0.00, -1.00, 475.7, 106.5)">A</text><text xml:space="preserve" font-family="HelveticaNeue-Medium,Helvetica Neue" font-size="27.0" fill="#3B3B3B" transform="matrix(1.00, 0.00, -0.00, -1.00, 493.8, 106.5)">u</text><text xml:space="preserve" font-family="HelveticaNeue-Medium,Helvetica Neue" font-size="27.0" fill="#3B3B3B" transform="matrix(1.00, 0.00, -0.00, -1.00, 509.2, 106.5)">t</text><text xml:space="preserve" font-family="HelveticaNeue-Medium,Helvetica Neue" font-size="27.0" fill="#3B3B3B" transform="matrix(1.00, 0.00, -0.00, -1.00, 518.2, 106.5)">o</text><text xml:space="preserve" font-family="HelveticaNeue-Medium,Helvetica Neue" font-size="27.0" fill="#3B3B3B" transform="matrix(1.00, 0.00, -0.00, -1.00, 534.3, 106.5)">m</text><text xml:space="preserve" font-family="HelveticaNeue-Medium,Helvetica Neue" font-size="27.0" fill="#3B3B3B" transform="matrix(1.00, 0.00, -0.00, -1.00, 557.7, 106.5)">a</text><text xml:space="preserve" font-family="HelveticaNeue-Medium,Helvetica Neue" font-size="27.0" fill="#3B3B3B" transform="matrix(1.00, 0.00, -0.00, -1.00, 572.8, 106.5)">t</text><text xml:space="preserve" font-family="HelveticaNeue-Medium,Helvetica Neue" font-size="27.0" fill="#3B3B3B" transform="matrix(1.00, 0.00, -0.00, -1.00, 581.7, 106.5)">o</text><text xml:space="preserve" font-family="HelveticaNeue-Medium,Helvetica Neue" font-size="27.0" fill="#3B3B3B" transform="matrix(1.00, 0.00, -0.00, -1.00, 597.8, 106.5)">r</text></g></g><image xlink:href="../../ED0ABAD0-9221-4D59-891E-443D39B5FD4E/assets/AE4DAAA9DB255DB508DCF32C72DDE8D1.png" width="219.00" height="108.00" transform="matrix(1.00, 0.00, -0.00, -1.00, 732.2, 467.0)" opacity="0.50"></image><g><clipPath id="clip0x6000036a2700"><path d="M 736.0 465.0 L 947.0 465.0 L 947.0 365.0 L 736.0 365.0 Z M 736.2 465.0 "></path></clipPath><g clip-path="url(#clip0x6000036a2700)"><image xlink:href="../../ED0ABAD0-9221-4D59-891E-443D39B5FD4E/assets/3F6D74C910E7B503E47B3D5208BAB35F.png" width="512.00" height="512.00" transform="matrix(0.50, 0.00, -0.00, -0.50, 736.0, 465.0)"></image></g></g><image xlink:href="../../ED0ABAD0-9221-4D59-891E-443D39B5FD4E/assets/44F6109ADEAD1F98343F5AA0C32F7033.png" width="144.00" height="22.00" transform="matrix(1.00, 0.00, -0.00, -1.00, 770.0, 424.0)"></image><g><clipPath id="clip0x6080028b5540"><path d="M 731.1 365.0 L 952.2 365.0 L 952.2 465.0 L 731.1 465.0 Z M 731.1 365.0 "></path></clipPath><g clip-path="url(#clip0x6080028b5540)"><text xml:space="preserve" font-family="HelveticaNeue-Medium,Helvetica Neue" font-size="27.0" fill="#3B3B3B" transform="matrix(1.00, 0.00, -0.00, -1.00, 769.6, 404.6)">R</text><text xml:space="preserve" font-family="HelveticaNeue-Medium,Helvetica Neue" font-size="27.0" fill="#3B3B3B" transform="matrix(1.00, 0.00, -0.00, -1.00, 788.7, 404.6)">o</text><text xml:space="preserve" font-family="HelveticaNeue-Medium,Helvetica Neue" font-size="27.0" fill="#3B3B3B" transform="matrix(1.00, 0.00, -0.00, -1.00, 804.7, 404.6)">b</text><text xml:space="preserve" font-family="HelveticaNeue-Medium,Helvetica Neue" font-size="27.0" fill="#3B3B3B" transform="matrix(1.00, 0.00, -0.00, -1.00, 821.2, 404.6)">o</text><text xml:space="preserve" font-family="HelveticaNeue-Medium,Helvetica Neue" font-size="27.0" fill="#3B3B3B" transform="matrix(1.00, 0.00, -0.00, -1.00, 837.2, 404.6)">l</text><text xml:space="preserve" font-family="HelveticaNeue-Medium,Helvetica Neue" font-size="27.0" fill="#3B3B3B" transform="matrix(1.00, 0.00, -0.00, -1.00, 843.7, 404.6)">e</text><text xml:space="preserve" font-family="HelveticaNeue-Medium,Helvetica Neue" font-size="27.0" fill="#3B3B3B" transform="matrix(1.00, 0.00, -0.00, -1.00, 858.7, 404.6)">c</text><text xml:space="preserve" font-family="HelveticaNeue-Medium,Helvetica Neue" font-size="27.0" fill="#3B3B3B" transform="matrix(1.00, 0.00, -0.00, -1.00, 873.7, 404.6)">t</text><text xml:space="preserve" font-family="HelveticaNeue-Medium,Helvetica Neue" font-size="27.0" fill="#3B3B3B" transform="matrix(1.00, 0.00, -0.00, -1.00, 882.7, 404.6)">r</text><text xml:space="preserve" font-family="HelveticaNeue-Medium,Helvetica Neue" font-size="27.0" fill="#3B3B3B" transform="matrix(1.00, 0.00, -0.00, -1.00, 892.2, 404.6)">i</text><text xml:space="preserve" font-family="HelveticaNeue-Medium,Helvetica Neue" font-size="27.0" fill="#3B3B3B" transform="matrix(1.00, 0.00, -0.00, -1.00, 898.7, 404.6)">c</text></g></g><image xlink:href="../../ED0ABAD0-9221-4D59-891E-443D39B5FD4E/assets/A8D7F56B1E47464ED29DBF81A4F2BE8C.png" width="129.00" height="108.00" transform="matrix(1.00, 0.00, -0.00, -1.00, 81.7, 168.9)" opacity="0.50"></image><g><clipPath id="clip0x6000036a2760"><path d="M 86.0 167.0 L 207.0 167.0 L 207.0 67.0 L 86.0 67.0 Z M 85.7 166.9 "></path></clipPath><g clip-path="url(#clip0x6000036a2760)"><image xlink:href="../../ED0ABAD0-9221-4D59-891E-443D39B5FD4E/assets/3F6D74C910E7B503E47B3D5208BAB35F.png" width="512.00" height="512.00" transform="matrix(0.50, 0.00, -0.00, -0.50, 86.0, 167.0)"></image></g></g><image xlink:href="../../ED0ABAD0-9221-4D59-891E-443D39B5FD4E/assets/31E980201A7C240388D1971CAA0D1584.png" width="100.00" height="28.00" transform="matrix(1.00, 0.00, -0.00, -1.00, 97.0, 126.0)"></image><g><clipPath id="clip0x6000036a2ac0"><path d="M 80.6 66.9 L 211.5 66.9 L 211.5 166.9 L 80.6 166.9 Z M 80.6 66.9 "></path></clipPath><g clip-path="url(#clip0x6000036a2ac0)"><text xml:space="preserve" font-family="HelveticaNeue-Medium,Helvetica Neue" font-size="27.0" fill="#3B3B3B" transform="matrix(1.00, 0.00, -0.00, -1.00, 96.8, 106.5)">m</text><text xml:space="preserve" font-family="HelveticaNeue-Medium,Helvetica Neue" font-size="27.0" fill="#3B3B3B" transform="matrix(1.00, 0.00, -0.00, -1.00, 120.3, 106.5)">o</text><text xml:space="preserve" font-family="HelveticaNeue-Medium,Helvetica Neue" font-size="27.0" fill="#3B3B3B" transform="matrix(1.00, 0.00, -0.00, -1.00, 136.3, 106.5)">n</text><text xml:space="preserve" font-family="HelveticaNeue-Medium,Helvetica Neue" font-size="27.0" fill="#3B3B3B" transform="matrix(1.00, 0.00, -0.00, -1.00, 151.8, 106.5)">k</text><text xml:space="preserve" font-family="HelveticaNeue-Medium,Helvetica Neue" font-size="27.0" fill="#3B3B3B" transform="matrix(1.00, 0.00, -0.00, -1.00, 166.3, 106.5)">e</text><text xml:space="preserve" font-family="HelveticaNeue-Medium,Helvetica Neue" font-size="27.0" fill="#3B3B3B" transform="matrix(1.00, 0.00, -0.00, -1.00, 181.3, 106.5)">y</text></g></g></g></svg>