<?xml version="1.0" encoding="UTF-8" standalone="no"?><svg xmlns="http://www.w3.org/2000/svg" xmlns:xlink="http://www.w3.org/1999/xlink" clip-rule="evenodd" stroke-miterlimit="10" viewBox="0 0 309 218"><desc>SVG generated by Keynote</desc><defs></defs><g transform="matrix(1.00, 0.00, -0.00, -1.00, 0.0, 218.0)"><path d="M 17.4 14.2 C 17.2 14.1 17.3 13.8 17.0 13.4 C 16.7 13.1 16.3 12.8 16.3 13.0 C 16.2 13.3 16.2 13.5 15.9 13.6 C 15.5 13.7 15.0 14.0 15.2 14.4 C 15.3 14.7 16.0 15.8 16.4 15.8 C 16.9 15.8 17.0 15.7 17.4 15.7 C 17.7 15.7 17.2 16.1 17.2 16.1 C 17.2 16.1 17.7 16.5 18.1 16.8 C 18.4 17.1 18.9 17.5 19.0 17.4 C 19.1 17.4 19.3 17.3 19.3 17.3 C 19.3 17.3 19.4 17.6 19.6 17.9 C 19.9 18.1 19.9 17.9 19.9 17.8 C 19.9 17.6 19.8 17.1 19.9 17.2 C 20.1 17.2 20.1 18.0 20.3 18.2 C 20.4 18.4 20.9 18.6 20.9 18.6 C 20.9 18.6 21.1 18.3 21.1 18.3 C 21.2 18.3 21.7 18.5 21.6 18.6 C 21.6 18.8 21.4 19.0 21.6 19.2 C 22.2 19.7 22.5 19.1 22.6 19.1 C 22.7 19.2 22.4 19.6 22.5 19.8 C 22.6 20.0 24.0 20.8 24.2 20.8 C 24.3 20.7 24.5 21.4 24.9 21.3 C 25.3 21.2 25.4 21.1 25.5 21.1 C 25.6 21.1 26.1 20.8 26.1 21.1 C 26.2 21.3 25.3 21.4 25.4 21.7 C 25.4 21.9 26.3 22.5 26.5 22.5 C 26.9 22.4 27.2 22.1 27.3 22.2 C 27.4 22.2 27.6 23.1 27.7 23.0 C 27.8 23.0 28.1 22.6 28.2 22.5 C 28.2 22.4 28.9 21.8 28.9 21.6 C 28.9 21.4 28.5 20.8 28.5 21.0 C 28.4 21.3 28.3 21.7 28.1 21.6 C 27.8 21.6 27.7 21.6 27.7 21.5 C 27.7 21.3 27.9 21.3 27.7 21.0 C 27.5 20.6 27.8 20.5 27.5 20.4 C 27.2 20.2 26.9 20.0 26.8 20.2 C 26.7 20.4 26.2 20.5 26.0 20.3 C 25.8 20.2 26.4 20.0 25.9 19.4 C 25.4 18.8 25.0 18.5 24.7 18.5 C 24.4 18.6 24.0 19.0 23.9 18.6 C 23.7 18.2 24.0 18.2 23.5 17.9 C 23.1 17.6 22.7 17.9 22.4 17.7 C 22.2 17.6 22.1 17.5 22.1 17.5 C 22.1 17.5 22.6 17.1 22.0 16.6 C 21.4 16.2 21.3 16.1 21.2 16.5 C 21.1 17.0 20.6 16.7 20.8 16.4 C 20.9 16.2 20.7 15.8 20.5 15.6 C 20.3 15.4 19.8 16.0 19.7 16.0 C 19.6 16.0 19.4 15.7 19.6 15.6 C 19.9 15.5 19.7 15.3 19.5 15.1 C 19.4 14.9 18.8 14.6 18.7 14.7 C 18.7 14.8 18.7 15.4 18.4 14.9 C 18.2 14.5 18.3 14.1 18.0 13.9 C 17.6 13.6 17.7 14.2 17.4 14.2 C 17.4 14.2 17.4 14.2 17.4 14.2 Z M 29.3 21.5 C 28.6 21.1 27.9 23.1 27.9 23.6 C 27.9 24.1 28.5 24.1 28.9 24.5 C 29.3 24.8 29.5 24.2 29.8 24.2 C 30.2 24.2 29.9 24.5 29.8 24.8 C 29.7 25.2 30.5 25.4 30.9 25.7 C 31.3 26.0 32.1 25.7 32.4 25.9 C 32.7 26.1 32.3 25.4 32.9 25.8 C 33.4 26.2 32.9 26.3 32.2 26.1 C 31.4 25.8 32.2 26.6 32.5 26.9 C 32.8 27.2 33.6 27.3 33.9 27.5 C 34.1 27.8 34.1 27.1 34.4 27.4 C 34.8 27.7 34.4 28.0 34.7 28.3 C 35.1 28.7 35.3 28.2 35.6 28.3 C 35.9 28.3 35.6 28.5 35.8 28.7 C 36.0 28.8 36.2 29.2 36.6 29.3 C 37.1 29.5 37.0 29.3 37.2 29.4 C 37.4 29.5 37.7 29.7 37.7 29.7 C 37.7 29.9 37.6 30.0 37.5 30.2 C 37.5 30.2 38.2 30.7 38.4 30.9 C 38.6 31.0 39.2 31.2 39.1 31.0 C 39.1 30.8 39.7 30.9 39.8 31.0 C 39.8 31.1 40.1 31.6 40.2 31.8 C 40.4 32.1 41.1 31.0 41.2 30.8 C 41.3 30.7 41.8 30.2 41.6 30.0 C 41.5 29.8 41.2 29.9 41.3 29.8 C 41.4 29.6 40.7 29.4 40.5 29.2 C 40.3 29.1 39.9 29.4 39.9 29.4 C 39.9 29.4 39.5 29.6 39.2 29.4 C 38.9 29.2 39.2 28.5 39.2 28.5 C 39.2 28.5 39.0 28.1 38.6 27.9 C 38.2 27.7 37.5 28.0 37.3 28.0 C 37.2 28.1 37.5 27.6 37.3 27.4 C 37.1 27.2 36.9 26.8 36.7 26.7 C 36.6 26.7 36.2 26.9 36.2 26.9 C 36.2 26.9 35.6 26.8 35.5 26.7 C 35.4 26.6 35.9 26.3 35.9 26.3 C 35.9 26.3 35.1 25.5 34.9 25.3 C 34.7 25.1 34.3 25.0 34.1 25.0 C 34.0 24.9 33.4 25.4 33.2 25.2 C 33.0 25.0 33.7 24.9 33.5 24.7 C 33.3 24.5 33.0 24.1 32.9 24.1 C 32.8 24.0 32.5 24.1 32.3 24.0 C 32.1 23.9 31.6 24.2 31.3 24.0 C 31.0 23.8 31.1 23.5 31.0 23.3 C 30.9 23.2 31.1 22.8 30.9 22.6 C 30.7 22.4 30.7 22.8 30.5 22.7 C 30.3 22.5 30.1 22.8 29.9 22.6 C 29.7 22.4 30.2 22.0 29.9 21.9 C 29.8 21.9 29.9 21.9 29.3 21.5 C 29.3 21.5 29.3 21.5 29.3 21.5 Z M 42.1 30.4 C 42.0 30.0 41.5 30.1 41.4 30.3 C 41.3 30.6 41.0 31.3 40.8 31.4 C 40.5 31.5 39.9 31.7 40.4 32.1 C 40.8 32.6 41.1 32.5 41.2 32.3 C 41.3 32.2 41.8 31.6 41.9 31.8 C 42.0 31.9 42.0 32.2 42.0 32.3 C 42.0 32.4 41.8 33.2 42.1 33.2 C 42.4 33.3 42.8 33.3 42.8 33.3 C 42.9 33.4 43.0 33.5 43.2 33.6 C 43.2 33.6 43.3 34.2 43.6 34.3 C 44.0 34.4 44.3 34.6 44.5 34.8 C 44.7 35.0 44.9 35.1 45.1 34.9 C 45.2 34.8 45.8 34.5 45.8 34.5 C 45.8 34.5 46.2 34.6 46.3 34.7 C 46.4 34.9 46.3 35.2 46.1 35.3 C 46.0 35.4 45.9 35.7 46.0 35.9 C 46.2 36.1 47.0 37.1 47.2 37.0 C 47.5 36.9 47.6 36.7 47.7 36.7 C 47.9 36.7 48.5 37.1 48.5 37.3 C 48.4 37.4 48.2 37.7 48.4 37.8 C 48.6 37.9 48.9 38.2 48.9 38.1 C 49.0 38.1 49.2 38.1 49.3 37.9 C 49.4 37.7 49.9 37.8 50.0 37.8 C 50.1 37.8 50.4 37.9 50.4 37.9 C 50.5 38.1 50.5 38.3 50.6 38.4 C 50.6 38.4 50.2 38.6 50.0 38.6 C 49.9 38.6 49.9 38.9 50.0 39.0 C 50.1 39.1 50.8 39.5 50.8 39.5 C 51.0 39.3 51.2 39.1 51.3 38.8 C 51.5 38.9 51.7 39.0 51.9 39.0 C 51.9 39.0 51.3 39.8 51.6 40.0 C 51.9 40.2 52.3 40.5 52.3 40.5 C 52.3 40.5 52.9 40.4 53.0 40.4 C 53.1 40.5 53.6 39.8 53.6 39.8 C 53.8 39.5 54.0 39.2 54.1 38.8 C 54.1 38.8 53.9 38.3 53.6 38.3 C 53.4 38.2 53.3 38.7 53.2 38.8 C 53.1 38.9 52.6 38.8 52.6 38.8 C 52.6 38.6 52.6 38.3 52.5 38.0 C 52.5 38.0 52.5 37.8 52.4 37.6 C 52.4 37.3 52.0 36.9 51.8 36.9 C 51.6 36.8 51.3 36.9 51.0 37.0 C 50.8 37.0 50.6 37.3 50.6 36.9 C 50.5 36.6 50.5 36.3 50.4 36.2 C 50.3 36.1 49.7 36.1 49.7 36.1 C 49.5 36.1 49.3 36.0 49.1 36.0 C 49.1 36.0 48.7 35.9 48.7 35.7 C 48.8 35.5 48.0 35.2 48.0 35.2 C 48.0 35.2 48.4 34.8 48.3 34.6 C 48.2 34.4 48.0 34.1 47.6 33.9 C 47.3 33.8 46.7 34.2 46.7 34.2 C 46.7 34.0 46.7 33.8 46.7 33.6 C 46.5 33.4 46.2 33.2 46.0 33.0 C 46.0 33.0 45.4 32.6 45.3 32.7 C 45.2 32.7 45.0 33.2 44.9 33.3 C 44.8 33.4 44.4 33.3 44.4 33.2 C 44.5 33.0 44.5 32.4 44.5 32.4 C 44.5 32.4 44.4 32.0 44.3 31.8 C 44.1 31.7 43.7 31.6 43.6 31.7 C 43.5 31.7 43.0 31.8 43.0 31.8 C 43.0 31.6 43.0 31.5 43.0 31.3 C 43.0 31.3 42.4 31.1 42.1 30.4 C 42.1 30.4 42.1 30.4 42.1 30.4 Z M 54.6 38.8 C 53.9 38.4 53.2 40.3 53.2 40.8 C 53.3 41.3 53.8 41.4 54.2 41.7 C 54.6 42.1 54.8 41.4 55.2 41.5 C 55.5 41.5 55.2 41.8 55.1 42.1 C 55.1 42.4 55.9 42.6 56.2 42.9 C 56.6 43.2 57.4 42.9 57.7 43.1 C 58.1 43.3 57.7 42.6 58.2 43.0 C 58.7 43.5 58.2 43.6 57.5 43.3 C 56.7 43.0 57.5 43.8 57.8 44.1 C 58.2 44.4 58.9 44.6 59.2 44.8 C 59.4 45.0 59.4 44.3 59.8 44.6 C 60.2 44.9 59.7 45.2 60.0 45.5 C 60.4 45.9 60.6 45.5 60.9 45.5 C 61.2 45.6 61.0 45.8 61.1 45.9 C 61.3 46.1 61.5 46.4 61.9 46.6 C 62.4 46.7 62.4 46.5 62.6 46.6 C 62.7 46.7 63.1 46.9 63.1 46.9 C 63.0 47.1 62.9 47.2 62.8 47.4 C 62.8 47.4 63.5 47.9 63.7 48.1 C 63.9 48.3 64.5 48.4 64.4 48.2 C 64.4 48.1 65.0 48.1 65.1 48.2 C 65.2 48.4 65.4 48.8 65.6 49.1 C 65.7 49.3 66.4 48.2 66.5 48.1 C 66.6 47.9 67.1 47.4 67.0 47.2 C 66.8 47.0 66.5 47.1 66.6 47.0 C 66.8 46.9 66.0 46.6 65.8 46.5 C 65.7 46.4 65.2 46.6 65.2 46.6 C 65.2 46.6 64.8 46.8 64.5 46.6 C 64.2 46.4 64.6 45.7 64.6 45.7 C 64.6 45.7 64.3 45.3 63.9 45.1 C 63.6 44.9 62.8 45.2 62.6 45.3 C 62.5 45.3 62.9 44.8 62.6 44.6 C 62.4 44.4 62.2 44.0 62.1 43.9 C 61.9 43.9 61.5 44.1 61.5 44.1 C 61.5 44.1 60.9 44.0 60.8 43.9 C 60.7 43.9 61.2 43.5 61.2 43.5 C 61.2 43.5 60.4 42.7 60.2 42.5 C 60.0 42.4 59.6 42.3 59.5 42.2 C 59.3 42.2 58.7 42.6 58.5 42.4 C 58.3 42.2 59.0 42.2 58.8 42.0 C 58.7 41.8 58.3 41.4 58.2 41.3 C 58.1 41.2 57.9 41.3 57.7 41.3 C 57.5 41.2 56.9 41.5 56.6 41.3 C 56.3 41.1 56.4 40.7 56.3 40.6 C 56.3 40.4 56.5 40.0 56.3 39.8 C 56.0 39.7 56.0 40.1 55.8 39.9 C 55.6 39.8 55.4 40.1 55.2 39.9 C 55.0 39.7 55.5 39.3 55.2 39.2 C 55.1 39.1 55.2 39.2 54.6 38.8 C 54.6 38.8 54.6 38.8 54.6 38.8 Z M 67.5 47.7 C 67.3 47.2 66.8 47.3 66.7 47.6 C 66.6 47.8 66.3 48.5 66.1 48.6 C 65.9 48.7 65.2 48.9 65.7 49.3 C 66.2 49.8 66.4 49.7 66.5 49.6 C 66.6 49.4 67.1 48.8 67.2 49.0 C 67.3 49.2 67.3 49.4 67.3 49.5 C 67.3 49.6 67.1 50.4 67.4 50.5 C 67.7 50.6 68.1 50.6 68.1 50.6 C 68.2 50.6 68.4 50.7 68.5 50.8 C 68.5 50.8 68.6 51.4 68.9 51.5 C 69.3 51.6 69.6 51.8 69.8 52.0 C 70.0 52.2 70.3 52.3 70.4 52.2 C 70.5 52.1 71.2 51.7 71.2 51.7 C 71.2 51.7 71.6 51.8 71.7 52.0 C 71.7 52.2 71.6 52.5 71.5 52.6 C 71.4 52.7 71.2 53.0 71.4 53.2 C 71.5 53.4 72.3 54.3 72.5 54.2 C 72.8 54.1 72.9 53.9 73.1 53.9 C 73.2 53.9 73.8 54.3 73.8 54.5 C 73.7 54.7 73.5 55.0 73.7 55.0 C 73.9 55.1 74.2 55.5 74.2 55.4 C 74.3 55.3 74.5 55.3 74.6 55.1 C 74.7 55.0 75.2 55.1 75.3 55.0 C 75.5 55.0 75.8 55.2 75.8 55.2 C 75.8 55.3 75.9 55.5 75.9 55.7 C 75.9 55.7 75.5 55.9 75.3 55.8 C 75.2 55.8 75.2 56.1 75.3 56.2 C 75.4 56.3 76.1 56.8 76.1 56.8 C 76.3 56.5 76.5 56.3 76.7 56.1 C 76.9 56.1 77.1 56.2 77.3 56.3 C 77.3 56.3 76.6 57.0 76.9 57.3 C 77.3 57.5 77.6 57.7 77.6 57.7 C 77.6 57.7 78.2 57.7 78.3 57.7 C 78.4 57.7 78.9 57.0 78.9 57.0 C 79.1 56.7 79.3 56.4 79.5 56.1 C 79.5 56.1 79.3 55.5 79.0 55.5 C 78.7 55.5 78.6 55.9 78.5 56.0 C 78.4 56.1 78.0 56.1 78.0 56.1 C 77.9 55.8 77.9 55.5 77.8 55.3 C 77.8 55.3 77.8 55.0 77.8 54.8 C 77.7 54.6 77.3 54.1 77.1 54.1 C 76.9 54.1 76.6 54.2 76.4 54.2 C 76.1 54.2 76.0 54.5 75.9 54.1 C 75.8 53.8 75.8 53.5 75.7 53.4 C 75.6 53.3 75.0 53.3 75.0 53.3 C 74.8 53.3 74.6 53.3 74.4 53.3 C 74.4 53.3 74.0 53.2 74.1 53.0 C 74.1 52.8 73.3 52.5 73.3 52.5 C 73.3 52.5 73.7 52.0 73.6 51.8 C 73.5 51.6 73.3 51.3 72.9 51.2 C 72.6 51.1 72.0 51.4 72.0 51.4 C 72.0 51.2 72.0 51.0 72.0 50.8 C 71.8 50.6 71.6 50.4 71.3 50.2 C 71.3 50.2 70.7 49.8 70.6 49.9 C 70.6 50.0 70.3 50.5 70.2 50.6 C 70.1 50.6 69.7 50.6 69.8 50.4 C 69.8 50.2 69.8 49.6 69.8 49.6 C 69.8 49.6 69.7 49.2 69.6 49.1 C 69.4 48.9 69.0 48.9 68.9 48.9 C 68.8 48.9 68.3 49.1 68.3 49.1 C 68.3 48.9 68.3 48.7 68.3 48.5 C 68.3 48.5 67.7 48.4 67.5 47.7 C 67.5 47.7 67.5 47.7 67.5 47.7 Z M 79.9 56.0 C 79.2 55.6 78.6 57.5 78.6 58.0 C 78.6 58.5 79.2 58.6 79.5 58.9 C 79.9 59.3 80.1 58.7 80.5 58.7 C 80.8 58.7 80.5 59.0 80.5 59.3 C 80.4 59.6 81.2 59.8 81.6 60.1 C 81.9 60.4 82.7 60.2 83.1 60.3 C 83.4 60.5 83.0 59.9 83.5 60.3 C 84.1 60.7 83.6 60.8 82.8 60.5 C 82.1 60.3 82.9 61.0 83.2 61.3 C 83.5 61.6 84.2 61.8 84.5 62.0 C 84.8 62.2 84.7 61.6 85.1 61.9 C 85.5 62.2 85.0 62.4 85.4 62.8 C 85.7 63.1 86.0 62.7 86.2 62.7 C 86.5 62.8 86.3 63.0 86.4 63.2 C 86.6 63.3 86.8 63.6 87.3 63.8 C 87.7 64.0 87.7 63.8 87.9 63.9 C 88.1 64.0 88.4 64.2 88.4 64.2 C 88.3 64.3 88.2 64.5 88.2 64.6 C 88.2 64.6 88.9 65.1 89.0 65.3 C 89.2 65.5 89.8 65.6 89.8 65.5 C 89.7 65.3 90.4 65.3 90.4 65.5 C 90.5 65.6 90.7 66.1 90.9 66.3 C 91.1 66.6 91.7 65.5 91.8 65.3 C 91.9 65.2 92.5 64.7 92.3 64.5 C 92.1 64.3 91.8 64.4 91.9 64.2 C 92.1 64.1 91.3 63.8 91.2 63.7 C 91.0 63.6 90.5 63.8 90.5 63.8 C 90.5 63.8 90.1 64.1 89.8 63.9 C 89.5 63.7 89.9 62.9 89.9 62.9 C 89.9 62.9 89.6 62.6 89.3 62.4 C 88.9 62.2 88.1 62.4 88.0 62.5 C 87.8 62.6 88.2 62.1 88.0 61.9 C 87.8 61.6 87.5 61.2 87.4 61.2 C 87.3 61.1 86.9 61.4 86.9 61.4 C 86.9 61.4 86.3 61.2 86.1 61.2 C 86.0 61.1 86.6 60.7 86.6 60.7 C 86.6 60.7 85.7 59.9 85.5 59.8 C 85.4 59.6 85.0 59.5 84.8 59.4 C 84.6 59.4 84.0 59.9 83.8 59.7 C 83.7 59.4 84.3 59.4 84.1 59.2 C 84.0 59.0 83.7 58.6 83.6 58.5 C 83.5 58.5 83.2 58.6 83.0 58.5 C 82.8 58.4 82.2 58.7 81.9 58.5 C 81.7 58.3 81.7 57.9 81.7 57.8 C 81.6 57.7 81.8 57.2 81.6 57.1 C 81.4 56.9 81.3 57.3 81.1 57.1 C 80.9 57.0 80.7 57.3 80.5 57.1 C 80.4 56.9 80.8 56.5 80.6 56.4 C 80.4 56.4 80.6 56.4 79.9 56.0 C 79.9 56.0 79.9 56.0 79.9 56.0 Z M 93.3 65.9 C 93.2 65.8 93.3 65.5 93.0 65.1 C 92.7 64.8 92.3 64.5 92.2 64.7 C 92.2 65.0 92.2 65.2 91.9 65.3 C 91.5 65.4 91.0 65.7 91.1 66.1 C 91.3 66.4 91.9 67.5 92.4 67.5 C 92.9 67.5 93.0 67.4 93.4 67.4 C 93.7 67.4 93.2 67.8 93.2 67.8 C 93.2 67.8 93.7 68.2 94.0 68.5 C 94.4 68.8 94.8 69.2 94.9 69.1 C 95.0 69.1 95.3 69.0 95.3 69.0 C 95.3 69.0 95.3 69.3 95.6 69.6 C 95.8 69.8 95.8 69.6 95.9 69.5 C 95.9 69.3 95.8 68.8 95.9 68.9 C 96.0 68.9 96.1 69.7 96.2 69.9 C 96.4 70.1 96.9 70.3 96.9 70.3 C 96.9 70.3 97.0 70.0 97.1 70.0 C 97.2 70.0 97.7 70.2 97.6 70.3 C 97.6 70.5 97.3 70.7 97.5 70.9 C 98.2 71.4 98.5 70.8 98.6 70.8 C 98.6 70.9 98.3 71.3 98.5 71.5 C 98.6 71.7 100.0 72.5 100.2 72.5 C 100.3 72.4 100.5 73.1 100.9 73.0 C 101.3 72.9 101.4 72.8 101.5 72.8 C 101.6 72.8 102.1 72.5 102.1 72.8 C 102.1 73.0 101.3 73.1 101.3 73.4 C 101.4 73.6 102.3 74.2 102.5 74.2 C 102.8 74.1 103.2 73.8 103.3 73.9 C 103.4 73.9 103.5 74.8 103.6 74.7 C 103.7 74.7 104.1 74.3 104.1 74.2 C 104.2 74.1 104.9 73.5 104.9 73.3 C 104.8 73.1 104.5 72.5 104.4 72.7 C 104.3 73.0 104.3 73.4 104.0 73.3 C 103.8 73.3 103.7 73.3 103.7 73.1 C 103.7 73.0 103.9 73.0 103.7 72.7 C 103.4 72.3 103.7 72.2 103.4 72.1 C 103.1 71.9 102.8 71.7 102.8 71.9 C 102.7 72.1 102.2 72.2 102.0 72.0 C 101.8 71.9 102.4 71.7 101.9 71.1 C 101.3 70.5 100.9 70.2 100.7 70.2 C 100.4 70.3 100.0 70.7 99.8 70.3 C 99.7 69.9 99.9 69.9 99.5 69.6 C 99.1 69.3 98.7 69.6 98.4 69.4 C 98.1 69.3 98.1 69.2 98.1 69.2 C 98.1 69.2 98.6 68.8 98.0 68.3 C 97.4 67.9 97.3 67.8 97.2 68.2 C 97.0 68.7 96.6 68.4 96.7 68.1 C 96.9 67.9 96.6 67.5 96.5 67.3 C 96.3 67.1 95.8 67.7 95.7 67.7 C 95.6 67.6 95.4 67.4 95.6 67.3 C 95.8 67.2 95.6 67.0 95.5 66.8 C 95.4 66.6 94.8 66.3 94.7 66.4 C 94.7 66.5 94.6 67.1 94.4 66.6 C 94.2 66.2 94.3 65.8 93.9 65.6 C 93.6 65.3 93.6 65.9 93.3 65.9 C 93.3 65.9 93.3 65.9 93.3 65.9 Z M 105.4 73.5 C 105.3 73.1 104.8 73.2 104.7 73.4 C 104.6 73.7 104.3 74.4 104.1 74.5 C 103.8 74.6 103.2 74.7 103.7 75.2 C 104.1 75.6 104.4 75.5 104.5 75.4 C 104.6 75.3 105.1 74.7 105.2 74.9 C 105.3 75.0 105.3 75.3 105.3 75.4 C 105.3 75.5 105.1 76.2 105.4 76.3 C 105.7 76.4 106.1 76.4 106.1 76.4 C 106.2 76.5 106.3 76.6 106.5 76.6 C 106.5 76.6 106.6 77.3 106.9 77.4 C 107.3 77.5 107.6 77.7 107.8 77.9 C 108.0 78.1 108.2 78.1 108.4 78.0 C 108.5 77.9 109.1 77.6 109.1 77.6 C 109.1 77.6 109.6 77.6 109.6 77.8 C 109.7 78.0 109.6 78.3 109.5 78.4 C 109.3 78.5 109.2 78.8 109.4 79.0 C 109.5 79.2 110.3 80.1 110.5 80.1 C 110.8 80.0 110.9 79.7 111.0 79.8 C 111.2 79.8 111.8 80.2 111.8 80.3 C 111.7 80.5 111.5 80.8 111.7 80.9 C 111.9 81.0 112.2 81.3 112.2 81.2 C 112.3 81.1 112.5 81.1 112.6 81.0 C 112.7 80.8 113.2 80.9 113.3 80.9 C 113.4 80.8 113.7 81.0 113.7 81.0 C 113.8 81.2 113.9 81.3 113.9 81.5 C 113.9 81.5 113.5 81.7 113.3 81.7 C 113.2 81.7 113.2 82.0 113.3 82.1 C 113.4 82.2 114.1 82.6 114.1 82.6 C 114.3 82.4 114.5 82.1 114.6 81.9 C 114.8 82.0 115.0 82.0 115.2 82.1 C 115.2 82.1 114.6 82.9 114.9 83.1 C 115.2 83.3 115.6 83.6 115.6 83.6 C 115.6 83.6 116.2 83.5 116.3 83.5 C 116.4 83.6 116.9 82.8 116.9 82.8 C 117.1 82.5 117.3 82.2 117.4 81.9 C 117.4 81.9 117.2 81.4 117.0 81.3 C 116.7 81.3 116.6 81.7 116.5 81.9 C 116.4 82.0 115.9 81.9 115.9 81.9 C 115.9 81.6 115.9 81.4 115.8 81.1 C 115.8 81.1 115.8 80.9 115.8 80.7 C 115.7 80.4 115.3 80.0 115.1 79.9 C 114.9 79.9 114.6 80.0 114.4 80.0 C 114.1 80.1 113.9 80.3 113.9 80.0 C 113.8 79.6 113.8 79.3 113.7 79.3 C 113.6 79.2 113.0 79.2 113.0 79.2 C 112.8 79.1 112.6 79.1 112.4 79.1 C 112.4 79.1 112.0 79.0 112.1 78.8 C 112.1 78.6 111.3 78.3 111.3 78.3 C 111.3 78.3 111.7 77.9 111.6 77.6 C 111.5 77.4 111.3 77.1 110.9 77.0 C 110.6 76.9 110.0 77.3 110.0 77.3 C 110.0 77.1 110.0 76.9 110.0 76.7 C 109.8 76.5 109.5 76.3 109.3 76.0 C 109.3 76.0 108.7 75.7 108.6 75.7 C 108.6 75.8 108.3 76.3 108.2 76.4 C 108.1 76.5 107.7 76.4 107.7 76.2 C 107.8 76.1 107.8 75.5 107.8 75.5 C 107.8 75.5 107.7 75.1 107.6 74.9 C 107.4 74.8 107.0 74.7 106.9 74.7 C 106.8 74.8 106.3 74.9 106.3 74.9 C 106.3 74.7 106.3 74.5 106.3 74.3 C 106.3 74.3 105.7 74.2 105.4 73.5 C 105.4 73.5 105.4 73.5 105.4 73.5 Z M 117.9 81.8 C 117.2 81.4 116.5 83.4 116.6 83.9 C 116.6 84.4 117.1 84.4 117.5 84.8 C 117.9 85.1 118.1 84.5 118.5 84.5 C 118.8 84.6 118.5 84.8 118.4 85.2 C 118.4 85.5 119.2 85.7 119.5 86.0 C 119.9 86.3 120.7 86.0 121.0 86.2 C 121.4 86.4 121.0 85.7 121.5 86.1 C 122.0 86.5 121.6 86.7 120.8 86.4 C 120.0 86.1 120.8 86.9 121.2 87.2 C 121.5 87.5 122.2 87.6 122.5 87.9 C 122.7 88.1 122.7 87.4 123.1 87.7 C 123.5 88.0 123.0 88.3 123.4 88.6 C 123.7 89.0 123.9 88.5 124.2 88.6 C 124.5 88.6 124.3 88.9 124.4 89.0 C 124.6 89.2 124.8 89.5 125.2 89.6 C 125.7 89.8 125.7 89.6 125.9 89.7 C 126.1 89.8 126.4 90.0 126.4 90.0 C 126.3 90.2 126.2 90.3 126.2 90.5 C 126.2 90.5 126.8 91.0 127.0 91.2 C 127.2 91.3 127.8 91.5 127.8 91.3 C 127.7 91.1 128.4 91.2 128.4 91.3 C 128.5 91.5 128.7 91.9 128.9 92.2 C 129.1 92.4 129.7 91.3 129.8 91.2 C 129.9 91.0 130.5 90.5 130.3 90.3 C 130.1 90.1 129.8 90.2 129.9 90.1 C 130.1 90.0 129.3 89.7 129.2 89.6 C 129.0 89.4 128.5 89.7 128.5 89.7 C 128.5 89.7 128.1 89.9 127.8 89.7 C 127.5 89.5 127.9 88.8 127.9 88.8 C 127.9 88.8 127.6 88.4 127.2 88.2 C 126.9 88.0 126.1 88.3 126.0 88.4 C 125.8 88.4 126.2 87.9 126.0 87.7 C 125.8 87.5 125.5 87.1 125.4 87.0 C 125.2 87.0 124.8 87.2 124.8 87.2 C 124.8 87.2 124.2 87.1 124.1 87.0 C 124.0 87.0 124.5 86.6 124.5 86.6 C 124.5 86.6 123.7 85.8 123.5 85.6 C 123.3 85.4 122.9 85.4 122.8 85.3 C 122.6 85.2 122.0 85.7 121.8 85.5 C 121.7 85.3 122.3 85.3 122.1 85.0 C 122.0 84.8 121.7 84.5 121.6 84.4 C 121.5 84.3 121.2 84.4 121.0 84.3 C 120.8 84.3 120.2 84.5 119.9 84.4 C 119.7 84.2 119.7 83.8 119.6 83.7 C 119.6 83.5 119.8 83.1 119.6 82.9 C 119.3 82.7 119.3 83.1 119.1 83.0 C 118.9 82.8 118.7 83.1 118.5 82.9 C 118.4 82.7 118.8 82.3 118.5 82.2 C 118.4 82.2 118.5 82.2 117.9 81.8 C 117.9 81.8 117.9 81.8 117.9 81.8 Z M 130.8 90.7 C 130.6 90.3 130.2 90.4 130.0 90.7 C 129.9 90.9 129.6 91.6 129.4 91.7 C 129.2 91.8 128.5 92.0 129.0 92.4 C 129.5 92.9 129.7 92.8 129.8 92.6 C 129.9 92.5 130.4 91.9 130.5 92.1 C 130.6 92.2 130.7 92.5 130.6 92.6 C 130.6 92.7 130.4 93.5 130.7 93.6 C 131.0 93.7 131.4 93.6 131.4 93.6 C 131.5 93.7 131.7 93.8 131.8 93.9 C 131.8 93.9 131.9 94.5 132.3 94.6 C 132.6 94.7 132.9 94.9 133.1 95.1 C 133.3 95.3 133.6 95.4 133.7 95.3 C 133.8 95.1 134.5 94.8 134.5 94.8 C 134.5 94.8 134.9 94.9 135.0 95.1 C 135.1 95.2 134.9 95.6 134.8 95.7 C 134.7 95.7 134.5 96.1 134.7 96.3 C 134.9 96.5 135.6 97.4 135.8 97.3 C 136.1 97.2 136.2 97.0 136.4 97.0 C 136.5 97.0 137.2 97.4 137.1 97.6 C 137.1 97.7 136.8 98.0 137.0 98.1 C 137.2 98.2 137.5 98.6 137.6 98.5 C 137.6 98.4 137.8 98.4 137.9 98.2 C 138.1 98.0 138.5 98.1 138.6 98.1 C 138.8 98.1 139.1 98.2 139.1 98.2 C 139.1 98.4 139.2 98.6 139.2 98.8 C 139.2 98.8 138.8 98.9 138.7 98.9 C 138.5 98.9 138.6 99.2 138.6 99.3 C 138.7 99.4 139.4 99.8 139.4 99.8 C 139.6 99.6 139.8 99.4 140.0 99.1 C 140.2 99.2 140.4 99.3 140.6 99.3 C 140.6 99.3 139.9 100.1 140.2 100.3 C 140.6 100.6 141.0 100.8 141.0 100.8 C 141.0 100.8 141.5 100.7 141.6 100.8 C 141.7 100.8 142.3 100.1 142.3 100.1 C 142.4 99.8 142.6 99.5 142.8 99.2 C 142.8 99.2 142.6 98.6 142.3 98.6 C 142.0 98.5 142.0 99.0 141.8 99.1 C 141.7 99.2 141.3 99.1 141.3 99.1 C 141.2 98.9 141.2 98.6 141.2 98.4 C 141.2 98.4 141.1 98.1 141.1 97.9 C 141.0 97.6 140.6 97.2 140.4 97.2 C 140.2 97.1 140.0 97.2 139.7 97.3 C 139.4 97.3 139.3 97.6 139.2 97.2 C 139.1 96.9 139.2 96.6 139.1 96.5 C 138.9 96.4 138.3 96.4 138.3 96.4 C 138.1 96.4 137.9 96.4 137.8 96.3 C 137.8 96.3 137.3 96.2 137.4 96.0 C 137.5 95.8 136.6 95.6 136.6 95.6 C 136.6 95.6 137.0 95.1 136.9 94.9 C 136.8 94.7 136.6 94.4 136.2 94.3 C 135.9 94.1 135.4 94.5 135.4 94.5 C 135.4 94.3 135.4 94.1 135.3 93.9 C 135.1 93.7 134.9 93.5 134.6 93.3 C 134.6 93.3 134.0 92.9 133.9 93.0 C 133.9 93.1 133.7 93.5 133.5 93.6 C 133.4 93.7 133.0 93.7 133.1 93.5 C 133.1 93.3 133.1 92.7 133.1 92.7 C 133.1 92.7 133.1 92.3 132.9 92.1 C 132.7 92.0 132.3 91.9 132.2 92.0 C 132.1 92.0 131.6 92.1 131.6 92.1 C 131.6 92.0 131.6 91.8 131.6 91.6 C 131.6 91.6 131.0 91.4 130.8 90.7 C 130.8 90.7 130.8 90.7 130.8 90.7 Z M 143.2 99.1 C 142.6 98.7 141.9 100.6 141.9 101.1 C 141.9 101.6 142.5 101.7 142.8 102.0 C 143.2 102.4 143.4 101.8 143.8 101.8 C 144.1 101.8 143.8 102.1 143.8 102.4 C 143.7 102.7 144.5 102.9 144.9 103.2 C 145.2 103.5 146.0 103.2 146.4 103.4 C 146.7 103.6 146.3 102.9 146.8 103.4 C 147.4 103.8 146.9 103.9 146.1 103.6 C 145.4 103.3 146.2 104.1 146.5 104.4 C 146.8 104.7 147.6 104.9 147.8 105.1 C 148.1 105.3 148.0 104.7 148.4 104.9 C 148.8 105.2 148.3 105.5 148.7 105.9 C 149.0 106.2 149.3 105.8 149.5 105.8 C 149.8 105.9 149.6 106.1 149.8 106.2 C 149.9 106.4 150.1 106.7 150.6 106.9 C 151.0 107.0 151.0 106.9 151.2 106.9 C 151.4 107.0 151.7 107.3 151.7 107.3 C 151.6 107.4 151.6 107.6 151.5 107.7 C 151.5 107.7 152.2 108.2 152.4 108.4 C 152.5 108.6 153.1 108.7 153.1 108.5 C 153.0 108.4 153.7 108.4 153.7 108.6 C 153.8 108.7 154.0 109.1 154.2 109.4 C 154.4 109.7 155.0 108.5 155.1 108.4 C 155.2 108.2 155.8 107.8 155.6 107.6 C 155.4 107.4 155.1 107.4 155.3 107.3 C 155.4 107.2 154.7 106.9 154.5 106.8 C 154.3 106.7 153.8 106.9 153.8 106.9 C 153.8 106.9 153.4 107.1 153.1 106.9 C 152.9 106.8 153.2 106.0 153.2 106.0 C 153.2 106.0 152.9 105.7 152.6 105.4 C 152.2 105.2 151.4 105.5 151.3 105.6 C 151.1 105.7 151.5 105.2 151.3 104.9 C 151.1 104.7 150.8 104.3 150.7 104.3 C 150.6 104.2 150.2 104.4 150.2 104.4 C 150.2 104.4 149.6 104.3 149.5 104.3 C 149.4 104.2 149.9 103.8 149.9 103.8 C 149.9 103.8 149.0 103.0 148.8 102.9 C 148.7 102.7 148.3 102.6 148.1 102.5 C 147.9 102.5 147.3 102.9 147.2 102.7 C 147.0 102.5 147.6 102.5 147.5 102.3 C 147.3 102.1 147.0 101.7 146.9 101.6 C 146.8 101.6 146.5 101.7 146.3 101.6 C 146.1 101.5 145.5 101.8 145.3 101.6 C 145.0 101.4 145.0 101.0 145.0 100.9 C 144.9 100.8 145.1 100.3 144.9 100.1 C 144.7 100.0 144.6 100.4 144.4 100.2 C 144.2 100.1 144.0 100.4 143.9 100.2 C 143.7 100.0 144.1 99.6 143.9 99.5 C 143.7 99.4 143.9 99.5 143.2 99.1 C 143.2 99.1 143.2 99.1 143.2 99.1 Z M 156.1 108.0 C 155.9 107.5 155.5 107.6 155.4 107.9 C 155.2 108.1 154.9 108.8 154.7 108.9 C 154.5 109.0 153.8 109.2 154.3 109.7 C 154.8 110.1 155.0 110.0 155.1 109.9 C 155.2 109.7 155.8 109.2 155.9 109.3 C 156.0 109.5 156.0 109.7 156.0 109.9 C 155.9 110.0 155.7 110.7 156.0 110.8 C 156.4 110.9 156.7 110.9 156.7 110.9 C 156.9 111.0 157.0 111.0 157.1 111.1 C 157.1 111.1 157.2 111.7 157.6 111.8 C 157.9 111.9 158.2 112.2 158.4 112.3 C 158.6 112.5 158.9 112.6 159.0 112.5 C 159.2 112.4 159.8 112.0 159.8 112.0 C 159.8 112.0 160.2 112.1 160.3 112.3 C 160.4 112.5 160.2 112.8 160.1 112.9 C 160.0 113.0 159.8 113.3 160.0 113.5 C 160.2 113.7 160.9 114.6 161.2 114.5 C 161.4 114.5 161.6 114.2 161.7 114.2 C 161.8 114.2 162.5 114.6 162.4 114.8 C 162.4 115.0 162.1 115.3 162.3 115.4 C 162.5 115.5 162.8 115.8 162.9 115.7 C 162.9 115.6 163.1 115.6 163.2 115.4 C 163.4 115.3 163.8 115.4 164.0 115.3 C 164.1 115.3 164.4 115.5 164.4 115.5 C 164.4 115.6 164.5 115.8 164.6 116.0 C 164.6 116.0 164.1 116.2 164.0 116.1 C 163.8 116.1 163.9 116.5 164.0 116.6 C 164.1 116.7 164.8 117.1 164.8 117.1 C 164.9 116.8 165.1 116.6 165.3 116.4 C 165.5 116.4 165.7 116.5 165.9 116.6 C 165.9 116.6 165.2 117.4 165.6 117.6 C 165.9 117.8 166.3 118.1 166.3 118.1 C 166.3 118.1 166.8 118.0 166.9 118.0 C 167.0 118.0 167.6 117.3 167.6 117.3 C 167.8 117.0 167.9 116.7 168.1 116.4 C 168.1 116.4 167.9 115.8 167.6 115.8 C 167.3 115.8 167.3 116.2 167.1 116.3 C 167.0 116.5 166.6 116.4 166.6 116.4 C 166.6 116.1 166.5 115.9 166.5 115.6 C 166.5 115.6 166.5 115.4 166.4 115.1 C 166.4 114.9 165.9 114.5 165.7 114.4 C 165.6 114.4 165.3 114.5 165.0 114.5 C 164.7 114.5 164.6 114.8 164.5 114.5 C 164.4 114.1 164.5 113.8 164.4 113.7 C 164.3 113.7 163.6 113.6 163.6 113.6 C 163.4 113.6 163.3 113.6 163.1 113.6 C 163.1 113.6 162.6 113.5 162.7 113.3 C 162.8 113.1 161.9 112.8 161.9 112.8 C 161.9 112.8 162.4 112.3 162.2 112.1 C 162.1 111.9 161.9 111.6 161.6 111.5 C 161.2 111.4 160.7 111.7 160.7 111.7 C 160.7 111.5 160.7 111.4 160.7 111.2 C 160.4 110.9 160.2 110.7 159.9 110.5 C 159.9 110.5 159.3 110.1 159.3 110.2 C 159.2 110.3 159.0 110.8 158.9 110.9 C 158.8 111.0 158.3 110.9 158.4 110.7 C 158.5 110.5 158.5 110.0 158.5 110.0 C 158.5 110.0 158.4 109.5 158.2 109.4 C 158.1 109.2 157.7 109.2 157.5 109.2 C 157.4 109.2 156.9 109.4 156.9 109.4 C 156.9 109.2 156.9 109.0 157.0 108.8 C 157.0 108.8 156.3 108.7 156.1 108.0 C 156.1 108.0 156.1 108.0 156.1 108.0 Z M 168.5 116.3 C 167.9 115.9 167.2 117.8 167.2 118.3 C 167.2 118.8 167.8 118.9 168.2 119.3 C 168.6 119.6 168.8 119.0 169.1 119.0 C 169.5 119.0 169.1 119.3 169.1 119.6 C 169.0 119.9 169.8 120.2 170.2 120.5 C 170.6 120.7 171.4 120.5 171.7 120.7 C 172.0 120.8 171.6 120.2 172.2 120.6 C 172.7 121.0 172.2 121.1 171.4 120.8 C 170.7 120.6 171.5 121.3 171.8 121.6 C 172.1 121.9 172.9 122.1 173.1 122.3 C 173.4 122.6 173.3 121.9 173.7 122.2 C 174.1 122.5 173.6 122.7 174.0 123.1 C 174.4 123.4 174.6 123.0 174.9 123.1 C 175.1 123.1 174.9 123.3 175.1 123.5 C 175.2 123.6 175.4 123.9 175.9 124.1 C 176.3 124.3 176.3 124.1 176.5 124.2 C 176.7 124.3 177.0 124.5 177.0 124.5 C 176.9 124.6 176.9 124.8 176.8 125.0 C 176.8 125.0 177.5 125.5 177.7 125.6 C 177.9 125.8 178.5 126.0 178.4 125.8 C 178.3 125.6 179.0 125.7 179.1 125.8 C 179.1 125.9 179.3 126.4 179.5 126.6 C 179.7 126.9 180.4 125.8 180.5 125.6 C 180.6 125.5 181.1 125.0 180.9 124.8 C 180.8 124.6 180.4 124.7 180.6 124.5 C 180.7 124.4 180.0 124.1 179.8 124.0 C 179.6 123.9 179.1 124.2 179.1 124.2 C 179.1 124.2 178.7 124.4 178.5 124.2 C 178.2 124.0 178.5 123.2 178.5 123.2 C 178.5 123.2 178.3 122.9 177.9 122.7 C 177.5 122.5 176.8 122.8 176.6 122.8 C 176.5 122.9 176.8 122.4 176.6 122.2 C 176.4 121.9 176.1 121.5 176.0 121.5 C 175.9 121.5 175.5 121.7 175.5 121.7 C 175.5 121.7 174.9 121.6 174.8 121.5 C 174.7 121.4 175.2 121.1 175.2 121.1 C 175.2 121.1 174.3 120.3 174.2 120.1 C 174.0 119.9 173.6 119.8 173.4 119.8 C 173.3 119.7 172.6 120.2 172.5 120.0 C 172.3 119.8 173.0 119.7 172.8 119.5 C 172.6 119.3 172.3 118.9 172.2 118.9 C 172.1 118.8 171.8 118.9 171.6 118.8 C 171.4 118.7 170.9 119.0 170.6 118.8 C 170.3 118.6 170.4 118.3 170.3 118.1 C 170.2 118.0 170.4 117.5 170.2 117.4 C 170.0 117.2 170.0 117.6 169.8 117.5 C 169.6 117.3 169.3 117.6 169.2 117.4 C 169.0 117.2 169.5 116.8 169.2 116.7 C 169.1 116.7 169.2 116.7 168.5 116.3 C 168.5 116.3 168.5 116.3 168.5 116.3 Z M 182.0 126.2 C 181.8 126.2 181.9 125.8 181.6 125.4 C 181.3 125.1 180.9 124.8 180.9 125.0 C 180.8 125.3 180.8 125.5 180.5 125.6 C 180.1 125.8 179.6 126.1 179.8 126.4 C 179.9 126.7 180.6 127.8 181.0 127.8 C 181.5 127.8 181.7 127.7 182.0 127.7 C 182.3 127.8 181.8 128.1 181.8 128.1 C 181.8 128.1 182.3 128.6 182.7 128.9 C 183.0 129.2 183.5 129.5 183.6 129.4 C 183.7 129.4 183.9 129.3 183.9 129.3 C 183.9 129.3 184.0 129.7 184.2 129.9 C 184.5 130.1 184.5 129.9 184.5 129.8 C 184.5 129.6 184.4 129.1 184.5 129.2 C 184.7 129.3 184.7 130.0 184.9 130.2 C 185.0 130.4 185.5 130.7 185.5 130.7 C 185.5 130.7 185.7 130.3 185.7 130.3 C 185.8 130.3 186.3 130.5 186.3 130.7 C 186.2 130.8 186.0 131.0 186.2 131.2 C 186.9 131.7 187.1 131.1 187.2 131.2 C 187.3 131.2 187.0 131.6 187.1 131.8 C 187.2 132.0 188.7 132.8 188.8 132.8 C 188.9 132.7 189.1 133.4 189.5 133.3 C 189.9 133.2 190.0 133.1 190.1 133.1 C 190.2 133.1 190.7 132.8 190.8 133.1 C 190.8 133.3 189.9 133.4 190.0 133.7 C 190.1 133.9 190.9 134.5 191.1 134.5 C 191.5 134.5 191.8 134.1 191.9 134.2 C 192.0 134.3 192.2 135.1 192.3 135.1 C 192.4 135.0 192.7 134.6 192.8 134.5 C 192.8 134.4 193.5 133.8 193.5 133.6 C 193.5 133.4 193.1 132.8 193.1 133.1 C 193.0 133.3 192.9 133.7 192.7 133.7 C 192.4 133.6 192.3 133.6 192.3 133.5 C 192.3 133.4 192.5 133.3 192.3 133.0 C 192.1 132.6 192.4 132.5 192.1 132.4 C 191.8 132.2 191.5 132.1 191.4 132.3 C 191.3 132.4 190.8 132.5 190.6 132.3 C 190.4 132.2 191.0 132.0 190.5 131.4 C 190.0 130.8 189.6 130.5 189.3 130.6 C 189.0 130.6 188.7 131.0 188.5 130.6 C 188.3 130.2 188.6 130.2 188.1 129.9 C 187.7 129.6 187.3 129.9 187.0 129.7 C 186.8 129.6 186.7 129.5 186.7 129.5 C 186.7 129.5 187.2 129.1 186.6 128.6 C 186.0 128.2 185.9 128.1 185.8 128.5 C 185.7 129.0 185.2 128.7 185.4 128.5 C 185.5 128.2 185.3 127.8 185.1 127.6 C 184.9 127.5 184.4 128.0 184.3 128.0 C 184.2 128.0 184.0 127.8 184.3 127.6 C 184.5 127.5 184.3 127.3 184.1 127.1 C 184.0 126.9 183.4 126.6 183.4 126.7 C 183.3 126.8 183.3 127.4 183.0 126.9 C 182.8 126.5 182.9 126.1 182.6 125.9 C 182.2 125.7 182.3 126.2 182.0 126.2 C 182.0 126.2 182.0 126.2 182.0 126.2 Z M 194.1 133.8 C 193.9 133.4 193.5 133.5 193.4 133.7 C 193.2 134.0 192.9 134.7 192.7 134.8 C 192.5 134.9 191.8 135.1 192.3 135.5 C 192.8 136.0 193.0 135.9 193.1 135.7 C 193.2 135.6 193.7 135.0 193.8 135.2 C 193.9 135.3 194.0 135.6 193.9 135.7 C 193.9 135.8 193.7 136.6 194.0 136.6 C 194.4 136.7 194.7 136.7 194.7 136.7 C 194.8 136.8 195.0 136.9 195.1 137.0 C 195.1 137.0 195.2 137.6 195.6 137.7 C 195.9 137.8 196.2 138.0 196.4 138.2 C 196.6 138.4 196.9 138.5 197.0 138.3 C 197.1 138.2 197.8 137.9 197.8 137.9 C 197.8 137.9 198.2 138.0 198.3 138.1 C 198.4 138.3 198.2 138.6 198.1 138.7 C 198.0 138.8 197.8 139.1 198.0 139.3 C 198.2 139.5 198.9 140.5 199.2 140.4 C 199.4 140.3 199.5 140.1 199.7 140.1 C 199.8 140.1 200.5 140.5 200.4 140.7 C 200.4 140.8 200.1 141.1 200.3 141.2 C 200.5 141.3 200.8 141.6 200.9 141.5 C 200.9 141.5 201.1 141.5 201.2 141.3 C 201.4 141.1 201.8 141.2 201.9 141.2 C 202.1 141.2 202.4 141.3 202.4 141.3 C 202.4 141.5 202.5 141.7 202.5 141.8 C 202.5 141.8 202.1 142.0 202.0 142.0 C 201.8 142.0 201.9 142.3 202.0 142.4 C 202.0 142.5 202.8 142.9 202.8 142.9 C 202.9 142.7 203.1 142.5 203.3 142.2 C 203.5 142.3 203.7 142.4 203.9 142.4 C 203.9 142.4 203.2 143.2 203.6 143.4 C 203.9 143.6 204.3 143.9 204.3 143.9 C 204.3 143.9 204.8 143.8 204.9 143.8 C 205.0 143.9 205.6 143.2 205.6 143.2 C 205.7 142.9 205.9 142.5 206.1 142.2 C 206.1 142.2 205.9 141.7 205.6 141.7 C 205.3 141.6 205.3 142.1 205.1 142.2 C 205.0 142.3 204.6 142.2 204.6 142.2 C 204.5 142.0 204.5 141.7 204.5 141.4 C 204.5 141.4 204.4 141.2 204.4 141.0 C 204.4 140.7 203.9 140.3 203.7 140.3 C 203.5 140.2 203.3 140.3 203.0 140.3 C 202.7 140.4 202.6 140.7 202.5 140.3 C 202.4 140.0 202.5 139.7 202.4 139.6 C 202.3 139.5 201.6 139.5 201.6 139.5 C 201.4 139.5 201.2 139.4 201.1 139.4 C 201.1 139.4 200.6 139.3 200.7 139.1 C 200.8 138.9 199.9 138.6 199.9 138.6 C 199.9 138.6 200.4 138.2 200.2 138.0 C 200.1 137.8 199.9 137.4 199.6 137.3 C 199.2 137.2 198.7 137.6 198.7 137.6 C 198.7 137.4 198.7 137.2 198.7 137.0 C 198.4 136.8 198.2 136.6 197.9 136.4 C 197.9 136.4 197.3 136.0 197.2 136.1 C 197.2 136.1 197.0 136.6 196.9 136.7 C 196.7 136.8 196.3 136.7 196.4 136.6 C 196.4 136.4 196.4 135.8 196.4 135.8 C 196.4 135.8 196.4 135.4 196.2 135.2 C 196.0 135.1 195.7 135.0 195.5 135.1 C 195.4 135.1 194.9 135.2 194.9 135.2 C 194.9 135.0 194.9 134.8 194.9 134.7 C 194.9 134.7 194.3 134.5 194.1 133.8 C 194.1 133.8 194.1 133.8 194.1 133.8 Z M 206.5 142.2 C 205.9 141.8 205.2 143.7 205.2 144.2 C 205.2 144.7 205.8 144.8 206.2 145.1 C 206.5 145.5 206.8 144.8 207.1 144.9 C 207.5 144.9 207.1 145.2 207.1 145.5 C 207.0 145.8 207.8 146.0 208.2 146.3 C 208.6 146.6 209.3 146.3 209.7 146.5 C 210.0 146.7 209.6 146.0 210.1 146.4 C 210.7 146.9 210.2 147.0 209.4 146.7 C 208.7 146.4 209.5 147.2 209.8 147.5 C 210.1 147.8 210.9 148.0 211.1 148.2 C 211.4 148.4 211.3 147.7 211.7 148.0 C 212.1 148.3 211.6 148.6 212.0 148.9 C 212.4 149.3 212.6 148.9 212.9 148.9 C 213.1 149.0 212.9 149.2 213.1 149.3 C 213.2 149.5 213.4 149.8 213.9 150.0 C 214.3 150.1 214.3 149.9 214.5 150.0 C 214.7 150.1 215.0 150.3 215.0 150.3 C 214.9 150.5 214.9 150.6 214.8 150.8 C 214.8 150.8 215.5 151.3 215.7 151.5 C 215.9 151.7 216.5 151.8 216.4 151.6 C 216.3 151.5 217.0 151.5 217.1 151.6 C 217.1 151.8 217.3 152.2 217.5 152.5 C 217.7 152.7 218.3 151.6 218.4 151.5 C 218.6 151.3 219.1 150.8 218.9 150.6 C 218.7 150.4 218.4 150.5 218.6 150.4 C 218.7 150.3 218.0 150.0 217.8 149.9 C 217.6 149.8 217.1 150.0 217.1 150.0 C 217.1 150.0 216.7 150.2 216.5 150.0 C 216.2 149.8 216.5 149.1 216.5 149.1 C 216.5 149.1 216.2 148.7 215.9 148.5 C 215.5 148.3 214.7 148.6 214.6 148.7 C 214.4 148.7 214.8 148.2 214.6 148.0 C 214.4 147.8 214.1 147.4 214.0 147.3 C 213.9 147.3 213.5 147.5 213.5 147.5 C 213.5 147.5 212.9 147.4 212.8 147.3 C 212.7 147.3 213.2 146.9 213.2 146.9 C 213.2 146.9 212.3 146.1 212.2 145.9 C 212.0 145.8 211.6 145.7 211.4 145.6 C 211.3 145.5 210.6 146.0 210.5 145.8 C 210.3 145.6 210.9 145.6 210.8 145.4 C 210.6 145.2 210.3 144.8 210.2 144.7 C 210.1 144.6 209.8 144.7 209.6 144.7 C 209.4 144.6 208.9 144.9 208.6 144.7 C 208.3 144.5 208.3 144.1 208.3 144.0 C 208.2 143.8 208.4 143.4 208.2 143.2 C 208.0 143.1 208.0 143.4 207.7 143.3 C 207.5 143.2 207.3 143.5 207.2 143.3 C 207.0 143.1 207.5 142.7 207.2 142.6 C 207.0 142.5 207.2 142.6 206.5 142.2 C 206.5 142.2 206.5 142.2 206.5 142.2 Z M 219.4 151.1 C 219.3 150.6 218.8 150.7 218.7 151.0 C 218.6 151.2 218.3 151.9 218.0 152.0 C 217.8 152.1 217.2 152.3 217.6 152.7 C 218.1 153.2 218.3 153.1 218.4 153.0 C 218.5 152.8 219.1 152.2 219.2 152.4 C 219.3 152.6 219.3 152.8 219.3 152.9 C 219.3 153.0 219.0 153.8 219.4 153.9 C 219.7 154.0 220.0 154.0 220.0 154.0 C 220.2 154.0 220.3 154.1 220.4 154.2 C 220.4 154.2 220.6 154.8 220.9 154.9 C 221.2 155.0 221.6 155.2 221.8 155.4 C 221.9 155.6 222.2 155.7 222.3 155.6 C 222.5 155.4 223.1 155.1 223.1 155.1 C 223.1 155.1 223.5 155.2 223.6 155.4 C 223.7 155.6 223.5 155.9 223.4 156.0 C 223.3 156.1 223.1 156.4 223.3 156.6 C 223.5 156.8 224.2 157.7 224.5 157.6 C 224.7 157.5 224.9 157.3 225.0 157.3 C 225.2 157.3 225.8 157.7 225.7 157.9 C 225.7 158.1 225.4 158.4 225.6 158.4 C 225.8 158.5 226.1 158.9 226.2 158.8 C 226.3 158.7 226.4 158.7 226.6 158.5 C 226.7 158.4 227.1 158.5 227.3 158.4 C 227.4 158.4 227.7 158.6 227.7 158.6 C 227.8 158.7 227.8 158.9 227.9 159.1 C 227.9 159.1 227.4 159.2 227.3 159.2 C 227.1 159.2 227.2 159.5 227.3 159.6 C 227.4 159.7 228.1 160.1 228.1 160.1 C 228.3 159.9 228.4 159.7 228.6 159.5 C 228.8 159.5 229.0 159.6 229.2 159.6 C 229.2 159.6 228.6 160.4 228.9 160.7 C 229.2 160.9 229.6 161.1 229.6 161.1 C 229.6 161.1 230.1 161.1 230.2 161.1 C 230.4 161.1 230.9 160.4 230.9 160.4 C 231.1 160.1 231.2 159.8 231.4 159.5 C 231.4 159.5 231.2 158.9 230.9 158.9 C 230.6 158.9 230.6 159.3 230.5 159.4 C 230.3 159.5 229.9 159.5 229.9 159.5 C 229.9 159.2 229.8 158.9 229.8 158.7 C 229.8 158.7 229.8 158.4 229.7 158.2 C 229.7 158.0 229.2 157.5 229.1 157.5 C 228.9 157.5 228.6 157.6 228.3 157.6 C 228.0 157.6 227.9 157.9 227.8 157.5 C 227.7 157.2 227.8 156.9 227.7 156.8 C 227.6 156.7 226.9 156.7 226.9 156.7 C 226.7 156.7 226.6 156.7 226.4 156.6 C 226.4 156.6 226.0 156.6 226.0 156.4 C 226.1 156.1 225.3 155.9 225.3 155.9 C 225.3 155.9 225.7 155.4 225.6 155.2 C 225.4 155.0 225.2 154.7 224.9 154.6 C 224.5 154.5 224.0 154.8 224.0 154.8 C 224.0 154.6 224.0 154.4 224.0 154.2 C 223.7 154.0 223.5 153.8 223.3 153.6 C 223.3 153.6 222.6 153.2 222.6 153.3 C 222.5 153.4 222.3 153.9 222.2 154.0 C 222.1 154.0 221.6 154.0 221.7 153.8 C 221.8 153.6 221.8 153.0 221.8 153.0 C 221.8 153.0 221.7 152.6 221.5 152.5 C 221.4 152.3 221.0 152.3 220.9 152.3 C 220.7 152.3 220.2 152.5 220.2 152.5 C 220.2 152.3 220.3 152.1 220.3 151.9 C 220.3 151.9 219.6 151.8 219.4 151.1 C 219.4 151.1 219.4 151.1 219.4 151.1 Z M 232.6 160.7 C 232.4 160.6 232.5 160.2 232.3 159.9 C 232.0 159.6 231.6 159.3 231.5 159.5 C 231.5 159.8 231.5 160.0 231.1 160.1 C 230.8 160.2 230.3 160.5 230.4 160.8 C 230.6 161.2 231.2 162.3 231.7 162.3 C 232.1 162.2 232.3 162.2 232.6 162.2 C 233.0 162.2 232.5 162.6 232.5 162.6 C 232.5 162.6 233.0 163.0 233.3 163.3 C 233.7 163.6 234.1 163.9 234.2 163.9 C 234.3 163.8 234.6 163.8 234.6 163.8 C 234.6 163.8 234.6 164.1 234.9 164.4 C 235.1 164.6 235.1 164.4 235.2 164.3 C 235.2 164.1 235.1 163.6 235.2 163.6 C 235.3 163.7 235.3 164.5 235.5 164.7 C 235.7 164.8 236.2 165.1 236.2 165.1 C 236.2 165.1 236.3 164.8 236.4 164.8 C 236.5 164.7 237.0 165.0 236.9 165.1 C 236.9 165.2 236.6 165.5 236.8 165.7 C 237.5 166.2 237.8 165.6 237.9 165.6 C 237.9 165.7 237.6 166.1 237.8 166.3 C 237.9 166.4 239.3 167.3 239.4 167.3 C 239.6 167.2 239.8 167.9 240.2 167.8 C 240.5 167.7 240.7 167.6 240.7 167.6 C 240.8 167.5 241.4 167.3 241.4 167.5 C 241.4 167.8 240.6 167.9 240.6 168.1 C 240.7 168.4 241.5 169.0 241.8 169.0 C 242.1 168.9 242.4 168.6 242.6 168.6 C 242.7 168.7 242.8 169.6 242.9 169.5 C 243.0 169.5 243.4 169.1 243.4 169.0 C 243.5 168.9 244.2 168.2 244.1 168.1 C 244.1 167.9 243.8 167.2 243.7 167.5 C 243.6 167.8 243.6 168.1 243.3 168.1 C 243.1 168.1 242.9 168.0 243.0 167.9 C 243.0 167.8 243.1 167.8 242.9 167.4 C 242.7 167.1 243.0 167.0 242.7 166.8 C 242.4 166.7 242.1 166.5 242.0 166.7 C 242.0 166.9 241.5 166.9 241.3 166.8 C 241.1 166.6 241.7 166.5 241.1 165.9 C 240.6 165.3 240.2 165.0 239.9 165.0 C 239.7 165.0 239.3 165.5 239.1 165.1 C 239.0 164.7 239.2 164.7 238.8 164.4 C 238.4 164.1 238.0 164.4 237.7 164.2 C 237.4 164.0 237.3 164.0 237.3 164.0 C 237.3 164.0 237.8 163.5 237.3 163.1 C 236.7 162.7 236.6 162.6 236.5 163.0 C 236.3 163.5 235.9 163.2 236.0 162.9 C 236.2 162.7 235.9 162.3 235.7 162.1 C 235.6 161.9 235.1 162.5 235.0 162.5 C 234.9 162.4 234.7 162.2 234.9 162.1 C 235.1 162.0 234.9 161.8 234.8 161.6 C 234.7 161.3 234.1 161.0 234.0 161.2 C 233.9 161.3 233.9 161.9 233.7 161.4 C 233.5 160.9 233.6 160.6 233.2 160.3 C 232.9 160.1 232.9 160.7 232.6 160.7 C 232.6 160.7 232.6 160.7 232.6 160.7 Z M 244.7 168.3 C 244.6 167.9 244.1 168.0 244.0 168.2 C 243.9 168.5 243.6 169.1 243.4 169.2 C 243.1 169.3 242.5 169.5 243.0 170.0 C 243.4 170.4 243.7 170.3 243.8 170.2 C 243.9 170.0 244.4 169.5 244.5 169.6 C 244.6 169.8 244.6 170.1 244.6 170.2 C 244.6 170.3 244.4 171.0 244.7 171.1 C 245.0 171.2 245.4 171.2 245.4 171.2 C 245.5 171.3 245.6 171.3 245.8 171.4 C 245.8 171.4 245.9 172.0 246.2 172.2 C 246.6 172.3 246.9 172.5 247.1 172.7 C 247.3 172.8 247.5 172.9 247.7 172.8 C 247.8 172.7 248.4 172.4 248.4 172.4 C 248.4 172.4 248.8 172.4 248.9 172.6 C 249.0 172.8 248.9 173.1 248.7 173.2 C 248.6 173.3 248.5 173.6 248.6 173.8 C 248.8 174.0 249.5 174.9 249.8 174.8 C 250.1 174.8 250.2 174.5 250.3 174.5 C 250.5 174.6 251.1 174.9 251.1 175.1 C 251.0 175.3 250.8 175.6 251.0 175.7 C 251.2 175.8 251.5 176.1 251.5 176.0 C 251.6 175.9 251.8 175.9 251.9 175.8 C 252.0 175.6 252.5 175.7 252.6 175.7 C 252.7 175.6 253.0 175.8 253.0 175.8 C 253.1 176.0 253.1 176.1 253.2 176.3 C 253.2 176.3 252.8 176.5 252.6 176.5 C 252.5 176.5 252.5 176.8 252.6 176.9 C 252.7 177.0 253.4 177.4 253.4 177.4 C 253.6 177.2 253.7 176.9 253.9 176.7 C 254.1 176.8 254.3 176.8 254.5 176.9 C 254.5 176.9 253.9 177.7 254.2 177.9 C 254.5 178.1 254.9 178.4 254.9 178.4 C 254.9 178.4 255.5 178.3 255.6 178.3 C 255.7 178.3 256.2 177.6 256.2 177.6 C 256.4 177.3 256.6 177.0 256.7 176.7 C 256.7 176.7 256.5 176.2 256.2 176.1 C 256.0 176.1 255.9 176.5 255.8 176.6 C 255.6 176.8 255.2 176.7 255.2 176.7 C 255.2 176.4 255.2 176.2 255.1 175.9 C 255.1 175.9 255.1 175.7 255.0 175.4 C 255.0 175.2 254.6 174.8 254.4 174.7 C 254.2 174.7 253.9 174.8 253.6 174.8 C 253.4 174.8 253.2 175.1 253.1 174.8 C 253.1 174.4 253.1 174.1 253.0 174.1 C 252.9 174.0 252.2 173.9 252.2 173.9 C 252.1 173.9 251.9 173.9 251.7 173.9 C 251.7 173.9 251.3 173.8 251.3 173.6 C 251.4 173.4 250.6 173.1 250.6 173.1 C 250.6 173.1 251.0 172.6 250.9 172.4 C 250.8 172.2 250.6 171.9 250.2 171.8 C 249.9 171.7 249.3 172.0 249.3 172.0 C 249.3 171.9 249.3 171.7 249.3 171.5 C 249.1 171.3 248.8 171.0 248.6 170.8 C 248.6 170.8 248.0 170.4 247.9 170.5 C 247.8 170.6 247.6 171.1 247.5 171.2 C 247.4 171.3 247.0 171.2 247.0 171.0 C 247.1 170.9 247.1 170.3 247.1 170.3 C 247.1 170.3 247.0 169.8 246.8 169.7 C 246.7 169.5 246.3 169.5 246.2 169.5 C 246.1 169.6 245.5 169.7 245.5 169.7 C 245.6 169.5 245.6 169.3 245.6 169.1 C 245.6 169.1 245.0 169.0 244.7 168.3 C 244.7 168.3 244.7 168.3 244.7 168.3 Z M 257.9 177.9 C 257.8 177.9 257.9 177.5 257.6 177.1 C 257.3 176.8 256.9 176.5 256.8 176.7 C 256.8 177.0 256.8 177.2 256.5 177.3 C 256.1 177.5 255.6 177.8 255.7 178.1 C 255.9 178.4 256.5 179.5 257.0 179.5 C 257.5 179.5 257.6 179.4 258.0 179.4 C 258.3 179.5 257.8 179.8 257.8 179.8 C 257.8 179.8 258.3 180.3 258.6 180.6 C 259.0 180.9 259.4 181.2 259.5 181.1 C 259.6 181.1 259.9 181.0 259.9 181.0 C 259.9 181.0 259.9 181.4 260.2 181.6 C 260.5 181.8 260.5 181.6 260.5 181.5 C 260.5 181.3 260.4 180.8 260.5 180.9 C 260.6 181.0 260.7 181.7 260.8 181.9 C 261.0 182.1 261.5 182.4 261.5 182.4 C 261.5 182.4 261.6 182.0 261.7 182.0 C 261.8 182.0 262.3 182.2 262.2 182.4 C 262.2 182.5 261.9 182.7 262.2 182.9 C 262.8 183.4 263.1 182.8 263.2 182.9 C 263.3 182.9 263.0 183.3 263.1 183.5 C 263.2 183.7 264.6 184.5 264.8 184.5 C 264.9 184.4 265.1 185.1 265.5 185.0 C 265.9 184.9 266.0 184.8 266.1 184.8 C 266.2 184.8 266.7 184.5 266.7 184.8 C 266.7 185.0 265.9 185.1 266.0 185.4 C 266.0 185.6 266.9 186.2 267.1 186.2 C 267.4 186.2 267.8 185.8 267.9 185.9 C 268.0 186.0 268.1 186.8 268.2 186.8 C 268.3 186.7 268.7 186.3 268.8 186.2 C 268.8 186.1 269.5 185.5 269.5 185.3 C 269.4 185.1 269.1 184.5 269.0 184.8 C 269.0 185.0 268.9 185.4 268.6 185.4 C 268.4 185.3 268.3 185.3 268.3 185.2 C 268.3 185.1 268.5 185.0 268.3 184.7 C 268.1 184.3 268.3 184.2 268.0 184.1 C 267.7 183.9 267.4 183.8 267.4 184.0 C 267.3 184.1 266.8 184.2 266.6 184.0 C 266.4 183.9 267.0 183.7 266.5 183.1 C 265.9 182.5 265.5 182.2 265.3 182.3 C 265.0 182.3 264.6 182.7 264.5 182.3 C 264.3 181.9 264.5 181.9 264.1 181.6 C 263.7 181.3 263.3 181.6 263.0 181.4 C 262.7 181.3 262.7 181.2 262.7 181.2 C 262.7 181.2 263.2 180.8 262.6 180.3 C 262.0 179.9 261.9 179.8 261.8 180.2 C 261.7 180.7 261.2 180.4 261.3 180.2 C 261.5 179.9 261.2 179.5 261.1 179.3 C 260.9 179.2 260.4 179.7 260.3 179.7 C 260.2 179.7 260.0 179.5 260.2 179.3 C 260.5 179.2 260.2 179.0 260.1 178.8 C 260.0 178.6 259.4 178.3 259.3 178.4 C 259.3 178.5 259.2 179.1 259.0 178.6 C 258.8 178.2 258.9 177.8 258.5 177.6 C 258.2 177.4 258.2 177.9 257.9 177.9 C 257.9 177.9 257.9 177.9 257.9 177.9 Z M 270.1 185.5 C 269.9 185.1 269.4 185.2 269.3 185.4 C 269.2 185.7 268.9 186.4 268.7 186.5 C 268.5 186.6 267.8 186.8 268.3 187.2 C 268.8 187.7 269.0 187.6 269.1 187.4 C 269.2 187.3 269.7 186.7 269.8 186.9 C 269.9 187.0 269.9 187.3 269.9 187.4 C 269.9 187.5 269.7 188.3 270.0 188.3 C 270.3 188.4 270.7 188.4 270.7 188.4 C 270.8 188.5 271.0 188.6 271.1 188.7 C 271.1 188.7 271.2 189.3 271.5 189.4 C 271.9 189.5 272.2 189.7 272.4 189.9 C 272.6 190.1 272.8 190.1 273.0 190.0 C 273.1 189.9 273.8 189.6 273.8 189.6 C 273.8 189.6 274.2 189.7 274.3 189.8 C 274.3 190.0 274.2 190.3 274.1 190.4 C 274.0 190.5 273.8 190.8 274.0 191.0 C 274.1 191.2 274.9 192.2 275.1 192.1 C 275.4 192.0 275.5 191.8 275.7 191.8 C 275.8 191.8 276.4 192.2 276.4 192.4 C 276.3 192.5 276.1 192.8 276.3 192.9 C 276.5 193.0 276.8 193.3 276.8 193.2 C 276.9 193.2 277.1 193.2 277.2 193.0 C 277.3 192.8 277.8 192.9 277.9 192.9 C 278.1 192.9 278.4 193.0 278.4 193.0 C 278.4 193.2 278.5 193.4 278.5 193.5 C 278.5 193.5 278.1 193.7 277.9 193.7 C 277.8 193.7 277.8 194.0 277.9 194.1 C 278.0 194.2 278.7 194.6 278.7 194.6 C 278.9 194.4 279.1 194.2 279.3 193.9 C 279.4 194.0 279.6 194.1 279.9 194.1 C 279.9 194.1 279.2 194.9 279.5 195.1 C 279.9 195.3 280.2 195.6 280.2 195.6 C 280.2 195.6 280.8 195.5 280.9 195.5 C 281.0 195.6 281.5 194.9 281.5 194.9 C 281.7 194.5 281.9 194.2 282.1 193.9 C 282.1 193.9 281.9 193.4 281.6 193.4 C 281.3 193.3 281.2 193.8 281.1 193.9 C 281.0 194.0 280.6 193.9 280.6 193.9 C 280.5 193.7 280.5 193.4 280.4 193.1 C 280.4 193.1 280.4 192.9 280.4 192.7 C 280.3 192.4 279.9 192.0 279.7 192.0 C 279.5 191.9 279.2 192.0 279.0 192.0 C 278.7 192.1 278.5 192.3 278.5 192.0 C 278.4 191.7 278.4 191.4 278.3 191.3 C 278.2 191.2 277.6 191.2 277.6 191.2 C 277.4 191.2 277.2 191.1 277.0 191.1 C 277.0 191.1 276.6 191.0 276.7 190.8 C 276.7 190.6 275.9 190.3 275.9 190.3 C 275.9 190.3 276.3 189.9 276.2 189.7 C 276.1 189.5 275.9 189.1 275.5 189.0 C 275.2 188.9 274.6 189.3 274.6 189.3 C 274.6 189.1 274.6 188.9 274.6 188.7 C 274.4 188.5 274.2 188.3 273.9 188.1 C 273.9 188.1 273.3 187.7 273.2 187.8 C 273.2 187.8 272.9 188.3 272.8 188.4 C 272.7 188.5 272.3 188.4 272.4 188.3 C 272.4 188.1 272.4 187.5 272.4 187.5 C 272.4 187.5 272.3 187.1 272.2 186.9 C 272.0 186.8 271.6 186.7 271.5 186.8 C 271.4 186.8 270.9 186.9 270.9 186.9 C 270.9 186.7 270.9 186.5 270.9 186.4 C 270.9 186.4 270.3 186.2 270.1 185.5 C 270.1 185.5 270.1 185.5 270.1 185.5 Z M 283.3 195.1 C 283.1 195.1 283.2 194.7 282.9 194.4 C 282.6 194.0 282.2 193.7 282.2 194.0 C 282.1 194.2 282.1 194.4 281.8 194.6 C 281.4 194.7 280.9 195.0 281.1 195.3 C 281.2 195.6 281.9 196.7 282.3 196.7 C 282.8 196.7 283.0 196.7 283.3 196.7 C 283.6 196.7 283.1 197.1 283.1 197.1 C 283.1 197.1 283.6 197.5 284.0 197.8 C 284.3 198.1 284.8 198.4 284.9 198.4 C 285.0 198.3 285.2 198.2 285.2 198.2 C 285.2 198.2 285.3 198.6 285.5 198.8 C 285.8 199.1 285.8 198.9 285.8 198.7 C 285.8 198.6 285.7 198.0 285.8 198.1 C 286.0 198.2 286.0 198.9 286.2 199.1 C 286.3 199.3 286.8 199.6 286.8 199.6 C 286.8 199.6 287.0 199.3 287.0 199.2 C 287.1 199.2 287.6 199.5 287.6 199.6 C 287.5 199.7 287.3 200.0 287.5 200.1 C 288.2 200.7 288.4 200.1 288.5 200.1 C 288.6 200.1 288.3 200.5 288.4 200.7 C 288.5 200.9 289.9 201.8 290.1 201.7 C 290.2 201.7 290.4 202.4 290.8 202.2 C 291.2 202.1 291.3 202.1 291.4 202.0 C 291.5 202.0 292.0 201.8 292.1 202.0 C 292.1 202.3 291.2 202.4 291.3 202.6 C 291.3 202.8 292.2 203.5 292.4 203.4 C 292.8 203.4 293.1 203.0 293.2 203.1 C 293.3 203.2 293.5 204.0 293.6 204.0 C 293.7 203.9 294.0 203.5 294.1 203.5 C 294.1 203.4 294.8 202.7 294.8 202.5 C 294.8 202.4 294.4 201.7 294.4 202.0 C 294.3 202.3 294.2 202.6 294.0 202.6 C 293.7 202.6 293.6 202.5 293.6 202.4 C 293.6 202.3 293.8 202.3 293.6 201.9 C 293.4 201.5 293.7 201.5 293.4 201.3 C 293.1 201.1 292.8 201.0 292.7 201.2 C 292.6 201.4 292.1 201.4 291.9 201.3 C 291.7 201.1 292.3 201.0 291.8 200.4 C 291.3 199.8 290.9 199.5 290.6 199.5 C 290.3 199.5 290.0 199.9 289.8 199.5 C 289.6 199.1 289.9 199.1 289.4 198.8 C 289.0 198.6 288.6 198.8 288.3 198.7 C 288.1 198.5 288.0 198.4 288.0 198.4 C 288.0 198.4 288.5 198.0 287.9 197.6 C 287.3 197.1 287.2 197.0 287.1 197.5 C 287.0 197.9 286.5 197.7 286.7 197.4 C 286.8 197.1 286.6 196.7 286.4 196.6 C 286.2 196.4 285.7 197.0 285.6 196.9 C 285.5 196.9 285.3 196.7 285.5 196.6 C 285.8 196.4 285.6 196.2 285.4 196.0 C 285.3 195.8 284.7 195.5 284.7 195.6 C 284.6 195.7 284.6 196.3 284.3 195.9 C 284.1 195.4 284.2 195.0 283.9 194.8 C 283.5 194.6 283.6 195.2 283.3 195.1 C 283.3 195.1 283.3 195.1 283.3 195.1 Z M 283.3 195.1 " fill="#CE7123"></path><path d="M 289.4 209.0 C 289.2 209.2 288.4 208.9 289.1 208.8 C 289.2 208.8 289.5 208.9 289.4 209.0 Z M 291.0 209.1 C 290.9 209.1 290.8 209.1 290.7 209.0 C 290.5 208.7 291.4 209.1 291.0 209.1 Z M 288.8 208.6 C 288.7 208.7 288.2 208.6 288.3 208.6 C 288.4 208.5 288.8 208.6 288.8 208.6 Z M 292.4 208.6 C 292.4 208.7 291.8 208.7 291.8 208.6 C 291.5 208.4 292.4 208.3 292.4 208.6 Z M 290.7 204.7 C 290.7 204.7 290.7 204.6 290.7 204.6 C 290.7 204.6 290.7 204.7 290.7 204.7 Z M 299.5 209.3 C 299.4 209.3 299.2 209.2 299.3 209.1 C 299.3 209.0 299.8 209.3 299.5 209.3 Z M 295.3 197.4 C 295.3 197.4 295.1 197.5 295.1 197.4 C 295.1 197.3 295.3 197.3 295.3 197.4 Z M 295.2 197.3 C 295.1 197.3 295.1 197.1 295.2 197.2 C 295.3 197.3 295.3 197.3 295.2 197.3 Z M 300.0 202.8 C 300.0 202.8 300.0 202.9 300.0 202.8 C 299.9 202.8 299.9 202.7 300.0 202.8 Z M 299.7 202.6 C 299.6 202.6 299.7 202.4 299.8 202.5 C 299.9 202.6 299.9 202.7 299.7 202.6 Z M 299.7 201.0 C 299.7 201.0 299.8 201.1 299.7 201.0 C 299.6 201.0 299.6 200.9 299.7 201.0 Z M 293.0 200.1 C 293.0 200.1 293.2 199.9 293.3 199.9 C 293.4 200.0 293.0 200.3 293.0 200.1 Z M 293.2 199.8 C 293.1 199.8 293.1 199.6 293.2 199.7 C 293.2 199.8 293.2 199.8 293.2 199.8 Z M 292.7 200.8 C 292.8 200.9 292.7 201.2 292.6 201.2 C 292.5 201.2 292.4 201.3 292.3 201.4 C 292.3 201.4 292.6 200.7 292.7 200.8 Z M 291.5 202.8 C 291.5 202.8 291.5 202.8 291.6 202.7 C 291.7 202.6 291.6 202.9 291.5 202.8 Z M 292.2 201.7 C 292.1 201.7 292.1 201.6 292.2 201.6 C 292.3 201.5 292.2 201.7 292.2 201.7 Z M 295.2 209.1 C 295.3 209.2 294.9 209.1 294.9 209.0 C 294.8 209.0 295.0 209.0 294.9 209.0 C 294.8 208.9 295.1 208.7 295.2 209.1 Z M 291.8 209.1 C 291.7 209.1 291.7 209.0 291.8 208.9 C 291.8 208.9 292.1 209.1 291.8 209.1 Z M 294.8 208.6 C 294.8 208.6 294.7 208.6 294.7 208.6 C 294.7 208.5 294.8 208.5 294.8 208.6 Z M 295.0 208.5 C 294.9 208.5 294.8 208.4 294.8 208.3 C 294.9 208.2 295.3 208.5 295.0 208.5 Z M 295.7 209.2 C 295.6 209.2 295.6 209.2 295.7 209.2 C 295.7 209.1 295.7 209.2 295.7 209.2 Z M 293.7 209.3 C 293.6 209.3 293.6 209.3 293.7 209.2 C 293.7 209.2 293.7 209.3 293.7 209.3 Z M 296.6 209.1 C 296.6 209.1 296.4 209.2 296.3 209.0 C 296.3 208.7 296.6 209.0 296.6 209.1 Z M 298.0 208.8 C 297.9 208.8 298.0 208.7 298.1 208.8 C 298.2 208.8 298.1 208.9 298.0 208.8 Z M 298.6 208.4 C 298.7 208.5 298.8 208.6 298.6 208.6 C 298.4 208.5 298.4 208.3 298.6 208.4 Z M 298.3 208.5 C 298.3 208.5 298.4 208.5 298.4 208.5 C 298.4 208.6 298.3 208.5 298.3 208.5 Z M 297.1 208.8 C 297.0 208.8 296.9 208.7 297.0 208.7 C 297.2 208.6 297.2 208.7 297.1 208.8 Z M 289.5 205.4 C 289.5 205.4 289.4 205.3 289.3 205.3 C 289.3 205.2 289.5 205.3 289.5 205.4 Z M 292.7 201.5 C 292.6 201.5 292.7 201.5 292.8 201.4 C 292.9 201.3 292.8 201.5 292.7 201.5 Z M 294.7 199.0 C 294.6 199.0 294.7 199.0 294.8 198.9 C 294.9 198.8 294.8 199.0 294.7 199.0 Z M 292.0 202.6 C 292.0 202.6 291.9 202.1 292.2 202.1 C 292.5 202.1 292.2 202.6 292.0 202.6 Z M 292.4 206.6 C 292.3 206.6 292.3 206.6 292.3 206.6 C 292.4 206.5 292.4 206.5 292.4 206.6 Z M 292.7 202.2 C 292.7 202.3 292.6 202.2 292.6 202.1 C 292.6 202.0 292.8 202.1 292.7 202.2 Z M 294.3 199.4 C 294.1 199.5 294.0 199.3 294.0 199.2 C 294.0 198.8 294.3 198.8 294.5 198.8 C 294.7 198.7 294.3 199.3 294.3 199.4 Z M 289.4 206.3 C 289.5 206.2 289.6 206.2 289.6 206.1 C 289.6 206.1 289.6 206.0 289.7 206.0 C 289.8 205.7 289.7 205.4 289.8 205.2 C 289.9 204.7 290.5 204.9 290.7 204.7 C 290.6 204.8 290.6 204.8 290.6 204.9 C 290.7 205.1 291.2 204.1 291.3 204.1 C 291.7 203.2 290.9 204.0 290.6 203.9 C 290.5 203.8 291.2 203.5 291.2 203.4 C 291.5 203.3 291.3 203.0 291.5 202.9 C 291.6 202.8 292.4 202.9 292.4 202.8 C 292.4 202.7 292.6 202.5 292.7 202.4 C 292.8 202.2 292.9 202.0 292.6 202.0 C 292.4 202.0 292.2 201.9 292.5 201.8 C 292.7 201.7 293.7 201.1 293.2 200.8 C 293.2 200.8 292.9 200.9 292.9 200.9 C 293.0 200.6 293.7 199.9 293.6 199.6 C 293.5 198.9 293.8 199.9 294.0 199.8 C 294.5 199.5 294.7 199.4 295.0 198.9 C 295.0 198.8 295.3 198.4 294.9 198.4 C 294.7 198.5 294.6 198.3 294.4 198.5 C 294.4 198.1 294.9 198.2 294.9 198.0 C 294.8 197.9 294.6 198.0 294.8 197.8 C 295.0 197.6 294.9 197.6 295.1 197.7 C 295.2 197.8 295.4 197.6 295.4 197.6 C 295.4 197.6 295.4 197.6 295.5 197.6 C 295.6 197.4 295.4 196.8 295.5 196.8 C 295.7 196.8 295.8 197.1 295.9 197.1 C 296.0 197.1 296.0 197.1 296.0 197.1 C 296.0 197.0 296.0 196.7 296.1 196.7 C 296.1 196.6 296.4 197.1 296.4 196.9 C 296.3 196.7 296.8 196.3 296.9 196.4 C 297.0 196.5 297.7 196.7 297.7 196.6 C 297.8 196.6 298.0 196.9 298.0 197.0 C 298.1 197.1 298.0 197.3 298.0 197.4 C 298.0 197.4 298.1 197.7 298.1 197.7 C 298.1 197.7 298.2 197.7 298.3 197.9 C 298.4 198.1 298.4 198.3 298.4 198.6 C 298.5 198.9 298.7 198.9 298.8 199.1 C 298.9 199.3 298.7 199.7 298.7 199.9 C 298.7 200.1 299.0 200.0 299.2 200.2 C 299.3 200.5 299.3 200.6 299.2 200.6 C 299.1 200.5 299.1 200.6 299.1 200.7 C 299.2 200.8 299.2 201.1 299.3 201.2 C 299.4 201.3 299.3 200.4 299.7 201.4 C 299.9 201.8 299.8 202.3 299.7 202.2 C 299.5 201.9 299.4 202.8 299.5 202.7 C 299.7 202.7 300.0 203.5 300.2 203.2 C 300.3 203.1 300.7 203.8 300.7 204.0 C 300.7 204.1 301.0 204.4 300.8 204.7 C 300.7 204.8 301.2 205.1 301.3 205.2 C 301.3 205.3 301.5 205.9 301.5 206.1 C 301.5 206.2 301.4 205.9 301.3 205.8 C 301.3 205.6 301.3 205.4 301.2 205.3 C 301.1 205.2 301.1 205.5 301.2 205.7 C 301.2 205.8 301.1 205.9 301.2 206.1 C 301.2 206.1 301.2 206.2 301.3 206.4 C 301.3 206.4 301.4 206.5 301.4 206.4 C 301.5 206.4 301.5 206.3 301.6 206.3 C 301.6 206.3 301.7 206.4 301.8 206.6 C 301.9 206.8 301.9 206.9 302.0 207.2 C 302.0 207.5 302.1 207.5 302.2 207.7 C 302.3 207.9 302.4 208.0 302.3 208.1 C 302.3 208.1 302.1 207.9 302.1 207.9 C 302.0 207.9 302.0 208.2 302.0 208.3 C 302.2 208.8 301.6 208.6 301.8 209.1 C 301.9 209.4 301.6 209.2 301.4 209.1 C 301.4 209.2 301.4 209.2 301.1 209.2 C 301.1 209.3 300.8 209.2 300.6 209.2 C 300.5 209.2 299.8 209.3 300.3 209.2 C 300.3 209.1 300.3 209.1 300.3 209.1 C 300.3 209.1 300.3 209.1 300.3 209.1 C 300.3 209.1 300.5 208.9 300.5 208.9 C 300.5 208.9 300.3 209.1 300.3 209.1 C 300.3 209.0 300.2 208.9 300.1 208.8 C 300.1 208.9 300.1 208.9 300.0 208.9 C 300.0 208.9 300.0 208.9 300.0 208.9 C 300.0 208.9 300.0 208.9 300.0 208.9 C 300.0 209.0 300.0 209.0 299.9 209.0 C 299.7 209.1 299.1 208.9 298.9 208.8 C 299.5 208.3 298.5 208.2 298.2 208.3 C 297.8 208.3 297.8 209.0 298.0 209.0 C 297.7 209.0 297.7 208.9 297.6 208.7 C 297.6 208.7 297.4 208.3 297.4 208.3 C 296.8 208.0 296.9 208.6 296.8 208.7 C 296.6 208.8 296.4 208.8 296.2 208.8 C 296.1 208.8 296.2 208.9 296.1 209.0 C 295.9 209.3 295.5 208.7 295.4 208.7 C 295.5 208.7 295.7 208.6 295.8 208.5 C 295.6 208.7 295.5 208.3 295.4 208.3 C 295.3 208.2 295.0 208.2 294.8 208.2 C 294.5 208.2 294.2 208.3 293.9 208.3 C 294.0 208.4 294.4 208.8 294.5 208.8 C 294.3 208.8 294.0 208.7 294.1 208.9 C 294.3 209.3 293.5 209.1 293.4 209.1 C 293.0 209.0 292.5 209.4 292.1 208.9 C 292.1 208.9 292.7 208.8 292.7 208.7 C 292.6 208.4 292.4 208.2 292.0 208.2 C 291.9 208.2 291.2 208.5 291.2 208.5 C 291.3 208.5 291.8 209.4 291.3 209.1 C 291.2 209.0 291.4 208.9 291.3 208.8 C 291.1 208.7 290.8 208.7 290.6 208.7 C 290.6 208.7 290.3 208.6 290.2 208.6 C 290.2 208.7 290.1 208.9 290.0 208.9 C 289.9 209.0 289.7 208.9 289.7 208.7 C 289.7 208.7 289.7 208.7 289.7 208.7 C 289.7 208.7 289.7 208.6 289.7 208.6 C 289.6 208.6 289.5 208.6 289.5 208.5 C 289.4 208.5 289.6 208.4 289.7 208.5 C 289.7 208.5 289.7 208.4 289.7 208.4 C 289.6 208.4 289.4 208.4 289.4 208.4 C 289.0 208.6 289.0 208.7 288.6 208.3 C 288.3 208.0 288.7 207.0 289.1 206.6 C 289.2 206.5 289.3 206.4 289.4 206.3 Z M 301.3 206.8 C 301.3 206.7 301.2 206.7 301.2 206.7 C 301.2 206.7 301.1 206.8 301.1 206.8 C 301.1 207.0 301.2 206.7 301.2 206.9 C 301.3 207.0 301.3 207.0 301.3 206.8 Z M 300.4 207.9 C 300.5 208.0 300.5 207.9 300.5 207.8 C 300.4 207.8 300.4 207.9 300.4 207.9 Z M 300.3 208.5 C 300.5 208.5 300.2 208.2 299.8 208.3 C 300.0 208.4 300.2 208.5 300.3 208.5 Z M 299.8 208.8 C 299.8 208.8 299.8 208.7 299.8 208.7 C 299.8 208.6 299.6 208.7 299.6 208.6 C 299.7 208.6 299.9 208.5 299.8 208.4 C 299.7 208.4 299.7 208.4 299.6 208.4 C 299.6 208.4 299.6 208.4 299.6 208.4 C 299.5 208.5 299.6 208.8 299.8 208.8 Z M 300.4 206.1 C 300.5 206.2 300.5 206.1 300.5 206.0 C 300.4 206.0 300.4 206.0 300.4 206.1 Z M 300.5 204.8 C 300.4 204.9 300.5 205.0 300.6 204.8 C 300.6 204.7 300.5 204.6 300.5 204.8 Z M 298.2 205.3 C 298.3 205.3 298.3 205.2 298.2 205.2 C 298.2 205.1 298.2 205.2 298.2 205.3 Z M 297.5 206.2 C 297.4 206.2 297.5 206.4 297.5 206.3 C 297.6 206.3 297.6 206.2 297.5 206.2 Z M 299.2 204.1 C 299.1 204.0 299.0 204.1 299.1 204.1 C 299.2 204.2 299.2 204.1 299.2 204.1 Z M 298.5 205.5 C 298.5 205.4 298.4 205.4 298.4 205.4 C 298.3 205.4 298.3 205.5 298.3 205.6 C 298.4 205.7 298.5 205.7 298.5 205.5 Z M 298.0 206.4 C 297.7 206.3 297.6 206.5 298.0 206.5 C 298.4 206.4 298.2 206.4 298.0 206.4 Z M 300.4 203.8 C 300.4 203.8 300.5 204.0 300.5 204.0 C 300.5 204.0 300.4 203.5 300.4 203.8 Z M 296.4 208.5 C 296.5 208.5 296.6 208.4 296.4 208.4 C 296.3 208.3 296.3 208.5 296.4 208.5 Z M 296.2 207.8 C 296.3 208.1 296.5 208.1 296.5 208.2 C 296.5 208.1 296.6 207.9 296.6 207.9 C 296.9 207.8 297.1 208.1 297.3 207.9 C 297.6 207.8 297.1 207.7 297.0 207.7 C 297.1 207.7 297.1 207.7 297.1 207.6 C 297.1 207.5 297.0 207.5 296.9 207.5 C 296.8 207.6 296.1 207.5 296.2 207.8 Z M 297.8 205.5 C 297.9 205.6 298.0 205.6 298.0 205.4 C 298.0 205.3 297.9 205.2 297.9 205.2 C 297.8 205.2 297.7 205.4 297.8 205.5 Z M 298.2 204.7 C 298.3 204.7 298.3 204.7 298.2 204.6 C 298.1 204.4 298.1 204.7 298.2 204.7 Z M 299.0 200.7 C 298.9 200.7 298.9 200.9 299.0 200.8 C 299.0 200.8 299.0 200.7 299.0 200.7 Z M 298.2 202.0 C 298.0 201.8 298.0 202.1 298.1 202.1 C 298.1 202.1 298.3 202.1 298.2 202.0 Z M 298.4 203.2 C 298.3 203.1 298.3 203.2 298.4 203.3 C 298.5 203.3 298.4 203.2 298.4 203.2 Z M 298.2 203.7 C 298.1 203.6 298.0 203.7 298.1 203.8 C 298.2 203.8 298.2 203.8 298.2 203.7 Z M 295.1 207.4 C 295.1 207.4 295.2 207.1 295.0 207.2 C 294.8 207.3 294.8 207.3 295.1 207.4 Z M 296.4 206.2 C 296.6 206.2 296.8 206.1 296.9 205.7 C 297.0 205.2 296.8 205.3 296.6 205.5 C 296.4 205.7 296.7 204.9 296.3 205.3 C 296.1 205.5 296.2 206.2 296.4 206.2 Z M 297.4 203.2 C 297.4 203.6 297.8 203.7 297.7 203.5 C 297.6 203.1 297.4 203.0 297.4 203.2 Z M 297.5 203.0 C 297.6 203.1 297.6 203.1 297.5 203.0 C 297.5 202.9 297.4 203.0 297.5 203.0 Z M 293.8 208.9 C 294.4 208.9 293.8 208.5 293.8 208.5 C 293.2 208.3 293.2 209.0 293.8 208.9 Z M 295.5 198.0 C 295.5 198.0 295.5 198.0 295.5 198.0 C 295.5 198.0 295.5 198.0 295.5 198.0 C 295.5 198.1 295.7 198.0 295.7 198.0 C 295.7 198.0 295.6 197.9 295.5 198.0 Z M 293.7 200.4 C 293.8 200.3 293.8 200.2 293.8 200.1 C 293.6 200.0 293.0 200.7 293.6 200.7 C 293.7 200.7 294.4 200.4 294.2 200.3 C 294.1 200.2 293.5 200.6 293.7 200.4 Z M 294.6 199.8 C 294.3 200.1 295.0 199.8 294.8 199.7 C 294.7 199.7 294.6 199.7 294.6 199.8 Z M 296.8 198.1 C 296.9 197.6 296.2 197.2 296.1 198.1 C 296.0 198.9 296.2 199.1 296.4 198.7 C 296.5 198.4 296.6 198.8 296.8 198.1 Z M 294.5 201.3 C 294.2 201.0 294.1 201.2 294.4 201.6 C 294.5 201.6 294.8 201.5 294.5 201.3 Z M 294.0 202.3 C 293.9 202.4 293.9 202.4 294.0 202.3 C 294.1 202.3 294.1 202.2 294.0 202.3 Z M 297.8 197.8 C 297.8 197.6 297.7 197.4 297.8 197.5 C 297.9 197.5 297.9 197.5 297.9 197.3 C 297.9 197.2 297.7 197.4 297.7 197.5 C 297.6 197.6 297.8 198.0 297.8 197.8 Z M 296.9 202.3 C 296.8 202.2 296.8 202.3 296.9 202.4 C 296.9 202.4 296.9 202.4 296.9 202.3 Z M 295.0 206.0 C 295.0 206.0 295.0 205.9 294.9 206.0 C 294.8 206.0 294.8 206.0 295.0 206.0 Z M 293.0 208.7 C 293.1 208.7 292.9 208.5 293.0 208.4 C 293.1 208.4 293.1 208.5 293.1 208.5 C 293.1 208.5 293.3 208.1 293.0 208.2 C 292.9 208.3 292.7 208.8 293.0 208.7 Z M 296.1 203.2 C 296.1 203.4 296.7 202.9 296.7 203.1 C 296.7 203.2 296.8 203.2 296.7 203.0 C 296.7 202.8 296.1 202.9 296.1 203.2 Z M 297.0 201.6 C 297.0 201.7 297.1 202.2 297.1 202.0 C 297.2 201.8 297.1 201.6 297.2 201.6 C 297.3 201.7 297.2 201.6 297.2 201.5 C 297.2 201.3 297.1 201.5 297.0 201.6 Z M 298.6 199.1 C 298.6 199.2 298.7 199.4 298.7 199.2 C 298.7 199.2 298.6 199.1 298.6 199.1 Z M 293.8 205.8 C 293.9 205.8 293.9 205.7 293.7 205.7 C 293.5 205.7 293.7 205.9 293.8 205.8 Z M 298.0 199.1 C 298.0 199.3 298.1 199.0 298.2 199.2 C 298.2 199.3 298.3 199.3 298.2 199.1 C 298.2 198.9 298.0 198.8 298.0 199.1 Z M 291.9 207.8 C 292.0 207.7 292.0 207.6 291.9 207.6 C 291.8 207.7 291.8 207.8 291.9 207.8 Z M 292.2 206.6 C 292.2 206.7 292.3 206.7 292.3 206.7 C 293.2 206.7 291.9 206.2 292.2 206.6 Z M 293.2 205.3 C 293.1 205.5 293.4 205.3 293.4 205.3 C 293.3 205.3 293.3 205.2 293.2 205.3 Z M 294.3 203.7 C 294.2 203.6 294.1 203.8 294.2 203.8 C 294.3 203.9 294.3 203.8 294.3 203.7 Z M 290.6 208.5 C 290.7 208.6 290.7 208.5 290.6 208.5 C 290.6 208.4 290.5 208.5 290.6 208.5 Z M 293.1 204.6 C 293.2 204.7 293.2 204.7 293.2 204.6 C 293.2 204.5 293.1 204.6 293.1 204.6 Z M 296.3 199.9 C 296.3 200.0 296.4 200.1 296.4 200.1 C 296.5 200.1 296.7 199.9 296.8 199.9 C 296.8 199.9 296.8 199.9 296.8 200.0 C 296.8 200.0 296.8 200.0 296.8 200.0 C 296.9 200.0 296.9 200.1 296.8 200.1 C 296.8 200.1 296.8 200.2 296.8 200.2 C 296.9 200.2 297.1 200.1 297.1 200.0 C 297.0 199.9 296.9 199.7 296.7 199.6 C 296.6 199.6 296.5 199.7 296.5 199.7 C 296.5 199.7 296.5 199.8 296.5 199.8 C 296.6 199.9 296.5 200.0 296.5 200.0 C 296.4 199.9 296.4 199.9 296.4 199.8 C 296.4 199.9 296.3 199.9 296.3 199.9 Z M 293.3 203.9 C 293.3 204.1 293.4 204.0 293.6 203.9 C 293.7 203.8 293.4 203.7 293.3 203.9 Z M 290.6 208.2 C 290.6 208.2 290.6 208.1 290.6 208.1 C 290.6 208.1 290.5 208.1 290.5 208.2 C 290.4 208.2 290.4 208.3 290.3 208.4 C 290.4 208.4 290.5 208.4 290.6 208.2 Z M 291.0 206.6 C 291.0 206.7 290.6 207.2 290.8 207.2 C 291.1 207.2 291.2 207.5 291.3 207.1 C 291.4 206.9 291.3 206.5 291.3 206.3 C 291.8 205.1 290.9 206.3 290.7 206.6 C 290.6 206.6 291.0 206.5 291.0 206.6 Z M 291.6 205.1 C 291.6 205.0 291.3 205.1 291.3 205.1 C 291.2 205.4 291.7 205.2 291.6 205.1 Z M 289.6 207.8 C 289.6 207.8 289.6 207.8 289.6 207.8 C 289.6 207.8 289.6 207.8 289.6 207.7 C 289.6 207.7 289.6 207.8 289.6 207.8 Z M 289.0 208.4 C 289.5 208.3 288.9 208.0 288.7 208.0 C 288.5 207.9 288.8 208.4 289.0 208.4 Z M 290.6 205.5 C 290.8 205.3 290.4 204.7 290.2 205.1 C 290.0 205.4 290.3 205.9 290.6 205.5 Z M 291.3 202.9 C 291.3 203.1 291.1 203.2 291.1 203.0 C 291.1 202.9 291.3 202.9 291.3 202.9 Z M 288.9 205.8 C 289.0 205.8 288.9 205.9 288.9 205.9 C 288.8 205.9 288.8 205.9 288.9 205.8 Z M 289.5 205.8 C 289.4 205.9 289.3 206.0 289.2 206.0 C 289.2 206.1 289.2 205.9 289.3 205.8 C 289.3 205.8 289.5 205.8 289.5 205.8 Z M 290.7 204.2 C 290.6 204.3 290.7 204.1 290.7 204.1 C 290.8 204.0 290.8 204.2 290.7 204.2 Z M 290.3 204.5 C 290.3 204.5 290.4 204.6 290.3 204.6 C 290.2 204.7 290.2 204.6 290.3 204.5 Z M 291.1 204.0 C 291.0 204.3 290.9 204.5 290.7 204.4 C 290.7 204.3 291.2 203.6 291.1 204.0 Z M 291.1 204.0 " fill="#CE7123"></path><path d="M 20.3 8.2 C 20.5 8.0 21.4 8.2 20.6 8.4 C 20.5 8.4 20.2 8.3 20.3 8.2 Z M 18.8 8.1 C 18.9 8.1 19.0 8.1 19.1 8.2 C 19.2 8.5 18.4 8.1 18.8 8.1 Z M 21.0 8.5 C 21.0 8.5 21.5 8.5 21.4 8.6 C 21.3 8.7 21.0 8.6 21.0 8.5 Z M 17.3 8.6 C 17.4 8.5 17.9 8.5 18.0 8.6 C 18.2 8.8 17.3 8.9 17.3 8.6 Z M 19.1 12.5 C 19.1 12.5 19.0 12.5 19.0 12.6 C 19.0 12.5 19.1 12.5 19.1 12.5 Z M 10.3 7.8 C 10.3 7.8 10.5 8.0 10.5 8.1 C 10.4 8.2 9.9 7.9 10.3 7.8 Z M 14.4 19.8 C 14.4 19.8 14.6 19.7 14.6 19.8 C 14.6 19.9 14.4 19.9 14.4 19.8 Z M 14.5 19.9 C 14.7 19.9 14.6 20.1 14.5 20.0 C 14.5 19.9 14.4 19.8 14.5 19.9 Z M 9.8 14.4 C 9.7 14.3 9.7 14.3 9.8 14.3 C 9.8 14.4 9.8 14.5 9.8 14.4 Z M 10.0 14.5 C 10.1 14.5 10.0 14.7 10.0 14.7 C 9.9 14.6 9.9 14.5 10.0 14.5 Z M 10.0 16.2 C 10.0 16.1 10.0 16.1 10.0 16.1 C 10.1 16.2 10.1 16.3 10.0 16.2 Z M 16.7 17.0 C 16.7 17.1 16.5 17.3 16.4 17.2 C 16.3 17.1 16.7 16.9 16.7 17.0 Z M 16.6 17.4 C 16.7 17.4 16.6 17.6 16.5 17.5 C 16.5 17.4 16.5 17.3 16.6 17.4 Z M 17.0 16.3 C 16.9 16.3 17.1 16.0 17.1 16.0 C 17.2 15.9 17.3 15.8 17.4 15.8 C 17.5 15.8 17.2 16.5 17.0 16.3 Z M 18.2 14.3 C 18.3 14.4 18.3 14.4 18.2 14.5 C 18.1 14.5 18.2 14.3 18.2 14.3 Z M 17.5 15.5 C 17.6 15.5 17.6 15.6 17.5 15.6 C 17.4 15.7 17.5 15.4 17.5 15.5 Z M 14.5 8.1 C 14.5 8.0 14.8 8.1 14.9 8.1 C 14.9 8.2 14.7 8.2 14.8 8.2 C 14.9 8.2 14.7 8.5 14.5 8.1 Z M 17.9 8.1 C 18.0 8.1 18.0 8.1 18.0 8.2 C 18.0 8.2 17.7 8.1 17.9 8.1 Z M 15.0 8.6 C 15.0 8.5 15.1 8.6 15.1 8.6 C 15.1 8.6 15.0 8.6 15.0 8.6 Z M 14.7 8.6 C 14.8 8.6 15.0 8.8 14.9 8.9 C 14.9 9.0 14.4 8.7 14.7 8.6 Z M 14.0 7.9 C 14.2 7.9 14.2 7.9 14.1 8.0 C 14.0 8.0 14.0 7.9 14.0 7.9 Z M 16.0 7.9 C 16.1 7.9 16.1 7.9 16.1 7.9 C 16.0 8.0 16.0 7.9 16.0 7.9 Z M 13.1 8.1 C 13.1 8.1 13.4 8.0 13.4 8.2 C 13.5 8.5 13.1 8.1 13.1 8.1 Z M 11.7 8.3 C 11.8 8.4 11.8 8.4 11.7 8.4 C 11.6 8.4 11.6 8.3 11.7 8.3 Z M 11.2 8.8 C 11.0 8.7 10.9 8.6 11.2 8.6 C 11.4 8.7 11.3 8.8 11.2 8.8 Z M 11.4 8.7 C 11.4 8.7 11.4 8.7 11.4 8.7 C 11.4 8.6 11.4 8.6 11.4 8.7 Z M 12.6 8.4 C 12.8 8.3 12.9 8.5 12.7 8.5 C 12.5 8.5 12.5 8.5 12.6 8.4 Z M 20.3 11.8 C 20.3 11.7 20.4 11.8 20.4 11.9 C 20.4 12.0 20.2 11.9 20.3 11.8 Z M 17.0 15.7 C 17.1 15.6 17.1 15.7 17.0 15.8 C 16.9 15.9 16.9 15.7 17.0 15.7 Z M 15.0 18.1 C 15.1 18.1 15.1 18.2 15.0 18.3 C 14.9 18.4 14.9 18.2 15.0 18.1 Z M 17.7 14.6 C 17.8 14.6 17.8 15.0 17.5 15.0 C 17.2 15.1 17.5 14.6 17.7 14.6 Z M 17.4 10.6 C 17.4 10.5 17.5 10.6 17.5 10.6 C 17.4 10.7 17.4 10.7 17.4 10.6 Z M 17.0 15.0 C 17.0 14.9 17.1 15.0 17.1 15.1 C 17.1 15.1 17.0 15.1 17.0 15.0 Z M 15.5 17.8 C 15.6 17.7 15.7 17.9 15.7 18.0 C 15.8 18.3 15.4 18.3 15.2 18.4 C 15.1 18.5 15.4 17.8 15.5 17.8 Z M 20.3 10.9 C 20.2 11.0 20.2 11.0 20.1 11.0 C 20.2 11.1 20.1 11.1 20.0 11.2 C 19.9 11.4 20.0 11.8 20.0 12.0 C 19.9 12.5 19.3 12.3 19.1 12.5 C 19.1 12.4 19.2 12.3 19.1 12.3 C 19.1 12.1 18.5 13.0 18.5 13.1 C 18.1 14.0 18.8 13.1 19.1 13.3 C 19.2 13.4 18.5 13.7 18.5 13.7 C 18.2 13.9 18.5 14.1 18.2 14.3 C 18.1 14.3 17.3 14.2 17.3 14.4 C 17.3 14.5 17.1 14.7 17.0 14.8 C 16.9 14.9 16.8 15.2 17.1 15.2 C 17.3 15.2 17.5 15.3 17.2 15.4 C 17.0 15.4 16.0 16.1 16.5 16.4 C 16.5 16.4 16.8 16.3 16.8 16.3 C 16.7 16.6 16.1 17.3 16.1 17.6 C 16.2 18.3 16.0 17.3 15.7 17.4 C 15.3 17.6 15.0 17.7 14.8 18.2 C 14.7 18.3 14.4 18.8 14.8 18.7 C 15.1 18.7 15.1 18.9 15.3 18.7 C 15.4 19.1 14.8 19.0 14.9 19.1 C 14.9 19.3 15.1 19.2 14.9 19.4 C 14.7 19.6 14.9 19.5 14.6 19.4 C 14.5 19.4 14.3 19.6 14.3 19.6 C 14.3 19.6 14.3 19.6 14.3 19.6 C 14.1 19.8 14.3 20.4 14.2 20.4 C 14.1 20.4 13.9 20.1 13.8 20.0 C 13.8 20.0 13.8 20.1 13.7 20.1 C 13.7 20.2 13.7 20.5 13.7 20.5 C 13.6 20.5 13.3 20.1 13.4 20.3 C 13.4 20.4 13.0 20.8 12.8 20.8 C 12.7 20.7 12.1 20.5 12.0 20.5 C 11.9 20.6 11.8 20.3 11.7 20.2 C 11.7 20.1 11.7 19.8 11.8 19.8 C 11.8 19.7 11.6 19.5 11.6 19.5 C 11.6 19.5 11.5 19.4 11.4 19.2 C 11.3 19.1 11.4 18.8 11.3 18.6 C 11.3 18.3 11.1 18.3 10.9 18.0 C 10.8 17.8 11.1 17.5 11.0 17.2 C 11.0 17.0 10.7 17.2 10.6 16.9 C 10.4 16.7 10.4 16.5 10.5 16.6 C 10.6 16.6 10.6 16.5 10.6 16.4 C 10.6 16.4 10.5 16.0 10.4 16.0 C 10.3 15.9 10.4 16.7 10.0 15.8 C 9.8 15.3 10.0 14.9 10.0 15.0 C 10.2 15.3 10.3 14.4 10.2 14.4 C 10.0 14.5 9.7 13.7 9.5 14.0 C 9.5 14.1 9.0 13.3 9.0 13.2 C 9.0 13.1 8.8 12.7 9.0 12.5 C 9.1 12.4 8.5 12.1 8.5 12.0 C 8.4 11.9 8.2 11.2 8.2 11.1 C 8.2 10.9 8.3 11.2 8.4 11.4 C 8.5 11.5 8.4 11.8 8.5 11.9 C 8.6 12.0 8.6 11.7 8.5 11.5 C 8.5 11.3 8.6 11.2 8.6 11.1 C 8.5 11.0 8.5 10.9 8.5 10.8 C 8.4 10.7 8.4 10.7 8.3 10.7 C 8.2 10.8 8.2 10.9 8.2 10.9 C 8.1 10.9 8.0 10.8 7.9 10.6 C 7.8 10.4 7.8 10.2 7.8 9.9 C 7.7 9.7 7.6 9.6 7.5 9.5 C 7.4 9.3 7.4 9.1 7.4 9.1 C 7.5 9.1 7.6 9.3 7.6 9.3 C 7.7 9.2 7.7 8.9 7.7 8.8 C 7.5 8.3 8.1 8.5 7.9 8.0 C 7.9 7.7 8.1 8.0 8.4 8.1 C 8.4 8.0 8.4 8.0 8.6 7.9 C 8.6 7.9 9.0 8.0 9.1 7.9 C 9.2 7.9 9.9 7.9 9.5 8.0 C 9.5 8.0 9.4 8.0 9.4 8.0 C 9.4 8.0 9.4 8.0 9.4 8.1 C 9.4 8.1 9.2 8.3 9.2 8.3 C 9.2 8.3 9.4 8.1 9.4 8.1 C 9.5 8.2 9.5 8.3 9.6 8.3 C 9.6 8.3 9.7 8.3 9.7 8.3 C 9.7 8.3 9.7 8.2 9.7 8.2 C 9.7 8.2 9.7 8.2 9.7 8.2 C 9.7 8.1 9.7 8.1 9.8 8.2 C 10.1 8.1 10.6 8.3 10.8 8.4 C 10.2 8.9 11.2 8.9 11.6 8.9 C 11.9 8.8 11.9 8.1 11.8 8.1 C 12.0 8.1 12.1 8.2 12.1 8.4 C 12.1 8.4 12.4 8.9 12.4 8.8 C 12.9 9.1 12.8 8.5 13.0 8.5 C 13.1 8.4 13.3 8.4 13.5 8.4 C 13.7 8.3 13.5 8.2 13.6 8.1 C 13.8 7.9 14.2 8.4 14.4 8.5 C 14.2 8.5 14.0 8.5 13.9 8.6 C 14.1 8.5 14.2 8.8 14.3 8.9 C 14.5 9.0 14.7 8.9 14.9 8.9 C 15.2 8.9 15.6 8.9 15.9 8.9 C 15.8 8.8 15.3 8.4 15.3 8.4 C 15.4 8.4 15.7 8.5 15.6 8.2 C 15.4 7.8 16.2 8.1 16.4 8.1 C 16.8 8.2 17.3 7.8 17.7 8.3 C 17.7 8.3 17.0 8.4 17.0 8.4 C 17.2 8.8 17.3 9.0 17.8 8.9 C 17.9 8.9 18.5 8.7 18.5 8.7 C 18.5 8.7 17.9 7.8 18.4 8.1 C 18.5 8.2 18.3 8.3 18.4 8.4 C 18.6 8.5 18.9 8.4 19.1 8.5 C 19.1 8.5 19.5 8.6 19.5 8.6 C 19.6 8.5 19.6 8.3 19.7 8.2 C 19.9 8.2 20.0 8.3 20.0 8.4 C 20.0 8.4 20.0 8.5 20.0 8.5 C 20.0 8.5 20.1 8.5 20.1 8.6 C 20.1 8.6 20.2 8.6 20.3 8.7 C 20.3 8.7 20.1 8.7 20.0 8.7 C 20.0 8.7 20.0 8.8 20.0 8.8 C 20.2 8.8 20.4 8.8 20.4 8.8 C 20.7 8.6 20.7 8.5 21.1 8.8 C 21.4 9.1 21.1 10.1 20.6 10.6 C 20.6 10.7 20.5 10.8 20.3 10.9 Z M 8.5 10.4 C 8.5 10.4 8.5 10.4 8.5 10.4 C 8.5 10.4 8.6 10.4 8.7 10.4 C 8.6 10.2 8.6 10.5 8.5 10.3 C 8.5 10.1 8.4 10.2 8.5 10.4 Z M 9.4 9.3 C 9.3 9.2 9.3 9.2 9.3 9.3 C 9.3 9.3 9.3 9.3 9.4 9.3 Z M 9.5 8.6 C 9.3 8.7 9.6 8.9 9.9 8.9 C 9.7 8.7 9.6 8.6 9.5 8.6 Z M 10.0 8.4 C 10.0 8.4 9.9 8.4 9.9 8.5 C 9.9 8.6 10.1 8.5 10.1 8.5 C 10.1 8.6 9.8 8.7 10.0 8.8 C 10.0 8.8 10.1 8.8 10.1 8.8 C 10.1 8.8 10.1 8.8 10.2 8.8 C 10.3 8.7 10.1 8.4 10.0 8.4 Z M 9.3 11.1 C 9.2 11.0 9.2 11.1 9.3 11.1 C 9.3 11.2 9.4 11.1 9.3 11.1 Z M 9.3 12.4 C 9.3 12.3 9.2 12.2 9.2 12.3 C 9.1 12.4 9.3 12.5 9.3 12.4 Z M 11.5 11.9 C 11.4 11.9 11.5 11.9 11.5 12.0 C 11.6 12.1 11.6 11.9 11.5 11.9 Z M 12.2 11.0 C 12.3 11.0 12.3 10.8 12.2 10.8 C 12.1 10.9 12.1 11.0 12.2 11.0 Z M 10.6 13.1 C 10.7 13.2 10.7 13.1 10.6 13.1 C 10.5 13.0 10.5 13.0 10.6 13.1 Z M 11.3 11.7 C 11.3 11.8 11.3 11.8 11.4 11.8 C 11.4 11.8 11.5 11.7 11.4 11.6 C 11.3 11.5 11.3 11.5 11.3 11.7 Z M 11.8 10.8 C 12.1 10.8 12.1 10.7 11.7 10.7 C 11.3 10.8 11.6 10.8 11.8 10.8 Z M 9.3 13.4 C 9.3 13.3 9.2 13.2 9.2 13.2 C 9.2 13.2 9.3 13.7 9.3 13.4 Z M 13.3 8.6 C 13.2 8.6 13.1 8.7 13.3 8.8 C 13.5 8.8 13.4 8.7 13.3 8.6 Z M 13.5 9.4 C 13.4 9.1 13.2 9.0 13.2 9.0 C 13.3 9.1 13.2 9.2 13.1 9.3 C 12.9 9.3 12.6 9.1 12.4 9.2 C 12.2 9.4 12.6 9.5 12.7 9.4 C 12.7 9.5 12.6 9.5 12.6 9.6 C 12.7 9.6 12.7 9.7 12.8 9.6 C 12.9 9.5 13.7 9.7 13.5 9.4 Z M 12.0 11.7 C 11.9 11.6 11.7 11.6 11.7 11.7 C 11.7 11.9 11.8 12.0 11.9 12.0 C 11.9 12.0 12.0 11.8 12.0 11.7 Z M 11.5 12.5 C 11.4 12.4 11.4 12.5 11.5 12.6 C 11.6 12.7 11.7 12.5 11.5 12.5 Z M 10.8 16.5 C 10.9 16.5 10.8 16.3 10.8 16.3 C 10.7 16.4 10.7 16.4 10.8 16.5 Z M 11.6 15.2 C 11.7 15.4 11.7 15.1 11.7 15.1 C 11.6 15.0 11.5 15.1 11.6 15.2 Z M 11.3 14.0 C 11.4 14.1 11.4 13.9 11.3 13.9 C 11.3 13.9 11.3 14.0 11.3 14.0 Z M 11.6 13.5 C 11.6 13.6 11.7 13.4 11.6 13.4 C 11.5 13.3 11.5 13.4 11.6 13.5 Z M 14.6 9.8 C 14.6 9.8 14.6 10.0 14.7 9.9 C 14.9 9.8 14.9 9.8 14.6 9.8 Z M 13.3 11.0 C 13.2 11.0 13.0 11.0 12.8 11.5 C 12.7 12.0 12.9 11.9 13.1 11.7 C 13.3 11.5 13.1 12.3 13.5 11.9 C 13.7 11.7 13.5 11.0 13.3 11.0 Z M 12.3 13.9 C 12.4 13.6 12.0 13.4 12.1 13.7 C 12.2 14.0 12.3 14.2 12.3 13.9 Z M 12.2 14.1 C 12.2 14.1 12.2 14.1 12.2 14.2 C 12.3 14.3 12.3 14.2 12.2 14.1 Z M 16.0 8.2 C 15.4 8.3 16.0 8.7 16.0 8.7 C 16.6 8.9 16.6 8.1 16.0 8.2 Z M 14.2 19.2 C 14.2 19.2 14.2 19.2 14.3 19.2 C 14.3 19.2 14.3 19.1 14.3 19.1 C 14.3 19.0 14.1 19.1 14.1 19.1 C 14.1 19.2 14.2 19.2 14.2 19.2 Z M 16.0 16.8 C 15.9 16.9 15.9 17.0 15.9 17.1 C 16.2 17.2 16.7 16.4 16.1 16.5 C 16.0 16.5 15.4 16.7 15.5 16.9 C 15.6 17.0 16.2 16.5 16.0 16.8 Z M 15.2 17.4 C 15.4 17.1 14.7 17.4 14.9 17.4 C 15.0 17.5 15.1 17.4 15.2 17.4 Z M 13.0 19.1 C 12.9 19.6 13.5 19.9 13.6 19.1 C 13.7 18.3 13.5 18.1 13.4 18.4 C 13.3 18.8 13.1 18.4 13.0 19.1 Z M 15.2 15.9 C 15.6 16.2 15.6 15.9 15.3 15.6 C 15.3 15.5 15.0 15.6 15.2 15.9 Z M 15.7 14.9 C 15.9 14.8 15.9 14.8 15.7 14.8 C 15.6 14.8 15.6 15.0 15.7 14.9 Z M 11.9 19.3 C 11.9 19.5 12.0 19.8 11.9 19.7 C 11.8 19.6 11.8 19.7 11.8 19.8 C 11.9 20.0 12.0 19.8 12.0 19.7 C 12.1 19.6 12.0 19.1 11.9 19.3 Z M 12.9 14.9 C 12.9 15.0 12.9 14.8 12.9 14.8 C 12.8 14.7 12.8 14.8 12.9 14.9 Z M 14.8 11.1 C 14.8 11.1 14.7 11.2 14.8 11.2 C 14.9 11.1 14.9 11.1 14.8 11.1 Z M 16.8 8.5 C 16.7 8.5 16.8 8.6 16.7 8.8 C 16.7 8.8 16.6 8.7 16.6 8.6 C 16.6 8.7 16.5 9.1 16.7 8.9 C 16.9 8.9 17.1 8.4 16.8 8.5 Z M 13.6 14.0 C 13.6 13.8 13.1 14.3 13.0 14.1 C 13.0 13.9 12.9 14.0 13.0 14.2 C 13.0 14.4 13.7 14.2 13.6 14.0 Z M 12.7 15.5 C 12.8 15.4 12.7 15.0 12.6 15.2 C 12.6 15.4 12.7 15.6 12.6 15.5 C 12.5 15.5 12.5 15.5 12.5 15.7 C 12.5 15.8 12.7 15.6 12.7 15.5 Z M 11.2 18.0 C 11.2 18.0 11.1 17.8 11.0 17.9 C 11.0 18.0 11.2 18.1 11.2 18.0 Z M 15.9 11.3 C 15.8 11.4 15.8 11.5 16.0 11.4 C 16.2 11.4 16.1 11.3 15.9 11.3 Z M 11.7 18.1 C 11.7 17.9 11.6 18.2 11.6 18.0 C 11.5 17.8 11.5 17.9 11.5 18.1 C 11.6 18.3 11.7 18.3 11.7 18.1 Z M 17.8 9.4 C 17.8 9.4 17.8 9.6 17.8 9.5 C 17.9 9.5 17.9 9.3 17.8 9.4 Z M 17.6 10.5 C 17.5 10.5 17.5 10.5 17.4 10.5 C 16.6 10.5 17.9 10.9 17.6 10.5 Z M 16.5 11.9 C 16.6 11.7 16.4 11.8 16.4 11.8 C 16.4 11.9 16.5 11.9 16.5 11.9 Z M 15.5 13.4 C 15.5 13.5 15.6 13.3 15.5 13.3 C 15.4 13.3 15.4 13.4 15.5 13.4 Z M 19.2 8.6 C 19.0 8.6 19.0 8.7 19.1 8.7 C 19.2 8.7 19.3 8.7 19.2 8.6 Z M 16.6 12.5 C 16.6 12.5 16.6 12.5 16.5 12.6 C 16.5 12.6 16.6 12.6 16.6 12.5 Z M 13.4 17.2 C 13.4 17.2 13.4 17.1 13.4 17.0 C 13.3 17.0 13.0 17.3 12.9 17.2 C 12.9 17.2 12.9 17.2 12.9 17.2 C 12.9 17.2 12.9 17.2 12.9 17.2 C 12.9 17.2 12.8 17.1 12.9 17.1 C 12.9 17.1 12.9 17.0 13.0 16.9 C 12.8 17.0 12.7 17.0 12.7 17.1 C 12.7 17.3 12.9 17.5 13.1 17.6 C 13.1 17.5 13.2 17.5 13.3 17.4 C 13.3 17.4 13.3 17.4 13.3 17.4 C 13.2 17.3 13.2 17.2 13.3 17.2 C 13.3 17.3 13.3 17.3 13.4 17.3 C 13.4 17.3 13.4 17.3 13.4 17.2 Z M 16.4 13.3 C 16.4 13.1 16.3 13.2 16.2 13.3 C 16.1 13.4 16.4 13.4 16.4 13.3 Z M 19.2 8.9 C 19.2 9.0 19.2 9.0 19.2 9.1 C 19.2 9.0 19.2 9.0 19.2 9.0 C 19.3 8.9 19.4 8.9 19.5 8.8 C 19.4 8.7 19.2 8.7 19.2 8.9 Z M 18.7 10.6 C 18.7 10.5 19.1 10.0 18.9 10.0 C 18.6 10.0 18.6 9.6 18.4 10.1 C 18.3 10.3 18.5 10.7 18.4 10.9 C 18.0 12.1 18.8 10.8 19.1 10.6 C 19.1 10.5 18.7 10.7 18.7 10.6 Z M 18.1 12.1 C 18.2 12.2 18.4 12.1 18.4 12.0 C 18.6 11.8 18.1 11.9 18.1 12.1 Z M 20.2 9.4 C 20.2 9.4 20.1 9.4 20.1 9.3 C 20.1 9.4 20.1 9.4 20.1 9.4 C 20.1 9.4 20.2 9.4 20.2 9.4 Z M 20.7 8.8 C 20.3 8.8 20.8 9.2 21.0 9.2 C 21.2 9.2 21.0 8.7 20.7 8.8 Z M 19.1 11.6 C 18.9 11.8 19.4 12.5 19.6 12.1 C 19.8 11.7 19.4 11.2 19.1 11.6 Z M 18.4 14.2 C 18.4 14.1 18.7 14.0 18.7 14.1 C 18.7 14.2 18.4 14.3 18.4 14.2 Z M 20.8 11.3 C 20.8 11.4 20.8 11.3 20.8 11.3 C 20.9 11.3 20.9 11.3 20.8 11.3 Z M 20.2 11.3 C 20.3 11.3 20.4 11.2 20.5 11.1 C 20.6 11.1 20.5 11.3 20.5 11.3 C 20.4 11.4 20.2 11.3 20.2 11.3 Z M 19.0 13.0 C 19.2 12.9 19.1 13.1 19.0 13.1 C 19.0 13.2 19.0 13.0 19.0 13.0 Z M 19.5 12.7 C 19.4 12.7 19.4 12.6 19.4 12.6 C 19.5 12.5 19.5 12.6 19.5 12.7 Z M 18.7 13.1 C 18.7 12.9 18.8 12.6 19.0 12.8 C 19.1 12.8 18.5 13.5 18.7 13.1 Z M 18.7 13.1 " fill="#CE7123"></path></g></svg>