<?xml version="1.0" encoding="UTF-8" standalone="no"?><svg xmlns="http://www.w3.org/2000/svg" xmlns:xlink="http://www.w3.org/1999/xlink" clip-rule="evenodd" stroke-miterlimit="10" viewBox="0 0 96 19"><desc>SVG generated by Keynote</desc><defs></defs><g transform="matrix(1.00, 0.00, -0.00, -1.00, 0.0, 19.0)"><image xlink:href="908F6085324CCF894857E4C28C6D126D.png" width="92.00" height="16.00" transform="matrix(1.00, 0.00, -0.00, -1.00, 2.0, 17.0)"></image><text xml:space="preserve" font-family="LucidaGrande,Lucida Grande" font-size="15.0" fill="#C8C8C8" transform="matrix(1.00, 0.00, -0.00, -1.00, 2.7, 5.6)">N</text><text xml:space="preserve" font-family="LucidaGrande,Lucida Grande" font-size="15.0" fill="#C8C8C8" transform="matrix(1.00, 0.00, -0.00, -1.00, 13.8, 5.6)">a</text><text xml:space="preserve" font-family="LucidaGrande,Lucida Grande" font-size="15.0" fill="#C8C8C8" transform="matrix(1.00, 0.00, -0.00, -1.00, 22.1, 5.6)">t</text><text xml:space="preserve" font-family="LucidaGrande,Lucida Grande" font-size="15.0" fill="#C8C8C8" transform="matrix(1.00, 0.00, -0.00, -1.00, 27.7, 5.6)">i</text><text xml:space="preserve" font-family="LucidaGrande,Lucida Grande" font-size="15.0" fill="#C8C8C8" transform="matrix(1.00, 0.00, -0.00, -1.00, 32.0, 5.6)">v</text><text xml:space="preserve" font-family="LucidaGrande,Lucida Grande" font-size="15.0" fill="#C8C8C8" transform="matrix(1.00, 0.00, -0.00, -1.00, 39.8, 5.6)">e</text><text xml:space="preserve" font-family="LucidaGrande,Lucida Grande" font-size="15.0" fill="#C8C8C8" transform="matrix(1.00, 0.00, -0.00, -1.00, 48.1, 5.6)">D</text><text xml:space="preserve" font-family="LucidaGrande,Lucida Grande" font-size="15.0" fill="#C8C8C8" transform="matrix(1.00, 0.00, -0.00, -1.00, 59.4, 5.6)">r</text><text xml:space="preserve" font-family="LucidaGrande,Lucida Grande" font-size="15.0" fill="#C8C8C8" transform="matrix(1.00, 0.00, -0.00, -1.00, 65.5, 5.6)">i</text><text xml:space="preserve" font-family="LucidaGrande,Lucida Grande" font-size="15.0" fill="#C8C8C8" transform="matrix(1.00, 0.00, -0.00, -1.00, 69.8, 5.6)">v</text><text xml:space="preserve" font-family="LucidaGrande,Lucida Grande" font-size="15.0" fill="#C8C8C8" transform="matrix(1.00, 0.00, -0.00, -1.00, 77.6, 5.6)">e</text><text xml:space="preserve" font-family="LucidaGrande,Lucida Grande" font-size="15.0" fill="#C8C8C8" transform="matrix(1.00, 0.00, -0.00, -1.00, 85.9, 5.6)">r</text></g></svg>