<?xml version="1.0" encoding="UTF-8" standalone="no"?><svg xmlns="http://www.w3.org/2000/svg" xmlns:xlink="http://www.w3.org/1999/xlink" clip-rule="evenodd" stroke-miterlimit="10" viewBox="0 0 72 20"><desc>SVG generated by Keynote</desc><defs></defs><g transform="matrix(1.00, 0.00, -0.00, -1.00, 0.0, 20.0)"><image xlink:href="77677029ED72A0CF891AEE0A83BB5305.png" width="69.00" height="17.00" transform="matrix(1.00, 0.00, -0.00, -1.00, 2.0, 18.0)"></image><text xml:space="preserve" font-family="LucidaGrande,Lucida Grande" font-size="15.0" fill="#C8C8C8" transform="matrix(1.00, 0.00, -0.00, -1.00, 3.7, 6.2)">S</text><text xml:space="preserve" font-family="LucidaGrande,Lucida Grande" font-size="15.0" fill="#C8C8C8" transform="matrix(1.00, 0.00, -0.00, -1.00, 11.8, 6.2)">e</text><text xml:space="preserve" font-family="LucidaGrande,Lucida Grande" font-size="15.0" fill="#C8C8C8" transform="matrix(1.00, 0.00, -0.00, -1.00, 20.1, 6.2)">l</text><text xml:space="preserve" font-family="LucidaGrande,Lucida Grande" font-size="15.0" fill="#C8C8C8" transform="matrix(1.00, 0.00, -0.00, -1.00, 24.5, 6.2)">e</text><text xml:space="preserve" font-family="LucidaGrande,Lucida Grande" font-size="15.0" fill="#C8C8C8" transform="matrix(1.00, 0.00, -0.00, -1.00, 32.8, 6.2)">n</text><text xml:space="preserve" font-family="LucidaGrande,Lucida Grande" font-size="15.0" fill="#C8C8C8" transform="matrix(1.00, 0.00, -0.00, -1.00, 42.1, 6.2)">i</text><text xml:space="preserve" font-family="LucidaGrande,Lucida Grande" font-size="15.0" fill="#C8C8C8" transform="matrix(1.00, 0.00, -0.00, -1.00, 46.5, 6.2)">u</text><text xml:space="preserve" font-family="LucidaGrande,Lucida Grande" font-size="15.0" fill="#C8C8C8" transform="matrix(1.00, 0.00, -0.00, -1.00, 55.8, 6.2)">m</text></g></svg>