<?xml version="1.0" encoding="UTF-8" standalone="no"?><svg xmlns="http://www.w3.org/2000/svg" xmlns:xlink="http://www.w3.org/1999/xlink" clip-rule="evenodd" stroke-miterlimit="10" viewBox="0 0 182 32"><desc>SVG generated by Keynote</desc><defs></defs><g transform="matrix(1.00, 0.00, -0.00, -1.00, 0.0, 32.0)"><image xlink:href="../../4C72CB73-715A-4FF2-9972-073C19457D74/assets/FACD2D0504AA6656C3FD8CECADB4E4DA.png" width="178.00" height="28.00" transform="matrix(1.00, 0.00, -0.00, -1.00, 2.0, 30.0)"></image><text xml:space="preserve" font-family="LucidaGrande,Lucida Grande" font-size="30.0" fill="#FEFFFF" transform="matrix(1.00, 0.00, -0.00, -1.00, 2.7, 6.8)">S</text><text xml:space="preserve" font-family="LucidaGrande,Lucida Grande" font-size="30.0" fill="#FEFFFF" transform="matrix(1.00, 0.00, -0.00, -1.00, 18.8, 6.8)">w</text><text xml:space="preserve" font-family="LucidaGrande,Lucida Grande" font-size="30.0" fill="#FEFFFF" transform="matrix(1.00, 0.00, -0.00, -1.00, 41.9, 6.8)">i</text><text xml:space="preserve" font-family="LucidaGrande,Lucida Grande" font-size="30.0" fill="#FEFFFF" transform="matrix(1.00, 0.00, -0.00, -1.00, 50.6, 6.8)">t</text><text xml:space="preserve" font-family="LucidaGrande,Lucida Grande" font-size="30.0" fill="#FEFFFF" transform="matrix(1.00, 0.00, -0.00, -1.00, 61.8, 6.8)">c</text><text xml:space="preserve" font-family="LucidaGrande,Lucida Grande" font-size="30.0" fill="#FEFFFF" transform="matrix(1.00, 0.00, -0.00, -1.00, 77.2, 6.8)">h</text><text xml:space="preserve" font-family="LucidaGrande,Lucida Grande" font-size="30.0" fill="#FEFFFF" transform="matrix(1.00, 0.00, -0.00, -1.00, 95.8, 6.8)">b</text><text xml:space="preserve" font-family="LucidaGrande,Lucida Grande" font-size="30.0" fill="#FEFFFF" transform="matrix(1.00, 0.00, -0.00, -1.00, 114.7, 6.8)">o</text><text xml:space="preserve" font-family="LucidaGrande,Lucida Grande" font-size="30.0" fill="#FEFFFF" transform="matrix(1.00, 0.00, -0.00, -1.00, 133.1, 6.8)">a</text><text xml:space="preserve" font-family="LucidaGrande,Lucida Grande" font-size="30.0" fill="#FEFFFF" transform="matrix(1.00, 0.00, -0.00, -1.00, 149.7, 6.8)">r</text><text xml:space="preserve" font-family="LucidaGrande,Lucida Grande" font-size="30.0" fill="#FEFFFF" transform="matrix(1.00, 0.00, -0.00, -1.00, 162.0, 6.8)">d</text></g></svg>