<?xml version="1.0" encoding="UTF-8" standalone="no"?><svg xmlns="http://www.w3.org/2000/svg" xmlns:xlink="http://www.w3.org/1999/xlink" clip-rule="evenodd" stroke-miterlimit="10" viewBox="0 0 136 32"><desc>SVG generated by Keynote</desc><defs></defs><g transform="matrix(1.00, 0.00, -0.00, -1.00, 0.0, 32.0)"><image xlink:href="../../4C72CB73-715A-4FF2-9972-073C19457D74/assets/BC3B0025792402FB31A4A7C214D0DB53.png" width="132.00" height="28.00" transform="matrix(1.00, 0.00, -0.00, -1.00, 2.0, 30.0)"></image><text xml:space="preserve" font-family="LucidaGrande,Lucida Grande" font-size="30.0" fill="#FEFFFF" transform="matrix(1.00, 0.00, -0.00, -1.00, 2.7, 6.8)">C</text><text xml:space="preserve" font-family="LucidaGrande,Lucida Grande" font-size="30.0" fill="#FEFFFF" transform="matrix(1.00, 0.00, -0.00, -1.00, 23.4, 6.8)">a</text><text xml:space="preserve" font-family="LucidaGrande,Lucida Grande" font-size="30.0" fill="#FEFFFF" transform="matrix(1.00, 0.00, -0.00, -1.00, 40.0, 6.8)">l</text><text xml:space="preserve" font-family="LucidaGrande,Lucida Grande" font-size="30.0" fill="#FEFFFF" transform="matrix(1.00, 0.00, -0.00, -1.00, 48.7, 6.8)">a</text><text xml:space="preserve" font-family="LucidaGrande,Lucida Grande" font-size="30.0" fill="#FEFFFF" transform="matrix(1.00, 0.00, -0.00, -1.00, 65.2, 6.8)">b</text><text xml:space="preserve" font-family="LucidaGrande,Lucida Grande" font-size="30.0" fill="#FEFFFF" transform="matrix(1.00, 0.00, -0.00, -1.00, 84.1, 6.8)">a</text><text xml:space="preserve" font-family="LucidaGrande,Lucida Grande" font-size="30.0" fill="#FEFFFF" transform="matrix(1.00, 0.00, -0.00, -1.00, 100.7, 6.8)">s</text><text xml:space="preserve" font-family="LucidaGrande,Lucida Grande" font-size="30.0" fill="#FEFFFF" transform="matrix(1.00, 0.00, -0.00, -1.00, 116.0, 6.8)">h</text></g></svg>