<?xml version="1.0" encoding="UTF-8" standalone="no"?><svg xmlns="http://www.w3.org/2000/svg" xmlns:xlink="http://www.w3.org/1999/xlink" clip-rule="evenodd" stroke-miterlimit="10" viewBox="0 0 289 45"><desc>SVG generated by Keynote</desc><defs></defs><g transform="matrix(1.00, 0.00, -0.00, -1.00, 0.0, 45.0)"><image xlink:href="../../49556C17-986A-48A2-B4D8-DB435F69E6E5/assets/85D3B41F3C5CA010EE2385A49BB32685.png" width="287.00" height="43.00" transform="matrix(1.00, 0.00, -0.00, -1.00, 1.0, 44.0)"></image><text xml:space="preserve" font-family="LucidaGrande-Bold,Lucida Grande" font-weight="bold" font-size="44.8" fill="#FEFFFE" transform="matrix(1.00, 0.00, -0.00, -1.00, 1.3, 8.4)">u</text><text xml:space="preserve" font-family="LucidaGrande-Bold,Lucida Grande" font-weight="bold" font-size="44.8" fill="#FEFFFE" transform="matrix(1.00, 0.00, -0.00, -1.00, 30.7, 8.4)">i</text><text xml:space="preserve" font-family="LucidaGrande-Bold,Lucida Grande" font-weight="bold" font-size="44.8" fill="#FEFFFE" transform="matrix(1.00, 0.00, -0.00, -1.00, 45.3, 8.4)">a</text><text xml:space="preserve" font-family="LucidaGrande-Bold,Lucida Grande" font-weight="bold" font-size="44.8" fill="#FEFFFE" transform="matrix(1.00, 0.00, -0.00, -1.00, 71.6, 8.4)">u</text><text xml:space="preserve" font-family="LucidaGrande-Bold,Lucida Grande" font-weight="bold" font-size="44.8" fill="#FEFFFE" transform="matrix(1.00, 0.00, -0.00, -1.00, 101.0, 8.4)">t</text><text xml:space="preserve" font-family="LucidaGrande-Bold,Lucida Grande" font-weight="bold" font-size="44.8" fill="#FEFFFE" transform="matrix(1.00, 0.00, -0.00, -1.00, 119.2, 8.4)">o</text><text xml:space="preserve" font-family="LucidaGrande-Bold,Lucida Grande" font-weight="bold" font-size="44.8" fill="#FEFFFE" transform="matrix(1.00, 0.00, -0.00, -1.00, 147.8, 8.4)">m</text><text xml:space="preserve" font-family="LucidaGrande-Bold,Lucida Grande" font-weight="bold" font-size="44.8" fill="#FEFFFE" transform="matrix(1.00, 0.00, -0.00, -1.00, 191.2, 8.4)">a</text><text xml:space="preserve" font-family="LucidaGrande-Bold,Lucida Grande" font-weight="bold" font-size="44.8" fill="#FEFFFE" transform="matrix(1.00, 0.00, -0.00, -1.00, 217.6, 8.4)">t</text><text xml:space="preserve" font-family="LucidaGrande-Bold,Lucida Grande" font-weight="bold" font-size="44.8" fill="#FEFFFE" transform="matrix(1.00, 0.00, -0.00, -1.00, 235.8, 8.4)">o</text><text xml:space="preserve" font-family="LucidaGrande-Bold,Lucida Grande" font-weight="bold" font-size="44.8" fill="#FEFFFE" transform="matrix(1.00, 0.00, -0.00, -1.00, 264.4, 8.4)">r</text></g></svg>