<?xml version="1.0" encoding="UTF-8" standalone="no"?><svg xmlns="http://www.w3.org/2000/svg" xmlns:xlink="http://www.w3.org/1999/xlink" clip-rule="evenodd" stroke-miterlimit="10" viewBox="0 0 1024 768"><desc>SVG generated by Keynote</desc><defs></defs><g transform="matrix(1.00, 0.00, -0.00, -1.00, 0.0, 768.0)"><g><clipPath id="clip0x608005eb3d40"><path d="M 0.0 768.0 L 1024.0 768.0 L 1024.0 0.0 L 0.0 0.0 Z M 0.0 768.0 "></path></clipPath><g clip-path="url(#clip0x608005eb3d40)"><image xlink:href="../../073872A3-6B4A-4DBD-B237-E9D6C1798DA3/assets/9397CAD6F20342ACC2646ABBCA758461.jpeg" width="2048.00" height="1536.00" transform="matrix(0.50, 0.00, -0.00, -0.50, 0.0, 768.0)"></image></g></g><image xlink:href="85D3B41F3C5CA010EE2385A49BB32685.png" width="287.00" height="43.00" transform="matrix(1.00, 0.00, -0.00, -1.00, 370.0, 738.0)"></image><text xml:space="preserve" font-family="LucidaGrande-Bold,Lucida Grande" font-weight="bold" font-size="44.8" fill="#FEFFFE" transform="matrix(1.00, 0.00, -0.00, -1.00, 370.3, 702.5)">u</text><text xml:space="preserve" font-family="LucidaGrande-Bold,Lucida Grande" font-weight="bold" font-size="44.8" fill="#FEFFFE" transform="matrix(1.00, 0.00, -0.00, -1.00, 399.7, 702.5)">i</text><text xml:space="preserve" font-family="LucidaGrande-Bold,Lucida Grande" font-weight="bold" font-size="44.8" fill="#FEFFFE" transform="matrix(1.00, 0.00, -0.00, -1.00, 414.3, 702.5)">a</text><text xml:space="preserve" font-family="LucidaGrande-Bold,Lucida Grande" font-weight="bold" font-size="44.8" fill="#FEFFFE" transform="matrix(1.00, 0.00, -0.00, -1.00, 440.6, 702.5)">u</text><text xml:space="preserve" font-family="LucidaGrande-Bold,Lucida Grande" font-weight="bold" font-size="44.8" fill="#FEFFFE" transform="matrix(1.00, 0.00, -0.00, -1.00, 470.0, 702.5)">t</text><text xml:space="preserve" font-family="LucidaGrande-Bold,Lucida Grande" font-weight="bold" font-size="44.8" fill="#FEFFFE" transform="matrix(1.00, 0.00, -0.00, -1.00, 488.2, 702.5)">o</text><text xml:space="preserve" font-family="LucidaGrande-Bold,Lucida Grande" font-weight="bold" font-size="44.8" fill="#FEFFFE" transform="matrix(1.00, 0.00, -0.00, -1.00, 516.8, 702.5)">m</text><text xml:space="preserve" font-family="LucidaGrande-Bold,Lucida Grande" font-weight="bold" font-size="44.8" fill="#FEFFFE" transform="matrix(1.00, 0.00, -0.00, -1.00, 560.2, 702.5)">a</text><text xml:space="preserve" font-family="LucidaGrande-Bold,Lucida Grande" font-weight="bold" font-size="44.8" fill="#FEFFFE" transform="matrix(1.00, 0.00, -0.00, -1.00, 586.6, 702.5)">t</text><text xml:space="preserve" font-family="LucidaGrande-Bold,Lucida Grande" font-weight="bold" font-size="44.8" fill="#FEFFFE" transform="matrix(1.00, 0.00, -0.00, -1.00, 604.8, 702.5)">o</text><text xml:space="preserve" font-family="LucidaGrande-Bold,Lucida Grande" font-weight="bold" font-size="44.8" fill="#FEFFFE" transform="matrix(1.00, 0.00, -0.00, -1.00, 633.4, 702.5)">r</text><image xlink:href="9F41BF8A6A3C74AACAFC504028503307.png" width="1438.00" height="828.00" transform="matrix(0.71, 0.00, -0.00, -0.71, 0.0, 678.8)"></image></g></svg>