<?xml version="1.0" encoding="UTF-8" standalone="no"?><svg xmlns="http://www.w3.org/2000/svg" xmlns:xlink="http://www.w3.org/1999/xlink" clip-rule="evenodd" stroke-miterlimit="10" viewBox="0 0 1024 768"><desc>SVG generated by Keynote</desc><defs></defs><g transform="matrix(1.00, 0.00, -0.00, -1.00, 0.0, 768.0)"><g><clipPath id="clip0x6080010ad080"><path d="M 0.0 768.0 L 1024.0 768.0 L 1024.0 0.0 L 0.0 0.0 Z M 0.0 768.0 "></path></clipPath><g clip-path="url(#clip0x6080010ad080)"><image xlink:href="../../073872A3-6B4A-4DBD-B237-E9D6C1798DA3/assets/9397CAD6F20342ACC2646ABBCA758461.jpeg" width="2048.00" height="1536.00" transform="matrix(0.50, 0.00, -0.00, -0.50, 0.0, 768.0)"></image></g></g><image xlink:href="AB000772FC3BB939DBA7524726C1D89D.png" width="189.00" height="67.00" transform="matrix(1.00, 0.00, -0.00, -1.00, 416.0, 688.0)"></image><text xml:space="preserve" font-family="LucidaGrande-Bold,Lucida Grande" font-weight="bold" font-size="64.0" fill="#FEFFFE" transform="matrix(1.00, 0.00, -0.00, -1.00, 420.0, 639.5)">T</text><text xml:space="preserve" font-family="LucidaGrande-Bold,Lucida Grande" font-weight="bold" font-size="64.0" fill="#FEFFFE" transform="matrix(1.00, 0.00, -0.00, -1.00, 464.1, 639.5)">e</text><text xml:space="preserve" font-family="LucidaGrande-Bold,Lucida Grande" font-weight="bold" font-size="64.0" fill="#FEFFFE" transform="matrix(1.00, 0.00, -0.00, -1.00, 501.6, 639.5)">s</text><text xml:space="preserve" font-family="LucidaGrande-Bold,Lucida Grande" font-weight="bold" font-size="64.0" fill="#FEFFFE" transform="matrix(1.00, 0.00, -0.00, -1.00, 537.9, 639.5)">t</text><text xml:space="preserve" font-family="LucidaGrande-Bold,Lucida Grande" font-weight="bold" font-size="64.0" fill="#FEFFFE" transform="matrix(1.00, 0.00, -0.00, -1.00, 563.8, 639.5)">y</text><text xml:space="preserve" font-family="LucidaGrande-Bold,Lucida Grande" font-weight="bold" font-size="64.0" fill="#FEFFFE" transform="matrix(1.00, 0.00, -0.00, -1.00, 601.1, 639.5)"></text><image xlink:href="../../2D197280-1DD4-47A5-8EC1-CB39EA06D99E/assets/C25F7C0C760FC422C6FD5D90B7D2228F.png" width="18.00" height="18.00" transform="matrix(1.00, 0.00, -0.00, -1.00, 62.0, 518.0)"></image><text xml:space="preserve" font-family="LucidaGrande,Lucida Grande" font-size="25.5" fill="#EAEAEA" transform="matrix(1.00, 0.00, -0.00, -1.00, 64.0, 503.4)">•</text><image xlink:href="B263F88862009F27D318D19AA9853146.png" width="402.00" height="36.00" transform="matrix(1.00, 0.00, -0.00, -1.00, 95.0, 529.0)"></image><text xml:space="preserve" font-family="LucidaGrande,Lucida Grande" font-size="34.0" fill="#EAEAEA" transform="matrix(1.00, 0.00, -0.00, -1.00, 96.0, 500.2)">b</text><text xml:space="preserve" font-family="LucidaGrande,Lucida Grande" font-size="34.0" fill="#EAEAEA" transform="matrix(1.00, 0.00, -0.00, -1.00, 117.4, 500.2)">l</text><text xml:space="preserve" font-family="LucidaGrande,Lucida Grande" font-size="34.0" fill="#EAEAEA" transform="matrix(1.00, 0.00, -0.00, -1.00, 127.2, 500.2)">a</text><text xml:space="preserve" font-family="LucidaGrande,Lucida Grande" font-size="34.0" fill="#EAEAEA" transform="matrix(1.00, 0.00, -0.00, -1.00, 146.0, 500.2)">c</text><text xml:space="preserve" font-family="LucidaGrande,Lucida Grande" font-size="34.0" fill="#EAEAEA" transform="matrix(1.00, 0.00, -0.00, -1.00, 163.4, 500.2)">k</text><text xml:space="preserve" font-family="LucidaGrande,Lucida Grande" font-size="34.0" fill="#EAEAEA" transform="matrix(1.00, 0.00, -0.00, -1.00, 183.3, 500.2)">-</text><text xml:space="preserve" font-family="LucidaGrande,Lucida Grande" font-size="34.0" fill="#EAEAEA" transform="matrix(1.00, 0.00, -0.00, -1.00, 203.0, 500.2)">b</text><text xml:space="preserve" font-family="LucidaGrande,Lucida Grande" font-size="34.0" fill="#EAEAEA" transform="matrix(1.00, 0.00, -0.00, -1.00, 224.4, 500.2)">o</text><text xml:space="preserve" font-family="LucidaGrande,Lucida Grande" font-size="34.0" fill="#EAEAEA" transform="matrix(1.00, 0.00, -0.00, -1.00, 245.3, 500.2)">x</text><text xml:space="preserve" font-family="LucidaGrande,Lucida Grande" font-size="34.0" fill="#EAEAEA" transform="matrix(1.00, 0.00, -0.00, -1.00, 266.2, 500.2)"> </text><text xml:space="preserve" font-family="LucidaGrande,Lucida Grande" font-size="34.0" fill="#EAEAEA" transform="matrix(1.00, 0.00, -0.00, -1.00, 276.9, 500.2)">v</text><text xml:space="preserve" font-family="LucidaGrande,Lucida Grande" font-size="34.0" fill="#EAEAEA" transform="matrix(1.00, 0.00, -0.00, -1.00, 294.5, 500.2)">s</text><text xml:space="preserve" font-family="LucidaGrande,Lucida Grande" font-size="34.0" fill="#EAEAEA" transform="matrix(1.00, 0.00, -0.00, -1.00, 311.8, 500.2)"> </text><text xml:space="preserve" font-family="LucidaGrande,Lucida Grande" font-size="34.0" fill="#EAEAEA" transform="matrix(1.00, 0.00, -0.00, -1.00, 322.6, 500.2)">w</text><text xml:space="preserve" font-family="LucidaGrande,Lucida Grande" font-size="34.0" fill="#EAEAEA" transform="matrix(1.00, 0.00, -0.00, -1.00, 348.8, 500.2)">h</text><text xml:space="preserve" font-family="LucidaGrande,Lucida Grande" font-size="34.0" fill="#EAEAEA" transform="matrix(1.00, 0.00, -0.00, -1.00, 369.9, 500.2)">i</text><text xml:space="preserve" font-family="LucidaGrande,Lucida Grande" font-size="34.0" fill="#EAEAEA" transform="matrix(1.00, 0.00, -0.00, -1.00, 379.7, 500.2)">t</text><text xml:space="preserve" font-family="LucidaGrande,Lucida Grande" font-size="34.0" fill="#EAEAEA" transform="matrix(1.00, 0.00, -0.00, -1.00, 392.4, 500.2)">e</text><text xml:space="preserve" font-family="LucidaGrande,Lucida Grande" font-size="34.0" fill="#EAEAEA" transform="matrix(1.00, 0.00, -0.00, -1.00, 411.4, 500.2)">-</text><text xml:space="preserve" font-family="LucidaGrande,Lucida Grande" font-size="34.0" fill="#EAEAEA" transform="matrix(1.00, 0.00, -0.00, -1.00, 431.0, 500.2)">b</text><text xml:space="preserve" font-family="LucidaGrande,Lucida Grande" font-size="34.0" fill="#EAEAEA" transform="matrix(1.00, 0.00, -0.00, -1.00, 452.5, 500.2)">o</text><text xml:space="preserve" font-family="LucidaGrande,Lucida Grande" font-size="34.0" fill="#EAEAEA" transform="matrix(1.00, 0.00, -0.00, -1.00, 473.3, 500.2)">x</text><text xml:space="preserve" font-family="LucidaGrande,Lucida Grande" font-size="34.0" fill="#EAEAEA" transform="matrix(1.00, 0.00, -0.00, -1.00, 494.2, 500.2)"></text><image xlink:href="../../2D197280-1DD4-47A5-8EC1-CB39EA06D99E/assets/C25F7C0C760FC422C6FD5D90B7D2228F.png" width="18.00" height="18.00" transform="matrix(1.00, 0.00, -0.00, -1.00, 62.0, 456.0)"></image><text xml:space="preserve" font-family="LucidaGrande,Lucida Grande" font-size="25.5" fill="#EAEAEA" transform="matrix(1.00, 0.00, -0.00, -1.00, 64.0, 441.4)">•</text><image xlink:href="610D469B4496FF882DEAEDBA717E38F3.png" width="239.00" height="42.00" transform="matrix(1.00, 0.00, -0.00, -1.00, 94.0, 467.0)"></image><text xml:space="preserve" font-family="LucidaGrande,Lucida Grande" font-size="34.0" fill="#EAEAEA" transform="matrix(1.00, 0.00, -0.00, -1.00, 96.0, 438.2)">ź</text><text xml:space="preserve" font-family="LucidaGrande,Lucida Grande" font-size="34.0" fill="#EAEAEA" transform="matrix(1.00, 0.00, -0.00, -1.00, 115.5, 438.2)">r</text><text xml:space="preserve" font-family="LucidaGrande,Lucida Grande" font-size="34.0" fill="#EAEAEA" transform="matrix(1.00, 0.00, -0.00, -1.00, 129.4, 438.2)">ó</text><text xml:space="preserve" font-family="LucidaGrande,Lucida Grande" font-size="34.0" fill="#EAEAEA" transform="matrix(1.00, 0.00, -0.00, -1.00, 150.3, 438.2)">d</text><text xml:space="preserve" font-family="LucidaGrande,Lucida Grande" font-size="34.0" fill="#EAEAEA" transform="matrix(1.00, 0.00, -0.00, -1.00, 171.7, 438.2)">ł</text><text xml:space="preserve" font-family="LucidaGrande,Lucida Grande" font-size="34.0" fill="#EAEAEA" transform="matrix(1.00, 0.00, -0.00, -1.00, 182.9, 438.2)">a</text><text xml:space="preserve" font-family="LucidaGrande,Lucida Grande" font-size="34.0" fill="#EAEAEA" transform="matrix(1.00, 0.00, -0.00, -1.00, 201.7, 438.2)"> </text><text xml:space="preserve" font-family="LucidaGrande,Lucida Grande" font-size="34.0" fill="#EAEAEA" transform="matrix(1.00, 0.00, -0.00, -1.00, 212.4, 438.2)">v</text><text xml:space="preserve" font-family="LucidaGrande,Lucida Grande" font-size="34.0" fill="#EAEAEA" transform="matrix(1.00, 0.00, -0.00, -1.00, 230.0, 438.2)">s</text><text xml:space="preserve" font-family="LucidaGrande,Lucida Grande" font-size="34.0" fill="#EAEAEA" transform="matrix(1.00, 0.00, -0.00, -1.00, 247.3, 438.2)">.</text><text xml:space="preserve" font-family="LucidaGrande,Lucida Grande" font-size="34.0" fill="#EAEAEA" transform="matrix(1.00, 0.00, -0.00, -1.00, 258.1, 438.2)"> </text><text xml:space="preserve" font-family="LucidaGrande,Lucida Grande" font-size="34.0" fill="#EAEAEA" transform="matrix(1.00, 0.00, -0.00, -1.00, 268.9, 438.2)">a</text><text xml:space="preserve" font-family="LucidaGrande,Lucida Grande" font-size="34.0" fill="#EAEAEA" transform="matrix(1.00, 0.00, -0.00, -1.00, 287.6, 438.2)">p</text><text xml:space="preserve" font-family="LucidaGrande,Lucida Grande" font-size="34.0" fill="#EAEAEA" transform="matrix(1.00, 0.00, -0.00, -1.00, 309.1, 438.2)">k</text><text xml:space="preserve" font-family="LucidaGrande,Lucida Grande" font-size="34.0" fill="#EAEAEA" transform="matrix(1.00, 0.00, -0.00, -1.00, 328.9, 438.2)"></text><image xlink:href="../../2D197280-1DD4-47A5-8EC1-CB39EA06D99E/assets/C25F7C0C760FC422C6FD5D90B7D2228F.png" width="18.00" height="18.00" transform="matrix(1.00, 0.00, -0.00, -1.00, 62.0, 394.0)"></image><text xml:space="preserve" font-family="LucidaGrande,Lucida Grande" font-size="25.5" fill="#EAEAEA" transform="matrix(1.00, 0.00, -0.00, -1.00, 64.0, 379.4)">•</text><image xlink:href="893814F3229750D84311B8367F6F973D.png" width="244.00" height="40.00" transform="matrix(1.00, 0.00, -0.00, -1.00, 88.0, 405.0)"></image><text xml:space="preserve" font-family="LucidaGrande,Lucida Grande" font-size="34.0" fill="#EAEAEA" transform="matrix(1.00, 0.00, -0.00, -1.00, 96.0, 376.2)">J</text><text xml:space="preserve" font-family="LucidaGrande,Lucida Grande" font-size="34.0" fill="#EAEAEA" transform="matrix(1.00, 0.00, -0.00, -1.00, 106.6, 376.2)">V</text><text xml:space="preserve" font-family="LucidaGrande,Lucida Grande" font-size="34.0" fill="#EAEAEA" transform="matrix(1.00, 0.00, -0.00, -1.00, 128.8, 376.2)">M</text><text xml:space="preserve" font-family="LucidaGrande,Lucida Grande" font-size="34.0" fill="#EAEAEA" transform="matrix(1.00, 0.00, -0.00, -1.00, 158.1, 376.2)"> </text><text xml:space="preserve" font-family="LucidaGrande,Lucida Grande" font-size="34.0" fill="#EAEAEA" transform="matrix(1.00, 0.00, -0.00, -1.00, 168.9, 376.2)">v</text><text xml:space="preserve" font-family="LucidaGrande,Lucida Grande" font-size="34.0" fill="#EAEAEA" transform="matrix(1.00, 0.00, -0.00, -1.00, 186.4, 376.2)">s</text><text xml:space="preserve" font-family="LucidaGrande,Lucida Grande" font-size="34.0" fill="#EAEAEA" transform="matrix(1.00, 0.00, -0.00, -1.00, 203.8, 376.2)">.</text><text xml:space="preserve" font-family="LucidaGrande,Lucida Grande" font-size="34.0" fill="#EAEAEA" transform="matrix(1.00, 0.00, -0.00, -1.00, 214.5, 376.2)"> </text><text xml:space="preserve" font-family="LucidaGrande,Lucida Grande" font-size="34.0" fill="#EAEAEA" transform="matrix(1.00, 0.00, -0.00, -1.00, 225.3, 376.2)">d</text><text xml:space="preserve" font-family="LucidaGrande,Lucida Grande" font-size="34.0" fill="#EAEAEA" transform="matrix(1.00, 0.00, -0.00, -1.00, 246.7, 376.2)">e</text><text xml:space="preserve" font-family="LucidaGrande,Lucida Grande" font-size="34.0" fill="#EAEAEA" transform="matrix(1.00, 0.00, -0.00, -1.00, 265.7, 376.2)">v</text><text xml:space="preserve" font-family="LucidaGrande,Lucida Grande" font-size="34.0" fill="#EAEAEA" transform="matrix(1.00, 0.00, -0.00, -1.00, 283.3, 376.2)">i</text><text xml:space="preserve" font-family="LucidaGrande,Lucida Grande" font-size="34.0" fill="#EAEAEA" transform="matrix(1.00, 0.00, -0.00, -1.00, 293.1, 376.2)">c</text><text xml:space="preserve" font-family="LucidaGrande,Lucida Grande" font-size="34.0" fill="#EAEAEA" transform="matrix(1.00, 0.00, -0.00, -1.00, 310.5, 376.2)">e</text><text xml:space="preserve" font-family="LucidaGrande,Lucida Grande" font-size="34.0" fill="#EAEAEA" transform="matrix(1.00, 0.00, -0.00, -1.00, 329.5, 376.2)"></text><image xlink:href="../../2D197280-1DD4-47A5-8EC1-CB39EA06D99E/assets/C25F7C0C760FC422C6FD5D90B7D2228F.png" width="18.00" height="18.00" transform="matrix(1.00, 0.00, -0.00, -1.00, 62.0, 332.0)"></image><text xml:space="preserve" font-family="LucidaGrande,Lucida Grande" font-size="25.5" fill="#EAEAEA" transform="matrix(1.00, 0.00, -0.00, -1.00, 64.0, 317.4)">•</text><image xlink:href="BB7C0FCBA19175F9A9EC2E80DD8A2403.png" width="265.00" height="42.00" transform="matrix(1.00, 0.00, -0.00, -1.00, 93.0, 343.0)"></image><text xml:space="preserve" font-family="LucidaGrande,Lucida Grande" font-size="34.0" fill="#EAEAEA" transform="matrix(1.00, 0.00, -0.00, -1.00, 96.0, 314.2)">c</text><text xml:space="preserve" font-family="LucidaGrande,Lucida Grande" font-size="34.0" fill="#EAEAEA" transform="matrix(1.00, 0.00, -0.00, -1.00, 113.4, 314.2)">z</text><text xml:space="preserve" font-family="LucidaGrande,Lucida Grande" font-size="34.0" fill="#EAEAEA" transform="matrix(1.00, 0.00, -0.00, -1.00, 132.9, 314.2)">a</text><text xml:space="preserve" font-family="LucidaGrande,Lucida Grande" font-size="34.0" fill="#EAEAEA" transform="matrix(1.00, 0.00, -0.00, -1.00, 151.7, 314.2)">s</text><text xml:space="preserve" font-family="LucidaGrande,Lucida Grande" font-size="34.0" fill="#EAEAEA" transform="matrix(1.00, 0.00, -0.00, -1.00, 169.0, 314.2)"> </text><text xml:space="preserve" font-family="LucidaGrande,Lucida Grande" font-size="34.0" fill="#EAEAEA" transform="matrix(1.00, 0.00, -0.00, -1.00, 179.8, 314.2)">w</text><text xml:space="preserve" font-family="LucidaGrande,Lucida Grande" font-size="34.0" fill="#EAEAEA" transform="matrix(1.00, 0.00, -0.00, -1.00, 206.0, 314.2)">y</text><text xml:space="preserve" font-family="LucidaGrande,Lucida Grande" font-size="34.0" fill="#EAEAEA" transform="matrix(1.00, 0.00, -0.00, -1.00, 223.7, 314.2)">k</text><text xml:space="preserve" font-family="LucidaGrande,Lucida Grande" font-size="34.0" fill="#EAEAEA" transform="matrix(1.00, 0.00, -0.00, -1.00, 243.6, 314.2)">o</text><text xml:space="preserve" font-family="LucidaGrande,Lucida Grande" font-size="34.0" fill="#EAEAEA" transform="matrix(1.00, 0.00, -0.00, -1.00, 264.5, 314.2)">n</text><text xml:space="preserve" font-family="LucidaGrande,Lucida Grande" font-size="34.0" fill="#EAEAEA" transform="matrix(1.00, 0.00, -0.00, -1.00, 285.6, 314.2)">a</text><text xml:space="preserve" font-family="LucidaGrande,Lucida Grande" font-size="34.0" fill="#EAEAEA" transform="matrix(1.00, 0.00, -0.00, -1.00, 304.4, 314.2)">n</text><text xml:space="preserve" font-family="LucidaGrande,Lucida Grande" font-size="34.0" fill="#EAEAEA" transform="matrix(1.00, 0.00, -0.00, -1.00, 325.4, 314.2)">i</text><text xml:space="preserve" font-family="LucidaGrande,Lucida Grande" font-size="34.0" fill="#EAEAEA" transform="matrix(1.00, 0.00, -0.00, -1.00, 335.3, 314.2)">a</text><text xml:space="preserve" font-family="LucidaGrande,Lucida Grande" font-size="34.0" fill="#EAEAEA" transform="matrix(1.00, 0.00, -0.00, -1.00, 354.1, 314.2)"></text><image xlink:href="../../2D197280-1DD4-47A5-8EC1-CB39EA06D99E/assets/C25F7C0C760FC422C6FD5D90B7D2228F.png" width="18.00" height="18.00" transform="matrix(1.00, 0.00, -0.00, -1.00, 62.0, 270.0)"></image><text xml:space="preserve" font-family="LucidaGrande,Lucida Grande" font-size="25.5" fill="#EAEAEA" transform="matrix(1.00, 0.00, -0.00, -1.00, 64.0, 255.4)">•</text><image xlink:href="4706652B4CB56EE492794AE82A781BCA.png" width="477.00" height="42.00" transform="matrix(1.00, 0.00, -0.00, -1.00, 95.0, 281.0)"></image><text xml:space="preserve" font-family="LucidaGrande,Lucida Grande" font-size="34.0" fill="#EAEAEA" transform="matrix(1.00, 0.00, -0.00, -1.00, 96.0, 252.2)">k</text><text xml:space="preserve" font-family="LucidaGrande,Lucida Grande" font-size="34.0" fill="#EAEAEA" transform="matrix(1.00, 0.00, -0.00, -1.00, 115.9, 252.2)">t</text><text xml:space="preserve" font-family="LucidaGrande,Lucida Grande" font-size="34.0" fill="#EAEAEA" transform="matrix(1.00, 0.00, -0.00, -1.00, 128.6, 252.2)">o</text><text xml:space="preserve" font-family="LucidaGrande,Lucida Grande" font-size="34.0" fill="#EAEAEA" transform="matrix(1.00, 0.00, -0.00, -1.00, 149.5, 252.2)"> </text><text xml:space="preserve" font-family="LucidaGrande,Lucida Grande" font-size="34.0" fill="#EAEAEA" transform="matrix(1.00, 0.00, -0.00, -1.00, 160.3, 252.2)">p</text><text xml:space="preserve" font-family="LucidaGrande,Lucida Grande" font-size="34.0" fill="#EAEAEA" transform="matrix(1.00, 0.00, -0.00, -1.00, 181.7, 252.2)">i</text><text xml:space="preserve" font-family="LucidaGrande,Lucida Grande" font-size="34.0" fill="#EAEAEA" transform="matrix(1.00, 0.00, -0.00, -1.00, 191.5, 252.2)">s</text><text xml:space="preserve" font-family="LucidaGrande,Lucida Grande" font-size="34.0" fill="#EAEAEA" transform="matrix(1.00, 0.00, -0.00, -1.00, 208.8, 252.2)">z</text><text xml:space="preserve" font-family="LucidaGrande,Lucida Grande" font-size="34.0" fill="#EAEAEA" transform="matrix(1.00, 0.00, -0.00, -1.00, 228.3, 252.2)">e</text><text xml:space="preserve" font-family="LucidaGrande,Lucida Grande" font-size="34.0" fill="#EAEAEA" transform="matrix(1.00, 0.00, -0.00, -1.00, 247.3, 252.2)">?</text><text xml:space="preserve" font-family="LucidaGrande,Lucida Grande" font-size="34.0" fill="#EAEAEA" transform="matrix(1.00, 0.00, -0.00, -1.00, 261.6, 252.2)"> </text><text xml:space="preserve" font-family="LucidaGrande,Lucida Grande" font-size="34.0" fill="#EAEAEA" transform="matrix(1.00, 0.00, -0.00, -1.00, 272.4, 252.2)">d</text><text xml:space="preserve" font-family="LucidaGrande,Lucida Grande" font-size="34.0" fill="#EAEAEA" transform="matrix(1.00, 0.00, -0.00, -1.00, 293.8, 252.2)">e</text><text xml:space="preserve" font-family="LucidaGrande,Lucida Grande" font-size="34.0" fill="#EAEAEA" transform="matrix(1.00, 0.00, -0.00, -1.00, 312.8, 252.2)">v</text><text xml:space="preserve" font-family="LucidaGrande,Lucida Grande" font-size="34.0" fill="#EAEAEA" transform="matrix(1.00, 0.00, -0.00, -1.00, 330.3, 252.2)">e</text><text xml:space="preserve" font-family="LucidaGrande,Lucida Grande" font-size="34.0" fill="#EAEAEA" transform="matrix(1.00, 0.00, -0.00, -1.00, 349.3, 252.2)">l</text><text xml:space="preserve" font-family="LucidaGrande,Lucida Grande" font-size="34.0" fill="#EAEAEA" transform="matrix(1.00, 0.00, -0.00, -1.00, 359.1, 252.2)">o</text><text xml:space="preserve" font-family="LucidaGrande,Lucida Grande" font-size="34.0" fill="#EAEAEA" transform="matrix(1.00, 0.00, -0.00, -1.00, 380.0, 252.2)">p</text><text xml:space="preserve" font-family="LucidaGrande,Lucida Grande" font-size="34.0" fill="#EAEAEA" transform="matrix(1.00, 0.00, -0.00, -1.00, 401.4, 252.2)">e</text><text xml:space="preserve" font-family="LucidaGrande,Lucida Grande" font-size="34.0" fill="#EAEAEA" transform="matrix(1.00, 0.00, -0.00, -1.00, 420.4, 252.2)">r</text><text xml:space="preserve" font-family="LucidaGrande,Lucida Grande" font-size="34.0" fill="#EAEAEA" transform="matrix(1.00, 0.00, -0.00, -1.00, 434.3, 252.2)">?</text><text xml:space="preserve" font-family="LucidaGrande,Lucida Grande" font-size="34.0" fill="#EAEAEA" transform="matrix(1.00, 0.00, -0.00, -1.00, 448.6, 252.2)"> </text><text xml:space="preserve" font-family="LucidaGrande,Lucida Grande" font-size="34.0" fill="#EAEAEA" transform="matrix(1.00, 0.00, -0.00, -1.00, 459.4, 252.2)">t</text><text xml:space="preserve" font-family="LucidaGrande,Lucida Grande" font-size="34.0" fill="#EAEAEA" transform="matrix(1.00, 0.00, -0.00, -1.00, 472.1, 252.2)">e</text><text xml:space="preserve" font-family="LucidaGrande,Lucida Grande" font-size="34.0" fill="#EAEAEA" transform="matrix(1.00, 0.00, -0.00, -1.00, 491.1, 252.2)">s</text><text xml:space="preserve" font-family="LucidaGrande,Lucida Grande" font-size="34.0" fill="#EAEAEA" transform="matrix(1.00, 0.00, -0.00, -1.00, 508.4, 252.2)">t</text><text xml:space="preserve" font-family="LucidaGrande,Lucida Grande" font-size="34.0" fill="#EAEAEA" transform="matrix(1.00, 0.00, -0.00, -1.00, 521.1, 252.2)">e</text><text xml:space="preserve" font-family="LucidaGrande,Lucida Grande" font-size="34.0" fill="#EAEAEA" transform="matrix(1.00, 0.00, -0.00, -1.00, 540.1, 252.2)">r</text><text xml:space="preserve" font-family="LucidaGrande,Lucida Grande" font-size="34.0" fill="#EAEAEA" transform="matrix(1.00, 0.00, -0.00, -1.00, 554.0, 252.2)">?</text><text xml:space="preserve" font-family="LucidaGrande,Lucida Grande" font-size="34.0" fill="#EAEAEA" transform="matrix(1.00, 0.00, -0.00, -1.00, 568.3, 252.2)"></text><image xlink:href="../../2D197280-1DD4-47A5-8EC1-CB39EA06D99E/assets/C25F7C0C760FC422C6FD5D90B7D2228F.png" width="18.00" height="18.00" transform="matrix(1.00, 0.00, -0.00, -1.00, 62.0, 208.0)"></image><text xml:space="preserve" font-family="LucidaGrande,Lucida Grande" font-size="25.5" fill="#EAEAEA" transform="matrix(1.00, 0.00, -0.00, -1.00, 64.0, 193.4)">•</text><image xlink:href="563C74267C6686383792AD6CF9676FCB.png" width="431.00" height="42.00" transform="matrix(1.00, 0.00, -0.00, -1.00, 89.0, 219.0)"></image><text xml:space="preserve" font-family="LucidaGrande,Lucida Grande" font-size="34.0" fill="#EAEAEA" transform="matrix(1.00, 0.00, -0.00, -1.00, 96.0, 190.2)">j</text><text xml:space="preserve" font-family="LucidaGrande,Lucida Grande" font-size="34.0" fill="#EAEAEA" transform="matrix(1.00, 0.00, -0.00, -1.00, 106.3, 190.2)">e</text><text xml:space="preserve" font-family="LucidaGrande,Lucida Grande" font-size="34.0" fill="#EAEAEA" transform="matrix(1.00, 0.00, -0.00, -1.00, 125.3, 190.2)">d</text><text xml:space="preserve" font-family="LucidaGrande,Lucida Grande" font-size="34.0" fill="#EAEAEA" transform="matrix(1.00, 0.00, -0.00, -1.00, 146.7, 190.2)">n</text><text xml:space="preserve" font-family="LucidaGrande,Lucida Grande" font-size="34.0" fill="#EAEAEA" transform="matrix(1.00, 0.00, -0.00, -1.00, 167.8, 190.2)">a</text><text xml:space="preserve" font-family="LucidaGrande,Lucida Grande" font-size="34.0" fill="#EAEAEA" transform="matrix(1.00, 0.00, -0.00, -1.00, 186.6, 190.2)"> </text><text xml:space="preserve" font-family="LucidaGrande,Lucida Grande" font-size="34.0" fill="#EAEAEA" transform="matrix(1.00, 0.00, -0.00, -1.00, 197.3, 190.2)">a</text><text xml:space="preserve" font-family="LucidaGrande,Lucida Grande" font-size="34.0" fill="#EAEAEA" transform="matrix(1.00, 0.00, -0.00, -1.00, 216.1, 190.2)">p</text><text xml:space="preserve" font-family="LucidaGrande,Lucida Grande" font-size="34.0" fill="#EAEAEA" transform="matrix(1.00, 0.00, -0.00, -1.00, 237.5, 190.2)">l</text><text xml:space="preserve" font-family="LucidaGrande,Lucida Grande" font-size="34.0" fill="#EAEAEA" transform="matrix(1.00, 0.00, -0.00, -1.00, 247.4, 190.2)">i</text><text xml:space="preserve" font-family="LucidaGrande,Lucida Grande" font-size="34.0" fill="#EAEAEA" transform="matrix(1.00, 0.00, -0.00, -1.00, 257.2, 190.2)">k</text><text xml:space="preserve" font-family="LucidaGrande,Lucida Grande" font-size="34.0" fill="#EAEAEA" transform="matrix(1.00, 0.00, -0.00, -1.00, 277.1, 190.2)">a</text><text xml:space="preserve" font-family="LucidaGrande,Lucida Grande" font-size="34.0" fill="#EAEAEA" transform="matrix(1.00, 0.00, -0.00, -1.00, 295.8, 190.2)">c</text><text xml:space="preserve" font-family="LucidaGrande,Lucida Grande" font-size="34.0" fill="#EAEAEA" transform="matrix(1.00, 0.00, -0.00, -1.00, 313.3, 190.2)">j</text><text xml:space="preserve" font-family="LucidaGrande,Lucida Grande" font-size="34.0" fill="#EAEAEA" transform="matrix(1.00, 0.00, -0.00, -1.00, 323.6, 190.2)">a</text><text xml:space="preserve" font-family="LucidaGrande,Lucida Grande" font-size="34.0" fill="#EAEAEA" transform="matrix(1.00, 0.00, -0.00, -1.00, 342.4, 190.2)"> </text><text xml:space="preserve" font-family="LucidaGrande,Lucida Grande" font-size="34.0" fill="#EAEAEA" transform="matrix(1.00, 0.00, -0.00, -1.00, 353.2, 190.2)">c</text><text xml:space="preserve" font-family="LucidaGrande,Lucida Grande" font-size="34.0" fill="#EAEAEA" transform="matrix(1.00, 0.00, -0.00, -1.00, 370.6, 190.2)">z</text><text xml:space="preserve" font-family="LucidaGrande,Lucida Grande" font-size="34.0" fill="#EAEAEA" transform="matrix(1.00, 0.00, -0.00, -1.00, 390.1, 190.2)">y</text><text xml:space="preserve" font-family="LucidaGrande,Lucida Grande" font-size="34.0" fill="#EAEAEA" transform="matrix(1.00, 0.00, -0.00, -1.00, 407.9, 190.2)"> </text><text xml:space="preserve" font-family="LucidaGrande,Lucida Grande" font-size="34.0" fill="#EAEAEA" transform="matrix(1.00, 0.00, -0.00, -1.00, 418.6, 190.2)">w</text><text xml:space="preserve" font-family="LucidaGrande,Lucida Grande" font-size="34.0" fill="#EAEAEA" transform="matrix(1.00, 0.00, -0.00, -1.00, 444.8, 190.2)">i</text><text xml:space="preserve" font-family="LucidaGrande,Lucida Grande" font-size="34.0" fill="#EAEAEA" transform="matrix(1.00, 0.00, -0.00, -1.00, 454.6, 190.2)">e</text><text xml:space="preserve" font-family="LucidaGrande,Lucida Grande" font-size="34.0" fill="#EAEAEA" transform="matrix(1.00, 0.00, -0.00, -1.00, 473.6, 190.2)">l</text><text xml:space="preserve" font-family="LucidaGrande,Lucida Grande" font-size="34.0" fill="#EAEAEA" transform="matrix(1.00, 0.00, -0.00, -1.00, 483.4, 190.2)">e</text><text xml:space="preserve" font-family="LucidaGrande,Lucida Grande" font-size="34.0" fill="#EAEAEA" transform="matrix(1.00, 0.00, -0.00, -1.00, 502.4, 190.2)">?</text><text xml:space="preserve" font-family="LucidaGrande,Lucida Grande" font-size="34.0" fill="#EAEAEA" transform="matrix(1.00, 0.00, -0.00, -1.00, 516.7, 190.2)"></text><image xlink:href="../../2D197280-1DD4-47A5-8EC1-CB39EA06D99E/assets/C25F7C0C760FC422C6FD5D90B7D2228F.png" width="18.00" height="18.00" transform="matrix(1.00, 0.00, -0.00, -1.00, 62.0, 146.0)"></image><text xml:space="preserve" font-family="LucidaGrande,Lucida Grande" font-size="25.5" fill="#EAEAEA" transform="matrix(1.00, 0.00, -0.00, -1.00, 64.0, 131.4)">•</text><image xlink:href="EAB9B09787D4F17995663E8EF88C34DC.png" width="144.00" height="36.00" transform="matrix(1.00, 0.00, -0.00, -1.00, 95.0, 157.0)"></image><text xml:space="preserve" font-family="LucidaGrande,Lucida Grande" font-size="34.0" fill="#EAEAEA" transform="matrix(1.00, 0.00, -0.00, -1.00, 96.0, 128.2)">r</text><text xml:space="preserve" font-family="LucidaGrande,Lucida Grande" font-size="34.0" fill="#EAEAEA" transform="matrix(1.00, 0.00, -0.00, -1.00, 109.9, 128.2)">e</text><text xml:space="preserve" font-family="LucidaGrande,Lucida Grande" font-size="34.0" fill="#EAEAEA" transform="matrix(1.00, 0.00, -0.00, -1.00, 128.9, 128.2)">c</text><text xml:space="preserve" font-family="LucidaGrande,Lucida Grande" font-size="34.0" fill="#EAEAEA" transform="matrix(1.00, 0.00, -0.00, -1.00, 146.3, 128.2)">o</text><text xml:space="preserve" font-family="LucidaGrande,Lucida Grande" font-size="34.0" fill="#EAEAEA" transform="matrix(1.00, 0.00, -0.00, -1.00, 167.2, 128.2)">r</text><text xml:space="preserve" font-family="LucidaGrande,Lucida Grande" font-size="34.0" fill="#EAEAEA" transform="matrix(1.00, 0.00, -0.00, -1.00, 181.1, 128.2)">d</text><text xml:space="preserve" font-family="LucidaGrande,Lucida Grande" font-size="34.0" fill="#EAEAEA" transform="matrix(1.00, 0.00, -0.00, -1.00, 202.5, 128.2)">e</text><text xml:space="preserve" font-family="LucidaGrande,Lucida Grande" font-size="34.0" fill="#EAEAEA" transform="matrix(1.00, 0.00, -0.00, -1.00, 221.5, 128.2)">r</text></g></svg>