<?xml version="1.0" encoding="UTF-8" standalone="no"?><svg xmlns="http://www.w3.org/2000/svg" xmlns:xlink="http://www.w3.org/1999/xlink" clip-rule="evenodd" stroke-miterlimit="10" viewBox="0 0 873 64"><desc>SVG generated by Keynote</desc><defs></defs><g transform="matrix(1.00, 0.00, -0.00, -1.00, 0.0, 64.0)"><image xlink:href="../../9727412E-2B64-4CE1-91B9-98F74A0BF344/assets/F4014ACCB39F3609D3DE037AC7E13084.png" width="871.00" height="62.00" transform="matrix(1.00, 0.00, -0.00, -1.00, 1.0, 63.0)"></image><text xml:space="preserve" font-family="LucidaGrande-Bold,Lucida Grande" font-weight="bold" font-size="54.4" fill="#FEFFFE" transform="matrix(1.00, 0.00, -0.00, -1.00, 0.3, 18.5)">B</text><text xml:space="preserve" font-family="LucidaGrande-Bold,Lucida Grande" font-weight="bold" font-size="54.4" fill="#FEFFFE" transform="matrix(1.00, 0.00, -0.00, -1.00, 34.5, 18.5)">u</text><text xml:space="preserve" font-family="LucidaGrande-Bold,Lucida Grande" font-weight="bold" font-size="54.4" fill="#FEFFFE" transform="matrix(1.00, 0.00, -0.00, -1.00, 70.2, 18.5)">d</text><text xml:space="preserve" font-family="LucidaGrande-Bold,Lucida Grande" font-weight="bold" font-size="54.4" fill="#FEFFFE" transform="matrix(1.00, 0.00, -0.00, -1.00, 106.3, 18.5)">o</text><text xml:space="preserve" font-family="LucidaGrande-Bold,Lucida Grande" font-weight="bold" font-size="54.4" fill="#FEFFFE" transform="matrix(1.00, 0.00, -0.00, -1.00, 141.0, 18.5)">w</text><text xml:space="preserve" font-family="LucidaGrande-Bold,Lucida Grande" font-weight="bold" font-size="54.4" fill="#FEFFFE" transform="matrix(1.00, 0.00, -0.00, -1.00, 187.9, 18.5)">a</text><text xml:space="preserve" font-family="LucidaGrande-Bold,Lucida Grande" font-weight="bold" font-size="54.4" fill="#FEFFFE" transform="matrix(1.00, 0.00, -0.00, -1.00, 219.9, 18.5)">n</text><text xml:space="preserve" font-family="LucidaGrande-Bold,Lucida Grande" font-weight="bold" font-size="54.4" fill="#FEFFFE" transform="matrix(1.00, 0.00, -0.00, -1.00, 255.6, 18.5)">i</text><text xml:space="preserve" font-family="LucidaGrande-Bold,Lucida Grande" font-weight="bold" font-size="54.4" fill="#FEFFFE" transform="matrix(1.00, 0.00, -0.00, -1.00, 273.3, 18.5)">e</text><text xml:space="preserve" font-family="LucidaGrande-Bold,Lucida Grande" font-weight="bold" font-size="54.4" fill="#FEFFFE" transform="matrix(1.00, 0.00, -0.00, -1.00, 305.2, 18.5)"> </text><text xml:space="preserve" font-family="LucidaGrande-Bold,Lucida Grande" font-weight="bold" font-size="54.4" fill="#FEFFFE" transform="matrix(1.00, 0.00, -0.00, -1.00, 323.1, 18.5)">p</text><text xml:space="preserve" font-family="LucidaGrande-Bold,Lucida Grande" font-weight="bold" font-size="54.4" fill="#FEFFFE" transform="matrix(1.00, 0.00, -0.00, -1.00, 359.1, 18.5)">r</text><text xml:space="preserve" font-family="LucidaGrande-Bold,Lucida Grande" font-weight="bold" font-size="54.4" fill="#FEFFFE" transform="matrix(1.00, 0.00, -0.00, -1.00, 383.8, 18.5)">o</text><text xml:space="preserve" font-family="LucidaGrande-Bold,Lucida Grande" font-weight="bold" font-size="54.4" fill="#FEFFFE" transform="matrix(1.00, 0.00, -0.00, -1.00, 418.5, 18.5)">j</text><text xml:space="preserve" font-family="LucidaGrande-Bold,Lucida Grande" font-weight="bold" font-size="54.4" fill="#FEFFFE" transform="matrix(1.00, 0.00, -0.00, -1.00, 436.7, 18.5)">e</text><text xml:space="preserve" font-family="LucidaGrande-Bold,Lucida Grande" font-weight="bold" font-size="54.4" fill="#FEFFFE" transform="matrix(1.00, 0.00, -0.00, -1.00, 468.5, 18.5)">k</text><text xml:space="preserve" font-family="LucidaGrande-Bold,Lucida Grande" font-weight="bold" font-size="54.4" fill="#FEFFFE" transform="matrix(1.00, 0.00, -0.00, -1.00, 502.9, 18.5)">t</text><text xml:space="preserve" font-family="LucidaGrande-Bold,Lucida Grande" font-weight="bold" font-size="54.4" fill="#FEFFFE" transform="matrix(1.00, 0.00, -0.00, -1.00, 525.0, 18.5)">u</text><text xml:space="preserve" font-family="LucidaGrande-Bold,Lucida Grande" font-weight="bold" font-size="54.4" fill="#FEFFFE" transform="matrix(1.00, 0.00, -0.00, -1.00, 560.7, 18.5)"> </text><text xml:space="preserve" font-family="LucidaGrande-Bold,Lucida Grande" font-weight="bold" font-size="54.4" fill="#FEFFFE" transform="matrix(1.00, 0.00, -0.00, -1.00, 578.6, 18.5)">t</text><text xml:space="preserve" font-family="LucidaGrande-Bold,Lucida Grande" font-weight="bold" font-size="54.4" fill="#FEFFFE" transform="matrix(1.00, 0.00, -0.00, -1.00, 600.7, 18.5)">e</text><text xml:space="preserve" font-family="LucidaGrande-Bold,Lucida Grande" font-weight="bold" font-size="54.4" fill="#FEFFFE" transform="matrix(1.00, 0.00, -0.00, -1.00, 632.5, 18.5)">s</text><text xml:space="preserve" font-family="LucidaGrande-Bold,Lucida Grande" font-weight="bold" font-size="54.4" fill="#FEFFFE" transform="matrix(1.00, 0.00, -0.00, -1.00, 663.3, 18.5)">t</text><text xml:space="preserve" font-family="LucidaGrande-Bold,Lucida Grande" font-weight="bold" font-size="54.4" fill="#FEFFFE" transform="matrix(1.00, 0.00, -0.00, -1.00, 685.4, 18.5)">o</text><text xml:space="preserve" font-family="LucidaGrande-Bold,Lucida Grande" font-weight="bold" font-size="54.4" fill="#FEFFFE" transform="matrix(1.00, 0.00, -0.00, -1.00, 720.1, 18.5)">w</text><text xml:space="preserve" font-family="LucidaGrande-Bold,Lucida Grande" font-weight="bold" font-size="54.4" fill="#FEFFFE" transform="matrix(1.00, 0.00, -0.00, -1.00, 767.0, 18.5)">e</text><text xml:space="preserve" font-family="LucidaGrande-Bold,Lucida Grande" font-weight="bold" font-size="54.4" fill="#FEFFFE" transform="matrix(1.00, 0.00, -0.00, -1.00, 798.9, 18.5)">g</text><text xml:space="preserve" font-family="LucidaGrande-Bold,Lucida Grande" font-weight="bold" font-size="54.4" fill="#FEFFFE" transform="matrix(1.00, 0.00, -0.00, -1.00, 834.8, 18.5)">o</text></g></svg>