<?xml version="1.0" encoding="UTF-8" standalone="no"?><svg xmlns="http://www.w3.org/2000/svg" xmlns:xlink="http://www.w3.org/1999/xlink" clip-rule="evenodd" stroke-miterlimit="10" viewBox="0 0 1024 768"><desc>SVG generated by Keynote</desc><defs></defs><g transform="matrix(1.00, 0.00, -0.00, -1.00, 0.0, 768.0)"><g><clipPath id="clip0x608004cabb80"><path d="M 0.0 768.0 L 1024.0 768.0 L 1024.0 0.0 L 0.0 0.0 Z M 0.0 768.0 "></path></clipPath><g clip-path="url(#clip0x608004cabb80)"><image xlink:href="../../073872A3-6B4A-4DBD-B237-E9D6C1798DA3/assets/9397CAD6F20342ACC2646ABBCA758461.jpeg" width="2048.00" height="1536.00" transform="matrix(0.50, 0.00, -0.00, -0.50, 0.0, 768.0)"></image></g></g><path d="M 155.0 602.6 L 729.3 602.6 L 729.3 558.6 L 155.0 558.6 Z M 155.0 602.6 " fill="#000000" fill-opacity="0.00"></path><path d="M 155.0 558.6 L 828.4 558.6 L 828.4 514.6 L 155.0 514.6 Z M 155.0 558.6 " fill="#000000" fill-opacity="0.00"></path><path d="M 155.0 514.6 L 808.5 514.6 L 808.5 470.6 L 155.0 470.6 Z M 155.0 514.6 " fill="#000000" fill-opacity="0.00"></path><path d="M 155.0 426.6 L 868.0 426.6 L 868.0 382.6 L 155.0 382.6 Z M 155.0 426.6 " fill="#000000" fill-opacity="0.00"></path><path d="M 155.0 382.6 L 610.5 382.6 L 610.5 338.6 L 155.0 338.6 Z M 155.0 382.6 " fill="#000000" fill-opacity="0.00"></path><path d="M 155.0 294.6 L 848.2 294.6 L 848.2 250.6 L 155.0 250.6 Z M 155.0 294.6 " fill="#000000" fill-opacity="0.00"></path><path d="M 155.0 250.6 L 868.0 250.6 L 868.0 206.6 L 155.0 206.6 Z M 155.0 250.6 " fill="#000000" fill-opacity="0.00"></path><g><clipPath id="clip0x608004cac300"><path d="M 144.7 165.4 L 1024.0 165.4 L 1024.0 602.6 L 144.7 602.6 Z M 144.7 165.4 "></path></clipPath><g clip-path="url(#clip0x608004cac300)"><path d="M 155.0 206.6 L 174.8 206.6 L 174.8 162.6 L 155.0 162.6 Z M 155.0 206.6 " fill="#000000" fill-opacity="0.00"></path></g></g><text xml:space="preserve" font-family="Monaco,Monaco" font-size="33.0" fill="#98CE4F" transform="matrix(1.00, 0.00, -0.00, -1.00, 155.0, 569.6)">p</text><text xml:space="preserve" font-family="Monaco,Monaco" font-size="33.0" fill="#98CE4F" transform="matrix(1.00, 0.00, -0.00, -1.00, 174.8, 569.6)">u</text><text xml:space="preserve" font-family="Monaco,Monaco" font-size="33.0" fill="#98CE4F" transform="matrix(1.00, 0.00, -0.00, -1.00, 194.7, 569.6)">b</text><text xml:space="preserve" font-family="Monaco,Monaco" font-size="33.0" fill="#98CE4F" transform="matrix(1.00, 0.00, -0.00, -1.00, 214.5, 569.6)">l</text><text xml:space="preserve" font-family="Monaco,Monaco" font-size="33.0" fill="#98CE4F" transform="matrix(1.00, 0.00, -0.00, -1.00, 234.3, 569.6)">i</text><text xml:space="preserve" font-family="Monaco,Monaco" font-size="33.0" fill="#98CE4F" transform="matrix(1.00, 0.00, -0.00, -1.00, 254.1, 569.6)">c</text><text xml:space="preserve" font-family="Monaco,Monaco" font-size="33.0" fill="#F7F7F7" transform="matrix(1.00, 0.00, -0.00, -1.00, 273.9, 569.6)"> </text><text xml:space="preserve" font-family="Monaco,Monaco" font-size="33.0" fill="#98CE4F" transform="matrix(1.00, 0.00, -0.00, -1.00, 293.7, 569.6)">v</text><text xml:space="preserve" font-family="Monaco,Monaco" font-size="33.0" fill="#98CE4F" transform="matrix(1.00, 0.00, -0.00, -1.00, 313.5, 569.6)">o</text><text xml:space="preserve" font-family="Monaco,Monaco" font-size="33.0" fill="#98CE4F" transform="matrix(1.00, 0.00, -0.00, -1.00, 333.3, 569.6)">i</text><text xml:space="preserve" font-family="Monaco,Monaco" font-size="33.0" fill="#98CE4F" transform="matrix(1.00, 0.00, -0.00, -1.00, 353.1, 569.6)">d</text><text xml:space="preserve" font-family="Monaco,Monaco" font-size="33.0" fill="#F7F7F7" transform="matrix(1.00, 0.00, -0.00, -1.00, 372.9, 569.6)"> </text><text xml:space="preserve" font-family="Monaco,Monaco" font-size="33.0" fill="#F7F7F7" transform="matrix(1.00, 0.00, -0.00, -1.00, 392.7, 569.6)">t</text><text xml:space="preserve" font-family="Monaco,Monaco" font-size="33.0" fill="#F7F7F7" transform="matrix(1.00, 0.00, -0.00, -1.00, 412.5, 569.6)">e</text><text xml:space="preserve" font-family="Monaco,Monaco" font-size="33.0" fill="#F7F7F7" transform="matrix(1.00, 0.00, -0.00, -1.00, 432.3, 569.6)">s</text><text xml:space="preserve" font-family="Monaco,Monaco" font-size="33.0" fill="#F7F7F7" transform="matrix(1.00, 0.00, -0.00, -1.00, 452.1, 569.6)">t</text><text xml:space="preserve" font-family="Monaco,Monaco" font-size="33.0" fill="#F7F7F7" transform="matrix(1.00, 0.00, -0.00, -1.00, 471.9, 569.6)">S</text><text xml:space="preserve" font-family="Monaco,Monaco" font-size="33.0" fill="#F7F7F7" transform="matrix(1.00, 0.00, -0.00, -1.00, 491.7, 569.6)">a</text><text xml:space="preserve" font-family="Monaco,Monaco" font-size="33.0" fill="#F7F7F7" transform="matrix(1.00, 0.00, -0.00, -1.00, 511.5, 569.6)">y</text><text xml:space="preserve" font-family="Monaco,Monaco" font-size="33.0" fill="#F7F7F7" transform="matrix(1.00, 0.00, -0.00, -1.00, 531.3, 569.6)">H</text><text xml:space="preserve" font-family="Monaco,Monaco" font-size="33.0" fill="#F7F7F7" transform="matrix(1.00, 0.00, -0.00, -1.00, 551.1, 569.6)">e</text><text xml:space="preserve" font-family="Monaco,Monaco" font-size="33.0" fill="#F7F7F7" transform="matrix(1.00, 0.00, -0.00, -1.00, 570.9, 569.6)">l</text><text xml:space="preserve" font-family="Monaco,Monaco" font-size="33.0" fill="#F7F7F7" transform="matrix(1.00, 0.00, -0.00, -1.00, 590.7, 569.6)">l</text><text xml:space="preserve" font-family="Monaco,Monaco" font-size="33.0" fill="#F7F7F7" transform="matrix(1.00, 0.00, -0.00, -1.00, 610.6, 569.6)">o</text><text xml:space="preserve" font-family="Monaco,Monaco" font-size="33.0" fill="#F7F7F7" transform="matrix(1.00, 0.00, -0.00, -1.00, 630.4, 569.6)">(</text><text xml:space="preserve" font-family="Monaco,Monaco" font-size="33.0" fill="#F7F7F7" transform="matrix(1.00, 0.00, -0.00, -1.00, 650.2, 569.6)">)</text><text xml:space="preserve" font-family="Monaco,Monaco" font-size="33.0" fill="#F7F7F7" transform="matrix(1.00, 0.00, -0.00, -1.00, 670.0, 569.6)"> </text><text xml:space="preserve" font-family="Monaco,Monaco" font-size="33.0" fill="#F7F7F7" transform="matrix(1.00, 0.00, -0.00, -1.00, 689.8, 569.6)">{</text><text xml:space="preserve" font-family="Monaco,Monaco" font-size="33.0" fill="#F7F7F7" transform="matrix(1.00, 0.00, -0.00, -1.00, 709.6, 569.6)">	</text><text xml:space="preserve" font-family="Monaco,Monaco" font-size="33.0" fill="#F7F7F7" transform="matrix(1.00, 0.00, -0.00, -1.00, 155.0, 525.6)"> </text><text xml:space="preserve" font-family="Monaco,Monaco" font-size="33.0" fill="#F7F7F7" transform="matrix(1.00, 0.00, -0.00, -1.00, 174.8, 525.6)"> </text><text xml:space="preserve" font-family="Monaco,Monaco" font-size="33.0" fill="#F7F7F7" transform="matrix(1.00, 0.00, -0.00, -1.00, 194.7, 525.6)">o</text><text xml:space="preserve" font-family="Monaco,Monaco" font-size="33.0" fill="#F7F7F7" transform="matrix(1.00, 0.00, -0.00, -1.00, 214.5, 525.6)">n</text><text xml:space="preserve" font-family="Monaco,Monaco" font-size="33.0" fill="#F7F7F7" transform="matrix(1.00, 0.00, -0.00, -1.00, 234.3, 525.6)">V</text><text xml:space="preserve" font-family="Monaco,Monaco" font-size="33.0" fill="#F7F7F7" transform="matrix(1.00, 0.00, -0.00, -1.00, 254.1, 525.6)">i</text><text xml:space="preserve" font-family="Monaco,Monaco" font-size="33.0" fill="#F7F7F7" transform="matrix(1.00, 0.00, -0.00, -1.00, 273.9, 525.6)">e</text><text xml:space="preserve" font-family="Monaco,Monaco" font-size="33.0" fill="#F7F7F7" transform="matrix(1.00, 0.00, -0.00, -1.00, 293.7, 525.6)">w</text><text xml:space="preserve" font-family="Monaco,Monaco" font-size="33.0" fill="#F7F7F7" transform="matrix(1.00, 0.00, -0.00, -1.00, 313.5, 525.6)">(</text><text xml:space="preserve" font-family="Monaco,Monaco" font-size="33.0" fill="#F7F7F7" transform="matrix(1.00, 0.00, -0.00, -1.00, 333.3, 525.6)">w</text><text xml:space="preserve" font-family="Monaco,Monaco" font-size="33.0" fill="#F7F7F7" transform="matrix(1.00, 0.00, -0.00, -1.00, 353.1, 525.6)">i</text><text xml:space="preserve" font-family="Monaco,Monaco" font-size="33.0" fill="#F7F7F7" transform="matrix(1.00, 0.00, -0.00, -1.00, 372.9, 525.6)">t</text><text xml:space="preserve" font-family="Monaco,Monaco" font-size="33.0" fill="#F7F7F7" transform="matrix(1.00, 0.00, -0.00, -1.00, 392.7, 525.6)">h</text><text xml:space="preserve" font-family="Monaco,Monaco" font-size="33.0" fill="#F7F7F7" transform="matrix(1.00, 0.00, -0.00, -1.00, 412.5, 525.6)">I</text><text xml:space="preserve" font-family="Monaco,Monaco" font-size="33.0" fill="#F7F7F7" transform="matrix(1.00, 0.00, -0.00, -1.00, 432.3, 525.6)">d</text><text xml:space="preserve" font-family="Monaco,Monaco" font-size="33.0" fill="#F7F7F7" transform="matrix(1.00, 0.00, -0.00, -1.00, 452.1, 525.6)">(</text><text xml:space="preserve" font-family="Monaco,Monaco" font-size="33.0" fill="#98CE4F" transform="matrix(1.00, 0.00, -0.00, -1.00, 471.9, 525.6)">R</text><text xml:space="preserve" font-family="Monaco,Monaco" font-size="33.0" fill="#E18964" transform="matrix(1.00, 0.00, -0.00, -1.00, 491.7, 525.6)">.</text><text xml:space="preserve" font-family="Monaco,Monaco" font-size="33.0" fill="#F7F7F7" transform="matrix(1.00, 0.00, -0.00, -1.00, 511.5, 525.6)">i</text><text xml:space="preserve" font-family="Monaco,Monaco" font-size="33.0" fill="#F7F7F7" transform="matrix(1.00, 0.00, -0.00, -1.00, 531.3, 525.6)">d</text><text xml:space="preserve" font-family="Monaco,Monaco" font-size="33.0" fill="#E18964" transform="matrix(1.00, 0.00, -0.00, -1.00, 551.1, 525.6)">.</text><text xml:space="preserve" font-family="Monaco,Monaco" font-size="33.0" fill="#F7F7F7" transform="matrix(1.00, 0.00, -0.00, -1.00, 570.9, 525.6)">n</text><text xml:space="preserve" font-family="Monaco,Monaco" font-size="33.0" fill="#F7F7F7" transform="matrix(1.00, 0.00, -0.00, -1.00, 590.7, 525.6)">a</text><text xml:space="preserve" font-family="Monaco,Monaco" font-size="33.0" fill="#F7F7F7" transform="matrix(1.00, 0.00, -0.00, -1.00, 610.5, 525.6)">m</text><text xml:space="preserve" font-family="Monaco,Monaco" font-size="33.0" fill="#F7F7F7" transform="matrix(1.00, 0.00, -0.00, -1.00, 630.3, 525.6)">e</text><text xml:space="preserve" font-family="Monaco,Monaco" font-size="33.0" fill="#F7F7F7" transform="matrix(1.00, 0.00, -0.00, -1.00, 650.1, 525.6)">_</text><text xml:space="preserve" font-family="Monaco,Monaco" font-size="33.0" fill="#F7F7F7" transform="matrix(1.00, 0.00, -0.00, -1.00, 669.9, 525.6)">f</text><text xml:space="preserve" font-family="Monaco,Monaco" font-size="33.0" fill="#F7F7F7" transform="matrix(1.00, 0.00, -0.00, -1.00, 689.7, 525.6)">i</text><text xml:space="preserve" font-family="Monaco,Monaco" font-size="33.0" fill="#F7F7F7" transform="matrix(1.00, 0.00, -0.00, -1.00, 709.6, 525.6)">e</text><text xml:space="preserve" font-family="Monaco,Monaco" font-size="33.0" fill="#F7F7F7" transform="matrix(1.00, 0.00, -0.00, -1.00, 729.4, 525.6)">l</text><text xml:space="preserve" font-family="Monaco,Monaco" font-size="33.0" fill="#F7F7F7" transform="matrix(1.00, 0.00, -0.00, -1.00, 749.2, 525.6)">d</text><text xml:space="preserve" font-family="Monaco,Monaco" font-size="33.0" fill="#F7F7F7" transform="matrix(1.00, 0.00, -0.00, -1.00, 769.0, 525.6)">)</text><text xml:space="preserve" font-family="Monaco,Monaco" font-size="33.0" fill="#F7F7F7" transform="matrix(1.00, 0.00, -0.00, -1.00, 788.8, 525.6)">)</text><text xml:space="preserve" font-family="Monaco,Monaco" font-size="33.0" fill="#F7F7F7" transform="matrix(1.00, 0.00, -0.00, -1.00, 808.6, 525.6)">	</text><text xml:space="preserve" font-family="Monaco,Monaco" font-size="33.0" fill="#F7F7F7" transform="matrix(1.00, 0.00, -0.00, -1.00, 155.0, 481.6)"> </text><text xml:space="preserve" font-family="Monaco,Monaco" font-size="33.0" fill="#F7F7F7" transform="matrix(1.00, 0.00, -0.00, -1.00, 174.8, 481.6)"> </text><text xml:space="preserve" font-family="Monaco,Monaco" font-size="33.0" fill="#F7F7F7" transform="matrix(1.00, 0.00, -0.00, -1.00, 194.7, 481.6)"> </text><text xml:space="preserve" font-family="Monaco,Monaco" font-size="33.0" fill="#F7F7F7" transform="matrix(1.00, 0.00, -0.00, -1.00, 214.5, 481.6)"> </text><text xml:space="preserve" font-family="Monaco,Monaco" font-size="33.0" fill="#F7F7F7" transform="matrix(1.00, 0.00, -0.00, -1.00, 234.3, 481.6)">.</text><text xml:space="preserve" font-family="Monaco,Monaco" font-size="33.0" fill="#F7F7F7" transform="matrix(1.00, 0.00, -0.00, -1.00, 254.1, 481.6)">p</text><text xml:space="preserve" font-family="Monaco,Monaco" font-size="33.0" fill="#F7F7F7" transform="matrix(1.00, 0.00, -0.00, -1.00, 273.9, 481.6)">e</text><text xml:space="preserve" font-family="Monaco,Monaco" font-size="33.0" fill="#F7F7F7" transform="matrix(1.00, 0.00, -0.00, -1.00, 293.7, 481.6)">r</text><text xml:space="preserve" font-family="Monaco,Monaco" font-size="33.0" fill="#F7F7F7" transform="matrix(1.00, 0.00, -0.00, -1.00, 313.5, 481.6)">f</text><text xml:space="preserve" font-family="Monaco,Monaco" font-size="33.0" fill="#F7F7F7" transform="matrix(1.00, 0.00, -0.00, -1.00, 333.3, 481.6)">o</text><text xml:space="preserve" font-family="Monaco,Monaco" font-size="33.0" fill="#F7F7F7" transform="matrix(1.00, 0.00, -0.00, -1.00, 353.1, 481.6)">r</text><text xml:space="preserve" font-family="Monaco,Monaco" font-size="33.0" fill="#F7F7F7" transform="matrix(1.00, 0.00, -0.00, -1.00, 372.9, 481.6)">m</text><text xml:space="preserve" font-family="Monaco,Monaco" font-size="33.0" fill="#F7F7F7" transform="matrix(1.00, 0.00, -0.00, -1.00, 392.7, 481.6)">(</text><text xml:space="preserve" font-family="Monaco,Monaco" font-size="33.0" fill="#F7F7F7" transform="matrix(1.00, 0.00, -0.00, -1.00, 412.5, 481.6)">t</text><text xml:space="preserve" font-family="Monaco,Monaco" font-size="33.0" fill="#F7F7F7" transform="matrix(1.00, 0.00, -0.00, -1.00, 432.3, 481.6)">y</text><text xml:space="preserve" font-family="Monaco,Monaco" font-size="33.0" fill="#F7F7F7" transform="matrix(1.00, 0.00, -0.00, -1.00, 452.1, 481.6)">p</text><text xml:space="preserve" font-family="Monaco,Monaco" font-size="33.0" fill="#F7F7F7" transform="matrix(1.00, 0.00, -0.00, -1.00, 471.9, 481.6)">e</text><text xml:space="preserve" font-family="Monaco,Monaco" font-size="33.0" fill="#F7F7F7" transform="matrix(1.00, 0.00, -0.00, -1.00, 491.8, 481.6)">T</text><text xml:space="preserve" font-family="Monaco,Monaco" font-size="33.0" fill="#F7F7F7" transform="matrix(1.00, 0.00, -0.00, -1.00, 511.6, 481.6)">e</text><text xml:space="preserve" font-family="Monaco,Monaco" font-size="33.0" fill="#F7F7F7" transform="matrix(1.00, 0.00, -0.00, -1.00, 531.4, 481.6)">x</text><text xml:space="preserve" font-family="Monaco,Monaco" font-size="33.0" fill="#F7F7F7" transform="matrix(1.00, 0.00, -0.00, -1.00, 551.2, 481.6)">t</text><text xml:space="preserve" font-family="Monaco,Monaco" font-size="33.0" fill="#F7F7F7" transform="matrix(1.00, 0.00, -0.00, -1.00, 571.0, 481.6)">(</text><text xml:space="preserve" font-family="Monaco,Monaco" font-size="33.0" fill="#64AF41" transform="matrix(1.00, 0.00, -0.00, -1.00, 590.7, 481.6)">"</text><text xml:space="preserve" font-family="Monaco,Monaco" font-size="33.0" fill="#64AF41" transform="matrix(1.00, 0.00, -0.00, -1.00, 610.5, 481.6)">S</text><text xml:space="preserve" font-family="Monaco,Monaco" font-size="33.0" fill="#64AF41" transform="matrix(1.00, 0.00, -0.00, -1.00, 630.3, 481.6)">t</text><text xml:space="preserve" font-family="Monaco,Monaco" font-size="33.0" fill="#64AF41" transform="matrix(1.00, 0.00, -0.00, -1.00, 650.1, 481.6)">e</text><text xml:space="preserve" font-family="Monaco,Monaco" font-size="33.0" fill="#64AF41" transform="matrix(1.00, 0.00, -0.00, -1.00, 669.9, 481.6)">v</text><text xml:space="preserve" font-family="Monaco,Monaco" font-size="33.0" fill="#64AF41" transform="matrix(1.00, 0.00, -0.00, -1.00, 689.7, 481.6)">e</text><text xml:space="preserve" font-family="Monaco,Monaco" font-size="33.0" fill="#64AF41" transform="matrix(1.00, 0.00, -0.00, -1.00, 709.6, 481.6)">"</text><text xml:space="preserve" font-family="Monaco,Monaco" font-size="33.0" fill="#F7F7F7" transform="matrix(1.00, 0.00, -0.00, -1.00, 729.3, 481.6)">)</text><text xml:space="preserve" font-family="Monaco,Monaco" font-size="33.0" fill="#F7F7F7" transform="matrix(1.00, 0.00, -0.00, -1.00, 749.1, 481.6)">)</text><text xml:space="preserve" font-family="Monaco,Monaco" font-size="33.0" fill="#F7F7F7" transform="matrix(1.00, 0.00, -0.00, -1.00, 768.9, 481.6)">;</text><text xml:space="preserve" font-family="Monaco,Monaco" font-size="33.0" fill="#F7F7F7" transform="matrix(1.00, 0.00, -0.00, -1.00, 788.8, 481.6)">	</text><text xml:space="preserve" font-family="Monaco,Monaco" font-size="33.0" fill="#F7F7F7" transform="matrix(1.00, 0.00, -0.00, -1.00, 155.0, 393.6)"> </text><text xml:space="preserve" font-family="Monaco,Monaco" font-size="33.0" fill="#F7F7F7" transform="matrix(1.00, 0.00, -0.00, -1.00, 174.8, 393.6)"> </text><text xml:space="preserve" font-family="Monaco,Monaco" font-size="33.0" fill="#F7F7F7" transform="matrix(1.00, 0.00, -0.00, -1.00, 194.7, 393.6)">o</text><text xml:space="preserve" font-family="Monaco,Monaco" font-size="33.0" fill="#F7F7F7" transform="matrix(1.00, 0.00, -0.00, -1.00, 214.5, 393.6)">n</text><text xml:space="preserve" font-family="Monaco,Monaco" font-size="33.0" fill="#F7F7F7" transform="matrix(1.00, 0.00, -0.00, -1.00, 234.3, 393.6)">V</text><text xml:space="preserve" font-family="Monaco,Monaco" font-size="33.0" fill="#F7F7F7" transform="matrix(1.00, 0.00, -0.00, -1.00, 254.1, 393.6)">i</text><text xml:space="preserve" font-family="Monaco,Monaco" font-size="33.0" fill="#F7F7F7" transform="matrix(1.00, 0.00, -0.00, -1.00, 273.9, 393.6)">e</text><text xml:space="preserve" font-family="Monaco,Monaco" font-size="33.0" fill="#F7F7F7" transform="matrix(1.00, 0.00, -0.00, -1.00, 293.7, 393.6)">w</text><text xml:space="preserve" font-family="Monaco,Monaco" font-size="33.0" fill="#F7F7F7" transform="matrix(1.00, 0.00, -0.00, -1.00, 313.5, 393.6)">(</text><text xml:space="preserve" font-family="Monaco,Monaco" font-size="33.0" fill="#F7F7F7" transform="matrix(1.00, 0.00, -0.00, -1.00, 333.3, 393.6)">w</text><text xml:space="preserve" font-family="Monaco,Monaco" font-size="33.0" fill="#F7F7F7" transform="matrix(1.00, 0.00, -0.00, -1.00, 353.1, 393.6)">i</text><text xml:space="preserve" font-family="Monaco,Monaco" font-size="33.0" fill="#F7F7F7" transform="matrix(1.00, 0.00, -0.00, -1.00, 372.9, 393.6)">t</text><text xml:space="preserve" font-family="Monaco,Monaco" font-size="33.0" fill="#F7F7F7" transform="matrix(1.00, 0.00, -0.00, -1.00, 392.7, 393.6)">h</text><text xml:space="preserve" font-family="Monaco,Monaco" font-size="33.0" fill="#F7F7F7" transform="matrix(1.00, 0.00, -0.00, -1.00, 412.5, 393.6)">I</text><text xml:space="preserve" font-family="Monaco,Monaco" font-size="33.0" fill="#F7F7F7" transform="matrix(1.00, 0.00, -0.00, -1.00, 432.3, 393.6)">d</text><text xml:space="preserve" font-family="Monaco,Monaco" font-size="33.0" fill="#F7F7F7" transform="matrix(1.00, 0.00, -0.00, -1.00, 452.1, 393.6)">(</text><text xml:space="preserve" font-family="Monaco,Monaco" font-size="33.0" fill="#98CE4F" transform="matrix(1.00, 0.00, -0.00, -1.00, 471.9, 393.6)">R</text><text xml:space="preserve" font-family="Monaco,Monaco" font-size="33.0" fill="#E18964" transform="matrix(1.00, 0.00, -0.00, -1.00, 491.7, 393.6)">.</text><text xml:space="preserve" font-family="Monaco,Monaco" font-size="33.0" fill="#F7F7F7" transform="matrix(1.00, 0.00, -0.00, -1.00, 511.5, 393.6)">i</text><text xml:space="preserve" font-family="Monaco,Monaco" font-size="33.0" fill="#F7F7F7" transform="matrix(1.00, 0.00, -0.00, -1.00, 531.3, 393.6)">d</text><text xml:space="preserve" font-family="Monaco,Monaco" font-size="33.0" fill="#E18964" transform="matrix(1.00, 0.00, -0.00, -1.00, 551.1, 393.6)">.</text><text xml:space="preserve" font-family="Monaco,Monaco" font-size="33.0" fill="#F7F7F7" transform="matrix(1.00, 0.00, -0.00, -1.00, 570.9, 393.6)">g</text><text xml:space="preserve" font-family="Monaco,Monaco" font-size="33.0" fill="#F7F7F7" transform="matrix(1.00, 0.00, -0.00, -1.00, 590.7, 393.6)">r</text><text xml:space="preserve" font-family="Monaco,Monaco" font-size="33.0" fill="#F7F7F7" transform="matrix(1.00, 0.00, -0.00, -1.00, 610.5, 393.6)">e</text><text xml:space="preserve" font-family="Monaco,Monaco" font-size="33.0" fill="#F7F7F7" transform="matrix(1.00, 0.00, -0.00, -1.00, 630.3, 393.6)">e</text><text xml:space="preserve" font-family="Monaco,Monaco" font-size="33.0" fill="#F7F7F7" transform="matrix(1.00, 0.00, -0.00, -1.00, 650.1, 393.6)">t</text><text xml:space="preserve" font-family="Monaco,Monaco" font-size="33.0" fill="#F7F7F7" transform="matrix(1.00, 0.00, -0.00, -1.00, 669.9, 393.6)">_</text><text xml:space="preserve" font-family="Monaco,Monaco" font-size="33.0" fill="#F7F7F7" transform="matrix(1.00, 0.00, -0.00, -1.00, 689.7, 393.6)">b</text><text xml:space="preserve" font-family="Monaco,Monaco" font-size="33.0" fill="#F7F7F7" transform="matrix(1.00, 0.00, -0.00, -1.00, 709.6, 393.6)">u</text><text xml:space="preserve" font-family="Monaco,Monaco" font-size="33.0" fill="#F7F7F7" transform="matrix(1.00, 0.00, -0.00, -1.00, 729.4, 393.6)">t</text><text xml:space="preserve" font-family="Monaco,Monaco" font-size="33.0" fill="#F7F7F7" transform="matrix(1.00, 0.00, -0.00, -1.00, 749.2, 393.6)">t</text><text xml:space="preserve" font-family="Monaco,Monaco" font-size="33.0" fill="#F7F7F7" transform="matrix(1.00, 0.00, -0.00, -1.00, 769.0, 393.6)">o</text><text xml:space="preserve" font-family="Monaco,Monaco" font-size="33.0" fill="#F7F7F7" transform="matrix(1.00, 0.00, -0.00, -1.00, 788.8, 393.6)">n</text><text xml:space="preserve" font-family="Monaco,Monaco" font-size="33.0" fill="#F7F7F7" transform="matrix(1.00, 0.00, -0.00, -1.00, 808.6, 393.6)">)</text><text xml:space="preserve" font-family="Monaco,Monaco" font-size="33.0" fill="#F7F7F7" transform="matrix(1.00, 0.00, -0.00, -1.00, 828.4, 393.6)">)</text><text xml:space="preserve" font-family="Monaco,Monaco" font-size="33.0" fill="#F7F7F7" transform="matrix(1.00, 0.00, -0.00, -1.00, 848.2, 393.6)">	</text><text xml:space="preserve" font-family="Monaco,Monaco" font-size="33.0" fill="#F7F7F7" transform="matrix(1.00, 0.00, -0.00, -1.00, 155.0, 349.6)"> </text><text xml:space="preserve" font-family="Monaco,Monaco" font-size="33.0" fill="#F7F7F7" transform="matrix(1.00, 0.00, -0.00, -1.00, 174.8, 349.6)"> </text><text xml:space="preserve" font-family="Monaco,Monaco" font-size="33.0" fill="#F7F7F7" transform="matrix(1.00, 0.00, -0.00, -1.00, 194.7, 349.6)"> </text><text xml:space="preserve" font-family="Monaco,Monaco" font-size="33.0" fill="#F7F7F7" transform="matrix(1.00, 0.00, -0.00, -1.00, 214.5, 349.6)"> </text><text xml:space="preserve" font-family="Monaco,Monaco" font-size="33.0" fill="#F7F7F7" transform="matrix(1.00, 0.00, -0.00, -1.00, 234.3, 349.6)">.</text><text xml:space="preserve" font-family="Monaco,Monaco" font-size="33.0" fill="#F7F7F7" transform="matrix(1.00, 0.00, -0.00, -1.00, 254.1, 349.6)">p</text><text xml:space="preserve" font-family="Monaco,Monaco" font-size="33.0" fill="#F7F7F7" transform="matrix(1.00, 0.00, -0.00, -1.00, 273.9, 349.6)">e</text><text xml:space="preserve" font-family="Monaco,Monaco" font-size="33.0" fill="#F7F7F7" transform="matrix(1.00, 0.00, -0.00, -1.00, 293.7, 349.6)">r</text><text xml:space="preserve" font-family="Monaco,Monaco" font-size="33.0" fill="#F7F7F7" transform="matrix(1.00, 0.00, -0.00, -1.00, 313.5, 349.6)">f</text><text xml:space="preserve" font-family="Monaco,Monaco" font-size="33.0" fill="#F7F7F7" transform="matrix(1.00, 0.00, -0.00, -1.00, 333.3, 349.6)">o</text><text xml:space="preserve" font-family="Monaco,Monaco" font-size="33.0" fill="#F7F7F7" transform="matrix(1.00, 0.00, -0.00, -1.00, 353.1, 349.6)">r</text><text xml:space="preserve" font-family="Monaco,Monaco" font-size="33.0" fill="#F7F7F7" transform="matrix(1.00, 0.00, -0.00, -1.00, 372.9, 349.6)">m</text><text xml:space="preserve" font-family="Monaco,Monaco" font-size="33.0" fill="#F7F7F7" transform="matrix(1.00, 0.00, -0.00, -1.00, 392.7, 349.6)">(</text><text xml:space="preserve" font-family="Monaco,Monaco" font-size="33.0" fill="#F7F7F7" transform="matrix(1.00, 0.00, -0.00, -1.00, 412.5, 349.6)">c</text><text xml:space="preserve" font-family="Monaco,Monaco" font-size="33.0" fill="#F7F7F7" transform="matrix(1.00, 0.00, -0.00, -1.00, 432.3, 349.6)">l</text><text xml:space="preserve" font-family="Monaco,Monaco" font-size="33.0" fill="#F7F7F7" transform="matrix(1.00, 0.00, -0.00, -1.00, 452.1, 349.6)">i</text><text xml:space="preserve" font-family="Monaco,Monaco" font-size="33.0" fill="#F7F7F7" transform="matrix(1.00, 0.00, -0.00, -1.00, 471.9, 349.6)">c</text><text xml:space="preserve" font-family="Monaco,Monaco" font-size="33.0" fill="#F7F7F7" transform="matrix(1.00, 0.00, -0.00, -1.00, 491.8, 349.6)">k</text><text xml:space="preserve" font-family="Monaco,Monaco" font-size="33.0" fill="#F7F7F7" transform="matrix(1.00, 0.00, -0.00, -1.00, 511.6, 349.6)">(</text><text xml:space="preserve" font-family="Monaco,Monaco" font-size="33.0" fill="#F7F7F7" transform="matrix(1.00, 0.00, -0.00, -1.00, 531.4, 349.6)">)</text><text xml:space="preserve" font-family="Monaco,Monaco" font-size="33.0" fill="#F7F7F7" transform="matrix(1.00, 0.00, -0.00, -1.00, 551.2, 349.6)">)</text><text xml:space="preserve" font-family="Monaco,Monaco" font-size="33.0" fill="#F7F7F7" transform="matrix(1.00, 0.00, -0.00, -1.00, 571.0, 349.6)">;</text><text xml:space="preserve" font-family="Monaco,Monaco" font-size="33.0" fill="#F7F7F7" transform="matrix(1.00, 0.00, -0.00, -1.00, 590.8, 349.6)">	</text><text xml:space="preserve" font-family="Monaco,Monaco" font-size="33.0" fill="#F7F7F7" transform="matrix(1.00, 0.00, -0.00, -1.00, 155.0, 261.6)"> </text><text xml:space="preserve" font-family="Monaco,Monaco" font-size="33.0" fill="#F7F7F7" transform="matrix(1.00, 0.00, -0.00, -1.00, 174.8, 261.6)"> </text><text xml:space="preserve" font-family="Monaco,Monaco" font-size="33.0" fill="#F7F7F7" transform="matrix(1.00, 0.00, -0.00, -1.00, 194.7, 261.6)">o</text><text xml:space="preserve" font-family="Monaco,Monaco" font-size="33.0" fill="#F7F7F7" transform="matrix(1.00, 0.00, -0.00, -1.00, 214.5, 261.6)">n</text><text xml:space="preserve" font-family="Monaco,Monaco" font-size="33.0" fill="#F7F7F7" transform="matrix(1.00, 0.00, -0.00, -1.00, 234.3, 261.6)">V</text><text xml:space="preserve" font-family="Monaco,Monaco" font-size="33.0" fill="#F7F7F7" transform="matrix(1.00, 0.00, -0.00, -1.00, 254.1, 261.6)">i</text><text xml:space="preserve" font-family="Monaco,Monaco" font-size="33.0" fill="#F7F7F7" transform="matrix(1.00, 0.00, -0.00, -1.00, 273.9, 261.6)">e</text><text xml:space="preserve" font-family="Monaco,Monaco" font-size="33.0" fill="#F7F7F7" transform="matrix(1.00, 0.00, -0.00, -1.00, 293.7, 261.6)">w</text><text xml:space="preserve" font-family="Monaco,Monaco" font-size="33.0" fill="#F7F7F7" transform="matrix(1.00, 0.00, -0.00, -1.00, 313.5, 261.6)">(</text><text xml:space="preserve" font-family="Monaco,Monaco" font-size="33.0" fill="#F7F7F7" transform="matrix(1.00, 0.00, -0.00, -1.00, 333.3, 261.6)">w</text><text xml:space="preserve" font-family="Monaco,Monaco" font-size="33.0" fill="#F7F7F7" transform="matrix(1.00, 0.00, -0.00, -1.00, 353.1, 261.6)">i</text><text xml:space="preserve" font-family="Monaco,Monaco" font-size="33.0" fill="#F7F7F7" transform="matrix(1.00, 0.00, -0.00, -1.00, 372.9, 261.6)">t</text><text xml:space="preserve" font-family="Monaco,Monaco" font-size="33.0" fill="#F7F7F7" transform="matrix(1.00, 0.00, -0.00, -1.00, 392.7, 261.6)">h</text><text xml:space="preserve" font-family="Monaco,Monaco" font-size="33.0" fill="#F7F7F7" transform="matrix(1.00, 0.00, -0.00, -1.00, 412.5, 261.6)">T</text><text xml:space="preserve" font-family="Monaco,Monaco" font-size="33.0" fill="#F7F7F7" transform="matrix(1.00, 0.00, -0.00, -1.00, 432.3, 261.6)">e</text><text xml:space="preserve" font-family="Monaco,Monaco" font-size="33.0" fill="#F7F7F7" transform="matrix(1.00, 0.00, -0.00, -1.00, 452.1, 261.6)">x</text><text xml:space="preserve" font-family="Monaco,Monaco" font-size="33.0" fill="#F7F7F7" transform="matrix(1.00, 0.00, -0.00, -1.00, 471.9, 261.6)">t</text><text xml:space="preserve" font-family="Monaco,Monaco" font-size="33.0" fill="#F7F7F7" transform="matrix(1.00, 0.00, -0.00, -1.00, 491.8, 261.6)">(</text><text xml:space="preserve" font-family="Monaco,Monaco" font-size="33.0" fill="#64AF41" transform="matrix(1.00, 0.00, -0.00, -1.00, 511.5, 261.6)">"</text><text xml:space="preserve" font-family="Monaco,Monaco" font-size="33.0" fill="#64AF41" transform="matrix(1.00, 0.00, -0.00, -1.00, 531.3, 261.6)">H</text><text xml:space="preserve" font-family="Monaco,Monaco" font-size="33.0" fill="#64AF41" transform="matrix(1.00, 0.00, -0.00, -1.00, 551.1, 261.6)">e</text><text xml:space="preserve" font-family="Monaco,Monaco" font-size="33.0" fill="#64AF41" transform="matrix(1.00, 0.00, -0.00, -1.00, 570.9, 261.6)">l</text><text xml:space="preserve" font-family="Monaco,Monaco" font-size="33.0" fill="#64AF41" transform="matrix(1.00, 0.00, -0.00, -1.00, 590.7, 261.6)">l</text><text xml:space="preserve" font-family="Monaco,Monaco" font-size="33.0" fill="#64AF41" transform="matrix(1.00, 0.00, -0.00, -1.00, 610.5, 261.6)">o</text><text xml:space="preserve" font-family="Monaco,Monaco" font-size="33.0" fill="#64AF41" transform="matrix(1.00, 0.00, -0.00, -1.00, 630.3, 261.6)"> </text><text xml:space="preserve" font-family="Monaco,Monaco" font-size="33.0" fill="#64AF41" transform="matrix(1.00, 0.00, -0.00, -1.00, 650.1, 261.6)">S</text><text xml:space="preserve" font-family="Monaco,Monaco" font-size="33.0" fill="#64AF41" transform="matrix(1.00, 0.00, -0.00, -1.00, 670.0, 261.6)">t</text><text xml:space="preserve" font-family="Monaco,Monaco" font-size="33.0" fill="#64AF41" transform="matrix(1.00, 0.00, -0.00, -1.00, 689.8, 261.6)">e</text><text xml:space="preserve" font-family="Monaco,Monaco" font-size="33.0" fill="#64AF41" transform="matrix(1.00, 0.00, -0.00, -1.00, 709.6, 261.6)">v</text><text xml:space="preserve" font-family="Monaco,Monaco" font-size="33.0" fill="#64AF41" transform="matrix(1.00, 0.00, -0.00, -1.00, 729.4, 261.6)">e</text><text xml:space="preserve" font-family="Monaco,Monaco" font-size="33.0" fill="#64AF41" transform="matrix(1.00, 0.00, -0.00, -1.00, 749.2, 261.6)">!</text><text xml:space="preserve" font-family="Monaco,Monaco" font-size="33.0" fill="#64AF41" transform="matrix(1.00, 0.00, -0.00, -1.00, 769.0, 261.6)">"</text><text xml:space="preserve" font-family="Monaco,Monaco" font-size="33.0" fill="#F7F7F7" transform="matrix(1.00, 0.00, -0.00, -1.00, 788.7, 261.6)">)</text><text xml:space="preserve" font-family="Monaco,Monaco" font-size="33.0" fill="#F7F7F7" transform="matrix(1.00, 0.00, -0.00, -1.00, 808.6, 261.6)">)</text><text xml:space="preserve" font-family="Monaco,Monaco" font-size="33.0" fill="#F7F7F7" transform="matrix(1.00, 0.00, -0.00, -1.00, 828.4, 261.6)">	</text><text xml:space="preserve" font-family="Monaco,Monaco" font-size="33.0" fill="#F7F7F7" transform="matrix(1.00, 0.00, -0.00, -1.00, 155.0, 217.6)"> </text><text xml:space="preserve" font-family="Monaco,Monaco" font-size="33.0" fill="#F7F7F7" transform="matrix(1.00, 0.00, -0.00, -1.00, 174.8, 217.6)"> </text><text xml:space="preserve" font-family="Monaco,Monaco" font-size="33.0" fill="#F7F7F7" transform="matrix(1.00, 0.00, -0.00, -1.00, 194.7, 217.6)"> </text><text xml:space="preserve" font-family="Monaco,Monaco" font-size="33.0" fill="#F7F7F7" transform="matrix(1.00, 0.00, -0.00, -1.00, 214.5, 217.6)"> </text><text xml:space="preserve" font-family="Monaco,Monaco" font-size="33.0" fill="#F7F7F7" transform="matrix(1.00, 0.00, -0.00, -1.00, 234.3, 217.6)">.</text><text xml:space="preserve" font-family="Monaco,Monaco" font-size="33.0" fill="#F7F7F7" transform="matrix(1.00, 0.00, -0.00, -1.00, 254.1, 217.6)">c</text><text xml:space="preserve" font-family="Monaco,Monaco" font-size="33.0" fill="#F7F7F7" transform="matrix(1.00, 0.00, -0.00, -1.00, 273.9, 217.6)">h</text><text xml:space="preserve" font-family="Monaco,Monaco" font-size="33.0" fill="#F7F7F7" transform="matrix(1.00, 0.00, -0.00, -1.00, 293.7, 217.6)">e</text><text xml:space="preserve" font-family="Monaco,Monaco" font-size="33.0" fill="#F7F7F7" transform="matrix(1.00, 0.00, -0.00, -1.00, 313.5, 217.6)">c</text><text xml:space="preserve" font-family="Monaco,Monaco" font-size="33.0" fill="#F7F7F7" transform="matrix(1.00, 0.00, -0.00, -1.00, 333.3, 217.6)">k</text><text xml:space="preserve" font-family="Monaco,Monaco" font-size="33.0" fill="#F7F7F7" transform="matrix(1.00, 0.00, -0.00, -1.00, 353.1, 217.6)">(</text><text xml:space="preserve" font-family="Monaco,Monaco" font-size="33.0" fill="#F7F7F7" transform="matrix(1.00, 0.00, -0.00, -1.00, 372.9, 217.6)">m</text><text xml:space="preserve" font-family="Monaco,Monaco" font-size="33.0" fill="#F7F7F7" transform="matrix(1.00, 0.00, -0.00, -1.00, 392.7, 217.6)">a</text><text xml:space="preserve" font-family="Monaco,Monaco" font-size="33.0" fill="#F7F7F7" transform="matrix(1.00, 0.00, -0.00, -1.00, 412.5, 217.6)">t</text><text xml:space="preserve" font-family="Monaco,Monaco" font-size="33.0" fill="#F7F7F7" transform="matrix(1.00, 0.00, -0.00, -1.00, 432.3, 217.6)">c</text><text xml:space="preserve" font-family="Monaco,Monaco" font-size="33.0" fill="#F7F7F7" transform="matrix(1.00, 0.00, -0.00, -1.00, 452.1, 217.6)">h</text><text xml:space="preserve" font-family="Monaco,Monaco" font-size="33.0" fill="#F7F7F7" transform="matrix(1.00, 0.00, -0.00, -1.00, 471.9, 217.6)">e</text><text xml:space="preserve" font-family="Monaco,Monaco" font-size="33.0" fill="#F7F7F7" transform="matrix(1.00, 0.00, -0.00, -1.00, 491.8, 217.6)">s</text><text xml:space="preserve" font-family="Monaco,Monaco" font-size="33.0" fill="#F7F7F7" transform="matrix(1.00, 0.00, -0.00, -1.00, 511.6, 217.6)">(</text><text xml:space="preserve" font-family="Monaco,Monaco" font-size="33.0" fill="#F7F7F7" transform="matrix(1.00, 0.00, -0.00, -1.00, 531.4, 217.6)">i</text><text xml:space="preserve" font-family="Monaco,Monaco" font-size="33.0" fill="#F7F7F7" transform="matrix(1.00, 0.00, -0.00, -1.00, 551.2, 217.6)">s</text><text xml:space="preserve" font-family="Monaco,Monaco" font-size="33.0" fill="#F7F7F7" transform="matrix(1.00, 0.00, -0.00, -1.00, 571.0, 217.6)">D</text><text xml:space="preserve" font-family="Monaco,Monaco" font-size="33.0" fill="#F7F7F7" transform="matrix(1.00, 0.00, -0.00, -1.00, 590.8, 217.6)">i</text><text xml:space="preserve" font-family="Monaco,Monaco" font-size="33.0" fill="#F7F7F7" transform="matrix(1.00, 0.00, -0.00, -1.00, 610.6, 217.6)">s</text><text xml:space="preserve" font-family="Monaco,Monaco" font-size="33.0" fill="#F7F7F7" transform="matrix(1.00, 0.00, -0.00, -1.00, 630.4, 217.6)">p</text><text xml:space="preserve" font-family="Monaco,Monaco" font-size="33.0" fill="#F7F7F7" transform="matrix(1.00, 0.00, -0.00, -1.00, 650.2, 217.6)">l</text><text xml:space="preserve" font-family="Monaco,Monaco" font-size="33.0" fill="#F7F7F7" transform="matrix(1.00, 0.00, -0.00, -1.00, 670.0, 217.6)">a</text><text xml:space="preserve" font-family="Monaco,Monaco" font-size="33.0" fill="#F7F7F7" transform="matrix(1.00, 0.00, -0.00, -1.00, 689.8, 217.6)">y</text><text xml:space="preserve" font-family="Monaco,Monaco" font-size="33.0" fill="#F7F7F7" transform="matrix(1.00, 0.00, -0.00, -1.00, 709.6, 217.6)">e</text><text xml:space="preserve" font-family="Monaco,Monaco" font-size="33.0" fill="#F7F7F7" transform="matrix(1.00, 0.00, -0.00, -1.00, 729.4, 217.6)">d</text><text xml:space="preserve" font-family="Monaco,Monaco" font-size="33.0" fill="#F7F7F7" transform="matrix(1.00, 0.00, -0.00, -1.00, 749.2, 217.6)">(</text><text xml:space="preserve" font-family="Monaco,Monaco" font-size="33.0" fill="#F7F7F7" transform="matrix(1.00, 0.00, -0.00, -1.00, 769.0, 217.6)">)</text><text xml:space="preserve" font-family="Monaco,Monaco" font-size="33.0" fill="#F7F7F7" transform="matrix(1.00, 0.00, -0.00, -1.00, 788.9, 217.6)">)</text><text xml:space="preserve" font-family="Monaco,Monaco" font-size="33.0" fill="#F7F7F7" transform="matrix(1.00, 0.00, -0.00, -1.00, 808.7, 217.6)">)</text><text xml:space="preserve" font-family="Monaco,Monaco" font-size="33.0" fill="#F7F7F7" transform="matrix(1.00, 0.00, -0.00, -1.00, 828.5, 217.6)">;</text><text xml:space="preserve" font-family="Monaco,Monaco" font-size="33.0" fill="#F7F7F7" transform="matrix(1.00, 0.00, -0.00, -1.00, 848.3, 217.6)">	</text><text xml:space="preserve" font-family="Monaco,Monaco" font-size="33.0" fill="#F7F7F7" transform="matrix(1.00, 0.00, -0.00, -1.00, 155.0, 173.6)">}</text></g></svg>