<?xml version="1.0" encoding="UTF-8" standalone="no"?><svg xmlns="http://www.w3.org/2000/svg" xmlns:xlink="http://www.w3.org/1999/xlink" clip-rule="evenodd" stroke-miterlimit="10" viewBox="0 0 1024 768"><desc>SVG generated by Keynote</desc><defs></defs><g transform="matrix(1.00, 0.00, -0.00, -1.00, 0.0, 768.0)"><g><clipPath id="clip0x608000ca1140"><path d="M 0.0 768.0 L 1024.0 768.0 L 1024.0 0.0 L 0.0 0.0 Z M 0.0 768.0 "></path></clipPath><g clip-path="url(#clip0x608000ca1140)"><image xlink:href="../../073872A3-6B4A-4DBD-B237-E9D6C1798DA3/assets/9397CAD6F20342ACC2646ABBCA758461.jpeg" width="2048.00" height="1536.00" transform="matrix(0.50, 0.00, -0.00, -0.50, 0.0, 768.0)"></image></g></g><image xlink:href="0332557AC716F55A2F1687D7B939FFD9.png" width="255.00" height="71.00" transform="matrix(1.00, 0.00, -0.00, -1.00, 384.0, 691.0)"></image><text xml:space="preserve" font-family="LucidaGrande-Bold,Lucida Grande" font-weight="bold" font-size="64.0" fill="#FEFFFE" transform="matrix(1.00, 0.00, -0.00, -1.00, 387.5, 639.5)">A</text><text xml:space="preserve" font-family="LucidaGrande-Bold,Lucida Grande" font-weight="bold" font-size="64.0" fill="#FEFFFE" transform="matrix(1.00, 0.00, -0.00, -1.00, 434.7, 639.5)">g</text><text xml:space="preserve" font-family="LucidaGrande-Bold,Lucida Grande" font-weight="bold" font-size="64.0" fill="#FEFFFE" transform="matrix(1.00, 0.00, -0.00, -1.00, 476.9, 639.5)">e</text><text xml:space="preserve" font-family="LucidaGrande-Bold,Lucida Grande" font-weight="bold" font-size="64.0" fill="#FEFFFE" transform="matrix(1.00, 0.00, -0.00, -1.00, 514.4, 639.5)">n</text><text xml:space="preserve" font-family="LucidaGrande-Bold,Lucida Grande" font-weight="bold" font-size="64.0" fill="#FEFFFE" transform="matrix(1.00, 0.00, -0.00, -1.00, 556.4, 639.5)">d</text><text xml:space="preserve" font-family="LucidaGrande-Bold,Lucida Grande" font-weight="bold" font-size="64.0" fill="#FEFFFE" transform="matrix(1.00, 0.00, -0.00, -1.00, 598.7, 639.5)">a</text><image xlink:href="F4B260E745D0AA40D3A009BB67394555.png" width="17.00" height="17.00" transform="matrix(1.00, 0.00, -0.00, -1.00, 225.0, 555.0)"></image><text xml:space="preserve" font-family="LucidaGrande,Lucida Grande" font-size="22.9" fill="#EAEAEA" transform="matrix(1.00, 0.00, -0.00, -1.00, 227.3, 541.8)">•</text><image xlink:href="B03CFB95A6FFBA774ECD88661F787557.png" width="174.00" height="32.00" transform="matrix(1.00, 0.00, -0.00, -1.00, 252.0, 564.0)"></image><text xml:space="preserve" font-family="LucidaGrande,Lucida Grande" font-size="30.6" fill="#EAEAEA" transform="matrix(1.00, 0.00, -0.00, -1.00, 256.1, 539.0)">T</text><text xml:space="preserve" font-family="LucidaGrande,Lucida Grande" font-size="30.6" fill="#EAEAEA" transform="matrix(1.00, 0.00, -0.00, -1.00, 275.5, 539.0)">e</text><text xml:space="preserve" font-family="LucidaGrande,Lucida Grande" font-size="30.6" fill="#EAEAEA" transform="matrix(1.00, 0.00, -0.00, -1.00, 292.5, 539.0)">s</text><text xml:space="preserve" font-family="LucidaGrande,Lucida Grande" font-size="30.6" fill="#EAEAEA" transform="matrix(1.00, 0.00, -0.00, -1.00, 308.1, 539.0)">t</text><text xml:space="preserve" font-family="LucidaGrande,Lucida Grande" font-size="30.6" fill="#EAEAEA" transform="matrix(1.00, 0.00, -0.00, -1.00, 319.6, 539.0)">o</text><text xml:space="preserve" font-family="LucidaGrande,Lucida Grande" font-size="30.6" fill="#EAEAEA" transform="matrix(1.00, 0.00, -0.00, -1.00, 338.4, 539.0)">w</text><text xml:space="preserve" font-family="LucidaGrande,Lucida Grande" font-size="30.6" fill="#EAEAEA" transform="matrix(1.00, 0.00, -0.00, -1.00, 361.9, 539.0)">a</text><text xml:space="preserve" font-family="LucidaGrande,Lucida Grande" font-size="30.6" fill="#EAEAEA" transform="matrix(1.00, 0.00, -0.00, -1.00, 378.9, 539.0)">n</text><text xml:space="preserve" font-family="LucidaGrande,Lucida Grande" font-size="30.6" fill="#EAEAEA" transform="matrix(1.00, 0.00, -0.00, -1.00, 397.8, 539.0)">i</text><text xml:space="preserve" font-family="LucidaGrande,Lucida Grande" font-size="30.6" fill="#EAEAEA" transform="matrix(1.00, 0.00, -0.00, -1.00, 406.7, 539.0)">e</text><text xml:space="preserve" font-family="LucidaGrande,Lucida Grande" font-size="30.6" fill="#EAEAEA" transform="matrix(1.00, 0.00, -0.00, -1.00, 423.7, 539.0)"></text><image xlink:href="1ABDB30D4AAA79F05531E39F104104FC.png" width="17.00" height="17.00" transform="matrix(1.00, 0.00, -0.00, -1.00, 225.0, 499.0)"></image><text xml:space="preserve" font-family="LucidaGrande,Lucida Grande" font-size="22.9" fill="#EAEAEA" transform="matrix(1.00, 0.00, -0.00, -1.00, 227.3, 486.0)">•</text><image xlink:href="6D6818164DE7581E11D895E138A64077.png" width="421.00" height="39.00" transform="matrix(1.00, 0.00, -0.00, -1.00, 252.0, 509.0)"></image><text xml:space="preserve" font-family="LucidaGrande,Lucida Grande" font-size="30.6" fill="#EAEAEA" transform="matrix(1.00, 0.00, -0.00, -1.00, 256.1, 483.2)">A</text><text xml:space="preserve" font-family="LucidaGrande,Lucida Grande" font-size="30.6" fill="#EAEAEA" transform="matrix(1.00, 0.00, -0.00, -1.00, 277.2, 483.2)">n</text><text xml:space="preserve" font-family="LucidaGrande,Lucida Grande" font-size="30.6" fill="#EAEAEA" transform="matrix(1.00, 0.00, -0.00, -1.00, 296.2, 483.2)">d</text><text xml:space="preserve" font-family="LucidaGrande,Lucida Grande" font-size="30.6" fill="#EAEAEA" transform="matrix(1.00, 0.00, -0.00, -1.00, 315.5, 483.2)">r</text><text xml:space="preserve" font-family="LucidaGrande,Lucida Grande" font-size="30.6" fill="#EAEAEA" transform="matrix(1.00, 0.00, -0.00, -1.00, 328.0, 483.2)">o</text><text xml:space="preserve" font-family="LucidaGrande,Lucida Grande" font-size="30.6" fill="#EAEAEA" transform="matrix(1.00, 0.00, -0.00, -1.00, 346.8, 483.2)">i</text><text xml:space="preserve" font-family="LucidaGrande,Lucida Grande" font-size="30.6" fill="#EAEAEA" transform="matrix(1.00, 0.00, -0.00, -1.00, 355.7, 483.2)">d</text><text xml:space="preserve" font-family="LucidaGrande,Lucida Grande" font-size="30.6" fill="#EAEAEA" transform="matrix(1.00, 0.00, -0.00, -1.00, 374.9, 483.2)"> </text><text xml:space="preserve" font-family="LucidaGrande,Lucida Grande" font-size="30.6" fill="#EAEAEA" transform="matrix(1.00, 0.00, -0.00, -1.00, 384.6, 483.2)">T</text><text xml:space="preserve" font-family="LucidaGrande,Lucida Grande" font-size="30.6" fill="#EAEAEA" transform="matrix(1.00, 0.00, -0.00, -1.00, 404.0, 483.2)">e</text><text xml:space="preserve" font-family="LucidaGrande,Lucida Grande" font-size="30.6" fill="#EAEAEA" transform="matrix(1.00, 0.00, -0.00, -1.00, 421.0, 483.2)">s</text><text xml:space="preserve" font-family="LucidaGrande,Lucida Grande" font-size="30.6" fill="#EAEAEA" transform="matrix(1.00, 0.00, -0.00, -1.00, 436.6, 483.2)">t</text><text xml:space="preserve" font-family="LucidaGrande,Lucida Grande" font-size="30.6" fill="#EAEAEA" transform="matrix(1.00, 0.00, -0.00, -1.00, 448.1, 483.2)">i</text><text xml:space="preserve" font-family="LucidaGrande,Lucida Grande" font-size="30.6" fill="#EAEAEA" transform="matrix(1.00, 0.00, -0.00, -1.00, 456.9, 483.2)">n</text><text xml:space="preserve" font-family="LucidaGrande,Lucida Grande" font-size="30.6" fill="#EAEAEA" transform="matrix(1.00, 0.00, -0.00, -1.00, 475.9, 483.2)">g</text><text xml:space="preserve" font-family="LucidaGrande,Lucida Grande" font-size="30.6" fill="#EAEAEA" transform="matrix(1.00, 0.00, -0.00, -1.00, 495.0, 483.2)"> </text><text xml:space="preserve" font-family="LucidaGrande,Lucida Grande" font-size="30.6" fill="#EAEAEA" transform="matrix(1.00, 0.00, -0.00, -1.00, 504.7, 483.2)">F</text><text xml:space="preserve" font-family="LucidaGrande,Lucida Grande" font-size="30.6" fill="#EAEAEA" transform="matrix(1.00, 0.00, -0.00, -1.00, 521.1, 483.2)">r</text><text xml:space="preserve" font-family="LucidaGrande,Lucida Grande" font-size="30.6" fill="#EAEAEA" transform="matrix(1.00, 0.00, -0.00, -1.00, 533.6, 483.2)">a</text><text xml:space="preserve" font-family="LucidaGrande,Lucida Grande" font-size="30.6" fill="#EAEAEA" transform="matrix(1.00, 0.00, -0.00, -1.00, 550.5, 483.2)">m</text><text xml:space="preserve" font-family="LucidaGrande,Lucida Grande" font-size="30.6" fill="#EAEAEA" transform="matrix(1.00, 0.00, -0.00, -1.00, 579.1, 483.2)">e</text><text xml:space="preserve" font-family="LucidaGrande,Lucida Grande" font-size="30.6" fill="#EAEAEA" transform="matrix(1.00, 0.00, -0.00, -1.00, 596.1, 483.2)">w</text><text xml:space="preserve" font-family="LucidaGrande,Lucida Grande" font-size="30.6" fill="#EAEAEA" transform="matrix(1.00, 0.00, -0.00, -1.00, 619.7, 483.2)">o</text><text xml:space="preserve" font-family="LucidaGrande,Lucida Grande" font-size="30.6" fill="#EAEAEA" transform="matrix(1.00, 0.00, -0.00, -1.00, 638.5, 483.2)">r</text><text xml:space="preserve" font-family="LucidaGrande,Lucida Grande" font-size="30.6" fill="#EAEAEA" transform="matrix(1.00, 0.00, -0.00, -1.00, 651.0, 483.2)">k</text><text xml:space="preserve" font-family="LucidaGrande,Lucida Grande" font-size="30.6" fill="#EAEAEA" transform="matrix(1.00, 0.00, -0.00, -1.00, 668.9, 483.2)"></text><image xlink:href="81771E2DCB1119DA26AC66A6E1523621.png" width="17.00" height="17.00" transform="matrix(1.00, 0.00, -0.00, -1.00, 225.0, 443.0)"></image><text xml:space="preserve" font-family="LucidaGrande,Lucida Grande" font-size="22.9" fill="#EAEAEA" transform="matrix(1.00, 0.00, -0.00, -1.00, 227.3, 430.2)">•</text><image xlink:href="8BE52BD925D7482135D2DC4733E5D657.png" width="148.00" height="33.00" transform="matrix(1.00, 0.00, -0.00, -1.00, 254.0, 453.0)"></image><text xml:space="preserve" font-family="LucidaGrande,Lucida Grande" font-size="30.6" fill="#EAEAEA" transform="matrix(1.00, 0.00, -0.00, -1.00, 256.1, 427.4)">R</text><text xml:space="preserve" font-family="LucidaGrande,Lucida Grande" font-size="30.6" fill="#EAEAEA" transform="matrix(1.00, 0.00, -0.00, -1.00, 275.5, 427.4)">o</text><text xml:space="preserve" font-family="LucidaGrande,Lucida Grande" font-size="30.6" fill="#EAEAEA" transform="matrix(1.00, 0.00, -0.00, -1.00, 294.3, 427.4)">b</text><text xml:space="preserve" font-family="LucidaGrande,Lucida Grande" font-size="30.6" fill="#EAEAEA" transform="matrix(1.00, 0.00, -0.00, -1.00, 313.6, 427.4)">o</text><text xml:space="preserve" font-family="LucidaGrande,Lucida Grande" font-size="30.6" fill="#EAEAEA" transform="matrix(1.00, 0.00, -0.00, -1.00, 332.4, 427.4)">t</text><text xml:space="preserve" font-family="LucidaGrande,Lucida Grande" font-size="30.6" fill="#EAEAEA" transform="matrix(1.00, 0.00, -0.00, -1.00, 343.8, 427.4)">i</text><text xml:space="preserve" font-family="LucidaGrande,Lucida Grande" font-size="30.6" fill="#EAEAEA" transform="matrix(1.00, 0.00, -0.00, -1.00, 352.7, 427.4)">u</text><text xml:space="preserve" font-family="LucidaGrande,Lucida Grande" font-size="30.6" fill="#EAEAEA" transform="matrix(1.00, 0.00, -0.00, -1.00, 371.6, 427.4)">m</text><text xml:space="preserve" font-family="LucidaGrande,Lucida Grande" font-size="30.6" fill="#EAEAEA" transform="matrix(1.00, 0.00, -0.00, -1.00, 400.2, 427.4)"></text><image xlink:href="AFC47169156782C7ED5CEEBF4EE6BAD2.png" width="17.00" height="17.00" transform="matrix(1.00, 0.00, -0.00, -1.00, 225.0, 388.0)"></image><text xml:space="preserve" font-family="LucidaGrande,Lucida Grande" font-size="22.9" fill="#EAEAEA" transform="matrix(1.00, 0.00, -0.00, -1.00, 227.3, 374.4)">•</text><image xlink:href="F3749EDEF0DBA06867924C9AFAB4FE0A.png" width="136.00" height="37.00" transform="matrix(1.00, 0.00, -0.00, -1.00, 254.0, 396.0)"></image><text xml:space="preserve" font-family="LucidaGrande,Lucida Grande" font-size="30.6" fill="#EAEAEA" transform="matrix(1.00, 0.00, -0.00, -1.00, 256.1, 371.6)">E</text><text xml:space="preserve" font-family="LucidaGrande,Lucida Grande" font-size="30.6" fill="#EAEAEA" transform="matrix(1.00, 0.00, -0.00, -1.00, 272.7, 371.6)">s</text><text xml:space="preserve" font-family="LucidaGrande,Lucida Grande" font-size="30.6" fill="#EAEAEA" transform="matrix(1.00, 0.00, -0.00, -1.00, 288.3, 371.6)">p</text><text xml:space="preserve" font-family="LucidaGrande,Lucida Grande" font-size="30.6" fill="#EAEAEA" transform="matrix(1.00, 0.00, -0.00, -1.00, 307.6, 371.6)">r</text><text xml:space="preserve" font-family="LucidaGrande,Lucida Grande" font-size="30.6" fill="#EAEAEA" transform="matrix(1.00, 0.00, -0.00, -1.00, 320.1, 371.6)">e</text><text xml:space="preserve" font-family="LucidaGrande,Lucida Grande" font-size="30.6" fill="#EAEAEA" transform="matrix(1.00, 0.00, -0.00, -1.00, 337.2, 371.6)">s</text><text xml:space="preserve" font-family="LucidaGrande,Lucida Grande" font-size="30.6" fill="#EAEAEA" transform="matrix(1.00, 0.00, -0.00, -1.00, 352.8, 371.6)">s</text><text xml:space="preserve" font-family="LucidaGrande,Lucida Grande" font-size="30.6" fill="#EAEAEA" transform="matrix(1.00, 0.00, -0.00, -1.00, 368.3, 371.6)">o</text><text xml:space="preserve" font-family="LucidaGrande,Lucida Grande" font-size="30.6" fill="#EAEAEA" transform="matrix(1.00, 0.00, -0.00, -1.00, 387.1, 371.6)"></text><image xlink:href="6CFF2E38B1440BCDA5562143156F4DBC.png" width="17.00" height="17.00" transform="matrix(1.00, 0.00, -0.00, -1.00, 225.0, 332.0)"></image><text xml:space="preserve" font-family="LucidaGrande,Lucida Grande" font-size="22.9" fill="#EAEAEA" transform="matrix(1.00, 0.00, -0.00, -1.00, 227.3, 318.6)">•</text><image xlink:href="0CBF0CD9BD39353BA1076E57A545D3D0.png" width="123.00" height="39.00" transform="matrix(1.00, 0.00, -0.00, -1.00, 255.0, 342.0)"></image><text xml:space="preserve" font-family="LucidaGrande,Lucida Grande" font-size="30.6" fill="#EAEAEA" transform="matrix(1.00, 0.00, -0.00, -1.00, 256.1, 315.8)">m</text><text xml:space="preserve" font-family="LucidaGrande,Lucida Grande" font-size="30.6" fill="#EAEAEA" transform="matrix(1.00, 0.00, -0.00, -1.00, 284.7, 315.8)">o</text><text xml:space="preserve" font-family="LucidaGrande,Lucida Grande" font-size="30.6" fill="#EAEAEA" transform="matrix(1.00, 0.00, -0.00, -1.00, 303.5, 315.8)">n</text><text xml:space="preserve" font-family="LucidaGrande,Lucida Grande" font-size="30.6" fill="#EAEAEA" transform="matrix(1.00, 0.00, -0.00, -1.00, 322.5, 315.8)">k</text><text xml:space="preserve" font-family="LucidaGrande,Lucida Grande" font-size="30.6" fill="#EAEAEA" transform="matrix(1.00, 0.00, -0.00, -1.00, 340.4, 315.8)">e</text><text xml:space="preserve" font-family="LucidaGrande,Lucida Grande" font-size="30.6" fill="#EAEAEA" transform="matrix(1.00, 0.00, -0.00, -1.00, 357.5, 315.8)">y</text><text xml:space="preserve" font-family="LucidaGrande,Lucida Grande" font-size="30.6" fill="#EAEAEA" transform="matrix(1.00, 0.00, -0.00, -1.00, 373.5, 315.8)"></text><image xlink:href="../../073872A3-6B4A-4DBD-B237-E9D6C1798DA3/assets/F4B260E745D0AA40D3A009BB67394555.png" width="17.00" height="17.00" transform="matrix(1.00, 0.00, -0.00, -1.00, 225.0, 276.0)"></image><text xml:space="preserve" font-family="LucidaGrande,Lucida Grande" font-size="22.9" fill="#EAEAEA" transform="matrix(1.00, 0.00, -0.00, -1.00, 227.3, 262.8)">•</text><image xlink:href="B74F62243E7FC6DA71B5BF3C6C012641.png" width="221.00" height="38.00" transform="matrix(1.00, 0.00, -0.00, -1.00, 255.0, 286.0)"></image><text xml:space="preserve" font-family="LucidaGrande,Lucida Grande" font-size="30.6" fill="#EAEAEA" transform="matrix(1.00, 0.00, -0.00, -1.00, 256.1, 260.0)">m</text><text xml:space="preserve" font-family="LucidaGrande,Lucida Grande" font-size="30.6" fill="#EAEAEA" transform="matrix(1.00, 0.00, -0.00, -1.00, 284.7, 260.0)">o</text><text xml:space="preserve" font-family="LucidaGrande,Lucida Grande" font-size="30.6" fill="#EAEAEA" transform="matrix(1.00, 0.00, -0.00, -1.00, 303.5, 260.0)">n</text><text xml:space="preserve" font-family="LucidaGrande,Lucida Grande" font-size="30.6" fill="#EAEAEA" transform="matrix(1.00, 0.00, -0.00, -1.00, 322.5, 260.0)">k</text><text xml:space="preserve" font-family="LucidaGrande,Lucida Grande" font-size="30.6" fill="#EAEAEA" transform="matrix(1.00, 0.00, -0.00, -1.00, 340.4, 260.0)">e</text><text xml:space="preserve" font-family="LucidaGrande,Lucida Grande" font-size="30.6" fill="#EAEAEA" transform="matrix(1.00, 0.00, -0.00, -1.00, 357.5, 260.0)">y</text><text xml:space="preserve" font-family="LucidaGrande,Lucida Grande" font-size="30.6" fill="#EAEAEA" transform="matrix(1.00, 0.00, -0.00, -1.00, 373.5, 260.0)">r</text><text xml:space="preserve" font-family="LucidaGrande,Lucida Grande" font-size="30.6" fill="#EAEAEA" transform="matrix(1.00, 0.00, -0.00, -1.00, 386.0, 260.0)">u</text><text xml:space="preserve" font-family="LucidaGrande,Lucida Grande" font-size="30.6" fill="#EAEAEA" transform="matrix(1.00, 0.00, -0.00, -1.00, 405.0, 260.0)">n</text><text xml:space="preserve" font-family="LucidaGrande,Lucida Grande" font-size="30.6" fill="#EAEAEA" transform="matrix(1.00, 0.00, -0.00, -1.00, 424.0, 260.0)">n</text><text xml:space="preserve" font-family="LucidaGrande,Lucida Grande" font-size="30.6" fill="#EAEAEA" transform="matrix(1.00, 0.00, -0.00, -1.00, 442.9, 260.0)">e</text><text xml:space="preserve" font-family="LucidaGrande,Lucida Grande" font-size="30.6" fill="#EAEAEA" transform="matrix(1.00, 0.00, -0.00, -1.00, 460.0, 260.0)">r</text><text xml:space="preserve" font-family="LucidaGrande,Lucida Grande" font-size="30.6" fill="#EAEAEA" transform="matrix(1.00, 0.00, -0.00, -1.00, 472.5, 260.0)"></text><image xlink:href="../../073872A3-6B4A-4DBD-B237-E9D6C1798DA3/assets/1ABDB30D4AAA79F05531E39F104104FC.png" width="17.00" height="17.00" transform="matrix(1.00, 0.00, -0.00, -1.00, 225.0, 220.0)"></image><text xml:space="preserve" font-family="LucidaGrande,Lucida Grande" font-size="22.9" fill="#EAEAEA" transform="matrix(1.00, 0.00, -0.00, -1.00, 227.3, 207.0)">•</text><image xlink:href="88CD23DB9C32F047CF62D0DFC5AEC4AB.png" width="195.00" height="32.00" transform="matrix(1.00, 0.00, -0.00, -1.00, 254.0, 229.0)"></image><text xml:space="preserve" font-family="LucidaGrande,Lucida Grande" font-size="30.6" fill="#EAEAEA" transform="matrix(1.00, 0.00, -0.00, -1.00, 256.1, 204.2)">U</text><text xml:space="preserve" font-family="LucidaGrande,Lucida Grande" font-size="30.6" fill="#EAEAEA" transform="matrix(1.00, 0.00, -0.00, -1.00, 277.3, 204.2)">I</text><text xml:space="preserve" font-family="LucidaGrande,Lucida Grande" font-size="30.6" fill="#EAEAEA" transform="matrix(1.00, 0.00, -0.00, -1.00, 286.2, 204.2)">A</text><text xml:space="preserve" font-family="LucidaGrande,Lucida Grande" font-size="30.6" fill="#EAEAEA" transform="matrix(1.00, 0.00, -0.00, -1.00, 307.3, 204.2)">u</text><text xml:space="preserve" font-family="LucidaGrande,Lucida Grande" font-size="30.6" fill="#EAEAEA" transform="matrix(1.00, 0.00, -0.00, -1.00, 326.2, 204.2)">t</text><text xml:space="preserve" font-family="LucidaGrande,Lucida Grande" font-size="30.6" fill="#EAEAEA" transform="matrix(1.00, 0.00, -0.00, -1.00, 337.7, 204.2)">o</text><text xml:space="preserve" font-family="LucidaGrande,Lucida Grande" font-size="30.6" fill="#EAEAEA" transform="matrix(1.00, 0.00, -0.00, -1.00, 356.5, 204.2)">m</text><text xml:space="preserve" font-family="LucidaGrande,Lucida Grande" font-size="30.6" fill="#EAEAEA" transform="matrix(1.00, 0.00, -0.00, -1.00, 385.0, 204.2)">a</text><text xml:space="preserve" font-family="LucidaGrande,Lucida Grande" font-size="30.6" fill="#EAEAEA" transform="matrix(1.00, 0.00, -0.00, -1.00, 401.9, 204.2)">t</text><text xml:space="preserve" font-family="LucidaGrande,Lucida Grande" font-size="30.6" fill="#EAEAEA" transform="matrix(1.00, 0.00, -0.00, -1.00, 413.4, 204.2)">o</text><text xml:space="preserve" font-family="LucidaGrande,Lucida Grande" font-size="30.6" fill="#EAEAEA" transform="matrix(1.00, 0.00, -0.00, -1.00, 432.2, 204.2)">r</text><text xml:space="preserve" font-family="LucidaGrande,Lucida Grande" font-size="30.6" fill="#EAEAEA" transform="matrix(1.00, 0.00, -0.00, -1.00, 444.7, 204.2)"></text><image xlink:href="../../073872A3-6B4A-4DBD-B237-E9D6C1798DA3/assets/81771E2DCB1119DA26AC66A6E1523621.png" width="17.00" height="17.00" transform="matrix(1.00, 0.00, -0.00, -1.00, 225.0, 164.0)"></image><text xml:space="preserve" font-family="LucidaGrande,Lucida Grande" font-size="22.9" fill="#EAEAEA" transform="matrix(1.00, 0.00, -0.00, -1.00, 227.3, 151.2)">•</text><image xlink:href="FF5399274B9067BF4D14C713618B97FA.png" width="171.00" height="33.00" transform="matrix(1.00, 0.00, -0.00, -1.00, 254.0, 174.0)"></image><text xml:space="preserve" font-family="LucidaGrande,Lucida Grande" font-size="30.6" fill="#EAEAEA" transform="matrix(1.00, 0.00, -0.00, -1.00, 256.1, 148.4)">R</text><text xml:space="preserve" font-family="LucidaGrande,Lucida Grande" font-size="30.6" fill="#EAEAEA" transform="matrix(1.00, 0.00, -0.00, -1.00, 275.5, 148.4)">o</text><text xml:space="preserve" font-family="LucidaGrande,Lucida Grande" font-size="30.6" fill="#EAEAEA" transform="matrix(1.00, 0.00, -0.00, -1.00, 294.3, 148.4)">b</text><text xml:space="preserve" font-family="LucidaGrande,Lucida Grande" font-size="30.6" fill="#EAEAEA" transform="matrix(1.00, 0.00, -0.00, -1.00, 313.6, 148.4)">o</text><text xml:space="preserve" font-family="LucidaGrande,Lucida Grande" font-size="30.6" fill="#EAEAEA" transform="matrix(1.00, 0.00, -0.00, -1.00, 332.4, 148.4)">l</text><text xml:space="preserve" font-family="LucidaGrande,Lucida Grande" font-size="30.6" fill="#EAEAEA" transform="matrix(1.00, 0.00, -0.00, -1.00, 341.2, 148.4)">e</text><text xml:space="preserve" font-family="LucidaGrande,Lucida Grande" font-size="30.6" fill="#EAEAEA" transform="matrix(1.00, 0.00, -0.00, -1.00, 358.3, 148.4)">c</text><text xml:space="preserve" font-family="LucidaGrande,Lucida Grande" font-size="30.6" fill="#EAEAEA" transform="matrix(1.00, 0.00, -0.00, -1.00, 374.0, 148.4)">t</text><text xml:space="preserve" font-family="LucidaGrande,Lucida Grande" font-size="30.6" fill="#EAEAEA" transform="matrix(1.00, 0.00, -0.00, -1.00, 385.4, 148.4)">r</text><text xml:space="preserve" font-family="LucidaGrande,Lucida Grande" font-size="30.6" fill="#EAEAEA" transform="matrix(1.00, 0.00, -0.00, -1.00, 397.9, 148.4)">i</text><text xml:space="preserve" font-family="LucidaGrande,Lucida Grande" font-size="30.6" fill="#EAEAEA" transform="matrix(1.00, 0.00, -0.00, -1.00, 406.8, 148.4)">c</text><text xml:space="preserve" font-family="LucidaGrande,Lucida Grande" font-size="30.6" fill="#EAEAEA" transform="matrix(1.00, 0.00, -0.00, -1.00, 422.4, 148.4)"></text><image xlink:href="../../073872A3-6B4A-4DBD-B237-E9D6C1798DA3/assets/AFC47169156782C7ED5CEEBF4EE6BAD2.png" width="17.00" height="17.00" transform="matrix(1.00, 0.00, -0.00, -1.00, 225.0, 109.0)"></image><text xml:space="preserve" font-family="LucidaGrande,Lucida Grande" font-size="22.9" fill="#EAEAEA" transform="matrix(1.00, 0.00, -0.00, -1.00, 227.3, 95.4)">•</text><image xlink:href="D4165FACE10EEC0DFA575B1A95955290.png" width="157.00" height="33.00" transform="matrix(1.00, 0.00, -0.00, -1.00, 254.0, 119.0)"></image><text xml:space="preserve" font-family="LucidaGrande,Lucida Grande" font-size="30.6" fill="#EAEAEA" transform="matrix(1.00, 0.00, -0.00, -1.00, 256.1, 92.6)">P</text><text xml:space="preserve" font-family="LucidaGrande,Lucida Grande" font-size="30.6" fill="#EAEAEA" transform="matrix(1.00, 0.00, -0.00, -1.00, 273.0, 92.6)">o</text><text xml:space="preserve" font-family="LucidaGrande,Lucida Grande" font-size="30.6" fill="#EAEAEA" transform="matrix(1.00, 0.00, -0.00, -1.00, 291.9, 92.6)">r</text><text xml:space="preserve" font-family="LucidaGrande,Lucida Grande" font-size="30.6" fill="#EAEAEA" transform="matrix(1.00, 0.00, -0.00, -1.00, 304.4, 92.6)">ó</text><text xml:space="preserve" font-family="LucidaGrande,Lucida Grande" font-size="30.6" fill="#EAEAEA" transform="matrix(1.00, 0.00, -0.00, -1.00, 323.2, 92.6)">w</text><text xml:space="preserve" font-family="LucidaGrande,Lucida Grande" font-size="30.6" fill="#EAEAEA" transform="matrix(1.00, 0.00, -0.00, -1.00, 346.8, 92.6)">a</text><text xml:space="preserve" font-family="LucidaGrande,Lucida Grande" font-size="30.6" fill="#EAEAEA" transform="matrix(1.00, 0.00, -0.00, -1.00, 363.7, 92.6)">n</text><text xml:space="preserve" font-family="LucidaGrande,Lucida Grande" font-size="30.6" fill="#EAEAEA" transform="matrix(1.00, 0.00, -0.00, -1.00, 382.7, 92.6)">i</text><text xml:space="preserve" font-family="LucidaGrande,Lucida Grande" font-size="30.6" fill="#EAEAEA" transform="matrix(1.00, 0.00, -0.00, -1.00, 391.5, 92.6)">e</text></g></svg>