<?xml version="1.0" encoding="UTF-8" standalone="no"?><svg xmlns="http://www.w3.org/2000/svg" xmlns:xlink="http://www.w3.org/1999/xlink" clip-rule="evenodd" stroke-miterlimit="10" viewBox="0 0 1024 768"><desc>SVG generated by Keynote</desc><defs></defs><g transform="matrix(1.00, 0.00, -0.00, -1.00, 0.0, 768.0)"><g><clipPath id="clip0x6000072b9ec0"><path d="M 0.0 768.0 L 1024.0 768.0 L 1024.0 0.0 L 0.0 0.0 Z M 0.0 768.0 "></path></clipPath><g clip-path="url(#clip0x6000072b9ec0)"><image xlink:href="../../073872A3-6B4A-4DBD-B237-E9D6C1798DA3/assets/9397CAD6F20342ACC2646ABBCA758461.jpeg" width="2048.00" height="1536.00" transform="matrix(0.50, 0.00, -0.00, -0.50, 0.0, 768.0)"></image></g></g><image xlink:href="../../E04E0225-FA09-45DD-951B-AB28E4CAB483/assets/1E317E17894C96E938B72DE89483B9E2.png" width="469.00" height="63.00" transform="matrix(1.00, 0.00, -0.00, -1.00, 276.0, 690.0)"></image><text xml:space="preserve" font-family="CourierNewPS-BoldMT,Courier New" font-weight="bold" font-size="64.0" fill="#FEFFFE" transform="matrix(1.00, 0.00, -0.00, -1.00, 281.6, 647.2)">m</text><text xml:space="preserve" font-family="CourierNewPS-BoldMT,Courier New" font-weight="bold" font-size="64.0" fill="#FEFFFE" transform="matrix(1.00, 0.00, -0.00, -1.00, 320.0, 647.2)">o</text><text xml:space="preserve" font-family="CourierNewPS-BoldMT,Courier New" font-weight="bold" font-size="64.0" fill="#FEFFFE" transform="matrix(1.00, 0.00, -0.00, -1.00, 358.4, 647.2)">n</text><text xml:space="preserve" font-family="CourierNewPS-BoldMT,Courier New" font-weight="bold" font-size="64.0" fill="#FEFFFE" transform="matrix(1.00, 0.00, -0.00, -1.00, 396.8, 647.2)">k</text><text xml:space="preserve" font-family="CourierNewPS-BoldMT,Courier New" font-weight="bold" font-size="64.0" fill="#FEFFFE" transform="matrix(1.00, 0.00, -0.00, -1.00, 435.2, 647.2)">e</text><text xml:space="preserve" font-family="CourierNewPS-BoldMT,Courier New" font-weight="bold" font-size="64.0" fill="#FEFFFE" transform="matrix(1.00, 0.00, -0.00, -1.00, 473.6, 647.2)">y</text><text xml:space="preserve" font-family="CourierNewPS-BoldMT,Courier New" font-weight="bold" font-size="64.0" fill="#FEFFFE" transform="matrix(1.00, 0.00, -0.00, -1.00, 512.0, 647.2)">r</text><text xml:space="preserve" font-family="CourierNewPS-BoldMT,Courier New" font-weight="bold" font-size="64.0" fill="#FEFFFE" transform="matrix(1.00, 0.00, -0.00, -1.00, 550.5, 647.2)">u</text><text xml:space="preserve" font-family="CourierNewPS-BoldMT,Courier New" font-weight="bold" font-size="64.0" fill="#FEFFFE" transform="matrix(1.00, 0.00, -0.00, -1.00, 588.9, 647.2)">n</text><text xml:space="preserve" font-family="CourierNewPS-BoldMT,Courier New" font-weight="bold" font-size="64.0" fill="#FEFFFE" transform="matrix(1.00, 0.00, -0.00, -1.00, 627.3, 647.2)">n</text><text xml:space="preserve" font-family="CourierNewPS-BoldMT,Courier New" font-weight="bold" font-size="64.0" fill="#FEFFFE" transform="matrix(1.00, 0.00, -0.00, -1.00, 665.7, 647.2)">e</text><text xml:space="preserve" font-family="CourierNewPS-BoldMT,Courier New" font-weight="bold" font-size="64.0" fill="#FEFFFE" transform="matrix(1.00, 0.00, -0.00, -1.00, 704.1, 647.2)">r</text><image xlink:href="../../2D197280-1DD4-47A5-8EC1-CB39EA06D99E/assets/C25F7C0C760FC422C6FD5D90B7D2228F.png" width="18.00" height="18.00" transform="matrix(1.00, 0.00, -0.00, -1.00, 62.0, 526.0)"></image><text xml:space="preserve" font-family="LucidaGrande,Lucida Grande" font-size="25.5" fill="#EAEAEA" transform="matrix(1.00, 0.00, -0.00, -1.00, 64.0, 511.4)">•</text><image xlink:href="../../E04E0225-FA09-45DD-951B-AB28E4CAB483/assets/58BCE39CB84686FD3452380DC282DF22.png" width="324.00" height="42.00" transform="matrix(1.00, 0.00, -0.00, -1.00, 95.0, 537.0)"></image><text xml:space="preserve" font-family="LucidaGrande,Lucida Grande" font-size="34.0" fill="#EAEAEA" transform="matrix(1.00, 0.00, -0.00, -1.00, 96.0, 508.2)">n</text><text xml:space="preserve" font-family="LucidaGrande,Lucida Grande" font-size="34.0" fill="#EAEAEA" transform="matrix(1.00, 0.00, -0.00, -1.00, 117.1, 508.2)">i</text><text xml:space="preserve" font-family="LucidaGrande,Lucida Grande" font-size="34.0" fill="#EAEAEA" transform="matrix(1.00, 0.00, -0.00, -1.00, 126.9, 508.2)">e</text><text xml:space="preserve" font-family="LucidaGrande,Lucida Grande" font-size="34.0" fill="#EAEAEA" transform="matrix(1.00, 0.00, -0.00, -1.00, 145.9, 508.2)"> </text><text xml:space="preserve" font-family="LucidaGrande,Lucida Grande" font-size="34.0" fill="#EAEAEA" transform="matrix(1.00, 0.00, -0.00, -1.00, 156.7, 508.2)">m</text><text xml:space="preserve" font-family="LucidaGrande,Lucida Grande" font-size="34.0" fill="#EAEAEA" transform="matrix(1.00, 0.00, -0.00, -1.00, 188.4, 508.2)">y</text><text xml:space="preserve" font-family="LucidaGrande,Lucida Grande" font-size="34.0" fill="#EAEAEA" transform="matrix(1.00, 0.00, -0.00, -1.00, 206.2, 508.2)">l</text><text xml:space="preserve" font-family="LucidaGrande,Lucida Grande" font-size="34.0" fill="#EAEAEA" transform="matrix(1.00, 0.00, -0.00, -1.00, 216.0, 508.2)">i</text><text xml:space="preserve" font-family="LucidaGrande,Lucida Grande" font-size="34.0" fill="#EAEAEA" transform="matrix(1.00, 0.00, -0.00, -1.00, 225.9, 508.2)">ć</text><text xml:space="preserve" font-family="LucidaGrande,Lucida Grande" font-size="34.0" fill="#EAEAEA" transform="matrix(1.00, 0.00, -0.00, -1.00, 243.3, 508.2)"> </text><text xml:space="preserve" font-family="LucidaGrande,Lucida Grande" font-size="34.0" fill="#EAEAEA" transform="matrix(1.00, 0.00, -0.00, -1.00, 254.1, 508.2)">z</text><text xml:space="preserve" font-family="LucidaGrande,Lucida Grande" font-size="34.0" fill="#EAEAEA" transform="matrix(1.00, 0.00, -0.00, -1.00, 273.6, 508.2)"> </text><text xml:space="preserve" font-family="LucidaGrande,Lucida Grande" font-size="34.0" fill="#EAEAEA" transform="matrix(1.00, 0.00, -0.00, -1.00, 284.4, 508.2)">m</text><text xml:space="preserve" font-family="LucidaGrande,Lucida Grande" font-size="34.0" fill="#EAEAEA" transform="matrix(1.00, 0.00, -0.00, -1.00, 316.1, 508.2)">o</text><text xml:space="preserve" font-family="LucidaGrande,Lucida Grande" font-size="34.0" fill="#EAEAEA" transform="matrix(1.00, 0.00, -0.00, -1.00, 337.0, 508.2)">n</text><text xml:space="preserve" font-family="LucidaGrande,Lucida Grande" font-size="34.0" fill="#EAEAEA" transform="matrix(1.00, 0.00, -0.00, -1.00, 358.1, 508.2)">k</text><text xml:space="preserve" font-family="LucidaGrande,Lucida Grande" font-size="34.0" fill="#EAEAEA" transform="matrix(1.00, 0.00, -0.00, -1.00, 378.0, 508.2)">e</text><text xml:space="preserve" font-family="LucidaGrande,Lucida Grande" font-size="34.0" fill="#EAEAEA" transform="matrix(1.00, 0.00, -0.00, -1.00, 397.0, 508.2)">y</text><text xml:space="preserve" font-family="LucidaGrande,Lucida Grande" font-size="34.0" fill="#EAEAEA" transform="matrix(1.00, 0.00, -0.00, -1.00, 414.7, 508.2)"></text><image xlink:href="../../2D197280-1DD4-47A5-8EC1-CB39EA06D99E/assets/C25F7C0C760FC422C6FD5D90B7D2228F.png" width="18.00" height="18.00" transform="matrix(1.00, 0.00, -0.00, -1.00, 62.0, 464.0)"></image><text xml:space="preserve" font-family="LucidaGrande,Lucida Grande" font-size="25.5" fill="#EAEAEA" transform="matrix(1.00, 0.00, -0.00, -1.00, 64.0, 449.4)">•</text><image xlink:href="../../E04E0225-FA09-45DD-951B-AB28E4CAB483/assets/8A8FFD8623284A18E5E79476527CB0AC.png" width="339.00" height="42.00" transform="matrix(1.00, 0.00, -0.00, -1.00, 95.0, 475.0)"></image><text xml:space="preserve" font-family="LucidaGrande,Lucida Grande" font-size="34.0" fill="#EAEAEA" transform="matrix(1.00, 0.00, -0.00, -1.00, 96.0, 446.2)">n</text><text xml:space="preserve" font-family="LucidaGrande,Lucida Grande" font-size="34.0" fill="#EAEAEA" transform="matrix(1.00, 0.00, -0.00, -1.00, 117.1, 446.2)">a</text><text xml:space="preserve" font-family="LucidaGrande,Lucida Grande" font-size="34.0" fill="#EAEAEA" transform="matrix(1.00, 0.00, -0.00, -1.00, 135.9, 446.2)">t</text><text xml:space="preserve" font-family="LucidaGrande,Lucida Grande" font-size="34.0" fill="#EAEAEA" transform="matrix(1.00, 0.00, -0.00, -1.00, 148.6, 446.2)">y</text><text xml:space="preserve" font-family="LucidaGrande,Lucida Grande" font-size="34.0" fill="#EAEAEA" transform="matrix(1.00, 0.00, -0.00, -1.00, 166.4, 446.2)">w</text><text xml:space="preserve" font-family="LucidaGrande,Lucida Grande" font-size="34.0" fill="#EAEAEA" transform="matrix(1.00, 0.00, -0.00, -1.00, 192.5, 446.2)">n</text><text xml:space="preserve" font-family="LucidaGrande,Lucida Grande" font-size="34.0" fill="#EAEAEA" transform="matrix(1.00, 0.00, -0.00, -1.00, 213.6, 446.2)">y</text><text xml:space="preserve" font-family="LucidaGrande,Lucida Grande" font-size="34.0" fill="#EAEAEA" transform="matrix(1.00, 0.00, -0.00, -1.00, 231.4, 446.2)"> </text><text xml:space="preserve" font-family="LucidaGrande,Lucida Grande" font-size="34.0" fill="#EAEAEA" transform="matrix(1.00, 0.00, -0.00, -1.00, 242.2, 446.2)">m</text><text xml:space="preserve" font-family="LucidaGrande,Lucida Grande" font-size="34.0" fill="#EAEAEA" transform="matrix(1.00, 0.00, -0.00, -1.00, 273.9, 446.2)">e</text><text xml:space="preserve" font-family="LucidaGrande,Lucida Grande" font-size="34.0" fill="#EAEAEA" transform="matrix(1.00, 0.00, -0.00, -1.00, 292.9, 446.2)">c</text><text xml:space="preserve" font-family="LucidaGrande,Lucida Grande" font-size="34.0" fill="#EAEAEA" transform="matrix(1.00, 0.00, -0.00, -1.00, 310.3, 446.2)">h</text><text xml:space="preserve" font-family="LucidaGrande,Lucida Grande" font-size="34.0" fill="#EAEAEA" transform="matrix(1.00, 0.00, -0.00, -1.00, 331.4, 446.2)">a</text><text xml:space="preserve" font-family="LucidaGrande,Lucida Grande" font-size="34.0" fill="#EAEAEA" transform="matrix(1.00, 0.00, -0.00, -1.00, 350.2, 446.2)">n</text><text xml:space="preserve" font-family="LucidaGrande,Lucida Grande" font-size="34.0" fill="#EAEAEA" transform="matrix(1.00, 0.00, -0.00, -1.00, 371.2, 446.2)">i</text><text xml:space="preserve" font-family="LucidaGrande,Lucida Grande" font-size="34.0" fill="#EAEAEA" transform="matrix(1.00, 0.00, -0.00, -1.00, 381.1, 446.2)">z</text><text xml:space="preserve" font-family="LucidaGrande,Lucida Grande" font-size="34.0" fill="#EAEAEA" transform="matrix(1.00, 0.00, -0.00, -1.00, 400.6, 446.2)">m</text><text xml:space="preserve" font-family="LucidaGrande,Lucida Grande" font-size="34.0" fill="#EAEAEA" transform="matrix(1.00, 0.00, -0.00, -1.00, 432.3, 446.2)"></text><image xlink:href="../../2D197280-1DD4-47A5-8EC1-CB39EA06D99E/assets/C25F7C0C760FC422C6FD5D90B7D2228F.png" width="18.00" height="18.00" transform="matrix(1.00, 0.00, -0.00, -1.00, 62.0, 402.0)"></image><text xml:space="preserve" font-family="LucidaGrande,Lucida Grande" font-size="25.5" fill="#EAEAEA" transform="matrix(1.00, 0.00, -0.00, -1.00, 64.0, 387.4)">•</text><image xlink:href="../../E04E0225-FA09-45DD-951B-AB28E4CAB483/assets/0EA388204A95E6E32015007E2F8F3599.png" width="774.00" height="42.00" transform="matrix(1.00, 0.00, -0.00, -1.00, 93.0, 413.0)"></image><text xml:space="preserve" font-family="LucidaGrande,Lucida Grande" font-size="34.0" fill="#EAEAEA" transform="matrix(1.00, 0.00, -0.00, -1.00, 96.0, 384.2)">t</text><text xml:space="preserve" font-family="LucidaGrande,Lucida Grande" font-size="34.0" fill="#EAEAEA" transform="matrix(1.00, 0.00, -0.00, -1.00, 108.7, 384.2)">e</text><text xml:space="preserve" font-family="LucidaGrande,Lucida Grande" font-size="34.0" fill="#EAEAEA" transform="matrix(1.00, 0.00, -0.00, -1.00, 127.7, 384.2)">s</text><text xml:space="preserve" font-family="LucidaGrande,Lucida Grande" font-size="34.0" fill="#EAEAEA" transform="matrix(1.00, 0.00, -0.00, -1.00, 145.0, 384.2)">t</text><text xml:space="preserve" font-family="LucidaGrande,Lucida Grande" font-size="34.0" fill="#EAEAEA" transform="matrix(1.00, 0.00, -0.00, -1.00, 157.7, 384.2)">y</text><text xml:space="preserve" font-family="LucidaGrande,Lucida Grande" font-size="34.0" fill="#EAEAEA" transform="matrix(1.00, 0.00, -0.00, -1.00, 175.5, 384.2)"> </text><text xml:space="preserve" font-family="LucidaGrande,Lucida Grande" font-size="34.0" fill="#EAEAEA" transform="matrix(1.00, 0.00, -0.00, -1.00, 186.3, 384.2)">f</text><text xml:space="preserve" font-family="LucidaGrande,Lucida Grande" font-size="34.0" fill="#EAEAEA" transform="matrix(1.00, 0.00, -0.00, -1.00, 198.7, 384.2)">u</text><text xml:space="preserve" font-family="LucidaGrande,Lucida Grande" font-size="34.0" fill="#EAEAEA" transform="matrix(1.00, 0.00, -0.00, -1.00, 219.8, 384.2)">n</text><text xml:space="preserve" font-family="LucidaGrande,Lucida Grande" font-size="34.0" fill="#EAEAEA" transform="matrix(1.00, 0.00, -0.00, -1.00, 240.9, 384.2)">k</text><text xml:space="preserve" font-family="LucidaGrande,Lucida Grande" font-size="34.0" fill="#EAEAEA" transform="matrix(1.00, 0.00, -0.00, -1.00, 260.8, 384.2)">c</text><text xml:space="preserve" font-family="LucidaGrande,Lucida Grande" font-size="34.0" fill="#EAEAEA" transform="matrix(1.00, 0.00, -0.00, -1.00, 278.2, 384.2)">j</text><text xml:space="preserve" font-family="LucidaGrande,Lucida Grande" font-size="34.0" fill="#EAEAEA" transform="matrix(1.00, 0.00, -0.00, -1.00, 288.6, 384.2)">o</text><text xml:space="preserve" font-family="LucidaGrande,Lucida Grande" font-size="34.0" fill="#EAEAEA" transform="matrix(1.00, 0.00, -0.00, -1.00, 309.5, 384.2)">n</text><text xml:space="preserve" font-family="LucidaGrande,Lucida Grande" font-size="34.0" fill="#EAEAEA" transform="matrix(1.00, 0.00, -0.00, -1.00, 330.6, 384.2)">a</text><text xml:space="preserve" font-family="LucidaGrande,Lucida Grande" font-size="34.0" fill="#EAEAEA" transform="matrix(1.00, 0.00, -0.00, -1.00, 349.3, 384.2)">l</text><text xml:space="preserve" font-family="LucidaGrande,Lucida Grande" font-size="34.0" fill="#EAEAEA" transform="matrix(1.00, 0.00, -0.00, -1.00, 359.2, 384.2)">n</text><text xml:space="preserve" font-family="LucidaGrande,Lucida Grande" font-size="34.0" fill="#EAEAEA" transform="matrix(1.00, 0.00, -0.00, -1.00, 380.3, 384.2)">e</text><text xml:space="preserve" font-family="LucidaGrande,Lucida Grande" font-size="34.0" fill="#EAEAEA" transform="matrix(1.00, 0.00, -0.00, -1.00, 399.2, 384.2)"> </text><text xml:space="preserve" font-family="LucidaGrande,Lucida Grande" font-size="34.0" fill="#EAEAEA" transform="matrix(1.00, 0.00, -0.00, -1.00, 410.0, 384.2)">z</text><text xml:space="preserve" font-family="LucidaGrande,Lucida Grande" font-size="34.0" fill="#EAEAEA" transform="matrix(1.00, 0.00, -0.00, -1.00, 429.5, 384.2)">a</text><text xml:space="preserve" font-family="LucidaGrande,Lucida Grande" font-size="34.0" fill="#EAEAEA" transform="matrix(1.00, 0.00, -0.00, -1.00, 448.3, 384.2)">p</text><text xml:space="preserve" font-family="LucidaGrande,Lucida Grande" font-size="34.0" fill="#EAEAEA" transform="matrix(1.00, 0.00, -0.00, -1.00, 469.7, 384.2)">i</text><text xml:space="preserve" font-family="LucidaGrande,Lucida Grande" font-size="34.0" fill="#EAEAEA" transform="matrix(1.00, 0.00, -0.00, -1.00, 479.5, 384.2)">s</text><text xml:space="preserve" font-family="LucidaGrande,Lucida Grande" font-size="34.0" fill="#EAEAEA" transform="matrix(1.00, 0.00, -0.00, -1.00, 496.8, 384.2)">a</text><text xml:space="preserve" font-family="LucidaGrande,Lucida Grande" font-size="34.0" fill="#EAEAEA" transform="matrix(1.00, 0.00, -0.00, -1.00, 515.6, 384.2)">n</text><text xml:space="preserve" font-family="LucidaGrande,Lucida Grande" font-size="34.0" fill="#EAEAEA" transform="matrix(1.00, 0.00, -0.00, -1.00, 536.7, 384.2)">e</text><text xml:space="preserve" font-family="LucidaGrande,Lucida Grande" font-size="34.0" fill="#EAEAEA" transform="matrix(1.00, 0.00, -0.00, -1.00, 555.6, 384.2)"> </text><text xml:space="preserve" font-family="LucidaGrande,Lucida Grande" font-size="34.0" fill="#EAEAEA" transform="matrix(1.00, 0.00, -0.00, -1.00, 566.4, 384.2)">w</text><text xml:space="preserve" font-family="LucidaGrande,Lucida Grande" font-size="34.0" fill="#EAEAEA" transform="matrix(1.00, 0.00, -0.00, -1.00, 592.6, 384.2)"> </text><text xml:space="preserve" font-family="LucidaGrande,Lucida Grande" font-size="34.0" fill="#EAEAEA" transform="matrix(1.00, 0.00, -0.00, -1.00, 603.4, 384.2)">s</text><text xml:space="preserve" font-family="LucidaGrande,Lucida Grande" font-size="34.0" fill="#EAEAEA" transform="matrix(1.00, 0.00, -0.00, -1.00, 620.7, 384.2)">k</text><text xml:space="preserve" font-family="LucidaGrande,Lucida Grande" font-size="34.0" fill="#EAEAEA" transform="matrix(1.00, 0.00, -0.00, -1.00, 640.6, 384.2)">r</text><text xml:space="preserve" font-family="LucidaGrande,Lucida Grande" font-size="34.0" fill="#EAEAEA" transform="matrix(1.00, 0.00, -0.00, -1.00, 654.5, 384.2)">y</text><text xml:space="preserve" font-family="LucidaGrande,Lucida Grande" font-size="34.0" fill="#EAEAEA" transform="matrix(1.00, 0.00, -0.00, -1.00, 672.3, 384.2)">p</text><text xml:space="preserve" font-family="LucidaGrande,Lucida Grande" font-size="34.0" fill="#EAEAEA" transform="matrix(1.00, 0.00, -0.00, -1.00, 693.7, 384.2)">c</text><text xml:space="preserve" font-family="LucidaGrande,Lucida Grande" font-size="34.0" fill="#EAEAEA" transform="matrix(1.00, 0.00, -0.00, -1.00, 711.1, 384.2)">i</text><text xml:space="preserve" font-family="LucidaGrande,Lucida Grande" font-size="34.0" fill="#EAEAEA" transform="matrix(1.00, 0.00, -0.00, -1.00, 721.0, 384.2)">e</text><text xml:space="preserve" font-family="LucidaGrande,Lucida Grande" font-size="34.0" fill="#EAEAEA" transform="matrix(1.00, 0.00, -0.00, -1.00, 739.9, 384.2)"> </text><text xml:space="preserve" font-family="LucidaGrande,Lucida Grande" font-size="34.0" fill="#EAEAEA" transform="matrix(1.00, 0.00, -0.00, -1.00, 750.7, 384.2)">p</text><text xml:space="preserve" font-family="LucidaGrande,Lucida Grande" font-size="34.0" fill="#EAEAEA" transform="matrix(1.00, 0.00, -0.00, -1.00, 772.1, 384.2)">y</text><text xml:space="preserve" font-family="LucidaGrande,Lucida Grande" font-size="34.0" fill="#EAEAEA" transform="matrix(1.00, 0.00, -0.00, -1.00, 789.9, 384.2)">t</text><text xml:space="preserve" font-family="LucidaGrande,Lucida Grande" font-size="34.0" fill="#EAEAEA" transform="matrix(1.00, 0.00, -0.00, -1.00, 802.6, 384.2)">h</text><text xml:space="preserve" font-family="LucidaGrande,Lucida Grande" font-size="34.0" fill="#EAEAEA" transform="matrix(1.00, 0.00, -0.00, -1.00, 823.7, 384.2)">o</text><text xml:space="preserve" font-family="LucidaGrande,Lucida Grande" font-size="34.0" fill="#EAEAEA" transform="matrix(1.00, 0.00, -0.00, -1.00, 844.6, 384.2)">n</text><text xml:space="preserve" font-family="LucidaGrande,Lucida Grande" font-size="34.0" fill="#EAEAEA" transform="matrix(1.00, 0.00, -0.00, -1.00, 865.6, 384.2)"></text><image xlink:href="../../2D197280-1DD4-47A5-8EC1-CB39EA06D99E/assets/C25F7C0C760FC422C6FD5D90B7D2228F.png" width="18.00" height="18.00" transform="matrix(1.00, 0.00, -0.00, -1.00, 62.0, 340.0)"></image><text xml:space="preserve" font-family="LucidaGrande,Lucida Grande" font-size="25.5" fill="#EAEAEA" transform="matrix(1.00, 0.00, -0.00, -1.00, 64.0, 325.4)">•</text><image xlink:href="../../E04E0225-FA09-45DD-951B-AB28E4CAB483/assets/4C2AACB315AE2E0BF5FC1D7DE9C5530F.png" width="316.00" height="42.00" transform="matrix(1.00, 0.00, -0.00, -1.00, 95.0, 351.0)"></image><text xml:space="preserve" font-family="LucidaGrande,Lucida Grande" font-size="34.0" fill="#EAEAEA" transform="matrix(1.00, 0.00, -0.00, -1.00, 96.0, 322.2)">m</text><text xml:space="preserve" font-family="LucidaGrande,Lucida Grande" font-size="34.0" fill="#EAEAEA" transform="matrix(1.00, 0.00, -0.00, -1.00, 127.7, 322.2)">o</text><text xml:space="preserve" font-family="LucidaGrande,Lucida Grande" font-size="34.0" fill="#EAEAEA" transform="matrix(1.00, 0.00, -0.00, -1.00, 148.6, 322.2)">n</text><text xml:space="preserve" font-family="LucidaGrande,Lucida Grande" font-size="34.0" fill="#EAEAEA" transform="matrix(1.00, 0.00, -0.00, -1.00, 169.7, 322.2)">k</text><text xml:space="preserve" font-family="LucidaGrande,Lucida Grande" font-size="34.0" fill="#EAEAEA" transform="matrix(1.00, 0.00, -0.00, -1.00, 189.6, 322.2)">e</text><text xml:space="preserve" font-family="LucidaGrande,Lucida Grande" font-size="34.0" fill="#EAEAEA" transform="matrix(1.00, 0.00, -0.00, -1.00, 208.6, 322.2)">y</text><text xml:space="preserve" font-family="LucidaGrande,Lucida Grande" font-size="34.0" fill="#EAEAEA" transform="matrix(1.00, 0.00, -0.00, -1.00, 226.4, 322.2)">r</text><text xml:space="preserve" font-family="LucidaGrande,Lucida Grande" font-size="34.0" fill="#EAEAEA" transform="matrix(1.00, 0.00, -0.00, -1.00, 240.3, 322.2)">u</text><text xml:space="preserve" font-family="LucidaGrande,Lucida Grande" font-size="34.0" fill="#EAEAEA" transform="matrix(1.00, 0.00, -0.00, -1.00, 261.4, 322.2)">n</text><text xml:space="preserve" font-family="LucidaGrande,Lucida Grande" font-size="34.0" fill="#EAEAEA" transform="matrix(1.00, 0.00, -0.00, -1.00, 282.5, 322.2)">n</text><text xml:space="preserve" font-family="LucidaGrande,Lucida Grande" font-size="34.0" fill="#EAEAEA" transform="matrix(1.00, 0.00, -0.00, -1.00, 303.6, 322.2)">e</text><text xml:space="preserve" font-family="LucidaGrande,Lucida Grande" font-size="34.0" fill="#EAEAEA" transform="matrix(1.00, 0.00, -0.00, -1.00, 322.5, 322.2)">r</text><text xml:space="preserve" font-family="LucidaGrande,Lucida Grande" font-size="34.0" fill="#EAEAEA" transform="matrix(1.00, 0.00, -0.00, -1.00, 336.4, 322.2)"> </text><text xml:space="preserve" font-family="LucidaGrande,Lucida Grande" font-size="34.0" fill="#EAEAEA" transform="matrix(1.00, 0.00, -0.00, -1.00, 347.2, 322.2)">A</text><text xml:space="preserve" font-family="LucidaGrande,Lucida Grande" font-size="34.0" fill="#EAEAEA" transform="matrix(1.00, 0.00, -0.00, -1.00, 370.7, 322.2)">P</text><text xml:space="preserve" font-family="LucidaGrande,Lucida Grande" font-size="34.0" fill="#EAEAEA" transform="matrix(1.00, 0.00, -0.00, -1.00, 389.5, 322.2)">I</text><text xml:space="preserve" font-family="LucidaGrande,Lucida Grande" font-size="34.0" fill="#EAEAEA" transform="matrix(1.00, 0.00, -0.00, -1.00, 399.3, 322.2)">:</text><text xml:space="preserve" font-family="LucidaGrande,Lucida Grande" font-size="34.0" fill="#EAEAEA" transform="matrix(1.00, 0.00, -0.00, -1.00, 410.0, 322.2)"></text><image xlink:href="../../2D197280-1DD4-47A5-8EC1-CB39EA06D99E/assets/C25F7C0C760FC422C6FD5D90B7D2228F.png" width="18.00" height="18.00" transform="matrix(1.00, 0.00, -0.00, -1.00, 94.0, 278.0)"></image><text xml:space="preserve" font-family="LucidaGrande,Lucida Grande" font-size="25.5" fill="#EAEAEA" transform="matrix(1.00, 0.00, -0.00, -1.00, 96.0, 263.4)">•</text><image xlink:href="../../E04E0225-FA09-45DD-951B-AB28E4CAB483/assets/9EBF15BBF365E9168617C8B615A07564.png" width="704.00" height="42.00" transform="matrix(1.00, 0.00, -0.00, -1.00, 127.0, 289.0)"></image><text xml:space="preserve" font-family="LucidaGrande,Lucida Grande" font-size="34.0" fill="#EAEAEA" transform="matrix(1.00, 0.00, -0.00, -1.00, 128.0, 260.2)">M</text><text xml:space="preserve" font-family="LucidaGrande,Lucida Grande" font-size="34.0" fill="#EAEAEA" transform="matrix(1.00, 0.00, -0.00, -1.00, 157.3, 260.2)">o</text><text xml:space="preserve" font-family="LucidaGrande,Lucida Grande" font-size="34.0" fill="#EAEAEA" transform="matrix(1.00, 0.00, -0.00, -1.00, 178.2, 260.2)">n</text><text xml:space="preserve" font-family="LucidaGrande,Lucida Grande" font-size="34.0" fill="#EAEAEA" transform="matrix(1.00, 0.00, -0.00, -1.00, 199.3, 260.2)">k</text><text xml:space="preserve" font-family="LucidaGrande,Lucida Grande" font-size="34.0" fill="#EAEAEA" transform="matrix(1.00, 0.00, -0.00, -1.00, 219.1, 260.2)">e</text><text xml:space="preserve" font-family="LucidaGrande,Lucida Grande" font-size="34.0" fill="#EAEAEA" transform="matrix(1.00, 0.00, -0.00, -1.00, 238.1, 260.2)">y</text><text xml:space="preserve" font-family="LucidaGrande,Lucida Grande" font-size="34.0" fill="#EAEAEA" transform="matrix(1.00, 0.00, -0.00, -1.00, 255.9, 260.2)">R</text><text xml:space="preserve" font-family="LucidaGrande,Lucida Grande" font-size="34.0" fill="#EAEAEA" transform="matrix(1.00, 0.00, -0.00, -1.00, 277.4, 260.2)">u</text><text xml:space="preserve" font-family="LucidaGrande,Lucida Grande" font-size="34.0" fill="#EAEAEA" transform="matrix(1.00, 0.00, -0.00, -1.00, 298.5, 260.2)">n</text><text xml:space="preserve" font-family="LucidaGrande,Lucida Grande" font-size="34.0" fill="#EAEAEA" transform="matrix(1.00, 0.00, -0.00, -1.00, 319.5, 260.2)">n</text><text xml:space="preserve" font-family="LucidaGrande,Lucida Grande" font-size="34.0" fill="#EAEAEA" transform="matrix(1.00, 0.00, -0.00, -1.00, 340.6, 260.2)">e</text><text xml:space="preserve" font-family="LucidaGrande,Lucida Grande" font-size="34.0" fill="#EAEAEA" transform="matrix(1.00, 0.00, -0.00, -1.00, 359.6, 260.2)">r</text><text xml:space="preserve" font-family="LucidaGrande,Lucida Grande" font-size="34.0" fill="#EAEAEA" transform="matrix(1.00, 0.00, -0.00, -1.00, 373.5, 260.2)"> </text><text xml:space="preserve" font-family="LucidaGrande,Lucida Grande" font-size="34.0" fill="#EAEAEA" transform="matrix(1.00, 0.00, -0.00, -1.00, 384.3, 260.2)">-</text><text xml:space="preserve" font-family="LucidaGrande,Lucida Grande" font-size="34.0" fill="#EAEAEA" transform="matrix(1.00, 0.00, -0.00, -1.00, 403.9, 260.2)"> </text><text xml:space="preserve" font-family="LucidaGrande,Lucida Grande" font-size="34.0" fill="#EAEAEA" transform="matrix(1.00, 0.00, -0.00, -1.00, 414.7, 260.2)">p</text><text xml:space="preserve" font-family="LucidaGrande,Lucida Grande" font-size="34.0" fill="#EAEAEA" transform="matrix(1.00, 0.00, -0.00, -1.00, 436.1, 260.2)">o</text><text xml:space="preserve" font-family="LucidaGrande,Lucida Grande" font-size="34.0" fill="#EAEAEA" transform="matrix(1.00, 0.00, -0.00, -1.00, 457.0, 260.2)">ł</text><text xml:space="preserve" font-family="LucidaGrande,Lucida Grande" font-size="34.0" fill="#EAEAEA" transform="matrix(1.00, 0.00, -0.00, -1.00, 468.1, 260.2)">ą</text><text xml:space="preserve" font-family="LucidaGrande,Lucida Grande" font-size="34.0" fill="#EAEAEA" transform="matrix(1.00, 0.00, -0.00, -1.00, 486.9, 260.2)">c</text><text xml:space="preserve" font-family="LucidaGrande,Lucida Grande" font-size="34.0" fill="#EAEAEA" transform="matrix(1.00, 0.00, -0.00, -1.00, 504.4, 260.2)">z</text><text xml:space="preserve" font-family="LucidaGrande,Lucida Grande" font-size="34.0" fill="#EAEAEA" transform="matrix(1.00, 0.00, -0.00, -1.00, 523.9, 260.2)">n</text><text xml:space="preserve" font-family="LucidaGrande,Lucida Grande" font-size="34.0" fill="#EAEAEA" transform="matrix(1.00, 0.00, -0.00, -1.00, 544.9, 260.2)">i</text><text xml:space="preserve" font-family="LucidaGrande,Lucida Grande" font-size="34.0" fill="#EAEAEA" transform="matrix(1.00, 0.00, -0.00, -1.00, 554.8, 260.2)">e</text><text xml:space="preserve" font-family="LucidaGrande,Lucida Grande" font-size="34.0" fill="#EAEAEA" transform="matrix(1.00, 0.00, -0.00, -1.00, 573.7, 260.2)"> </text><text xml:space="preserve" font-family="LucidaGrande,Lucida Grande" font-size="34.0" fill="#EAEAEA" transform="matrix(1.00, 0.00, -0.00, -1.00, 584.5, 260.2)">z</text><text xml:space="preserve" font-family="LucidaGrande,Lucida Grande" font-size="34.0" fill="#EAEAEA" transform="matrix(1.00, 0.00, -0.00, -1.00, 604.0, 260.2)"> </text><text xml:space="preserve" font-family="LucidaGrande,Lucida Grande" font-size="34.0" fill="#EAEAEA" transform="matrix(1.00, 0.00, -0.00, -1.00, 614.8, 260.2)">u</text><text xml:space="preserve" font-family="LucidaGrande,Lucida Grande" font-size="34.0" fill="#EAEAEA" transform="matrix(1.00, 0.00, -0.00, -1.00, 635.8, 260.2)">r</text><text xml:space="preserve" font-family="LucidaGrande,Lucida Grande" font-size="34.0" fill="#EAEAEA" transform="matrix(1.00, 0.00, -0.00, -1.00, 649.8, 260.2)">z</text><text xml:space="preserve" font-family="LucidaGrande,Lucida Grande" font-size="34.0" fill="#EAEAEA" transform="matrix(1.00, 0.00, -0.00, -1.00, 669.3, 260.2)">ą</text><text xml:space="preserve" font-family="LucidaGrande,Lucida Grande" font-size="34.0" fill="#EAEAEA" transform="matrix(1.00, 0.00, -0.00, -1.00, 688.0, 260.2)">d</text><text xml:space="preserve" font-family="LucidaGrande,Lucida Grande" font-size="34.0" fill="#EAEAEA" transform="matrix(1.00, 0.00, -0.00, -1.00, 709.5, 260.2)">z</text><text xml:space="preserve" font-family="LucidaGrande,Lucida Grande" font-size="34.0" fill="#EAEAEA" transform="matrix(1.00, 0.00, -0.00, -1.00, 729.0, 260.2)">e</text><text xml:space="preserve" font-family="LucidaGrande,Lucida Grande" font-size="34.0" fill="#EAEAEA" transform="matrix(1.00, 0.00, -0.00, -1.00, 747.9, 260.2)">n</text><text xml:space="preserve" font-family="LucidaGrande,Lucida Grande" font-size="34.0" fill="#EAEAEA" transform="matrix(1.00, 0.00, -0.00, -1.00, 769.0, 260.2)">i</text><text xml:space="preserve" font-family="LucidaGrande,Lucida Grande" font-size="34.0" fill="#EAEAEA" transform="matrix(1.00, 0.00, -0.00, -1.00, 778.8, 260.2)">e</text><text xml:space="preserve" font-family="LucidaGrande,Lucida Grande" font-size="34.0" fill="#EAEAEA" transform="matrix(1.00, 0.00, -0.00, -1.00, 797.8, 260.2)">m</text><text xml:space="preserve" font-family="LucidaGrande,Lucida Grande" font-size="34.0" fill="#EAEAEA" transform="matrix(1.00, 0.00, -0.00, -1.00, 829.5, 260.2)"></text><image xlink:href="../../2D197280-1DD4-47A5-8EC1-CB39EA06D99E/assets/C25F7C0C760FC422C6FD5D90B7D2228F.png" width="18.00" height="18.00" transform="matrix(1.00, 0.00, -0.00, -1.00, 94.0, 216.0)"></image><text xml:space="preserve" font-family="LucidaGrande,Lucida Grande" font-size="25.5" fill="#EAEAEA" transform="matrix(1.00, 0.00, -0.00, -1.00, 96.0, 201.4)">•</text><image xlink:href="../../E04E0225-FA09-45DD-951B-AB28E4CAB483/assets/C4F189B72EE0AD293C6B76BC449D688F.png" width="785.00" height="42.00" transform="matrix(1.00, 0.00, -0.00, -1.00, 127.0, 227.0)"></image><text xml:space="preserve" font-family="LucidaGrande,Lucida Grande" font-size="34.0" fill="#EAEAEA" transform="matrix(1.00, 0.00, -0.00, -1.00, 128.0, 198.2)">M</text><text xml:space="preserve" font-family="LucidaGrande,Lucida Grande" font-size="34.0" fill="#EAEAEA" transform="matrix(1.00, 0.00, -0.00, -1.00, 157.3, 198.2)">o</text><text xml:space="preserve" font-family="LucidaGrande,Lucida Grande" font-size="34.0" fill="#EAEAEA" transform="matrix(1.00, 0.00, -0.00, -1.00, 178.2, 198.2)">n</text><text xml:space="preserve" font-family="LucidaGrande,Lucida Grande" font-size="34.0" fill="#EAEAEA" transform="matrix(1.00, 0.00, -0.00, -1.00, 199.3, 198.2)">k</text><text xml:space="preserve" font-family="LucidaGrande,Lucida Grande" font-size="34.0" fill="#EAEAEA" transform="matrix(1.00, 0.00, -0.00, -1.00, 219.2, 198.2)">e</text><text xml:space="preserve" font-family="LucidaGrande,Lucida Grande" font-size="34.0" fill="#EAEAEA" transform="matrix(1.00, 0.00, -0.00, -1.00, 238.1, 198.2)">y</text><text xml:space="preserve" font-family="LucidaGrande,Lucida Grande" font-size="34.0" fill="#EAEAEA" transform="matrix(1.00, 0.00, -0.00, -1.00, 255.9, 198.2)">D</text><text xml:space="preserve" font-family="LucidaGrande,Lucida Grande" font-size="34.0" fill="#EAEAEA" transform="matrix(1.00, 0.00, -0.00, -1.00, 281.4, 198.2)">e</text><text xml:space="preserve" font-family="LucidaGrande,Lucida Grande" font-size="34.0" fill="#EAEAEA" transform="matrix(1.00, 0.00, -0.00, -1.00, 300.3, 198.2)">v</text><text xml:space="preserve" font-family="LucidaGrande,Lucida Grande" font-size="34.0" fill="#EAEAEA" transform="matrix(1.00, 0.00, -0.00, -1.00, 317.9, 198.2)">i</text><text xml:space="preserve" font-family="LucidaGrande,Lucida Grande" font-size="34.0" fill="#EAEAEA" transform="matrix(1.00, 0.00, -0.00, -1.00, 327.7, 198.2)">c</text><text xml:space="preserve" font-family="LucidaGrande,Lucida Grande" font-size="34.0" fill="#EAEAEA" transform="matrix(1.00, 0.00, -0.00, -1.00, 345.1, 198.2)">e</text><text xml:space="preserve" font-family="LucidaGrande,Lucida Grande" font-size="34.0" fill="#EAEAEA" transform="matrix(1.00, 0.00, -0.00, -1.00, 364.1, 198.2)"> </text><text xml:space="preserve" font-family="LucidaGrande,Lucida Grande" font-size="34.0" fill="#EAEAEA" transform="matrix(1.00, 0.00, -0.00, -1.00, 374.9, 198.2)">-</text><text xml:space="preserve" font-family="LucidaGrande,Lucida Grande" font-size="34.0" fill="#EAEAEA" transform="matrix(1.00, 0.00, -0.00, -1.00, 394.5, 198.2)"> </text><text xml:space="preserve" font-family="LucidaGrande,Lucida Grande" font-size="34.0" fill="#EAEAEA" transform="matrix(1.00, 0.00, -0.00, -1.00, 405.3, 198.2)">i</text><text xml:space="preserve" font-family="LucidaGrande,Lucida Grande" font-size="34.0" fill="#EAEAEA" transform="matrix(1.00, 0.00, -0.00, -1.00, 415.1, 198.2)">n</text><text xml:space="preserve" font-family="LucidaGrande,Lucida Grande" font-size="34.0" fill="#EAEAEA" transform="matrix(1.00, 0.00, -0.00, -1.00, 436.2, 198.2)">s</text><text xml:space="preserve" font-family="LucidaGrande,Lucida Grande" font-size="34.0" fill="#EAEAEA" transform="matrix(1.00, 0.00, -0.00, -1.00, 453.5, 198.2)">t</text><text xml:space="preserve" font-family="LucidaGrande,Lucida Grande" font-size="34.0" fill="#EAEAEA" transform="matrix(1.00, 0.00, -0.00, -1.00, 466.3, 198.2)">a</text><text xml:space="preserve" font-family="LucidaGrande,Lucida Grande" font-size="34.0" fill="#EAEAEA" transform="matrix(1.00, 0.00, -0.00, -1.00, 485.0, 198.2)">l</text><text xml:space="preserve" font-family="LucidaGrande,Lucida Grande" font-size="34.0" fill="#EAEAEA" transform="matrix(1.00, 0.00, -0.00, -1.00, 494.9, 198.2)">a</text><text xml:space="preserve" font-family="LucidaGrande,Lucida Grande" font-size="34.0" fill="#EAEAEA" transform="matrix(1.00, 0.00, -0.00, -1.00, 513.6, 198.2)">c</text><text xml:space="preserve" font-family="LucidaGrande,Lucida Grande" font-size="34.0" fill="#EAEAEA" transform="matrix(1.00, 0.00, -0.00, -1.00, 531.1, 198.2)">j</text><text xml:space="preserve" font-family="LucidaGrande,Lucida Grande" font-size="34.0" fill="#EAEAEA" transform="matrix(1.00, 0.00, -0.00, -1.00, 541.4, 198.2)">a</text><text xml:space="preserve" font-family="LucidaGrande,Lucida Grande" font-size="34.0" fill="#EAEAEA" transform="matrix(1.00, 0.00, -0.00, -1.00, 560.2, 198.2)">,</text><text xml:space="preserve" font-family="LucidaGrande,Lucida Grande" font-size="34.0" fill="#EAEAEA" transform="matrix(1.00, 0.00, -0.00, -1.00, 571.0, 198.2)"> </text><text xml:space="preserve" font-family="LucidaGrande,Lucida Grande" font-size="34.0" fill="#EAEAEA" transform="matrix(1.00, 0.00, -0.00, -1.00, 581.7, 198.2)">s</text><text xml:space="preserve" font-family="LucidaGrande,Lucida Grande" font-size="34.0" fill="#EAEAEA" transform="matrix(1.00, 0.00, -0.00, -1.00, 599.1, 198.2)">t</text><text xml:space="preserve" font-family="LucidaGrande,Lucida Grande" font-size="34.0" fill="#EAEAEA" transform="matrix(1.00, 0.00, -0.00, -1.00, 611.8, 198.2)">a</text><text xml:space="preserve" font-family="LucidaGrande,Lucida Grande" font-size="34.0" fill="#EAEAEA" transform="matrix(1.00, 0.00, -0.00, -1.00, 630.6, 198.2)">r</text><text xml:space="preserve" font-family="LucidaGrande,Lucida Grande" font-size="34.0" fill="#EAEAEA" transform="matrix(1.00, 0.00, -0.00, -1.00, 644.5, 198.2)">t</text><text xml:space="preserve" font-family="LucidaGrande,Lucida Grande" font-size="34.0" fill="#EAEAEA" transform="matrix(1.00, 0.00, -0.00, -1.00, 657.2, 198.2)">o</text><text xml:space="preserve" font-family="LucidaGrande,Lucida Grande" font-size="34.0" fill="#EAEAEA" transform="matrix(1.00, 0.00, -0.00, -1.00, 678.1, 198.2)">w</text><text xml:space="preserve" font-family="LucidaGrande,Lucida Grande" font-size="34.0" fill="#EAEAEA" transform="matrix(1.00, 0.00, -0.00, -1.00, 704.3, 198.2)">a</text><text xml:space="preserve" font-family="LucidaGrande,Lucida Grande" font-size="34.0" fill="#EAEAEA" transform="matrix(1.00, 0.00, -0.00, -1.00, 723.1, 198.2)">n</text><text xml:space="preserve" font-family="LucidaGrande,Lucida Grande" font-size="34.0" fill="#EAEAEA" transform="matrix(1.00, 0.00, -0.00, -1.00, 744.2, 198.2)">i</text><text xml:space="preserve" font-family="LucidaGrande,Lucida Grande" font-size="34.0" fill="#EAEAEA" transform="matrix(1.00, 0.00, -0.00, -1.00, 754.0, 198.2)">e</text><text xml:space="preserve" font-family="LucidaGrande,Lucida Grande" font-size="34.0" fill="#EAEAEA" transform="matrix(1.00, 0.00, -0.00, -1.00, 772.9, 198.2)"> </text><text xml:space="preserve" font-family="LucidaGrande,Lucida Grande" font-size="34.0" fill="#EAEAEA" transform="matrix(1.00, 0.00, -0.00, -1.00, 783.7, 198.2)">a</text><text xml:space="preserve" font-family="LucidaGrande,Lucida Grande" font-size="34.0" fill="#EAEAEA" transform="matrix(1.00, 0.00, -0.00, -1.00, 802.5, 198.2)">c</text><text xml:space="preserve" font-family="LucidaGrande,Lucida Grande" font-size="34.0" fill="#EAEAEA" transform="matrix(1.00, 0.00, -0.00, -1.00, 819.9, 198.2)">t</text><text xml:space="preserve" font-family="LucidaGrande,Lucida Grande" font-size="34.0" fill="#EAEAEA" transform="matrix(1.00, 0.00, -0.00, -1.00, 832.6, 198.2)">i</text><text xml:space="preserve" font-family="LucidaGrande,Lucida Grande" font-size="34.0" fill="#EAEAEA" transform="matrix(1.00, 0.00, -0.00, -1.00, 842.5, 198.2)">v</text><text xml:space="preserve" font-family="LucidaGrande,Lucida Grande" font-size="34.0" fill="#EAEAEA" transform="matrix(1.00, 0.00, -0.00, -1.00, 860.0, 198.2)">i</text><text xml:space="preserve" font-family="LucidaGrande,Lucida Grande" font-size="34.0" fill="#EAEAEA" transform="matrix(1.00, 0.00, -0.00, -1.00, 869.9, 198.2)">t</text><text xml:space="preserve" font-family="LucidaGrande,Lucida Grande" font-size="34.0" fill="#EAEAEA" transform="matrix(1.00, 0.00, -0.00, -1.00, 882.6, 198.2)">y</text><text xml:space="preserve" font-family="LucidaGrande,Lucida Grande" font-size="34.0" fill="#EAEAEA" transform="matrix(1.00, 0.00, -0.00, -1.00, 900.4, 198.2)">,</text><text xml:space="preserve" font-family="LucidaGrande,Lucida Grande" font-size="34.0" fill="#EAEAEA" transform="matrix(1.00, 0.00, -0.00, -1.00, 911.1, 198.2)"> </text><image xlink:href="../../E04E0225-FA09-45DD-951B-AB28E4CAB483/assets/C9DE2D56964C7EEBC1473BB650FD8FD7.png" width="388.00" height="42.00" transform="matrix(1.00, 0.00, -0.00, -1.00, 127.0, 187.0)"></image><text xml:space="preserve" font-family="LucidaGrande,Lucida Grande" font-size="34.0" fill="#EAEAEA" transform="matrix(1.00, 0.00, -0.00, -1.00, 128.0, 158.2)">k</text><text xml:space="preserve" font-family="LucidaGrande,Lucida Grande" font-size="34.0" fill="#EAEAEA" transform="matrix(1.00, 0.00, -0.00, -1.00, 147.9, 158.2)">e</text><text xml:space="preserve" font-family="LucidaGrande,Lucida Grande" font-size="34.0" fill="#EAEAEA" transform="matrix(1.00, 0.00, -0.00, -1.00, 166.8, 158.2)">y</text><text xml:space="preserve" font-family="LucidaGrande,Lucida Grande" font-size="34.0" fill="#EAEAEA" transform="matrix(1.00, 0.00, -0.00, -1.00, 184.6, 158.2)">b</text><text xml:space="preserve" font-family="LucidaGrande,Lucida Grande" font-size="34.0" fill="#EAEAEA" transform="matrix(1.00, 0.00, -0.00, -1.00, 206.0, 158.2)">o</text><text xml:space="preserve" font-family="LucidaGrande,Lucida Grande" font-size="34.0" fill="#EAEAEA" transform="matrix(1.00, 0.00, -0.00, -1.00, 226.9, 158.2)">a</text><text xml:space="preserve" font-family="LucidaGrande,Lucida Grande" font-size="34.0" fill="#EAEAEA" transform="matrix(1.00, 0.00, -0.00, -1.00, 245.7, 158.2)">r</text><text xml:space="preserve" font-family="LucidaGrande,Lucida Grande" font-size="34.0" fill="#EAEAEA" transform="matrix(1.00, 0.00, -0.00, -1.00, 259.6, 158.2)">d</text><text xml:space="preserve" font-family="LucidaGrande,Lucida Grande" font-size="34.0" fill="#EAEAEA" transform="matrix(1.00, 0.00, -0.00, -1.00, 281.0, 158.2)">,</text><text xml:space="preserve" font-family="LucidaGrande,Lucida Grande" font-size="34.0" fill="#EAEAEA" transform="matrix(1.00, 0.00, -0.00, -1.00, 291.8, 158.2)"> </text><text xml:space="preserve" font-family="LucidaGrande,Lucida Grande" font-size="34.0" fill="#EAEAEA" transform="matrix(1.00, 0.00, -0.00, -1.00, 302.6, 158.2)">t</text><text xml:space="preserve" font-family="LucidaGrande,Lucida Grande" font-size="34.0" fill="#EAEAEA" transform="matrix(1.00, 0.00, -0.00, -1.00, 315.3, 158.2)">o</text><text xml:space="preserve" font-family="LucidaGrande,Lucida Grande" font-size="34.0" fill="#EAEAEA" transform="matrix(1.00, 0.00, -0.00, -1.00, 336.2, 158.2)">u</text><text xml:space="preserve" font-family="LucidaGrande,Lucida Grande" font-size="34.0" fill="#EAEAEA" transform="matrix(1.00, 0.00, -0.00, -1.00, 357.3, 158.2)">c</text><text xml:space="preserve" font-family="LucidaGrande,Lucida Grande" font-size="34.0" fill="#EAEAEA" transform="matrix(1.00, 0.00, -0.00, -1.00, 374.7, 158.2)">h</text><text xml:space="preserve" font-family="LucidaGrande,Lucida Grande" font-size="34.0" fill="#EAEAEA" transform="matrix(1.00, 0.00, -0.00, -1.00, 395.8, 158.2)"> </text><text xml:space="preserve" font-family="LucidaGrande,Lucida Grande" font-size="34.0" fill="#EAEAEA" transform="matrix(1.00, 0.00, -0.00, -1.00, 406.6, 158.2)">e</text><text xml:space="preserve" font-family="LucidaGrande,Lucida Grande" font-size="34.0" fill="#EAEAEA" transform="matrix(1.00, 0.00, -0.00, -1.00, 425.5, 158.2)">v</text><text xml:space="preserve" font-family="LucidaGrande,Lucida Grande" font-size="34.0" fill="#EAEAEA" transform="matrix(1.00, 0.00, -0.00, -1.00, 443.1, 158.2)">e</text><text xml:space="preserve" font-family="LucidaGrande,Lucida Grande" font-size="34.0" fill="#EAEAEA" transform="matrix(1.00, 0.00, -0.00, -1.00, 462.0, 158.2)">n</text><text xml:space="preserve" font-family="LucidaGrande,Lucida Grande" font-size="34.0" fill="#EAEAEA" transform="matrix(1.00, 0.00, -0.00, -1.00, 483.1, 158.2)">t</text><text xml:space="preserve" font-family="LucidaGrande,Lucida Grande" font-size="34.0" fill="#EAEAEA" transform="matrix(1.00, 0.00, -0.00, -1.00, 495.8, 158.2)">s</text><text xml:space="preserve" font-family="LucidaGrande,Lucida Grande" font-size="34.0" fill="#EAEAEA" transform="matrix(1.00, 0.00, -0.00, -1.00, 513.2, 158.2)"></text><image xlink:href="../../2D197280-1DD4-47A5-8EC1-CB39EA06D99E/assets/C25F7C0C760FC422C6FD5D90B7D2228F.png" width="18.00" height="18.00" transform="matrix(1.00, 0.00, -0.00, -1.00, 94.0, 114.0)"></image><text xml:space="preserve" font-family="LucidaGrande,Lucida Grande" font-size="25.5" fill="#EAEAEA" transform="matrix(1.00, 0.00, -0.00, -1.00, 96.0, 99.4)">•</text><image xlink:href="../../E04E0225-FA09-45DD-951B-AB28E4CAB483/assets/9E7881DEDFB82E31CE354415CCB28D2A.png" width="453.00" height="42.00" transform="matrix(1.00, 0.00, -0.00, -1.00, 127.0, 125.0)"></image><text xml:space="preserve" font-family="LucidaGrande,Lucida Grande" font-size="34.0" fill="#EAEAEA" transform="matrix(1.00, 0.00, -0.00, -1.00, 128.0, 96.2)">M</text><text xml:space="preserve" font-family="LucidaGrande,Lucida Grande" font-size="34.0" fill="#EAEAEA" transform="matrix(1.00, 0.00, -0.00, -1.00, 157.3, 96.2)">o</text><text xml:space="preserve" font-family="LucidaGrande,Lucida Grande" font-size="34.0" fill="#EAEAEA" transform="matrix(1.00, 0.00, -0.00, -1.00, 178.2, 96.2)">n</text><text xml:space="preserve" font-family="LucidaGrande,Lucida Grande" font-size="34.0" fill="#EAEAEA" transform="matrix(1.00, 0.00, -0.00, -1.00, 199.3, 96.2)">k</text><text xml:space="preserve" font-family="LucidaGrande,Lucida Grande" font-size="34.0" fill="#EAEAEA" transform="matrix(1.00, 0.00, -0.00, -1.00, 219.1, 96.2)">e</text><text xml:space="preserve" font-family="LucidaGrande,Lucida Grande" font-size="34.0" fill="#EAEAEA" transform="matrix(1.00, 0.00, -0.00, -1.00, 238.1, 96.2)">y</text><text xml:space="preserve" font-family="LucidaGrande,Lucida Grande" font-size="34.0" fill="#EAEAEA" transform="matrix(1.00, 0.00, -0.00, -1.00, 255.9, 96.2)">I</text><text xml:space="preserve" font-family="LucidaGrande,Lucida Grande" font-size="34.0" fill="#EAEAEA" transform="matrix(1.00, 0.00, -0.00, -1.00, 265.7, 96.2)">m</text><text xml:space="preserve" font-family="LucidaGrande,Lucida Grande" font-size="34.0" fill="#EAEAEA" transform="matrix(1.00, 0.00, -0.00, -1.00, 297.4, 96.2)">a</text><text xml:space="preserve" font-family="LucidaGrande,Lucida Grande" font-size="34.0" fill="#EAEAEA" transform="matrix(1.00, 0.00, -0.00, -1.00, 316.2, 96.2)">g</text><text xml:space="preserve" font-family="LucidaGrande,Lucida Grande" font-size="34.0" fill="#EAEAEA" transform="matrix(1.00, 0.00, -0.00, -1.00, 337.4, 96.2)">e</text><text xml:space="preserve" font-family="LucidaGrande,Lucida Grande" font-size="34.0" fill="#EAEAEA" transform="matrix(1.00, 0.00, -0.00, -1.00, 356.3, 96.2)"> </text><text xml:space="preserve" font-family="LucidaGrande,Lucida Grande" font-size="34.0" fill="#EAEAEA" transform="matrix(1.00, 0.00, -0.00, -1.00, 367.1, 96.2)">-</text><text xml:space="preserve" font-family="LucidaGrande,Lucida Grande" font-size="34.0" fill="#EAEAEA" transform="matrix(1.00, 0.00, -0.00, -1.00, 386.7, 96.2)"> </text><text xml:space="preserve" font-family="LucidaGrande,Lucida Grande" font-size="34.0" fill="#EAEAEA" transform="matrix(1.00, 0.00, -0.00, -1.00, 397.5, 96.2)">s</text><text xml:space="preserve" font-family="LucidaGrande,Lucida Grande" font-size="34.0" fill="#EAEAEA" transform="matrix(1.00, 0.00, -0.00, -1.00, 414.8, 96.2)">c</text><text xml:space="preserve" font-family="LucidaGrande,Lucida Grande" font-size="34.0" fill="#EAEAEA" transform="matrix(1.00, 0.00, -0.00, -1.00, 432.2, 96.2)">r</text><text xml:space="preserve" font-family="LucidaGrande,Lucida Grande" font-size="34.0" fill="#EAEAEA" transform="matrix(1.00, 0.00, -0.00, -1.00, 446.2, 96.2)">e</text><text xml:space="preserve" font-family="LucidaGrande,Lucida Grande" font-size="34.0" fill="#EAEAEA" transform="matrix(1.00, 0.00, -0.00, -1.00, 465.1, 96.2)">e</text><text xml:space="preserve" font-family="LucidaGrande,Lucida Grande" font-size="34.0" fill="#EAEAEA" transform="matrix(1.00, 0.00, -0.00, -1.00, 484.1, 96.2)">n</text><text xml:space="preserve" font-family="LucidaGrande,Lucida Grande" font-size="34.0" fill="#EAEAEA" transform="matrix(1.00, 0.00, -0.00, -1.00, 505.1, 96.2)">s</text><text xml:space="preserve" font-family="LucidaGrande,Lucida Grande" font-size="34.0" fill="#EAEAEA" transform="matrix(1.00, 0.00, -0.00, -1.00, 522.4, 96.2)">h</text><text xml:space="preserve" font-family="LucidaGrande,Lucida Grande" font-size="34.0" fill="#EAEAEA" transform="matrix(1.00, 0.00, -0.00, -1.00, 543.5, 96.2)">o</text><text xml:space="preserve" font-family="LucidaGrande,Lucida Grande" font-size="34.0" fill="#EAEAEA" transform="matrix(1.00, 0.00, -0.00, -1.00, 564.4, 96.2)">t</text></g></svg>