<?xml version="1.0" encoding="UTF-8" standalone="no"?><svg xmlns="http://www.w3.org/2000/svg" xmlns:xlink="http://www.w3.org/1999/xlink" clip-rule="evenodd" stroke-miterlimit="10" viewBox="0 0 291 114"><desc>SVG generated by Keynote</desc><defs><linearGradient id="gradSh1.20" x1="0.0" y1="0.0" x2="100.0" y2="0.0" gradientUnits="userSpaceOnUse" gradientTransform="matrix(0.00, -1.02, -2.82, 0.00, 145.3, 108.0)"><stop offset="0.00000" stop-color="#EDAC0F"></stop><stop offset="0.01026" stop-color="#EDAC10"></stop><stop offset="0.01173" stop-color="#ECAB10"></stop><stop offset="0.81085" stop-color="#D47D20"></stop><stop offset="0.81158" stop-color="#D47C20"></stop><stop offset="1.00000" stop-color="#CE7123"></stop></linearGradient></defs><g transform="matrix(1.00, 0.00, -0.00, -1.00, 0.0, 114.0)"><image xlink:href="../../A7E49E2A-ECFB-494E-A3C9-9194F53AFB51/assets/0B6E322E9B29DE41ED92F7B40F48A2D3.png" width="288.00" height="108.00" transform="matrix(1.00, 0.00, -0.00, -1.00, 1.3, 109.0)" opacity="0.50"></image><g><clipPath id="clip0x600005aba1c0"><path d="M 244.3 92.4 C 299.0 72.8 299.0 41.2 244.3 21.6 C 189.7 2.1 101.0 2.1 46.3 21.6 C -8.3 41.2 -8.3 72.8 46.3 92.4 C 101.0 111.9 189.7 111.9 244.3 92.4 Z M 244.3 92.4 "></path></clipPath><g clip-path="url(#clip0x600005aba1c0)"><path d="M 244.3 92.4 C 299.0 72.8 299.0 41.2 244.3 21.6 C 189.7 2.1 101.0 2.1 46.3 21.6 C -8.3 41.2 -8.3 72.8 46.3 92.4 C 101.0 111.9 189.7 111.9 244.3 92.4 Z M 244.3 92.4 " fill="url(#gradSh1.20)"></path></g></g><image xlink:href="../../A7E49E2A-ECFB-494E-A3C9-9194F53AFB51/assets/5213038C481B57C2C2222C89C2570D57.png" width="242.00" height="26.00" transform="matrix(1.00, 0.00, -0.00, -1.00, 25.0, 66.0)"></image><g><clipPath id="clip0x6000060ba220"><path d="M 5.3 7.0 L 285.3 7.0 L 285.3 107.0 L 5.3 107.0 Z M 5.3 7.0 "></path></clipPath><g clip-path="url(#clip0x6000060ba220)"><text xml:space="preserve" font-family="HelveticaNeue-Medium,Helvetica Neue" font-size="26.0" fill="#3B3B3B" transform="matrix(1.00, 0.00, -0.00, -1.00, 25.4, 47.1)">a</text><text xml:space="preserve" font-family="HelveticaNeue-Medium,Helvetica Neue" font-size="26.0" fill="#3B3B3B" transform="matrix(1.00, 0.00, -0.00, -1.00, 39.9, 47.1)">p</text><text xml:space="preserve" font-family="HelveticaNeue-Medium,Helvetica Neue" font-size="26.0" fill="#3B3B3B" transform="matrix(1.00, 0.00, -0.00, -1.00, 55.8, 47.1)">p</text><text xml:space="preserve" font-family="HelveticaNeue-Medium,Helvetica Neue" font-size="26.0" fill="#3B3B3B" transform="matrix(1.00, 0.00, -0.00, -1.00, 71.6, 47.1)">l</text><text xml:space="preserve" font-family="HelveticaNeue-Medium,Helvetica Neue" font-size="26.0" fill="#3B3B3B" transform="matrix(1.00, 0.00, -0.00, -1.00, 77.9, 47.1)">i</text><text xml:space="preserve" font-family="HelveticaNeue-Medium,Helvetica Neue" font-size="26.0" fill="#3B3B3B" transform="matrix(1.00, 0.00, -0.00, -1.00, 84.2, 47.1)">c</text><text xml:space="preserve" font-family="HelveticaNeue-Medium,Helvetica Neue" font-size="26.0" fill="#3B3B3B" transform="matrix(1.00, 0.00, -0.00, -1.00, 98.6, 47.1)">a</text><text xml:space="preserve" font-family="HelveticaNeue-Medium,Helvetica Neue" font-size="26.0" fill="#3B3B3B" transform="matrix(1.00, 0.00, -0.00, -1.00, 113.1, 47.1)">t</text><text xml:space="preserve" font-family="HelveticaNeue-Medium,Helvetica Neue" font-size="26.0" fill="#3B3B3B" transform="matrix(1.00, 0.00, -0.00, -1.00, 121.7, 47.1)">i</text><text xml:space="preserve" font-family="HelveticaNeue-Medium,Helvetica Neue" font-size="26.0" fill="#3B3B3B" transform="matrix(1.00, 0.00, -0.00, -1.00, 128.0, 47.1)">o</text><text xml:space="preserve" font-family="HelveticaNeue-Medium,Helvetica Neue" font-size="26.0" fill="#3B3B3B" transform="matrix(1.00, 0.00, -0.00, -1.00, 143.4, 47.1)">n</text><text xml:space="preserve" font-family="HelveticaNeue-Medium,Helvetica Neue" font-size="26.0" fill="#3B3B3B" transform="matrix(1.00, 0.00, -0.00, -1.00, 158.3, 47.1)">-</text><text xml:space="preserve" font-family="HelveticaNeue-Medium,Helvetica Neue" font-size="26.0" fill="#3B3B3B" transform="matrix(1.00, 0.00, -0.00, -1.00, 168.5, 47.1)">t</text><text xml:space="preserve" font-family="HelveticaNeue-Medium,Helvetica Neue" font-size="26.0" fill="#3B3B3B" transform="matrix(1.00, 0.00, -0.00, -1.00, 177.1, 47.1)">e</text><text xml:space="preserve" font-family="HelveticaNeue-Medium,Helvetica Neue" font-size="26.0" fill="#3B3B3B" transform="matrix(1.00, 0.00, -0.00, -1.00, 191.6, 47.1)">s</text><text xml:space="preserve" font-family="HelveticaNeue-Medium,Helvetica Neue" font-size="26.0" fill="#3B3B3B" transform="matrix(1.00, 0.00, -0.00, -1.00, 205.1, 47.1)">t</text><text xml:space="preserve" font-family="HelveticaNeue-Medium,Helvetica Neue" font-size="26.0" fill="#3B3B3B" transform="matrix(1.00, 0.00, -0.00, -1.00, 213.7, 47.1)">.</text><text xml:space="preserve" font-family="HelveticaNeue-Medium,Helvetica Neue" font-size="26.0" fill="#3B3B3B" transform="matrix(1.00, 0.00, -0.00, -1.00, 221.0, 47.1)">a</text><text xml:space="preserve" font-family="HelveticaNeue-Medium,Helvetica Neue" font-size="26.0" fill="#3B3B3B" transform="matrix(1.00, 0.00, -0.00, -1.00, 235.4, 47.1)">p</text><text xml:space="preserve" font-family="HelveticaNeue-Medium,Helvetica Neue" font-size="26.0" fill="#3B3B3B" transform="matrix(1.00, 0.00, -0.00, -1.00, 251.3, 47.1)">k</text></g></g></g></svg>