<?xml version="1.0" encoding="UTF-8" standalone="no"?><svg xmlns="http://www.w3.org/2000/svg" xmlns:xlink="http://www.w3.org/1999/xlink" clip-rule="evenodd" stroke-miterlimit="10" viewBox="0 0 1024 768"><desc>SVG generated by Keynote</desc><defs><linearGradient id="gradSh1.27" x1="0.0" y1="0.0" x2="100.0" y2="0.0" gradientUnits="userSpaceOnUse" gradientTransform="matrix(0.00, -6.03, -8.54, 0.00, 512.0, 651.0)"><stop offset="0.00000" stop-color="#FFFFFF"></stop><stop offset="0.00806" stop-color="#FEFFFF"></stop><stop offset="1.00000" stop-color="#C2D6F6"></stop></linearGradient></defs><g transform="matrix(1.00, 0.00, -0.00, -1.00, 0.0, 768.0)"><g><clipPath id="clip0x608004eb2120"><path d="M 0.0 768.0 L 1024.0 768.0 L 1024.0 0.0 L 0.0 0.0 Z M 0.0 768.0 "></path></clipPath><g clip-path="url(#clip0x608004eb2120)"><image xlink:href="../../073872A3-6B4A-4DBD-B237-E9D6C1798DA3/assets/9397CAD6F20342ACC2646ABBCA758461.jpeg" width="2048.00" height="1536.00" transform="matrix(0.50, 0.00, -0.00, -0.50, 0.0, 768.0)"></image></g></g><image xlink:href="8C53BCD2A7C8EC97FF4A2AD063B7E9E3.png" width="860.00" height="609.00" transform="matrix(1.00, 0.00, -0.00, -1.00, 82.0, 652.0)" opacity="0.44"></image><g><clipPath id="clip0x6000074ac840"><path d="M 86.0 76.9 L 86.0 621.8 C 86.0 637.4 98.6 650.0 114.2 650.0 L 909.8 650.0 C 925.4 650.0 938.0 637.4 938.0 621.8 L 938.0 76.9 C 938.0 61.3 925.4 49.0 909.8 49.0 L 114.2 49.0 C 98.6 49.0 86.0 61.3 86.0 76.9 Z M 86.0 76.9 "></path></clipPath><g clip-path="url(#clip0x6000074ac840)"><path d="M 86.0 76.9 L 86.0 621.8 C 86.0 637.4 98.6 650.0 114.2 650.0 L 909.8 650.0 C 925.4 650.0 938.0 637.4 938.0 621.8 L 938.0 76.9 C 938.0 61.3 925.4 49.0 909.8 49.0 L 114.2 49.0 C 98.6 49.0 86.0 61.3 86.0 76.9 Z M 86.0 76.9 " fill="url(#gradSh1.27)"></path></g></g><image xlink:href="72807266E63F037D0E5520F6256C92D2.png" width="142.00" height="37.00" transform="matrix(1.00, 0.00, -0.00, -1.00, 126.0, 615.0)"></image><text xml:space="preserve" font-family="HelveticaNeue-Medium,Helvetica Neue" font-size="38.0" fill="#EAEAEA" transform="matrix(1.00, 0.00, -0.00, -1.00, 127.7, 585.1)">D</text><text xml:space="preserve" font-family="HelveticaNeue-Medium,Helvetica Neue" font-size="38.0" fill="#EAEAEA" transform="matrix(1.00, 0.00, -0.00, -1.00, 155.2, 585.1)">E</text><text xml:space="preserve" font-family="HelveticaNeue-Medium,Helvetica Neue" font-size="38.0" fill="#EAEAEA" transform="matrix(1.00, 0.00, -0.00, -1.00, 179.1, 585.1)">V</text><text xml:space="preserve" font-family="HelveticaNeue-Medium,Helvetica Neue" font-size="38.0" fill="#EAEAEA" transform="matrix(1.00, 0.00, -0.00, -1.00, 202.3, 585.1)">I</text><text xml:space="preserve" font-family="HelveticaNeue-Medium,Helvetica Neue" font-size="38.0" fill="#EAEAEA" transform="matrix(1.00, 0.00, -0.00, -1.00, 212.9, 585.1)">C</text><text xml:space="preserve" font-family="HelveticaNeue-Medium,Helvetica Neue" font-size="38.0" fill="#EAEAEA" transform="matrix(1.00, 0.00, -0.00, -1.00, 240.3, 585.1)">E</text><image xlink:href="771496A23A64E23424DF5403747470F0.png" width="327.00" height="45.00" transform="matrix(1.00, 0.00, -0.00, -1.00, 350.0, 733.0)"></image><text xml:space="preserve" font-family="LucidaGrande-Bold,Lucida Grande" font-weight="bold" font-size="49.3" fill="#FEFFFE" transform="matrix(1.00, 0.00, -0.00, -1.00, 349.9, 695.0)">U</text><text xml:space="preserve" font-family="LucidaGrande-Bold,Lucida Grande" font-weight="bold" font-size="49.3" fill="#FEFFFE" transform="matrix(1.00, 0.00, -0.00, -1.00, 386.2, 695.0)">I</text><text xml:space="preserve" font-family="LucidaGrande-Bold,Lucida Grande" font-weight="bold" font-size="49.3" fill="#FEFFFE" transform="matrix(1.00, 0.00, -0.00, -1.00, 402.5, 695.0)">A</text><text xml:space="preserve" font-family="LucidaGrande-Bold,Lucida Grande" font-weight="bold" font-size="49.3" fill="#FEFFFE" transform="matrix(1.00, 0.00, -0.00, -1.00, 438.8, 695.0)">u</text><text xml:space="preserve" font-family="LucidaGrande-Bold,Lucida Grande" font-weight="bold" font-size="49.3" fill="#FEFFFE" transform="matrix(1.00, 0.00, -0.00, -1.00, 471.2, 695.0)">t</text><text xml:space="preserve" font-family="LucidaGrande-Bold,Lucida Grande" font-weight="bold" font-size="49.3" fill="#FEFFFE" transform="matrix(1.00, 0.00, -0.00, -1.00, 491.2, 695.0)">o</text><text xml:space="preserve" font-family="LucidaGrande-Bold,Lucida Grande" font-weight="bold" font-size="49.3" fill="#FEFFFE" transform="matrix(1.00, 0.00, -0.00, -1.00, 522.6, 695.0)">m</text><text xml:space="preserve" font-family="LucidaGrande-Bold,Lucida Grande" font-weight="bold" font-size="49.3" fill="#FEFFFE" transform="matrix(1.00, 0.00, -0.00, -1.00, 570.3, 695.0)">a</text><text xml:space="preserve" font-family="LucidaGrande-Bold,Lucida Grande" font-weight="bold" font-size="49.3" fill="#FEFFFE" transform="matrix(1.00, 0.00, -0.00, -1.00, 599.3, 695.0)">t</text><text xml:space="preserve" font-family="LucidaGrande-Bold,Lucida Grande" font-weight="bold" font-size="49.3" fill="#FEFFFE" transform="matrix(1.00, 0.00, -0.00, -1.00, 619.3, 695.0)">o</text><text xml:space="preserve" font-family="LucidaGrande-Bold,Lucida Grande" font-weight="bold" font-size="49.3" fill="#FEFFFE" transform="matrix(1.00, 0.00, -0.00, -1.00, 650.8, 695.0)">r</text></g></svg>