<?xml version="1.0" encoding="UTF-8" standalone="no"?><svg xmlns="http://www.w3.org/2000/svg" xmlns:xlink="http://www.w3.org/1999/xlink" clip-rule="evenodd" stroke-miterlimit="10" viewBox="0 0 1024 768"><desc>SVG generated by Keynote</desc><defs></defs><g transform="matrix(1.00, 0.00, -0.00, -1.00, 0.0, 768.0)"><g><clipPath id="clip0x600008cbcfe0"><path d="M 0.0 768.0 L 1024.0 768.0 L 1024.0 0.0 L 0.0 0.0 Z M 0.0 768.0 "></path></clipPath><g clip-path="url(#clip0x600008cbcfe0)"><image xlink:href="../../073872A3-6B4A-4DBD-B237-E9D6C1798DA3/assets/9397CAD6F20342ACC2646ABBCA758461.jpeg" width="2048.00" height="1536.00" transform="matrix(0.50, 0.00, -0.00, -0.50, 0.0, 768.0)"></image></g></g><image xlink:href="F269F3E6A03174137CDA45D152D1BD82.png" width="265.00" height="87.00" transform="matrix(1.00, 0.00, -0.00, -1.00, 381.0, 418.0)"></image><text xml:space="preserve" font-family="LucidaGrande-Bold,Lucida Grande" font-weight="bold" font-size="88.0" fill="#FEFFFE" transform="matrix(1.00, 0.00, -0.00, -1.00, 381.6, 350.1)">Q</text><text xml:space="preserve" font-family="LucidaGrande-Bold,Lucida Grande" font-weight="bold" font-size="88.0" fill="#FEFFFE" transform="matrix(1.00, 0.00, -0.00, -1.00, 454.1, 350.1)"> </text><text xml:space="preserve" font-family="LucidaGrande-Bold,Lucida Grande" font-weight="bold" font-size="88.0" fill="#FEFFFE" transform="matrix(1.00, 0.00, -0.00, -1.00, 483.0, 350.1)">&amp;</text><text xml:space="preserve" font-family="LucidaGrande-Bold,Lucida Grande" font-weight="bold" font-size="88.0" fill="#FEFFFE" transform="matrix(1.00, 0.00, -0.00, -1.00, 548.5, 350.1)"> </text><text xml:space="preserve" font-family="LucidaGrande-Bold,Lucida Grande" font-weight="bold" font-size="88.0" fill="#FEFFFE" transform="matrix(1.00, 0.00, -0.00, -1.00, 577.5, 350.1)">A</text></g></svg>