<?xml version="1.0" encoding="UTF-8" standalone="no"?><svg xmlns="http://www.w3.org/2000/svg" xmlns:xlink="http://www.w3.org/1999/xlink" clip-rule="evenodd" stroke-miterlimit="10" viewBox="0 0 330 49"><desc>SVG generated by Keynote</desc><defs></defs><g transform="matrix(1.00, 0.00, -0.00, -1.00, 0.0, 49.0)"><image xlink:href="../../7439821E-CFCB-4A25-979F-4116502442DA/assets/771496A23A64E23424DF5403747470F0.png" width="327.00" height="45.00" transform="matrix(1.00, 0.00, -0.00, -1.00, 2.0, 47.0)"></image><text xml:space="preserve" font-family="LucidaGrande-Bold,Lucida Grande" font-weight="bold" font-size="49.3" fill="#FEFFFE" transform="matrix(1.00, 0.00, -0.00, -1.00, 1.9, 9.0)">U</text><text xml:space="preserve" font-family="LucidaGrande-Bold,Lucida Grande" font-weight="bold" font-size="49.3" fill="#FEFFFE" transform="matrix(1.00, 0.00, -0.00, -1.00, 38.2, 9.0)">I</text><text xml:space="preserve" font-family="LucidaGrande-Bold,Lucida Grande" font-weight="bold" font-size="49.3" fill="#FEFFFE" transform="matrix(1.00, 0.00, -0.00, -1.00, 54.5, 9.0)">A</text><text xml:space="preserve" font-family="LucidaGrande-Bold,Lucida Grande" font-weight="bold" font-size="49.3" fill="#FEFFFE" transform="matrix(1.00, 0.00, -0.00, -1.00, 90.8, 9.0)">u</text><text xml:space="preserve" font-family="LucidaGrande-Bold,Lucida Grande" font-weight="bold" font-size="49.3" fill="#FEFFFE" transform="matrix(1.00, 0.00, -0.00, -1.00, 123.2, 9.0)">t</text><text xml:space="preserve" font-family="LucidaGrande-Bold,Lucida Grande" font-weight="bold" font-size="49.3" fill="#FEFFFE" transform="matrix(1.00, 0.00, -0.00, -1.00, 143.2, 9.0)">o</text><text xml:space="preserve" font-family="LucidaGrande-Bold,Lucida Grande" font-weight="bold" font-size="49.3" fill="#FEFFFE" transform="matrix(1.00, 0.00, -0.00, -1.00, 174.6, 9.0)">m</text><text xml:space="preserve" font-family="LucidaGrande-Bold,Lucida Grande" font-weight="bold" font-size="49.3" fill="#FEFFFE" transform="matrix(1.00, 0.00, -0.00, -1.00, 222.3, 9.0)">a</text><text xml:space="preserve" font-family="LucidaGrande-Bold,Lucida Grande" font-weight="bold" font-size="49.3" fill="#FEFFFE" transform="matrix(1.00, 0.00, -0.00, -1.00, 251.3, 9.0)">t</text><text xml:space="preserve" font-family="LucidaGrande-Bold,Lucida Grande" font-weight="bold" font-size="49.3" fill="#FEFFFE" transform="matrix(1.00, 0.00, -0.00, -1.00, 271.3, 9.0)">o</text><text xml:space="preserve" font-family="LucidaGrande-Bold,Lucida Grande" font-weight="bold" font-size="49.3" fill="#FEFFFE" transform="matrix(1.00, 0.00, -0.00, -1.00, 302.8, 9.0)">r</text></g></svg>