<?xml version="1.0" encoding="UTF-8" standalone="no"?><svg xmlns="http://www.w3.org/2000/svg" xmlns:xlink="http://www.w3.org/1999/xlink" clip-rule="evenodd" stroke-miterlimit="10" viewBox="0 0 96 219"><desc>SVG generated by Keynote</desc><defs></defs><g transform="matrix(1.00, 0.00, -0.00, -1.00, 0.0, 219.0)"><path d="M 14.3 16.4 C 14.1 16.2 14.4 16.0 14.4 15.5 C 14.4 15.1 14.2 14.6 14.0 14.8 C 13.8 15.0 13.7 15.2 13.4 15.0 C 13.0 14.9 12.4 14.9 12.4 15.2 C 12.3 15.6 12.2 16.9 12.6 17.1 C 13.0 17.4 13.1 17.5 13.4 17.7 C 13.6 17.9 13.0 17.9 13.0 17.9 C 13.0 17.9 13.2 18.5 13.3 19.0 C 13.4 19.4 13.6 20.0 13.7 20.0 C 13.8 20.0 14.1 20.1 14.1 20.1 C 14.1 20.1 13.9 20.4 14.0 20.8 C 14.0 21.1 14.2 20.9 14.3 20.8 C 14.4 20.7 14.6 20.2 14.7 20.3 C 14.7 20.5 14.3 21.1 14.3 21.4 C 14.4 21.6 14.6 22.1 14.6 22.1 C 14.6 22.1 14.9 22.0 15.0 22.0 C 15.1 22.0 15.3 22.5 15.2 22.6 C 15.1 22.6 14.7 22.7 14.8 23.0 C 15.1 23.8 15.6 23.5 15.7 23.5 C 15.7 23.6 15.2 23.8 15.2 24.0 C 15.2 24.2 15.9 25.8 16.0 25.8 C 16.2 25.9 16.0 26.5 16.3 26.7 C 16.7 26.8 16.8 26.8 16.9 26.8 C 17.0 26.9 17.6 27.0 17.5 27.2 C 17.4 27.4 16.6 27.0 16.5 27.2 C 16.4 27.5 16.8 28.5 17.0 28.6 C 17.3 28.8 17.8 28.7 17.8 28.8 C 17.9 28.9 17.5 29.7 17.6 29.7 C 17.7 29.8 18.2 29.6 18.3 29.6 C 18.4 29.6 19.4 29.4 19.4 29.3 C 19.5 29.1 19.6 28.4 19.4 28.6 C 19.2 28.7 18.9 29.0 18.7 28.8 C 18.5 28.6 18.5 28.5 18.5 28.5 C 18.6 28.4 18.8 28.4 18.8 28.0 C 18.8 27.6 19.1 27.7 19.0 27.4 C 18.8 27.1 18.7 26.8 18.5 26.9 C 18.3 27.0 17.9 26.8 17.8 26.5 C 17.8 26.3 18.3 26.5 18.2 25.7 C 18.1 24.9 18.0 24.4 17.7 24.3 C 17.5 24.1 17.0 24.3 17.1 23.8 C 17.2 23.4 17.4 23.5 17.2 23.1 C 17.0 22.6 16.5 22.6 16.4 22.3 C 16.2 22.0 16.2 21.9 16.2 21.9 C 16.2 21.9 16.9 21.8 16.7 21.1 C 16.4 20.4 16.4 20.3 16.1 20.6 C 15.7 20.9 15.5 20.4 15.7 20.2 C 16.0 20.1 16.0 19.6 16.0 19.4 C 15.9 19.1 15.2 19.3 15.1 19.3 C 15.1 19.2 15.0 18.9 15.3 18.9 C 15.6 18.9 15.5 18.6 15.5 18.4 C 15.5 18.1 15.2 17.5 15.1 17.6 C 15.0 17.7 14.6 18.1 14.7 17.6 C 14.8 17.1 15.1 16.9 14.9 16.5 C 14.8 16.1 14.5 16.6 14.3 16.4 C 14.3 16.4 14.3 16.4 14.3 16.4 Z M 19.8 29.4 C 19.5 28.7 17.8 29.9 17.5 30.3 C 17.2 30.7 17.6 31.1 17.8 31.6 C 17.9 32.2 18.4 31.8 18.7 32.0 C 19.0 32.2 18.5 32.3 18.3 32.5 C 18.1 32.7 18.6 33.4 18.7 33.8 C 18.9 34.3 19.7 34.5 19.8 34.9 C 20.0 35.2 20.0 34.4 20.3 35.1 C 20.5 35.7 20.0 35.5 19.5 34.9 C 19.1 34.2 19.3 35.3 19.4 35.7 C 19.4 36.2 20.0 36.8 20.1 37.1 C 20.1 37.4 20.5 36.8 20.6 37.3 C 20.8 37.8 20.2 37.7 20.3 38.2 C 20.4 38.7 20.9 38.5 21.0 38.7 C 21.2 38.9 20.9 39.0 21.0 39.2 C 21.0 39.4 21.0 39.8 21.3 40.2 C 21.5 40.6 21.6 40.4 21.7 40.6 C 21.9 40.8 22.0 41.2 22.0 41.2 C 21.8 41.2 21.7 41.3 21.5 41.4 C 21.5 41.4 21.8 42.2 21.9 42.5 C 21.9 42.7 22.3 43.2 22.4 43.0 C 22.4 42.8 22.9 43.3 22.9 43.4 C 22.9 43.6 22.8 44.1 22.8 44.4 C 22.8 44.7 24.0 44.2 24.1 44.1 C 24.3 44.1 25.0 44.0 25.0 43.7 C 25.0 43.4 24.7 43.3 24.9 43.3 C 25.1 43.3 24.6 42.6 24.5 42.4 C 24.5 42.2 23.9 42.1 23.9 42.1 C 23.9 42.1 23.5 42.1 23.4 41.7 C 23.2 41.4 23.9 41.0 23.9 41.0 C 23.9 41.0 23.9 40.6 23.7 40.2 C 23.6 39.8 22.8 39.6 22.6 39.5 C 22.4 39.5 23.0 39.3 23.0 39.0 C 23.0 38.7 23.0 38.2 22.9 38.1 C 22.8 38.0 22.4 37.9 22.4 37.9 C 22.4 37.9 21.9 37.5 21.9 37.4 C 21.8 37.3 22.5 37.3 22.5 37.3 C 22.5 37.3 22.2 36.1 22.2 35.9 C 22.1 35.6 21.9 35.3 21.8 35.2 C 21.7 35.0 20.9 35.0 20.9 34.8 C 20.9 34.5 21.4 34.8 21.4 34.6 C 21.4 34.3 21.3 33.8 21.3 33.7 C 21.2 33.6 21.0 33.5 20.8 33.3 C 20.7 33.1 20.1 33.0 20.0 32.7 C 19.9 32.4 20.1 32.1 20.1 32.0 C 20.2 31.8 20.6 31.6 20.5 31.3 C 20.4 31.0 20.2 31.3 20.1 31.1 C 20.0 30.9 19.7 31.0 19.6 30.7 C 19.6 30.4 20.2 30.4 20.1 30.1 C 20.0 30.0 20.1 30.1 19.8 29.4 C 19.8 29.4 19.8 29.4 19.8 29.4 Z M 25.2 44.3 C 25.3 43.9 24.9 43.7 24.6 43.8 C 24.4 44.0 23.7 44.4 23.5 44.3 C 23.3 44.3 22.6 44.0 22.7 44.7 C 22.9 45.3 23.1 45.4 23.3 45.3 C 23.4 45.3 24.2 45.1 24.2 45.3 C 24.2 45.5 24.1 45.7 24.0 45.8 C 23.9 45.9 23.3 46.4 23.5 46.6 C 23.7 46.9 24.0 47.1 24.0 47.1 C 24.1 47.2 24.1 47.4 24.2 47.5 C 24.2 47.5 23.9 48.1 24.2 48.4 C 24.4 48.7 24.5 49.0 24.6 49.3 C 24.6 49.6 24.8 49.8 25.0 49.8 C 25.1 49.8 25.9 49.9 25.9 49.9 C 25.9 49.9 26.2 50.2 26.1 50.4 C 26.1 50.6 25.8 50.7 25.6 50.7 C 25.5 50.7 25.2 50.9 25.2 51.2 C 25.2 51.4 25.3 52.6 25.5 52.7 C 25.8 52.8 26.0 52.7 26.2 52.8 C 26.3 52.9 26.6 53.6 26.4 53.7 C 26.3 53.8 25.9 53.9 26.0 54.1 C 26.1 54.3 26.2 54.7 26.3 54.7 C 26.4 54.7 26.5 54.7 26.7 54.7 C 26.9 54.6 27.2 55.0 27.4 55.0 C 27.5 55.1 27.6 55.4 27.6 55.4 C 27.6 55.6 27.5 55.7 27.5 55.9 C 27.5 55.9 27.0 55.8 26.9 55.7 C 26.8 55.6 26.6 55.9 26.7 56.0 C 26.7 56.2 27.0 56.9 27.0 56.9 C 27.3 56.8 27.6 56.8 27.9 56.7 C 28.0 56.8 28.1 57.0 28.2 57.2 C 28.2 57.2 27.3 57.4 27.4 57.8 C 27.5 58.2 27.7 58.6 27.7 58.6 C 27.7 58.6 28.2 58.9 28.3 59.0 C 28.3 59.0 29.2 58.8 29.2 58.8 C 29.5 58.6 29.8 58.5 30.1 58.3 C 30.1 58.3 30.3 57.8 30.1 57.6 C 29.9 57.4 29.6 57.7 29.4 57.7 C 29.2 57.7 28.9 57.4 28.9 57.4 C 29.0 57.2 29.2 57.0 29.3 56.7 C 29.3 56.7 29.4 56.5 29.5 56.3 C 29.6 56.1 29.5 55.5 29.4 55.3 C 29.2 55.2 28.9 55.1 28.7 55.0 C 28.5 54.8 28.2 55.0 28.3 54.6 C 28.5 54.3 28.7 54.1 28.6 54.0 C 28.6 53.8 28.1 53.4 28.1 53.4 C 27.9 53.3 27.8 53.2 27.7 53.1 C 27.7 53.1 27.4 52.7 27.5 52.6 C 27.7 52.5 27.2 51.7 27.2 51.7 C 27.2 51.7 27.8 51.6 27.8 51.4 C 27.8 51.1 27.8 50.8 27.6 50.5 C 27.4 50.2 26.8 50.1 26.8 50.1 C 26.9 50.0 27.0 49.8 27.1 49.7 C 27.0 49.3 26.9 49.0 26.9 48.7 C 26.9 48.7 26.6 48.0 26.5 48.0 C 26.4 48.1 25.9 48.3 25.8 48.4 C 25.6 48.4 25.3 48.1 25.5 47.9 C 25.6 47.8 26.0 47.4 26.0 47.4 C 26.0 47.4 26.1 47.0 26.1 46.7 C 26.1 46.5 25.8 46.3 25.6 46.2 C 25.5 46.2 25.0 46.0 25.0 46.0 C 25.2 45.8 25.3 45.7 25.4 45.5 C 25.4 45.5 25.0 45.1 25.2 44.3 C 25.2 44.3 25.2 44.3 25.2 44.3 Z M 30.5 58.5 C 30.2 57.8 28.6 59.0 28.3 59.4 C 28.0 59.8 28.4 60.2 28.5 60.7 C 28.7 61.2 29.2 60.9 29.5 61.1 C 29.7 61.3 29.3 61.3 29.1 61.6 C 28.9 61.8 29.4 62.4 29.5 62.9 C 29.7 63.4 30.5 63.6 30.6 64.0 C 30.8 64.3 30.8 63.5 31.0 64.2 C 31.2 64.8 30.8 64.6 30.3 64.0 C 29.9 63.3 30.1 64.4 30.1 64.8 C 30.2 65.3 30.8 65.8 30.8 66.2 C 30.9 66.5 31.3 65.9 31.4 66.4 C 31.6 66.9 31.0 66.8 31.1 67.3 C 31.2 67.8 31.6 67.6 31.8 67.8 C 32.0 68.0 31.7 68.1 31.8 68.3 C 31.8 68.5 31.8 68.9 32.1 69.3 C 32.3 69.7 32.4 69.5 32.5 69.7 C 32.6 69.9 32.8 70.2 32.8 70.2 C 32.6 70.3 32.5 70.4 32.3 70.5 C 32.3 70.5 32.6 71.3 32.6 71.6 C 32.7 71.8 33.1 72.3 33.2 72.1 C 33.2 71.9 33.7 72.4 33.7 72.5 C 33.7 72.7 33.6 73.2 33.6 73.5 C 33.6 73.8 34.8 73.3 34.9 73.2 C 35.1 73.2 35.8 73.1 35.8 72.8 C 35.8 72.5 35.5 72.4 35.7 72.4 C 35.8 72.4 35.4 71.7 35.3 71.5 C 35.2 71.3 34.7 71.2 34.7 71.2 C 34.7 71.2 34.3 71.2 34.1 70.8 C 34.0 70.5 34.7 70.1 34.7 70.1 C 34.7 70.1 34.7 69.7 34.5 69.3 C 34.4 68.9 33.6 68.7 33.4 68.6 C 33.2 68.6 33.8 68.4 33.8 68.1 C 33.7 67.8 33.8 67.3 33.7 67.2 C 33.6 67.1 33.1 67.0 33.1 67.0 C 33.1 67.0 32.7 66.6 32.7 66.5 C 32.6 66.3 33.3 66.4 33.3 66.4 C 33.3 66.4 33.0 65.2 33.0 64.9 C 32.9 64.7 32.7 64.4 32.6 64.2 C 32.5 64.1 31.7 64.1 31.7 63.9 C 31.6 63.6 32.2 63.9 32.2 63.7 C 32.2 63.4 32.1 62.9 32.1 62.8 C 32.0 62.7 31.7 62.6 31.6 62.4 C 31.5 62.2 30.9 62.1 30.8 61.8 C 30.7 61.5 30.9 61.2 30.9 61.0 C 31.0 60.9 31.4 60.7 31.3 60.4 C 31.2 60.1 31.0 60.4 30.9 60.2 C 30.8 59.9 30.5 60.1 30.4 59.8 C 30.4 59.5 31.0 59.5 30.8 59.2 C 30.8 59.1 30.8 59.2 30.5 58.5 C 30.5 58.5 30.5 58.5 30.5 58.5 Z M 36.0 73.4 C 36.1 73.0 35.7 72.8 35.4 72.9 C 35.2 73.1 34.5 73.5 34.3 73.4 C 34.0 73.3 33.4 73.1 33.5 73.8 C 33.7 74.4 33.9 74.5 34.1 74.4 C 34.2 74.4 35.0 74.2 35.0 74.4 C 35.0 74.6 34.8 74.8 34.8 74.9 C 34.7 75.0 34.1 75.5 34.3 75.7 C 34.5 76.0 34.8 76.2 34.8 76.2 C 34.9 76.3 34.9 76.5 35.0 76.6 C 35.0 76.6 34.7 77.2 34.9 77.5 C 35.2 77.8 35.3 78.1 35.4 78.4 C 35.4 78.7 35.6 78.9 35.8 78.9 C 35.9 78.8 36.6 79.0 36.6 79.0 C 36.6 79.0 36.9 79.3 36.9 79.5 C 36.9 79.7 36.6 79.8 36.4 79.8 C 36.3 79.8 36.0 80.0 36.0 80.3 C 36.0 80.5 36.1 81.7 36.3 81.8 C 36.6 81.9 36.8 81.8 36.9 81.9 C 37.1 82.0 37.4 82.7 37.2 82.8 C 37.1 82.9 36.7 83.0 36.8 83.2 C 36.9 83.4 37.0 83.8 37.1 83.8 C 37.2 83.8 37.3 83.8 37.5 83.8 C 37.7 83.7 38.0 84.1 38.1 84.1 C 38.3 84.2 38.4 84.5 38.4 84.5 C 38.4 84.7 38.3 84.8 38.3 85.0 C 38.3 85.0 37.8 84.9 37.7 84.8 C 37.6 84.7 37.4 85.0 37.5 85.1 C 37.5 85.3 37.8 86.0 37.8 86.0 C 38.1 85.9 38.4 85.8 38.6 85.8 C 38.8 85.9 38.9 86.1 39.0 86.3 C 39.0 86.3 38.0 86.5 38.2 86.9 C 38.3 87.3 38.5 87.7 38.5 87.7 C 38.5 87.7 39.0 88.0 39.1 88.1 C 39.1 88.1 40.0 87.9 40.0 87.9 C 40.3 87.7 40.6 87.6 40.9 87.4 C 40.9 87.4 41.1 86.9 40.9 86.7 C 40.6 86.5 40.4 86.8 40.2 86.8 C 40.0 86.8 39.7 86.5 39.7 86.5 C 39.8 86.3 40.0 86.1 40.1 85.8 C 40.1 85.8 40.2 85.6 40.3 85.4 C 40.4 85.2 40.3 84.6 40.1 84.4 C 40.0 84.3 39.7 84.2 39.5 84.1 C 39.3 83.9 39.0 84.1 39.1 83.7 C 39.2 83.4 39.5 83.2 39.4 83.1 C 39.4 82.9 38.9 82.5 38.9 82.5 C 38.7 82.4 38.6 82.3 38.5 82.2 C 38.5 82.2 38.1 81.8 38.3 81.7 C 38.5 81.6 38.0 80.8 38.0 80.8 C 38.0 80.8 38.6 80.7 38.6 80.5 C 38.6 80.2 38.6 79.8 38.4 79.6 C 38.2 79.3 37.6 79.2 37.6 79.2 C 37.7 79.1 37.8 78.9 37.9 78.8 C 37.8 78.4 37.7 78.1 37.7 77.8 C 37.7 77.8 37.4 77.1 37.3 77.1 C 37.2 77.2 36.7 77.4 36.6 77.4 C 36.4 77.5 36.1 77.1 36.3 77.0 C 36.4 76.9 36.7 76.4 36.7 76.4 C 36.7 76.4 36.9 76.1 36.9 75.8 C 36.8 75.6 36.6 75.4 36.4 75.3 C 36.3 75.3 35.8 75.1 35.8 75.1 C 35.9 74.9 36.1 74.8 36.2 74.6 C 36.2 74.6 35.8 74.2 36.0 73.4 C 36.0 73.4 36.0 73.4 36.0 73.4 Z M 41.3 87.6 C 41.0 86.9 39.4 88.1 39.1 88.5 C 38.8 88.9 39.2 89.3 39.3 89.8 C 39.4 90.3 40.0 90.0 40.3 90.2 C 40.5 90.4 40.1 90.4 39.9 90.7 C 39.6 90.9 40.2 91.5 40.3 92.0 C 40.4 92.5 41.2 92.7 41.4 93.1 C 41.6 93.4 41.6 92.6 41.8 93.3 C 42.0 93.9 41.6 93.7 41.1 93.1 C 40.6 92.4 40.9 93.5 40.9 93.9 C 41.0 94.4 41.5 94.9 41.6 95.3 C 41.7 95.6 42.0 95.0 42.2 95.5 C 42.4 96.0 41.8 95.9 41.9 96.4 C 42.0 96.9 42.4 96.7 42.6 96.9 C 42.8 97.1 42.5 97.2 42.6 97.4 C 42.6 97.6 42.6 98.0 42.9 98.4 C 43.1 98.8 43.2 98.6 43.3 98.8 C 43.4 99.0 43.6 99.3 43.6 99.3 C 43.4 99.4 43.3 99.5 43.1 99.6 C 43.1 99.6 43.4 100.4 43.4 100.7 C 43.5 100.9 43.9 101.4 43.9 101.2 C 44.0 101.0 44.5 101.5 44.5 101.6 C 44.5 101.8 44.4 102.3 44.4 102.6 C 44.4 102.9 45.6 102.4 45.7 102.3 C 45.9 102.2 46.6 102.2 46.6 101.9 C 46.6 101.6 46.3 101.5 46.4 101.5 C 46.6 101.5 46.2 100.8 46.1 100.6 C 46.0 100.4 45.5 100.3 45.5 100.3 C 45.5 100.3 45.0 100.3 44.9 99.9 C 44.8 99.6 45.5 99.2 45.5 99.2 C 45.5 99.2 45.5 98.8 45.3 98.4 C 45.1 98.0 44.4 97.8 44.2 97.7 C 44.0 97.7 44.6 97.5 44.6 97.2 C 44.5 96.9 44.6 96.4 44.5 96.3 C 44.4 96.2 43.9 96.1 43.9 96.1 C 43.9 96.1 43.5 95.7 43.5 95.6 C 43.4 95.4 44.1 95.4 44.1 95.4 C 44.1 95.4 43.8 94.3 43.8 94.0 C 43.7 93.8 43.4 93.5 43.4 93.3 C 43.3 93.2 42.5 93.2 42.4 93.0 C 42.4 92.7 43.0 93.0 43.0 92.8 C 42.9 92.5 42.9 92.0 42.9 91.9 C 42.8 91.8 42.5 91.7 42.4 91.5 C 42.3 91.3 41.7 91.2 41.6 90.9 C 41.4 90.6 41.7 90.3 41.7 90.1 C 41.7 90.0 42.2 89.8 42.1 89.5 C 42.0 89.2 41.8 89.5 41.7 89.3 C 41.6 89.0 41.2 89.2 41.2 88.9 C 41.2 88.6 41.8 88.6 41.6 88.3 C 41.6 88.2 41.6 88.3 41.3 87.6 C 41.3 87.6 41.3 87.6 41.3 87.6 Z M 46.6 103.7 C 46.5 103.5 46.8 103.3 46.8 102.8 C 46.7 102.4 46.6 101.9 46.4 102.1 C 46.2 102.2 46.1 102.4 45.7 102.3 C 45.4 102.2 44.8 102.2 44.7 102.5 C 44.6 102.9 44.5 104.2 44.9 104.4 C 45.3 104.7 45.5 104.8 45.7 105.0 C 46.0 105.2 45.4 105.2 45.4 105.2 C 45.4 105.2 45.5 105.8 45.7 106.3 C 45.8 106.7 46.0 107.2 46.1 107.3 C 46.2 107.3 46.5 107.4 46.5 107.4 C 46.5 107.4 46.3 107.7 46.3 108.0 C 46.4 108.4 46.5 108.2 46.6 108.1 C 46.7 108.0 47.0 107.5 47.0 107.6 C 47.1 107.8 46.7 108.4 46.7 108.7 C 46.7 108.9 47.0 109.4 47.0 109.4 C 47.0 109.4 47.3 109.3 47.4 109.3 C 47.4 109.3 47.7 109.8 47.6 109.9 C 47.5 109.9 47.1 110.0 47.2 110.3 C 47.4 111.1 48.0 110.8 48.1 110.8 C 48.1 110.9 47.6 111.1 47.6 111.3 C 47.6 111.5 48.3 113.1 48.4 113.1 C 48.6 113.1 48.3 113.8 48.7 114.0 C 49.1 114.1 49.2 114.1 49.3 114.1 C 49.4 114.2 50.0 114.3 49.9 114.5 C 49.7 114.7 48.9 114.3 48.9 114.5 C 48.8 114.8 49.1 115.8 49.3 115.9 C 49.6 116.1 50.1 116.0 50.2 116.1 C 50.2 116.2 49.8 117.0 49.9 117.0 C 50.1 117.0 50.6 116.9 50.7 116.9 C 50.8 116.9 51.7 116.7 51.8 116.6 C 51.9 116.4 52.0 115.7 51.8 115.8 C 51.5 116.0 51.3 116.3 51.1 116.1 C 50.9 115.9 50.8 115.8 50.9 115.7 C 51.0 115.7 51.1 115.7 51.2 115.3 C 51.2 114.9 51.5 115.0 51.3 114.7 C 51.2 114.4 51.0 114.1 50.8 114.2 C 50.7 114.3 50.3 114.1 50.2 113.8 C 50.1 113.6 50.7 113.8 50.6 113.0 C 50.5 112.2 50.3 111.7 50.1 111.6 C 49.9 111.4 49.3 111.6 49.4 111.1 C 49.5 110.7 49.7 110.8 49.5 110.4 C 49.4 109.9 48.9 109.9 48.7 109.6 C 48.6 109.3 48.6 109.2 48.6 109.2 C 48.6 109.2 49.2 109.1 49.0 108.4 C 48.8 107.7 48.8 107.6 48.4 107.9 C 48.1 108.2 47.8 107.7 48.1 107.5 C 48.4 107.4 48.4 106.9 48.4 106.7 C 48.3 106.4 47.6 106.6 47.5 106.5 C 47.5 106.5 47.4 106.2 47.7 106.2 C 47.9 106.2 47.9 105.9 47.9 105.7 C 47.9 105.4 47.6 104.8 47.5 104.9 C 47.4 104.9 47.0 105.4 47.1 104.9 C 47.2 104.4 47.5 104.2 47.3 103.8 C 47.1 103.4 46.8 103.9 46.6 103.7 C 46.6 103.7 46.6 103.7 46.6 103.7 Z M 52.1 117.1 C 52.3 116.6 51.8 116.4 51.6 116.6 C 51.3 116.7 50.7 117.1 50.5 117.0 C 50.2 117.0 49.6 116.8 49.7 117.4 C 49.8 118.1 50.1 118.1 50.3 118.1 C 50.4 118.0 51.2 117.9 51.2 118.0 C 51.2 118.2 51.0 118.5 51.0 118.5 C 50.9 118.6 50.3 119.1 50.5 119.4 C 50.7 119.6 51.0 119.8 51.0 119.8 C 51.1 120.0 51.1 120.1 51.2 120.3 C 51.2 120.3 50.9 120.8 51.1 121.1 C 51.4 121.4 51.5 121.8 51.5 122.1 C 51.6 122.3 51.8 122.5 51.9 122.5 C 52.1 122.5 52.8 122.6 52.8 122.6 C 52.8 122.6 53.1 122.9 53.1 123.1 C 53.0 123.3 52.7 123.5 52.6 123.5 C 52.4 123.5 52.1 123.6 52.2 123.9 C 52.2 124.2 52.3 125.4 52.5 125.5 C 52.8 125.6 53.0 125.4 53.1 125.5 C 53.2 125.6 53.5 126.3 53.4 126.4 C 53.2 126.5 52.9 126.6 53.0 126.8 C 53.1 127.0 53.1 127.5 53.2 127.4 C 53.3 127.4 53.5 127.5 53.7 127.4 C 53.9 127.4 54.2 127.7 54.3 127.8 C 54.5 127.8 54.6 128.1 54.6 128.1 C 54.6 128.3 54.5 128.5 54.4 128.7 C 54.4 128.7 54.0 128.5 53.9 128.5 C 53.8 128.4 53.6 128.6 53.6 128.8 C 53.6 128.9 54.0 129.7 54.0 129.7 C 54.3 129.6 54.5 129.5 54.8 129.4 C 55.0 129.6 55.1 129.7 55.2 129.9 C 55.2 129.9 54.2 130.2 54.4 130.6 C 54.5 130.9 54.7 131.4 54.7 131.4 C 54.7 131.4 55.2 131.6 55.2 131.7 C 55.3 131.8 56.2 131.5 56.2 131.5 C 56.5 131.4 56.8 131.2 57.1 131.1 C 57.1 131.1 57.3 130.5 57.0 130.3 C 56.8 130.1 56.5 130.4 56.4 130.5 C 56.2 130.5 55.9 130.2 55.9 130.2 C 56.0 129.9 56.1 129.7 56.3 129.5 C 56.3 129.5 56.4 129.3 56.5 129.0 C 56.6 128.8 56.5 128.2 56.3 128.1 C 56.2 127.9 55.9 127.8 55.7 127.7 C 55.4 127.5 55.2 127.7 55.3 127.4 C 55.4 127.0 55.6 126.8 55.6 126.7 C 55.6 126.6 55.0 126.2 55.0 126.2 C 54.9 126.0 54.8 125.9 54.6 125.8 C 54.6 125.8 54.3 125.5 54.5 125.3 C 54.7 125.2 54.1 124.5 54.1 124.5 C 54.1 124.5 54.8 124.4 54.8 124.1 C 54.8 123.9 54.8 123.5 54.6 123.2 C 54.4 122.9 53.7 122.9 53.7 122.9 C 53.8 122.7 53.9 122.6 54.1 122.4 C 54.0 122.1 53.9 121.8 53.8 121.4 C 53.8 121.4 53.5 120.8 53.4 120.8 C 53.3 120.8 52.9 121.1 52.7 121.1 C 52.6 121.1 52.3 120.8 52.4 120.7 C 52.6 120.6 52.9 120.1 52.9 120.1 C 52.9 120.1 53.1 119.7 53.1 119.5 C 53.0 119.3 52.7 119.0 52.6 118.9 C 52.5 118.9 52.0 118.7 52.0 118.7 C 52.1 118.6 52.2 118.4 52.4 118.3 C 52.4 118.3 51.9 117.8 52.1 117.1 C 52.1 117.1 52.1 117.1 52.1 117.1 Z M 57.5 131.3 C 57.2 130.6 55.5 131.7 55.3 132.1 C 55.0 132.6 55.4 133.0 55.5 133.5 C 55.6 134.0 56.2 133.6 56.4 133.8 C 56.7 134.0 56.3 134.1 56.1 134.3 C 55.8 134.5 56.3 135.2 56.5 135.7 C 56.6 136.1 57.4 136.3 57.6 136.7 C 57.8 137.0 57.8 136.3 58.0 136.9 C 58.2 137.6 57.8 137.4 57.3 136.7 C 56.8 136.0 57.0 137.1 57.1 137.6 C 57.2 138.0 57.7 138.6 57.8 138.9 C 57.9 139.3 58.2 138.7 58.4 139.2 C 58.5 139.6 58.0 139.6 58.1 140.1 C 58.2 140.6 58.6 140.3 58.8 140.5 C 59.0 140.7 58.7 140.8 58.7 141.0 C 58.8 141.2 58.8 141.6 59.0 142.0 C 59.3 142.4 59.4 142.2 59.5 142.4 C 59.6 142.6 59.7 143.0 59.7 143.0 C 59.6 143.1 59.5 143.2 59.3 143.2 C 59.3 143.2 59.6 144.1 59.6 144.3 C 59.7 144.6 60.1 145.1 60.1 144.9 C 60.2 144.7 60.7 145.1 60.7 145.3 C 60.6 145.4 60.6 145.9 60.6 146.2 C 60.6 146.5 61.7 146.0 61.9 146.0 C 62.1 145.9 62.8 145.8 62.8 145.5 C 62.7 145.3 62.4 145.2 62.6 145.1 C 62.8 145.1 62.4 144.5 62.3 144.3 C 62.2 144.0 61.7 144.0 61.7 144.0 C 61.7 144.0 61.2 143.9 61.1 143.6 C 61.0 143.3 61.7 142.9 61.7 142.9 C 61.7 142.9 61.7 142.4 61.5 142.0 C 61.3 141.6 60.5 141.4 60.4 141.4 C 60.2 141.3 60.8 141.2 60.7 140.8 C 60.7 140.5 60.7 140.0 60.7 139.9 C 60.6 139.8 60.1 139.8 60.1 139.8 C 60.1 139.8 59.7 139.3 59.6 139.2 C 59.6 139.1 60.2 139.1 60.2 139.1 C 60.2 139.1 60.0 137.9 59.9 137.7 C 59.9 137.4 59.6 137.1 59.5 137.0 C 59.4 136.8 58.7 136.9 58.6 136.6 C 58.6 136.3 59.2 136.7 59.1 136.4 C 59.1 136.1 59.1 135.6 59.1 135.5 C 59.0 135.4 58.7 135.3 58.6 135.1 C 58.5 135.0 57.9 134.9 57.7 134.5 C 57.6 134.2 57.9 133.9 57.9 133.8 C 57.9 133.6 58.3 133.4 58.3 133.1 C 58.2 132.9 57.9 133.2 57.9 132.9 C 57.8 132.7 57.4 132.8 57.4 132.6 C 57.4 132.3 58.0 132.2 57.8 132.0 C 57.7 131.9 57.8 132.0 57.5 131.3 C 57.5 131.3 57.5 131.3 57.5 131.3 Z M 62.9 146.2 C 63.1 145.7 62.6 145.5 62.4 145.7 C 62.1 145.8 61.5 146.2 61.3 146.1 C 61.0 146.1 60.4 145.9 60.5 146.5 C 60.6 147.2 60.9 147.2 61.0 147.2 C 61.2 147.1 62.0 147.0 62.0 147.1 C 62.0 147.3 61.8 147.6 61.7 147.6 C 61.7 147.7 61.1 148.2 61.3 148.5 C 61.5 148.7 61.8 148.9 61.8 148.9 C 61.8 149.1 61.9 149.2 62.0 149.4 C 62.0 149.4 61.7 149.9 61.9 150.2 C 62.1 150.5 62.3 150.9 62.3 151.1 C 62.4 151.4 62.5 151.6 62.7 151.6 C 62.9 151.6 63.6 151.7 63.6 151.7 C 63.6 151.7 63.9 152.0 63.9 152.2 C 63.8 152.4 63.5 152.6 63.4 152.6 C 63.2 152.6 62.9 152.7 62.9 153.0 C 63.0 153.3 63.0 154.5 63.3 154.6 C 63.6 154.7 63.8 154.5 63.9 154.6 C 64.0 154.7 64.3 155.4 64.2 155.5 C 64.0 155.6 63.7 155.7 63.8 155.9 C 63.9 156.1 63.9 156.6 64.0 156.5 C 64.1 156.5 64.3 156.6 64.5 156.5 C 64.7 156.5 65.0 156.8 65.1 156.9 C 65.2 156.9 65.4 157.2 65.4 157.2 C 65.3 157.4 65.3 157.6 65.2 157.8 C 65.2 157.8 64.8 157.6 64.7 157.5 C 64.6 157.5 64.4 157.7 64.4 157.9 C 64.4 158.0 64.8 158.8 64.8 158.8 C 65.1 158.7 65.3 158.6 65.6 158.5 C 65.7 158.7 65.9 158.8 66.0 159.0 C 66.0 159.0 65.0 159.3 65.2 159.7 C 65.3 160.0 65.5 160.5 65.5 160.5 C 65.5 160.5 66.0 160.7 66.0 160.8 C 66.1 160.9 67.0 160.6 67.0 160.6 C 67.3 160.5 67.6 160.3 67.9 160.2 C 67.9 160.2 68.1 159.6 67.8 159.4 C 67.6 159.2 67.3 159.5 67.2 159.6 C 67.0 159.6 66.7 159.3 66.7 159.3 C 66.8 159.0 66.9 158.8 67.0 158.6 C 67.0 158.6 67.2 158.4 67.3 158.1 C 67.4 157.9 67.2 157.3 67.1 157.2 C 67.0 157.0 66.7 156.9 66.5 156.8 C 66.2 156.6 65.9 156.8 66.1 156.5 C 66.2 156.1 66.4 155.9 66.4 155.8 C 66.3 155.7 65.8 155.3 65.8 155.3 C 65.7 155.1 65.6 155.0 65.4 154.9 C 65.4 154.9 65.1 154.6 65.3 154.4 C 65.5 154.3 64.9 153.6 64.9 153.6 C 64.9 153.6 65.6 153.4 65.6 153.2 C 65.6 153.0 65.6 152.6 65.4 152.3 C 65.2 152.0 64.5 152.0 64.5 152.0 C 64.6 151.8 64.7 151.7 64.8 151.5 C 64.8 151.2 64.7 150.9 64.6 150.5 C 64.6 150.5 64.3 149.8 64.2 149.9 C 64.1 149.9 63.7 150.2 63.5 150.2 C 63.4 150.2 63.1 149.9 63.2 149.8 C 63.4 149.7 63.7 149.2 63.7 149.2 C 63.7 149.2 63.9 148.8 63.9 148.6 C 63.8 148.4 63.5 148.1 63.4 148.0 C 63.3 148.0 62.8 147.8 62.8 147.8 C 62.9 147.7 63.0 147.5 63.2 147.4 C 63.2 147.4 62.7 146.9 62.9 146.2 C 62.9 146.2 62.9 146.2 62.9 146.2 Z M 68.3 160.4 C 68.0 159.6 66.3 160.8 66.0 161.2 C 65.8 161.7 66.2 162.1 66.3 162.6 C 66.4 163.1 66.9 162.7 67.2 162.9 C 67.5 163.1 67.1 163.2 66.8 163.4 C 66.6 163.6 67.1 164.3 67.3 164.7 C 67.4 165.2 68.2 165.4 68.4 165.8 C 68.6 166.1 68.6 165.4 68.8 166.0 C 69.0 166.7 68.5 166.5 68.1 165.8 C 67.6 165.1 67.8 166.2 67.9 166.7 C 68.0 167.1 68.5 167.7 68.6 168.0 C 68.7 168.4 69.0 167.8 69.2 168.2 C 69.3 168.7 68.8 168.7 68.9 169.2 C 69.0 169.7 69.4 169.4 69.6 169.6 C 69.8 169.8 69.5 169.9 69.5 170.1 C 69.6 170.3 69.6 170.7 69.8 171.1 C 70.1 171.5 70.2 171.3 70.3 171.5 C 70.4 171.7 70.5 172.1 70.5 172.1 C 70.4 172.2 70.2 172.3 70.1 172.3 C 70.1 172.3 70.4 173.2 70.4 173.4 C 70.5 173.7 70.9 174.1 70.9 174.0 C 71.0 173.8 71.5 174.2 71.5 174.4 C 71.4 174.5 71.3 175.0 71.3 175.3 C 71.3 175.6 72.5 175.1 72.7 175.1 C 72.9 175.0 73.6 174.9 73.6 174.6 C 73.5 174.4 73.2 174.3 73.4 174.2 C 73.6 174.2 73.2 173.5 73.1 173.3 C 73.0 173.1 72.5 173.1 72.5 173.1 C 72.5 173.1 72.0 173.0 71.9 172.7 C 71.8 172.4 72.5 172.0 72.5 172.0 C 72.5 172.0 72.5 171.5 72.3 171.1 C 72.1 170.7 71.3 170.5 71.2 170.5 C 71.0 170.4 71.6 170.2 71.5 169.9 C 71.5 169.6 71.5 169.1 71.4 169.0 C 71.4 168.9 70.9 168.9 70.9 168.9 C 70.9 168.9 70.5 168.4 70.4 168.3 C 70.4 168.2 71.0 168.2 71.0 168.2 C 71.0 168.2 70.8 167.0 70.7 166.8 C 70.7 166.5 70.4 166.2 70.3 166.1 C 70.2 165.9 69.4 166.0 69.4 165.7 C 69.4 165.4 70.0 165.8 69.9 165.5 C 69.9 165.2 69.9 164.7 69.8 164.6 C 69.8 164.5 69.5 164.4 69.4 164.2 C 69.3 164.0 68.7 164.0 68.5 163.6 C 68.4 163.3 68.7 163.0 68.7 162.9 C 68.7 162.7 69.1 162.5 69.1 162.2 C 69.0 162.0 68.7 162.3 68.6 162.0 C 68.6 161.8 68.2 161.9 68.2 161.6 C 68.2 161.4 68.8 161.3 68.6 161.1 C 68.5 161.0 68.6 161.1 68.3 160.4 C 68.3 160.4 68.3 160.4 68.3 160.4 Z M 73.7 175.3 C 73.8 174.8 73.4 174.6 73.2 174.8 C 72.9 174.9 72.3 175.3 72.0 175.2 C 71.8 175.2 71.2 175.0 71.3 175.6 C 71.4 176.3 71.7 176.3 71.8 176.3 C 72.0 176.2 72.8 176.0 72.7 176.2 C 72.7 176.4 72.6 176.7 72.5 176.7 C 72.4 176.8 71.8 177.3 72.1 177.6 C 72.3 177.8 72.6 178.0 72.6 178.0 C 72.6 178.2 72.7 178.3 72.8 178.5 C 72.8 178.5 72.5 179.0 72.7 179.3 C 72.9 179.6 73.1 180.0 73.1 180.2 C 73.2 180.5 73.3 180.7 73.5 180.7 C 73.7 180.7 74.4 180.8 74.4 180.8 C 74.4 180.8 74.7 181.1 74.7 181.3 C 74.6 181.5 74.3 181.7 74.2 181.7 C 74.0 181.7 73.7 181.8 73.7 182.1 C 73.8 182.4 73.8 183.6 74.1 183.7 C 74.3 183.8 74.6 183.6 74.7 183.7 C 74.8 183.8 75.1 184.5 75.0 184.6 C 74.8 184.7 74.5 184.8 74.6 185.0 C 74.7 185.2 74.7 185.7 74.8 185.6 C 74.9 185.6 75.1 185.7 75.3 185.6 C 75.5 185.6 75.8 185.9 75.9 186.0 C 76.0 186.0 76.2 186.3 76.2 186.3 C 76.1 186.5 76.1 186.7 76.0 186.9 C 76.0 186.9 75.6 186.7 75.5 186.6 C 75.3 186.5 75.2 186.8 75.2 187.0 C 75.2 187.1 75.6 187.9 75.6 187.9 C 75.8 187.8 76.1 187.7 76.4 187.6 C 76.5 187.8 76.7 187.9 76.8 188.1 C 76.8 188.1 75.8 188.4 75.9 188.8 C 76.1 189.1 76.2 189.6 76.2 189.6 C 76.2 189.6 76.7 189.8 76.8 189.9 C 76.9 190.0 77.7 189.7 77.7 189.7 C 78.1 189.6 78.4 189.4 78.7 189.3 C 78.7 189.3 78.8 188.7 78.6 188.5 C 78.4 188.3 78.1 188.6 77.9 188.7 C 77.8 188.7 77.5 188.4 77.5 188.4 C 77.6 188.1 77.7 187.9 77.8 187.7 C 77.8 187.7 77.9 187.4 78.0 187.2 C 78.1 187.0 78.0 186.4 77.9 186.3 C 77.8 186.1 77.5 186.0 77.2 185.9 C 77.0 185.7 76.7 185.9 76.9 185.6 C 77.0 185.2 77.2 185.0 77.2 184.9 C 77.1 184.8 76.6 184.4 76.6 184.4 C 76.5 184.2 76.3 184.1 76.2 184.0 C 76.2 184.0 75.9 183.7 76.1 183.5 C 76.3 183.4 75.7 182.7 75.7 182.7 C 75.7 182.7 76.3 182.5 76.4 182.3 C 76.4 182.1 76.4 181.7 76.2 181.4 C 76.0 181.1 75.3 181.1 75.3 181.1 C 75.4 180.9 75.5 180.8 75.6 180.6 C 75.6 180.3 75.5 180.0 75.4 179.6 C 75.4 179.6 75.1 178.9 75.0 179.0 C 74.9 179.0 74.5 179.3 74.3 179.3 C 74.2 179.3 73.9 179.0 74.0 178.9 C 74.2 178.8 74.5 178.3 74.5 178.3 C 74.5 178.3 74.7 177.9 74.6 177.7 C 74.6 177.5 74.3 177.2 74.2 177.1 C 74.1 177.1 73.6 176.9 73.6 176.9 C 73.7 176.8 73.8 176.6 73.9 176.5 C 73.9 176.5 73.5 176.0 73.7 175.3 C 73.7 175.3 73.7 175.3 73.7 175.3 Z M 79.1 189.5 C 78.8 188.7 77.1 189.9 76.8 190.3 C 76.6 190.8 77.0 191.2 77.1 191.7 C 77.2 192.2 77.7 191.8 78.0 192.0 C 78.3 192.2 77.9 192.3 77.6 192.5 C 77.4 192.7 77.9 193.4 78.1 193.8 C 78.2 194.3 79.0 194.5 79.2 194.9 C 79.3 195.2 79.4 194.5 79.6 195.1 C 79.8 195.8 79.3 195.6 78.9 194.9 C 78.4 194.2 78.6 195.3 78.7 195.8 C 78.8 196.2 79.3 196.8 79.4 197.1 C 79.5 197.5 79.8 196.9 80.0 197.3 C 80.1 197.8 79.6 197.8 79.7 198.3 C 79.8 198.8 80.2 198.5 80.4 198.7 C 80.6 198.9 80.3 199.0 80.3 199.2 C 80.4 199.4 80.3 199.8 80.6 200.2 C 80.9 200.6 81.0 200.4 81.1 200.6 C 81.2 200.8 81.3 201.2 81.3 201.2 C 81.2 201.3 81.0 201.4 80.9 201.4 C 80.9 201.4 81.1 202.3 81.2 202.5 C 81.2 202.8 81.7 203.2 81.7 203.1 C 81.8 202.9 82.3 203.3 82.2 203.5 C 82.2 203.6 82.1 204.1 82.1 204.4 C 82.1 204.7 83.3 204.2 83.5 204.2 C 83.7 204.1 84.4 204.0 84.4 203.7 C 84.3 203.5 84.0 203.4 84.2 203.3 C 84.4 203.3 83.9 202.6 83.9 202.4 C 83.8 202.2 83.3 202.2 83.3 202.2 C 83.3 202.2 82.8 202.1 82.7 201.8 C 82.6 201.5 83.3 201.1 83.3 201.1 C 83.3 201.1 83.3 200.6 83.1 200.2 C 82.9 199.8 82.1 199.6 81.9 199.6 C 81.8 199.5 82.4 199.3 82.3 199.0 C 82.3 198.7 82.3 198.2 82.2 198.1 C 82.2 198.0 81.7 198.0 81.7 198.0 C 81.7 198.0 81.3 197.5 81.2 197.4 C 81.2 197.3 81.8 197.3 81.8 197.3 C 81.8 197.3 81.6 196.1 81.5 195.9 C 81.5 195.6 81.2 195.3 81.1 195.2 C 81.0 195.0 80.2 195.1 80.2 194.8 C 80.2 194.5 80.7 194.9 80.7 194.6 C 80.7 194.3 80.7 193.8 80.6 193.7 C 80.6 193.6 80.3 193.5 80.2 193.3 C 80.1 193.1 79.4 193.1 79.3 192.7 C 79.2 192.4 79.5 192.1 79.5 192.0 C 79.5 191.8 79.9 191.6 79.8 191.3 C 79.8 191.1 79.5 191.4 79.4 191.1 C 79.3 190.9 79.0 191.0 79.0 190.7 C 79.0 190.5 79.6 190.4 79.4 190.2 C 79.3 190.1 79.4 190.2 79.1 189.5 C 79.1 189.5 79.1 189.5 79.1 189.5 Z M 79.1 189.5 " fill="#878787"></path><path d="M 76.1 206.0 C 75.8 206.0 75.2 205.3 75.9 205.7 C 76.0 205.7 76.2 206.0 76.1 206.0 Z M 77.2 207.0 C 77.1 206.9 77.1 206.8 77.1 206.7 C 77.1 206.4 77.6 207.2 77.2 207.0 Z M 75.7 205.3 C 75.6 205.3 75.3 205.0 75.4 205.0 C 75.5 205.0 75.7 205.3 75.7 205.3 Z M 78.7 207.4 C 78.6 207.5 78.2 207.1 78.2 207.0 C 78.1 206.7 78.9 207.2 78.7 207.4 Z M 79.5 203.2 C 79.6 203.2 79.6 203.2 79.6 203.1 C 79.6 203.2 79.6 203.2 79.5 203.2 Z M 84.0 212.1 C 84.0 212.1 83.9 211.8 84.0 211.8 C 84.1 211.7 84.3 212.2 84.0 212.1 Z M 87.6 200.0 C 87.6 200.0 87.4 199.9 87.4 199.8 C 87.5 199.7 87.6 199.8 87.6 200.0 Z M 87.5 199.8 C 87.4 199.7 87.6 199.6 87.6 199.7 C 87.6 199.8 87.6 199.9 87.5 199.8 Z M 88.2 207.0 C 88.2 207.1 88.3 207.1 88.2 207.1 C 88.2 207.0 88.2 206.9 88.2 207.0 Z M 88.1 206.8 C 88.0 206.7 88.2 206.6 88.2 206.7 C 88.2 206.8 88.2 206.9 88.1 206.8 Z M 89.1 205.4 C 89.1 205.5 89.1 205.5 89.0 205.5 C 89.0 205.4 89.1 205.3 89.1 205.4 Z M 84.1 200.8 C 84.1 200.8 84.4 200.8 84.4 200.9 C 84.5 201.0 84.0 201.0 84.1 200.8 Z M 84.4 200.7 C 84.3 200.6 84.5 200.5 84.5 200.6 C 84.5 200.7 84.5 200.7 84.4 200.7 Z M 83.5 201.2 C 83.5 201.4 83.2 201.5 83.2 201.5 C 83.1 201.5 82.9 201.5 82.8 201.5 C 82.8 201.5 83.4 201.1 83.5 201.2 Z M 81.3 202.2 C 81.3 202.1 81.3 202.1 81.4 202.1 C 81.5 202.1 81.3 202.2 81.3 202.2 Z M 82.5 201.6 C 82.5 201.6 82.5 201.6 82.6 201.6 C 82.8 201.6 82.5 201.7 82.5 201.6 Z M 80.7 209.4 C 80.7 209.5 80.5 209.2 80.4 209.2 C 80.4 209.1 80.6 209.2 80.5 209.2 C 80.5 209.1 80.8 209.0 80.7 209.4 Z M 77.9 207.5 C 77.9 207.4 77.9 207.4 78.0 207.3 C 78.0 207.3 78.2 207.6 77.9 207.5 Z M 80.6 208.7 C 80.6 208.8 80.5 208.7 80.6 208.7 C 80.6 208.6 80.7 208.7 80.6 208.7 Z M 80.9 208.9 C 80.8 208.8 80.7 208.6 80.8 208.6 C 81.0 208.5 81.1 209.0 80.9 208.9 Z M 81.0 209.8 C 80.9 209.7 80.9 209.7 81.0 209.8 C 81.1 209.8 81.0 209.8 81.0 209.8 Z M 79.4 208.7 C 79.3 208.7 79.3 208.7 79.4 208.7 C 79.4 208.7 79.4 208.7 79.4 208.7 Z M 81.9 210.2 C 81.9 210.2 81.6 210.2 81.7 210.0 C 81.8 209.7 81.9 210.2 81.9 210.2 Z M 83.1 210.8 C 83.1 210.8 83.2 210.7 83.2 210.8 C 83.3 210.9 83.2 210.9 83.1 210.8 Z M 83.8 210.8 C 83.9 211.0 83.9 211.1 83.8 210.9 C 83.6 210.8 83.7 210.7 83.8 210.8 Z M 83.6 210.7 C 83.6 210.7 83.6 210.8 83.6 210.8 C 83.6 210.8 83.5 210.8 83.6 210.7 Z M 82.4 210.3 C 82.3 210.2 82.3 210.0 82.4 210.1 C 82.6 210.2 82.6 210.3 82.4 210.3 Z M 78.2 203.1 C 78.1 203.1 78.1 203.0 78.1 202.9 C 78.2 202.8 78.3 203.0 78.2 203.1 Z M 83.1 201.8 C 83.0 201.8 83.0 201.7 83.2 201.7 C 83.3 201.7 83.2 201.9 83.1 201.8 Z M 86.1 200.9 C 86.0 200.9 86.1 200.9 86.2 200.9 C 86.4 200.9 86.2 201.0 86.1 200.9 Z M 81.9 202.3 C 81.8 202.2 82.1 201.9 82.3 202.0 C 82.6 202.2 82.0 202.4 81.9 202.3 Z M 79.8 205.7 C 79.8 205.8 79.8 205.7 79.8 205.7 C 79.9 205.6 79.9 205.6 79.8 205.7 Z M 82.7 202.4 C 82.6 202.4 82.6 202.3 82.6 202.2 C 82.7 202.1 82.8 202.3 82.7 202.4 Z M 85.5 201.0 C 85.4 201.0 85.4 200.7 85.5 200.7 C 85.6 200.4 85.9 200.5 86.1 200.6 C 86.3 200.7 85.6 201.0 85.5 201.0 Z M 77.6 203.8 C 77.7 203.8 77.8 203.8 77.9 203.8 C 77.9 203.7 77.9 203.7 78.0 203.7 C 78.3 203.6 78.4 203.2 78.5 203.1 C 78.9 202.8 79.3 203.3 79.5 203.2 C 79.5 203.2 79.4 203.3 79.4 203.3 C 79.3 203.5 80.3 203.1 80.4 203.0 C 81.2 202.6 80.1 202.8 80.0 202.5 C 79.9 202.4 80.7 202.5 80.7 202.5 C 81.1 202.5 81.0 202.2 81.3 202.3 C 81.4 202.3 82.0 202.8 82.1 202.7 C 82.1 202.6 82.4 202.5 82.5 202.5 C 82.7 202.5 83.0 202.3 82.7 202.1 C 82.5 202.0 82.4 201.8 82.7 201.9 C 82.9 202.0 84.1 202.0 83.9 201.5 C 83.9 201.5 83.6 201.4 83.6 201.4 C 83.8 201.2 84.8 201.1 84.9 200.8 C 85.2 200.1 84.9 201.1 85.1 201.1 C 85.6 201.2 85.9 201.3 86.4 201.0 C 86.5 200.9 87.0 200.8 86.6 200.6 C 86.4 200.5 86.5 200.3 86.2 200.3 C 86.4 200.0 86.8 200.4 86.8 200.2 C 86.9 200.1 86.7 200.0 86.9 200.0 C 87.2 199.9 87.1 199.9 87.2 200.1 C 87.3 200.2 87.5 200.1 87.5 200.1 C 87.5 200.2 87.6 200.2 87.6 200.2 C 87.8 200.1 88.0 199.5 88.1 199.6 C 88.2 199.6 88.2 200.0 88.2 200.1 C 88.2 200.1 88.3 200.1 88.3 200.1 C 88.4 200.0 88.5 199.8 88.6 199.8 C 88.7 199.8 88.6 200.3 88.7 200.2 C 88.8 200.0 89.4 199.9 89.4 200.1 C 89.5 200.2 89.9 200.7 90.0 200.7 C 90.1 200.7 90.0 201.1 90.0 201.2 C 90.0 201.3 89.8 201.5 89.7 201.5 C 89.7 201.5 89.7 201.8 89.7 201.8 C 89.7 201.8 89.7 201.9 89.7 202.1 C 89.7 202.3 89.5 202.5 89.4 202.7 C 89.3 203.0 89.4 203.1 89.4 203.4 C 89.4 203.6 89.0 203.8 88.9 204.0 C 88.8 204.2 89.1 204.2 89.1 204.5 C 89.0 204.8 88.9 204.9 88.9 204.8 C 88.9 204.7 88.8 204.8 88.7 204.9 C 88.7 205.0 88.6 205.3 88.6 205.4 C 88.6 205.5 89.1 204.7 88.8 205.8 C 88.7 206.3 88.3 206.5 88.3 206.4 C 88.4 206.0 87.8 206.7 87.9 206.8 C 88.1 206.8 87.9 207.7 88.2 207.5 C 88.3 207.5 88.2 208.3 88.1 208.4 C 88.1 208.6 88.1 209.0 87.8 209.0 C 87.6 209.1 87.9 209.6 87.9 209.7 C 87.9 209.8 87.7 210.5 87.6 210.6 C 87.5 210.8 87.6 210.4 87.6 210.3 C 87.6 210.1 87.8 209.9 87.8 209.8 C 87.8 209.7 87.6 209.9 87.6 210.1 C 87.5 210.3 87.4 210.3 87.3 210.4 C 87.3 210.5 87.3 210.6 87.2 210.7 C 87.2 210.8 87.2 210.9 87.3 210.9 C 87.4 210.9 87.5 210.8 87.5 210.8 C 87.5 210.9 87.6 211.0 87.5 211.2 C 87.5 211.4 87.4 211.6 87.3 211.8 C 87.2 212.1 87.2 212.2 87.2 212.4 C 87.2 212.6 87.1 212.7 87.1 212.7 C 87.0 212.7 87.0 212.5 87.0 212.5 C 86.9 212.4 86.7 212.7 86.7 212.8 C 86.6 213.3 86.2 212.8 86.0 213.3 C 85.9 213.6 85.8 213.2 85.7 213.0 C 85.7 213.1 85.6 213.1 85.4 213.0 C 85.4 213.0 85.2 212.8 85.0 212.7 C 84.9 212.6 84.3 212.3 84.8 212.4 C 84.8 212.4 84.8 212.4 84.9 212.4 C 84.9 212.4 84.9 212.4 84.9 212.4 C 84.9 212.4 85.2 212.3 85.2 212.3 C 85.2 212.3 84.9 212.4 84.9 212.4 C 84.9 212.3 84.9 212.2 84.9 212.1 C 84.8 212.1 84.8 212.1 84.7 212.1 C 84.7 212.1 84.7 212.1 84.7 212.1 C 84.7 212.1 84.7 212.1 84.7 212.1 C 84.6 212.2 84.6 212.1 84.6 212.1 C 84.3 212.0 84.0 211.5 83.9 211.3 C 84.7 211.3 83.9 210.6 83.6 210.5 C 83.3 210.3 82.8 210.9 83.0 211.0 C 82.8 210.8 82.8 210.7 82.9 210.5 C 82.9 210.5 82.9 210.0 82.9 210.1 C 82.6 209.5 82.3 210.0 82.2 210.0 C 82.0 210.0 81.9 209.8 81.7 209.8 C 81.5 209.7 81.6 209.9 81.5 209.9 C 81.2 210.0 81.2 209.3 81.1 209.2 C 81.2 209.2 81.4 209.3 81.5 209.3 C 81.3 209.3 81.4 209.0 81.3 208.9 C 81.3 208.7 81.0 208.6 80.9 208.5 C 80.6 208.3 80.3 208.2 80.0 208.0 C 80.1 208.1 80.2 208.7 80.3 208.7 C 80.2 208.7 80.0 208.4 79.9 208.7 C 79.8 209.1 79.3 208.4 79.2 208.3 C 78.9 208.0 78.3 208.1 78.2 207.4 C 78.2 207.4 78.8 207.8 78.9 207.7 C 79.0 207.3 79.0 207.1 78.5 206.8 C 78.5 206.8 77.8 206.6 77.8 206.7 C 77.8 206.6 77.8 207.7 77.5 207.1 C 77.5 207.0 77.8 207.1 77.7 206.9 C 77.6 206.7 77.3 206.6 77.2 206.5 C 77.2 206.4 77.0 206.1 76.9 206.1 C 76.8 206.2 76.7 206.3 76.6 206.3 C 76.4 206.2 76.4 206.1 76.4 206.0 C 76.4 205.9 76.5 205.9 76.5 205.9 C 76.4 205.9 76.4 205.9 76.5 205.8 C 76.4 205.8 76.4 205.7 76.4 205.6 C 76.4 205.6 76.5 205.6 76.5 205.7 C 76.6 205.7 76.6 205.7 76.7 205.7 C 76.5 205.6 76.3 205.5 76.3 205.5 C 76.0 205.5 75.9 205.5 75.8 205.0 C 75.7 204.6 76.6 204.0 77.2 203.9 C 77.3 203.8 77.4 203.8 77.6 203.8 Z M 87.0 211.0 C 87.0 211.0 87.0 211.0 87.0 211.0 C 86.9 211.0 86.9 211.0 86.8 211.0 C 86.7 211.1 86.9 210.9 86.9 211.1 C 86.8 211.3 86.9 211.2 87.0 211.0 Z M 85.6 211.4 C 85.6 211.6 85.7 211.5 85.7 211.5 C 85.7 211.4 85.6 211.4 85.6 211.4 Z M 85.1 211.9 C 85.3 212.0 85.2 211.6 84.9 211.4 C 85.0 211.7 85.1 211.8 85.1 211.9 Z M 84.6 211.8 C 84.6 211.8 84.6 211.8 84.7 211.8 C 84.7 211.7 84.5 211.7 84.6 211.6 C 84.6 211.6 84.9 211.6 84.8 211.5 C 84.8 211.5 84.7 211.4 84.7 211.4 C 84.7 211.4 84.7 211.4 84.6 211.4 C 84.5 211.4 84.5 211.7 84.6 211.8 Z M 86.7 210.0 C 86.7 210.1 86.7 210.1 86.7 210.0 C 86.7 209.9 86.6 209.9 86.7 210.0 Z M 87.5 208.9 C 87.4 209.0 87.4 209.2 87.5 209.1 C 87.6 209.0 87.6 208.9 87.5 208.9 Z M 85.4 208.1 C 85.4 208.1 85.4 208.1 85.4 208.0 C 85.4 207.9 85.3 208.0 85.4 208.1 Z M 84.3 208.4 C 84.2 208.4 84.1 208.5 84.2 208.5 C 84.3 208.5 84.4 208.4 84.3 208.4 Z M 86.8 207.6 C 86.8 207.5 86.7 207.6 86.8 207.6 C 86.8 207.7 86.8 207.7 86.8 207.6 Z M 85.4 208.4 C 85.5 208.3 85.5 208.2 85.4 208.2 C 85.4 208.2 85.3 208.2 85.3 208.4 C 85.3 208.5 85.3 208.5 85.4 208.4 Z M 84.5 208.8 C 84.3 208.6 84.2 208.7 84.5 208.9 C 84.9 209.1 84.7 208.9 84.5 208.8 Z M 88.0 208.1 C 88.0 208.1 88.0 208.3 88.0 208.3 C 88.0 208.3 88.2 207.9 88.0 208.1 Z M 82.0 209.7 C 82.1 209.7 82.2 209.7 82.1 209.6 C 82.0 209.4 81.9 209.6 82.0 209.7 Z M 82.2 208.9 C 82.2 209.2 82.3 209.4 82.3 209.4 C 82.3 209.4 82.5 209.3 82.6 209.3 C 82.8 209.4 82.8 209.7 83.1 209.7 C 83.4 209.7 83.0 209.4 82.9 209.4 C 83.0 209.4 83.1 209.4 83.1 209.3 C 83.1 209.2 83.1 209.2 83.0 209.2 C 82.9 209.2 82.3 208.6 82.2 208.9 Z M 84.9 208.0 C 84.9 208.1 85.0 208.2 85.1 208.1 C 85.2 207.9 85.2 207.8 85.1 207.8 C 85.1 207.8 84.9 207.9 84.9 208.0 Z M 85.7 207.6 C 85.8 207.7 85.8 207.6 85.8 207.5 C 85.8 207.3 85.6 207.5 85.7 207.6 Z M 88.6 204.8 C 88.5 204.7 88.5 204.9 88.6 204.9 C 88.6 204.9 88.6 204.8 88.6 204.8 Z M 87.2 205.3 C 87.2 205.1 87.1 205.3 87.1 205.4 C 87.1 205.4 87.3 205.5 87.2 205.3 Z M 86.7 206.4 C 86.7 206.3 86.6 206.5 86.7 206.5 C 86.7 206.6 86.7 206.5 86.7 206.4 Z M 86.2 206.7 C 86.2 206.6 86.1 206.7 86.1 206.8 C 86.2 206.9 86.2 206.8 86.2 206.7 Z M 81.6 208.0 C 81.6 208.0 81.8 207.8 81.6 207.8 C 81.4 207.8 81.4 207.8 81.6 208.0 Z M 83.4 207.8 C 83.5 207.9 83.7 207.9 84.1 207.6 C 84.4 207.3 84.2 207.3 83.9 207.3 C 83.6 207.3 84.3 206.9 83.7 206.9 C 83.5 207.0 83.2 207.7 83.4 207.8 Z M 85.9 205.9 C 85.7 206.2 85.9 206.6 86.0 206.3 C 86.1 205.9 86.1 205.7 85.9 205.9 Z M 86.1 205.8 C 86.1 205.9 86.1 205.9 86.1 205.8 C 86.1 205.7 86.0 205.8 86.1 205.8 Z M 79.6 208.5 C 80.2 208.8 79.9 208.1 79.9 208.1 C 79.5 207.6 79.1 208.2 79.6 208.5 Z M 87.4 200.5 C 87.4 200.5 87.4 200.5 87.3 200.5 C 87.3 200.5 87.3 200.6 87.3 200.6 C 87.3 200.7 87.5 200.7 87.5 200.7 C 87.5 200.6 87.5 200.6 87.4 200.5 Z M 84.5 201.5 C 84.6 201.4 84.7 201.4 84.8 201.3 C 84.6 201.1 83.8 201.4 84.3 201.7 C 84.3 201.7 85.0 201.9 85.0 201.7 C 85.0 201.5 84.2 201.6 84.5 201.5 Z M 85.5 201.5 C 85.2 201.6 85.9 201.7 85.8 201.6 C 85.7 201.5 85.6 201.5 85.5 201.5 Z M 88.3 201.3 C 88.7 201.0 88.4 200.3 87.8 201.0 C 87.2 201.6 87.3 201.9 87.6 201.7 C 88.0 201.4 87.8 201.9 88.3 201.3 Z M 84.7 202.7 C 84.6 202.2 84.4 202.4 84.4 202.8 C 84.4 202.9 84.7 203.0 84.7 202.7 Z M 83.7 203.2 C 83.5 203.2 83.5 203.2 83.6 203.2 C 83.8 203.3 83.8 203.2 83.7 203.2 Z M 89.3 201.7 C 89.5 201.6 89.5 201.4 89.6 201.5 C 89.6 201.6 89.6 201.5 89.7 201.4 C 89.8 201.3 89.5 201.3 89.4 201.4 C 89.3 201.4 89.2 201.9 89.3 201.7 Z M 86.0 204.8 C 86.0 204.8 85.9 204.8 85.9 204.9 C 85.9 205.0 86.0 205.0 86.0 204.8 Z M 82.3 206.8 C 82.3 206.8 82.4 206.7 82.3 206.7 C 82.1 206.7 82.1 206.7 82.3 206.8 Z M 79.1 207.8 C 79.2 207.9 79.1 207.6 79.3 207.6 C 79.4 207.6 79.3 207.7 79.3 207.7 C 79.3 207.7 79.7 207.5 79.4 207.5 C 79.2 207.4 78.8 207.7 79.1 207.8 Z M 84.9 205.1 C 84.7 205.3 85.5 205.2 85.4 205.4 C 85.3 205.5 85.4 205.5 85.5 205.3 C 85.6 205.1 85.0 204.9 84.9 205.1 Z M 86.5 204.4 C 86.4 204.5 86.2 204.9 86.4 204.7 C 86.5 204.6 86.6 204.4 86.6 204.5 C 86.7 204.6 86.7 204.5 86.7 204.4 C 86.8 204.3 86.6 204.3 86.5 204.4 Z M 89.2 203.3 C 89.2 203.3 89.1 203.6 89.2 203.4 C 89.3 203.4 89.3 203.2 89.2 203.3 Z M 81.4 205.9 C 81.6 206.0 81.6 205.9 81.4 205.8 C 81.3 205.7 81.3 205.9 81.4 205.9 Z M 88.8 202.9 C 88.7 203.1 88.9 202.9 88.8 203.1 C 88.8 203.2 88.9 203.2 88.9 203.0 C 89.0 202.8 88.9 202.7 88.8 202.9 Z M 78.8 206.4 C 78.8 206.4 78.9 206.3 78.8 206.3 C 78.7 206.3 78.7 206.5 78.8 206.4 Z M 79.6 205.7 C 79.7 205.7 79.7 205.7 79.7 205.8 C 80.5 206.3 79.6 205.2 79.6 205.7 Z M 81.3 205.2 C 81.1 205.3 81.4 205.3 81.4 205.3 C 81.4 205.2 81.4 205.2 81.3 205.2 Z M 83.0 204.5 C 83.0 204.4 82.9 204.5 82.9 204.6 C 83.0 204.6 83.0 204.6 83.0 204.5 Z M 77.2 206.3 C 77.3 206.4 77.4 206.3 77.3 206.3 C 77.3 206.2 77.2 206.2 77.2 206.3 Z M 81.6 204.6 C 81.6 204.7 81.6 204.7 81.7 204.6 C 81.7 204.6 81.6 204.6 81.6 204.6 Z M 86.9 202.6 C 86.9 202.7 86.9 202.7 86.8 202.8 C 86.9 202.9 87.3 202.8 87.3 202.9 C 87.3 202.9 87.3 202.9 87.3 202.9 C 87.3 202.9 87.3 202.9 87.3 202.9 C 87.3 203.0 87.3 203.1 87.3 203.0 C 87.2 203.1 87.2 203.1 87.1 203.1 C 87.3 203.2 87.4 203.2 87.5 203.1 C 87.5 203.0 87.5 202.7 87.4 202.5 C 87.3 202.5 87.2 202.5 87.1 202.5 C 87.1 202.5 87.1 202.6 87.1 202.6 C 87.1 202.7 87.0 202.8 87.0 202.7 C 87.0 202.6 87.0 202.6 87.0 202.6 C 87.0 202.6 86.9 202.6 86.9 202.6 Z M 82.2 204.1 C 82.1 204.2 82.2 204.2 82.4 204.2 C 82.5 204.2 82.3 204.0 82.2 204.1 Z M 77.4 206.0 C 77.4 206.0 77.5 206.0 77.5 205.9 C 77.5 205.9 77.4 205.9 77.4 205.9 C 77.3 206.0 77.2 206.0 77.1 206.0 C 77.1 206.1 77.2 206.2 77.4 206.0 Z M 78.7 205.0 C 78.7 205.0 78.0 205.2 78.2 205.3 C 78.5 205.5 78.3 205.8 78.7 205.5 C 78.9 205.4 79.0 205.0 79.2 204.9 C 80.2 204.2 78.8 204.7 78.4 204.7 C 78.4 204.7 78.8 204.9 78.7 205.0 Z M 80.1 204.1 C 80.1 204.0 79.9 203.9 79.8 203.9 C 79.5 204.1 80.1 204.2 80.1 204.1 Z M 76.9 205.1 C 76.9 205.1 76.9 205.1 76.9 205.2 C 76.9 205.1 76.9 205.1 76.9 205.1 C 76.9 205.1 76.9 205.1 76.9 205.1 Z M 76.0 205.3 C 76.4 205.5 76.2 204.9 76.1 204.8 C 75.9 204.6 75.8 205.1 76.0 205.3 Z M 79.0 203.9 C 79.3 203.8 79.3 203.0 78.9 203.2 C 78.5 203.4 78.5 204.0 79.0 203.9 Z M 81.1 202.2 C 81.0 202.3 80.7 202.2 80.8 202.1 C 80.9 202.0 81.1 202.1 81.1 202.2 Z M 77.5 203.1 C 77.5 203.1 77.5 203.2 77.5 203.2 C 77.4 203.1 77.4 203.1 77.5 203.1 Z M 78.0 203.5 C 77.8 203.5 77.7 203.5 77.6 203.5 C 77.5 203.5 77.7 203.3 77.7 203.3 C 77.8 203.3 77.9 203.5 78.0 203.5 Z M 79.8 202.8 C 79.7 202.8 79.9 202.7 79.9 202.7 C 80.0 202.7 79.9 202.8 79.8 202.8 Z M 79.3 202.8 C 79.4 202.8 79.4 202.9 79.3 202.9 C 79.2 203.0 79.3 202.8 79.3 202.8 Z M 80.3 202.9 C 80.1 203.1 79.8 203.2 79.8 203.0 C 79.8 202.9 80.6 202.7 80.3 202.9 Z M 80.3 202.9 " fill="#878787"></path><path d="M 20.1 13.2 C 20.4 13.1 21.0 13.8 20.3 13.5 C 20.2 13.5 20.0 13.2 20.1 13.2 Z M 18.9 12.2 C 19.0 12.3 19.1 12.3 19.1 12.5 C 19.1 12.8 18.6 12.0 18.9 12.2 Z M 20.5 13.9 C 20.5 13.9 20.9 14.2 20.8 14.2 C 20.7 14.2 20.5 13.9 20.5 13.9 Z M 17.5 11.8 C 17.6 11.7 18.0 12.0 18.0 12.1 C 18.1 12.4 17.3 12.0 17.5 11.8 Z M 16.7 16.0 C 16.6 16.0 16.6 16.0 16.6 16.0 C 16.6 16.0 16.6 16.0 16.7 16.0 Z M 12.1 7.1 C 12.2 7.1 12.3 7.3 12.2 7.4 C 12.0 7.4 11.9 6.9 12.1 7.1 Z M 8.6 19.2 C 8.6 19.2 8.8 19.2 8.8 19.3 C 8.7 19.4 8.6 19.3 8.6 19.2 Z M 8.7 19.4 C 8.7 19.5 8.6 19.6 8.6 19.5 C 8.6 19.3 8.6 19.3 8.7 19.4 Z M 7.9 12.1 C 7.9 12.1 7.9 12.0 8.0 12.1 C 8.0 12.1 7.9 12.2 7.9 12.1 Z M 8.1 12.4 C 8.2 12.5 8.0 12.6 8.0 12.5 C 7.9 12.3 8.0 12.3 8.1 12.4 Z M 7.1 13.7 C 7.1 13.7 7.1 13.6 7.1 13.7 C 7.2 13.8 7.1 13.9 7.1 13.7 Z M 12.1 18.3 C 12.0 18.4 11.8 18.4 11.7 18.3 C 11.7 18.2 12.1 18.2 12.1 18.3 Z M 11.8 18.5 C 11.8 18.6 11.7 18.7 11.7 18.6 C 11.7 18.5 11.7 18.4 11.8 18.5 Z M 12.7 17.9 C 12.7 17.8 13.0 17.7 13.0 17.7 C 13.1 17.7 13.3 17.7 13.4 17.7 C 13.4 17.7 12.8 18.1 12.7 17.9 Z M 14.9 17.0 C 14.9 17.0 14.9 17.1 14.8 17.1 C 14.6 17.0 14.8 16.9 14.9 17.0 Z M 13.7 17.5 C 13.7 17.6 13.7 17.6 13.5 17.6 C 13.4 17.6 13.6 17.5 13.7 17.5 Z M 15.4 9.7 C 15.5 9.6 15.7 10.0 15.7 10.0 C 15.7 10.0 15.6 9.9 15.7 10.0 C 15.7 10.1 15.4 10.2 15.4 9.7 Z M 18.2 11.7 C 18.3 11.8 18.3 11.8 18.2 11.9 C 18.2 11.9 18.0 11.6 18.2 11.7 Z M 15.6 10.4 C 15.6 10.4 15.6 10.5 15.6 10.5 C 15.6 10.5 15.5 10.5 15.6 10.4 Z M 15.3 10.3 C 15.4 10.4 15.5 10.6 15.4 10.6 C 15.2 10.7 15.0 10.2 15.3 10.3 Z M 15.2 9.3 C 15.3 9.4 15.3 9.4 15.2 9.4 C 15.1 9.4 15.2 9.3 15.2 9.3 Z M 16.8 10.4 C 16.9 10.5 16.9 10.5 16.8 10.5 C 16.7 10.5 16.8 10.4 16.8 10.4 Z M 14.3 8.9 C 14.3 8.9 14.6 9.0 14.5 9.2 C 14.4 9.5 14.3 9.0 14.3 8.9 Z M 13.0 8.3 C 13.1 8.4 13.0 8.4 13.0 8.4 C 12.9 8.3 13.0 8.2 13.0 8.3 Z M 12.4 8.4 C 12.3 8.2 12.3 8.1 12.4 8.2 C 12.6 8.4 12.4 8.5 12.4 8.4 Z M 12.6 8.4 C 12.6 8.5 12.5 8.4 12.6 8.4 C 12.6 8.3 12.7 8.4 12.6 8.4 Z M 13.8 8.9 C 13.9 8.9 13.9 9.1 13.7 9.0 C 13.6 9.0 13.6 8.9 13.8 8.9 Z M 18.0 16.1 C 18.1 16.1 18.1 16.2 18.1 16.2 C 18.0 16.3 17.9 16.2 18.0 16.1 Z M 13.1 17.4 C 13.2 17.4 13.1 17.4 13.0 17.4 C 12.9 17.5 13.0 17.3 13.1 17.4 Z M 10.0 18.2 C 10.1 18.3 10.1 18.3 9.9 18.3 C 9.8 18.3 10.0 18.2 10.0 18.2 Z M 14.3 16.9 C 14.4 16.9 14.1 17.3 13.9 17.1 C 13.6 17.0 14.1 16.8 14.3 16.9 Z M 16.4 13.5 C 16.4 13.4 16.4 13.5 16.4 13.5 C 16.3 13.5 16.3 13.5 16.4 13.5 Z M 13.5 16.8 C 13.6 16.8 13.6 16.9 13.6 17.0 C 13.5 17.0 13.4 16.9 13.5 16.8 Z M 10.6 18.2 C 10.8 18.2 10.8 18.4 10.7 18.5 C 10.6 18.8 10.3 18.6 10.1 18.6 C 9.9 18.5 10.6 18.2 10.6 18.2 Z M 18.5 15.4 C 18.5 15.4 18.4 15.4 18.3 15.4 C 18.3 15.5 18.3 15.5 18.2 15.4 C 17.9 15.6 17.8 15.9 17.7 16.1 C 17.3 16.4 16.9 15.9 16.7 16.0 C 16.7 15.9 16.8 15.9 16.8 15.8 C 16.9 15.6 15.8 16.1 15.8 16.1 C 14.9 16.6 16.1 16.3 16.2 16.6 C 16.2 16.8 15.5 16.7 15.5 16.7 C 15.1 16.6 15.2 16.9 14.9 16.9 C 14.8 16.9 14.2 16.3 14.1 16.5 C 14.1 16.6 13.8 16.6 13.7 16.7 C 13.5 16.7 13.2 16.8 13.5 17.0 C 13.6 17.2 13.7 17.3 13.5 17.2 C 13.3 17.2 12.1 17.2 12.3 17.6 C 12.3 17.7 12.6 17.7 12.6 17.7 C 12.4 18.0 11.4 18.1 11.3 18.4 C 11.0 19.0 11.3 18.1 11.0 18.0 C 10.6 18.0 10.3 17.9 9.8 18.2 C 9.7 18.2 9.2 18.4 9.5 18.6 C 9.8 18.7 9.7 18.9 10.0 18.8 C 9.8 19.2 9.4 18.8 9.4 18.9 C 9.3 19.1 9.5 19.1 9.3 19.2 C 9.0 19.3 9.1 19.3 9.0 19.1 C 8.9 19.0 8.6 19.0 8.6 19.0 C 8.6 19.0 8.6 19.0 8.6 18.9 C 8.4 19.1 8.2 19.7 8.1 19.6 C 8.0 19.5 8.0 19.2 8.0 19.1 C 7.9 19.1 7.9 19.1 7.9 19.1 C 7.8 19.1 7.6 19.4 7.6 19.4 C 7.5 19.4 7.6 18.8 7.5 19.0 C 7.4 19.2 6.8 19.2 6.8 19.1 C 6.7 19.0 6.3 18.4 6.2 18.4 C 6.1 18.4 6.2 18.1 6.2 18.0 C 6.2 17.9 6.4 17.7 6.4 17.7 C 6.5 17.6 6.5 17.4 6.5 17.4 C 6.5 17.4 6.4 17.2 6.5 17.0 C 6.5 16.8 6.7 16.7 6.8 16.4 C 6.9 16.2 6.8 16.0 6.8 15.8 C 6.8 15.5 7.2 15.4 7.3 15.2 C 7.4 15.0 7.1 14.9 7.1 14.7 C 7.1 14.4 7.2 14.2 7.3 14.3 C 7.3 14.4 7.4 14.4 7.4 14.3 C 7.5 14.2 7.6 13.9 7.6 13.8 C 7.5 13.7 7.1 14.4 7.3 13.4 C 7.5 12.9 7.9 12.6 7.8 12.7 C 7.8 13.1 8.4 12.4 8.3 12.4 C 8.1 12.4 8.3 11.5 8.0 11.7 C 7.9 11.7 8.0 10.8 8.0 10.7 C 8.1 10.6 8.1 10.2 8.4 10.1 C 8.5 10.1 8.3 9.5 8.3 9.4 C 8.3 9.3 8.5 8.7 8.6 8.5 C 8.7 8.4 8.6 8.7 8.6 8.9 C 8.6 9.0 8.4 9.2 8.4 9.3 C 8.4 9.5 8.6 9.2 8.6 9.1 C 8.7 8.9 8.8 8.9 8.9 8.7 C 8.9 8.7 8.9 8.6 9.0 8.4 C 9.0 8.4 8.9 8.3 8.9 8.3 C 8.8 8.3 8.7 8.4 8.7 8.3 C 8.7 8.3 8.6 8.2 8.7 8.0 C 8.7 7.8 8.7 7.6 8.9 7.3 C 9.0 7.1 8.9 7.0 9.0 6.8 C 9.0 6.6 9.0 6.4 9.1 6.4 C 9.2 6.4 9.2 6.7 9.2 6.7 C 9.2 6.7 9.4 6.5 9.5 6.4 C 9.6 5.9 10.0 6.4 10.2 5.9 C 10.2 5.6 10.3 6.0 10.5 6.2 C 10.5 6.1 10.5 6.1 10.8 6.2 C 10.8 6.1 11.0 6.4 11.2 6.5 C 11.3 6.6 11.8 6.9 11.4 6.8 C 11.4 6.8 11.4 6.7 11.3 6.7 C 11.3 6.7 11.3 6.7 11.3 6.8 C 11.3 6.8 11.0 6.8 11.0 6.8 C 11.0 6.8 11.3 6.8 11.3 6.8 C 11.3 6.9 11.3 7.0 11.3 7.1 C 11.4 7.1 11.4 7.1 11.4 7.1 C 11.4 7.1 11.5 7.1 11.5 7.1 C 11.5 7.1 11.5 7.1 11.5 7.1 C 11.5 7.0 11.5 7.0 11.6 7.1 C 11.9 7.2 12.2 7.6 12.3 7.8 C 11.5 7.9 12.3 8.5 12.6 8.7 C 12.9 8.8 13.3 8.3 13.2 8.2 C 13.4 8.3 13.4 8.5 13.3 8.7 C 13.3 8.6 13.3 9.1 13.3 9.1 C 13.6 9.7 13.8 9.1 14.0 9.2 C 14.2 9.2 14.3 9.3 14.5 9.4 C 14.6 9.5 14.6 9.3 14.7 9.3 C 15.0 9.2 15.0 9.8 15.1 10.0 C 15.0 9.9 14.8 9.8 14.7 9.8 C 14.9 9.8 14.8 10.2 14.8 10.3 C 14.9 10.4 15.1 10.5 15.3 10.7 C 15.6 10.8 15.9 11.0 16.1 11.2 C 16.1 11.1 15.9 10.5 15.9 10.4 C 16.0 10.5 16.2 10.8 16.3 10.5 C 16.4 10.0 16.9 10.7 17.0 10.8 C 17.3 11.1 17.9 11.1 17.9 11.7 C 17.9 11.7 17.4 11.4 17.3 11.5 C 17.2 11.9 17.2 12.1 17.6 12.3 C 17.7 12.4 18.4 12.5 18.4 12.5 C 18.3 12.5 18.4 11.5 18.7 12.0 C 18.7 12.1 18.4 12.1 18.5 12.3 C 18.6 12.4 18.9 12.6 19.0 12.7 C 19.0 12.7 19.2 13.0 19.2 13.0 C 19.4 13.0 19.5 12.9 19.6 12.9 C 19.8 12.9 19.8 13.1 19.7 13.2 C 19.7 13.2 19.7 13.2 19.7 13.2 C 19.7 13.3 19.7 13.3 19.7 13.4 C 19.7 13.4 19.8 13.4 19.8 13.6 C 19.8 13.6 19.7 13.5 19.6 13.4 C 19.6 13.4 19.6 13.5 19.5 13.5 C 19.7 13.6 19.8 13.7 19.9 13.7 C 20.2 13.7 20.3 13.6 20.4 14.2 C 20.5 14.6 19.6 15.2 19.0 15.3 C 18.9 15.4 18.8 15.4 18.5 15.4 Z M 9.2 8.1 C 9.2 8.1 9.2 8.2 9.2 8.2 C 9.3 8.2 9.3 8.2 9.4 8.2 C 9.5 8.1 9.3 8.2 9.3 8.1 C 9.4 7.9 9.3 7.9 9.2 8.1 Z M 10.6 7.7 C 10.6 7.6 10.5 7.6 10.5 7.7 C 10.5 7.7 10.6 7.7 10.6 7.7 Z M 11.0 7.3 C 10.8 7.2 10.9 7.6 11.2 7.7 C 11.2 7.5 11.1 7.3 11.0 7.3 Z M 11.6 7.3 C 11.6 7.4 11.5 7.4 11.5 7.4 C 11.4 7.4 11.7 7.5 11.6 7.5 C 11.5 7.6 11.3 7.5 11.4 7.7 C 11.4 7.7 11.4 7.7 11.4 7.8 C 11.5 7.8 11.5 7.8 11.5 7.8 C 11.7 7.7 11.7 7.5 11.6 7.3 Z M 9.5 9.1 C 9.5 9.0 9.4 9.1 9.4 9.2 C 9.5 9.3 9.5 9.2 9.5 9.1 Z M 8.7 10.2 C 8.8 10.1 8.8 10.0 8.7 10.1 C 8.6 10.2 8.6 10.3 8.7 10.2 Z M 10.8 11.1 C 10.7 11.1 10.8 11.1 10.8 11.2 C 10.8 11.3 10.8 11.2 10.8 11.1 Z M 11.9 10.8 C 12.0 10.8 12.1 10.6 12.0 10.6 C 11.9 10.7 11.8 10.7 11.9 10.8 Z M 9.4 11.6 C 9.4 11.7 9.5 11.6 9.4 11.5 C 9.4 11.5 9.3 11.5 9.4 11.6 Z M 10.8 10.8 C 10.7 10.9 10.7 10.9 10.8 10.9 C 10.8 11.0 10.9 10.9 10.9 10.8 C 10.9 10.7 10.8 10.6 10.8 10.8 Z M 11.7 10.4 C 11.9 10.6 12.0 10.5 11.7 10.3 C 11.3 10.1 11.5 10.2 11.7 10.4 Z M 8.2 11.1 C 8.2 11.0 8.2 10.8 8.2 10.8 C 8.2 10.8 8.0 11.3 8.2 11.1 Z M 14.2 9.5 C 14.1 9.4 14.0 9.5 14.1 9.6 C 14.2 9.7 14.3 9.6 14.2 9.5 Z M 13.9 10.2 C 14.0 9.9 13.9 9.8 13.9 9.8 C 13.9 9.8 13.7 9.9 13.6 9.9 C 13.4 9.8 13.4 9.5 13.1 9.4 C 12.8 9.4 13.2 9.8 13.2 9.8 C 13.2 9.8 13.1 9.8 13.1 9.8 C 13.0 9.9 13.1 10.0 13.2 10.0 C 13.3 10.0 13.8 10.5 13.9 10.2 Z M 11.3 11.2 C 11.3 11.0 11.2 11.0 11.1 11.1 C 11.0 11.2 11.0 11.3 11.0 11.4 C 11.1 11.4 11.3 11.3 11.3 11.2 Z M 10.5 11.6 C 10.4 11.5 10.4 11.5 10.4 11.6 C 10.4 11.8 10.6 11.7 10.5 11.6 Z M 7.6 14.4 C 7.6 14.5 7.7 14.3 7.6 14.3 C 7.6 14.3 7.5 14.3 7.6 14.4 Z M 8.9 13.8 C 9.0 14.1 9.1 13.8 9.1 13.8 C 9.1 13.7 8.9 13.7 8.9 13.8 Z M 9.5 12.7 C 9.5 12.8 9.6 12.7 9.5 12.6 C 9.5 12.6 9.5 12.7 9.5 12.7 Z M 10.0 12.4 C 9.9 12.5 10.1 12.5 10.0 12.3 C 10.0 12.3 10.0 12.3 10.0 12.4 Z M 14.6 11.2 C 14.6 11.2 14.4 11.3 14.6 11.4 C 14.8 11.4 14.8 11.4 14.6 11.2 Z M 12.8 11.4 C 12.7 11.3 12.5 11.3 12.1 11.6 C 11.7 11.9 11.9 11.9 12.2 11.9 C 12.5 11.8 11.9 12.3 12.4 12.2 C 12.7 12.2 13.0 11.5 12.8 11.4 Z M 10.3 13.2 C 10.5 13.0 10.3 12.6 10.2 12.9 C 10.1 13.2 10.1 13.5 10.3 13.2 Z M 10.1 13.3 C 10.1 13.3 10.1 13.3 10.1 13.4 C 10.0 13.5 10.1 13.4 10.1 13.3 Z M 16.6 10.7 C 16.0 10.4 16.3 11.1 16.3 11.1 C 16.7 11.6 17.1 11.0 16.6 10.7 Z M 8.8 18.6 C 8.8 18.6 8.8 18.6 8.8 18.6 C 8.9 18.6 8.9 18.6 8.9 18.6 C 8.9 18.5 8.7 18.5 8.7 18.5 C 8.7 18.5 8.7 18.6 8.8 18.6 Z M 11.7 17.7 C 11.5 17.7 11.5 17.8 11.4 17.9 C 11.6 18.1 12.4 17.8 11.9 17.5 C 11.9 17.4 11.2 17.3 11.2 17.5 C 11.2 17.6 11.9 17.6 11.7 17.7 Z M 10.6 17.7 C 11.0 17.6 10.2 17.5 10.4 17.6 C 10.5 17.7 10.5 17.7 10.6 17.7 Z M 7.8 17.8 C 7.5 18.2 7.8 18.8 8.4 18.2 C 8.9 17.6 8.9 17.3 8.6 17.5 C 8.2 17.7 8.4 17.3 7.8 17.8 Z M 11.5 16.5 C 11.6 17.0 11.8 16.8 11.8 16.4 C 11.8 16.3 11.5 16.1 11.5 16.5 Z M 12.5 16.0 C 12.7 16.0 12.7 16.0 12.6 15.9 C 12.4 15.9 12.4 16.0 12.5 16.0 Z M 6.9 17.4 C 6.7 17.6 6.7 17.8 6.6 17.7 C 6.6 17.6 6.6 17.6 6.5 17.8 C 6.4 17.9 6.6 17.8 6.7 17.8 C 6.8 17.7 7.0 17.3 6.9 17.4 Z M 10.2 14.3 C 10.2 14.4 10.3 14.3 10.3 14.2 C 10.2 14.2 10.2 14.2 10.2 14.3 Z M 13.9 12.4 C 13.9 12.4 13.8 12.4 13.9 12.4 C 14.0 12.5 14.0 12.5 13.9 12.4 Z M 17.1 11.4 C 17.0 11.3 17.0 11.5 16.9 11.6 C 16.8 11.6 16.9 11.5 16.9 11.4 C 16.9 11.5 16.5 11.7 16.8 11.7 C 16.9 11.7 17.4 11.5 17.1 11.4 Z M 11.3 14.0 C 11.4 13.8 10.7 13.9 10.8 13.8 C 10.9 13.6 10.8 13.6 10.7 13.8 C 10.6 14.0 11.2 14.3 11.3 14.0 Z M 9.7 14.8 C 9.8 14.7 10.0 14.3 9.8 14.4 C 9.7 14.6 9.6 14.8 9.6 14.7 C 9.5 14.6 9.5 14.6 9.5 14.8 C 9.4 14.9 9.6 14.8 9.7 14.8 Z M 7.0 15.9 C 7.0 15.9 7.0 15.6 6.9 15.8 C 6.9 15.8 6.9 16.0 7.0 15.9 Z M 14.7 13.2 C 14.6 13.2 14.6 13.3 14.7 13.3 C 14.9 13.4 14.9 13.2 14.7 13.2 Z M 7.4 16.3 C 7.5 16.1 7.3 16.3 7.3 16.1 C 7.4 16.0 7.3 16.0 7.2 16.2 C 7.2 16.3 7.3 16.5 7.4 16.3 Z M 17.4 12.7 C 17.4 12.7 17.3 12.8 17.4 12.8 C 17.5 12.9 17.5 12.7 17.4 12.7 Z M 16.5 13.5 C 16.5 13.5 16.5 13.4 16.4 13.4 C 15.7 12.9 16.5 14.0 16.5 13.5 Z M 14.9 14.0 C 15.1 13.9 14.8 13.9 14.8 13.9 C 14.8 14.0 14.8 14.0 14.9 14.0 Z M 13.2 14.7 C 13.2 14.8 13.3 14.7 13.3 14.6 C 13.2 14.5 13.2 14.6 13.2 14.7 Z M 18.9 12.9 C 18.9 12.8 18.8 12.8 18.9 12.9 C 18.9 13.0 19.0 13.0 18.9 12.9 Z M 14.6 14.6 C 14.6 14.5 14.6 14.5 14.5 14.6 C 14.4 14.6 14.6 14.6 14.6 14.6 Z M 9.3 16.6 C 9.3 16.5 9.3 16.4 9.4 16.4 C 9.3 16.3 8.9 16.4 8.9 16.3 C 8.9 16.3 8.9 16.3 8.9 16.3 C 8.9 16.3 8.9 16.2 8.9 16.2 C 8.9 16.2 8.9 16.1 8.9 16.2 C 9.0 16.1 9.0 16.1 9.1 16.0 C 8.9 16.0 8.8 16.0 8.7 16.1 C 8.7 16.2 8.7 16.4 8.8 16.6 C 8.9 16.6 9.0 16.6 9.1 16.6 C 9.0 16.6 9.0 16.6 9.0 16.6 C 9.1 16.5 9.1 16.4 9.2 16.5 C 9.2 16.5 9.2 16.6 9.2 16.6 C 9.2 16.6 9.2 16.6 9.3 16.6 Z M 14.0 15.1 C 14.1 14.9 14.0 14.9 13.8 14.9 C 13.7 15.0 13.9 15.2 14.0 15.1 Z M 18.8 13.1 C 18.7 13.2 18.7 13.2 18.7 13.2 C 18.7 13.2 18.7 13.2 18.8 13.2 C 18.9 13.2 19.0 13.2 19.1 13.2 C 19.0 13.1 19.0 13.0 18.8 13.1 Z M 17.5 14.2 C 17.5 14.2 18.1 13.9 18.0 13.8 C 17.7 13.7 17.9 13.3 17.5 13.6 C 17.3 13.8 17.2 14.1 17.0 14.3 C 16.0 15.0 17.4 14.5 17.7 14.4 C 17.8 14.4 17.4 14.3 17.5 14.2 Z M 16.1 15.1 C 16.1 15.2 16.3 15.3 16.4 15.2 C 16.6 15.1 16.1 14.9 16.1 15.1 Z M 19.3 14.1 C 19.3 14.1 19.3 14.0 19.3 14.0 C 19.3 14.0 19.3 14.1 19.3 14.1 C 19.3 14.1 19.3 14.1 19.3 14.1 Z M 20.1 13.9 C 19.7 13.7 20.0 14.3 20.1 14.4 C 20.3 14.6 20.4 14.0 20.1 13.9 Z M 17.1 15.3 C 16.9 15.4 16.9 16.1 17.3 15.9 C 17.6 15.8 17.7 15.1 17.1 15.3 Z M 15.1 17.0 C 15.2 16.9 15.4 16.9 15.3 17.1 C 15.3 17.2 15.1 17.0 15.1 17.0 Z M 18.7 16.1 C 18.7 16.1 18.7 16.0 18.7 16.0 C 18.8 16.1 18.8 16.1 18.7 16.1 Z M 18.2 15.7 C 18.4 15.7 18.5 15.7 18.6 15.7 C 18.7 15.7 18.5 15.8 18.5 15.8 C 18.4 15.9 18.3 15.7 18.2 15.7 Z M 16.3 16.3 C 16.5 16.4 16.3 16.4 16.2 16.5 C 16.2 16.5 16.2 16.3 16.3 16.3 Z M 16.8 16.3 C 16.8 16.3 16.8 16.2 16.9 16.2 C 17.0 16.2 16.9 16.3 16.8 16.3 Z M 15.9 16.2 C 16.1 16.1 16.4 16.0 16.4 16.2 C 16.4 16.2 15.6 16.5 15.9 16.2 Z M 15.9 16.2 " fill="#878787"></path></g></svg>