<?xml version="1.0" encoding="UTF-8" standalone="no"?><svg xmlns="http://www.w3.org/2000/svg" xmlns:xlink="http://www.w3.org/1999/xlink" clip-rule="evenodd" stroke-miterlimit="10" viewBox="0 0 221 221"><desc>SVG generated by Keynote</desc><defs></defs><g transform="matrix(1.00, 0.00, -0.00, -1.00, 0.0, 221.0)"><path d="M 204.9 17.0 C 205.0 16.8 205.3 17.0 205.7 16.7 C 206.1 16.5 206.5 16.2 206.3 16.1 C 206.0 16.0 205.8 16.0 205.8 15.6 C 205.7 15.2 205.5 14.7 205.2 14.7 C 204.8 14.8 203.6 15.3 203.5 15.8 C 203.4 16.2 203.4 16.4 203.3 16.7 C 203.3 17.1 203.0 16.5 203.0 16.5 C 203.0 16.5 202.5 16.9 202.1 17.2 C 201.7 17.5 201.3 17.9 201.3 18.0 C 201.4 18.1 201.4 18.4 201.4 18.4 C 201.4 18.4 201.0 18.4 200.7 18.6 C 200.4 18.8 200.6 18.8 200.8 18.9 C 200.9 19.0 201.5 18.9 201.4 19.0 C 201.3 19.2 200.5 19.1 200.3 19.2 C 200.1 19.3 199.7 19.8 199.7 19.8 C 199.7 19.8 200.0 20.0 200.0 20.1 C 200.0 20.2 199.6 20.6 199.5 20.5 C 199.4 20.4 199.2 20.2 199.0 20.3 C 198.3 20.9 198.9 21.3 198.9 21.4 C 198.8 21.4 198.5 21.1 198.2 21.2 C 198.0 21.3 196.9 22.5 196.9 22.7 C 196.9 22.8 196.2 22.9 196.2 23.3 C 196.3 23.7 196.3 23.8 196.3 23.9 C 196.3 24.0 196.5 24.6 196.2 24.6 C 196.0 24.6 196.0 23.7 195.8 23.7 C 195.5 23.8 194.7 24.5 194.7 24.7 C 194.7 25.1 195.0 25.5 194.9 25.6 C 194.8 25.7 193.9 25.7 193.9 25.8 C 193.9 25.9 194.3 26.3 194.3 26.4 C 194.4 26.5 194.9 27.3 195.1 27.3 C 195.3 27.3 196.0 27.1 195.7 26.9 C 195.5 26.8 195.2 26.7 195.2 26.4 C 195.3 26.2 195.4 26.1 195.5 26.1 C 195.6 26.1 195.6 26.3 196.0 26.2 C 196.4 26.0 196.4 26.3 196.6 26.0 C 196.9 25.8 197.1 25.5 196.9 25.4 C 196.7 25.3 196.8 24.8 197.0 24.6 C 197.2 24.4 197.2 25.1 197.9 24.6 C 198.6 24.2 199.0 23.9 199.0 23.6 C 199.1 23.3 198.7 22.9 199.1 22.8 C 199.6 22.7 199.5 22.9 199.9 22.5 C 200.3 22.2 200.1 21.7 200.3 21.4 C 200.5 21.2 200.6 21.2 200.6 21.2 C 200.6 21.2 200.9 21.7 201.5 21.2 C 202.0 20.7 202.2 20.6 201.7 20.4 C 201.3 20.2 201.7 19.8 201.9 20.0 C 202.2 20.2 202.6 20.0 202.8 19.9 C 203.0 19.7 202.5 19.1 202.6 19.0 C 202.7 18.9 202.9 18.8 203.0 19.0 C 203.1 19.3 203.3 19.1 203.5 19.0 C 203.8 18.9 204.2 18.4 204.1 18.3 C 204.0 18.2 203.4 18.1 203.9 17.9 C 204.4 17.8 204.8 18.0 205.1 17.6 C 205.4 17.3 204.8 17.3 204.9 17.0 C 204.9 17.0 204.9 17.0 204.9 17.0 Z M 195.1 27.6 C 195.6 27.1 193.9 26.0 193.4 26.0 C 192.8 25.9 192.7 26.4 192.2 26.8 C 191.8 27.1 192.4 27.4 192.3 27.8 C 192.2 28.1 192.0 27.7 191.7 27.6 C 191.4 27.5 191.0 28.3 190.6 28.6 C 190.3 28.9 190.4 29.7 190.1 30.1 C 189.9 30.4 190.6 30.1 190.1 30.5 C 189.5 31.0 189.5 30.5 190.0 29.8 C 190.4 29.1 189.5 29.7 189.1 30.0 C 188.7 30.3 188.4 31.0 188.1 31.2 C 187.9 31.4 188.5 31.5 188.2 31.8 C 187.8 32.2 187.6 31.6 187.2 32.0 C 186.8 32.3 187.2 32.6 187.1 32.8 C 186.9 33.1 186.8 32.8 186.6 33.0 C 186.4 33.1 186.1 33.2 185.8 33.7 C 185.5 34.1 185.7 34.1 185.6 34.3 C 185.5 34.5 185.2 34.7 185.2 34.7 C 185.0 34.6 184.9 34.5 184.8 34.4 C 184.8 34.4 184.1 35.0 183.9 35.2 C 183.7 35.4 183.4 35.9 183.6 35.9 C 183.8 35.9 183.6 36.5 183.5 36.6 C 183.3 36.6 182.8 36.7 182.5 36.9 C 182.2 37.0 183.2 37.9 183.3 38.0 C 183.5 38.1 183.8 38.7 184.1 38.6 C 184.3 38.5 184.3 38.1 184.4 38.3 C 184.5 38.5 184.9 37.8 185.1 37.6 C 185.2 37.5 185.1 36.9 185.1 36.9 C 185.1 36.9 184.9 36.5 185.2 36.2 C 185.4 36.0 186.1 36.5 186.1 36.5 C 186.1 36.5 186.5 36.3 186.8 35.9 C 187.1 35.6 187.0 34.8 186.9 34.6 C 186.9 34.4 187.3 34.9 187.6 34.7 C 187.9 34.6 188.3 34.4 188.4 34.2 C 188.4 34.1 188.3 33.7 188.3 33.7 C 188.3 33.7 188.5 33.1 188.6 33.0 C 188.7 32.9 189.0 33.5 189.0 33.5 C 189.0 33.5 190.0 32.8 190.2 32.6 C 190.4 32.5 190.5 32.1 190.6 32.0 C 190.7 31.8 190.4 31.1 190.6 31.0 C 190.9 30.8 190.8 31.5 191.0 31.3 C 191.3 31.2 191.7 31.0 191.8 30.9 C 191.9 30.8 191.8 30.5 192.0 30.3 C 192.1 30.1 191.9 29.5 192.2 29.3 C 192.4 29.0 192.8 29.1 192.9 29.1 C 193.1 29.0 193.5 29.3 193.7 29.1 C 193.9 28.9 193.5 28.9 193.7 28.7 C 193.9 28.5 193.6 28.2 193.9 28.1 C 194.1 28.0 194.4 28.5 194.6 28.2 C 194.6 28.1 194.6 28.2 195.1 27.6 C 195.1 27.6 195.1 27.6 195.1 27.6 Z M 183.6 39.0 C 184.0 39.0 184.0 38.5 183.8 38.3 C 183.6 38.1 182.9 37.7 182.9 37.5 C 182.8 37.2 182.8 36.6 182.2 37.0 C 181.7 37.3 181.7 37.6 181.9 37.7 C 182.0 37.8 182.4 38.5 182.3 38.6 C 182.1 38.6 181.8 38.6 181.7 38.6 C 181.6 38.5 180.9 38.2 180.8 38.5 C 180.6 38.8 180.5 39.2 180.5 39.2 C 180.4 39.3 180.3 39.4 180.2 39.5 C 180.2 39.5 179.6 39.5 179.4 39.8 C 179.2 40.2 178.9 40.5 178.7 40.6 C 178.5 40.8 178.4 41.0 178.5 41.2 C 178.5 41.3 178.7 42.0 178.7 42.0 C 178.7 42.0 178.6 42.4 178.4 42.5 C 178.2 42.5 177.9 42.3 177.8 42.2 C 177.8 42.1 177.5 41.9 177.2 42.0 C 177.0 42.1 175.9 42.7 176.0 43.0 C 176.0 43.3 176.2 43.4 176.2 43.6 C 176.1 43.7 175.6 44.3 175.4 44.2 C 175.3 44.1 175.0 43.8 174.9 44.0 C 174.8 44.2 174.4 44.4 174.4 44.5 C 174.5 44.6 174.5 44.7 174.6 44.9 C 174.8 45.1 174.6 45.5 174.6 45.6 C 174.6 45.8 174.4 46.1 174.4 46.1 C 174.2 46.1 174.0 46.1 173.8 46.1 C 173.8 46.1 173.7 45.7 173.8 45.5 C 173.8 45.4 173.5 45.4 173.4 45.4 C 173.2 45.5 172.7 46.2 172.7 46.2 C 172.9 46.4 173.1 46.6 173.3 46.8 C 173.2 47.0 173.1 47.2 173.0 47.4 C 173.0 47.4 172.3 46.6 172.0 46.9 C 171.7 47.2 171.4 47.5 171.4 47.5 C 171.4 47.5 171.4 48.1 171.3 48.2 C 171.3 48.3 171.9 48.9 171.9 48.9 C 172.1 49.2 172.4 49.4 172.7 49.6 C 172.7 49.6 173.3 49.5 173.4 49.2 C 173.5 48.9 173.0 48.8 172.9 48.7 C 172.8 48.5 173.0 48.1 173.0 48.1 C 173.3 48.1 173.5 48.1 173.8 48.1 C 173.8 48.1 174.0 48.1 174.3 48.1 C 174.5 48.1 175.1 47.8 175.1 47.6 C 175.2 47.4 175.2 47.1 175.2 46.8 C 175.2 46.6 175.0 46.4 175.3 46.4 C 175.7 46.3 176.0 46.4 176.1 46.3 C 176.2 46.2 176.4 45.6 176.4 45.6 C 176.4 45.4 176.5 45.2 176.5 45.1 C 176.5 45.1 176.7 44.6 176.9 44.7 C 177.1 44.9 177.5 44.1 177.5 44.1 C 177.5 44.1 177.9 44.6 178.2 44.5 C 178.4 44.4 178.7 44.2 178.9 43.9 C 179.1 43.6 178.9 43.0 178.9 43.0 C 179.1 43.0 179.2 43.0 179.4 43.1 C 179.7 42.9 180.0 42.7 180.2 42.5 C 180.2 42.5 180.7 41.9 180.7 41.8 C 180.6 41.7 180.2 41.4 180.1 41.3 C 180.0 41.2 180.2 40.8 180.3 40.9 C 180.5 41.0 181.1 41.0 181.1 41.0 C 181.1 41.0 181.5 41.0 181.7 40.9 C 181.9 40.8 182.0 40.4 182.0 40.3 C 182.0 40.1 182.0 39.6 182.0 39.6 C 182.2 39.7 182.4 39.7 182.5 39.7 C 182.5 39.7 182.8 39.1 183.6 39.0 C 183.6 39.0 183.6 39.0 183.6 39.0 Z M 172.7 50.1 C 173.2 49.5 171.4 48.4 170.9 48.4 C 170.4 48.3 170.2 48.9 169.8 49.2 C 169.4 49.5 169.9 49.8 169.9 50.2 C 169.8 50.5 169.6 50.2 169.3 50.0 C 169.0 49.9 168.6 50.7 168.2 51.0 C 167.8 51.3 167.9 52.2 167.7 52.5 C 167.4 52.8 168.2 52.5 167.6 53.0 C 167.1 53.4 167.1 52.9 167.5 52.2 C 168.0 51.5 167.0 52.2 166.7 52.4 C 166.3 52.7 166.0 53.4 165.7 53.6 C 165.4 53.9 166.1 53.9 165.7 54.3 C 165.4 54.6 165.2 54.1 164.8 54.4 C 164.3 54.7 164.7 55.0 164.6 55.2 C 164.5 55.5 164.4 55.3 164.2 55.4 C 164.0 55.5 163.6 55.7 163.4 56.1 C 163.1 56.5 163.3 56.5 163.2 56.7 C 163.0 56.9 162.8 57.2 162.8 57.2 C 162.6 57.1 162.5 57.0 162.3 56.9 C 162.3 56.9 161.7 57.5 161.5 57.6 C 161.3 57.8 161.0 58.4 161.2 58.3 C 161.4 58.3 161.2 59.0 161.0 59.0 C 160.9 59.0 160.4 59.2 160.1 59.3 C 159.8 59.4 160.8 60.3 160.9 60.4 C 161.0 60.5 161.4 61.2 161.6 61.0 C 161.9 60.9 161.9 60.6 162.0 60.7 C 162.1 60.9 162.5 60.2 162.6 60.0 C 162.8 59.9 162.6 59.4 162.6 59.4 C 162.6 59.4 162.5 58.9 162.8 58.7 C 163.0 58.4 163.7 58.9 163.7 58.9 C 163.7 58.9 164.1 58.7 164.4 58.4 C 164.7 58.0 164.5 57.2 164.5 57.0 C 164.5 56.9 164.9 57.3 165.2 57.1 C 165.4 57.0 165.9 56.8 165.9 56.7 C 166.0 56.6 165.9 56.1 165.9 56.1 C 165.9 56.1 166.1 55.5 166.2 55.4 C 166.3 55.3 166.6 55.9 166.6 55.9 C 166.6 55.9 167.5 55.2 167.7 55.1 C 167.9 54.9 168.1 54.5 168.2 54.4 C 168.3 54.2 168.0 53.5 168.2 53.4 C 168.4 53.3 168.4 53.9 168.6 53.8 C 168.8 53.6 169.3 53.4 169.4 53.3 C 169.5 53.2 169.4 52.9 169.5 52.7 C 169.7 52.5 169.5 51.9 169.7 51.7 C 170.0 51.4 170.4 51.6 170.5 51.5 C 170.6 51.5 171.0 51.7 171.3 51.6 C 171.5 51.4 171.1 51.3 171.3 51.1 C 171.5 50.9 171.2 50.7 171.4 50.5 C 171.7 50.4 172.0 50.9 172.1 50.6 C 172.2 50.5 172.1 50.6 172.7 50.1 C 172.7 50.1 172.7 50.1 172.7 50.1 Z M 161.1 61.5 C 161.6 61.4 161.6 60.9 161.4 60.7 C 161.1 60.6 160.5 60.2 160.5 59.9 C 160.4 59.7 160.4 59.0 159.8 59.4 C 159.3 59.8 159.3 60.0 159.4 60.1 C 159.6 60.3 160.0 60.9 159.8 61.0 C 159.7 61.1 159.4 61.0 159.3 61.0 C 159.2 61.0 158.5 60.6 158.3 60.9 C 158.2 61.2 158.1 61.6 158.1 61.6 C 158.0 61.7 157.9 61.8 157.8 62.0 C 157.8 62.0 157.1 62.0 157.0 62.3 C 156.8 62.6 156.5 62.9 156.3 63.1 C 156.1 63.2 155.9 63.5 156.0 63.6 C 156.1 63.8 156.3 64.5 156.3 64.5 C 156.3 64.5 156.1 64.9 155.9 64.9 C 155.7 65.0 155.5 64.8 155.4 64.6 C 155.3 64.5 155.1 64.3 154.8 64.4 C 154.6 64.6 153.5 65.1 153.5 65.4 C 153.6 65.7 153.8 65.9 153.7 66.0 C 153.7 66.1 153.2 66.7 153.0 66.6 C 152.8 66.6 152.6 66.2 152.5 66.4 C 152.3 66.6 151.9 66.9 152.0 66.9 C 152.1 67.0 152.1 67.2 152.2 67.3 C 152.3 67.5 152.1 67.9 152.2 68.1 C 152.2 68.2 151.9 68.5 151.9 68.5 C 151.8 68.5 151.6 68.5 151.4 68.6 C 151.4 68.6 151.3 68.1 151.3 68.0 C 151.4 67.8 151.1 67.8 150.9 67.9 C 150.8 67.9 150.3 68.6 150.3 68.6 C 150.5 68.8 150.6 69.0 150.8 69.2 C 150.7 69.4 150.6 69.6 150.5 69.8 C 150.5 69.8 149.9 69.0 149.6 69.3 C 149.3 69.6 149.0 69.9 149.0 69.9 C 149.0 69.9 148.9 70.5 148.9 70.6 C 148.8 70.7 149.4 71.4 149.4 71.4 C 149.7 71.6 150.0 71.8 150.3 72.0 C 150.3 72.0 150.8 71.9 150.9 71.6 C 151.0 71.4 150.6 71.2 150.5 71.1 C 150.4 70.9 150.6 70.5 150.6 70.5 C 150.8 70.5 151.1 70.6 151.4 70.6 C 151.4 70.6 151.6 70.6 151.9 70.6 C 152.1 70.6 152.6 70.2 152.7 70.0 C 152.8 69.8 152.7 69.5 152.8 69.3 C 152.8 69.0 152.6 68.8 152.9 68.8 C 153.3 68.8 153.6 68.9 153.7 68.8 C 153.8 68.7 153.9 68.0 153.9 68.0 C 154.0 67.8 154.0 67.7 154.1 67.5 C 154.1 67.5 154.3 67.1 154.5 67.2 C 154.7 67.3 155.1 66.5 155.1 66.5 C 155.1 66.5 155.5 67.0 155.7 66.9 C 156.0 66.8 156.3 66.7 156.5 66.3 C 156.7 66.0 156.4 65.4 156.4 65.4 C 156.6 65.4 156.8 65.5 157.0 65.5 C 157.3 65.3 157.5 65.1 157.8 64.9 C 157.8 64.9 158.3 64.3 158.2 64.2 C 158.2 64.2 157.7 63.9 157.7 63.7 C 157.6 63.6 157.8 63.2 157.9 63.3 C 158.1 63.4 158.7 63.5 158.7 63.5 C 158.7 63.5 159.1 63.5 159.3 63.3 C 159.5 63.2 159.6 62.8 159.6 62.7 C 159.6 62.6 159.6 62.0 159.6 62.0 C 159.7 62.1 159.9 62.1 160.1 62.2 C 160.1 62.2 160.4 61.6 161.1 61.5 C 161.1 61.5 161.1 61.5 161.1 61.5 Z M 150.2 72.5 C 150.8 71.9 149.0 70.9 148.5 70.8 C 148.0 70.7 147.8 71.3 147.4 71.6 C 146.9 71.9 147.5 72.3 147.4 72.6 C 147.3 73.0 147.1 72.6 146.8 72.5 C 146.5 72.4 146.1 73.1 145.8 73.4 C 145.4 73.8 145.5 74.6 145.3 74.9 C 145.0 75.2 145.7 74.9 145.2 75.4 C 144.7 75.9 144.7 75.3 145.1 74.6 C 145.5 73.9 144.6 74.6 144.2 74.8 C 143.9 75.1 143.6 75.8 143.3 76.1 C 143.0 76.3 143.7 76.3 143.3 76.7 C 142.9 77.0 142.8 76.5 142.3 76.8 C 141.9 77.1 142.3 77.4 142.2 77.7 C 142.1 77.9 141.9 77.7 141.7 77.8 C 141.6 78.0 141.2 78.1 140.9 78.5 C 140.7 78.9 140.9 79.0 140.7 79.1 C 140.6 79.3 140.3 79.6 140.3 79.6 C 140.2 79.5 140.1 79.4 139.9 79.3 C 139.9 79.3 139.3 79.9 139.0 80.1 C 138.8 80.2 138.6 80.8 138.8 80.8 C 138.9 80.7 138.8 81.4 138.6 81.4 C 138.5 81.5 138.0 81.6 137.7 81.7 C 137.4 81.9 138.3 82.7 138.5 82.9 C 138.6 83.0 139.0 83.6 139.2 83.5 C 139.5 83.3 139.4 83.0 139.5 83.2 C 139.6 83.3 140.1 82.6 140.2 82.5 C 140.4 82.3 140.2 81.8 140.2 81.8 C 140.2 81.8 140.1 81.3 140.3 81.1 C 140.6 80.8 141.3 81.3 141.3 81.3 C 141.3 81.3 141.7 81.1 142.0 80.8 C 142.2 80.4 142.1 79.6 142.1 79.5 C 142.0 79.3 142.5 79.7 142.7 79.6 C 143.0 79.4 143.5 79.2 143.5 79.1 C 143.6 79.0 143.5 78.5 143.5 78.5 C 143.5 78.5 143.7 78.0 143.8 77.9 C 143.9 77.8 144.1 78.4 144.1 78.4 C 144.1 78.4 145.1 77.6 145.3 77.5 C 145.5 77.3 145.7 77.0 145.8 76.8 C 145.9 76.7 145.5 75.9 145.8 75.8 C 146.0 75.7 145.9 76.3 146.2 76.2 C 146.4 76.1 146.8 75.8 146.9 75.7 C 147.0 75.6 147.0 75.3 147.1 75.2 C 147.2 75.0 147.1 74.4 147.3 74.1 C 147.6 73.9 147.9 74.0 148.1 73.9 C 148.2 73.9 148.6 74.2 148.8 74.0 C 149.0 73.8 148.7 73.7 148.8 73.5 C 149.0 73.3 148.8 73.1 149.0 72.9 C 149.2 72.8 149.6 73.3 149.7 73.1 C 149.8 73.0 149.7 73.1 150.2 72.5 C 150.2 72.5 150.2 72.5 150.2 72.5 Z M 137.6 84.3 C 137.7 84.1 138.0 84.3 138.4 84.0 C 138.8 83.8 139.2 83.4 139.0 83.3 C 138.7 83.3 138.5 83.3 138.5 82.9 C 138.4 82.5 138.2 81.9 137.9 82.0 C 137.5 82.1 136.3 82.6 136.2 83.0 C 136.1 83.5 136.1 83.7 136.0 84.0 C 136.0 84.3 135.7 83.8 135.7 83.8 C 135.7 83.8 135.2 84.2 134.8 84.5 C 134.4 84.8 134.0 85.2 134.1 85.3 C 134.1 85.4 134.1 85.7 134.1 85.7 C 134.1 85.7 133.7 85.7 133.4 85.9 C 133.1 86.1 133.3 86.1 133.5 86.2 C 133.6 86.3 134.2 86.2 134.1 86.3 C 134.0 86.4 133.2 86.3 133.0 86.5 C 132.8 86.6 132.4 87.1 132.4 87.1 C 132.4 87.1 132.7 87.2 132.7 87.3 C 132.7 87.4 132.4 87.9 132.3 87.8 C 132.2 87.7 131.9 87.4 131.7 87.6 C 131.1 88.2 131.6 88.6 131.6 88.7 C 131.5 88.7 131.2 88.4 131.0 88.5 C 130.8 88.5 129.6 89.8 129.6 90.0 C 129.6 90.1 128.9 90.2 128.9 90.6 C 129.0 91.0 129.0 91.1 129.0 91.2 C 129.0 91.3 129.2 91.9 128.9 91.9 C 128.7 91.9 128.7 91.0 128.5 91.0 C 128.2 91.0 127.4 91.8 127.4 92.0 C 127.4 92.4 127.7 92.8 127.6 92.9 C 127.5 93.0 126.6 93.0 126.6 93.1 C 126.7 93.2 127.0 93.6 127.1 93.7 C 127.1 93.7 127.6 94.6 127.8 94.5 C 128.0 94.5 128.7 94.3 128.5 94.2 C 128.2 94.1 127.9 93.9 127.9 93.7 C 128.0 93.5 128.1 93.4 128.2 93.4 C 128.3 93.4 128.3 93.6 128.7 93.4 C 129.1 93.3 129.1 93.6 129.3 93.3 C 129.6 93.1 129.8 92.8 129.6 92.7 C 129.4 92.5 129.5 92.1 129.7 91.9 C 129.9 91.7 129.9 92.4 130.6 91.9 C 131.3 91.5 131.7 91.1 131.7 90.9 C 131.8 90.6 131.4 90.1 131.9 90.0 C 132.3 89.9 132.3 90.2 132.6 89.8 C 133.0 89.4 132.8 89.0 133.0 88.7 C 133.2 88.5 133.3 88.4 133.3 88.4 C 133.3 88.4 133.6 89.0 134.2 88.5 C 134.7 88.0 134.9 87.9 134.5 87.7 C 134.0 87.5 134.4 87.1 134.6 87.3 C 134.9 87.5 135.3 87.3 135.5 87.1 C 135.7 87.0 135.2 86.4 135.3 86.3 C 135.4 86.2 135.6 86.1 135.7 86.3 C 135.8 86.6 136.0 86.4 136.3 86.3 C 136.5 86.2 136.9 85.7 136.8 85.6 C 136.7 85.5 136.1 85.4 136.6 85.2 C 137.1 85.1 137.5 85.2 137.8 84.9 C 138.1 84.6 137.5 84.5 137.6 84.3 C 137.6 84.3 137.6 84.3 137.6 84.3 Z M 127.5 95.1 C 127.9 95.0 127.9 94.5 127.7 94.4 C 127.5 94.2 126.9 93.8 126.8 93.6 C 126.8 93.3 126.7 92.6 126.2 93.0 C 125.6 93.4 125.7 93.7 125.8 93.8 C 125.9 93.9 126.4 94.5 126.2 94.6 C 126.0 94.7 125.7 94.7 125.6 94.6 C 125.5 94.6 124.8 94.3 124.7 94.6 C 124.5 94.9 124.5 95.2 124.5 95.2 C 124.4 95.4 124.2 95.5 124.1 95.6 C 124.1 95.6 123.5 95.6 123.3 95.9 C 123.1 96.2 122.9 96.5 122.6 96.7 C 122.4 96.9 122.3 97.1 122.4 97.3 C 122.5 97.4 122.7 98.1 122.7 98.1 C 122.7 98.1 122.5 98.5 122.3 98.6 C 122.1 98.6 121.8 98.4 121.8 98.3 C 121.7 98.1 121.4 97.9 121.2 98.1 C 120.9 98.2 119.9 98.8 119.9 99.1 C 119.9 99.3 120.1 99.5 120.1 99.6 C 120.1 99.8 119.5 100.4 119.4 100.3 C 119.2 100.2 119.0 99.9 118.8 100.1 C 118.7 100.3 118.3 100.5 118.4 100.6 C 118.4 100.6 118.4 100.8 118.6 101.0 C 118.7 101.1 118.5 101.6 118.5 101.7 C 118.5 101.9 118.3 102.1 118.3 102.1 C 118.1 102.2 117.9 102.2 117.7 102.2 C 117.7 102.2 117.7 101.7 117.7 101.6 C 117.7 101.5 117.4 101.4 117.3 101.5 C 117.2 101.6 116.6 102.2 116.6 102.2 C 116.8 102.4 117.0 102.7 117.2 102.9 C 117.1 103.1 117.0 103.2 116.9 103.4 C 116.9 103.4 116.2 102.7 116.0 102.9 C 115.7 103.2 115.3 103.6 115.3 103.6 C 115.3 103.6 115.3 104.1 115.2 104.2 C 115.2 104.3 115.8 105.0 115.8 105.0 C 116.1 105.2 116.3 105.5 116.6 105.7 C 116.6 105.7 117.2 105.6 117.3 105.3 C 117.4 105.0 117.0 104.9 116.9 104.7 C 116.8 104.6 116.9 104.2 116.9 104.2 C 117.2 104.2 117.5 104.2 117.7 104.2 C 117.7 104.2 118.0 104.2 118.2 104.2 C 118.5 104.2 119.0 103.8 119.1 103.7 C 119.1 103.5 119.1 103.2 119.1 102.9 C 119.2 102.6 118.9 102.4 119.3 102.4 C 119.6 102.4 119.9 102.5 120.0 102.4 C 120.1 102.3 120.3 101.7 120.3 101.7 C 120.3 101.5 120.4 101.3 120.5 101.1 C 120.5 101.1 120.6 100.7 120.8 100.8 C 121.0 100.9 121.5 100.1 121.5 100.1 C 121.5 100.1 121.8 100.6 122.1 100.5 C 122.3 100.5 122.7 100.3 122.8 100.0 C 123.0 99.7 122.8 99.0 122.8 99.0 C 123.0 99.1 123.2 99.1 123.4 99.1 C 123.6 98.9 123.9 98.7 124.2 98.5 C 124.2 98.5 124.7 98.0 124.6 97.9 C 124.5 97.8 124.1 97.5 124.0 97.4 C 124.0 97.2 124.1 96.8 124.3 96.9 C 124.4 97.0 125.0 97.1 125.0 97.1 C 125.0 97.1 125.5 97.1 125.6 97.0 C 125.8 96.8 126.0 96.5 126.0 96.3 C 125.9 96.2 125.9 95.7 125.9 95.7 C 126.1 95.7 126.3 95.8 126.5 95.8 C 126.5 95.8 126.7 95.2 127.5 95.1 C 127.5 95.1 127.5 95.1 127.5 95.1 Z M 116.6 106.1 C 117.1 105.6 115.4 104.5 114.9 104.5 C 114.3 104.4 114.2 104.9 113.7 105.3 C 113.3 105.6 113.9 105.9 113.8 106.3 C 113.7 106.6 113.5 106.2 113.2 106.1 C 112.9 106.0 112.5 106.8 112.1 107.1 C 111.8 107.4 111.9 108.2 111.6 108.6 C 111.4 108.9 112.1 108.6 111.6 109.0 C 111.0 109.5 111.0 109.0 111.5 108.3 C 111.9 107.6 111.0 108.2 110.6 108.5 C 110.2 108.8 109.9 109.5 109.6 109.7 C 109.4 109.9 110.0 110.0 109.7 110.3 C 109.3 110.7 109.1 110.1 108.7 110.5 C 108.3 110.8 108.7 111.1 108.6 111.3 C 108.4 111.6 108.3 111.3 108.1 111.5 C 107.9 111.6 107.6 111.7 107.3 112.2 C 107.0 112.6 107.2 112.6 107.1 112.8 C 107.0 113.0 106.7 113.2 106.7 113.2 C 106.5 113.1 106.4 113.0 106.3 112.9 C 106.3 112.9 105.6 113.5 105.4 113.7 C 105.2 113.9 104.9 114.4 105.1 114.4 C 105.3 114.4 105.1 115.0 105.0 115.1 C 104.8 115.1 104.3 115.2 104.0 115.4 C 103.7 115.5 104.7 116.4 104.8 116.5 C 105.0 116.6 105.3 117.2 105.6 117.1 C 105.8 117.0 105.8 116.6 105.9 116.8 C 106.0 117.0 106.4 116.3 106.6 116.1 C 106.7 116.0 106.6 115.4 106.6 115.4 C 106.6 115.4 106.4 115.0 106.7 114.7 C 106.9 114.5 107.6 115.0 107.6 115.0 C 107.6 115.0 108.0 114.8 108.3 114.4 C 108.6 114.1 108.5 113.3 108.4 113.1 C 108.4 112.9 108.8 113.4 109.1 113.2 C 109.4 113.1 109.8 112.9 109.9 112.7 C 109.9 112.6 109.8 112.2 109.8 112.2 C 109.8 112.2 110.0 111.6 110.1 111.5 C 110.2 111.4 110.5 112.0 110.5 112.0 C 110.5 112.0 111.5 111.3 111.7 111.1 C 111.9 111.0 112.0 110.6 112.1 110.5 C 112.2 110.3 111.9 109.6 112.1 109.5 C 112.4 109.3 112.3 110.0 112.5 109.8 C 112.8 109.7 113.2 109.5 113.3 109.4 C 113.4 109.3 113.3 109.0 113.5 108.8 C 113.6 108.6 113.4 108.0 113.7 107.8 C 113.9 107.5 114.3 107.6 114.4 107.6 C 114.6 107.5 115.0 107.8 115.2 107.6 C 115.4 107.4 115.0 107.4 115.2 107.2 C 115.4 107.0 115.1 106.7 115.4 106.6 C 115.6 106.5 115.9 107.0 116.1 106.7 C 116.1 106.6 116.1 106.7 116.6 106.1 C 116.6 106.1 116.6 106.1 116.6 106.1 Z M 105.1 117.5 C 105.5 117.5 105.5 117.0 105.3 116.8 C 105.1 116.6 104.4 116.2 104.4 116.0 C 104.3 115.7 104.3 115.1 103.7 115.5 C 103.2 115.8 103.2 116.1 103.4 116.2 C 103.5 116.3 103.9 117.0 103.8 117.1 C 103.6 117.1 103.3 117.1 103.2 117.1 C 103.1 117.0 102.4 116.7 102.3 117.0 C 102.1 117.3 102.0 117.7 102.0 117.7 C 101.9 117.8 101.8 117.9 101.7 118.0 C 101.7 118.0 101.1 118.0 100.9 118.3 C 100.7 118.7 100.4 119.0 100.2 119.1 C 100.0 119.3 99.9 119.5 100.0 119.7 C 100.0 119.8 100.2 120.5 100.2 120.5 C 100.2 120.5 100.1 120.9 99.9 121.0 C 99.7 121.0 99.4 120.8 99.3 120.7 C 99.3 120.6 99.0 120.4 98.7 120.5 C 98.5 120.6 97.4 121.2 97.5 121.5 C 97.5 121.8 97.7 121.9 97.7 122.1 C 97.6 122.2 97.1 122.8 96.9 122.7 C 96.8 122.6 96.5 122.3 96.4 122.5 C 96.3 122.7 95.9 122.9 95.9 123.0 C 96.0 123.1 96.0 123.3 96.1 123.4 C 96.3 123.6 96.1 124.0 96.1 124.1 C 96.1 124.3 95.9 124.6 95.9 124.6 C 95.7 124.6 95.5 124.6 95.3 124.6 C 95.3 124.6 95.2 124.2 95.3 124.0 C 95.3 123.9 95.0 123.9 94.9 123.9 C 94.7 124.0 94.2 124.7 94.2 124.7 C 94.4 124.9 94.6 125.1 94.8 125.3 C 94.7 125.5 94.6 125.7 94.5 125.9 C 94.5 125.9 93.8 125.1 93.5 125.4 C 93.2 125.7 92.9 126.0 92.9 126.0 C 92.9 126.0 92.9 126.6 92.8 126.7 C 92.8 126.8 93.4 127.4 93.4 127.4 C 93.6 127.7 93.9 127.9 94.2 128.1 C 94.2 128.1 94.8 128.0 94.9 127.7 C 95.0 127.4 94.5 127.3 94.4 127.2 C 94.3 127.0 94.5 126.6 94.5 126.6 C 94.8 126.6 95.0 126.6 95.3 126.6 C 95.3 126.6 95.5 126.6 95.8 126.6 C 96.0 126.6 96.6 126.3 96.6 126.1 C 96.7 125.9 96.7 125.6 96.7 125.3 C 96.7 125.1 96.5 124.9 96.8 124.9 C 97.2 124.8 97.5 124.9 97.6 124.8 C 97.7 124.7 97.9 124.1 97.9 124.1 C 97.9 123.9 98.0 123.7 98.0 123.6 C 98.0 123.6 98.2 123.1 98.4 123.2 C 98.6 123.4 99.0 122.6 99.0 122.6 C 99.0 122.6 99.4 123.1 99.7 123.0 C 99.9 122.9 100.2 122.7 100.4 122.4 C 100.6 122.1 100.4 121.5 100.4 121.5 C 100.6 121.5 100.7 121.5 100.9 121.6 C 101.2 121.4 101.5 121.2 101.7 121.0 C 101.7 121.0 102.2 120.4 102.2 120.3 C 102.1 120.2 101.7 119.9 101.6 119.8 C 101.5 119.7 101.7 119.3 101.8 119.4 C 102.0 119.5 102.6 119.5 102.6 119.5 C 102.6 119.5 103.0 119.5 103.2 119.4 C 103.4 119.3 103.5 118.9 103.5 118.8 C 103.5 118.6 103.5 118.1 103.5 118.1 C 103.7 118.2 103.9 118.2 104.0 118.2 C 104.0 118.2 104.3 117.6 105.1 117.5 C 105.1 117.5 105.1 117.5 105.1 117.5 Z M 94.2 128.6 C 94.7 128.0 92.9 126.9 92.4 126.9 C 91.9 126.8 91.7 127.4 91.3 127.7 C 90.9 128.0 91.4 128.3 91.4 128.7 C 91.3 129.0 91.1 128.7 90.8 128.5 C 90.5 128.4 90.1 129.2 89.7 129.5 C 89.3 129.8 89.4 130.7 89.2 131.0 C 88.9 131.3 89.7 131.0 89.1 131.5 C 88.6 131.9 88.6 131.4 89.0 130.7 C 89.5 130.0 88.5 130.7 88.2 130.9 C 87.8 131.2 87.5 131.9 87.2 132.1 C 86.9 132.4 87.6 132.4 87.2 132.8 C 86.9 133.1 86.7 132.6 86.3 132.9 C 85.8 133.2 86.2 133.5 86.1 133.8 C 86.0 134.0 85.9 133.8 85.7 133.9 C 85.5 134.0 85.1 134.2 84.9 134.6 C 84.6 135.0 84.8 135.0 84.7 135.2 C 84.5 135.4 84.3 135.7 84.3 135.7 C 84.1 135.6 84.0 135.5 83.8 135.4 C 83.8 135.4 83.2 136.0 83.0 136.1 C 82.8 136.3 82.5 136.9 82.7 136.8 C 82.9 136.8 82.7 137.5 82.5 137.5 C 82.4 137.5 81.9 137.7 81.6 137.8 C 81.3 137.9 82.3 138.8 82.4 138.9 C 82.5 139.1 82.9 139.7 83.1 139.5 C 83.4 139.4 83.4 139.1 83.5 139.2 C 83.6 139.4 84.0 138.7 84.1 138.5 C 84.3 138.4 84.1 137.9 84.1 137.9 C 84.1 137.9 84.0 137.4 84.3 137.2 C 84.5 136.9 85.2 137.4 85.2 137.4 C 85.2 137.4 85.6 137.2 85.9 136.9 C 86.2 136.5 86.0 135.7 86.0 135.5 C 86.0 135.4 86.4 135.8 86.6 135.6 C 86.9 135.5 87.4 135.3 87.4 135.2 C 87.5 135.1 87.4 134.6 87.4 134.6 C 87.4 134.6 87.6 134.0 87.7 133.9 C 87.8 133.8 88.1 134.4 88.1 134.4 C 88.1 134.4 89.0 133.7 89.2 133.6 C 89.4 133.4 89.6 133.0 89.7 132.9 C 89.8 132.7 89.5 132.0 89.7 131.9 C 89.9 131.8 89.8 132.4 90.1 132.3 C 90.3 132.1 90.8 131.9 90.9 131.8 C 91.0 131.7 90.9 131.4 91.0 131.2 C 91.2 131.0 91.0 130.4 91.2 130.2 C 91.5 129.9 91.8 130.1 92.0 130.0 C 92.1 130.0 92.5 130.2 92.8 130.1 C 93.0 129.9 92.6 129.8 92.8 129.6 C 93.0 129.4 92.7 129.2 92.9 129.0 C 93.2 128.9 93.5 129.4 93.6 129.1 C 93.7 129.0 93.6 129.1 94.2 128.6 C 94.2 128.6 94.2 128.6 94.2 128.6 Z M 82.6 140.0 C 83.1 139.9 83.1 139.4 82.9 139.2 C 82.6 139.1 82.0 138.7 82.0 138.4 C 81.9 138.2 81.9 137.5 81.3 137.9 C 80.8 138.3 80.8 138.5 80.9 138.6 C 81.1 138.8 81.5 139.4 81.3 139.5 C 81.2 139.6 80.9 139.5 80.8 139.5 C 80.7 139.5 80.0 139.1 79.8 139.4 C 79.7 139.7 79.6 140.1 79.6 140.1 C 79.5 140.2 79.4 140.3 79.3 140.5 C 79.3 140.5 78.6 140.5 78.5 140.8 C 78.3 141.1 78.0 141.4 77.8 141.6 C 77.6 141.7 77.4 142.0 77.5 142.1 C 77.6 142.3 77.8 143.0 77.8 143.0 C 77.8 143.0 77.6 143.4 77.4 143.4 C 77.2 143.5 77.0 143.3 76.9 143.1 C 76.8 143.0 76.6 142.8 76.3 142.9 C 76.1 143.1 75.0 143.6 75.0 143.9 C 75.1 144.2 75.3 144.4 75.2 144.5 C 75.2 144.6 74.7 145.2 74.5 145.1 C 74.3 145.1 74.1 144.7 74.0 144.9 C 73.8 145.1 73.4 145.4 73.5 145.4 C 73.6 145.5 73.6 145.7 73.7 145.8 C 73.8 146.0 73.6 146.4 73.7 146.6 C 73.7 146.7 73.4 147.0 73.4 147.0 C 73.3 147.0 73.1 147.0 72.9 147.1 C 72.9 147.1 72.8 146.6 72.8 146.5 C 72.9 146.3 72.6 146.3 72.4 146.4 C 72.3 146.4 71.8 147.1 71.8 147.1 C 72.0 147.3 72.1 147.5 72.3 147.7 C 72.2 147.9 72.1 148.1 72.0 148.3 C 72.0 148.3 71.4 147.5 71.1 147.8 C 70.8 148.1 70.5 148.4 70.5 148.4 C 70.5 148.4 70.4 149.0 70.4 149.1 C 70.3 149.2 70.9 149.9 70.9 149.9 C 71.2 150.1 71.5 150.3 71.7 150.5 C 71.7 150.5 72.3 150.4 72.4 150.2 C 72.5 149.9 72.1 149.7 72.0 149.6 C 71.9 149.4 72.1 149.0 72.1 149.0 C 72.3 149.0 72.6 149.1 72.9 149.1 C 72.9 149.1 73.1 149.1 73.4 149.1 C 73.6 149.1 74.1 148.7 74.2 148.5 C 74.3 148.3 74.2 148.0 74.3 147.8 C 74.3 147.5 74.1 147.3 74.4 147.3 C 74.8 147.3 75.1 147.4 75.2 147.3 C 75.3 147.2 75.4 146.5 75.4 146.5 C 75.5 146.3 75.5 146.2 75.6 146.0 C 75.6 146.0 75.8 145.6 76.0 145.7 C 76.2 145.8 76.6 145.0 76.6 145.0 C 76.6 145.0 77.0 145.5 77.2 145.4 C 77.5 145.3 77.8 145.2 78.0 144.8 C 78.2 144.5 77.9 143.9 77.9 143.9 C 78.1 143.9 78.3 144.0 78.5 144.0 C 78.8 143.8 79.0 143.6 79.3 143.4 C 79.3 143.4 79.8 142.8 79.7 142.7 C 79.7 142.7 79.2 142.4 79.2 142.2 C 79.1 142.1 79.3 141.7 79.4 141.8 C 79.6 141.9 80.2 142.0 80.2 142.0 C 80.2 142.0 80.6 142.0 80.8 141.8 C 81.0 141.7 81.1 141.3 81.1 141.2 C 81.1 141.1 81.1 140.5 81.1 140.5 C 81.2 140.6 81.4 140.6 81.6 140.7 C 81.6 140.7 81.9 140.1 82.6 140.0 C 82.6 140.0 82.6 140.0 82.6 140.0 Z M 71.7 151.0 C 72.3 150.4 70.5 149.4 70.0 149.3 C 69.5 149.2 69.3 149.8 68.9 150.1 C 68.4 150.4 69.0 150.8 68.9 151.1 C 68.8 151.5 68.6 151.1 68.3 151.0 C 68.0 150.9 67.6 151.6 67.3 151.9 C 66.9 152.3 67.0 153.1 66.8 153.4 C 66.5 153.7 67.2 153.4 66.7 153.9 C 66.2 154.4 66.2 153.8 66.6 153.1 C 67.0 152.4 66.1 153.1 65.7 153.3 C 65.4 153.6 65.1 154.4 64.8 154.6 C 64.5 154.8 65.2 154.8 64.8 155.2 C 64.4 155.5 64.3 155.0 63.8 155.3 C 63.4 155.6 63.8 155.9 63.7 156.2 C 63.6 156.4 63.4 156.2 63.2 156.3 C 63.1 156.5 62.7 156.6 62.4 157.0 C 62.2 157.4 62.4 157.5 62.2 157.6 C 62.1 157.8 61.8 158.1 61.8 158.1 C 61.7 158.0 61.6 157.9 61.4 157.8 C 61.4 157.8 60.8 158.4 60.5 158.6 C 60.3 158.7 60.1 159.3 60.3 159.3 C 60.4 159.2 60.3 159.9 60.1 159.9 C 60.0 160.0 59.5 160.1 59.2 160.2 C 58.9 160.4 59.8 161.2 60.0 161.4 C 60.1 161.5 60.5 162.1 60.7 162.0 C 61.0 161.8 60.9 161.5 61.0 161.7 C 61.1 161.8 61.6 161.1 61.7 161.0 C 61.9 160.8 61.7 160.3 61.7 160.3 C 61.7 160.3 61.6 159.8 61.8 159.6 C 62.1 159.3 62.7 159.8 62.7 159.8 C 62.7 159.8 63.2 159.6 63.5 159.3 C 63.7 158.9 63.6 158.1 63.6 158.0 C 63.5 157.8 64.0 158.2 64.2 158.1 C 64.5 157.9 65.0 157.7 65.0 157.6 C 65.1 157.5 65.0 157.0 65.0 157.0 C 65.0 157.0 65.2 156.5 65.3 156.4 C 65.4 156.3 65.6 156.9 65.6 156.9 C 65.6 156.9 66.6 156.1 66.8 156.0 C 67.0 155.8 67.2 155.5 67.3 155.3 C 67.4 155.2 67.0 154.5 67.3 154.3 C 67.5 154.2 67.4 154.8 67.7 154.7 C 67.9 154.6 68.3 154.3 68.4 154.2 C 68.5 154.1 68.5 153.8 68.6 153.7 C 68.7 153.5 68.6 152.9 68.8 152.6 C 69.1 152.4 69.4 152.5 69.6 152.4 C 69.7 152.4 70.1 152.7 70.3 152.5 C 70.5 152.3 70.2 152.2 70.3 152.0 C 70.5 151.8 70.3 151.6 70.5 151.4 C 70.7 151.3 71.1 151.8 71.2 151.6 C 71.3 151.5 71.2 151.6 71.7 151.0 C 71.7 151.0 71.7 151.0 71.7 151.0 Z M 59.1 162.8 C 59.2 162.6 59.5 162.8 59.9 162.5 C 60.3 162.3 60.7 161.9 60.5 161.8 C 60.2 161.8 60.0 161.8 60.0 161.4 C 59.9 161.0 59.7 160.4 59.4 160.5 C 59.0 160.6 57.8 161.1 57.7 161.5 C 57.6 162.0 57.6 162.2 57.5 162.5 C 57.5 162.8 57.2 162.3 57.2 162.3 C 57.2 162.3 56.7 162.7 56.3 163.0 C 55.9 163.3 55.5 163.7 55.6 163.8 C 55.6 163.9 55.6 164.2 55.6 164.2 C 55.6 164.2 55.2 164.2 54.9 164.4 C 54.6 164.6 54.8 164.6 55.0 164.7 C 55.1 164.8 55.7 164.7 55.6 164.8 C 55.5 164.9 54.7 164.8 54.5 165.0 C 54.3 165.1 53.9 165.6 53.9 165.6 C 53.9 165.6 54.2 165.8 54.2 165.8 C 54.2 165.9 53.9 166.4 53.8 166.3 C 53.7 166.2 53.4 165.9 53.2 166.1 C 52.6 166.7 53.1 167.1 53.1 167.2 C 53.0 167.2 52.7 166.9 52.5 167.0 C 52.3 167.0 51.1 168.3 51.1 168.5 C 51.1 168.6 50.4 168.7 50.4 169.1 C 50.5 169.5 50.5 169.6 50.5 169.7 C 50.5 169.8 50.7 170.4 50.4 170.4 C 50.2 170.4 50.2 169.5 50.0 169.5 C 49.7 169.5 48.9 170.3 48.9 170.5 C 48.9 170.9 49.2 171.3 49.1 171.4 C 49.0 171.5 48.1 171.5 48.1 171.6 C 48.2 171.7 48.5 172.1 48.6 172.2 C 48.6 172.2 49.1 173.1 49.3 173.1 C 49.5 173.0 50.2 172.8 50.0 172.7 C 49.7 172.6 49.4 172.4 49.4 172.2 C 49.5 172.0 49.6 171.9 49.7 171.9 C 49.8 171.9 49.8 172.1 50.2 171.9 C 50.6 171.8 50.6 172.1 50.8 171.8 C 51.1 171.6 51.3 171.3 51.1 171.2 C 50.9 171.0 51.0 170.6 51.2 170.4 C 51.4 170.2 51.4 170.9 52.1 170.4 C 52.8 170.0 53.2 169.6 53.2 169.4 C 53.3 169.1 52.9 168.6 53.4 168.5 C 53.8 168.4 53.7 168.7 54.1 168.3 C 54.5 167.9 54.3 167.5 54.5 167.2 C 54.7 167.0 54.8 166.9 54.8 166.9 C 54.8 166.9 55.1 167.5 55.7 167.0 C 56.2 166.5 56.4 166.4 56.0 166.2 C 55.5 166.0 55.9 165.6 56.1 165.8 C 56.4 166.0 56.8 165.8 57.0 165.6 C 57.2 165.5 56.7 164.9 56.8 164.8 C 56.9 164.7 57.1 164.6 57.2 164.8 C 57.3 165.1 57.5 164.9 57.8 164.8 C 58.0 164.7 58.4 164.2 58.3 164.1 C 58.2 164.0 57.6 163.9 58.1 163.7 C 58.6 163.6 59.0 163.7 59.3 163.4 C 59.6 163.1 59.0 163.0 59.1 162.8 C 59.1 162.8 59.1 162.8 59.1 162.8 Z M 49.0 173.6 C 49.4 173.5 49.4 173.0 49.2 172.9 C 49.0 172.7 48.4 172.3 48.3 172.1 C 48.3 171.8 48.2 171.1 47.7 171.5 C 47.1 171.9 47.2 172.2 47.3 172.3 C 47.4 172.4 47.9 173.0 47.7 173.1 C 47.5 173.2 47.2 173.2 47.1 173.1 C 47.0 173.1 46.3 172.8 46.2 173.1 C 46.0 173.4 46.0 173.7 46.0 173.7 C 45.9 173.9 45.7 174.0 45.6 174.1 C 45.6 174.1 45.0 174.1 44.8 174.4 C 44.6 174.7 44.4 175.0 44.1 175.2 C 43.9 175.4 43.8 175.6 43.9 175.8 C 44.0 175.9 44.2 176.6 44.2 176.6 C 44.2 176.6 44.0 177.0 43.8 177.1 C 43.6 177.1 43.3 176.9 43.3 176.8 C 43.2 176.6 42.9 176.4 42.7 176.6 C 42.4 176.7 41.4 177.3 41.4 177.6 C 41.4 177.8 41.6 178.0 41.6 178.1 C 41.5 178.3 41.0 178.9 40.9 178.8 C 40.7 178.7 40.5 178.4 40.3 178.6 C 40.2 178.8 39.8 179.0 39.9 179.1 C 39.9 179.1 39.9 179.3 40.1 179.5 C 40.2 179.6 40.0 180.1 40.0 180.2 C 40.0 180.4 39.8 180.6 39.8 180.6 C 39.6 180.7 39.4 180.7 39.2 180.7 C 39.2 180.7 39.2 180.2 39.2 180.1 C 39.2 180.0 38.9 179.9 38.8 180.0 C 38.7 180.1 38.1 180.7 38.1 180.7 C 38.3 180.9 38.5 181.2 38.7 181.4 C 38.6 181.6 38.5 181.7 38.4 181.9 C 38.4 181.9 37.7 181.2 37.4 181.4 C 37.2 181.7 36.8 182.1 36.8 182.1 C 36.8 182.1 36.8 182.6 36.7 182.7 C 36.7 182.8 37.3 183.5 37.3 183.5 C 37.6 183.7 37.8 184.0 38.1 184.2 C 38.1 184.2 38.7 184.1 38.8 183.8 C 38.9 183.5 38.5 183.4 38.4 183.2 C 38.3 183.1 38.4 182.7 38.4 182.7 C 38.7 182.7 39.0 182.7 39.2 182.7 C 39.2 182.7 39.5 182.7 39.7 182.7 C 40.0 182.7 40.5 182.3 40.6 182.2 C 40.6 182.0 40.6 181.7 40.6 181.4 C 40.7 181.1 40.4 180.9 40.8 180.9 C 41.1 180.9 41.4 181.0 41.5 180.9 C 41.6 180.8 41.8 180.2 41.8 180.2 C 41.8 180.0 41.9 179.8 42.0 179.6 C 42.0 179.6 42.1 179.2 42.3 179.3 C 42.5 179.4 43.0 178.6 43.0 178.6 C 43.0 178.6 43.3 179.1 43.6 179.0 C 43.8 179.0 44.2 178.8 44.3 178.5 C 44.5 178.2 44.3 177.6 44.3 177.6 C 44.5 177.6 44.7 177.6 44.9 177.6 C 45.1 177.4 45.4 177.2 45.7 177.0 C 45.7 177.0 46.2 176.5 46.1 176.4 C 46.0 176.3 45.6 176.0 45.5 175.9 C 45.5 175.7 45.6 175.3 45.8 175.4 C 45.9 175.5 46.5 175.6 46.5 175.6 C 46.5 175.6 47.0 175.6 47.1 175.5 C 47.3 175.3 47.5 175.0 47.5 174.8 C 47.4 174.7 47.4 174.2 47.4 174.2 C 47.6 174.2 47.8 174.3 48.0 174.3 C 48.0 174.3 48.2 173.7 49.0 173.6 C 49.0 173.6 49.0 173.6 49.0 173.6 Z M 38.1 184.6 C 38.6 184.1 36.9 183.0 36.3 183.0 C 35.8 182.9 35.7 183.4 35.2 183.8 C 34.8 184.1 35.4 184.4 35.3 184.8 C 35.2 185.1 35.0 184.7 34.7 184.6 C 34.4 184.5 34.0 185.3 33.6 185.6 C 33.3 185.9 33.4 186.7 33.1 187.1 C 32.9 187.4 33.6 187.1 33.1 187.5 C 32.5 188.0 32.5 187.5 33.0 186.8 C 33.4 186.1 32.5 186.7 32.1 187.0 C 31.7 187.3 31.4 188.0 31.1 188.2 C 30.9 188.4 31.5 188.5 31.2 188.8 C 30.8 189.2 30.6 188.6 30.2 189.0 C 29.8 189.3 30.2 189.6 30.1 189.8 C 29.9 190.1 29.8 189.8 29.6 190.0 C 29.4 190.1 29.1 190.2 28.8 190.7 C 28.5 191.1 28.7 191.1 28.6 191.3 C 28.5 191.5 28.2 191.7 28.2 191.7 C 28.0 191.6 27.9 191.5 27.8 191.4 C 27.8 191.4 27.1 192.0 26.9 192.2 C 26.7 192.4 26.4 192.9 26.6 192.9 C 26.8 192.9 26.6 193.5 26.5 193.6 C 26.3 193.6 25.8 193.7 25.5 193.9 C 25.2 194.0 26.2 194.9 26.3 195.0 C 26.5 195.1 26.8 195.7 27.1 195.6 C 27.3 195.5 27.3 195.1 27.4 195.3 C 27.5 195.5 27.9 194.8 28.1 194.6 C 28.2 194.5 28.1 193.9 28.1 193.9 C 28.1 193.9 27.9 193.5 28.2 193.2 C 28.4 193.0 29.1 193.5 29.1 193.5 C 29.1 193.5 29.5 193.3 29.8 192.9 C 30.1 192.6 30.0 191.8 29.9 191.6 C 29.9 191.4 30.3 191.9 30.6 191.7 C 30.8 191.6 31.3 191.4 31.4 191.2 C 31.4 191.1 31.3 190.7 31.3 190.7 C 31.3 190.7 31.5 190.1 31.6 190.0 C 31.7 189.9 32.0 190.5 32.0 190.5 C 32.0 190.5 33.0 189.8 33.2 189.6 C 33.4 189.5 33.5 189.1 33.6 189.0 C 33.7 188.8 33.4 188.1 33.6 188.0 C 33.9 187.8 33.8 188.5 34.0 188.3 C 34.3 188.2 34.7 188.0 34.8 187.9 C 34.9 187.8 34.8 187.5 35.0 187.3 C 35.1 187.1 34.9 186.5 35.2 186.3 C 35.4 186.0 35.8 186.1 35.9 186.1 C 36.1 186.0 36.5 186.3 36.7 186.1 C 36.9 185.9 36.5 185.9 36.7 185.7 C 36.9 185.5 36.6 185.2 36.9 185.1 C 37.1 185.0 37.4 185.5 37.6 185.2 C 37.6 185.1 37.6 185.2 38.1 184.6 C 38.1 184.6 38.1 184.6 38.1 184.6 Z M 26.6 196.0 C 27.0 196.0 27.0 195.5 26.8 195.3 C 26.6 195.1 25.9 194.7 25.9 194.5 C 25.8 194.2 25.8 193.6 25.2 194.0 C 24.7 194.3 24.7 194.6 24.9 194.7 C 25.0 194.8 25.4 195.5 25.3 195.6 C 25.1 195.6 24.8 195.6 24.7 195.6 C 24.6 195.5 23.9 195.2 23.7 195.5 C 23.6 195.8 23.5 196.2 23.5 196.2 C 23.4 196.3 23.3 196.4 23.2 196.5 C 23.2 196.5 22.6 196.5 22.4 196.8 C 22.2 197.2 21.9 197.5 21.7 197.6 C 21.5 197.8 21.4 198.0 21.5 198.2 C 21.5 198.3 21.7 199.0 21.7 199.0 C 21.7 199.0 21.6 199.4 21.4 199.5 C 21.2 199.5 20.9 199.3 20.8 199.2 C 20.8 199.1 20.5 198.9 20.2 199.0 C 20.0 199.1 18.9 199.7 19.0 200.0 C 19.0 200.3 19.2 200.4 19.2 200.6 C 19.1 200.7 18.6 201.3 18.4 201.2 C 18.3 201.1 18.0 200.8 17.9 201.0 C 17.8 201.2 17.4 201.4 17.4 201.5 C 17.5 201.6 17.5 201.8 17.6 201.9 C 17.8 202.1 17.6 202.5 17.6 202.6 C 17.6 202.8 17.4 203.1 17.4 203.1 C 17.2 203.1 17.0 203.1 16.8 203.1 C 16.8 203.1 16.7 202.7 16.8 202.5 C 16.8 202.4 16.5 202.4 16.4 202.4 C 16.2 202.5 15.7 203.2 15.7 203.2 C 15.9 203.4 16.1 203.6 16.3 203.8 C 16.2 204.0 16.1 204.2 16.0 204.4 C 16.0 204.4 15.3 203.6 15.0 203.9 C 14.7 204.2 14.4 204.5 14.4 204.5 C 14.4 204.5 14.4 205.1 14.3 205.2 C 14.3 205.3 14.9 205.9 14.9 205.9 C 15.1 206.2 15.4 206.4 15.7 206.6 C 15.7 206.6 16.3 206.5 16.4 206.2 C 16.4 205.9 16.0 205.8 15.9 205.7 C 15.8 205.5 16.0 205.1 16.0 205.1 C 16.3 205.1 16.5 205.1 16.8 205.1 C 16.8 205.1 17.0 205.1 17.3 205.1 C 17.5 205.1 18.1 204.8 18.1 204.6 C 18.2 204.4 18.2 204.1 18.2 203.8 C 18.2 203.6 18.0 203.4 18.3 203.4 C 18.7 203.3 19.0 203.4 19.1 203.3 C 19.2 203.2 19.4 202.6 19.4 202.6 C 19.4 202.4 19.5 202.2 19.5 202.1 C 19.5 202.1 19.7 201.6 19.9 201.7 C 20.1 201.9 20.5 201.1 20.5 201.1 C 20.5 201.1 20.9 201.6 21.2 201.5 C 21.4 201.4 21.7 201.2 21.9 200.9 C 22.1 200.6 21.9 200.0 21.9 200.0 C 22.0 200.0 22.2 200.0 22.4 200.1 C 22.7 199.9 23.0 199.7 23.2 199.5 C 23.2 199.5 23.7 198.9 23.7 198.8 C 23.6 198.7 23.2 198.4 23.1 198.3 C 23.0 198.2 23.2 197.8 23.3 197.9 C 23.5 198.0 24.1 198.0 24.1 198.0 C 24.1 198.0 24.5 198.0 24.7 197.9 C 24.9 197.8 25.0 197.4 25.0 197.3 C 25.0 197.1 25.0 196.6 25.0 196.6 C 25.2 196.7 25.4 196.7 25.5 196.8 C 25.5 196.8 25.8 196.1 26.6 196.0 C 26.6 196.0 26.6 196.0 26.6 196.0 Z M 26.6 196.0 " fill="#878787"></path><path d="M 10.4 200.2 C 10.2 200.0 10.6 199.2 10.6 200.0 C 10.6 200.0 10.4 200.3 10.4 200.2 Z M 10.0 201.7 C 10.0 201.6 10.0 201.5 10.1 201.5 C 10.4 201.4 9.9 202.1 10.0 201.7 Z M 10.8 199.6 C 10.8 199.6 10.9 199.1 11.0 199.2 C 11.0 199.3 10.8 199.6 10.8 199.6 Z M 10.2 203.2 C 10.1 203.2 10.2 202.7 10.3 202.6 C 10.5 202.4 10.5 203.3 10.2 203.2 Z M 14.3 202.2 C 14.4 202.2 14.4 202.3 14.4 202.3 C 14.4 202.3 14.4 202.2 14.3 202.2 Z M 8.1 210.0 C 8.1 209.9 8.3 209.8 8.4 209.9 C 8.5 210.0 8.1 210.3 8.1 210.0 Z M 20.6 208.2 C 20.6 208.2 20.6 208.0 20.7 208.0 C 20.8 208.0 20.8 208.2 20.6 208.2 Z M 20.8 208.1 C 20.8 208.0 21.0 208.1 20.9 208.1 C 20.8 208.2 20.7 208.2 20.8 208.1 Z M 14.5 211.7 C 14.4 211.8 14.4 211.8 14.4 211.7 C 14.5 211.7 14.6 211.7 14.5 211.7 Z M 14.7 211.5 C 14.7 211.4 14.9 211.5 14.8 211.6 C 14.7 211.6 14.6 211.7 14.7 211.5 Z M 16.3 211.8 C 16.2 211.8 16.2 211.9 16.2 211.8 C 16.3 211.7 16.4 211.8 16.3 211.8 Z M 18.4 205.4 C 18.5 205.4 18.6 205.6 18.5 205.7 C 18.4 205.8 18.3 205.4 18.4 205.4 Z M 18.7 205.6 C 18.7 205.5 18.9 205.6 18.8 205.7 C 18.7 205.7 18.6 205.7 18.7 205.6 Z M 17.8 205.0 C 17.7 205.1 17.4 204.9 17.4 204.8 C 17.4 204.7 17.3 204.6 17.3 204.5 C 17.3 204.4 17.9 204.8 17.8 205.0 Z M 16.0 203.4 C 16.0 203.4 16.1 203.4 16.1 203.5 C 16.2 203.6 16.0 203.5 16.0 203.4 Z M 17.0 204.3 C 17.0 204.3 17.1 204.3 17.1 204.4 C 17.2 204.5 17.0 204.3 17.0 204.3 Z M 9.2 205.9 C 9.1 205.9 9.3 205.6 9.3 205.5 C 9.3 205.5 9.3 205.7 9.3 205.6 C 9.4 205.5 9.6 205.8 9.2 205.9 Z M 9.8 202.6 C 9.8 202.5 9.9 202.5 9.9 202.5 C 10.0 202.5 9.8 202.8 9.8 202.6 Z M 9.8 205.5 C 9.7 205.5 9.7 205.4 9.8 205.4 C 9.8 205.4 9.8 205.5 9.8 205.5 Z M 9.8 205.8 C 9.8 205.7 9.9 205.6 10.0 205.6 C 10.1 205.7 9.7 206.1 9.8 205.8 Z M 8.9 206.3 C 9.0 206.2 9.0 206.2 9.0 206.3 C 9.0 206.4 8.9 206.3 8.9 206.3 Z M 9.2 204.4 C 9.3 204.3 9.3 204.3 9.3 204.3 C 9.3 204.4 9.2 204.4 9.2 204.4 Z M 8.9 207.3 C 8.9 207.3 8.9 207.0 9.1 207.0 C 9.4 207.0 9.0 207.3 8.9 207.3 Z M 8.9 208.7 C 8.9 208.6 9.0 208.7 8.9 208.7 C 8.9 208.8 8.8 208.8 8.9 208.7 Z M 9.2 209.3 C 9.1 209.4 9.0 209.5 9.1 209.3 C 9.1 209.1 9.3 209.2 9.2 209.3 Z M 9.2 209.0 C 9.2 209.0 9.2 209.1 9.1 209.1 C 9.1 209.1 9.1 209.0 9.2 209.0 Z M 9.1 207.8 C 9.1 207.7 9.3 207.6 9.3 207.8 C 9.2 207.9 9.2 207.9 9.1 207.8 Z M 13.9 200.9 C 13.8 200.9 13.9 200.8 14.0 200.8 C 14.1 200.8 14.0 201.0 13.9 200.9 Z M 17.1 204.9 C 17.1 204.8 17.1 204.8 17.2 204.9 C 17.3 205.0 17.1 205.0 17.1 204.9 Z M 19.1 207.3 C 19.1 207.2 19.2 207.2 19.3 207.3 C 19.3 207.5 19.1 207.4 19.1 207.3 Z M 16.2 204.0 C 16.2 203.9 16.6 204.0 16.6 204.2 C 16.5 204.5 16.1 204.2 16.2 204.0 Z M 12.2 203.5 C 12.1 203.5 12.2 203.5 12.2 203.5 C 12.3 203.6 12.3 203.6 12.2 203.5 Z M 16.4 204.7 C 16.3 204.7 16.4 204.6 16.5 204.6 C 16.6 204.6 16.5 204.8 16.4 204.7 Z M 18.9 206.8 C 18.8 206.6 19.0 206.5 19.1 206.5 C 19.5 206.6 19.4 206.9 19.4 207.1 C 19.5 207.3 18.9 206.8 18.9 206.8 Z M 13.0 200.7 C 13.1 200.8 13.1 200.9 13.1 200.9 C 13.2 200.9 13.2 201.0 13.2 201.0 C 13.5 201.2 13.8 201.2 14.0 201.3 C 14.5 201.4 14.2 202.0 14.3 202.2 C 14.3 202.2 14.2 202.1 14.2 202.1 C 13.9 202.2 14.8 202.9 14.8 202.9 C 15.6 203.5 14.9 202.6 15.1 202.4 C 15.2 202.3 15.4 203.0 15.5 203.0 C 15.6 203.3 15.8 203.1 15.9 203.4 C 16.0 203.5 15.7 204.3 15.9 204.3 C 16.0 204.3 16.1 204.6 16.2 204.7 C 16.3 204.8 16.6 205.0 16.6 204.7 C 16.7 204.5 16.8 204.3 16.8 204.6 C 16.9 204.8 17.3 205.9 17.7 205.5 C 17.7 205.5 17.6 205.2 17.6 205.2 C 17.9 205.3 18.5 206.1 18.8 206.1 C 19.5 206.1 18.5 206.2 18.5 206.5 C 18.7 206.9 18.7 207.2 19.2 207.5 C 19.3 207.6 19.7 208.0 19.7 207.6 C 19.7 207.3 19.9 207.3 19.7 207.1 C 20.2 207.1 20.0 207.6 20.1 207.6 C 20.3 207.6 20.2 207.4 20.3 207.6 C 20.5 207.8 20.5 207.7 20.3 207.9 C 20.3 208.0 20.5 208.2 20.5 208.2 C 20.4 208.2 20.4 208.3 20.4 208.3 C 20.6 208.4 21.2 208.4 21.2 208.5 C 21.2 208.6 20.8 208.7 20.8 208.8 C 20.8 208.8 20.8 208.9 20.8 208.9 C 20.9 208.9 21.2 209.0 21.2 209.0 C 21.2 209.1 20.7 209.3 20.9 209.3 C 21.1 209.3 21.4 209.8 21.3 209.9 C 21.2 210.0 20.9 210.6 20.9 210.7 C 21.0 210.8 20.6 210.9 20.5 210.9 C 20.4 210.9 20.2 210.8 20.1 210.8 C 20.1 210.8 19.8 210.9 19.8 210.9 C 19.8 210.9 19.7 211.0 19.5 211.0 C 19.3 211.1 19.2 211.0 18.9 211.0 C 18.6 211.0 18.5 211.2 18.3 211.3 C 18.1 211.4 17.7 211.0 17.5 211.0 C 17.3 211.0 17.4 211.3 17.1 211.4 C 16.9 211.5 16.7 211.5 16.8 211.4 C 16.8 211.3 16.7 211.3 16.7 211.3 C 16.6 211.3 16.2 211.3 16.1 211.4 C 16.0 211.5 16.9 211.5 15.9 211.7 C 15.4 211.9 15.0 211.6 15.1 211.6 C 15.4 211.5 14.6 211.2 14.6 211.3 C 14.6 211.5 13.8 211.7 14.0 211.9 C 14.1 211.9 13.3 212.3 13.2 212.2 C 13.0 212.2 12.7 212.4 12.5 212.2 C 12.4 212.0 12.0 212.5 11.9 212.5 C 11.8 212.6 11.1 212.7 10.9 212.7 C 10.8 212.6 11.1 212.5 11.3 212.5 C 11.4 212.5 11.7 212.5 11.8 212.5 C 11.9 212.4 11.6 212.4 11.4 212.4 C 11.2 212.4 11.2 212.3 11.0 212.3 C 11.0 212.3 10.8 212.3 10.7 212.4 C 10.6 212.4 10.6 212.4 10.6 212.5 C 10.6 212.6 10.7 212.6 10.7 212.6 C 10.7 212.7 10.6 212.8 10.4 212.8 C 10.2 212.9 10.0 212.9 9.7 212.9 C 9.4 212.9 9.4 213.0 9.2 213.0 C 9.0 213.1 8.8 213.1 8.8 213.1 C 8.8 213.0 9.0 212.9 9.0 212.9 C 9.0 212.8 8.7 212.7 8.6 212.7 C 8.1 212.8 8.4 212.3 7.9 212.3 C 7.6 212.4 7.9 212.1 8.0 211.9 C 7.9 211.9 7.9 211.9 7.9 211.6 C 7.8 211.6 8.0 211.3 8.0 211.2 C 8.0 211.0 8.1 210.4 8.2 210.8 C 8.2 210.9 8.2 210.9 8.2 210.9 C 8.2 210.9 8.2 210.9 8.2 210.9 C 8.2 210.9 8.4 211.1 8.4 211.1 C 8.4 211.1 8.2 210.9 8.2 210.9 C 8.3 210.9 8.4 210.8 8.5 210.8 C 8.5 210.7 8.5 210.7 8.4 210.7 C 8.4 210.7 8.4 210.6 8.4 210.6 C 8.4 210.6 8.4 210.6 8.4 210.6 C 8.3 210.6 8.3 210.6 8.4 210.5 C 8.3 210.2 8.6 209.8 8.8 209.6 C 9.1 210.3 9.4 209.3 9.4 208.9 C 9.4 208.6 8.7 208.4 8.7 208.6 C 8.8 208.3 8.9 208.3 9.1 208.3 C 9.1 208.3 9.5 208.1 9.5 208.2 C 9.9 207.7 9.3 207.6 9.3 207.5 C 9.2 207.3 9.3 207.1 9.3 206.9 C 9.3 206.8 9.1 206.9 9.1 206.8 C 8.8 206.5 9.5 206.3 9.5 206.1 C 9.5 206.3 9.5 206.4 9.6 206.6 C 9.5 206.4 9.9 206.3 9.9 206.3 C 10.0 206.1 10.0 205.9 10.1 205.7 C 10.1 205.3 10.2 205.0 10.2 204.7 C 10.1 204.8 9.6 205.2 9.6 205.2 C 9.6 205.1 9.8 204.8 9.5 204.9 C 9.1 205.0 9.5 204.2 9.5 204.1 C 9.7 203.7 9.4 203.1 9.9 202.8 C 9.9 202.8 9.9 203.5 10.0 203.5 C 10.4 203.4 10.6 203.3 10.6 202.8 C 10.6 202.8 10.5 202.1 10.5 202.1 C 10.5 202.1 9.5 202.5 9.9 202.0 C 10.0 202.0 10.1 202.2 10.2 202.1 C 10.3 201.9 10.3 201.6 10.4 201.4 C 10.4 201.4 10.6 201.1 10.6 201.1 C 10.5 201.0 10.3 200.9 10.3 200.8 C 10.3 200.7 10.4 200.5 10.5 200.6 C 10.6 200.6 10.6 200.6 10.6 200.6 C 10.6 200.5 10.6 200.5 10.7 200.5 C 10.7 200.5 10.7 200.4 10.8 200.4 C 10.9 200.3 10.9 200.5 10.8 200.6 C 10.8 200.6 10.9 200.6 10.9 200.6 C 10.9 200.5 10.9 200.3 10.9 200.2 C 10.8 199.9 10.7 199.9 11.1 199.6 C 11.5 199.3 12.4 199.8 12.7 200.4 C 12.9 200.4 13.0 200.5 13.0 200.7 Z M 10.3 212.3 C 10.3 212.3 10.4 212.2 10.4 212.2 C 10.3 212.2 10.3 212.1 10.3 212.1 C 10.2 212.1 10.4 212.2 10.2 212.2 C 10.1 212.2 10.1 212.3 10.3 212.3 Z M 9.4 211.2 C 9.3 211.2 9.3 211.3 9.4 211.3 C 9.4 211.2 9.4 211.2 9.4 211.2 Z M 8.8 211.0 C 8.8 211.2 9.1 210.9 9.1 210.6 C 8.9 210.7 8.8 210.9 8.8 211.0 Z M 8.6 210.4 C 8.6 210.4 8.7 210.4 8.7 210.5 C 8.8 210.5 8.7 210.3 8.8 210.3 C 8.9 210.4 8.9 210.6 9.0 210.5 C 9.0 210.4 9.0 210.4 9.1 210.4 C 9.0 210.3 9.0 210.3 9.0 210.3 C 8.9 210.2 8.7 210.3 8.6 210.4 Z M 11.1 211.6 C 11.0 211.6 11.1 211.6 11.2 211.6 C 11.2 211.6 11.2 211.5 11.1 211.6 Z M 12.4 211.8 C 12.3 211.8 12.2 211.8 12.3 211.9 C 12.4 212.0 12.5 211.9 12.4 211.8 Z M 12.4 209.6 C 12.3 209.6 12.4 209.6 12.4 209.6 C 12.5 209.5 12.4 209.5 12.4 209.6 Z M 11.6 208.7 C 11.6 208.6 11.4 208.6 11.4 208.7 C 11.5 208.7 11.6 208.8 11.6 208.7 Z M 13.4 210.7 C 13.5 210.6 13.4 210.6 13.3 210.6 C 13.3 210.7 13.3 210.7 13.4 210.7 Z M 12.1 209.7 C 12.2 209.8 12.2 209.7 12.2 209.7 C 12.2 209.6 12.2 209.6 12.0 209.6 C 11.9 209.7 11.9 209.7 12.1 209.7 Z M 11.3 209.1 C 11.4 208.8 11.3 208.7 11.2 209.1 C 11.2 209.5 11.3 209.3 11.3 209.1 Z M 13.4 212.0 C 13.4 212.0 13.2 212.1 13.2 212.1 C 13.2 212.1 13.7 212.0 13.4 212.0 Z M 9.5 207.2 C 9.5 207.3 9.5 207.4 9.6 207.2 C 9.7 207.0 9.5 207.0 9.5 207.2 Z M 10.3 207.1 C 10.0 207.1 9.9 207.3 9.8 207.3 C 9.9 207.3 10.1 207.4 10.1 207.5 C 10.1 207.7 9.8 207.9 9.9 208.2 C 10.0 208.4 10.2 208.0 10.2 207.9 C 10.2 208.0 10.2 208.0 10.3 208.0 C 10.4 208.0 10.4 208.0 10.4 207.9 C 10.3 207.7 10.6 207.0 10.3 207.1 Z M 12.2 209.1 C 12.1 209.1 12.1 209.3 12.2 209.3 C 12.4 209.3 12.5 209.3 12.5 209.2 C 12.5 209.2 12.3 209.0 12.2 209.1 Z M 12.9 209.6 C 12.9 209.7 12.9 209.7 13.0 209.7 C 13.2 209.6 13.0 209.5 12.9 209.6 Z M 16.7 211.1 C 16.7 211.0 16.5 211.1 16.6 211.1 C 16.6 211.2 16.7 211.2 16.7 211.1 Z M 15.6 210.1 C 15.8 210.0 15.5 210.0 15.5 210.0 C 15.5 210.0 15.5 210.2 15.6 210.1 Z M 14.4 210.1 C 14.5 210.1 14.3 210.0 14.3 210.1 C 14.3 210.1 14.3 210.1 14.4 210.1 Z M 13.9 209.8 C 14.0 209.7 13.9 209.6 13.8 209.7 C 13.8 209.8 13.8 209.8 13.9 209.8 Z M 10.9 206.1 C 10.9 206.1 11.1 206.2 11.0 206.0 C 11.0 205.8 11.0 205.8 10.9 206.1 Z M 11.8 207.6 C 11.8 207.8 11.8 207.9 12.2 208.2 C 12.7 208.4 12.6 208.2 12.4 207.9 C 12.3 207.7 13.0 208.1 12.7 207.6 C 12.6 207.4 11.8 207.4 11.8 207.6 Z M 14.5 209.1 C 14.2 209.0 13.9 209.4 14.2 209.4 C 14.6 209.3 14.8 209.2 14.5 209.1 Z M 14.7 209.3 C 14.6 209.3 14.7 209.3 14.8 209.3 C 14.8 209.3 14.7 209.2 14.7 209.3 Z M 9.6 204.5 C 9.5 205.1 10.1 204.6 10.1 204.6 C 10.4 204.0 9.6 203.9 9.6 204.5 Z M 20.0 208.3 C 20.0 208.2 20.0 208.2 20.0 208.2 C 20.0 208.2 20.0 208.2 20.0 208.2 C 19.9 208.2 19.9 208.4 19.9 208.4 C 20.0 208.4 20.0 208.3 20.0 208.3 Z M 18.0 206.0 C 18.1 206.1 18.2 206.2 18.3 206.2 C 18.4 206.0 17.8 205.3 17.7 205.9 C 17.7 206.0 17.8 206.7 18.0 206.5 C 18.1 206.5 17.8 205.8 18.0 206.0 Z M 18.4 207.0 C 18.2 206.7 18.4 207.4 18.4 207.2 C 18.5 207.1 18.5 207.0 18.4 207.0 Z M 19.7 209.5 C 20.2 209.7 20.6 209.1 19.8 208.8 C 19.0 208.5 18.8 208.7 19.1 208.9 C 19.5 209.1 19.0 209.2 19.7 209.5 Z M 16.9 206.7 C 17.4 206.4 17.1 206.3 16.7 206.5 C 16.6 206.5 16.7 206.8 16.9 206.7 Z M 16.1 205.9 C 16.0 205.8 16.0 205.8 16.0 205.9 C 16.0 206.1 16.2 206.1 16.1 205.9 Z M 19.7 210.5 C 19.9 210.6 20.2 210.5 20.1 210.6 C 20.0 210.7 20.1 210.7 20.2 210.7 C 20.4 210.7 20.2 210.5 20.1 210.5 C 20.0 210.4 19.6 210.4 19.7 210.5 Z M 15.5 208.8 C 15.6 208.7 15.5 208.7 15.4 208.7 C 15.4 208.8 15.4 208.8 15.5 208.8 Z M 12.2 206.2 C 12.2 206.2 12.3 206.3 12.3 206.2 C 12.2 206.0 12.2 206.0 12.2 206.2 Z M 10.0 203.7 C 10.0 203.8 10.1 203.7 10.2 203.9 C 10.3 203.9 10.1 203.9 10.1 203.9 C 10.2 203.9 10.5 204.2 10.4 203.9 C 10.4 203.7 10.0 203.4 10.0 203.7 Z M 14.8 207.9 C 14.6 207.8 15.0 208.4 14.8 208.5 C 14.6 208.5 14.7 208.5 14.9 208.5 C 15.1 208.5 15.1 207.9 14.8 207.9 Z M 16.1 209.0 C 16.1 209.0 15.6 209.0 15.8 209.1 C 16.0 209.1 16.2 209.1 16.1 209.2 C 16.0 209.3 16.1 209.3 16.2 209.3 C 16.4 209.3 16.2 209.1 16.1 209.0 Z M 18.3 211.0 C 18.3 211.0 18.0 211.1 18.2 211.1 C 18.3 211.2 18.4 211.1 18.3 211.0 Z M 12.6 205.1 C 12.7 205.2 12.7 205.2 12.8 205.0 C 12.8 204.9 12.6 205.0 12.6 205.1 Z M 18.5 210.5 C 18.2 210.5 18.5 210.6 18.4 210.6 C 18.2 210.6 18.2 210.7 18.4 210.7 C 18.6 210.7 18.7 210.5 18.5 210.5 Z M 11.1 202.9 C 11.1 202.9 11.2 203.0 11.2 202.9 C 11.2 202.8 11.0 202.8 11.1 202.9 Z M 12.1 203.4 C 12.1 203.4 12.1 203.4 12.1 203.5 C 11.9 204.3 12.6 203.1 12.1 203.4 Z M 13.3 204.6 C 13.1 204.5 13.2 204.8 13.2 204.8 C 13.3 204.7 13.3 204.7 13.3 204.6 Z M 14.6 205.9 C 14.7 205.9 14.5 205.8 14.5 205.9 C 14.5 206.0 14.5 206.0 14.6 205.9 Z M 10.6 201.4 C 10.5 201.5 10.6 201.6 10.6 201.5 C 10.7 201.4 10.6 201.3 10.6 201.4 Z M 13.9 204.7 C 13.9 204.7 13.9 204.7 13.9 204.8 C 14.0 204.8 14.0 204.7 13.9 204.7 Z M 18.0 208.7 C 17.9 208.7 17.8 208.7 17.8 208.7 C 17.7 208.8 17.9 209.1 17.9 209.1 C 17.9 209.2 17.8 209.2 17.8 209.2 C 17.8 209.2 17.8 209.2 17.8 209.2 C 17.8 209.2 17.7 209.2 17.7 209.2 C 17.7 209.2 17.6 209.1 17.6 209.1 C 17.6 209.2 17.6 209.4 17.7 209.4 C 17.9 209.4 18.1 209.2 18.2 209.1 C 18.2 209.0 18.2 208.9 18.1 208.9 C 18.1 208.9 18.1 208.9 18.1 208.9 C 17.9 208.9 17.8 208.9 17.9 208.8 C 18.0 208.8 18.0 208.8 18.0 208.8 C 18.0 208.7 18.0 208.7 18.0 208.7 Z M 14.6 205.0 C 14.5 204.9 14.5 205.1 14.6 205.2 C 14.7 205.3 14.8 205.0 14.6 205.0 Z M 10.9 201.5 C 10.9 201.5 11.0 201.5 11.0 201.5 C 11.0 201.5 11.0 201.5 11.0 201.4 C 10.9 201.3 10.8 201.3 10.8 201.2 C 10.7 201.3 10.7 201.4 10.9 201.5 Z M 12.4 202.2 C 12.3 202.2 11.9 201.7 11.9 201.9 C 11.8 202.2 11.4 202.2 11.9 202.4 C 12.1 202.6 12.4 202.5 12.7 202.6 C 13.7 203.2 12.7 202.1 12.5 201.9 C 12.4 201.8 12.5 202.3 12.4 202.2 Z M 13.8 203.1 C 13.9 203.1 13.8 202.8 13.8 202.8 C 13.5 202.6 13.6 203.1 13.8 203.1 Z M 11.5 200.6 C 11.5 200.6 11.5 200.6 11.5 200.6 C 11.5 200.6 11.5 200.6 11.6 200.6 C 11.5 200.6 11.5 200.6 11.5 200.6 Z M 11.0 199.9 C 11.0 200.4 11.4 199.9 11.5 199.7 C 11.6 199.5 11.0 199.7 11.0 199.9 Z M 13.5 202.1 C 13.7 202.2 14.4 201.9 14.0 201.7 C 13.7 201.4 13.2 201.6 13.5 202.1 Z M 15.9 203.2 C 15.8 203.2 15.7 202.9 15.9 202.9 C 16.0 203.0 16.0 203.2 15.9 203.2 Z M 13.6 200.3 C 13.6 200.4 13.5 200.3 13.5 200.3 C 13.5 200.2 13.5 200.2 13.6 200.3 Z M 13.4 200.9 C 13.4 200.8 13.3 200.7 13.3 200.6 C 13.2 200.5 13.5 200.6 13.5 200.6 C 13.5 200.7 13.4 200.9 13.4 200.9 Z M 14.8 202.4 C 14.8 202.2 14.9 202.3 15.0 202.4 C 15.0 202.5 14.8 202.4 14.8 202.4 Z M 14.6 201.9 C 14.6 202.0 14.5 202.0 14.5 201.9 C 14.4 201.8 14.6 201.8 14.6 201.9 Z M 14.9 202.8 C 14.7 202.7 14.5 202.5 14.6 202.4 C 14.7 202.3 15.3 203.0 14.9 202.8 Z M 14.9 202.8 " fill="#878787"></path><path d="M 210.3 20.9 C 210.4 21.2 210.0 22.0 210.0 21.2 C 210.0 21.1 210.2 20.8 210.3 20.9 Z M 210.6 19.5 C 210.6 19.6 210.6 19.7 210.5 19.7 C 210.2 19.8 210.8 19.1 210.6 19.5 Z M 209.8 21.6 C 209.8 21.6 209.7 22.1 209.6 22.0 C 209.6 21.9 209.8 21.5 209.8 21.6 Z M 210.4 18.0 C 210.5 18.0 210.4 18.5 210.3 18.6 C 210.1 18.8 210.2 17.9 210.4 18.0 Z M 206.3 18.9 C 206.3 18.9 206.2 18.9 206.2 18.9 C 206.2 18.9 206.3 18.9 206.3 18.9 Z M 212.5 11.1 C 212.5 11.2 212.3 11.4 212.2 11.3 C 212.1 11.2 212.5 10.8 212.5 11.1 Z M 200.0 13.0 C 200.0 13.0 200.0 13.2 199.9 13.2 C 199.8 13.2 199.9 13.0 200.0 13.0 Z M 199.9 13.1 C 199.8 13.2 199.6 13.1 199.7 13.1 C 199.8 13.0 199.9 13.0 199.9 13.1 Z M 206.1 9.4 C 206.2 9.4 206.2 9.4 206.2 9.4 C 206.2 9.5 206.0 9.5 206.1 9.4 Z M 206.0 9.6 C 205.9 9.8 205.7 9.6 205.8 9.6 C 206.0 9.5 206.0 9.5 206.0 9.6 Z M 204.3 9.4 C 204.4 9.3 204.4 9.3 204.4 9.4 C 204.3 9.4 204.2 9.4 204.3 9.4 Z M 202.2 15.8 C 202.2 15.8 202.0 15.5 202.1 15.5 C 202.2 15.4 202.4 15.8 202.2 15.8 Z M 201.9 15.6 C 201.9 15.7 201.7 15.5 201.8 15.5 C 201.9 15.5 202.0 15.5 201.9 15.6 Z M 202.9 16.2 C 203.0 16.1 203.2 16.3 203.2 16.4 C 203.2 16.5 203.3 16.6 203.3 16.7 C 203.4 16.7 202.7 16.3 202.9 16.2 Z M 204.6 17.7 C 204.6 17.8 204.5 17.8 204.5 17.7 C 204.5 17.6 204.6 17.7 204.6 17.7 Z M 203.6 16.9 C 203.6 16.9 203.5 16.9 203.5 16.8 C 203.5 16.7 203.7 16.8 203.6 16.9 Z M 211.4 15.3 C 211.5 15.2 211.4 15.6 211.3 15.6 C 211.3 15.6 211.3 15.5 211.3 15.6 C 211.2 15.7 211.0 15.4 211.4 15.3 Z M 210.8 18.6 C 210.8 18.7 210.7 18.7 210.7 18.7 C 210.7 18.6 210.8 18.4 210.8 18.6 Z M 210.9 15.6 C 210.9 15.6 210.9 15.7 210.8 15.7 C 210.8 15.7 210.8 15.6 210.9 15.6 Z M 210.9 15.4 C 210.9 15.4 210.7 15.6 210.6 15.5 C 210.5 15.4 210.9 15.1 210.9 15.4 Z M 211.7 14.8 C 211.7 15.0 211.7 15.0 211.6 14.9 C 211.6 14.8 211.7 14.8 211.7 14.8 Z M 211.4 16.8 C 211.3 16.9 211.3 16.9 211.3 16.8 C 211.3 16.8 211.4 16.8 211.4 16.8 Z M 211.7 13.9 C 211.7 13.9 211.8 14.2 211.5 14.2 C 211.2 14.2 211.7 13.9 211.7 13.9 Z M 211.7 12.5 C 211.7 12.6 211.6 12.5 211.7 12.4 C 211.7 12.3 211.8 12.4 211.7 12.5 Z M 211.4 11.9 C 211.5 11.7 211.6 11.7 211.6 11.9 C 211.5 12.1 211.3 12.0 211.4 11.9 Z M 211.4 12.2 C 211.4 12.1 211.4 12.1 211.5 12.1 C 211.5 12.1 211.5 12.2 211.4 12.2 Z M 211.5 13.4 C 211.5 13.5 211.4 13.6 211.4 13.4 C 211.4 13.2 211.4 13.2 211.5 13.4 Z M 206.7 20.2 C 206.8 20.3 206.7 20.3 206.6 20.3 C 206.5 20.3 206.6 20.2 206.7 20.2 Z M 203.5 16.3 C 203.5 16.4 203.5 16.4 203.4 16.3 C 203.4 16.1 203.5 16.2 203.5 16.3 Z M 201.5 13.9 C 201.5 14.0 201.4 14.0 201.4 13.8 C 201.3 13.7 201.5 13.8 201.5 13.9 Z M 204.4 17.2 C 204.4 17.3 204.0 17.2 204.1 16.9 C 204.1 16.6 204.5 17.0 204.4 17.2 Z M 208.4 17.6 C 208.5 17.6 208.4 17.7 208.4 17.7 C 208.4 17.6 208.4 17.6 208.4 17.6 Z M 204.2 16.4 C 204.3 16.5 204.2 16.5 204.1 16.5 C 204.0 16.5 204.1 16.4 204.2 16.4 Z M 201.7 14.4 C 201.8 14.5 201.6 14.6 201.5 14.6 C 201.2 14.6 201.2 14.3 201.2 14.0 C 201.2 13.9 201.7 14.3 201.7 14.4 Z M 207.6 20.4 C 207.6 20.3 207.5 20.3 207.5 20.2 C 207.4 20.3 207.4 20.2 207.4 20.1 C 207.2 19.9 206.8 20.0 206.6 19.9 C 206.2 19.7 206.5 19.2 206.3 18.9 C 206.3 19.0 206.4 19.0 206.5 19.0 C 206.7 19.0 205.8 18.3 205.8 18.2 C 205.0 17.7 205.7 18.6 205.5 18.8 C 205.4 18.9 205.2 18.2 205.2 18.1 C 205.0 17.8 204.8 18.0 204.7 17.8 C 204.7 17.6 204.9 16.9 204.8 16.9 C 204.6 16.9 204.5 16.6 204.4 16.5 C 204.3 16.4 204.0 16.2 204.0 16.5 C 203.9 16.7 203.8 16.9 203.8 16.6 C 203.8 16.4 203.3 15.3 202.9 15.7 C 202.9 15.7 203.0 16.0 203.0 16.0 C 202.7 15.9 202.1 15.1 201.8 15.1 C 201.1 15.1 202.1 15.0 202.1 14.7 C 201.9 14.2 201.9 14.0 201.4 13.6 C 201.3 13.6 201.0 13.2 200.9 13.6 C 200.9 13.8 200.7 13.8 200.9 14.1 C 200.5 14.0 200.7 13.5 200.5 13.5 C 200.4 13.6 200.4 13.8 200.3 13.6 C 200.1 13.3 200.1 13.5 200.3 13.3 C 200.3 13.2 200.2 12.9 200.2 12.9 C 200.2 12.9 200.2 12.9 200.2 12.9 C 200.0 12.7 199.4 12.8 199.4 12.7 C 199.4 12.6 199.8 12.4 199.8 12.3 C 199.8 12.3 199.8 12.3 199.8 12.3 C 199.7 12.2 199.4 12.2 199.4 12.1 C 199.4 12.1 199.9 11.9 199.7 11.9 C 199.5 11.9 199.2 11.4 199.3 11.3 C 199.4 11.1 199.7 10.6 199.7 10.5 C 199.6 10.4 200.0 10.3 200.1 10.3 C 200.2 10.2 200.4 10.4 200.5 10.4 C 200.5 10.4 200.8 10.3 200.8 10.3 C 200.8 10.3 200.9 10.2 201.1 10.1 C 201.3 10.1 201.5 10.2 201.7 10.2 C 202.0 10.2 202.1 10.0 202.3 9.9 C 202.6 9.8 202.9 10.1 203.1 10.1 C 203.3 10.1 203.2 9.8 203.5 9.7 C 203.8 9.6 203.9 9.7 203.9 9.8 C 203.8 9.8 203.9 9.9 204.0 9.9 C 204.0 9.9 204.4 9.9 204.5 9.8 C 204.6 9.7 203.7 9.6 204.7 9.4 C 205.2 9.3 205.6 9.6 205.5 9.6 C 205.2 9.7 206.1 10.0 206.0 9.8 C 206.0 9.7 206.8 9.5 206.6 9.3 C 206.5 9.2 207.3 8.9 207.5 8.9 C 207.6 8.9 208.0 8.8 208.1 9.0 C 208.2 9.1 208.6 8.7 208.7 8.6 C 208.8 8.6 209.5 8.5 209.7 8.5 C 209.8 8.5 209.5 8.6 209.4 8.7 C 209.2 8.7 209.0 8.6 208.8 8.7 C 208.7 8.7 209.0 8.8 209.2 8.8 C 209.4 8.8 209.5 8.9 209.6 8.9 C 209.7 8.8 209.8 8.8 209.9 8.8 C 210.0 8.8 210.0 8.7 210.0 8.7 C 210.0 8.6 209.9 8.6 209.9 8.5 C 209.9 8.5 210.0 8.4 210.2 8.3 C 210.4 8.3 210.6 8.3 210.9 8.3 C 211.2 8.3 211.2 8.2 211.4 8.1 C 211.6 8.1 211.8 8.0 211.8 8.1 C 211.8 8.2 211.6 8.3 211.6 8.3 C 211.6 8.4 211.9 8.5 212.0 8.4 C 212.5 8.4 212.2 8.9 212.7 8.8 C 213.0 8.8 212.7 9.0 212.6 9.2 C 212.7 9.3 212.7 9.3 212.7 9.5 C 212.8 9.5 212.6 9.8 212.6 10.0 C 212.6 10.1 212.5 10.8 212.5 10.4 C 212.5 10.3 212.5 10.3 212.5 10.3 C 212.4 10.3 212.4 10.3 212.4 10.3 C 212.4 10.3 212.2 10.0 212.2 10.0 C 212.2 10.0 212.4 10.3 212.4 10.3 C 212.3 10.3 212.2 10.4 212.1 10.4 C 212.1 10.4 212.2 10.5 212.2 10.5 C 212.2 10.5 212.2 10.5 212.2 10.5 C 212.2 10.5 212.2 10.5 212.2 10.5 C 212.3 10.6 212.3 10.6 212.2 10.7 C 212.3 10.9 212.0 11.4 211.9 11.6 C 211.5 10.9 211.2 11.9 211.2 12.2 C 211.2 12.6 211.9 12.7 211.9 12.6 C 211.9 12.8 211.7 12.8 211.5 12.9 C 211.6 12.9 211.1 13.0 211.1 13.0 C 210.7 13.5 211.3 13.5 211.4 13.7 C 211.4 13.9 211.3 14.0 211.3 14.2 C 211.3 14.4 211.5 14.3 211.6 14.4 C 211.8 14.6 211.2 14.9 211.1 15.1 C 211.1 14.9 211.1 14.7 211.0 14.6 C 211.1 14.8 210.8 14.8 210.7 14.9 C 210.6 15.1 210.6 15.3 210.5 15.5 C 210.5 15.8 210.5 16.2 210.4 16.5 C 210.5 16.4 211.0 16.0 211.0 16.0 C 211.0 16.1 210.8 16.4 211.1 16.3 C 211.5 16.2 211.1 17.0 211.1 17.1 C 210.9 17.5 211.2 18.0 210.7 18.3 C 210.7 18.3 210.7 17.7 210.6 17.7 C 210.3 17.7 210.0 17.9 210.0 18.3 C 210.0 18.4 210.1 19.1 210.1 19.1 C 210.1 19.1 211.1 18.7 210.7 19.1 C 210.6 19.2 210.5 19.0 210.4 19.1 C 210.3 19.2 210.3 19.5 210.2 19.7 C 210.2 19.8 210.0 20.1 210.0 20.1 C 210.1 20.2 210.3 20.2 210.3 20.4 C 210.3 20.5 210.2 20.6 210.1 20.6 C 210.1 20.6 210.1 20.6 210.0 20.6 C 210.0 20.6 210.0 20.6 209.9 20.6 C 209.9 20.7 209.9 20.8 209.8 20.8 C 209.7 20.8 209.8 20.7 209.8 20.6 C 209.8 20.6 209.8 20.6 209.7 20.5 C 209.7 20.7 209.7 20.9 209.7 20.9 C 209.8 21.3 209.9 21.3 209.5 21.6 C 209.1 21.9 208.2 21.3 207.9 20.8 C 207.8 20.7 207.7 20.6 207.6 20.4 Z M 210.3 8.9 C 210.3 8.9 210.3 8.9 210.2 8.9 C 210.3 9.0 210.3 9.0 210.3 9.1 C 210.5 9.1 210.2 9.0 210.4 9.0 C 210.6 9.0 210.5 8.9 210.3 8.9 Z M 211.2 10.0 C 211.3 9.9 211.3 9.9 211.2 9.9 C 211.2 9.9 211.2 10.0 211.2 10.0 Z M 211.9 10.2 C 211.9 10.0 211.5 10.3 211.5 10.6 C 211.7 10.4 211.8 10.3 211.9 10.2 Z M 212.0 10.8 C 212.0 10.8 212.0 10.7 211.9 10.7 C 211.9 10.7 211.9 10.9 211.8 10.9 C 211.8 10.8 211.7 10.6 211.6 10.7 C 211.6 10.7 211.6 10.8 211.6 10.8 C 211.6 10.8 211.6 10.9 211.6 10.9 C 211.7 11.0 212.0 10.9 212.0 10.8 Z M 209.5 9.6 C 209.6 9.5 209.5 9.5 209.4 9.6 C 209.4 9.6 209.4 9.7 209.5 9.6 Z M 208.2 9.3 C 208.3 9.4 208.4 9.3 208.3 9.2 C 208.2 9.2 208.1 9.3 208.2 9.3 Z M 208.3 11.6 C 208.3 11.5 208.2 11.6 208.2 11.6 C 208.1 11.6 208.2 11.7 208.3 11.6 Z M 209.0 12.5 C 209.0 12.6 209.2 12.6 209.2 12.5 C 209.1 12.4 209.0 12.4 209.0 12.5 Z M 207.2 10.5 C 207.2 10.5 207.2 10.6 207.3 10.5 C 207.4 10.5 207.3 10.4 207.2 10.5 Z M 208.5 11.4 C 208.4 11.4 208.4 11.4 208.4 11.5 C 208.4 11.6 208.5 11.6 208.6 11.6 C 208.7 11.5 208.7 11.5 208.5 11.4 Z M 209.3 12.1 C 209.2 12.4 209.3 12.4 209.4 12.0 C 209.4 11.6 209.3 11.9 209.3 12.1 Z M 207.2 9.2 C 207.2 9.2 207.4 9.1 207.4 9.1 C 207.4 9.1 206.9 9.2 207.2 9.2 Z M 211.1 14.0 C 211.2 13.9 211.1 13.8 211.0 14.0 C 210.9 14.1 211.1 14.1 211.1 14.0 Z M 210.4 14.1 C 210.7 14.0 210.8 13.9 210.8 13.8 C 210.7 13.9 210.6 13.7 210.5 13.7 C 210.5 13.4 210.8 13.2 210.7 13.0 C 210.6 12.7 210.4 13.2 210.4 13.3 C 210.4 13.2 210.4 13.2 210.4 13.1 C 210.3 13.2 210.2 13.2 210.3 13.3 C 210.3 13.4 210.0 14.1 210.4 14.1 Z M 208.4 12.1 C 208.5 12.0 208.5 11.9 208.4 11.9 C 208.2 11.8 208.1 11.9 208.1 11.9 C 208.1 12.0 208.3 12.1 208.4 12.1 Z M 207.7 11.5 C 207.8 11.4 207.7 11.4 207.6 11.5 C 207.4 11.6 207.6 11.7 207.7 11.5 Z M 203.9 10.1 C 203.9 10.1 204.1 10.1 204.1 10.0 C 204.0 10.0 204.0 10.0 203.9 10.1 Z M 205.0 11.1 C 204.8 11.2 205.1 11.2 205.1 11.2 C 205.2 11.1 205.1 11.0 205.0 11.1 Z M 206.2 11.1 C 206.1 11.1 206.3 11.1 206.3 11.1 C 206.4 11.0 206.3 11.0 206.2 11.1 Z M 206.7 11.4 C 206.6 11.4 206.7 11.5 206.8 11.4 C 206.9 11.4 206.8 11.4 206.7 11.4 Z M 209.7 15.1 C 209.7 15.1 209.5 15.0 209.6 15.1 C 209.7 15.3 209.7 15.3 209.7 15.1 Z M 208.8 13.6 C 208.9 13.4 208.8 13.2 208.4 13.0 C 208.0 12.8 208.0 13.0 208.2 13.2 C 208.3 13.5 207.6 13.1 207.9 13.6 C 208.1 13.8 208.8 13.8 208.8 13.6 Z M 206.1 12.0 C 206.4 12.1 206.7 11.8 206.4 11.8 C 206.0 11.8 205.8 12.0 206.1 12.0 Z M 205.9 11.9 C 206.0 11.9 206.0 11.8 205.9 11.9 C 205.8 11.9 205.9 12.0 205.9 11.9 Z M 211.0 16.7 C 211.1 16.1 210.6 16.6 210.6 16.6 C 210.3 17.2 211.0 17.3 211.0 16.7 Z M 200.6 12.9 C 200.6 12.9 200.6 12.9 200.6 13.0 C 200.6 13.0 200.6 13.0 200.6 13.0 C 200.8 13.0 200.7 12.8 200.7 12.8 C 200.6 12.8 200.6 12.8 200.6 12.9 Z M 202.6 15.1 C 202.5 15.0 202.5 15.0 202.3 15.0 C 202.2 15.2 202.8 15.9 202.9 15.3 C 202.9 15.2 202.8 14.5 202.6 14.6 C 202.5 14.7 202.8 15.4 202.6 15.1 Z M 202.2 14.2 C 202.5 14.5 202.3 13.7 202.2 13.9 C 202.1 14.0 202.1 14.1 202.2 14.2 Z M 200.9 11.7 C 200.4 11.5 200.0 12.1 200.8 12.4 C 201.6 12.6 201.8 12.4 201.5 12.2 C 201.1 12.0 201.6 12.0 200.9 11.7 Z M 203.7 14.5 C 203.3 14.8 203.5 14.9 203.9 14.7 C 204.0 14.6 204.0 14.3 203.7 14.5 Z M 204.5 15.2 C 204.6 15.4 204.6 15.3 204.6 15.2 C 204.6 15.1 204.5 15.1 204.5 15.2 Z M 200.9 10.6 C 200.7 10.6 200.4 10.6 200.5 10.5 C 200.6 10.4 200.6 10.5 200.4 10.5 C 200.2 10.4 200.4 10.6 200.5 10.7 C 200.6 10.8 201.1 10.7 200.9 10.6 Z M 205.1 12.4 C 205.0 12.4 205.1 12.5 205.2 12.4 C 205.2 12.4 205.2 12.4 205.1 12.4 Z M 208.4 14.9 C 208.4 14.9 208.3 14.9 208.3 15.0 C 208.4 15.1 208.4 15.1 208.4 14.9 Z M 210.7 17.4 C 210.7 17.3 210.5 17.5 210.4 17.3 C 210.3 17.3 210.5 17.3 210.5 17.3 C 210.5 17.3 210.1 17.0 210.2 17.3 C 210.2 17.4 210.6 17.7 210.7 17.4 Z M 205.8 13.3 C 206.1 13.3 205.6 12.7 205.8 12.7 C 206.0 12.7 206.0 12.6 205.7 12.6 C 205.5 12.6 205.6 13.3 205.8 13.3 Z M 204.5 12.1 C 204.6 12.2 205.0 12.2 204.8 12.1 C 204.6 12.0 204.4 12.1 204.5 12.0 C 204.6 11.9 204.5 11.9 204.4 11.9 C 204.2 11.9 204.4 12.1 204.5 12.1 Z M 202.3 10.1 C 202.4 10.1 202.6 10.1 202.4 10.0 C 202.3 10.0 202.2 10.1 202.3 10.1 Z M 208.0 16.1 C 207.9 15.9 207.9 15.9 207.9 16.1 C 207.9 16.3 208.0 16.2 208.0 16.1 Z M 202.1 10.7 C 202.4 10.7 202.1 10.6 202.3 10.5 C 202.4 10.5 202.4 10.5 202.2 10.5 C 202.0 10.5 201.9 10.6 202.1 10.7 Z M 209.6 18.3 C 209.5 18.2 209.4 18.2 209.4 18.3 C 209.4 18.4 209.6 18.4 209.6 18.3 Z M 208.5 17.8 C 208.5 17.8 208.5 17.7 208.5 17.7 C 208.7 16.8 208.0 18.0 208.5 17.8 Z M 207.3 16.5 C 207.5 16.7 207.4 16.4 207.4 16.4 C 207.3 16.4 207.3 16.5 207.3 16.5 Z M 206.0 15.2 C 205.9 15.3 206.1 15.4 206.1 15.3 C 206.2 15.2 206.1 15.2 206.0 15.2 Z M 210.1 19.7 C 210.1 19.6 210.0 19.6 210.0 19.7 C 210.0 19.7 210.0 19.8 210.1 19.7 Z M 206.7 16.5 C 206.8 16.5 206.8 16.5 206.7 16.4 C 206.6 16.4 206.7 16.5 206.7 16.5 Z M 202.7 12.5 C 202.7 12.5 202.8 12.5 202.9 12.5 C 202.9 12.4 202.7 12.1 202.8 12.0 C 202.8 12.0 202.8 12.0 202.8 12.0 C 202.8 12.0 202.8 12.0 202.8 12.0 C 202.8 11.9 202.9 11.9 202.9 12.0 C 202.9 12.0 203.0 12.0 203.1 12.1 C 203.1 11.9 203.0 11.8 202.9 11.8 C 202.7 11.8 202.5 11.9 202.4 12.1 C 202.4 12.2 202.5 12.2 202.5 12.3 C 202.5 12.3 202.5 12.3 202.5 12.3 C 202.7 12.3 202.8 12.3 202.7 12.3 C 202.7 12.4 202.6 12.4 202.6 12.4 C 202.6 12.4 202.6 12.5 202.7 12.5 Z M 206.0 16.2 C 206.2 16.2 206.1 16.1 206.0 15.9 C 206.0 15.8 205.9 16.1 206.0 16.2 Z M 209.8 19.7 C 209.7 19.7 209.7 19.7 209.6 19.7 C 209.6 19.7 209.6 19.7 209.7 19.7 C 209.7 19.8 209.8 19.9 209.8 20.0 C 209.9 19.9 209.9 19.8 209.8 19.7 Z M 208.2 18.9 C 208.3 19.0 208.7 19.5 208.8 19.3 C 208.8 19.0 209.2 19.0 208.8 18.7 C 208.6 18.6 208.2 18.7 208.0 18.6 C 206.9 17.9 208.0 19.0 208.1 19.3 C 208.2 19.3 208.1 18.9 208.2 18.9 Z M 206.9 18.1 C 206.7 18.1 206.8 18.3 206.8 18.4 C 207.1 18.6 207.0 18.0 206.9 18.1 Z M 209.1 20.6 C 209.1 20.6 209.1 20.6 209.2 20.5 C 209.1 20.5 209.1 20.5 209.1 20.5 C 209.1 20.6 209.1 20.6 209.1 20.6 Z M 209.6 21.3 C 209.7 20.8 209.2 21.3 209.2 21.4 C 209.1 21.7 209.6 21.5 209.6 21.3 Z M 207.1 19.1 C 206.9 18.9 206.2 19.2 206.6 19.5 C 206.9 19.8 207.4 19.5 207.1 19.1 Z M 204.7 18.0 C 204.8 18.0 204.9 18.2 204.7 18.2 C 204.6 18.2 204.6 18.0 204.7 18.0 Z M 207.1 20.9 C 207.0 20.8 207.1 20.8 207.1 20.8 C 207.1 21.0 207.1 21.0 207.1 20.9 Z M 207.2 20.3 C 207.2 20.4 207.3 20.5 207.3 20.6 C 207.4 20.7 207.2 20.6 207.2 20.5 C 207.1 20.5 207.2 20.3 207.2 20.3 Z M 205.8 18.8 C 205.8 19.0 205.7 18.8 205.7 18.8 C 205.6 18.7 205.8 18.7 205.8 18.8 Z M 206.0 19.3 C 206.0 19.2 206.1 19.2 206.1 19.3 C 206.2 19.4 206.1 19.3 206.0 19.3 Z M 205.7 18.4 C 205.9 18.5 206.2 18.7 206.0 18.8 C 205.9 18.9 205.3 18.2 205.7 18.4 Z M 205.7 18.4 " fill="#878787"></path></g></svg>