<?xml version="1.0" encoding="UTF-8" standalone="no"?><svg xmlns="http://www.w3.org/2000/svg" xmlns:xlink="http://www.w3.org/1999/xlink" clip-rule="evenodd" stroke-miterlimit="10" viewBox="0 0 250 31"><desc>SVG generated by Keynote</desc><defs></defs><g transform="matrix(1.00, 0.00, -0.00, -1.00, 0.0, 31.0)"><image xlink:href="F08AD2741173FEADB1EFE61AF6E522E2.png" width="248.00" height="29.00" transform="matrix(1.00, 0.00, -0.00, -1.00, 1.0, 30.0)"></image><text xml:space="preserve" font-family="HelveticaNeue-Medium,Helvetica Neue" font-size="27.0" fill="#EAEAEA" transform="matrix(1.00, 0.00, -0.00, -1.00, 6.0, 8.1)">A</text><text xml:space="preserve" font-family="HelveticaNeue-Medium,Helvetica Neue" font-size="27.0" fill="#EAEAEA" transform="matrix(1.00, 0.00, -0.00, -1.00, 24.0, 8.1)">n</text><text xml:space="preserve" font-family="HelveticaNeue-Medium,Helvetica Neue" font-size="27.0" fill="#EAEAEA" transform="matrix(1.00, 0.00, -0.00, -1.00, 39.5, 8.1)">d</text><text xml:space="preserve" font-family="HelveticaNeue-Medium,Helvetica Neue" font-size="27.0" fill="#EAEAEA" transform="matrix(1.00, 0.00, -0.00, -1.00, 56.0, 8.1)">r</text><text xml:space="preserve" font-family="HelveticaNeue-Medium,Helvetica Neue" font-size="27.0" fill="#EAEAEA" transform="matrix(1.00, 0.00, -0.00, -1.00, 65.0, 8.1)">o</text><text xml:space="preserve" font-family="HelveticaNeue-Medium,Helvetica Neue" font-size="27.0" fill="#EAEAEA" transform="matrix(1.00, 0.00, -0.00, -1.00, 81.0, 8.1)">i</text><text xml:space="preserve" font-family="HelveticaNeue-Medium,Helvetica Neue" font-size="27.0" fill="#EAEAEA" transform="matrix(1.00, 0.00, -0.00, -1.00, 87.5, 8.1)">d</text><text xml:space="preserve" font-family="HelveticaNeue-Medium,Helvetica Neue" font-size="27.0" fill="#EAEAEA" transform="matrix(1.00, 0.00, -0.00, -1.00, 104.0, 8.1)"> </text><text xml:space="preserve" font-family="HelveticaNeue-Medium,Helvetica Neue" font-size="27.0" fill="#EAEAEA" transform="matrix(1.00, 0.00, -0.00, -1.00, 111.5, 8.1)">f</text><text xml:space="preserve" font-family="HelveticaNeue-Medium,Helvetica Neue" font-size="27.0" fill="#EAEAEA" transform="matrix(1.00, 0.00, -0.00, -1.00, 120.0, 8.1)">r</text><text xml:space="preserve" font-family="HelveticaNeue-Medium,Helvetica Neue" font-size="27.0" fill="#EAEAEA" transform="matrix(1.00, 0.00, -0.00, -1.00, 129.5, 8.1)">a</text><text xml:space="preserve" font-family="HelveticaNeue-Medium,Helvetica Neue" font-size="27.0" fill="#EAEAEA" transform="matrix(1.00, 0.00, -0.00, -1.00, 144.5, 8.1)">m</text><text xml:space="preserve" font-family="HelveticaNeue-Medium,Helvetica Neue" font-size="27.0" fill="#EAEAEA" transform="matrix(1.00, 0.00, -0.00, -1.00, 168.0, 8.1)">e</text><text xml:space="preserve" font-family="HelveticaNeue-Medium,Helvetica Neue" font-size="27.0" fill="#EAEAEA" transform="matrix(1.00, 0.00, -0.00, -1.00, 183.0, 8.1)">w</text><text xml:space="preserve" font-family="HelveticaNeue-Medium,Helvetica Neue" font-size="27.0" fill="#EAEAEA" transform="matrix(1.00, 0.00, -0.00, -1.00, 204.0, 8.1)">o</text><text xml:space="preserve" font-family="HelveticaNeue-Medium,Helvetica Neue" font-size="27.0" fill="#EAEAEA" transform="matrix(1.00, 0.00, -0.00, -1.00, 220.0, 8.1)">r</text><text xml:space="preserve" font-family="HelveticaNeue-Medium,Helvetica Neue" font-size="27.0" fill="#EAEAEA" transform="matrix(1.00, 0.00, -0.00, -1.00, 229.5, 8.1)">k</text></g></svg>