<?xml version="1.0" encoding="UTF-8" standalone="no"?><svg xmlns="http://www.w3.org/2000/svg" xmlns:xlink="http://www.w3.org/1999/xlink" clip-rule="evenodd" stroke-miterlimit="10" viewBox="0 0 110 115"><desc>SVG generated by Keynote</desc><defs></defs><g transform="matrix(1.00, 0.00, -0.00, -1.00, 0.0, 115.0)"><image xlink:href="AEB8F92DA72BFC05273ACE54901EC728.png" width="108.00" height="108.00" transform="matrix(1.00, 0.00, -0.00, -1.00, 1.0, 109.3)" opacity="0.50"></image><path d="M 5.0 22.3 L 5.0 92.3 C 5.0 100.6 11.7 107.0 20.0 107.0 L 90.0 107.0 C 98.3 107.0 105.0 100.6 105.0 92.3 L 105.0 22.3 C 105.0 14.0 98.3 7.0 90.0 7.0 L 20.0 7.0 C 11.7 7.0 5.0 14.0 5.0 22.3 Z M 5.0 22.3 " fill="#28C439"></path><image xlink:href="A18E847C35C4AB38C05BBFC6BED77299.png" width="74.00" height="34.00" transform="matrix(1.00, 0.00, -0.00, -1.00, 15.0, 70.0)"></image><g><clipPath id="clip0x600007cb2000"><path d="M -2.9 7.3 L 112.9 7.3 L 112.9 107.3 L -2.9 107.3 Z M -2.9 7.3 "></path></clipPath><g clip-path="url(#clip0x600007cb2000)"><text xml:space="preserve" font-family="HelveticaNeue-Medium,Helvetica Neue" font-size="30.0" fill="#FEFFFE" transform="matrix(1.00, 0.00, -0.00, -1.00, 18.3, 46.4)">A</text><text xml:space="preserve" font-family="HelveticaNeue-Medium,Helvetica Neue" font-size="30.0" fill="#FEFFFE" transform="matrix(1.00, 0.00, -0.00, -1.00, 38.3, 46.4)">p</text><text xml:space="preserve" font-family="HelveticaNeue-Medium,Helvetica Neue" font-size="30.0" fill="#FEFFFE" transform="matrix(1.00, 0.00, -0.00, -1.00, 56.7, 46.4)">p</text><text xml:space="preserve" font-family="HelveticaNeue-Medium,Helvetica Neue" font-size="30.0" fill="#FEFFFE" transform="matrix(1.00, 0.00, -0.00, -1.00, 75.0, 46.4)">1</text></g></g></g></svg>