<?xml version="1.0" encoding="UTF-8" standalone="no"?><svg xmlns="http://www.w3.org/2000/svg" xmlns:xlink="http://www.w3.org/1999/xlink" clip-rule="evenodd" stroke-miterlimit="10" viewBox="0 0 1024 768"><desc>SVG generated by Keynote</desc><defs><linearGradient id="gradSh1.0" x1="0.0" y1="0.0" x2="100.0" y2="0.0" gradientUnits="userSpaceOnUse" gradientTransform="matrix(0.00, -1.02, -1.14, 0.00, 512.0, 715.0)"><stop offset="0.00000" stop-color="#54BFB9"></stop><stop offset="0.00073" stop-color="#53BFB9"></stop><stop offset="1.00000" stop-color="#008384"></stop></linearGradient><linearGradient id="gradSh2.1" x1="0.0" y1="0.0" x2="100.0" y2="0.0" gradientUnits="userSpaceOnUse" gradientTransform="matrix(0.00, -1.18, -3.48, 0.00, 334.0, 551.0)"><stop offset="0.00000" stop-color="#FFFFFF"></stop><stop offset="0.00440" stop-color="#FEFFFF"></stop><stop offset="1.00000" stop-color="#8DF4EF"></stop></linearGradient><linearGradient id="gradSh2.2" x1="0.0" y1="0.0" x2="100.0" y2="0.0" gradientUnits="userSpaceOnUse" gradientTransform="matrix(0.00, -1.18, -1.98, 0.00, 738.8, 549.0)"><stop offset="0.00000" stop-color="#FFFFFF"></stop><stop offset="0.00440" stop-color="#FEFFFF"></stop><stop offset="1.00000" stop-color="#8DF4EF"></stop></linearGradient></defs><g transform="matrix(1.00, 0.00, -0.00, -1.00, 0.0, 768.0)"><g><clipPath id="clip0x6080010bd3a0"><path d="M 0.0 768.0 L 1024.0 768.0 L 1024.0 0.0 L 0.0 0.0 Z M 0.0 768.0 "></path></clipPath><g clip-path="url(#clip0x6080010bd3a0)"><image xlink:href="../../073872A3-6B4A-4DBD-B237-E9D6C1798DA3/assets/9397CAD6F20342ACC2646ABBCA758461.jpeg" width="2048.00" height="1536.00" transform="matrix(0.50, 0.00, -0.00, -0.50, 0.0, 768.0)"></image></g></g><image xlink:href="5DBD5904E3A18E0CB68000161AAC9B34.png" width="120.00" height="108.00" transform="matrix(1.00, 0.00, -0.00, -1.00, 452.0, 716.0)" opacity="0.50"></image><g><clipPath id="clip0x6080010bd940"><path d="M 456.0 629.0 L 456.0 699.0 C 456.0 707.3 462.7 714.0 471.0 714.0 L 553.0 714.0 C 561.3 714.0 568.0 707.3 568.0 699.0 L 568.0 629.0 C 568.0 620.7 561.3 614.0 553.0 614.0 L 471.0 614.0 C 462.7 614.0 456.0 620.7 456.0 629.0 Z M 456.0 629.0 "></path></clipPath><g clip-path="url(#clip0x6080010bd940)"><path d="M 456.0 629.0 L 456.0 699.0 C 456.0 707.3 462.7 714.0 471.0 714.0 L 553.0 714.0 C 561.3 714.0 568.0 707.3 568.0 699.0 L 568.0 629.0 C 568.0 620.7 561.3 614.0 553.0 614.0 L 471.0 614.0 C 462.7 614.0 456.0 620.7 456.0 629.0 Z M 456.0 629.0 " fill="url(#gradSh1.0)"></path></g></g><image xlink:href="3EF75894D94C02FEE42BCFFF6C4FB732.png" width="96.00" height="26.00" transform="matrix(1.00, 0.00, -0.00, -1.00, 464.0, 676.0)"></image><g><clipPath id="clip0x6000012aa680"><path d="M 450.1 614.0 L 573.9 614.0 L 573.9 714.0 L 450.1 714.0 Z M 450.1 614.0 "></path></clipPath><g clip-path="url(#clip0x6000012aa680)"><text xml:space="preserve" font-family="HelveticaNeue-Medium,Helvetica Neue" font-size="30.0" fill="#3B3B3B" transform="matrix(1.00, 0.00, -0.00, -1.00, 465.3, 653.1)">T</text><text xml:space="preserve" font-family="HelveticaNeue-Medium,Helvetica Neue" font-size="30.0" fill="#3B3B3B" transform="matrix(1.00, 0.00, -0.00, -1.00, 483.1, 653.1)">E</text><text xml:space="preserve" font-family="HelveticaNeue-Medium,Helvetica Neue" font-size="30.0" fill="#3B3B3B" transform="matrix(1.00, 0.00, -0.00, -1.00, 502.0, 653.1)">S</text><text xml:space="preserve" font-family="HelveticaNeue-Medium,Helvetica Neue" font-size="30.0" fill="#3B3B3B" transform="matrix(1.00, 0.00, -0.00, -1.00, 521.5, 653.1)">T</text><text xml:space="preserve" font-family="HelveticaNeue-Medium,Helvetica Neue" font-size="30.0" fill="#3B3B3B" transform="matrix(1.00, 0.00, -0.00, -1.00, 539.2, 653.1)">Y</text></g></g><image xlink:href="3C438DB0DEE843047CE5262F1B68ED08.png" width="354.00" height="124.00" transform="matrix(1.00, 0.00, -0.00, -1.00, 157.3, 552.0)" opacity="0.50"></image><g><clipPath id="clip0x6000012aa440"><path d="M 161.3 454.2 L 161.0 529.8 C 161.0 540.9 170.4 550.0 181.5 550.0 L 487.1 550.0 C 498.3 550.0 507.0 540.9 507.0 529.8 L 507.0 454.2 C 507.0 443.0 498.3 434.0 487.1 434.0 L 181.5 434.0 C 170.4 434.0 161.3 443.0 161.3 454.2 Z M 161.3 454.2 "></path></clipPath><g clip-path="url(#clip0x6000012aa440)"><path d="M 161.3 454.2 L 161.0 529.8 C 161.0 540.9 170.4 550.0 181.5 550.0 L 487.1 550.0 C 498.3 550.0 507.0 540.9 507.0 529.8 L 507.0 454.2 C 507.0 443.0 498.3 434.0 487.1 434.0 L 181.5 434.0 C 170.4 434.0 161.3 443.0 161.3 454.2 Z M 161.3 454.2 " fill="url(#gradSh2.1)"></path></g></g><image xlink:href="BCFDE0F59367EB2EF4452F9BF77901EC.png" width="246.00" height="40.00" transform="matrix(1.00, 0.00, -0.00, -1.00, 212.0, 507.0)"></image><g><clipPath id="clip0x6080012bdb80"><path d="M 152.7 434.0 L 516.0 434.0 L 516.0 550.0 L 152.7 550.0 Z M 152.7 434.0 "></path></clipPath><g clip-path="url(#clip0x6080012bdb80)"><text xml:space="preserve" font-family="HelveticaNeue-Medium,Helvetica Neue" font-size="39.0" fill="#3B3B3B" transform="matrix(1.00, 0.00, -0.00, -1.00, 210.8, 478.2)">U</text><text xml:space="preserve" font-family="HelveticaNeue-Medium,Helvetica Neue" font-size="39.0" fill="#3B3B3B" transform="matrix(1.00, 0.00, -0.00, -1.00, 239.0, 478.2)">R</text><text xml:space="preserve" font-family="HelveticaNeue-Medium,Helvetica Neue" font-size="39.0" fill="#3B3B3B" transform="matrix(1.00, 0.00, -0.00, -1.00, 266.4, 478.2)">Z</text><text xml:space="preserve" font-family="HelveticaNeue-Medium,Helvetica Neue" font-size="39.0" fill="#3B3B3B" transform="matrix(1.00, 0.00, -0.00, -1.00, 291.0, 478.2)">Ą</text><text xml:space="preserve" font-family="HelveticaNeue-Medium,Helvetica Neue" font-size="39.0" fill="#3B3B3B" transform="matrix(1.00, 0.00, -0.00, -1.00, 317.0, 478.2)">D</text><text xml:space="preserve" font-family="HelveticaNeue-Medium,Helvetica Neue" font-size="39.0" fill="#3B3B3B" transform="matrix(1.00, 0.00, -0.00, -1.00, 345.2, 478.2)">Z</text><text xml:space="preserve" font-family="HelveticaNeue-Medium,Helvetica Neue" font-size="39.0" fill="#3B3B3B" transform="matrix(1.00, 0.00, -0.00, -1.00, 369.7, 478.2)">E</text><text xml:space="preserve" font-family="HelveticaNeue-Medium,Helvetica Neue" font-size="39.0" fill="#3B3B3B" transform="matrix(1.00, 0.00, -0.00, -1.00, 394.3, 478.2)">N</text><text xml:space="preserve" font-family="HelveticaNeue-Medium,Helvetica Neue" font-size="39.0" fill="#3B3B3B" transform="matrix(1.00, 0.00, -0.00, -1.00, 422.4, 478.2)">I</text><text xml:space="preserve" font-family="HelveticaNeue-Medium,Helvetica Neue" font-size="39.0" fill="#3B3B3B" transform="matrix(1.00, 0.00, -0.00, -1.00, 433.3, 478.2)">E</text></g></g><image xlink:href="31CC12021B9259EF85DA570D39730330.png" width="204.00" height="124.00" transform="matrix(1.00, 0.00, -0.00, -1.00, 636.7, 550.0)" opacity="0.50"></image><g><clipPath id="clip0x600001abd880"><path d="M 640.7 447.0 L 641.0 533.0 C 641.0 541.3 647.4 548.0 655.7 548.0 L 821.7 548.0 C 830.0 548.0 837.0 541.3 837.0 533.0 L 837.0 447.0 C 837.0 438.7 830.0 432.0 821.7 432.0 L 655.7 432.0 C 647.4 432.0 640.7 438.7 640.7 447.0 Z M 640.7 447.0 "></path></clipPath><g clip-path="url(#clip0x600001abd880)"><path d="M 640.7 447.0 L 641.0 533.0 C 641.0 541.3 647.4 548.0 655.7 548.0 L 821.7 548.0 C 830.0 548.0 837.0 541.3 837.0 533.0 L 837.0 447.0 C 837.0 438.7 830.0 432.0 821.7 432.0 L 655.7 432.0 C 647.4 432.0 640.7 438.7 640.7 447.0 Z M 640.7 447.0 " fill="url(#gradSh2.2)"></path></g></g><image xlink:href="FB0B72449227C06E50CADE47DAEBEF77.png" width="79.00" height="32.00" transform="matrix(1.00, 0.00, -0.00, -1.00, 698.0, 505.0)"></image><g><clipPath id="clip0x600001cbdb80"><path d="M 632.1 432.0 L 845.3 432.0 L 845.3 548.0 L 632.1 548.0 Z M 632.1 432.0 "></path></clipPath><g clip-path="url(#clip0x600001cbdb80)"><text xml:space="preserve" font-family="HelveticaNeue-Medium,Helvetica Neue" font-size="39.0" fill="#3B3B3B" transform="matrix(1.00, 0.00, -0.00, -1.00, 699.0, 476.2)">J</text><text xml:space="preserve" font-family="HelveticaNeue-Medium,Helvetica Neue" font-size="39.0" fill="#3B3B3B" transform="matrix(1.00, 0.00, -0.00, -1.00, 719.9, 476.2)">V</text><text xml:space="preserve" font-family="HelveticaNeue-Medium,Helvetica Neue" font-size="39.0" fill="#3B3B3B" transform="matrix(1.00, 0.00, -0.00, -1.00, 743.7, 476.2)">M</text></g></g><path d="M 0.0 0.0 L 180.5 0.0 L 182.0 0.0 " fill="none" stroke="#878787" stroke-width="3.00" transform="matrix(-0.95, -0.31, -0.31, 0.95, 513.0, 613.3)"></path><path d="M 339.2 564.0 L 328.7 553.7 L 343.3 551.5 Z M 339.2 564.0 " fill="#878787"></path><path d="M 0.0 0.0 L 221.6 0.0 L 223.1 0.0 " fill="none" stroke="#878787" stroke-width="3.00" transform="matrix(0.96, -0.26, -0.26, -0.96, 511.5, 613.2)"></path><path d="M 723.5 548.4 L 738.0 551.3 L 727.0 561.2 Z M 723.5 548.4 " fill="#878787"></path></g></svg>