<?xml version="1.0" encoding="UTF-8" standalone="no"?><svg xmlns="http://www.w3.org/2000/svg" xmlns:xlink="http://www.w3.org/1999/xlink" clip-rule="evenodd" stroke-miterlimit="10" viewBox="0 0 149 28"><desc>SVG generated by Keynote</desc><defs></defs><g transform="matrix(1.00, 0.00, -0.00, -1.00, 0.0, 28.0)"><image xlink:href="2E46D03A315971B7FAF439FE296B979F.png" width="147.00" height="25.00" transform="matrix(1.00, 0.00, -0.00, -1.00, 1.0, 27.0)"></image><text xml:space="preserve" font-family="HelveticaNeue-Medium,Helvetica Neue" font-size="23.0" fill="#3B3B3B" transform="matrix(1.00, 0.00, -0.00, -1.00, 1.2, 9.6)">U</text><text xml:space="preserve" font-family="HelveticaNeue-Medium,Helvetica Neue" font-size="23.0" fill="#3B3B3B" transform="matrix(1.00, 0.00, -0.00, -1.00, 17.8, 9.6)">R</text><text xml:space="preserve" font-family="HelveticaNeue-Medium,Helvetica Neue" font-size="23.0" fill="#3B3B3B" transform="matrix(1.00, 0.00, -0.00, -1.00, 34.0, 9.6)">Z</text><text xml:space="preserve" font-family="HelveticaNeue-Medium,Helvetica Neue" font-size="23.0" fill="#3B3B3B" transform="matrix(1.00, 0.00, -0.00, -1.00, 48.5, 9.6)">Ą</text><text xml:space="preserve" font-family="HelveticaNeue-Medium,Helvetica Neue" font-size="23.0" fill="#3B3B3B" transform="matrix(1.00, 0.00, -0.00, -1.00, 63.9, 9.6)">D</text><text xml:space="preserve" font-family="HelveticaNeue-Medium,Helvetica Neue" font-size="23.0" fill="#3B3B3B" transform="matrix(1.00, 0.00, -0.00, -1.00, 80.5, 9.6)">Z</text><text xml:space="preserve" font-family="HelveticaNeue-Medium,Helvetica Neue" font-size="23.0" fill="#3B3B3B" transform="matrix(1.00, 0.00, -0.00, -1.00, 95.0, 9.6)">E</text><text xml:space="preserve" font-family="HelveticaNeue-Medium,Helvetica Neue" font-size="23.0" fill="#3B3B3B" transform="matrix(1.00, 0.00, -0.00, -1.00, 109.4, 9.6)">N</text><text xml:space="preserve" font-family="HelveticaNeue-Medium,Helvetica Neue" font-size="23.0" fill="#3B3B3B" transform="matrix(1.00, 0.00, -0.00, -1.00, 126.0, 9.6)">I</text><text xml:space="preserve" font-family="HelveticaNeue-Medium,Helvetica Neue" font-size="23.0" fill="#3B3B3B" transform="matrix(1.00, 0.00, -0.00, -1.00, 132.4, 9.6)">E</text></g></svg>