<?xml version="1.0" encoding="UTF-8" standalone="no"?><svg xmlns="http://www.w3.org/2000/svg" xmlns:xlink="http://www.w3.org/1999/xlink" clip-rule="evenodd" stroke-miterlimit="10" viewBox="0 0 147 25"><desc>SVG generated by Keynote</desc><defs></defs><g transform="matrix(1.00, 0.00, -0.00, -1.00, 0.0, 25.0)"><image xlink:href="44F6109ADEAD1F98343F5AA0C32F7033.png" width="144.00" height="22.00" transform="matrix(1.00, 0.00, -0.00, -1.00, 1.0, 24.0)"></image><text xml:space="preserve" font-family="HelveticaNeue-Medium,Helvetica Neue" font-size="27.0" fill="#3B3B3B" transform="matrix(1.00, 0.00, -0.00, -1.00, 0.6, 4.6)">R</text><text xml:space="preserve" font-family="HelveticaNeue-Medium,Helvetica Neue" font-size="27.0" fill="#3B3B3B" transform="matrix(1.00, 0.00, -0.00, -1.00, 19.7, 4.6)">o</text><text xml:space="preserve" font-family="HelveticaNeue-Medium,Helvetica Neue" font-size="27.0" fill="#3B3B3B" transform="matrix(1.00, 0.00, -0.00, -1.00, 35.7, 4.6)">b</text><text xml:space="preserve" font-family="HelveticaNeue-Medium,Helvetica Neue" font-size="27.0" fill="#3B3B3B" transform="matrix(1.00, 0.00, -0.00, -1.00, 52.2, 4.6)">o</text><text xml:space="preserve" font-family="HelveticaNeue-Medium,Helvetica Neue" font-size="27.0" fill="#3B3B3B" transform="matrix(1.00, 0.00, -0.00, -1.00, 68.2, 4.6)">l</text><text xml:space="preserve" font-family="HelveticaNeue-Medium,Helvetica Neue" font-size="27.0" fill="#3B3B3B" transform="matrix(1.00, 0.00, -0.00, -1.00, 74.7, 4.6)">e</text><text xml:space="preserve" font-family="HelveticaNeue-Medium,Helvetica Neue" font-size="27.0" fill="#3B3B3B" transform="matrix(1.00, 0.00, -0.00, -1.00, 89.7, 4.6)">c</text><text xml:space="preserve" font-family="HelveticaNeue-Medium,Helvetica Neue" font-size="27.0" fill="#3B3B3B" transform="matrix(1.00, 0.00, -0.00, -1.00, 104.7, 4.6)">t</text><text xml:space="preserve" font-family="HelveticaNeue-Medium,Helvetica Neue" font-size="27.0" fill="#3B3B3B" transform="matrix(1.00, 0.00, -0.00, -1.00, 113.7, 4.6)">r</text><text xml:space="preserve" font-family="HelveticaNeue-Medium,Helvetica Neue" font-size="27.0" fill="#3B3B3B" transform="matrix(1.00, 0.00, -0.00, -1.00, 123.2, 4.6)">i</text><text xml:space="preserve" font-family="HelveticaNeue-Medium,Helvetica Neue" font-size="27.0" fill="#3B3B3B" transform="matrix(1.00, 0.00, -0.00, -1.00, 129.7, 4.6)">c</text></g></svg>