<?xml version="1.0" encoding="UTF-8" standalone="no"?><svg xmlns="http://www.w3.org/2000/svg" xmlns:xlink="http://www.w3.org/1999/xlink" clip-rule="evenodd" stroke-miterlimit="10" viewBox="0 0 184 30"><desc>SVG generated by Keynote</desc><defs></defs><g transform="matrix(1.00, 0.00, -0.00, -1.00, 0.0, 30.0)"><image xlink:href="7E599B33581A052C0941D5D4164AAD6D.png" width="181.00" height="28.00" transform="matrix(1.00, 0.00, -0.00, -1.00, 1.0, 29.0)"></image><text xml:space="preserve" font-family="HelveticaNeue-Medium,Helvetica Neue" font-size="27.0" fill="#3B3B3B" transform="matrix(1.00, 0.00, -0.00, -1.00, 1.3, 9.5)">m</text><text xml:space="preserve" font-family="HelveticaNeue-Medium,Helvetica Neue" font-size="27.0" fill="#3B3B3B" transform="matrix(1.00, 0.00, -0.00, -1.00, 24.8, 9.5)">o</text><text xml:space="preserve" font-family="HelveticaNeue-Medium,Helvetica Neue" font-size="27.0" fill="#3B3B3B" transform="matrix(1.00, 0.00, -0.00, -1.00, 40.8, 9.5)">n</text><text xml:space="preserve" font-family="HelveticaNeue-Medium,Helvetica Neue" font-size="27.0" fill="#3B3B3B" transform="matrix(1.00, 0.00, -0.00, -1.00, 56.3, 9.5)">k</text><text xml:space="preserve" font-family="HelveticaNeue-Medium,Helvetica Neue" font-size="27.0" fill="#3B3B3B" transform="matrix(1.00, 0.00, -0.00, -1.00, 70.8, 9.5)">e</text><text xml:space="preserve" font-family="HelveticaNeue-Medium,Helvetica Neue" font-size="27.0" fill="#3B3B3B" transform="matrix(1.00, 0.00, -0.00, -1.00, 85.8, 9.5)">y</text><text xml:space="preserve" font-family="HelveticaNeue-Medium,Helvetica Neue" font-size="27.0" fill="#3B3B3B" transform="matrix(1.00, 0.00, -0.00, -1.00, 99.8, 9.5)">r</text><text xml:space="preserve" font-family="HelveticaNeue-Medium,Helvetica Neue" font-size="27.0" fill="#3B3B3B" transform="matrix(1.00, 0.00, -0.00, -1.00, 109.3, 9.5)">u</text><text xml:space="preserve" font-family="HelveticaNeue-Medium,Helvetica Neue" font-size="27.0" fill="#3B3B3B" transform="matrix(1.00, 0.00, -0.00, -1.00, 124.8, 9.5)">n</text><text xml:space="preserve" font-family="HelveticaNeue-Medium,Helvetica Neue" font-size="27.0" fill="#3B3B3B" transform="matrix(1.00, 0.00, -0.00, -1.00, 140.3, 9.5)">n</text><text xml:space="preserve" font-family="HelveticaNeue-Medium,Helvetica Neue" font-size="27.0" fill="#3B3B3B" transform="matrix(1.00, 0.00, -0.00, -1.00, 155.8, 9.5)">e</text><text xml:space="preserve" font-family="HelveticaNeue-Medium,Helvetica Neue" font-size="27.0" fill="#3B3B3B" transform="matrix(1.00, 0.00, -0.00, -1.00, 170.8, 9.5)">r</text></g></svg>