<?xml version="1.0" encoding="UTF-8" standalone="no"?><svg xmlns="http://www.w3.org/2000/svg" xmlns:xlink="http://www.w3.org/1999/xlink" clip-rule="evenodd" stroke-miterlimit="10" viewBox="0 0 137 24"><desc>SVG generated by Keynote</desc><defs></defs><g transform="matrix(1.00, 0.00, -0.00, -1.00, 0.0, 24.0)"><image xlink:href="7842DDE73107AE44C6CD53E8A8952523.png" width="135.00" height="22.00" transform="matrix(1.00, 0.00, -0.00, -1.00, 1.0, 23.0)"></image><text xml:space="preserve" font-family="HelveticaNeue-Medium,Helvetica Neue" font-size="27.0" fill="#3B3B3B" transform="matrix(1.00, 0.00, -0.00, -1.00, 2.2, 3.6)">f</text><text xml:space="preserve" font-family="HelveticaNeue-Medium,Helvetica Neue" font-size="27.0" fill="#3B3B3B" transform="matrix(1.00, 0.00, -0.00, -1.00, 10.7, 3.6)">r</text><text xml:space="preserve" font-family="HelveticaNeue-Medium,Helvetica Neue" font-size="27.0" fill="#3B3B3B" transform="matrix(1.00, 0.00, -0.00, -1.00, 20.2, 3.6)">a</text><text xml:space="preserve" font-family="HelveticaNeue-Medium,Helvetica Neue" font-size="27.0" fill="#3B3B3B" transform="matrix(1.00, 0.00, -0.00, -1.00, 35.2, 3.6)">m</text><text xml:space="preserve" font-family="HelveticaNeue-Medium,Helvetica Neue" font-size="27.0" fill="#3B3B3B" transform="matrix(1.00, 0.00, -0.00, -1.00, 58.7, 3.6)">e</text><text xml:space="preserve" font-family="HelveticaNeue-Medium,Helvetica Neue" font-size="27.0" fill="#3B3B3B" transform="matrix(1.00, 0.00, -0.00, -1.00, 73.8, 3.6)">w</text><text xml:space="preserve" font-family="HelveticaNeue-Medium,Helvetica Neue" font-size="27.0" fill="#3B3B3B" transform="matrix(1.00, 0.00, -0.00, -1.00, 94.8, 3.6)">o</text><text xml:space="preserve" font-family="HelveticaNeue-Medium,Helvetica Neue" font-size="27.0" fill="#3B3B3B" transform="matrix(1.00, 0.00, -0.00, -1.00, 110.8, 3.6)">r</text><text xml:space="preserve" font-family="HelveticaNeue-Medium,Helvetica Neue" font-size="27.0" fill="#3B3B3B" transform="matrix(1.00, 0.00, -0.00, -1.00, 120.3, 3.6)">k</text></g></svg>