<?xml version="1.0" encoding="UTF-8" standalone="no"?><svg xmlns="http://www.w3.org/2000/svg" xmlns:xlink="http://www.w3.org/1999/xlink" clip-rule="evenodd" stroke-miterlimit="10" viewBox="0 0 542 300"><desc>SVG generated by Keynote</desc><defs><pattern id="patternP1" patternUnits="userSpaceOnUse" width="512" height="512" viewBox="0 0 512 512"><image xlink:href="71D9304BD44382C20CC202032C6D6058.png" width="512.00" height="512.00"></image></pattern></defs><g transform="matrix(1.00, 0.00, -0.00, -1.00, 0.0, 300.0)"><image xlink:href="11838AD6E7F4A970061CFB6550FD4213.png" width="540.00" height="294.00" transform="matrix(1.00, 0.00, -0.00, -1.00, 1.0, 295.0)" opacity="0.50"></image><g><clipPath id="clip0x6000024b5c60"><path d="M 5.0 49.9 L 5.0 250.1 C 5.0 273.8 24.2 293.0 47.9 293.0 L 493.8 293.0 C 517.4 293.0 537.0 273.8 537.0 250.1 L 537.0 49.9 C 537.0 26.2 517.4 7.0 493.8 7.0 L 47.9 7.0 C 24.2 7.0 5.0 26.2 5.0 49.9 Z M 5.0 49.9 "></path></clipPath><g clip-path="url(#clip0x6000024b5c60)"><path d="M 5.0 7.0 L 537.0 7.0 L 537.0 293.0 L 5.0 293.0 Z M 5.0 7.0 " fill="url(#patternP1)"></path></g></g></g></svg>